<svg width="150" height="153" viewBox="0 0 150 153" fill="none" xmlns="http://www.w3.org/2000/svg">
<g filter="url(#filter0_d_3097_68183)">
<path d="M33.1444 51.1362H141.715L141.715 51.1364H141.927C142.824 51.1364 143.683 51.4923 144.317 52.126C144.95 52.7598 145.306 53.619 145.306 54.5154V121.662C145.306 122.561 144.948 123.422 144.311 124.056L144.311 124.056C143.675 124.691 142.812 125.045 141.913 125.041H141.911H133.116H132.741V125.416V134.211C132.737 135.107 132.378 135.964 131.741 136.595C131.105 137.226 130.244 137.579 129.347 137.575H129.346H120.55H120.175V137.95V146.746C120.175 147.633 119.827 148.484 119.205 149.116L119.205 149.116C118.584 149.747 117.741 150.11 116.855 150.125H8.0728C7.17623 150.125 6.31712 149.769 5.68341 149.135C5.04966 148.502 4.69376 147.642 4.69376 146.746V79.599C4.69376 78.7033 5.0497 77.8432 5.68339 77.2095C6.3172 76.5758 7.17634 76.2199 8.0728 76.2199H16.8842H17.2592V75.8449V67.0499C17.2629 66.1538 17.6224 65.2968 18.2586 64.6659C18.8949 64.0349 19.7558 63.6825 20.6524 63.686H20.6539H29.4496H29.8246V63.311V54.5153C29.8246 53.6283 30.1726 52.7772 30.7946 52.1455L30.7948 52.1453C31.4153 51.514 32.2591 51.1512 33.1444 51.1362ZM128.166 125.416V125.04L128.104 125.04V68.7295V68.3545H127.729H22.2727H21.8977V68.7295V75.8451V76.2201H22.2727H116.796C117.692 76.2201 118.552 76.576 119.185 77.2097C119.819 77.8435 120.175 78.7036 120.175 79.5991V132.547V132.922H120.55H127.791H128.166V132.547V125.416ZM115.6 137.981V137.779L115.553 137.747V81.2631V80.8881H115.178H9.73656H9.36156V81.2631V145.081V145.456H9.73656H115.225H115.6V145.081V137.981ZM129.362 63.7016H129.45L129.477 63.688C130.334 63.7171 131.149 64.0717 131.756 64.6811C132.382 65.3105 132.736 66.1626 132.74 67.0509V119.997V120.372H133.115H140.262H140.637V119.997V56.1797V55.8047H140.262H34.8208H34.4458V56.1797V63.3266V63.7016H34.8208H129.362Z" fill="black" stroke="white" stroke-width="0.75"/>
<path d="M73.6292 128.194V128.194H73.6315H102.956C104.223 128.194 105.256 129.207 105.282 130.472C105.243 131.741 104.222 132.762 102.95 132.801H73.621C72.351 132.762 71.3291 131.742 71.2889 130.472C71.3165 129.201 72.3576 128.187 73.6292 128.194Z" fill="black" stroke="white" stroke-width="0.75"/>
<path d="M72.3354 122.399L72.2391 122.526L72.3156 122.385C71.6944 121.976 71.312 121.288 71.2907 120.545C71.3066 120.398 71.3378 120.252 71.383 120.11L71.3901 120.088L71.3943 120.065C71.5951 118.983 72.5346 118.196 73.6341 118.188H88.7102C89.8098 118.196 90.7492 118.983 90.95 120.065L90.9543 120.088L90.9613 120.11C91.006 120.25 91.037 120.395 91.0531 120.54C90.9784 121.793 89.9732 122.792 88.7179 122.857H73.6818C73.1958 122.853 72.7233 122.692 72.3354 122.399Z" fill="black" stroke="white" stroke-width="0.75"/>
<path d="M22.4277 92.9447L22.4388 92.9396L22.4496 92.9338C22.7674 92.7627 23.1224 92.6705 23.4835 92.665H62.2324L62.2327 92.6651H62.2471C63.5319 92.6651 64.5739 93.7061 64.5739 94.9918V130.468C64.5355 131.74 63.5129 132.762 62.2417 132.801H23.4028C22.1171 132.801 21.076 131.759 21.076 130.474V94.9959C21.0961 94.1101 21.6209 93.3133 22.4277 92.9447ZM59.545 128.178H59.92V127.803V122.698V97.708V97.333H59.545H26.1835H25.8085V97.708V127.803V128.178H26.1835H59.545Z" fill="black" stroke="white" stroke-width="0.75"/>
</g>
<defs>
<filter id="filter0_d_3097_68183" x="4.31876" y="50.7612" width="143.362" height="101.739" filterUnits="userSpaceOnUse" color-interpolation-filters="sRGB">
<feFlood flood-opacity="0" result="BackgroundImageFix"/>
<feColorMatrix in="SourceAlpha" type="matrix" values="0 0 0 0 0 0 0 0 0 0 0 0 0 0 0 0 0 0 127 0" result="hardAlpha"/>
<feOffset dx="2" dy="2"/>
<feComposite in2="hardAlpha" operator="out"/>
<feColorMatrix type="matrix" values="0 0 0 0 0.8 0 0 0 0 1 0 0 0 0 0 0 0 0 1 0"/>
<feBlend mode="normal" in2="BackgroundImageFix" result="effect1_dropShadow_3097_68183"/>
<feBlend mode="normal" in="SourceGraphic" in2="effect1_dropShadow_3097_68183" result="shape"/>
</filter>
</defs>
</svg>
