<svg width="151" height="152" viewBox="0 0 151 152" fill="none" xmlns="http://www.w3.org/2000/svg">
<g filter="url(#filter0_d_3097_68348)">
<path d="M99.2711 115.357C96.8206 115.357 94.4714 116.33 92.7384 118.062C91.0063 119.795 90.0327 122.145 90.0327 124.595C90.0327 127.045 91.0063 129.395 92.7384 131.127C94.4714 132.86 96.8206 133.833 99.2711 133.833C101.721 133.833 104.071 132.86 105.803 131.127C107.536 129.395 108.51 127.045 108.51 124.595C108.506 122.145 107.531 119.798 105.8 118.066C104.068 116.334 101.72 115.36 99.2711 115.357ZM99.2711 129.214C98.0462 129.214 96.8708 128.728 96.0048 127.861C95.1387 126.995 94.6523 125.82 94.6523 124.595C94.6523 123.369 95.1387 122.195 96.0048 121.329C96.8708 120.463 98.0461 119.976 99.2711 119.976C100.496 119.976 101.671 120.463 102.537 121.329C103.404 122.195 103.89 123.37 103.89 124.595C103.889 125.82 103.402 126.994 102.536 127.86C101.671 128.726 100.496 129.213 99.2711 129.214ZM123.674 119.484C123.995 118.301 123.828 117.038 123.209 115.979L118.702 108.167H118.703C118.088 107.107 117.079 106.336 115.896 106.019C114.713 105.703 113.453 105.868 112.392 106.479L108.509 108.541V103.809C108.507 102.584 108.021 101.41 107.155 100.544C106.289 99.6777 105.114 99.1905 103.889 99.1897H94.6508H94.6516C93.4267 99.1905 92.2521 99.6777 91.386 100.544C90.52 101.41 90.0328 102.585 90.032 103.809L89.9872 108.695L86.1485 106.476V106.475C85.0868 105.866 83.8271 105.704 82.6456 106.022C81.4642 106.34 80.4558 107.112 79.8425 108.171L75.3273 115.984C74.7187 117.046 74.5555 118.305 74.8733 119.487C75.1911 120.668 75.9644 121.677 77.023 122.29L80.8028 124.717L77.0184 126.899C75.9606 127.515 75.1888 128.524 74.8725 129.707C74.5563 130.89 74.7218 132.149 75.3319 133.21L79.8386 141.014H79.8379C80.4503 142.077 81.4602 142.852 82.6441 143.17C83.8288 143.489 85.0907 143.323 86.1534 142.71L90.033 140.527V145.381C90.0338 146.606 90.5201 147.78 91.3862 148.646C92.2523 149.512 93.427 149.999 94.6518 150H103.89C105.114 149.999 106.289 149.512 107.155 148.646C108.021 147.78 108.508 146.606 108.509 145.381L108.545 140.559L108.604 140.523L112.398 142.715H112.397C113.459 143.32 114.718 143.481 115.899 143.163C117.08 142.846 118.088 142.075 118.703 141.019L123.21 133.215C123.823 132.154 123.991 130.894 123.675 129.709C123.359 128.525 122.586 127.514 121.526 126.9H121.522L117.778 124.451L121.527 122.29C122.588 121.679 123.362 120.669 123.674 119.484L123.674 119.484ZM115.468 120.453V120.454C113.994 121.312 113.087 122.889 113.087 124.595C113.087 126.301 113.994 127.879 115.468 128.736L119.213 130.897L114.702 138.714L110.868 136.499H110.867C110.187 136.102 109.414 135.891 108.626 135.888C107.838 135.885 107.063 136.089 106.379 136.481L106.212 136.572C105.511 136.968 104.927 137.542 104.519 138.237C104.111 138.932 103.894 139.722 103.889 140.527V145.381H94.6509L94.6517 140.527C94.6463 139.713 94.4244 138.916 94.0091 138.217C93.5938 137.518 92.9992 136.942 92.2878 136.548C91.5655 136.129 90.7458 135.906 89.9107 135.904C89.1266 135.9 88.3564 136.106 87.6775 136.499L83.8388 138.709L79.3321 130.896L83.1034 128.717H83.1042C84.5394 127.841 85.4164 126.281 85.4179 124.6C85.4203 122.918 84.5472 121.356 83.1127 120.476L79.3283 118.289L83.8436 110.476L87.6689 112.686C88.3804 113.088 89.1861 113.292 90.0027 113.282C90.8201 113.271 91.6189 113.043 92.3194 112.623C93.0239 112.228 93.6108 111.653 94.0207 110.958C94.4305 110.262 94.6478 109.469 94.6517 108.662V103.809H103.89V108.663V108.662C103.894 109.469 104.112 110.259 104.52 110.954C104.929 111.648 105.515 112.223 106.218 112.618L106.259 112.641H106.258C106.953 113.057 107.746 113.281 108.556 113.289C109.366 113.299 110.164 113.091 110.868 112.69L114.707 110.48L119.213 118.292L115.468 120.453ZM66.0932 79.8478C62.4286 79.8478 58.914 81.3031 56.3229 83.8943C53.7324 86.4856 52.2764 90.0002 52.2764 93.664C52.2764 97.3287 53.7325 100.843 56.3229 103.434C58.9142 106.026 62.4288 107.481 66.0932 107.481C69.7571 107.481 73.2717 106.026 75.8629 103.434C78.4542 100.843 79.9094 97.3285 79.9094 93.664C79.9056 90.001 78.4487 86.4895 75.8582 83.899C73.2677 81.3085 69.7563 79.8517 66.0932 79.8478ZM66.0932 102.863C63.6536 102.863 61.3143 101.894 59.5893 100.169C57.8648 98.4435 56.896 96.1043 56.896 93.6646C56.896 91.2258 57.8649 88.8865 59.5893 87.1612C61.3144 85.436 63.6536 84.4672 66.0932 84.4672C68.5321 84.4672 70.8722 85.4361 72.5966 87.1612C74.3218 88.8864 75.2906 91.2256 75.2906 93.6646C75.2876 96.1035 74.3171 98.4412 72.5934 100.165C70.869 101.889 68.5313 102.859 66.0932 102.863V102.863ZM35.1442 120.184L27.6565 107.211H27.6558C26.8423 105.8 26.6227 104.123 27.0433 102.55C27.4648 100.976 28.4924 99.6336 29.9021 98.8162L36.1857 95.1895C36.686 94.8586 36.9729 94.2871 36.9389 93.6878C36.9837 93.0738 36.6961 92.4838 36.1857 92.1405L29.9021 88.5138C28.4924 87.6988 27.4632 86.3571 27.0425 84.7835C26.6211 83.2106 26.8415 81.5341 27.6557 80.1237L35.1434 67.1503C35.9592 65.7414 37.3002 64.7122 38.8729 64.2892C40.445 63.867 42.1215 64.0842 43.5335 64.8954L49.9068 68.5763L49.9076 68.5755C50.3901 68.8168 50.9639 68.7859 51.4186 68.4943L51.4681 68.4626V68.4634C51.9421 68.2198 52.2499 67.7412 52.2754 67.2092V59.1438C52.2777 57.5153 52.9249 55.9533 54.0771 54.8018C55.2286 53.6496 56.7906 53.0015 58.4192 53H73.765C75.3944 53.0015 76.9556 53.6495 78.1071 54.8018C79.2593 55.9532 79.9073 57.5152 79.9089 59.1438V67.2092C79.9359 67.7396 80.2414 68.2167 80.7123 68.4634C80.7757 68.4998 80.8383 68.5353 80.8925 68.5717C81.3232 68.8029 81.8405 68.8044 82.2728 68.5763L88.6461 64.9002V64.8994C90.0589 64.0898 91.7353 63.8725 93.3083 64.2939C94.8811 64.7154 96.2228 65.7431 97.0408 67.1505L104.528 80.1239H104.529C105.343 81.5343 105.563 83.2109 105.142 84.7837C104.721 86.3573 103.693 87.699 102.282 88.514L96.0666 92.0997C95.9985 92.1391 95.9668 92.2141 95.9049 92.2621H90.8168C91.1655 90.523 92.2334 89.012 93.7575 88.1033L99.973 84.5169C100.7 84.0939 100.95 83.1636 100.532 82.4329L93.0445 69.4604C92.8419 69.107 92.507 68.8495 92.1142 68.7443C91.7214 68.6391 91.3022 68.6956 90.9512 68.9005L84.5872 72.5729C82.6617 73.6099 80.3372 73.5766 78.4427 72.4839C76.5489 71.3905 75.3557 69.3954 75.29 67.2093V59.144C75.2877 58.3026 74.6064 57.6214 73.7651 57.6191H58.4192C57.5779 57.6214 56.8966 58.3026 56.8951 59.144V67.2093C56.8881 68.2849 56.5943 69.3389 56.0452 70.263C55.4955 71.1879 54.7098 71.9488 53.7687 72.4693C53.7007 72.5103 53.6287 72.5459 53.5568 72.5822C51.7033 73.6176 49.4438 73.6138 47.5933 72.5729L41.2285 68.8968C40.4954 68.4831 39.5659 68.7344 39.1406 69.4605L31.6522 82.4331C31.2346 83.1638 31.4844 84.0941 32.2113 84.517L38.4949 88.1437V88.1444C40.4003 89.333 41.5579 91.4201 41.5579 93.665C41.5579 95.9106 40.4003 97.9977 38.4949 99.1863L32.2113 102.813V102.814C31.4836 103.238 31.2346 104.17 31.6522 104.902L39.1406 117.875C39.5674 118.6 40.4962 118.849 41.2285 118.434L47.598 114.758C48.5306 114.222 49.5907 113.946 50.6672 113.959C51.7428 113.973 52.7953 114.275 53.7148 114.834C53.7782 114.871 53.8408 114.906 53.895 114.943C55.7385 116.019 56.8782 117.987 56.8953 120.121V128.187C56.8968 129.028 57.5781 129.709 58.4194 129.712H66.0919V134.33H58.4194C56.7909 134.329 55.2289 133.681 54.0773 132.529C52.9252 131.377 52.2779 129.815 52.2756 128.187V120.121C52.2501 119.588 51.94 119.109 51.4636 118.867C51.0043 118.553 50.412 118.51 49.9124 118.754L43.5391 122.43L43.5383 122.431C42.1271 123.246 40.4498 123.467 38.8762 123.046C37.3018 122.625 35.9595 121.595 35.1437 120.185L35.1442 120.184Z" fill="black"/>
</g>
<defs>
<filter id="filter0_d_3097_68348" x="26.8333" y="53" width="99" height="99" filterUnits="userSpaceOnUse" color-interpolation-filters="sRGB">
<feFlood flood-opacity="0" result="BackgroundImageFix"/>
<feColorMatrix in="SourceAlpha" type="matrix" values="0 0 0 0 0 0 0 0 0 0 0 0 0 0 0 0 0 0 127 0" result="hardAlpha"/>
<feOffset dx="2" dy="2"/>
<feComposite in2="hardAlpha" operator="out"/>
<feColorMatrix type="matrix" values="0 0 0 0 0.8 0 0 0 0 1 0 0 0 0 0 0 0 0 1 0"/>
<feBlend mode="normal" in2="BackgroundImageFix" result="effect1_dropShadow_3097_68348"/>
<feBlend mode="normal" in="SourceGraphic" in2="effect1_dropShadow_3097_68348" result="shape"/>
</filter>
</defs>
</svg>
