<svg width="151" height="153" viewBox="0 0 151 153" fill="none" xmlns="http://www.w3.org/2000/svg">
<g filter="url(#filter0_d_3097_68351)">
<path d="M112.614 143.746H38.7617C37.9027 143.746 37.2067 143.05 37.2067 142.191C37.2067 141.332 37.9027 140.636 38.7617 140.636H112.614C113.473 140.636 114.169 141.332 114.169 142.191C114.169 143.05 113.473 143.746 112.614 143.746Z" fill="black"/>
<path d="M141.1 65.4859L126.38 37.4556C123.609 32.0909 118.987 27.9139 113.371 25.7001C110.468 24.5793 101.676 21.3806 101.595 21.3517H101.594C100.494 20.9473 99.2951 20.8908 98.1614 21.1916C83.3238 23.9072 68.117 23.9165 53.2749 21.2185C52.1161 20.888 50.8822 20.9334 49.7504 21.348C49.6624 21.3804 40.8698 24.5792 37.9672 25.7019C32.3509 27.9158 27.7277 32.0929 24.9586 37.4573L10.233 65.4853C9.75546 66.396 9.68604 67.4678 10.0442 68.4331C10.4024 69.3983 11.154 70.1657 12.111 70.5443L35.8053 80.1293L31.7467 146.649C31.6847 147.648 32.0392 148.628 32.725 149.357C33.4099 150.086 34.367 150.5 35.3674 150.5H115.966C116.966 150.5 117.923 150.086 118.608 149.358C119.293 148.629 119.648 147.649 119.587 146.651L115.528 80.1312L139.204 70.5535C140.166 70.1787 140.923 69.4114 141.285 68.4442C141.647 67.477 141.58 66.4015 141.1 65.4871L141.1 65.4859ZM94.0949 24.9734C91.9208 28.946 86.8385 34.7113 75.6662 34.7113C64.5159 34.7113 59.4337 28.9683 57.2503 24.9985C63.3414 25.8917 69.4879 26.3452 75.6439 26.3563C81.8201 26.3424 87.9863 25.8806 94.0949 24.9736V24.9734ZM138.372 67.3554C138.319 67.4988 138.205 67.6127 138.061 67.6664L115.334 76.86L115.151 73.8537L135.013 66.0234C135.806 65.705 136.194 64.8054 135.881 64.0094C135.567 63.2143 134.669 62.821 133.872 63.1301L114.952 70.5938L114.022 55.3842C113.969 54.5253 113.23 53.8719 112.372 53.9246C111.513 53.9764 110.859 54.715 110.912 55.5739L116.48 146.842C116.488 146.985 116.437 147.125 116.339 147.229C116.241 147.333 116.104 147.392 115.962 147.392H35.368C35.2245 147.392 35.0884 147.333 34.9903 147.229C34.8922 147.125 34.8413 146.985 34.8496 146.842L40.4216 55.5739C40.4743 54.715 39.82 53.9764 38.9611 53.9246C38.1031 53.8718 37.3645 54.5253 37.3117 55.3842L36.3843 70.5874L17.4639 63.1237H17.463C16.6661 62.8146 15.7683 63.2079 15.4555 64.0039C15.1417 64.799 15.5295 65.6986 16.3227 66.017L36.1842 73.8473L36.001 76.8536L13.2618 67.6574C13.1239 67.6037 13.0156 67.4935 12.9638 67.3547C12.9119 67.2168 12.9221 67.0622 12.9915 66.9317L27.7116 38.9014C30.1301 34.2052 34.1702 30.5463 39.082 28.6027C41.9559 27.492 50.7199 24.3033 50.8145 24.2692C52.0427 23.8092 53.4199 24.3451 54.0151 25.5132C56.2364 30.1068 62.0036 37.8212 75.6667 37.8212C89.3298 37.8212 95.097 30.1065 97.3183 25.5094C97.9171 24.3413 99.2972 23.8082 100.525 24.271C100.613 24.3034 109.377 27.492 112.251 28.6016V28.6025C117.165 30.5452 121.208 34.205 123.627 38.9022L138.347 66.9325C138.416 67.063 138.425 67.2176 138.372 67.3555L138.372 67.3554Z" fill="black"/>
<path d="M101.22 26.4678C100.417 26.167 99.5224 26.5724 99.2197 27.3748C99.0198 27.8996 94.1264 40.229 75.6662 40.229C57.2059 40.229 52.3133 27.8933 52.1152 27.3748C51.9764 26.9814 51.6858 26.6594 51.3082 26.4826C50.9305 26.3058 50.4983 26.2873 50.1068 26.4326C49.7162 26.5779 49.3996 26.8741 49.2294 27.2545C49.0581 27.6349 49.0479 28.0681 49.1997 28.4568C49.4256 29.0695 54.965 43.3406 75.6663 43.3406C96.3675 43.3406 101.908 29.0695 102.133 28.4623C102.429 27.6598 102.022 26.7685 101.22 26.4677L101.22 26.4678Z" fill="black"/>
</g>
<defs>
<filter id="filter0_d_3097_68351" x="9.81775" y="21" width="133.698" height="131.5" filterUnits="userSpaceOnUse" color-interpolation-filters="sRGB">
<feFlood flood-opacity="0" result="BackgroundImageFix"/>
<feColorMatrix in="SourceAlpha" type="matrix" values="0 0 0 0 0 0 0 0 0 0 0 0 0 0 0 0 0 0 127 0" result="hardAlpha"/>
<feOffset dx="2" dy="2"/>
<feComposite in2="hardAlpha" operator="out"/>
<feColorMatrix type="matrix" values="0 0 0 0 0.8 0 0 0 0 1 0 0 0 0 0 0 0 0 1 0"/>
<feBlend mode="normal" in2="BackgroundImageFix" result="effect1_dropShadow_3097_68351"/>
<feBlend mode="normal" in="SourceGraphic" in2="effect1_dropShadow_3097_68351" result="shape"/>
</filter>
</defs>
</svg>
