<svg width="151" height="153" viewBox="0 0 151 153" fill="none" xmlns="http://www.w3.org/2000/svg">
<g filter="url(#filter0_d_3097_68260)">
<path d="M125.271 55.5002H30.6324C26.9144 55.5002 23.8731 58.5752 23.8731 62.3343V88.6474C23.8731 92.4065 26.9144 95.4815 30.6324 95.4815L31.3079 95.4827V104.026H35.8711V113.936C35.8711 115.304 37.0546 116.499 38.4056 116.499C39.7577 116.499 40.94 115.302 40.94 113.936V104.026H45.5033V95.4827H47.024C50.7419 95.4827 53.7833 92.4077 53.7833 88.6486C53.7833 87.794 54.4588 86.9394 55.4737 86.9394H125.101C128.819 86.9394 131.86 83.8644 131.86 80.1053L131.862 62.1639C131.862 58.575 128.82 55.5 125.271 55.5L125.271 55.5002ZM126.792 80.2758C126.792 81.1304 126.116 81.9849 125.101 81.9849H55.4742C51.7563 81.9849 48.715 85.0599 48.715 88.819C48.715 89.6736 48.0395 90.5282 47.0245 90.5282H30.4631C29.6178 90.5282 28.7726 89.8453 28.7726 88.819V62.1639C28.7726 61.3094 29.4481 60.4548 30.4631 60.4548H125.102C125.947 60.4548 126.792 61.1377 126.792 62.1639L126.792 80.2758ZM100.935 72.7573H82.1763C80.8242 72.7573 79.6418 71.5606 79.6418 70.1947C79.6418 68.8276 80.8254 67.6322 82.1763 67.6322H100.935C102.287 67.6322 103.47 68.8289 103.47 70.1947C103.47 71.5618 102.287 72.7573 100.935 72.7573ZM130.34 126.752H125.27L125.271 114.961H132.2C133.552 114.961 134.735 113.765 134.735 112.399V97.0213C134.735 95.6542 133.551 94.4588 132.2 94.4588H125.271V84.3779C125.271 83.0108 124.087 81.8153 122.736 81.8153L85.388 81.813C84.0359 81.813 82.8535 83.0096 82.8535 84.3755V126.751H20.3245C14.0719 126.751 8.83328 131.877 8.83328 138.369V147.937C8.83328 149.305 10.0168 150.5 11.3678 150.5H139.299C140.651 150.5 141.833 149.303 141.833 147.937V138.369C141.662 132.049 136.593 126.752 130.34 126.752L130.34 126.752ZM125.101 99.5839H129.495V109.837H125.101V99.5839ZM87.9219 86.9393H120.2V126.752L87.9219 126.753V86.9393ZM136.593 145.376H13.9011V138.37C13.9011 134.781 16.7739 131.877 20.3233 131.877L85.3873 131.878H130.172C133.721 131.878 136.594 134.783 136.594 138.371L136.593 145.376ZM110.905 108.64C110.905 112.569 107.864 115.645 103.976 115.645C100.089 115.645 97.0469 112.57 97.0469 108.64C97.0469 105.735 98.9059 103.171 101.441 102.146V101.634V94.287C101.441 92.9199 102.624 91.7245 103.975 91.7245C105.327 91.7245 106.509 92.9212 106.509 94.287V101.634V102.146C109.046 103.171 110.905 105.735 110.905 108.64H110.905Z" fill="black"/>
<path d="M125.271 55.8752H125.321C128.637 55.9037 131.487 58.795 131.487 62.1638L131.485 80.1052C131.485 83.475 128.901 86.2587 125.646 86.5409V84.3779C125.646 83.6118 125.325 82.8941 124.815 82.3599H125.101C126.351 82.3599 127.167 81.3085 127.167 80.2758L127.167 62.164C127.167 60.9103 126.133 60.0798 125.102 60.0798H30.4631C29.2132 60.0798 28.3976 61.1312 28.3976 62.1639V88.819C28.3976 90.0727 29.4316 90.9032 30.4631 90.9032H47.0245C48.2744 90.9032 49.09 89.8518 49.09 88.819C49.09 85.2632 51.9673 82.3599 55.4742 82.3599H83.3067C82.7981 82.8941 82.4785 83.611 82.4785 84.3755V86.5644H55.4737C54.2239 86.5644 53.4083 87.6158 53.4083 88.6486C53.4083 92.2045 50.5309 95.1077 47.024 95.1077H45.5033H45.1283V95.4827V103.651H40.94H40.565V104.026V113.936C40.565 115.099 39.5466 116.124 38.4056 116.124C37.2655 116.124 36.2461 115.1 36.2461 113.936V104.026V103.651H35.8711H31.6829V95.4827V95.1083L31.3085 95.1077L30.633 95.1065H30.6324C27.1254 95.1065 24.2481 92.2033 24.2481 88.6474V62.3343C24.2481 58.7784 27.1254 55.8752 30.6324 55.8752H125.271ZM124.896 84.3779V86.5644H120.575V86.5643H120.2H87.9219H87.5469V86.5644H83.2285V84.3755C83.2285 83.498 83.8085 82.6991 84.5835 82.3599H123.535C124.313 82.6976 124.896 83.4977 124.896 84.3779ZM83.2285 126.751V87.3144H87.5469V126.753V127.128L87.9219 127.128L120.2 127.127L120.575 127.127V126.752V87.3144H124.896V94.4588V94.8338H125.271H132.2C133.34 94.8338 134.36 95.8575 134.36 97.0213V112.399C134.36 113.562 133.341 114.586 132.2 114.586H125.271H124.896L124.896 114.961L124.895 126.752L124.895 127.127H125.27H129.571L129.57 127.127H130.34C136.372 127.127 141.29 132.242 141.458 138.374V147.937C141.458 149.1 140.44 150.125 139.299 150.125H11.3678C10.2277 150.125 9.20828 149.101 9.20828 147.937V138.369C9.20828 132.084 14.2793 127.126 20.3245 127.126H82.8535H83.2285V126.751ZM125.101 99.2089H124.726V99.5839V109.837V110.212H125.101H129.495H129.87V109.837V99.5839V99.2089H129.495H125.101ZM136.593 145.751H136.968L136.968 145.376L136.969 138.371C136.969 134.58 133.932 131.503 130.172 131.503H85.3873L20.3233 131.502C16.5629 131.502 13.5261 134.578 13.5261 138.37V145.376V145.751H13.9011H136.593ZM110.53 108.669C110.515 112.381 107.643 115.27 103.976 115.27C100.3 115.27 97.4219 112.367 97.4219 108.64C97.4219 105.894 99.182 103.464 101.581 102.494L101.816 102.399V102.146V101.634V94.287C101.816 93.1233 102.835 92.0995 103.975 92.0995C105.116 92.0995 106.134 93.1242 106.134 94.287V101.634V102.146V102.399L106.369 102.494C108.77 103.464 110.53 105.895 110.53 108.64V108.669ZM100.935 72.3823H82.1763C81.0353 72.3823 80.0168 71.3575 80.0168 70.1947C80.0168 69.031 81.0363 68.0072 82.1763 68.0072H100.935C102.076 68.0072 103.095 69.0319 103.095 70.1947C103.095 71.3586 102.076 72.3823 100.935 72.3823Z" stroke="white" stroke-width="0.75"/>
</g>
<defs>
<filter id="filter0_d_3097_68260" x="8.83328" y="55.5" width="135" height="97" filterUnits="userSpaceOnUse" color-interpolation-filters="sRGB">
<feFlood flood-opacity="0" result="BackgroundImageFix"/>
<feColorMatrix in="SourceAlpha" type="matrix" values="0 0 0 0 0 0 0 0 0 0 0 0 0 0 0 0 0 0 127 0" result="hardAlpha"/>
<feOffset dx="2" dy="2"/>
<feComposite in2="hardAlpha" operator="out"/>
<feColorMatrix type="matrix" values="0 0 0 0 0.8 0 0 0 0 1 0 0 0 0 0 0 0 0 1 0"/>
<feBlend mode="normal" in2="BackgroundImageFix" result="effect1_dropShadow_3097_68260"/>
<feBlend mode="normal" in="SourceGraphic" in2="effect1_dropShadow_3097_68260" result="shape"/>
</filter>
</defs>
</svg>
