<svg width="151" height="153" viewBox="0 0 151 153" fill="none" xmlns="http://www.w3.org/2000/svg">
<g filter="url(#filter0_d_3097_68350)">
<path d="M125.635 119.572H76.5631L113.231 86.3947C114.218 85.4973 114.811 84.2451 114.877 82.9118C114.942 81.5786 114.476 80.274 113.581 79.2844L99.5836 63.8202C98.6884 62.8238 97.4317 62.2255 96.0939 62.1599C94.755 62.0932 93.4461 62.5658 92.4576 63.4699L65.3557 87.9418L75.0649 52.9653L75.0638 52.9642C75.4175 51.6775 75.2462 50.303 74.589 49.1408C73.9318 47.9787 72.8419 47.1236 71.5565 46.7632L51.4528 41.1828H51.4539C50.1651 40.8247 48.7872 40.9971 47.6274 41.661C46.4576 42.3071 45.6002 43.4003 45.2521 44.6903L21.9124 128.946C19.8651 133.725 20.3555 139.212 23.219 143.552C26.0827 147.891 30.9346 150.502 36.1332 150.5H125.633C126.97 150.5 128.251 149.97 129.195 149.024C130.14 148.08 130.671 146.798 130.671 145.462V124.609C130.671 123.273 130.14 121.992 129.195 121.047C128.251 120.102 126.97 119.571 125.633 119.571L125.635 119.572ZM94.5639 65.846C94.923 65.528 95.3923 65.3623 95.8716 65.3834C96.3498 65.4157 96.8002 65.6258 97.1305 65.9739L111.128 81.4381V81.4369C111.806 82.1776 111.756 83.3263 111.017 84.0047L104.847 89.6005L88.4263 71.4418L94.5639 65.846ZM86.0033 73.6103L102.455 91.7678L94.9297 98.5915L78.4936 80.4171L86.0033 73.6103ZM76.1028 82.5702L92.5389 100.728L85.0303 107.535L68.5774 89.3771L76.1028 82.5702ZM48.3627 45.5354C48.5017 45.0772 48.8097 44.6902 49.2245 44.4511C49.6449 44.212 50.1442 44.1486 50.6112 44.2754L70.7149 49.8558C71.1776 49.9837 71.569 50.294 71.7981 50.7165C72.0383 51.1313 72.1017 51.6251 71.9738 52.0877L69.7419 60.0589L46.1474 53.5222L48.3627 45.5354ZM41.7147 69.5603L48.0911 71.3296H48.0922C48.2345 71.3529 48.3802 71.3529 48.5226 71.3296C49.4033 71.4486 50.2129 70.8314 50.3319 69.9506C50.4509 69.071 49.8337 68.2603 48.9529 68.1413L42.5765 66.3553L45.2866 56.6948L68.8811 63.2471L66.1065 73.0042L54.5167 69.816C53.6582 69.578 52.7696 70.0807 52.5316 70.9392C52.2948 71.7977 52.7974 72.6862 53.6559 72.9242L65.2458 76.1124L62.5357 85.8851L39.0047 79.3328L41.7147 69.5603ZM38.1439 82.4412L61.7384 88.9936L60.9099 91.9905L54.7402 97.5709L35.4339 92.2154L38.1439 82.4412ZM48.7775 107.327L56.2861 100.52L72.7389 118.679L71.7503 119.572H59.8581L48.7775 107.327ZM55.5055 119.571L35.2426 119.572L46.402 109.48L55.5055 119.571ZM34.5733 95.3233L51.9193 100.106L42.944 108.237H42.9428C42.7972 108.123 42.6292 108.041 42.4491 107.998L31.8479 105.064L34.5733 95.3233ZM31.0335 108.189L40.248 110.755C40.248 110.755 27.2703 122.393 27.0479 122.553L31.0335 108.189ZM47.2629 147.279H36.1035C31.7299 147.279 27.6876 144.946 25.5001 141.157C23.3127 137.369 23.3127 132.702 25.5001 128.913C27.6875 125.125 31.7299 122.791 36.1035 122.791H47.2629V147.279ZM60.6386 147.279H50.499V122.791H60.6386V147.279ZM73.999 147.279H63.8593V122.791H74.0781L73.999 147.279ZM58.6783 98.3526L66.2037 91.5458L82.6398 109.703L75.1312 116.51L58.6783 98.3526ZM100.718 147.279H90.5782V144.632C90.5782 143.753 89.8643 143.039 88.9847 143.039C88.1039 143.039 87.39 143.752 87.39 144.632V147.279H77.2668V122.791H87.4065V138.192H87.4054C87.4054 139.072 88.1193 139.786 89.0001 139.786C89.8808 139.786 90.5936 139.072 90.5936 138.192V122.791H100.733L100.718 147.279ZM114.094 147.279H103.938V122.791H114.094V147.279ZM127.454 145.462H127.453C127.453 146.465 126.64 147.279 125.636 147.279H117.314V122.791H125.636C126.64 122.791 127.453 123.605 127.453 124.608L127.454 145.462Z" fill="black"/>
<path d="M36.4053 128.867C34.7695 128.867 33.2003 129.518 32.0428 130.674C30.8862 131.832 30.2357 133.401 30.2357 135.037C30.2357 136.674 30.8862 138.243 32.0428 139.399C33.2004 140.557 34.7695 141.206 36.4053 141.206C38.0422 141.206 39.6114 140.557 40.7678 139.399C41.9255 138.243 42.5749 136.674 42.5749 135.037C42.5749 133.401 41.9255 131.832 40.7678 130.674C39.6113 129.518 38.0422 128.867 36.4053 128.867ZM36.4053 137.971C35.211 137.971 34.1345 137.25 33.6797 136.146C33.2237 135.043 33.4795 133.773 34.3257 132.93C35.1731 132.088 36.4442 131.84 37.5453 132.301C38.6473 132.763 39.3612 133.843 39.3557 135.037C39.3635 135.823 39.0565 136.581 38.5016 137.138C37.9478 137.695 37.1927 138.006 36.4054 138.003L36.4053 137.971Z" fill="black"/>
<path d="M36.4053 128.867C34.7695 128.867 33.2003 129.518 32.0428 130.674C30.8862 131.832 30.2357 133.401 30.2357 135.037C30.2357 136.674 30.8862 138.243 32.0428 139.399C33.2004 140.557 34.7695 141.206 36.4053 141.206C38.0422 141.206 39.6114 140.557 40.7678 139.399C41.9255 138.243 42.5749 136.674 42.5749 135.037C42.5749 133.401 41.9255 131.832 40.7678 130.674C39.6113 129.518 38.0422 128.867 36.4053 128.867ZM36.4053 137.971C35.211 137.971 34.1345 137.25 33.6797 136.146C33.2237 135.043 33.4795 133.773 34.3257 132.93C35.1731 132.088 36.4442 131.84 37.5453 132.301C38.6473 132.763 39.3612 133.843 39.3557 135.037C39.3635 135.823 39.0565 136.581 38.5016 137.138C37.9478 137.695 37.1927 138.006 36.4054 138.003L36.4053 137.971Z" stroke="white"/>
</g>
<defs>
<filter id="filter0_d_3097_68350" x="20.6626" y="41" width="112.008" height="111.5" filterUnits="userSpaceOnUse" color-interpolation-filters="sRGB">
<feFlood flood-opacity="0" result="BackgroundImageFix"/>
<feColorMatrix in="SourceAlpha" type="matrix" values="0 0 0 0 0 0 0 0 0 0 0 0 0 0 0 0 0 0 127 0" result="hardAlpha"/>
<feOffset dx="2" dy="2"/>
<feComposite in2="hardAlpha" operator="out"/>
<feColorMatrix type="matrix" values="0 0 0 0 0.8 0 0 0 0 1 0 0 0 0 0 0 0 0 1 0"/>
<feBlend mode="normal" in2="BackgroundImageFix" result="effect1_dropShadow_3097_68350"/>
<feBlend mode="normal" in="SourceGraphic" in2="effect1_dropShadow_3097_68350" result="shape"/>
</filter>
</defs>
</svg>
