<svg width="150" height="153" viewBox="0 0 150 153" fill="none" xmlns="http://www.w3.org/2000/svg">
<g filter="url(#filter0_d_3097_68349)">
<path d="M66.4679 121.028C59.2013 121.026 52.1175 118.755 46.2051 114.531C40.2927 110.307 35.8482 104.34 33.4929 97.4659C33.1555 96.4842 32.0863 95.9605 31.1045 96.2971C30.1219 96.6345 29.5991 97.7037 29.9356 98.6855C44.7084 139.556 104.31 129.66 105.068 86.1824C105.073 78.1333 102.559 70.2837 97.8786 63.735C93.198 57.1861 86.5862 52.2652 78.9682 49.6626C77.9856 49.3277 76.9173 49.8523 76.5816 50.8349C76.2459 51.8184 76.7713 52.8867 77.7539 53.2224C114.645 66.5125 105.705 120.356 66.4667 121.03L66.4679 121.028Z" fill="black"/>
<path d="M66.4679 121.028C59.2013 121.026 52.1175 118.755 46.2051 114.531C40.2927 110.307 35.8482 104.34 33.4929 97.4659C33.1555 96.4842 32.0863 95.9605 31.1045 96.2971C30.1219 96.6345 29.5991 97.7037 29.9356 98.6855C44.7084 139.556 104.31 129.66 105.068 86.1824C105.073 78.1333 102.559 70.2837 97.8786 63.735C93.198 57.1861 86.5862 52.2652 78.9682 49.6626C77.9856 49.3277 76.9173 49.8523 76.5816 50.8349C76.2459 51.8184 76.7713 52.8867 77.7539 53.2224C114.645 66.5125 105.705 120.356 66.4667 121.03L66.4679 121.028Z" stroke="white"/>
<path d="M111.627 119.967C110.504 118.878 108.974 118.314 107.413 118.415C105.852 118.517 104.407 119.274 103.436 120.499L101.158 118.221C109.34 109.378 113.833 97.7413 113.715 85.6936C113.597 73.6459 108.878 62.1004 100.523 53.4191C92.168 44.738 80.81 39.581 68.7766 39.0022C67.7381 38.9524 66.856 39.754 66.807 40.7917C66.7572 41.8303 67.5588 42.7124 68.5974 42.7614C79.7544 43.2903 90.2773 48.0986 97.9804 56.1868C105.683 64.2753 109.972 75.0211 109.956 86.1897C107.93 142.463 27.7943 144.51 23.0385 88.3657C22.9615 87.3297 22.0602 86.5525 21.0243 86.6286C19.9883 86.7055 19.2111 87.6069 19.2872 88.6428C21.1082 128.511 69.759 147.879 98.4997 120.879L100.778 123.158C99.5532 124.129 98.7961 125.574 98.6938 127.135C98.5924 128.695 99.1554 130.226 100.245 131.348L117.814 148.918C118.831 149.931 120.208 150.5 121.643 150.5C123.079 150.5 124.455 149.931 125.472 148.918L129.195 145.194H129.194C130.21 144.178 130.78 142.802 130.78 141.365C130.78 139.93 130.21 138.552 129.194 137.537L111.627 119.967ZM126.541 142.526L122.812 146.257C122.166 146.903 121.118 146.903 120.472 146.257L102.904 128.686C102.262 128.038 102.262 126.993 102.904 126.345L106.629 122.622L106.628 122.621C106.938 122.31 107.36 122.136 107.799 122.136C108.238 122.136 108.658 122.31 108.968 122.621L126.537 140.194C127.178 140.841 127.178 141.884 126.537 142.531L126.541 142.526Z" fill="black"/>
<path d="M111.627 119.967C110.504 118.878 108.974 118.314 107.413 118.415C105.852 118.517 104.407 119.274 103.436 120.499L101.158 118.221C109.34 109.378 113.833 97.7413 113.715 85.6936C113.597 73.6459 108.878 62.1004 100.523 53.4191C92.168 44.738 80.81 39.581 68.7766 39.0022C67.7381 38.9524 66.856 39.754 66.807 40.7917C66.7572 41.8303 67.5588 42.7124 68.5974 42.7614C79.7544 43.2903 90.2773 48.0986 97.9804 56.1868C105.683 64.2753 109.972 75.0211 109.956 86.1897C107.93 142.463 27.7943 144.51 23.0385 88.3657C22.9615 87.3297 22.0602 86.5525 21.0243 86.6286C19.9883 86.7055 19.2111 87.6069 19.2872 88.6428C21.1082 128.511 69.759 147.879 98.4997 120.879L100.778 123.158C99.5532 124.129 98.7961 125.574 98.6938 127.135C98.5924 128.695 99.1554 130.226 100.245 131.348L117.814 148.918C118.831 149.931 120.208 150.5 121.643 150.5C123.079 150.5 124.455 149.931 125.472 148.918L129.195 145.194H129.194C130.21 144.178 130.78 142.802 130.78 141.365C130.78 139.93 130.21 138.552 129.194 137.537L111.627 119.967ZM126.541 142.526L122.812 146.257C122.166 146.903 121.118 146.903 120.472 146.257L102.904 128.686C102.262 128.038 102.262 126.993 102.904 126.345L106.629 122.622L106.628 122.621C106.938 122.31 107.36 122.136 107.799 122.136C108.238 122.136 108.658 122.31 108.968 122.621L126.537 140.194C127.178 140.841 127.178 141.884 126.537 142.531L126.541 142.526Z" stroke="white"/>
<path d="M30.9729 70.0433L45.3591 80.7335C46.0987 81.2825 47.1268 81.2152 47.7885 80.5752L67.0887 61.901C67.8353 61.1789 67.8537 59.9882 67.1316 59.2415C66.4086 58.4958 65.2179 58.4766 64.4721 59.1987L46.3207 76.7627L33.215 67.0228C32.381 66.4039 31.2026 66.5787 30.5836 67.4127C29.9646 68.2467 30.1386 69.4243 30.9726 70.0433L30.9729 70.0433Z" fill="black"/>
<path d="M30.9729 70.0433L45.3591 80.7335C46.0987 81.2825 47.1268 81.2152 47.7885 80.5752L67.0887 61.901C67.8353 61.1789 67.8537 59.9882 67.1316 59.2415C66.4086 58.4958 65.2179 58.4766 64.4721 59.1987L46.3207 76.7627L33.215 67.0228C32.381 66.4039 31.2026 66.5787 30.5836 67.4127C29.9646 68.2467 30.1386 69.4243 30.9726 70.0433L30.9729 70.0433Z" stroke="white"/>
<path d="M48.9309 98.372C56.8102 98.3641 64.3653 95.2301 69.9366 89.6585C75.5082 84.087 78.6421 76.5321 78.6501 68.6527C77.0206 29.23 20.8443 29.2412 19.2195 68.6527C19.2273 76.5312 22.3596 84.0845 27.9303 89.6561C33.5 95.2276 41.0524 98.3624 48.9309 98.372ZM48.9309 98.372C48.9309 98.372 48.9308 98.372 48.9308 98.372H48.931C48.931 98.372 48.9309 98.372 48.9309 98.372ZM30.5904 50.3123C35.4553 45.4474 42.0513 42.7101 48.9313 42.7022C55.813 42.7084 62.4105 45.4447 67.2774 50.3096C72.1433 55.1746 74.8815 61.7726 74.8902 68.6536C73.4644 103.088 24.3983 103.077 22.9794 68.6536H22.9802C22.9881 61.7734 25.7254 55.1773 30.5904 50.3123Z" fill="black"/>
<path d="M48.9309 98.372C56.8102 98.3641 64.3653 95.2301 69.9366 89.6585C75.5082 84.087 78.6421 76.5321 78.6501 68.6527C77.0206 29.23 20.8443 29.2412 19.2195 68.6527C19.2273 76.5312 22.3596 84.0845 27.9303 89.6561C33.5 95.2276 41.0524 98.3624 48.9309 98.372ZM48.9309 98.372C48.9309 98.372 48.9308 98.372 48.9308 98.372H48.931C48.931 98.372 48.9309 98.372 48.9309 98.372ZM30.5904 50.3123C35.4553 45.4474 42.0513 42.7101 48.9313 42.7022C55.813 42.7084 62.4105 45.4447 67.2774 50.3096C72.1433 55.1746 74.8815 61.7726 74.8902 68.6536C73.4644 103.088 24.3983 103.077 22.9794 68.6536H22.9802C22.9881 61.7734 25.7254 55.1773 30.5904 50.3123Z" stroke="white"/>
<path d="M41.4603 49.8251C42.4254 49.4422 42.8966 48.3486 42.5137 47.3835C42.1299 46.4192 41.0371 45.948 40.072 46.3309C33.5345 48.9221 28.4632 54.2506 26.1981 60.9078C26.0372 61.3799 26.0704 61.8966 26.2907 62.3442C26.5102 62.7918 26.8992 63.1336 27.3713 63.2944C28.3539 63.6293 29.4222 63.1039 29.757 62.1212C31.6681 56.5051 35.9456 52.0107 41.4603 49.8253L41.4603 49.8251Z" fill="black"/>
<path d="M41.4603 49.8251C42.4254 49.4422 42.8966 48.3486 42.5137 47.3835C42.1299 46.4192 41.0371 45.948 40.072 46.3309C33.5345 48.9221 28.4632 54.2506 26.1981 60.9078C26.0372 61.3799 26.0704 61.8966 26.2907 62.3442C26.5102 62.7918 26.8992 63.1336 27.3713 63.2944C28.3539 63.6293 29.4222 63.1039 29.757 62.1212C31.6681 56.5051 35.9456 52.0107 41.4603 49.8253L41.4603 49.8251Z" stroke="white"/>
</g>
<defs>
<filter id="filter0_d_3097_68349" x="19.2195" y="39" width="113.561" height="113.5" filterUnits="userSpaceOnUse" color-interpolation-filters="sRGB">
<feFlood flood-opacity="0" result="BackgroundImageFix"/>
<feColorMatrix in="SourceAlpha" type="matrix" values="0 0 0 0 0 0 0 0 0 0 0 0 0 0 0 0 0 0 127 0" result="hardAlpha"/>
<feOffset dx="2" dy="2"/>
<feComposite in2="hardAlpha" operator="out"/>
<feColorMatrix type="matrix" values="0 0 0 0 0.8 0 0 0 0 1 0 0 0 0 0 0 0 0 1 0"/>
<feBlend mode="normal" in2="BackgroundImageFix" result="effect1_dropShadow_3097_68349"/>
<feBlend mode="normal" in="SourceGraphic" in2="effect1_dropShadow_3097_68349" result="shape"/>
</filter>
</defs>
</svg>
