<svg width="116" height="73" viewBox="0 0 116 73" fill="none" xmlns="http://www.w3.org/2000/svg">
<g filter="url(#filter0_d_5320_61987)">
<path d="M4.523 60.5807C4.523 59.1173 5.71538 57.925 7.17876 57.925C7.51851 57.925 7.78946 57.6502 7.78946 57.3143C7.78946 56.9745 7.51473 56.7036 7.17876 56.7036C5.7119 56.7036 4.523 55.5112 4.523 54.0443C4.523 53.7045 4.24828 53.4336 3.91231 53.4336C3.57256 53.4336 3.30161 53.7083 3.30161 54.0443C3.30161 55.5111 2.10923 56.7036 0.645852 56.7036C0.3061 56.7036 0.0351563 56.9783 0.0351563 57.3143C0.0351563 57.654 0.309881 57.925 0.645852 57.925C2.11271 57.925 3.30161 59.1173 3.30161 60.5807C3.30161 60.9205 3.57634 61.1914 3.91231 61.1914C4.24853 61.1914 4.523 60.9167 4.523 60.5807ZM2.72366 57.3107C3.20052 57.0072 3.60529 56.6024 3.90874 56.1256C4.2122 56.6025 4.61701 57.0072 5.09384 57.3107C4.61697 57.6142 4.2122 58.019 3.90874 58.4958C3.60529 58.0225 3.20048 57.6141 2.72366 57.3107Z" fill="black"/>
<path d="M15.1543 64.9841L15.4844 64.7733L15.1543 64.5626C14.2965 64.015 13.5707 63.2859 13.0226 62.4308L12.8121 62.1023L12.6016 62.4308C12.0538 63.2859 11.328 64.015 10.47 64.5626L10.1404 64.7729L10.4696 64.9838C11.3247 65.5316 12.0538 66.2575 12.6014 67.1155L12.8117 67.445L13.0226 67.1158C13.5705 66.2607 14.2963 65.5316 15.1543 64.9841ZM6.72028 63.8851C9.59011 63.8851 11.9204 61.551 11.9204 58.685C11.9204 58.1942 12.3179 57.7968 12.8087 57.7968C13.2994 57.7968 13.6969 58.1944 13.6969 58.685C13.6969 61.5548 16.031 63.8851 18.897 63.8851C19.3878 63.8851 19.7853 64.2828 19.7853 64.7734C19.7853 65.2641 19.3876 65.6616 18.897 65.6616C16.0272 65.6616 13.6969 67.9957 13.6969 70.8618C13.6969 71.3525 13.2992 71.75 12.8087 71.75C12.3179 71.75 11.9204 71.3523 11.9204 70.8618C11.9204 67.9919 9.58632 65.6616 6.72028 65.6616C6.22952 65.6616 5.83203 65.2639 5.83203 64.7734C5.83203 64.2826 6.22972 63.8851 6.72028 63.8851Z" fill="black" stroke="white" stroke-width="0.5"/>
<path fill-rule="evenodd" clip-rule="evenodd" d="M31.5946 70.4232H84.8218V1.54369H31.5946V70.4232ZM85.62 72H30.8153C30.384 72 30.0352 71.6512 30.0352 71.2198V0.780146C30.0352 0.348826 30.384 0 30.8153 0H85.62C86.0514 0 86.4002 0.348812 86.4002 0.780146V71.2198C86.4008 71.6512 86.0519 72 85.6206 72H85.62Z" fill="black"/>
<path fill-rule="evenodd" clip-rule="evenodd" d="M58.033 19.3569C56.5064 19.3569 55.1116 18.6929 54.4145 17.631C54.1824 17.2657 54.282 16.7843 54.6302 16.5356C54.9955 16.3035 55.4769 16.4031 55.7256 16.7513C56.1404 17.3653 57.0366 17.7801 58.0324 17.7801C59.3936 17.7801 60.5555 17.0165 60.5555 16.1037C60.5555 15.2741 59.5762 14.5434 58.3146 14.4438C55.8251 14.2611 54.2812 13.0167 54.2812 11.1906C54.2812 9.39815 56.1237 7.9375 58.364 7.9375C59.8906 7.9375 61.2854 8.60156 61.9825 9.66342C62.2147 10.0287 62.1151 10.5101 61.7668 10.7588C61.4015 10.991 60.9201 10.8914 60.6714 10.5431C60.2566 9.92916 59.3604 9.51433 58.3646 9.51433C57.0034 9.51433 55.8415 10.278 55.8415 11.1907C55.8415 12.5683 57.8167 12.817 58.4306 12.8671C60.5383 13.0333 62.1151 14.4274 62.1151 16.1038C62.1321 17.8963 60.2904 19.3569 58.033 19.3569Z" fill="black"/>
<path fill-rule="evenodd" clip-rule="evenodd" d="M58.2176 21.0668C57.7863 21.0668 57.4375 20.718 57.4375 20.2867V7.04187C57.4375 6.61054 57.7863 6.26172 58.2176 6.26172C58.649 6.26172 58.9978 6.61053 58.9978 7.04187V20.2867C58.9972 20.7015 58.649 21.0668 58.2176 21.0668Z" fill="black"/>
<path fill-rule="evenodd" clip-rule="evenodd" d="M58.2161 4.83369C53.3531 4.83369 49.4029 8.78388 49.4029 13.6468C49.4029 18.5098 53.3531 22.46 58.2161 22.46C63.0791 22.46 67.0292 18.5098 67.0292 13.6468C67.0292 8.78388 63.0791 4.83369 58.2161 4.83369ZM58.2161 24.0376C52.4899 24.0376 47.8262 19.3738 47.8262 13.6477C47.8262 7.9215 52.49 3.25781 58.2161 3.25781C63.9422 3.25781 68.606 7.92165 68.606 13.6477C68.606 19.3904 63.9416 24.0376 58.2161 24.0376Z" fill="black"/>
<path fill-rule="evenodd" clip-rule="evenodd" d="M40.7071 30.3386C40.541 30.3386 40.3583 30.2885 40.2092 30.1725L39.1969 29.3593C38.8652 29.0936 38.7986 28.5957 39.0643 28.2474C39.3301 27.9157 39.828 27.8491 40.1762 28.1149L40.6246 28.4637L42.0688 26.9034C42.3676 26.5881 42.8655 26.5716 43.1807 26.8704C43.496 27.1691 43.5124 27.667 43.2137 27.9823L41.2716 30.0734C41.1225 30.256 40.9234 30.3386 40.7071 30.3386Z" fill="black"/>
<path fill-rule="evenodd" clip-rule="evenodd" d="M41.1699 24.8812C39.1782 24.8812 37.5514 26.5075 37.5514 28.4997C37.5514 30.4913 39.1776 32.1182 41.1699 32.1182C43.1615 32.1182 44.7883 30.4919 44.7883 28.4997C44.7883 26.5081 43.1615 24.8812 41.1699 24.8812ZM41.1699 33.7108C38.2985 33.7108 35.9746 31.3875 35.9746 28.5156C35.9746 25.6442 38.2979 23.3203 41.1699 23.3203C44.0412 23.3203 46.3651 25.6436 46.3651 28.5156C46.3651 31.371 44.0247 33.7108 41.1699 33.7108Z" fill="black"/>
<path fill-rule="evenodd" clip-rule="evenodd" d="M40.7071 42.823C40.541 42.823 40.3583 42.7729 40.2092 42.6568L39.1969 41.8437C38.8652 41.578 38.7986 41.0801 39.0643 40.7318C39.3301 40.383 39.828 40.3335 40.1762 40.5992L40.6246 40.948L42.0688 39.3877C42.3676 39.0725 42.8655 39.056 43.1807 39.3547C43.496 39.6535 43.5124 40.1514 43.2137 40.4666L41.2716 42.5577C41.1225 42.7398 40.9234 42.823 40.7071 42.823Z" fill="black"/>
<path fill-rule="evenodd" clip-rule="evenodd" d="M41.1699 37.382C39.1782 37.382 37.5514 39.0083 37.5514 41.0005C37.5514 42.9921 39.1776 44.619 41.1699 44.619C43.1615 44.619 44.7883 42.9927 44.7883 41.0005C44.7883 39.0083 43.1615 37.382 41.1699 37.382ZM41.1699 46.1952C38.2985 46.1952 35.9746 43.8719 35.9746 40.9999C35.9746 38.1286 38.2979 35.8047 41.1699 35.8047C44.0412 35.8047 46.3651 38.128 46.3651 40.9999C46.3651 43.8713 44.0247 46.1952 41.1699 46.1952Z" fill="black"/>
<path fill-rule="evenodd" clip-rule="evenodd" d="M41.1699 49.8625C39.1782 49.8625 37.5514 51.4888 37.5514 53.481C37.5514 55.4726 39.1776 57.0995 41.1699 57.0995C43.1615 57.0995 44.7883 55.4732 44.7883 53.481C44.7883 51.4888 43.1615 49.8625 41.1699 49.8625ZM41.1699 58.6756C38.2985 58.6756 35.9746 56.3523 35.9746 53.4804C35.9746 50.6091 38.2979 48.2852 41.1699 48.2852C44.0412 48.2852 46.3651 50.6085 46.3651 53.4804C46.3651 56.3517 44.0247 58.6756 41.1699 58.6756Z" fill="black"/>
<path fill-rule="evenodd" clip-rule="evenodd" d="M37.538 67.157H52.7418V62.2439H37.538V67.157ZM53.5386 68.7337H36.7587C36.3273 68.7337 35.9785 68.3849 35.9785 67.9536V61.4637C35.9785 61.0324 36.3273 60.6836 36.7587 60.6836H53.5386C53.9699 60.6836 54.3188 61.0324 54.3188 61.4637V67.9536C54.3182 68.3849 53.97 68.7337 53.538 68.7337H53.5386Z" fill="black"/>
<path fill-rule="evenodd" clip-rule="evenodd" d="M65.3881 65.4939H60.8075C60.3762 65.4939 60.0273 65.1451 60.0273 64.7137C60.0273 64.2824 60.3762 63.9336 60.8075 63.9336H65.3881C65.8195 63.9336 66.1683 64.2824 66.1683 64.7137C66.1683 65.1286 65.8195 65.4939 65.3881 65.4939ZM79.6617 65.4939H69.056C68.6247 65.4939 68.2759 65.1451 68.2759 64.7137C68.2759 64.2824 68.6247 63.9336 69.056 63.9336H79.6617C80.093 63.9336 80.4418 64.2824 80.4418 64.7137C80.4418 65.1286 80.0936 65.4939 79.6617 65.4939Z" fill="black"/>
<path fill-rule="evenodd" clip-rule="evenodd" d="M79.6604 27.5017H48.9891C48.5578 27.5017 48.209 27.1529 48.209 26.7216C48.209 26.2902 48.5578 25.9414 48.9891 25.9414H79.6604C80.0917 25.9414 80.4405 26.2902 80.4405 26.7216C80.4405 27.1529 80.0923 27.5017 79.6604 27.5017Z" fill="black"/>
<path fill-rule="evenodd" clip-rule="evenodd" d="M71.8101 31.0876H48.9891C48.5578 31.0876 48.209 30.7388 48.209 30.3075C48.209 29.8762 48.5578 29.5273 48.9891 29.5273H71.8101C72.2414 29.5273 72.5903 29.8762 72.5903 30.3075C72.5903 30.7388 72.2414 31.0876 71.8101 31.0876Z" fill="black"/>
<path fill-rule="evenodd" clip-rule="evenodd" d="M79.6604 39.9861H48.9891C48.5578 39.9861 48.209 39.6373 48.209 39.2059C48.209 38.7746 48.5578 38.4258 48.9891 38.4258H79.6604C80.0917 38.4258 80.4405 38.7746 80.4405 39.2059C80.4405 39.6373 80.0923 39.9861 79.6604 39.9861Z" fill="black"/>
<path fill-rule="evenodd" clip-rule="evenodd" d="M71.8101 43.5681H48.9891C48.5578 43.5681 48.209 43.2193 48.209 42.788C48.209 42.3566 48.5578 42.0078 48.9891 42.0078H71.8101C72.2414 42.0078 72.5903 42.3566 72.5903 42.788C72.5903 43.2198 72.2414 43.5681 71.8101 43.5681Z" fill="black"/>
<path fill-rule="evenodd" clip-rule="evenodd" d="M79.6604 52.4822H48.9891C48.5578 52.4822 48.209 52.1334 48.209 51.702C48.209 51.2707 48.5578 50.9219 48.9891 50.9219H79.6604C80.0917 50.9219 80.4405 51.2707 80.4405 51.702C80.4405 52.1339 80.0923 52.4822 79.6604 52.4822Z" fill="black"/>
<path fill-rule="evenodd" clip-rule="evenodd" d="M71.8101 56.0681H48.9891C48.5578 56.0681 48.209 55.7193 48.209 55.288C48.209 54.8566 48.5578 54.5078 48.9891 54.5078H71.8101C72.2414 54.5078 72.5903 54.8566 72.5903 55.288C72.5903 55.7028 72.2414 56.0681 71.8101 56.0681Z" fill="black"/>
<path d="M107.818 4.48785C109.281 4.48785 110.473 5.68023 110.473 7.14361C110.473 7.48336 110.748 7.7543 111.084 7.7543C111.424 7.7543 111.695 7.47958 111.695 7.14361C111.695 5.67674 112.887 4.48785 114.354 4.48785C114.694 4.48785 114.965 4.21312 114.965 3.87715C114.965 3.5374 114.69 3.26646 114.354 3.26646C112.887 3.26646 111.695 2.07407 111.695 0.610695C111.695 0.270944 111.42 0 111.084 0C110.744 0 110.473 0.274725 110.473 0.610695C110.473 2.07756 109.281 3.26646 107.818 3.26646C107.478 3.26646 107.207 3.54118 107.207 3.87715C107.207 4.21337 107.482 4.48785 107.818 4.48785ZM111.088 2.6885C111.391 3.16536 111.796 3.57014 112.273 3.87359C111.796 4.17705 111.391 4.58186 111.088 5.05868C110.784 4.58182 110.379 4.17704 109.903 3.87359C110.376 3.57013 110.784 3.16532 111.088 2.6885Z" fill="black"/>
<path d="M103.416 15.1191L103.627 15.4493L103.838 15.1191C104.385 14.2614 105.114 13.5356 105.97 12.9875L106.298 12.7769L105.97 12.5665C105.114 12.0187 104.385 11.2928 103.838 10.4348L103.627 10.1053L103.417 10.4345C102.869 11.2896 102.143 12.0186 101.285 12.5662L100.955 12.7766L101.285 12.9875C102.14 13.5353 102.869 14.2611 103.416 15.1191ZM104.515 6.68512C104.515 9.55495 106.849 11.8852 109.715 11.8852C110.206 11.8852 110.604 12.2827 110.604 12.7735C110.604 13.2643 110.206 13.6617 109.715 13.6617C106.846 13.6617 104.515 15.9958 104.515 18.8619C104.515 19.3526 104.118 19.7501 103.627 19.7501C103.136 19.7501 102.739 19.3524 102.739 18.8619C102.739 15.992 100.405 13.6617 97.5386 13.6617C97.0479 13.6617 96.6504 13.2641 96.6504 12.7735C96.6504 12.2827 97.0481 11.8852 97.5386 11.8852C100.408 11.8852 102.739 9.55117 102.739 6.68512C102.739 6.19436 103.136 5.79688 103.627 5.79688C104.118 5.79688 104.515 6.19456 104.515 6.68512Z" fill="black" stroke="white" stroke-width="0.5"/>
</g>
<defs>
<filter id="filter0_d_5320_61987" x="0.0351562" y="0" width="115.93" height="73" filterUnits="userSpaceOnUse" color-interpolation-filters="sRGB">
<feFlood flood-opacity="0" result="BackgroundImageFix"/>
<feColorMatrix in="SourceAlpha" type="matrix" values="0 0 0 0 0 0 0 0 0 0 0 0 0 0 0 0 0 0 127 0" result="hardAlpha"/>
<feOffset dx="1" dy="1"/>
<feComposite in2="hardAlpha" operator="out"/>
<feColorMatrix type="matrix" values="0 0 0 0 0.8 0 0 0 0 1 0 0 0 0 0 0 0 0 1 0"/>
<feBlend mode="normal" in2="BackgroundImageFix" result="effect1_dropShadow_5320_61987"/>
<feBlend mode="normal" in="SourceGraphic" in2="effect1_dropShadow_5320_61987" result="shape"/>
</filter>
</defs>
</svg>
