<svg width="20" height="20" viewBox="0 0 20 20" fill="none" xmlns="http://www.w3.org/2000/svg">
<path fill-rule="evenodd" clip-rule="evenodd" d="M8.25803 3.0976C9.02264 1.7383 10.9797 1.7383 11.7443 3.0976L17.3246 13.0181C18.0746 14.3514 17.1111 15.9987 15.5815 15.9987H4.42088C2.89123 15.9987 1.9278 14.3514 2.67773 13.0181L8.25803 3.0976ZM11.0011 12.9988C11.0011 13.5511 10.5534 13.9988 10.0011 13.9988C9.44881 13.9988 9.0011 13.5511 9.0011 12.9988C9.0011 12.4465 9.44881 11.9988 10.0011 11.9988C10.5534 11.9988 11.0011 12.4465 11.0011 12.9988ZM10.0011 4.99878C9.44881 4.99878 9.0011 5.44649 9.0011 5.99878V8.99878C9.0011 9.55106 9.44881 9.99878 10.0011 9.99878C10.5534 9.99878 11.0011 9.55106 11.0011 8.99878V5.99878C11.0011 5.44649 10.5534 4.99878 10.0011 4.99878Z" fill="#111827"/>
</svg>
