<svg width="20" height="20" viewBox="0 0 20 20" fill="none" xmlns="http://www.w3.org/2000/svg">
<path fill-rule="evenodd" clip-rule="evenodd" d="M19.6004 9.99844C19.6004 15.3004 15.3023 19.5984 10.0004 19.5984C4.69846 19.5984 0.400391 15.3004 0.400391 9.99844C0.400391 4.6965 4.69846 0.398438 10.0004 0.398438C15.3023 0.398438 19.6004 4.6965 19.6004 9.99844ZM10.0004 6.39844C9.55775 6.39844 9.16951 6.6375 8.96021 6.99931C8.62836 7.57298 7.89429 7.76902 7.32061 7.43716C6.74694 7.10531 6.55091 6.37124 6.88276 5.79757C7.5034 4.72466 8.66639 3.99844 10.0004 3.99844C11.9886 3.99844 13.6004 5.61021 13.6004 7.59844C13.6004 9.1659 12.5986 10.4994 11.2004 10.9936V11.1984C11.2004 11.8612 10.6631 12.3984 10.0004 12.3984C9.33767 12.3984 8.80041 11.8612 8.80041 11.1984V9.99844C8.80041 9.3357 9.33767 8.79844 10.0004 8.79844C10.6631 8.79844 11.2004 8.26118 11.2004 7.59844C11.2004 6.9357 10.6631 6.39844 10.0004 6.39844ZM10.0004 15.9984C10.6631 15.9984 11.2004 15.4612 11.2004 14.7984C11.2004 14.1357 10.6631 13.5984 10.0004 13.5984C9.33765 13.5984 8.80039 14.1357 8.80039 14.7984C8.80039 15.4612 9.33765 15.9984 10.0004 15.9984Z" fill="#528BFF"/>
</svg>
