<svg width="17" height="16" viewBox="0 0 17 16" fill="none" xmlns="http://www.w3.org/2000/svg">
<path fill-rule="evenodd" clip-rule="evenodd" d="M16.5 8C16.5 12.4183 12.9183 16 8.5 16C4.08172 16 0.5 12.4183 0.5 8C0.5 3.58172 4.08172 0 8.5 0C12.9183 0 16.5 3.58172 16.5 8ZM8.50001 5C8.13113 5 7.8076 5.19922 7.63318 5.50073C7.35664 5.97879 6.74491 6.14215 6.26685 5.86561C5.78879 5.58906 5.62543 4.97733 5.90197 4.49927C6.41918 3.60518 7.38833 3 8.50001 3C10.1569 3 11.5 4.34315 11.5 6C11.5 7.30622 10.6652 8.41746 9.50001 8.82929V9C9.50001 9.55228 9.0523 10 8.50001 10C7.94773 10 7.50001 9.55228 7.50001 9V8C7.50001 7.44772 7.94773 7 8.50001 7C9.0523 7 9.50001 6.55228 9.50001 6C9.50001 5.44772 9.0523 5 8.50001 5ZM8.5 13C9.05228 13 9.5 12.5523 9.5 12C9.5 11.4477 9.05228 11 8.5 11C7.94772 11 7.5 11.4477 7.5 12C7.5 12.5523 7.94772 13 8.5 13Z" fill="#111827"/>
</svg>
