<svg width="35" height="36" viewBox="0 0 35 36" fill="none" xmlns="http://www.w3.org/2000/svg">
<g clip-path="url(#clip0_891_12386)">
<path d="M6.2207 1.36401H28.793C32.1699 1.36401 35.0137 4.0167 35.0137 7.4292V28.584C35.0137 31.8766 32.293 34.6492 28.793 34.6492H6.2207C2.83008 34.6359 0 31.9832 0 28.584V7.41587C0 4.0167 2.7207 1.36401 6.2207 1.36401Z" fill="#B30B00"/>
<path d="M27.918 20.5993C26.2774 18.8931 21.8067 19.6396 20.7266 19.7462C19.1954 18.2532 18.1153 16.5603 17.6778 15.9205C18.2247 14.3209 18.6621 12.5213 18.6621 10.815C18.6621 9.21543 18.0059 7.62915 16.2696 7.62915C15.6133 7.62915 15.0664 7.94907 14.7383 8.48228C13.9727 9.76196 14.3008 12.308 15.5039 14.9607C14.8477 16.8802 13.7539 19.7462 12.4551 21.9723C10.7051 22.6122 6.89067 24.3051 6.56254 26.2246C6.45317 26.7578 6.67192 27.3977 7.10942 27.7176C7.54692 28.1441 8.09379 28.2508 8.64067 28.2508C10.9239 28.2508 13.2207 25.1715 14.8614 22.3989C16.1739 21.9723 18.2383 21.3325 20.3164 21.0126C22.709 23.1454 24.8965 23.452 25.9903 23.452C27.5215 23.452 28.0684 22.8121 28.2735 22.2789C28.5606 21.7724 28.3555 21.0259 27.918 20.5993ZM26.3868 21.6657C26.2774 22.0923 25.7305 22.5189 24.7461 22.3056C23.543 21.9856 22.4629 21.4524 21.5879 20.706C22.3536 20.5993 24.1993 20.386 25.5118 20.5993C25.9493 20.706 26.4961 21.0259 26.3868 21.6657ZM15.8047 8.90884C15.9141 8.69556 16.1329 8.58892 16.3516 8.58892C16.8985 8.58892 17.0079 9.22876 17.0079 9.76196C16.8985 11.0417 16.6797 12.4146 16.2422 13.5877C15.3672 11.2549 15.4766 9.54868 15.8047 8.90884ZM15.6954 20.9192C16.2422 19.9595 16.8985 18.1599 17.1172 17.5201C17.6641 18.4798 18.6485 19.5462 19.086 20.0661C19.1954 19.9728 17.2266 20.386 15.6954 20.9192ZM11.9903 23.372C10.4727 25.7047 9.05082 27.1977 8.17582 27.1977C8.06645 27.1977 7.8477 27.1977 7.73832 27.0911C7.62895 26.8778 7.51957 26.6645 7.62895 26.4512C7.73832 25.5981 9.48832 24.4251 11.9903 23.372Z" fill="white"/>
</g>
<defs>
<clipPath id="clip0_891_12386">
<rect width="35" height="34.125" fill="white" transform="translate(0 0.9375)"/>
</clipPath>
</defs>
</svg>
