<svg width="40" height="40" viewBox="0 0 40 40" fill="none" xmlns="http://www.w3.org/2000/svg">
<rect width="40" height="40" rx="20" fill="#00DD81" fill-opacity="0.3"/>
<path d="M17.6635 25H22.3364M19.9999 11V12M26.3639 13.636L25.6568 14.3431M29 19.9999H28M12 19.9999H11M14.3431 14.3431L13.636 13.636M16.4644 23.5356C14.5118 21.5829 14.5118 18.4171 16.4644 16.4645C18.417 14.5119 21.5829 14.5119 23.5355 16.4645C25.4881 18.4171 25.4881 21.5829 23.5355 23.5356L22.9884 24.0827C22.3555 24.7155 21.9999 25.5739 21.9999 26.469V27C21.9999 28.1046 21.1045 29 19.9999 29C18.8954 29 17.9999 28.1046 17.9999 27V26.469C17.9999 25.5739 17.6444 24.7155 17.0115 24.0827L16.4644 23.5356Z" stroke="black" stroke-width="2" stroke-linecap="round" stroke-linejoin="round"/>
</svg>
