<svg width="12" height="15" viewBox="0 0 12 15" fill="none" xmlns="http://www.w3.org/2000/svg">
<mask id="path-1-inside-1_321_5755" fill="white">
<path fill-rule="evenodd" clip-rule="evenodd" d="M2.0401 2.24018C4.22704 0.0532418 7.77276 0.0532414 9.9597 2.24018C12.1466 4.42711 12.1466 7.97284 9.9597 10.1598L5.9999 14.1196L2.0401 10.1598C-0.146832 7.97284 -0.146832 4.42711 2.0401 2.24018ZM5.9999 7.79998C6.88356 7.79998 7.5999 7.08363 7.5999 6.19998C7.5999 5.31632 6.88356 4.59998 5.9999 4.59998C5.11625 4.59998 4.3999 5.31632 4.3999 6.19998C4.3999 7.08363 5.11625 7.79998 5.9999 7.79998Z"/>
</mask>
<path fill-rule="evenodd" clip-rule="evenodd" d="M2.0401 2.24018C4.22704 0.0532418 7.77276 0.0532414 9.9597 2.24018C12.1466 4.42711 12.1466 7.97284 9.9597 10.1598L5.9999 14.1196L2.0401 10.1598C-0.146832 7.97284 -0.146832 4.42711 2.0401 2.24018ZM5.9999 7.79998C6.88356 7.79998 7.5999 7.08363 7.5999 6.19998C7.5999 5.31632 6.88356 4.59998 5.9999 4.59998C5.11625 4.59998 4.3999 5.31632 4.3999 6.19998C4.3999 7.08363 5.11625 7.79998 5.9999 7.79998Z" fill="#111827"/>
<path d="M9.9597 2.24018L10.6668 1.53307V1.53307L9.9597 2.24018ZM2.0401 2.24018L1.333 1.53307L2.0401 2.24018ZM9.9597 10.1598L10.6668 10.8669L9.9597 10.1598ZM5.9999 14.1196L5.2928 14.8267L5.9999 15.5338L6.70701 14.8267L5.9999 14.1196ZM2.0401 10.1598L2.74721 9.45267L2.0401 10.1598ZM10.6668 1.53307C8.08935 -1.04439 3.91046 -1.04439 1.333 1.53307L2.74721 2.94728C4.54362 1.15087 7.45618 1.15087 9.25259 2.94728L10.6668 1.53307ZM10.6668 10.8669C13.2443 8.28942 13.2443 4.11053 10.6668 1.53307L9.25259 2.94728C11.049 4.7437 11.049 7.65625 9.25259 9.45267L10.6668 10.8669ZM6.70701 14.8267L10.6668 10.8669L9.25259 9.45267L5.2928 13.4125L6.70701 14.8267ZM1.333 10.8669L5.2928 14.8267L6.70701 13.4125L2.74721 9.45267L1.333 10.8669ZM1.333 1.53307C-1.24446 4.11053 -1.24446 8.28942 1.333 10.8669L2.74721 9.45267C0.950799 7.65625 0.950799 4.7437 2.74721 2.94728L1.333 1.53307ZM6.5999 6.19998C6.5999 6.53135 6.33127 6.79998 5.9999 6.79998V8.79998C7.43584 8.79998 8.5999 7.63592 8.5999 6.19998H6.5999ZM5.9999 5.59998C6.33127 5.59998 6.5999 5.8686 6.5999 6.19998H8.5999C8.5999 4.76403 7.43584 3.59998 5.9999 3.59998V5.59998ZM5.3999 6.19998C5.3999 5.8686 5.66853 5.59998 5.9999 5.59998V3.59998C4.56396 3.59998 3.3999 4.76404 3.3999 6.19998H5.3999ZM5.9999 6.79998C5.66853 6.79998 5.3999 6.53135 5.3999 6.19998H3.3999C3.3999 7.63592 4.56396 8.79998 5.9999 8.79998V6.79998Z" fill="black" mask="url(#path-1-inside-1_321_5755)"/>
</svg>
