<svg width="14" height="14" viewBox="0 0 14 14" fill="none" xmlns="http://www.w3.org/2000/svg">
<path d="M5.58594 4.01256C6.36699 3.32915 7.63332 3.32915 8.41436 4.01256C9.19541 4.69598 9.19541 5.80402 8.41436 6.48744C8.27842 6.60639 8.12778 6.70463 7.96755 6.78217C7.47043 7.02276 7.00015 7.44772 7.00015 8V8.5M13 7C13 10.3137 10.3137 13 7 13C3.68629 13 1 10.3137 1 7C1 3.68629 3.68629 1 7 1C10.3137 1 13 3.68629 13 7ZM7 10.5H7.005V10.505H7V10.5Z" stroke="black" stroke-linecap="round" stroke-linejoin="round"/>
</svg>
