<svg width="14" height="14" viewBox="0 0 14 14" fill="none" xmlns="http://www.w3.org/2000/svg">
<path d="M1.1001 7.00006V7V3.0001C1.1001 1.95076 1.95076 1.1001 3.0001 1.1001L7.00018 1.1001C7.00021 1.1001 7.00023 1.1001 7.00026 1.1001C7.00028 1.1001 7.0003 1.1001 7.00032 1.1001C7.07779 1.10015 7.15361 1.12934 7.21223 1.18797L7.56409 0.836104L7.21223 1.18797L12.8122 6.78797C12.9294 6.90512 12.9294 7.09507 12.8122 7.21223L7.21223 12.8122C7.09507 12.9294 6.90512 12.9294 6.78797 12.8122L1.18797 7.21223C1.12928 7.15354 1.10009 7.07762 1.1001 7.00006ZM3.0001 4.3001C3.71807 4.3001 4.3001 3.71807 4.3001 3.0001C4.3001 2.28213 3.71807 1.7001 3.0001 1.7001C2.28213 1.7001 1.7001 2.28213 1.7001 3.0001C1.7001 3.71807 2.28213 4.3001 3.0001 4.3001Z" fill="#111827" stroke="black"/>
</svg>
