<svg width="14" height="14" viewBox="0 0 14 14" fill="none" xmlns="http://www.w3.org/2000/svg">
<path d="M0.600098 2.4001C0.600098 1.40598 1.40599 0.600098 2.4001 0.600098H4.4001C5.39421 0.600098 6.2001 1.40599 6.2001 2.4001V4.4001C6.2001 5.39421 5.39421 6.2001 4.4001 6.2001H2.4001C1.40598 6.2001 0.600098 5.39421 0.600098 4.4001V2.4001Z" fill="black"/>
<path d="M0.600098 9.6001C0.600098 8.60598 1.40599 7.8001 2.4001 7.8001H4.4001C5.39421 7.8001 6.2001 8.60598 6.2001 9.6001V11.6001C6.2001 12.5942 5.39421 13.4001 4.4001 13.4001H2.4001C1.40598 13.4001 0.600098 12.5942 0.600098 11.6001V9.6001Z" fill="black"/>
<path d="M7.8001 2.4001C7.8001 1.40598 8.60598 0.600098 9.6001 0.600098H11.6001C12.5942 0.600098 13.4001 1.40599 13.4001 2.4001V4.4001C13.4001 5.39421 12.5942 6.2001 11.6001 6.2001H9.6001C8.60598 6.2001 7.8001 5.39421 7.8001 4.4001V2.4001Z" fill="black"/>
<path d="M11.2001 8.4001C11.2001 8.06873 10.9315 7.8001 10.6001 7.8001C10.2687 7.8001 10.0001 8.06873 10.0001 8.4001V10.0001H8.4001C8.06873 10.0001 7.8001 10.2687 7.8001 10.6001C7.8001 10.9315 8.06873 11.2001 8.4001 11.2001H10.0001V12.8001C10.0001 13.1315 10.2687 13.4001 10.6001 13.4001C10.9315 13.4001 11.2001 13.1315 11.2001 12.8001V11.2001H12.8001C13.1315 11.2001 13.4001 10.9315 13.4001 10.6001C13.4001 10.2687 13.1315 10.0001 12.8001 10.0001H11.2001V8.4001Z" fill="black"/>
</svg>
