<svg width="16" height="16" viewBox="0 0 16 16" fill="none" xmlns="http://www.w3.org/2000/svg">
<path d="M0.800049 1.40005C0.800049 1.06868 1.06868 0.800049 1.40005 0.800049H2.70282C3.4021 0.800049 3.99414 1.31604 4.08969 2.00876L4.14369 2.40024C7.80733 2.41015 11.3825 2.79903 14.8319 3.52994C15.1516 3.5977 15.3583 3.90895 15.2968 4.22997C14.9716 5.92443 14.5374 7.58016 14.0017 9.18955C13.9201 9.43468 13.6907 9.60005 13.4324 9.60005H4.80005C4.70859 9.60005 4.61886 9.60615 4.53119 9.61789C3.82841 9.71205 3.24079 10.1723 2.96642 10.8H13.8C14.1314 10.8 14.4 11.0687 14.4 11.4C14.4 11.7314 14.1314 12 13.8 12H2.20763C2.04059 12 1.88111 11.9304 1.76757 11.8079C1.65402 11.6854 1.59669 11.5211 1.60936 11.3545C1.70857 10.0503 2.58825 8.96554 3.78268 8.5653L2.90094 2.17272C2.88729 2.07376 2.80272 2.00005 2.70282 2.00005H1.40005C1.06868 2.00005 0.800049 1.73142 0.800049 1.40005Z" fill="black"/>
<path d="M4.80005 14C4.80005 14.6628 4.26279 15.2 3.60005 15.2C2.93731 15.2 2.40005 14.6628 2.40005 14C2.40005 13.3373 2.93731 12.8 3.60005 12.8C4.26279 12.8 4.80005 13.3373 4.80005 14Z" fill="black"/>
<path d="M12.4 15.2C13.0628 15.2 13.6 14.6628 13.6 14C13.6 13.3373 13.0628 12.8 12.4 12.8C11.7373 12.8 11.2 13.3373 11.2 14C11.2 14.6628 11.7373 15.2 12.4 15.2Z" fill="black"/>
</svg>
