<svg width="12" height="14" viewBox="0 0 12 14" fill="none" xmlns="http://www.w3.org/2000/svg">
<path d="M3.5999 1.79998C3.5999 1.13723 4.13716 0.599976 4.7999 0.599976H7.90285C8.22111 0.599976 8.52633 0.726404 8.75138 0.951447L11.2484 3.4485C11.4735 3.67355 11.5999 3.97877 11.5999 4.29703V8.99998C11.5999 9.66272 11.0626 10.2 10.3999 10.2H9.5999V7.49703C9.5999 6.86051 9.34705 6.25006 8.89696 5.79998L6.3999 3.30292C5.94982 2.85283 5.33937 2.59998 4.70285 2.59998H3.5999V1.79998Z" fill="black"/>
<path d="M1.5999 3.79998C0.937161 3.79998 0.399902 4.33723 0.399902 4.99998V12.2C0.399902 12.8627 0.937161 13.4 1.5999 13.4H7.1999C7.86264 13.4 8.3999 12.8627 8.3999 12.2V7.49703C8.3999 7.17877 8.27347 6.87355 8.04843 6.6485L5.55137 4.15145C5.32633 3.9264 5.02111 3.79998 4.70285 3.79998H1.5999Z" fill="black"/>
</svg>
