<svg width="14" height="14" viewBox="0 0 14 14" fill="none" xmlns="http://www.w3.org/2000/svg">
<path fill-rule="evenodd" clip-rule="evenodd" d="M0.5 7C0.5 3.41015 3.41015 0.5 7 0.5C10.5899 0.5 13.5 3.41015 13.5 7C13.5 10.5899 10.5899 13.5 7 13.5C3.41015 13.5 0.5 10.5899 0.5 7ZM8.08511 4.38885C7.49258 3.87038 6.50773 3.87038 5.91519 4.38885C5.70737 4.57069 5.39149 4.54963 5.20965 4.34182C5.02781 4.134 5.04887 3.81812 5.25669 3.63627C6.22625 2.78791 7.77406 2.78791 8.74362 3.63627C9.75233 4.5189 9.75233 5.9811 8.74362 6.86373C8.57251 7.01344 8.38406 7.13608 8.18537 7.23224C7.73452 7.45043 7.50015 7.74812 7.50015 8V8.5C7.50015 8.77614 7.27629 9 7.00015 9C6.72401 9 6.50015 8.77614 6.50015 8.5V8C6.50015 7.14731 7.20634 6.5951 7.74974 6.33211C7.8715 6.27318 7.98433 6.19933 8.08511 6.11115C8.6385 5.62694 8.6385 4.87306 8.08511 4.38885ZM7 11C7.27614 11 7.5 10.7761 7.5 10.5C7.5 10.2239 7.27614 10 7 10C6.72386 10 6.5 10.2239 6.5 10.5C6.5 10.7761 6.72386 11 7 11Z" fill="black"/>
</svg>
