<svg width="15" height="15" viewBox="0 0 15 15" fill="none" xmlns="http://www.w3.org/2000/svg">
<g clip-path="url(#clip0_2218_40357)">
<path d="M2.58335 2.25L4.67703 4.34368M13.0834 12.75L10.9899 10.6565M8.92703 11.481C8.57285 11.5482 8.20734 11.5833 7.83362 11.5833C5.22166 11.5833 3.01065 9.86664 2.26733 7.49998C2.46969 6.85571 2.78082 6.2596 3.17919 5.73319M6.59592 6.26256C6.9126 5.94588 7.3501 5.75 7.83335 5.75C8.79985 5.75 9.58335 6.5335 9.58335 7.5C9.58335 7.98325 9.38748 8.42075 9.07079 8.73744M6.59592 6.26256L9.07079 8.73744M6.59592 6.26256L4.67703 4.34368M9.07079 8.73744L4.67703 4.34368M9.07079 8.73744L10.9899 10.6565M4.67703 4.34368C5.58693 3.75707 6.67052 3.41667 7.83361 3.41667C10.4456 3.41667 12.6566 5.13337 13.3999 7.50002C12.9875 8.81292 12.1235 9.9258 10.9899 10.6565" stroke="black" stroke-opacity="0.3" stroke-width="2" stroke-linecap="round" stroke-linejoin="round"/>
</g>
<defs>
<clipPath id="clip0_2218_40357">
<rect x="0.833252" y="0.5" width="14" height="14" rx="2" fill="white"/>
</clipPath>
</defs>
</svg>
