<svg width="41" height="40" viewBox="0 0 41 40" fill="none" xmlns="http://www.w3.org/2000/svg">
<g clip-path="url(#clip0_5093_25736)">
<path d="M33.4167 0.5H7.58333C3.67132 0.5 0.5 3.67132 0.5 7.58333V32.4167C0.5 36.3287 3.67132 39.5 7.58333 39.5H33.4167C37.3287 39.5 40.5 36.3287 40.5 32.4167V7.58333C40.5 3.67132 37.3287 0.5 33.4167 0.5Z" fill="#330000"/>
<path d="M19.8835 23.9047H13.685L12.4239 27.8223C12.4067 27.8938 12.3651 27.957 12.3063 28.0011C12.2475 28.0451 12.1752 28.0673 12.1018 28.0638H8.96235C8.78331 28.0638 8.7207 27.9655 8.77451 27.7687L14.1411 12.3127C14.1949 12.1517 14.2485 11.9683 14.3022 11.7626C14.3724 11.4046 14.4083 11.0407 14.4095 10.6759C14.4059 10.6503 14.4082 10.6243 14.4164 10.5999C14.4245 10.5754 14.4383 10.5532 14.4565 10.535C14.4747 10.5168 14.4969 10.503 14.5214 10.4949C14.5458 10.4867 14.5718 10.4844 14.5974 10.488H18.8638C18.9888 10.488 19.0604 10.5327 19.0785 10.6222L25.1697 27.7955C25.2233 27.9745 25.1697 28.064 25.0087 28.0638H21.5203C21.4604 28.0705 21.4001 28.0551 21.3507 28.0205C21.3013 27.9859 21.2662 27.9346 21.252 27.876L19.8835 23.9047ZM14.651 20.5237H18.8907C18.7833 20.166 18.6581 19.7635 18.515 19.3162C18.3716 18.8692 18.2196 18.3907 18.0589 17.8806C17.8978 17.3708 17.7368 16.8609 17.5758 16.3511C17.4148 15.8413 17.2673 15.3493 17.1331 14.8752C16.9989 14.4015 16.8782 13.9677 16.7709 13.5738H16.744C16.593 14.2985 16.4049 15.015 16.1805 15.7205C15.9298 16.5255 15.6749 17.3484 15.4157 18.1892C15.1562 19.0302 14.9013 19.8084 14.651 20.5237H14.651Z" fill="#FF9A00"/>
<path d="M28.7922 13.3324C28.5185 13.3434 28.2455 13.2965 27.9912 13.1948C27.7369 13.0931 27.5069 12.9388 27.3163 12.7421C27.1262 12.5369 26.9786 12.2961 26.8819 12.0336C26.7852 11.7711 26.7413 11.4921 26.7528 11.2126C26.743 10.9359 26.7917 10.6602 26.8958 10.4036C26.9998 10.1469 27.1568 9.91516 27.3565 9.72334C27.5543 9.53351 27.7878 9.38478 28.0434 9.28576C28.299 9.18673 28.5717 9.13938 28.8458 9.14644C29.4898 9.14644 29.9952 9.33874 30.3619 9.72334C30.547 9.92322 30.6909 10.1576 30.7852 10.4132C30.8796 10.6687 30.9227 10.9404 30.9119 11.2126C30.9232 11.4932 30.8779 11.7732 30.7788 12.0359C30.6797 12.2987 30.5288 12.5388 30.335 12.7421C30.1326 12.9417 29.8909 13.0972 29.6254 13.1988C29.3599 13.3004 29.0761 13.3459 28.7922 13.3324ZM26.9406 27.7956V14.9692C26.9406 14.8083 27.0119 14.7277 27.1553 14.7277H30.4558C30.5988 14.7277 30.6704 14.8082 30.6705 14.9692V27.7956C30.6705 27.9746 30.5989 28.0641 30.4558 28.0639H27.1821C27.0212 28.0639 26.9406 27.9745 26.9406 27.7956Z" fill="#FF9A00"/>
</g>
<defs>
<clipPath id="clip0_5093_25736">
<rect width="40" height="39" fill="white" transform="translate(0.5 0.5)"/>
</clipPath>
</defs>
</svg>
