<svg width="25" height="25" viewBox="0 0 25 25" fill="none" xmlns="http://www.w3.org/2000/svg">
<rect width="25" height="25" rx="2" fill="black" fill-opacity="0.05"/>
<path d="M5.00004 5L7.99101 7.99097M20 20L17.0094 17.0093M14.0624 18.1872C13.5565 18.2831 13.0343 18.3333 12.5004 18.3333C8.76905 18.3333 5.61046 15.8809 4.54858 12.5C4.83767 11.5796 5.28213 10.728 5.85124 9.97598M10.7323 10.7322C11.1847 10.2798 11.8097 10 12.5 10C13.8808 10 15 11.1193 15 12.5C15 13.1904 14.7202 13.8154 14.2678 14.2678M10.7323 10.7322L14.2678 14.2678M10.7323 10.7322L7.99101 7.99097M14.2678 14.2678L7.99101 7.99097M14.2678 14.2678L17.0094 17.0093M7.99101 7.99097C9.29086 7.15295 10.8388 6.66667 12.5004 6.66667C16.2318 6.66667 19.3904 9.11909 20.4522 12.5C19.8632 14.3756 18.6288 15.9654 17.0094 17.0093" stroke="black" stroke-opacity="0.3" stroke-width="2" stroke-linecap="round" stroke-linejoin="round"/>
</svg>
