<svg width="24" height="25" viewBox="0 0 24 25" fill="none" xmlns="http://www.w3.org/2000/svg">
<path d="M9 19.5V13.5C9 12.3954 8.10457 11.5 7 11.5H5C3.89543 11.5 3 12.3954 3 13.5V19.5C3 20.6046 3.89543 21.5 5 21.5H7C8.10457 21.5 9 20.6046 9 19.5ZM9 19.5V9.5C9 8.39543 9.89543 7.5 11 7.5H13C14.1046 7.5 15 8.39543 15 9.5V19.5M9 19.5C9 20.6046 9.89543 21.5 11 21.5H13C14.1046 21.5 15 20.6046 15 19.5M15 19.5V5.5C15 4.39543 15.8954 3.5 17 3.5H19C20.1046 3.5 21 4.39543 21 5.5V19.5C21 20.6046 20.1046 21.5 19 21.5H17C15.8954 21.5 15 20.6046 15 19.5Z" stroke="black" stroke-width="2" stroke-linecap="round" stroke-linejoin="round"/>
<circle cx="19" cy="19.5" r="4" fill="#FF0000" stroke="#E7FCF3" stroke-width="2"/>
</svg>
