<svg width="24" height="25" viewBox="0 0 24 25" fill="none" xmlns="http://www.w3.org/2000/svg">
<path d="M2.86212 3.5C2.62943 3.50223 2.40748 3.59761 2.24564 3.76449C2.08363 3.93116 1.99533 4.15575 2.00019 4.38823V5.54846C2.00019 5.77932 2.09193 6.00027 2.25516 6.16349C2.41859 6.32672 2.64015 6.41846 2.87102 6.41846H8.20581C6.19865 7.95777 4.90337 10.374 4.90337 13.0893C4.90337 17.7243 8.68314 21.5 13.3229 21.5C16.3005 21.5 18.948 19.9587 20.4453 17.6117C20.5755 17.4168 20.6217 17.1781 20.5735 16.9488C20.5251 16.7198 20.3862 16.5197 20.1885 16.3939C19.9906 16.2684 19.7503 16.2277 19.522 16.2811C19.2938 16.3346 19.0968 16.4778 18.9757 16.6783C17.793 18.5325 15.7019 19.76 13.3236 19.76C9.62541 19.76 6.64601 16.7836 6.64601 13.0891C6.64601 9.39471 9.62525 6.41832 13.3236 6.41832C13.354 6.41832 13.3839 6.41812 13.4143 6.41832C17.0702 6.46672 20.0011 9.42509 20.0011 13.0891C20.0011 13.7017 19.9094 14.302 19.7472 14.8836C19.6563 15.1131 19.6672 15.3707 19.7774 15.5916C19.8875 15.8126 20.0864 15.9764 20.3244 16.0424C20.5625 16.1082 20.8175 16.0702 21.0259 15.9373C21.2341 15.8045 21.376 15.5896 21.4165 15.346C21.6148 14.636 21.7432 13.8832 21.7432 13.0891C21.7432 8.45414 17.9634 4.67842 13.3237 4.67842H3.74281V4.38841C3.74767 4.15288 3.65675 3.92546 3.49088 3.75819C3.32502 3.59071 3.09785 3.49737 2.86212 3.5ZM13.3228 7.5787C10.2867 7.5787 7.80653 10.0563 7.80653 13.0892C7.80653 16.1224 10.2866 18.5998 13.3228 18.5998C16.359 18.5998 18.839 16.1222 18.839 13.0892C18.839 10.0561 16.359 7.5787 13.3228 7.5787ZM13.3228 9.31891C15.4176 9.31891 17.0971 10.9968 17.0971 13.0894C17.0971 15.182 15.4176 16.8599 13.3228 16.8599C11.2279 16.8599 9.54845 15.182 9.54845 13.0894C9.54845 10.9968 11.2279 9.31891 13.3228 9.31891Z" fill="black"/>
<circle cx="19" cy="19.5" r="4" fill="#FF0000" stroke="#E7FCF3" stroke-width="2"/>
</svg>
