<svg width="24" height="25" viewBox="0 0 24 25" fill="none" xmlns="http://www.w3.org/2000/svg">
<g clip-path="url(#clip0_5144_25195)">
<path d="M19.75 0.799805H4.25C1.90279 0.799805 0 2.70259 0 5.04981V19.9498C0 22.297 1.90279 24.1998 4.25 24.1998H19.75C22.0972 24.1998 24 22.297 24 19.9498V5.04981C24 2.70259 22.0972 0.799805 19.75 0.799805Z" fill="#330000"/>
<path d="M11.6297 14.843H7.91061L7.15392 17.1936C7.14361 17.2365 7.11867 17.2744 7.0834 17.3008C7.04813 17.3273 7.00474 17.3406 6.96071 17.3385H5.07702C4.9696 17.3385 4.93203 17.2795 4.96432 17.1614L8.18429 7.88779C8.21652 7.79121 8.24873 7.68119 8.28092 7.55774C8.32304 7.34293 8.3446 7.1246 8.34532 6.90571C8.34314 6.8904 8.34455 6.87479 8.34944 6.86012C8.35433 6.84545 8.36257 6.83212 8.3735 6.82118C8.38444 6.81025 8.39777 6.80201 8.41244 6.79711C8.42711 6.79222 8.44272 6.79081 8.45802 6.79299H11.0179C11.0929 6.79299 11.1358 6.81983 11.1467 6.87351L14.8014 17.1775C14.8336 17.2849 14.8014 17.3386 14.7048 17.3385H12.6118C12.5758 17.3425 12.5397 17.3332 12.51 17.3125C12.4804 17.2918 12.4594 17.2609 12.4508 17.2258L11.6297 14.843ZM8.4902 12.8144H11.034C10.9696 12.5998 10.8945 12.3583 10.8086 12.0899C10.7226 11.8217 10.6314 11.5346 10.5349 11.2285C10.4383 10.9227 10.3417 10.6168 10.2451 10.3108C10.1485 10.005 10.06 9.70979 9.97946 9.42534C9.89895 9.14108 9.8265 8.8808 9.76213 8.6445H9.74602C9.65538 9.07932 9.54254 9.50921 9.40793 9.93249C9.25749 10.4155 9.10453 10.9092 8.94904 11.4137C8.79333 11.9183 8.64038 12.3852 8.4902 12.8144H8.4902Z" fill="#FF9A00"/>
<path d="M16.9747 8.49931C16.8105 8.50591 16.6467 8.47777 16.4942 8.41673C16.3416 8.3557 16.2036 8.26314 16.0892 8.14511C15.9752 8.02197 15.8866 7.8775 15.8285 7.72001C15.7705 7.56252 15.7442 7.39511 15.7511 7.22741C15.7452 7.06137 15.7745 6.89597 15.8369 6.74199C15.8993 6.58802 15.9935 6.44895 16.1133 6.33386C16.232 6.21996 16.3721 6.13072 16.5254 6.07131C16.6788 6.01189 16.8425 5.98348 17.0069 5.98772C17.3933 5.98772 17.6965 6.1031 17.9165 6.33386C18.0276 6.45378 18.1139 6.59444 18.1706 6.74777C18.2272 6.9011 18.253 7.06409 18.2466 7.22741C18.2533 7.39577 18.2261 7.56376 18.1667 7.72141C18.1072 7.87905 18.0167 8.02314 17.9004 8.14511C17.779 8.26487 17.634 8.35817 17.4747 8.41913C17.3153 8.48009 17.1451 8.50739 16.9747 8.49931ZM15.8638 17.1772V9.4814C15.8638 9.38481 15.9065 9.33649 15.9926 9.33649H17.9729C18.0587 9.33649 18.1016 9.3848 18.1017 9.4814V17.1772C18.1017 17.2846 18.0588 17.3383 17.9729 17.3382H16.0087C15.9121 17.3382 15.8638 17.2845 15.8638 17.1772Z" fill="#FF9A00"/>
</g>
<defs>
<clipPath id="clip0_5144_25195">
<rect width="24" height="23.4" fill="white" transform="translate(0 0.799805)"/>
</clipPath>
</defs>
</svg>
