<svg width="16" height="17" viewBox="0 0 16 17" fill="none" xmlns="http://www.w3.org/2000/svg">
<path fill-rule="evenodd" clip-rule="evenodd" d="M16 8.5C16 12.9183 12.4183 16.5 8 16.5C3.58172 16.5 0 12.9183 0 8.5C0 4.08172 3.58172 0.5 8 0.5C12.4183 0.5 16 4.08172 16 8.5ZM8.00001 5.5C7.63113 5.5 7.3076 5.69922 7.13318 6.00073C6.85664 6.47879 6.24491 6.64215 5.76685 6.36561C5.28879 6.08906 5.12543 5.47733 5.40197 4.99927C5.91918 4.10518 6.88833 3.5 8.00001 3.5C9.65687 3.5 11 4.84315 11 6.5C11 7.80622 10.1652 8.91746 9.00001 9.32929V9.5C9.00001 10.0523 8.5523 10.5 8.00001 10.5C7.44773 10.5 7.00001 10.0523 7.00001 9.5V8.5C7.00001 7.94772 7.44773 7.5 8.00001 7.5C8.5523 7.5 9.00001 7.05228 9.00001 6.5C9.00001 5.94772 8.5523 5.5 8.00001 5.5ZM8 13.5C8.55228 13.5 9 13.0523 9 12.5C9 11.9477 8.55228 11.5 8 11.5C7.44772 11.5 7 11.9477 7 12.5C7 13.0523 7.44772 13.5 8 13.5Z" fill="#111827"/>
</svg>
