<svg width="125" height="125" viewBox="0 0 125 125" fill="none" xmlns="http://www.w3.org/2000/svg">
<g filter="url(#filter0_d_4755_128841)">
<path d="M122.834 2.50897C122.834 2.50477 122.831 2.50196 122.831 2.49776C122.83 2.23998 122.779 1.9836 122.678 1.74123C122.475 1.24949 122.083 0.857245 121.591 0.654108C121.346 0.551837 121.086 0.5 120.824 0.5H101.189C100.927 0.5 100.666 0.553239 100.421 0.654108C100.175 0.756379 99.952 0.903477 99.7657 1.08979L16.2451 84.6111C16.2353 84.6195 16.2339 84.6335 16.2241 84.6433C16.1793 84.6895 16.1568 84.7554 16.1162 84.8072C16.0462 84.8955 15.9859 84.9865 15.9327 85.0832C15.8977 85.1463 15.8416 85.1953 15.8136 85.2625C15.8066 85.2779 15.8038 85.2933 15.7968 85.3102C15.794 85.3158 15.7898 85.3186 15.787 85.3242L3.81928 116.676L1.42236 119.072C0.63786 119.856 0.63786 121.127 1.42236 121.912C1.81462 122.304 2.32872 122.5 2.84284 122.5C3.35697 122.5 3.87109 122.304 4.26332 121.912L6.65884 119.516L38.015 107.545C38.0234 107.542 38.029 107.534 38.0374 107.531C38.1579 107.483 38.256 107.393 38.3666 107.322C38.4815 107.248 38.609 107.192 38.7043 107.098C38.7085 107.094 38.7154 107.092 38.7197 107.088L122.24 23.5632C122.375 23.4287 122.455 23.2662 122.543 23.1079C122.582 23.0392 122.641 22.9874 122.672 22.9131C122.774 22.6652 122.829 22.4032 122.827 22.1398C122.827 22.1398 122.829 22.137 122.829 22.1356L122.834 2.50897ZM36.4623 84.0326H22.5067L102.018 4.51738H115.973L36.4623 84.0326ZM19.0492 88.0505H35.2939V104.287L9.0231 114.317L19.0492 88.0505ZM39.3102 86.8653L118.814 7.35724V21.3136L39.3102 100.822V86.8653Z" fill="black"/>
<path d="M122.563 1.78926L122.563 1.78896C122.373 1.32794 122.005 0.960084 121.544 0.769636L121.543 0.769473C121.313 0.673557 121.069 0.625 120.824 0.625H101.189C100.944 0.625 100.7 0.674796 100.469 0.769706C100.237 0.865919 100.028 1.00396 99.8541 1.17818L99.7657 1.08979L99.854 1.17818L16.3424 84.6906C16.341 84.6931 16.3395 84.6959 16.3378 84.6988C16.3327 84.7075 16.3249 84.719 16.3135 84.7306M122.563 1.78926L16.2241 84.6433M122.563 1.78926C122.658 2.01631 122.705 2.25658 122.706 2.49844M122.563 1.78926L122.831 2.49776M16.3135 84.7306C16.3132 84.731 16.3128 84.7314 16.3125 84.7317L16.2241 84.6433M16.3135 84.7306C16.3136 84.7305 16.3137 84.7304 16.3138 84.7303L16.2241 84.6433M16.3135 84.7306C16.3034 84.7411 16.2934 84.7564 16.2773 84.7848C16.2756 84.7878 16.2738 84.791 16.2719 84.7944C16.2581 84.819 16.2388 84.8534 16.2146 84.8843L16.2141 84.8849C16.1485 84.9676 16.0921 85.0528 16.0422 85.1435L16.042 85.1439C16.0218 85.1801 15.9963 85.2131 15.9777 85.2371C15.9749 85.2407 15.9722 85.2441 15.9697 85.2474C15.9483 85.2753 15.9362 85.2933 15.929 85.3106L15.9275 85.3143L15.9274 85.3143C15.9275 85.3141 15.9274 85.3143 15.9267 85.3162C15.9263 85.3175 15.9256 85.3196 15.9246 85.323C15.9225 85.3295 15.9184 85.3434 15.9122 85.3582L15.9089 85.3662L15.9086 85.3661C15.9051 85.373 15.9013 85.3792 15.8979 85.3841M16.2241 84.6433C16.1989 84.6693 16.1808 84.7014 16.1625 84.7338C16.1483 84.7591 16.134 84.7845 16.1162 84.8072C16.0462 84.8955 15.9859 84.9865 15.9327 85.0832C15.9176 85.1104 15.8986 85.1349 15.8797 85.1594C15.8546 85.1919 15.8296 85.2243 15.8136 85.2625C15.8099 85.2707 15.8074 85.2788 15.8048 85.2871C15.8025 85.2946 15.8001 85.3022 15.7968 85.3102C15.7954 85.313 15.7937 85.3151 15.7919 85.3172C15.7902 85.3193 15.7884 85.3214 15.787 85.3242M15.8979 85.3841L15.9038 85.3687L15.787 85.3242M15.8979 85.3841L3.93606 116.721L3.92653 116.746L3.90764 116.765L1.51075 119.16M15.8979 85.3841C15.8964 85.3863 15.895 85.3883 15.8937 85.39C15.8906 85.3941 15.8884 85.3966 15.8879 85.3972C15.8856 85.4 15.8929 85.3919 15.8988 85.38L15.787 85.3242M15.787 85.3242L3.81928 116.676L1.42236 119.072M38.7043 107.098C38.7064 107.096 38.7092 107.094 38.712 107.093C38.7148 107.092 38.7175 107.09 38.7197 107.088L122.24 23.5632C122.357 23.4465 122.432 23.3088 122.508 23.1711C122.52 23.15 122.531 23.1289 122.543 23.1079C122.559 23.0791 122.579 23.0534 122.599 23.0277C122.626 22.9919 122.654 22.9563 122.672 22.9131M38.7043 107.098L38.6165 107.009M38.7043 107.098L38.6159 107.009C38.6161 107.009 38.6163 107.009 38.6165 107.009M38.7043 107.098C38.6386 107.162 38.5577 107.209 38.4762 107.256C38.4393 107.278 38.4024 107.299 38.3666 107.322M38.6165 107.009C38.6262 106.999 38.6356 106.993 38.6421 106.989M38.6165 107.009C38.5794 107.045 38.5337 107.077 38.4783 107.11C38.4606 107.121 38.4402 107.133 38.4187 107.145C38.3795 107.168 38.3365 107.193 38.2988 107.217M38.6421 106.989L38.6313 107C38.6398 106.991 38.6478 106.986 38.6517 106.984L38.656 106.981L38.6518 106.983C38.6498 106.984 38.6469 106.986 38.6435 106.988C38.6431 106.988 38.6426 106.989 38.6421 106.989ZM38.6421 106.989L122.152 23.4748C122.255 23.3717 122.321 23.2509 122.398 23.1123C122.409 23.091 122.421 23.0692 122.434 23.047L122.434 23.0458C122.455 23.0089 122.481 22.9751 122.501 22.9497C122.505 22.9451 122.508 22.9409 122.511 22.9369C122.534 22.9073 122.547 22.8865 122.556 22.8652M122.556 22.8652C122.556 22.8653 122.556 22.8654 122.556 22.8655L122.672 22.9131M122.556 22.8652L122.672 22.9131M122.556 22.8652C122.653 22.6315 122.704 22.3859 122.702 22.1405L122.702 22.1107L122.704 22.1076M122.672 22.9131C122.774 22.6652 122.829 22.4032 122.827 22.1398C122.827 22.1398 122.829 22.137 122.829 22.1356L122.834 2.50897C122.834 2.50687 122.833 2.50512 122.833 2.50336C122.832 2.50161 122.831 2.49986 122.831 2.49776M122.704 22.1076L122.704 22.1356C122.704 22.1185 122.707 22.1058 122.708 22.1026C122.709 22.1 122.71 22.0977 122.71 22.0959C122.711 22.0942 122.711 22.0928 122.712 22.0919L122.714 22.0871L122.704 22.1076ZM122.704 22.1076L122.709 2.52507M122.709 2.52507C122.71 2.52873 122.711 2.53205 122.711 2.53501C122.713 2.53944 122.714 2.54305 122.715 2.54543L122.716 2.54807C122.715 2.54657 122.714 2.54386 122.713 2.54035C122.711 2.533 122.709 2.52219 122.709 2.50897L122.709 2.52507ZM122.709 2.52507C122.707 2.51752 122.706 2.50855 122.706 2.49844M122.706 2.49844L122.831 2.49776M122.706 2.49844C122.706 2.49821 122.706 2.49799 122.706 2.49776H122.831M38.2988 107.217L38.3666 107.322M38.2988 107.217C38.2988 107.217 38.2988 107.217 38.2988 107.217L38.3666 107.322M38.2988 107.217L37.993 107.414M38.3666 107.322C38.3313 107.345 38.2972 107.369 38.2633 107.394C38.191 107.446 38.1194 107.498 38.0374 107.531M38.0374 107.531L37.9979 107.412C37.9962 107.413 37.9946 107.413 37.993 107.414M38.0374 107.531L37.9915 107.414C37.992 107.414 37.9925 107.414 37.993 107.414M38.0374 107.531C38.0323 107.532 38.0282 107.536 38.0238 107.54C38.0211 107.542 38.0183 107.544 38.015 107.545L6.65884 119.516L4.26332 121.912C3.87109 122.304 3.35697 122.5 2.84284 122.5C2.32872 122.5 1.81462 122.304 1.42236 121.912C0.63786 121.127 0.63786 119.856 1.42236 119.072M37.993 107.414C37.9872 107.416 37.9819 107.418 37.9772 107.421C37.9711 107.424 37.9661 107.427 37.9622 107.43C37.9606 107.431 37.9591 107.432 37.9577 107.433M1.42236 119.072L1.51072 119.16L1.51075 119.16M1.42236 119.072L1.51075 119.16M1.51075 119.16C0.775064 119.896 0.775064 121.088 1.51075 121.823C1.87863 122.191 2.36051 122.375 2.84284 122.375C3.32518 122.375 3.80709 122.191 4.17493 121.823L6.57045 119.428L6.58933 119.409L6.61426 119.399L37.9577 107.433M37.9577 107.433C37.9531 107.436 37.9496 107.439 37.9484 107.44L37.9481 107.44C37.9456 107.442 37.9481 107.44 37.9515 107.438C37.955 107.435 37.9614 107.431 37.9704 107.428M37.9577 107.433L37.9704 107.428M37.9704 107.428C37.972 107.427 37.9737 107.427 37.9755 107.426L37.9755 107.426L37.9704 107.428ZM36.4623 84.1576H36.5141L36.5507 84.121L116.062 4.60576L116.275 4.39238H115.973H102.018H101.966L101.929 4.42899L22.4184 83.9442L22.205 84.1576H22.5067H36.4623ZM19.0492 87.9255H18.9631L18.9324 88.0059L8.90632 114.272L8.8067 114.533L9.06768 114.434L35.3385 104.404L35.4189 104.374V104.287V88.0505V87.9255H35.2939H19.0492ZM39.2218 86.7769L39.1852 86.8135V86.8653V100.822V101.123L39.3986 100.91L118.903 21.4019L118.939 21.3653V21.3136V7.35724V7.05545L118.726 7.26885L39.2218 86.7769Z" stroke="white" stroke-width="0.25"/>
</g>
<defs>
<filter id="filter0_d_4755_128841" x="0.833984" y="0.5" width="124" height="124" filterUnits="userSpaceOnUse" color-interpolation-filters="sRGB">
<feFlood flood-opacity="0" result="BackgroundImageFix"/>
<feColorMatrix in="SourceAlpha" type="matrix" values="0 0 0 0 0 0 0 0 0 0 0 0 0 0 0 0 0 0 127 0" result="hardAlpha"/>
<feOffset dx="2" dy="2"/>
<feComposite in2="hardAlpha" operator="out"/>
<feColorMatrix type="matrix" values="0 0 0 0 0.8 0 0 0 0 1 0 0 0 0 0 0 0 0 1 0"/>
<feBlend mode="normal" in2="BackgroundImageFix" result="effect1_dropShadow_4755_128841"/>
<feBlend mode="normal" in="SourceGraphic" in2="effect1_dropShadow_4755_128841" result="shape"/>
</filter>
</defs>
</svg>
