<svg width="18" height="16" viewBox="0 0 18 16" fill="none" xmlns="http://www.w3.org/2000/svg">
<path d="M1.5 5.49967C1.5 4.5792 2.24619 3.83301 3.16667 3.83301H3.94136C4.49862 3.83301 5.019 3.55451 5.32811 3.09084L6.00522 2.07517C6.31433 1.61151 6.83472 1.33301 7.39197 1.33301H10.608C11.1653 1.33301 11.6857 1.61151 11.9948 2.07517L12.6719 3.09084C12.981 3.55451 13.5014 3.83301 14.0586 3.83301H14.8333C15.7538 3.83301 16.5 4.5792 16.5 5.49967V12.9997C16.5 13.9201 15.7538 14.6663 14.8333 14.6663H3.16667C2.24619 14.6663 1.5 13.9201 1.5 12.9997V5.49967Z" stroke="#111827" stroke-width="2" stroke-linecap="round" stroke-linejoin="round"/>
<path d="M11.5 8.83301C11.5 10.2137 10.3807 11.333 9 11.333C7.61929 11.333 6.5 10.2137 6.5 8.83301C6.5 7.4523 7.61929 6.33301 9 6.33301C10.3807 6.33301 11.5 7.4523 11.5 8.83301Z" stroke="#111827" stroke-width="2" stroke-linecap="round" stroke-linejoin="round"/>
</svg>
