<svg width="25" height="25" viewBox="0 0 25 25" fill="none" xmlns="http://www.w3.org/2000/svg">
<g clip-path="url(#clip0_5144_25224)">
<path d="M20.25 0.799805H4.75C2.40279 0.799805 0.5 2.70259 0.5 5.04981V19.9498C0.5 22.297 2.40279 24.1998 4.75 24.1998H20.25C22.5972 24.1998 24.5 22.297 24.5 19.9498V5.04981C24.5 2.70259 22.5972 0.799805 20.25 0.799805Z" fill="#001E36"/>
<path d="M5.9043 17.2096V6.92176C5.9043 6.84678 5.93652 6.80906 6.00093 6.80906C6.17246 6.80906 6.32908 6.80654 6.56532 6.801C6.8013 6.79573 7.05622 6.79036 7.33006 6.78491C7.60379 6.77961 7.89361 6.77424 8.1995 6.7688C8.50536 6.76353 8.80856 6.76084 9.10911 6.76074C9.92469 6.76074 10.6116 6.86271 11.1699 7.06665C11.6735 7.237 12.1328 7.5175 12.5143 7.88774C12.8377 8.20866 13.0876 8.59592 13.2468 9.0228C13.3974 9.43824 13.4737 9.87695 13.4722 10.3188C13.4722 11.1777 13.2737 11.8861 12.8765 12.444C12.4768 13.0043 11.9149 13.4286 11.2665 13.6596C10.5903 13.9119 9.8389 13.9975 9.01254 13.9975C8.77631 13.9975 8.60994 13.9948 8.51342 13.9894C8.41684 13.9841 8.27195 13.9815 8.07875 13.9814V17.1936C8.08156 17.2132 8.07975 17.2333 8.07346 17.2522C8.06717 17.271 8.05657 17.2882 8.04251 17.3022C8.02845 17.3163 8.01131 17.3269 7.99244 17.3332C7.97358 17.3395 7.95351 17.3413 7.93383 17.3385H6.01699C5.9418 17.3385 5.9043 17.2957 5.9043 17.2096ZM8.07874 8.74105V12.0965C8.2181 12.1074 8.34689 12.1127 8.46512 12.1126H8.99642C9.38734 12.1113 9.77569 12.0493 10.1476 11.9289C10.4666 11.8341 10.7516 11.6497 10.9687 11.3976C11.178 11.1508 11.2826 10.8073 11.2827 10.3672C11.2911 10.0557 11.2101 9.7484 11.0492 9.48164C10.88 9.22371 10.6354 9.02415 10.3488 8.91011C9.97458 8.76464 9.57483 8.69619 9.17352 8.70887C8.9159 8.70887 8.68782 8.71154 8.48929 8.7169C8.29056 8.72244 8.15371 8.73049 8.07874 8.74105V8.74105Z" fill="#31A8FF"/>
<path d="M19.6975 11.4867C19.395 11.3312 19.0727 11.2175 18.7396 11.1486C18.3725 11.0644 17.9972 11.0212 17.6206 11.0198C17.4169 11.0142 17.2135 11.0387 17.0169 11.0922C16.8917 11.1201 16.7805 11.1914 16.7029 11.2935C16.6504 11.3751 16.6225 11.4701 16.6224 11.5672C16.6254 11.6613 16.6593 11.7519 16.719 11.8248C16.8131 11.9348 16.928 12.0251 17.0571 12.0904C17.2867 12.214 17.5232 12.3242 17.7655 12.4205C18.3058 12.6014 18.8222 12.8473 19.303 13.153C19.6306 13.3598 19.9017 13.6447 20.092 13.9822C20.2519 14.3017 20.332 14.6553 20.3254 15.0126C20.335 15.4844 20.2002 15.9478 19.939 16.3408C19.6594 16.7398 19.271 17.0499 18.82 17.2344C18.3315 17.449 17.7278 17.5563 17.0088 17.5564C16.5521 17.561 16.0961 17.5178 15.6484 17.4276C15.2956 17.3629 14.9522 17.2547 14.626 17.1056C14.5908 17.0874 14.5615 17.0596 14.5416 17.0254C14.5216 16.9911 14.5118 16.9519 14.5133 16.9124V15.1736C14.5114 15.1565 14.5141 15.1393 14.5212 15.1237C14.5283 15.1081 14.5395 15.0947 14.5536 15.085C14.5674 15.0772 14.5833 15.0738 14.5991 15.0752C14.6149 15.0767 14.6299 15.0829 14.6421 15.0931C15.0273 15.3202 15.4456 15.4859 15.8818 15.5841C16.2663 15.6805 16.6607 15.7318 17.0571 15.7371C17.4327 15.7371 17.7091 15.6888 17.8863 15.5922C17.9663 15.5556 18.0339 15.4965 18.0811 15.4222C18.1282 15.3479 18.1529 15.2616 18.1519 15.1736C18.1519 15.0342 18.0714 14.9001 17.9104 14.7711C17.7494 14.6423 17.4221 14.4866 16.9283 14.3042C16.4228 14.1282 15.9434 13.8845 15.5034 13.5797C15.1887 13.3608 14.9296 13.0713 14.7468 12.7344C14.5884 12.4172 14.5084 12.0666 14.5133 11.7121C14.5124 11.2861 14.6294 10.8682 14.8514 10.5046C15.1045 10.1042 15.4679 9.78551 15.8979 9.58688C16.3701 9.35091 16.9604 9.23285 17.6689 9.23268C18.0839 9.22934 18.4984 9.25895 18.9086 9.32122C19.2057 9.3589 19.4961 9.43746 19.7717 9.55467C19.7936 9.56095 19.8136 9.57221 19.8304 9.58758C19.8472 9.60294 19.8601 9.62199 19.8683 9.64322C19.8792 9.68254 19.8846 9.72317 19.8844 9.76397V11.3901C19.8855 11.409 19.8816 11.4279 19.8732 11.4448C19.8647 11.4618 19.8519 11.4762 19.8361 11.4867C19.8146 11.4974 19.7909 11.503 19.7668 11.503C19.7428 11.503 19.7191 11.4974 19.6975 11.4867Z" fill="#31A8FF"/>
</g>
<defs>
<clipPath id="clip0_5144_25224">
<rect width="24" height="23.4" fill="white" transform="translate(0.5 0.799805)"/>
</clipPath>
</defs>
</svg>
