<svg width="13" height="13" viewBox="0 0 13 13" fill="none" xmlns="http://www.w3.org/2000/svg">
<path fill-rule="evenodd" clip-rule="evenodd" d="M6.5 12.5C9.81371 12.5 12.5 9.81371 12.5 6.5C12.5 3.18629 9.81371 0.5 6.5 0.5C3.18629 0.5 0.5 3.18629 0.5 6.5C0.5 9.81371 3.18629 12.5 6.5 12.5ZM7.25 3.5C7.25 3.08579 6.91421 2.75 6.5 2.75C6.08578 2.75 5.75 3.08579 5.75 3.5V6.5C5.75 6.69891 5.82902 6.88968 5.96967 7.03033L8.09099 9.15165C8.38388 9.44454 8.85876 9.44454 9.15165 9.15165C9.44454 8.85876 9.44454 8.38388 9.15165 8.09099L7.25 6.18934V3.5Z" fill="#FF9A00"/>
</svg>
