<svg width="11" height="12" viewBox="0 0 11 12" fill="none" xmlns="http://www.w3.org/2000/svg">
<path fill-rule="evenodd" clip-rule="evenodd" d="M10.0818 6.293C10.2696 6.48053 10.375 6.73484 10.375 7C10.375 7.26516 10.2696 7.51947 10.0818 7.707L6.07684 11.707C5.88908 11.8945 5.63445 11.9998 5.36895 11.9998C5.10346 11.9998 4.84883 11.8945 4.66107 11.707L0.656063 7.707C0.473677 7.5184 0.372757 7.2658 0.375038 7.0036C0.377319 6.7414 0.482619 6.49059 0.66826 6.30518C0.8539 6.11977 1.10503 6.0146 1.36755 6.01233C1.63008 6.01005 1.88299 6.11084 2.07183 6.293L4.3677 8.586V1C4.3677 0.734784 4.47319 0.48043 4.66096 0.292893C4.84873 0.105357 5.10341 0 5.36895 0C5.6345 0 5.88917 0.105357 6.07695 0.292893C6.26472 0.48043 6.37021 0.734784 6.37021 1V8.586L8.66608 6.293C8.85384 6.10553 9.10847 6.00021 9.37396 6.00021C9.63946 6.00021 9.89408 6.10553 10.0818 6.293Z" fill="#FF0000"/>
</svg>
