<svg width="36" height="45" viewBox="0 0 36 45" fill="none" xmlns="http://www.w3.org/2000/svg">
<g opacity="0.3">
<path opacity="0.3" d="M25.0232 9.82359C24.0437 9.82264 23.1046 9.4331 22.412 8.7405C21.7194 8.0479 21.3299 7.1088 21.3289 6.12931V1H4.82297C4.1897 0.999765 3.56257 1.12427 2.97743 1.36645C2.39229 1.60864 1.86062 1.96374 1.41274 2.41145C0.964861 2.85916 0.609575 3.39072 0.367176 3.97577C0.124777 4.56082 -4.37256e-08 5.18788 0 5.82116V34.8844C-4.37256e-08 35.5176 0.124777 36.1447 0.367176 36.7298C0.609575 37.3148 0.964861 37.8464 1.41274 38.2941C1.86062 38.7418 2.39229 39.0969 2.97743 39.3391C3.56257 39.5812 4.1897 39.7058 4.82297 39.7056H24.638C25.2711 39.7056 25.898 39.5809 26.483 39.3386C27.0679 39.0963 27.5994 38.7411 28.0471 38.2935C28.4948 37.8458 28.8499 37.3143 29.0922 36.7294C29.3344 36.1444 29.4592 35.5175 29.4592 34.8844V9.82359H25.0232Z" fill="#0072FF"/>
</g>
<path d="M29.4593 9.82359H25.0234C24.0439 9.82264 23.1048 9.4331 22.4122 8.7405C21.7196 8.0479 21.3301 7.1088 21.3291 6.12931V1L29.4593 9.82359Z" fill="#0072FF"/>
<path d="M23.3979 16.0011H4.9015C4.72379 16.0011 4.55337 15.9305 4.42771 15.8048C4.30205 15.6792 4.23145 15.5087 4.23145 15.331C4.23121 15.2429 4.24838 15.1556 4.28195 15.0741C4.31551 14.9926 4.36483 14.9185 4.42708 14.8561C4.48932 14.7936 4.56327 14.7441 4.64468 14.7104C4.72609 14.6766 4.81336 14.6592 4.9015 14.6592H23.3979C23.5761 14.6592 23.747 14.73 23.873 14.856C23.999 14.982 24.0698 15.1528 24.0698 15.331C24.0693 15.5089 23.9983 15.6793 23.8723 15.805C23.7464 15.9306 23.5758 16.0011 23.3979 16.0011Z" fill="#0072FF"/>
<path d="M23.3979 20.0089H4.9015C4.72379 20.0089 4.55337 19.9383 4.42771 19.8126C4.30205 19.687 4.23145 19.5165 4.23145 19.3388C4.23121 19.2507 4.24838 19.1634 4.28195 19.0819C4.31551 19.0004 4.36483 18.9263 4.42708 18.8639C4.48932 18.8015 4.56327 18.752 4.64468 18.7182C4.72609 18.6844 4.81336 18.667 4.9015 18.667H23.3979C23.5761 18.667 23.747 18.7377 23.873 18.8637C23.999 18.9897 24.0698 19.1607 24.0698 19.3388C24.0693 19.5167 23.9983 19.6871 23.8723 19.8127C23.7464 19.9383 23.5758 20.0089 23.3979 20.0089Z" fill="#0072FF"/>
<path d="M23.3979 24.0167H4.9015C4.81336 24.0167 4.72609 23.9993 4.64468 23.9655C4.56327 23.9317 4.48932 23.8822 4.42708 23.8198C4.36483 23.7574 4.31551 23.6833 4.28195 23.6018C4.24838 23.5203 4.23121 23.433 4.23145 23.3449C4.23145 23.1671 4.30205 22.9967 4.42771 22.8711C4.55337 22.7454 4.72379 22.6748 4.9015 22.6748H23.3979C23.5758 22.6748 23.7464 22.7453 23.8723 22.8709C23.9983 22.9965 24.0693 23.167 24.0698 23.3449C24.0698 23.523 23.999 23.6939 23.873 23.8199C23.747 23.9459 23.5761 24.0167 23.3979 24.0167Z" fill="#0072FF"/>
<path d="M16.1025 28.0245H4.9015C4.81336 28.0245 4.72609 28.0071 4.64468 27.9733C4.56327 27.9396 4.48932 27.89 4.42708 27.8276C4.36483 27.7652 4.31551 27.6911 4.28195 27.6096C4.24838 27.5281 4.23121 27.4408 4.23145 27.3527C4.23145 27.175 4.30205 27.0045 4.42771 26.8788C4.55337 26.7532 4.72379 26.6826 4.9015 26.6826H16.1025C16.2802 26.6826 16.4507 26.7532 16.5764 26.8788C16.702 27.0045 16.7726 27.175 16.7726 27.3527C16.7728 27.4408 16.7557 27.5281 16.7221 27.6096C16.6885 27.6911 16.6392 27.7652 16.577 27.8276C16.5147 27.89 16.4408 27.9396 16.3594 27.9733C16.278 28.0071 16.1907 28.0245 16.1025 28.0245Z" fill="#0072FF"/>
<path d="M32.9561 31.5664H10.554C8.96496 31.5664 7.67676 32.8546 7.67676 34.4437V41.1228C7.67676 42.7118 8.96496 44.0001 10.554 44.0001H32.9561C34.5452 44.0001 35.8334 42.7118 35.8334 41.1228V34.4437C35.8334 32.8546 34.5452 31.5664 32.9561 31.5664Z" fill="#0072FF"/>
<path d="M13.6557 39.2285V40.531H12.3066V39.2285H13.6557Z" fill="white"/>
<path d="M18.8407 39.2329C18.6163 39.6403 18.2775 39.9729 17.866 40.1896C17.403 40.4264 16.8882 40.544 16.3683 40.5318H14.333V35.1445H16.3683C16.8886 35.1317 17.4041 35.2467 17.8696 35.4795C18.2794 35.6923 18.6172 36.0214 18.8407 36.4255C19.0723 36.8556 19.1889 37.3382 19.1793 37.8265C19.1885 38.3166 19.0719 38.8008 18.8407 39.2329ZM17.4396 38.9624C17.5853 38.8129 17.6981 38.6347 17.7709 38.4391C17.8437 38.2435 17.8749 38.0349 17.8625 37.8265C17.875 37.6185 17.8438 37.4101 17.771 37.2147C17.6982 37.0194 17.5853 36.8415 17.4396 36.6924C17.1132 36.4062 16.6869 36.2607 16.2536 36.2875H15.6391V39.3655H16.2554C16.6877 39.3916 17.113 39.2468 17.4396 38.9624Z" fill="white"/>
<path d="M23.8627 35.4151C24.2726 35.6479 24.6114 35.9879 24.8427 36.3987C25.085 36.8325 25.2086 37.3225 25.201 37.8194C25.2092 38.3174 25.0856 38.8088 24.8427 39.2437C24.6106 39.656 24.2706 39.9973 23.8591 40.2309C23.4403 40.47 22.9654 40.5937 22.4831 40.5892C22.0009 40.5934 21.5261 40.4698 21.1072 40.2309C20.6958 39.9978 20.3562 39.6563 20.1254 39.2437C19.8817 38.8091 19.758 38.3175 19.7671 37.8194C19.7578 37.3223 19.8815 36.8319 20.1254 36.3987C20.3574 35.9878 20.6968 35.6478 21.1072 35.4151C21.5261 35.1761 22.0009 35.0525 22.4831 35.0568C22.9666 35.0522 23.4426 35.1758 23.8627 35.4151ZM21.4619 36.6871C21.1976 37.0032 21.0632 37.4079 21.0857 37.8194C21.0631 38.2292 21.1977 38.6322 21.4619 38.9463C21.5907 39.0862 21.7485 39.1962 21.9243 39.2687C22.1001 39.3411 22.2896 39.3741 22.4796 39.3655C22.6689 39.3736 22.8577 39.3403 23.0329 39.2679C23.208 39.1955 23.3652 39.0857 23.4936 38.9463C23.7591 38.6328 23.895 38.2297 23.8734 37.8194C23.8949 37.4097 23.7605 37.0071 23.4972 36.6925C23.3685 36.5524 23.2107 36.4424 23.0349 36.3699C22.8591 36.2975 22.6695 36.2645 22.4796 36.2732C22.2901 36.2645 22.101 36.297 21.9253 36.3685C21.7496 36.4399 21.5915 36.5486 21.4619 36.6871Z" fill="white"/>
<path d="M30.0952 35.6317C30.5496 36.0014 30.8587 36.5199 30.9678 37.0954H29.5882C29.4951 36.8569 29.3321 36.6521 29.1206 36.5078C28.8976 36.3626 28.636 36.2883 28.3699 36.2946C28.1943 36.289 28.0197 36.3238 27.8597 36.3965C27.6997 36.4692 27.5586 36.5778 27.4473 36.7138C27.1978 37.0329 27.0707 37.4307 27.089 37.8354C27.0707 38.2384 27.1979 38.6345 27.4473 38.9515C27.5595 39.0862 27.7009 39.1934 27.8608 39.2651C28.0207 39.3368 28.1948 39.3711 28.3699 39.3654C28.6361 39.3725 28.898 39.2981 29.1206 39.1522C29.331 39.0105 29.4939 38.8089 29.5882 38.5735H30.9678C30.8569 39.1474 30.5481 39.6641 30.0952 40.0337C29.6079 40.4057 29.0059 40.5959 28.3932 40.5711C27.9105 40.5813 27.434 40.4612 27.0137 40.2235C26.6204 39.9949 26.3013 39.6578 26.0946 39.2525C25.8725 38.808 25.7619 38.3161 25.7721 37.8192C25.762 37.3224 25.8727 36.8306 26.0946 36.386C26.3013 35.9807 26.6204 35.6436 27.0137 35.4149C27.434 35.1773 27.9105 35.0572 28.3932 35.0673C29.009 35.051 29.6112 35.2507 30.0952 35.6317Z" fill="white"/>
</svg>
