<svg width="16" height="17" viewBox="0 0 16 17" fill="none" xmlns="http://www.w3.org/2000/svg">
<path d="M15.9986 8C15.9986 8.82843 15.327 9.5 14.4986 9.5C13.6701 9.5 12.9986 8.82843 12.9986 8V2C12.9986 1.17157 13.6701 0.500001 14.4986 0.500001C15.327 0.500001 15.9986 1.17157 15.9986 2V8Z" fill="#FF0000"/>
<path d="M11.9986 8.16667V2.73607C11.9986 1.97852 11.5706 1.286 10.893 0.947215L10.8432 0.922291C10.2877 0.644581 9.67528 0.500001 9.0543 0.5L3.63818 0.5C2.68482 0.5 1.86399 1.17292 1.67702 2.10777L0.477018 8.10777C0.229501 9.34535 1.17609 10.5 2.43818 10.5H5.99857V14.5C5.99857 15.6046 6.894 16.5 7.99857 16.5C8.55086 16.5 8.99857 16.0523 8.99857 15.5V14.8333C8.99857 13.9679 9.27928 13.1257 9.79857 12.4333L11.1986 10.5667C11.7179 9.87428 11.9986 9.03215 11.9986 8.16667Z" fill="#FF0000"/>
</svg>
