<svg width="20" height="21" viewBox="0 0 20 21" fill="none" xmlns="http://www.w3.org/2000/svg">
<path d="M15.9102 3.95523C15.8432 3.88372 15.7495 3.84326 15.6515 3.84326C15.5535 3.84326 15.4599 3.88372 15.3928 3.95523L14.543 4.79764L14.0626 4.32465C13.9199 4.18856 13.6954 4.18856 13.5527 4.32465L5.05382 12.0698L5.00211 12.1363V12.1806C4.99172 12.2294 4.99172 12.2797 5.00211 12.3285V14.3904L3.93799 15.4101L2.71861 16.6222C2.57881 16.7607 2.50012 16.9494 2.5 17.1462C2.49975 17.3431 2.57819 17.5319 2.71775 17.6707C2.8573 17.8095 3.04647 17.887 3.24331 17.8858H5.30511C5.40309 17.8871 5.49712 17.8467 5.5638 17.775L5.93336 17.4054L6.93831 16.4078H9.00023C9.04898 16.4182 9.09933 16.4182 9.14808 16.4078H9.19237L9.25893 16.3561L17.0186 7.85747C17.1547 7.71469 17.1547 7.49026 17.0186 7.34748L16.5456 6.80063L17.3882 5.9508H17.388C17.4595 5.88375 17.5 5.79009 17.5 5.6921C17.5 5.59412 17.4595 5.50046 17.388 5.43341L15.9102 3.95523ZM3.24357 17.1467L4.19684 16.1933L5.15023 17.1467H3.24357ZM6.78357 15.6686C6.68558 15.6674 6.59168 15.7077 6.52487 15.7795L5.67504 16.622L4.72165 15.6686L5.56419 14.8188C5.63594 14.752 5.67628 14.6581 5.67504 14.5601V13.2373L8.10638 15.6686H6.78357ZM9.00062 15.506L5.83761 12.3578L13.8044 5.09344L16.2505 7.53948L9.00062 15.506ZM16.0214 6.27582L15.068 5.32243L15.6518 4.73858L16.6052 5.69198L16.0214 6.27582Z" fill="black" stroke="black" stroke-width="0.4" stroke-linecap="round" stroke-linejoin="round"/>
</svg>
