<svg width="16" height="14" viewBox="0 0 16 14" fill="none" xmlns="http://www.w3.org/2000/svg">
<path d="M6.69382 1.34371C7.26728 0.324232 8.73509 0.324232 9.30855 1.34371L14.8889 11.2642C15.4513 12.2642 14.7287 13.4996 13.5815 13.4996H2.42088C1.27364 13.4996 0.55107 12.2642 1.11352 11.2643L6.69382 1.34371ZM8.0011 12.4998C8.82953 12.4998 9.5011 11.8282 9.5011 10.9998C9.5011 10.1713 8.82953 9.49976 8.0011 9.49976C7.17267 9.49976 6.5011 10.1713 6.5011 10.9998C6.5011 11.8282 7.17267 12.4998 8.0011 12.4998ZM8.0011 2.49976C7.17267 2.49976 6.5011 3.17133 6.5011 3.99976V6.99976C6.5011 7.82818 7.17267 8.49976 8.0011 8.49976C8.82952 8.49976 9.5011 7.82818 9.5011 6.99976V3.99976C9.5011 3.17133 8.82952 2.49976 8.0011 2.49976Z" fill="#FF0000" stroke="#FF0000"/>
</svg>
