<svg width="21" height="20" viewBox="0 0 21 20" fill="none" xmlns="http://www.w3.org/2000/svg">
<rect x="0.375" width="20" height="20" rx="10" fill="#CCFF00"/>
<path fill-rule="evenodd" clip-rule="evenodd" d="M10.375 18C14.7933 18 18.375 14.4183 18.375 10C18.375 5.58172 14.7933 2 10.375 2C5.95672 2 2.375 5.58172 2.375 10C2.375 14.4183 5.95672 18 10.375 18ZM9.03033 8.53033C9.32322 8.23744 9.32322 7.76256 9.03033 7.46967C8.73744 7.17678 8.26256 7.17678 7.96967 7.46967L6.09467 9.34467C5.80178 9.63756 5.80178 10.1124 6.09467 10.4053L7.96967 12.2803C8.26256 12.5732 8.73744 12.5732 9.03033 12.2803C9.32322 11.9874 9.32322 11.5126 9.03033 11.2197L7.68566 9.875L9.03033 8.53033ZM12.7803 7.46967C12.4874 7.17678 12.0126 7.17678 11.7197 7.46967C11.4268 7.76256 11.4268 8.23744 11.7197 8.53033L13.0643 9.875L11.7197 11.2197C11.4268 11.5126 11.4268 11.9874 11.7197 12.2803C12.0126 12.5732 12.4874 12.5732 12.7803 12.2803L14.6553 10.4053C14.9482 10.1124 14.9482 9.63756 14.6553 9.34467L12.7803 7.46967Z" fill="black"/>
</svg>
