<svg width="15" height="16" viewBox="0 0 15 16" fill="none" xmlns="http://www.w3.org/2000/svg">
<path d="M13.1652 4.70405L12.6476 5.22613L12.8939 5.51087C13.0566 5.68519 13.056 5.95628 12.8921 6.12988L7.07343 12.5026C7.06673 12.5099 7.05942 12.5167 7.05157 12.5228L7.00164 12.5616C6.97094 12.5854 6.93316 12.5984 6.89428 12.5984H6.87717C6.82978 12.6062 6.78145 12.6062 6.73407 12.5984H5.27585L4.57376 13.2954L4.57331 13.2958L4.29858 13.5706C4.21543 13.6586 4.0992 13.7081 3.9779 13.7069M13.1652 4.70405L3.97883 13.5319M13.1652 4.70405C13.2514 4.62091 13.3 4.5063 13.3 4.38663C13.3 4.26596 13.2506 4.15043 13.163 4.06712M13.1652 4.70405L13.163 4.06712M3.9779 13.7069C3.97748 13.7069 3.97705 13.7069 3.97662 13.7069L3.97883 13.5319M3.9779 13.7069H3.97883V13.5319M3.9779 13.7069H2.43293M3.97883 13.5319H2.43249M2.43293 13.7069C2.43311 13.7069 2.43329 13.7069 2.43347 13.7069L2.43249 13.5319M2.43293 13.7069H2.43249V13.5319M2.43293 13.7069C2.2389 13.7079 2.05246 13.6315 1.9149 13.4946L1.91489 13.4946C1.77722 13.3577 1.69979 13.1714 1.7 12.9771L2.43249 13.5319M13.163 4.06712L12.0582 2.96199C11.9749 2.87441 11.8593 2.825 11.7386 2.825C11.6181 2.825 11.5027 2.87428 11.4194 2.96166L10.9068 3.46979L10.6697 3.23634L10.6697 3.23633L10.6677 3.23442C10.4937 3.06836 10.22 3.06785 10.0454 3.23289L3.67249 9.04053C3.6651 9.04726 3.65831 9.05461 3.65217 9.06251L3.61339 9.11243C3.58953 9.14313 3.57658 9.18091 3.57658 9.21979V9.2369C3.56879 9.28429 3.56879 9.33262 3.57658 9.38001V10.8357L2.83241 11.5487L2.83239 11.5487L2.83012 11.551L1.91577 12.4599L13.163 4.06712ZM5.0886 11.694C4.96733 11.6928 4.85139 11.7423 4.76827 11.83M5.0886 11.694C5.08903 11.694 5.08946 11.694 5.08988 11.694L5.08767 11.869M5.0886 11.694H5.08767V11.869M5.0886 11.694H5.6573M4.76827 11.83L5.08767 11.869M4.76827 11.83L4.25681 12.3371L3.78819 11.8685L4.29526 11.357L4.76827 11.83ZM5.08767 11.869H5.8323L5.6573 11.694M5.6573 11.694L4.43128 10.468M5.6573 11.694L4.43128 10.468M4.43128 10.468V11.0366V11.0376H4.25628L4.43128 10.468ZM1.91559 12.4601C1.77773 12.5968 1.70015 12.7829 1.7 12.977L1.91559 12.4601ZM2.85513 12.8026L3.14764 12.51L3.44019 12.8026H2.85513ZM5.90479 11.694L6.07979 11.869L5.90479 11.694ZM6.74421 11.4939L4.63185 9.39142L10.3477 4.17954L11.9461 5.77785L6.74421 11.4939ZM12.016 4.57693L11.5485 4.10937L11.7389 3.91898L12.2064 4.38654L12.016 4.57693Z" fill="white" stroke="white" stroke-width="0.35" stroke-linejoin="round"/>
</svg>
