<svg width="16" height="17" viewBox="0 0 16 17" fill="none" xmlns="http://www.w3.org/2000/svg">
<path fill-rule="evenodd" clip-rule="evenodd" d="M16 8.5C16 12.9183 12.4183 16.5 8 16.5C3.58172 16.5 0 12.9183 0 8.5C0 4.08172 3.58172 0.5 8 0.5C12.4183 0.5 16 4.08172 16 8.5ZM9 12.5C9 13.0523 8.55229 13.5 8 13.5C7.44772 13.5 7 13.0523 7 12.5C7 11.9477 7.44772 11.5 8 11.5C8.55229 11.5 9 11.9477 9 12.5ZM8 3.5C7.44772 3.5 7 3.94772 7 4.5V8.5C7 9.05228 7.44772 9.5 8 9.5C8.55229 9.5 9 9.05228 9 8.5V4.5C9 3.94772 8.55229 3.5 8 3.5Z" fill="#FF0000"/>
</svg>
