<svg width="110" height="80" viewBox="0 0 110 80" fill="none" xmlns="http://www.w3.org/2000/svg">
<path d="M61.7946 0C61.5768 0 61.3557 0.00259168 61.1311 0.00691101H40.9065C37.5229 0.00691101 35.0054 1.80809 33.309 4.05842C31.6126 6.30876 30.4749 8.98946 29.1429 11.4168L2.07591 60.7294V60.7285C2.07005 60.7432 2.06502 60.7579 2.05916 60.7726C0.759832 62.7413 0 65.1144 0 67.669C0 74.4712 5.39088 80 12.0055 80H67.0981C70.6727 80 74.998 79.3141 78.9252 77.5423C82.8433 75.774 86.4362 72.8333 88.0213 68.3291C88.0246 68.3196 88.0271 68.3101 88.0305 68.2998L109.847 16.7558C110.093 16.1813 110.039 15.5187 109.707 14.9935C109.374 14.4674 108.807 14.1512 108.199 14.1512H72.0945C72.8627 11.7315 73.2623 9.37229 72.9574 7.1391C72.6625 4.97769 71.4922 2.91907 69.4649 1.68194C67.5641 0.521755 65.0667 -0.00261985 61.7971 0.000830131L61.7946 0ZM61.7879 3.71293C64.6606 3.71552 66.5438 4.21917 67.6285 4.88088C68.7863 5.58753 69.216 6.3702 69.3928 7.65988C69.6249 9.35826 69.0284 11.9111 67.9687 14.7783C67.6822 15.1083 67.5188 15.5334 67.5088 15.9757C67.0589 17.097 66.547 18.2529 65.9958 19.4157L47.0011 59.4708C45.4186 56.9682 42.4648 55.3441 39.2136 55.3441H12.0072C10.955 55.3441 9.93381 55.4832 8.96037 55.7458L32.2829 13.2448C33.7247 10.6177 34.8581 8.06227 36.1558 6.34148C37.4535 4.62065 38.6406 3.71972 40.9083 3.71972H61.1672H61.2024C61.4026 3.7154 61.597 3.71194 61.7888 3.71281L61.7879 3.71293ZM70.6854 17.8631H105.441L84.686 66.928V66.9271C84.681 66.9444 84.676 66.9626 84.6718 66.9807C84.6617 66.9988 84.6517 67.017 84.6416 67.036C83.4831 70.3515 80.8116 72.6364 77.4782 74.1405C74.1449 75.6445 70.2117 76.2786 67.0962 76.2786H12.0036C7.314 76.2786 3.59934 72.4664 3.59934 67.6674C3.59934 65.7867 4.17152 64.0582 5.14748 62.6508L5.14664 62.6499C5.16926 62.6222 5.19104 62.5937 5.21282 62.5652L5.23879 62.5194C6.76097 60.409 9.20888 59.0536 12.0035 59.0536H39.2099C42.3599 59.0536 44.61 61.2262 44.61 63.6442C44.61 66.0623 42.3599 68.2227 39.2099 68.2227H16.5672C15.5737 68.2245 14.7686 69.0555 14.7686 70.0809C14.7694 71.1046 15.5745 71.9348 16.5672 71.9357H39.2099C42.9604 71.9357 46.3139 69.7794 47.624 66.6048L69.2309 21.0518C69.736 19.9867 70.2269 18.9207 70.6827 17.8615L70.6854 17.8631Z" fill="black" fill-opacity="0.2"/>
</svg>
