<svg width="154" height="152" viewBox="0 0 154 152" fill="none" xmlns="http://www.w3.org/2000/svg">
<g filter="url(#filter0_d_3945_54072)">
<mask id="path-1-inside-1_3945_54072" fill="white">
<path d="M144.116 107.633H76.8949L127.125 62.1845C128.477 60.9552 129.289 59.2398 129.379 57.4135C129.469 55.5871 128.831 53.8 127.604 52.4443L108.43 31.2605C107.203 29.8956 105.482 29.076 103.649 28.9862C101.815 28.8948 100.022 29.5422 98.6681 30.7807L61.5423 64.3039L74.8426 16.3908L74.8411 16.3893C75.3255 14.6267 75.0909 12.7438 74.1906 11.1518C73.2903 9.55991 71.7974 8.38844 70.0365 7.89485L42.4972 0.250434H42.4987C40.7332 -0.240085 38.8457 -0.00396852 37.257 0.905483C35.6544 1.79055 34.4799 3.28803 34.0031 5.05527L2.03085 120.474C-0.773659 127.02 -0.101878 134.538 3.82079 140.482C7.74361 146.426 14.3901 150.003 21.5115 150H144.114C145.945 150 147.7 149.273 148.993 147.979C150.288 146.685 151.015 144.929 151.015 143.099V114.533C151.015 112.703 150.288 110.948 148.993 109.653C147.7 108.359 145.945 107.632 144.114 107.632L144.116 107.633ZM101.553 34.0356C102.045 33.6 102.688 33.373 103.345 33.4019C104 33.4461 104.617 33.734 105.069 34.2108L124.244 55.3946V55.3931C125.173 56.4077 125.105 57.9813 124.092 58.9105L115.64 66.576L93.1459 41.701L101.553 34.0356ZM89.8267 44.6716L112.363 69.545L102.055 78.8925L79.5394 53.9961L89.8267 44.6716ZM76.2643 56.9455L98.7795 81.8189L88.4938 91.1433L65.9556 66.2699L76.2643 56.9455ZM38.2642 6.21282C38.4546 5.58518 38.8766 5.05504 39.4448 4.72754C40.0206 4.40001 40.7046 4.31318 41.3444 4.48684L68.8837 12.1313C69.5174 12.3064 70.0536 12.7315 70.3675 13.3103C70.6965 13.8785 70.7833 14.5549 70.6082 15.1886L67.5508 26.1081L35.2295 17.1537L38.2642 6.21282ZM29.1573 39.1237L37.8921 41.5474H37.8936C38.0886 41.5794 38.2882 41.5794 38.4832 41.5474C39.6897 41.7104 40.7987 40.8649 40.9617 39.6584C41.1247 38.4534 40.2792 37.3429 39.0727 37.1799L30.3379 34.7334L34.0503 21.4997L66.3716 30.4755L62.5708 43.8414L46.6943 39.474C45.5183 39.148 44.3011 39.8365 43.9751 41.0126C43.6506 42.1886 44.3391 43.4058 45.5152 43.7318L61.3917 48.0992L57.6793 61.4865L25.445 52.5107L29.1573 39.1237ZM24.2658 56.7688L56.587 65.7446L55.4521 69.85L47.0004 77.4944L20.5535 70.158L24.2658 56.7688ZM38.8324 90.8586L49.1181 81.5342L71.6563 106.409L70.302 107.632H54.0113L38.8324 90.8586ZM48.0488 107.631L20.2915 107.632L35.5784 93.808L48.0488 107.631ZM19.3746 74.4155L43.1362 80.9676L30.8413 92.105H30.8397C30.6402 91.9496 30.4101 91.8369 30.1634 91.7775L15.6412 87.7587L19.3746 74.4155ZM14.5256 92.0391L27.1481 95.555C27.1481 95.555 9.37046 111.497 9.06588 111.716L14.5256 92.0391ZM36.7577 145.587H21.4708C15.4795 145.587 9.94217 142.391 6.94555 137.201C3.94909 132.013 3.94909 125.619 6.94555 120.429C9.94201 115.24 15.4795 112.043 21.4708 112.043H36.7577V145.587ZM55.0805 145.587H41.1906V112.043H55.0805V145.587ZM73.3824 145.587H59.4924V112.043H73.4908L73.3824 145.587ZM52.3951 78.5653L62.7039 69.2408L85.2191 94.1142L74.9333 103.439L52.3951 78.5653ZM109.984 145.587H96.0937V141.962C96.0937 140.757 95.1157 139.779 93.9107 139.779C92.7042 139.779 91.7262 140.757 91.7262 141.962V145.587H77.8589V112.043H91.7488V133.14H91.7473C91.7473 134.345 92.7253 135.323 93.9318 135.323C95.1383 135.323 96.1148 134.345 96.1148 133.14V112.043H110.005L109.984 145.587ZM128.307 145.587H114.395V112.043H128.307V145.587ZM146.608 143.098H146.607C146.607 144.472 145.493 145.587 144.118 145.587H132.719V112.043H144.118C145.493 112.043 146.607 113.158 146.607 114.532L146.608 143.098Z"/>
</mask>
<path d="M144.116 107.633H76.8949L127.125 62.1845C128.477 60.9552 129.289 59.2398 129.379 57.4135C129.469 55.5871 128.831 53.8 127.604 52.4443L108.43 31.2605C107.203 29.8956 105.482 29.076 103.649 28.9862C101.815 28.8948 100.022 29.5422 98.6681 30.7807L61.5423 64.3039L74.8426 16.3908L74.8411 16.3893C75.3255 14.6267 75.0909 12.7438 74.1906 11.1518C73.2903 9.55991 71.7974 8.38844 70.0365 7.89485L42.4972 0.250434H42.4987C40.7332 -0.240085 38.8457 -0.00396852 37.257 0.905483C35.6544 1.79055 34.4799 3.28803 34.0031 5.05527L2.03085 120.474C-0.773659 127.02 -0.101878 134.538 3.82079 140.482C7.74361 146.426 14.3901 150.003 21.5115 150H144.114C145.945 150 147.7 149.273 148.993 147.979C150.288 146.685 151.015 144.929 151.015 143.099V114.533C151.015 112.703 150.288 110.948 148.993 109.653C147.7 108.359 145.945 107.632 144.114 107.632L144.116 107.633ZM101.553 34.0356C102.045 33.6 102.688 33.373 103.345 33.4019C104 33.4461 104.617 33.734 105.069 34.2108L124.244 55.3946V55.3931C125.173 56.4077 125.105 57.9813 124.092 58.9105L115.64 66.576L93.1459 41.701L101.553 34.0356ZM89.8267 44.6716L112.363 69.545L102.055 78.8925L79.5394 53.9961L89.8267 44.6716ZM76.2643 56.9455L98.7795 81.8189L88.4938 91.1433L65.9556 66.2699L76.2643 56.9455ZM38.2642 6.21282C38.4546 5.58518 38.8766 5.05504 39.4448 4.72754C40.0206 4.40001 40.7046 4.31318 41.3444 4.48684L68.8837 12.1313C69.5174 12.3064 70.0536 12.7315 70.3675 13.3103C70.6965 13.8785 70.7833 14.5549 70.6082 15.1886L67.5508 26.1081L35.2295 17.1537L38.2642 6.21282ZM29.1573 39.1237L37.8921 41.5474H37.8936C38.0886 41.5794 38.2882 41.5794 38.4832 41.5474C39.6897 41.7104 40.7987 40.8649 40.9617 39.6584C41.1247 38.4534 40.2792 37.3429 39.0727 37.1799L30.3379 34.7334L34.0503 21.4997L66.3716 30.4755L62.5708 43.8414L46.6943 39.474C45.5183 39.148 44.3011 39.8365 43.9751 41.0126C43.6506 42.1886 44.3391 43.4058 45.5152 43.7318L61.3917 48.0992L57.6793 61.4865L25.445 52.5107L29.1573 39.1237ZM24.2658 56.7688L56.587 65.7446L55.4521 69.85L47.0004 77.4944L20.5535 70.158L24.2658 56.7688ZM38.8324 90.8586L49.1181 81.5342L71.6563 106.409L70.302 107.632H54.0113L38.8324 90.8586ZM48.0488 107.631L20.2915 107.632L35.5784 93.808L48.0488 107.631ZM19.3746 74.4155L43.1362 80.9676L30.8413 92.105H30.8397C30.6402 91.9496 30.4101 91.8369 30.1634 91.7775L15.6412 87.7587L19.3746 74.4155ZM14.5256 92.0391L27.1481 95.555C27.1481 95.555 9.37046 111.497 9.06588 111.716L14.5256 92.0391ZM36.7577 145.587H21.4708C15.4795 145.587 9.94217 142.391 6.94555 137.201C3.94909 132.013 3.94909 125.619 6.94555 120.429C9.94201 115.24 15.4795 112.043 21.4708 112.043H36.7577V145.587ZM55.0805 145.587H41.1906V112.043H55.0805V145.587ZM73.3824 145.587H59.4924V112.043H73.4908L73.3824 145.587ZM52.3951 78.5653L62.7039 69.2408L85.2191 94.1142L74.9333 103.439L52.3951 78.5653ZM109.984 145.587H96.0937V141.962C96.0937 140.757 95.1157 139.779 93.9107 139.779C92.7042 139.779 91.7262 140.757 91.7262 141.962V145.587H77.8589V112.043H91.7488V133.14H91.7473C91.7473 134.345 92.7253 135.323 93.9318 135.323C95.1383 135.323 96.1148 134.345 96.1148 133.14V112.043H110.005L109.984 145.587ZM128.307 145.587H114.395V112.043H128.307V145.587ZM146.608 143.098H146.607C146.607 144.472 145.493 145.587 144.118 145.587H132.719V112.043H144.118C145.493 112.043 146.607 113.158 146.607 114.532L146.608 143.098Z" fill="black" stroke="white" mask="url(#path-1-inside-1_3945_54072)"/>
<path d="M27.6836 134.617L27.6834 134.617C26.1462 136.156 24.0603 137.019 21.8842 137.019C19.7097 137.019 17.6238 136.156 16.0849 134.617L16.0849 134.617C14.5474 133.08 13.6826 130.994 13.6826 128.818C13.6826 126.643 14.5474 124.557 16.0849 123.018C17.6237 121.481 19.7097 120.616 21.8842 120.616C24.0602 120.616 26.146 121.481 27.6835 123.018L27.6835 123.018C29.2224 124.557 30.0857 126.643 30.0857 128.818C30.0857 130.994 29.2224 133.08 27.6836 134.617ZM18.8593 125.754L18.859 125.754C17.6283 126.98 17.2561 128.827 17.9193 130.432C18.5491 131.961 19.9984 132.985 21.635 133.079L21.6352 133.13L21.8833 133.131C23.0285 133.136 24.1272 132.683 24.9332 131.872C25.7403 131.061 26.1867 129.96 26.1758 128.817C26.1832 127.081 25.1449 125.511 23.5424 124.84C21.9407 124.169 20.0919 124.529 18.8593 125.754Z" fill="black" stroke="white" stroke-width="0.5"/>
</g>
<defs>
<filter id="filter0_d_3945_54072" x="0.318848" y="0" width="152.696" height="152" filterUnits="userSpaceOnUse" color-interpolation-filters="sRGB">
<feFlood flood-opacity="0" result="BackgroundImageFix"/>
<feColorMatrix in="SourceAlpha" type="matrix" values="0 0 0 0 0 0 0 0 0 0 0 0 0 0 0 0 0 0 127 0" result="hardAlpha"/>
<feOffset dx="2" dy="2"/>
<feComposite in2="hardAlpha" operator="out"/>
<feColorMatrix type="matrix" values="0 0 0 0 0.8 0 0 0 0 1 0 0 0 0 0 0 0 0 1 0"/>
<feBlend mode="normal" in2="BackgroundImageFix" result="effect1_dropShadow_3945_54072"/>
<feBlend mode="normal" in="SourceGraphic" in2="effect1_dropShadow_3945_54072" result="shape"/>
</filter>
</defs>
</svg>
