<svg width="13" height="13" viewBox="0 0 13 13" fill="none" xmlns="http://www.w3.org/2000/svg">
<path fill-rule="evenodd" clip-rule="evenodd" d="M6.5 12.5C9.81371 12.5 12.5 9.81371 12.5 6.5C12.5 3.18629 9.81371 0.5 6.5 0.5C3.18629 0.5 0.5 3.18629 0.5 6.5C0.5 9.81371 3.18629 12.5 6.5 12.5ZM9.28033 5.53033C9.57322 5.23744 9.57322 4.76256 9.28033 4.46967C8.98744 4.17678 8.51256 4.17678 8.21967 4.46967L5.75 6.93934L4.78033 5.96967C4.48744 5.67678 4.01256 5.67678 3.71967 5.96967C3.42678 6.26256 3.42678 6.73744 3.71967 7.03033L5.21967 8.53033C5.51256 8.82322 5.98744 8.82322 6.28033 8.53033L9.28033 5.53033Z" fill="#00DD81"/>
</svg>
