<svg width="16" height="14" viewBox="0 0 16 14" fill="none" xmlns="http://www.w3.org/2000/svg">
<path fill-rule="evenodd" clip-rule="evenodd" d="M6.25803 1.09858C7.02264 -0.260724 8.97973 -0.260725 9.74434 1.09858L15.3246 11.0191C16.0746 12.3523 15.1111 13.9996 13.5815 13.9996H2.42088C0.891228 13.9996 -0.0722004 12.3523 0.677729 11.0191L6.25803 1.09858ZM9.0011 10.9998C9.0011 11.552 8.55338 11.9998 8.0011 11.9998C7.44881 11.9998 7.0011 11.552 7.0011 10.9998C7.0011 10.4475 7.44881 9.99976 8.0011 9.99976C8.55338 9.99976 9.0011 10.4475 9.0011 10.9998ZM8.0011 2.99976C7.44881 2.99976 7.0011 3.44747 7.0011 3.99976V6.99976C7.0011 7.55204 7.44881 7.99976 8.0011 7.99976C8.55338 7.99976 9.0011 7.55204 9.0011 6.99976V3.99976C9.0011 3.44747 8.55338 2.99976 8.0011 2.99976Z" fill="#FF9A00"/>
</svg>
