<svg width="11" height="14" viewBox="0 0 11 14" fill="none" xmlns="http://www.w3.org/2000/svg">
<path d="M4.25 12.625H8.625C9.31536 12.625 9.875 12.0654 9.875 11.375V5.38388C9.875 5.21812 9.80915 5.05915 9.69194 4.94194L6.30806 1.55806C6.19085 1.44085 6.03188 1.375 5.86612 1.375H2.375C1.68464 1.375 1.125 1.93464 1.125 2.625V9.5M1.125 12.625L4.17418 9.57583M4.17418 9.57583C4.51348 9.91513 4.98223 10.125 5.5 10.125C6.53553 10.125 7.375 9.28553 7.375 8.25C7.375 7.21447 6.53553 6.375 5.5 6.375C4.46447 6.375 3.625 7.21447 3.625 8.25C3.625 8.76777 3.83487 9.23652 4.17418 9.57583Z" stroke="black" stroke-opacity="0.5" stroke-width="1.5" stroke-linecap="round"/>
</svg>
