<svg width="151" height="152" viewBox="0 0 151 152" fill="none" xmlns="http://www.w3.org/2000/svg">
<g filter="url(#filter0_d_5093_25600)">
<path d="M20.6151 141.623H28.5368C29.8311 141.623 30.8805 140.574 30.8805 139.279C30.8805 137.984 29.8311 136.935 28.5368 136.935H22.736L21.4438 124.006C21.3151 122.72 20.1778 121.799 18.8783 121.907C17.5903 122.036 16.6507 123.185 16.7794 124.473L18.2829 139.512C18.4033 140.709 19.4119 141.623 20.6152 141.623L20.6151 141.623Z" fill="black"/>
<path d="M100.077 92.4052H128.097C131.725 92.4052 134.803 89.574 135.104 85.9579L135.69 78.9266C135.853 76.9721 135.186 75.0239 133.858 73.582C132.53 72.1402 130.645 71.3115 128.683 71.3115H100.759C97.121 71.3115 94.1119 74.0423 93.7613 77.6627L93.0781 84.6918C92.8855 86.6631 93.5384 88.6312 94.8683 90.0983C96.1971 91.5652 98.0941 92.4054 100.075 92.4054L100.077 92.4052ZM98.4266 78.1166C98.5448 76.9102 99.5472 75.9989 100.76 75.9989H128.684C129.347 75.9989 129.96 76.2667 130.408 76.7564C130.858 77.244 131.074 77.876 131.019 78.5372L130.433 85.5685C130.333 86.7749 129.308 87.7176 128.098 87.7176H100.077C99.4079 87.7176 98.7916 87.4456 98.3416 86.9486C97.8928 86.4516 97.6814 85.8133 97.7452 85.1479L98.4266 78.1166Z" fill="black"/>
<path d="M12.132 150.999H138.695C139.914 150.999 140.929 150.065 141.03 148.85L147.216 74.6295C147.487 71.3724 146.374 68.1267 144.162 65.7211C142.681 64.1129 140.768 63.0144 138.695 62.4294V57.2501C138.695 50.7891 133.437 45.5313 126.976 45.5313H124.632V8.03126C124.632 4.15349 121.479 1 117.601 1H33.226C29.3482 1 26.1947 4.15349 26.1947 8.03126V29.1251H23.851C17.39 29.1251 12.1322 34.3828 12.1322 40.8438V76.5466C10.0961 77.1545 8.22016 78.2542 6.77078 79.857C4.55469 82.3064 3.47078 85.5972 3.80024 88.8868L9.79972 148.89C9.92004 150.087 10.9276 151 12.132 151L12.132 150.999ZM124.632 50.2179H126.976C130.854 50.2179 134.007 53.3714 134.007 57.2491V61.9367H124.632V50.2179ZM30.882 8.0303C30.882 6.73706 31.9336 5.68655 33.2258 5.68655H117.601C118.893 5.68655 119.945 6.73706 119.945 8.0303V61.9367H95.2871C92.4933 61.9367 89.7845 62.939 87.6604 64.7585L76.5212 74.3053C75.2458 75.3976 73.622 75.9992 71.9446 75.9992H30.882V8.0303ZM16.8195 40.8429C16.8195 36.9651 19.973 33.8116 23.8508 33.8116H26.1945V75.9992H16.8195V40.8429ZM10.2455 83.001C11.5963 81.5089 13.4472 80.6876 15.4593 80.6876H71.9452C74.7389 80.6876 77.4478 79.6852 79.5719 77.8657L90.711 68.319C91.9865 67.2266 93.6103 66.625 95.2876 66.625H135.539C137.529 66.625 139.366 67.4307 140.714 68.8955C142.06 70.3604 142.71 72.2585 142.546 74.2401L136.54 146.313H14.2547L8.46552 88.4178C8.26567 86.4151 8.8987 84.491 10.2474 82.9998L10.2455 83.001Z" fill="black"/>
<path d="M38.0117 141.625H42.5747C43.869 141.625 44.9184 140.577 44.9184 139.281C44.9184 137.986 43.869 136.938 42.5747 136.938H38.0117C36.7174 136.938 35.668 137.986 35.668 139.281C35.668 140.577 36.7174 141.625 38.0117 141.625Z" fill="black"/>
<path d="M42.6016 17.4053H110.57C111.865 17.4053 112.914 16.3569 112.914 15.0615C112.914 13.7662 111.865 12.7178 110.57 12.7178H42.6016C41.3073 12.7178 40.2578 13.7662 40.2578 15.0615C40.2578 16.3569 41.3073 17.4053 42.6016 17.4053Z" fill="black"/>
<path d="M110.566 22.0928H73.0664C71.7721 22.0928 70.7227 23.1412 70.7227 24.4365C70.7227 25.7319 71.7721 26.7803 73.0664 26.7803H110.566C111.861 26.7803 112.91 25.7319 112.91 24.4365C112.91 23.1412 111.861 22.0928 110.566 22.0928Z" fill="black"/>
<path d="M42.6016 26.7803H59.0078C60.3021 26.7803 61.3516 25.7319 61.3516 24.4365C61.3516 23.1412 60.3021 22.0928 59.0078 22.0928H42.6016C41.3073 22.0928 40.2578 23.1412 40.2578 24.4365C40.2578 25.7319 41.3073 26.7803 42.6016 26.7803Z" fill="black"/>
<path d="M110.57 31.4697H103.539C102.245 31.4697 101.195 32.5181 101.195 33.8135C101.195 35.1088 102.245 36.1572 103.539 36.1572H110.57C111.865 36.1572 112.914 35.1088 112.914 33.8135C112.914 32.5181 111.865 31.4697 110.57 31.4697Z" fill="black"/>
<path d="M96.5079 33.8135C96.5079 32.5181 95.4585 31.4697 94.1642 31.4697H42.6016C41.3073 31.4697 40.2578 32.5181 40.2578 33.8135C40.2578 35.1088 41.3073 36.1572 42.6016 36.1572H94.1642C95.4585 36.1572 96.5079 35.1088 96.5079 33.8135Z" fill="black"/>
</g>
<defs>
<filter id="filter0_d_5093_25600" x="3.74219" y="1" width="144.514" height="151" filterUnits="userSpaceOnUse" color-interpolation-filters="sRGB">
<feFlood flood-opacity="0" result="BackgroundImageFix"/>
<feColorMatrix in="SourceAlpha" type="matrix" values="0 0 0 0 0 0 0 0 0 0 0 0 0 0 0 0 0 0 127 0" result="hardAlpha"/>
<feOffset dx="1" dy="1"/>
<feComposite in2="hardAlpha" operator="out"/>
<feColorMatrix type="matrix" values="0 0 0 0 0.8 0 0 0 0 1 0 0 0 0 0 0 0 0 1 0"/>
<feBlend mode="normal" in2="BackgroundImageFix" result="effect1_dropShadow_5093_25600"/>
<feBlend mode="normal" in="SourceGraphic" in2="effect1_dropShadow_5093_25600" result="shape"/>
</filter>
</defs>
</svg>
