<svg width="20" height="21" viewBox="0 0 20 21" fill="none" xmlns="http://www.w3.org/2000/svg">
<path fill-rule="evenodd" clip-rule="evenodd" d="M19.6004 10.5004C19.6004 15.8023 15.3023 20.1004 10.0004 20.1004C4.69846 20.1004 0.400391 15.8023 0.400391 10.5004C0.400391 5.19846 4.69846 0.900391 10.0004 0.900391C15.3023 0.900391 19.6004 5.19846 19.6004 10.5004ZM10.0004 6.90039C9.55775 6.90039 9.16951 7.13945 8.96021 7.50126C8.62836 8.07494 7.89429 8.27097 7.32061 7.93912C6.74694 7.60727 6.55091 6.87319 6.88276 6.29952C7.5034 5.22661 8.66639 4.50039 10.0004 4.50039C11.9886 4.50039 13.6004 6.11217 13.6004 8.10039C13.6004 9.66785 12.5986 11.0013 11.2004 11.4955V11.7004C11.2004 12.3631 10.6631 12.9004 10.0004 12.9004C9.33767 12.9004 8.80041 12.3631 8.80041 11.7004V10.5004C8.80041 9.83765 9.33767 9.30039 10.0004 9.30039C10.6631 9.30039 11.2004 8.76313 11.2004 8.10039C11.2004 7.43765 10.6631 6.90039 10.0004 6.90039ZM10.0004 16.5004C10.6631 16.5004 11.2004 15.9631 11.2004 15.3004C11.2004 14.6376 10.6631 14.1004 10.0004 14.1004C9.33765 14.1004 8.80039 14.6376 8.80039 15.3004C8.80039 15.9631 9.33765 16.5004 10.0004 16.5004Z" fill="#2965FF"/>
</svg>
