<svg width="20" height="21" viewBox="0 0 20 21" fill="none" xmlns="http://www.w3.org/2000/svg">
<path fill-rule="evenodd" clip-rule="evenodd" d="M18 10.5C18 14.9183 14.4183 18.5 10 18.5C5.58172 18.5 2 14.9183 2 10.5C2 6.08172 5.58172 2.5 10 2.5C14.4183 2.5 18 6.08172 18 10.5ZM10 7.5C9.63113 7.5 9.3076 7.69922 9.13318 8.00073C8.85664 8.47879 8.24491 8.64215 7.76685 8.36561C7.28879 8.08906 7.12543 7.47733 7.40197 6.99927C7.91918 6.10518 8.88833 5.5 10 5.5C11.6569 5.5 13 6.84315 13 8.5C13 9.80622 12.1652 10.9175 11 11.3293V11.5C11 12.0523 10.5523 12.5 10 12.5C9.44773 12.5 9.00001 12.0523 9.00001 11.5V10.5C9.00001 9.94772 9.44773 9.5 10 9.5C10.5523 9.5 11 9.05228 11 8.5C11 7.94772 10.5523 7.5 10 7.5ZM10 15.5C10.5523 15.5 11 15.0523 11 14.5C11 13.9477 10.5523 13.5 10 13.5C9.44772 13.5 9 13.9477 9 14.5C9 15.0523 9.44772 15.5 10 15.5Z" fill="#111827"/>
</svg>
