<svg width="20" height="17" viewBox="0 0 20 17" fill="none" xmlns="http://www.w3.org/2000/svg">
<path d="M15.921 12.9289L15.484 13.2778L15.8794 13.6733L17.3526 15.1464C17.5478 15.3417 17.5478 15.6583 17.3526 15.8536C17.1573 16.0488 16.8407 16.0488 16.6455 15.8536L2.64547 1.85355C2.45021 1.65829 2.45021 1.34171 2.64547 1.14645C2.84073 0.951184 3.15731 0.951185 3.35258 1.14645L3.70613 0.792893L3.35258 1.14645L5.13326 2.92713L5.38948 3.18335L5.71274 3.01962C6.99997 2.36762 8.45595 2 9.99924 2C14.1969 2 17.7599 4.72289 19.016 8.49997C18.4302 10.2613 17.3422 11.7945 15.921 12.9289ZM7.71277 4.62346L7.15765 4.95152L7.6136 5.40747L9.12748 6.92135L9.33152 7.12538L9.61026 7.05081C9.73377 7.01776 9.86407 7 9.99928 7C10.8277 7 11.4993 7.67157 11.4993 8.5C11.4993 8.63521 11.4815 8.7655 11.4485 8.88902L11.3739 9.16776L11.5779 9.3718L13.0918 10.8857L13.5478 11.3416L13.8758 10.7865C14.272 10.116 14.4993 9.33379 14.4993 8.5C14.4993 6.01472 12.4846 4 9.99928 4C9.16548 4 8.38324 4.22723 7.71277 4.62346ZM5.52406 8.97476C5.74508 11.0811 7.41818 12.7542 9.52451 12.9752L11.4407 14.8914C10.9709 14.9629 10.4895 15 9.99922 15C5.80153 15 2.23853 12.2771 0.982493 8.50003C1.30477 7.53088 1.77911 6.63081 2.37744 5.82815L5.52406 8.97476Z" fill="#111827" stroke="black"/>
</svg>
