<svg width="24" height="25" viewBox="0 0 24 25" fill="none" xmlns="http://www.w3.org/2000/svg">
<path d="M8.79682 8.33913C8.92947 8.47189 9.11879 8.47189 9.27033 8.37708C9.80067 8.01688 10.3878 7.77042 11.0318 7.63779C11.2022 7.59985 11.3348 7.46722 11.3348 7.2776V3.8655C11.3348 3.63806 11.1454 3.46735 10.937 3.5053C9.23242 3.71382 7.67921 4.37734 6.41018 5.38198C6.23974 5.51474 6.22072 5.78013 6.39129 5.93164L8.79682 8.33913Z" fill="black"/>
<path d="M12.9637 7.65673C13.6077 7.78949 14.1948 8.03582 14.7251 8.39602C14.8767 8.49083 15.066 8.49083 15.1986 8.35807L17.6231 5.93169C17.7746 5.78002 17.7746 5.51465 17.6042 5.38203C16.3351 4.37736 14.782 3.71386 13.0773 3.50534C12.869 3.48643 12.6795 3.65701 12.6795 3.86554V7.2966C12.6607 7.4673 12.7933 7.61883 12.9637 7.6568L12.9637 7.65673Z" fill="black"/>
<path d="M7.88833 15.2205C7.52842 14.6897 7.28216 14.1021 7.14964 13.4576C7.11172 13.2871 6.96018 13.1543 6.78973 13.1543H3.3804C3.17205 13.1543 2.98258 13.3439 3.0205 13.5524C3.22885 15.2584 3.89184 16.8129 4.89566 18.083C5.02831 18.2535 5.29348 18.2726 5.44488 18.1019L7.86929 15.6755C7.98305 15.5616 7.98305 15.3722 7.88831 15.2205L7.88833 15.2205Z" fill="black"/>
<path d="M3.38015 11.827H6.80842C6.97886 11.827 7.1304 11.6942 7.16833 11.5236C7.30098 10.8792 7.54711 10.2916 7.90702 9.7608C8.00175 9.60913 8.00175 9.41966 7.8691 9.2869L5.42581 6.86051C5.27427 6.70885 5.00911 6.70885 4.8766 6.87942C3.87274 8.14948 3.20978 9.70392 3.00143 11.4099C2.98254 11.6375 3.15297 11.827 3.38021 11.827L3.38015 11.827Z" fill="black"/>
<path d="M20.6162 13.1543H17.188C17.0175 13.1543 16.866 13.2871 16.8281 13.4576C16.6954 14.1021 16.4493 14.6897 16.0894 15.2205C15.9946 15.3721 15.9946 15.5616 16.1273 15.6944L18.5517 18.1208C18.7032 18.2724 18.9684 18.2724 19.1009 18.1019C20.1048 16.8318 20.7677 15.2774 20.9761 13.5713C21.0139 13.3438 20.8434 13.1543 20.6162 13.1543L20.6162 13.1543Z" fill="black"/>
<path d="M11.0326 17.3238C10.3887 17.1911 9.80153 16.9447 9.27119 16.5845C9.11964 16.4897 8.93032 16.4897 8.79767 16.6225L6.37312 19.0678C6.22158 19.2194 6.22158 19.4848 6.39201 19.6174C7.66104 20.6221 9.21421 21.2856 10.9188 21.4941C11.1272 21.513 11.3167 21.3424 11.3167 21.1339V17.6839C11.3356 17.5132 11.203 17.3617 11.0326 17.3237L11.0326 17.3238Z" fill="black"/>
<path d="M16.1088 9.76105C16.4687 10.2918 16.715 10.8794 16.8475 11.5239C16.8854 11.6945 17.037 11.8272 17.2074 11.8272H20.6357C20.8441 11.8272 21.0335 11.6376 20.9956 11.4291C20.7873 9.7231 20.1243 8.16863 19.1204 6.89857C18.9878 6.728 18.7226 6.70896 18.5712 6.87966L16.1468 9.28712C16.0142 9.41988 16.0142 9.60936 16.1089 9.76103L16.1088 9.76105Z" fill="black"/>
<path d="M15.1992 16.642C15.0665 16.5093 14.8772 16.5093 14.7256 16.6041C14.1953 16.9643 13.6082 17.2107 12.9642 17.3434C12.7938 17.3813 12.6611 17.5139 12.6611 17.7036V21.1346C12.6611 21.362 12.8506 21.5328 13.059 21.4948C14.7636 21.2863 16.3168 20.6228 17.5858 19.6181C17.7562 19.4854 17.7753 19.22 17.6047 19.0685L15.1992 16.642Z" fill="black"/>
<path d="M14.2713 13.4379C14.2713 12.4521 13.0023 10.2722 12.6045 9.60872C12.472 9.4002 12.2447 9.26758 11.9984 9.26758C11.7522 9.26758 11.5249 9.40034 11.3923 9.60872C11.0135 10.2723 9.72559 12.4521 9.72559 13.4379C9.72559 14.689 10.7483 15.7126 11.9984 15.7126C13.2486 15.7126 14.2713 14.689 14.2713 13.4379ZM11.9984 14.8785C11.2029 14.8785 10.559 14.234 10.559 13.4379C10.559 12.7365 11.6575 10.7841 11.9984 10.1963C12.3393 10.7839 13.4379 12.7364 13.4379 13.4379C13.4379 14.234 12.794 14.8785 11.9984 14.8785Z" fill="black"/>
<path d="M11.771 12.1303C11.6573 12.0545 11.4868 12.0923 11.4108 12.206C11.3729 12.244 10.7095 13.3435 11.2781 14.1964C11.3349 14.2722 11.4108 14.3102 11.4866 14.3102C11.5435 14.3102 11.5814 14.2913 11.6383 14.2722C11.752 14.1964 11.7899 14.0257 11.714 13.912C11.335 13.3433 11.8468 12.5092 11.8657 12.4903C11.9227 12.3767 11.8847 12.2062 11.771 12.1302L11.771 12.1303Z" fill="black"/>
</svg>
