<svg width="21" height="20" viewBox="0 0 21 20" fill="none" xmlns="http://www.w3.org/2000/svg">
<rect x="0.875" width="20" height="20" rx="10" fill="white"/>
<path fill-rule="evenodd" clip-rule="evenodd" d="M10.875 18C15.2933 18 18.875 14.4183 18.875 10C18.875 5.58172 15.2933 2 10.875 2C6.45672 2 2.875 5.58172 2.875 10C2.875 14.4183 6.45672 18 10.875 18ZM9.53033 8.53033C9.82322 8.23744 9.82322 7.76256 9.53033 7.46967C9.23744 7.17678 8.76256 7.17678 8.46967 7.46967L6.59467 9.34467C6.30178 9.63756 6.30178 10.1124 6.59467 10.4053L8.46967 12.2803C8.76256 12.5732 9.23744 12.5732 9.53033 12.2803C9.82322 11.9874 9.82322 11.5126 9.53033 11.2197L8.18566 9.875L9.53033 8.53033ZM13.2803 7.46967C12.9874 7.17678 12.5126 7.17678 12.2197 7.46967C11.9268 7.76256 11.9268 8.23744 12.2197 8.53033L13.5643 9.875L12.2197 11.2197C11.9268 11.5126 11.9268 11.9874 12.2197 12.2803C12.5126 12.5732 12.9874 12.5732 13.2803 12.2803L15.1553 10.4053C15.4482 10.1124 15.4482 9.63756 15.1553 9.34467L13.2803 7.46967Z" fill="black"/>
</svg>
