<svg width="21" height="20" viewBox="0 0 21 20" fill="none" xmlns="http://www.w3.org/2000/svg">
<rect x="0.126953" width="20" height="20" rx="10" fill="white"/>
<path fill-rule="evenodd" clip-rule="evenodd" d="M18.127 10C18.127 14.4183 14.5452 18 10.127 18C5.70868 18 2.12695 14.4183 2.12695 10C2.12695 5.58172 5.70868 2 10.127 2C14.5452 2 18.127 5.58172 18.127 10ZM14.4073 7.46967C14.1144 7.17678 13.6395 7.17678 13.3466 7.46967L11.4716 9.34467C11.1787 9.63756 11.1787 10.1124 11.4716 10.4053L13.3466 12.2803C13.6395 12.5732 14.1144 12.5732 14.4073 12.2803C14.7002 11.9874 14.7002 11.5126 14.4073 11.2197L13.0626 9.875L14.4073 8.53033C14.7002 8.23744 14.7002 7.76256 14.4073 7.46967ZM5.84662 8.53033C5.55373 8.23744 5.55373 7.76256 5.84662 7.46967C6.13952 7.17678 6.61439 7.17678 6.90728 7.46967L8.78228 9.34467C9.07518 9.63756 9.07518 10.1124 8.78228 10.4053L6.90728 12.2803C6.61439 12.5732 6.13952 12.5732 5.84662 12.2803C5.55373 11.9874 5.55373 11.5126 5.84662 11.2197L7.19129 9.875L5.84662 8.53033Z" fill="black"/>
</svg>
