<svg width="11" height="12" viewBox="0 0 11 12" fill="none" xmlns="http://www.w3.org/2000/svg">
<path fill-rule="evenodd" clip-rule="evenodd" d="M0.918153 5.70679C0.730447 5.51926 0.625 5.26495 0.625 4.99979C0.625 4.73462 0.730447 4.48031 0.918153 4.29279L4.92316 0.292787C5.11092 0.105316 5.36555 0 5.63104 0C5.89654 0 6.15117 0.105316 6.33893 0.292787L10.3439 4.29279C10.5263 4.48139 10.6272 4.73399 10.625 4.99619C10.6227 5.25838 10.5174 5.5092 10.3317 5.6946C10.1461 5.88001 9.89497 5.98518 9.63245 5.98746C9.36992 5.98974 9.11701 5.88894 8.92817 5.70679L6.6323 3.41379V10.9998C6.6323 11.265 6.52681 11.5194 6.33904 11.7069C6.15127 11.8944 5.89659 11.9998 5.63104 11.9998C5.3655 11.9998 5.11082 11.8944 4.92305 11.7069C4.73528 11.5194 4.62979 11.265 4.62979 10.9998V3.41379L2.33392 5.70679C2.14616 5.89426 1.89153 5.99957 1.62604 5.99957C1.36054 5.99957 1.10592 5.89426 0.918153 5.70679Z" fill="#00DD81"/>
</svg>
