<svg width="156" height="152" viewBox="0 0 156 152" fill="none" xmlns="http://www.w3.org/2000/svg">
<g filter="url(#filter0_d_4054_79837)">
<path d="M79.0445 75.6678C79.0445 76.7621 78.1586 77.648 77.0643 77.648C75.9699 77.648 75.084 76.7621 75.084 75.6678C75.084 74.5734 75.9699 73.6875 77.0643 73.6875C78.1586 73.6875 79.0445 74.5734 79.0445 75.6678Z" fill="black" stroke="white" stroke-width="0.5"/>
<path d="M79.0445 94.7693C79.0445 95.8637 78.1586 96.7496 77.0643 96.7496C75.9699 96.7496 75.084 95.8637 75.084 94.7693C75.084 93.675 75.9699 92.7891 77.0643 92.7891C78.1586 92.7891 79.0445 93.675 79.0445 94.7693Z" fill="black" stroke="white" stroke-width="0.5"/>
<path d="M79.0445 94.7693C79.0445 95.8637 78.1586 96.7496 77.0643 96.7496C75.9699 96.7496 75.084 95.8637 75.084 94.7693C75.084 93.675 75.9699 92.7891 77.0643 92.7891C78.1586 92.7891 79.0445 93.675 79.0445 94.7693Z" fill="black" stroke="white" stroke-width="0.5"/>
<path d="M79.0445 37.3475C79.0445 38.4418 78.1586 39.3277 77.0643 39.3277C75.9699 39.3277 75.084 38.4418 75.084 37.3475C75.084 36.2531 75.9699 35.3672 77.0643 35.3672C78.1586 35.3672 79.0445 36.2531 79.0445 37.3475Z" fill="black" stroke="white" stroke-width="0.5"/>
<path d="M79.0445 56.408C79.0445 57.5024 78.1586 58.3883 77.0643 58.3883C75.9699 58.3883 75.084 57.5024 75.084 56.408C75.084 55.3136 75.9699 54.4277 77.0643 54.4277C78.1586 54.4277 79.0445 55.3136 79.0445 56.408Z" fill="black" stroke="white" stroke-width="0.5"/>
<path d="M79.0445 112.812C79.0445 113.907 78.1586 114.793 77.0643 114.793C75.9699 114.793 75.084 113.907 75.084 112.812C75.084 111.718 75.9699 110.832 77.0643 110.832C78.1586 110.832 79.0445 111.718 79.0445 112.812Z" fill="black" stroke="white" stroke-width="0.5"/>
<path d="M79.0445 131.869C79.0445 132.963 78.1586 133.849 77.0643 133.849C75.9699 133.849 75.084 132.963 75.084 131.869C75.084 130.775 75.9699 129.889 77.0643 129.889C78.1586 129.889 79.0445 130.775 79.0445 131.869Z" fill="black" stroke="white" stroke-width="0.5"/>
<path d="M90.1773 70.9641L90.1773 70.964L90.1719 70.9629C89.4827 70.825 88.9941 70.2019 88.9941 69.5049V46.4722C88.9941 45.637 89.6527 44.9785 90.4878 44.9785H112.263H112.264C113.095 44.9785 113.76 45.6347 113.798 46.4776V69.5049C113.798 70.202 113.309 70.8251 112.62 70.9629L112.62 70.9628L112.615 70.9641L101.707 73.3971L101.694 73.3999L101.682 73.4039C101.605 73.4297 101.523 73.4316 101.396 73.4316C101.269 73.4316 101.187 73.4297 101.11 73.4039L101.098 73.3999L101.085 73.3971L90.1773 70.9641ZM110.77 48.2564V48.0064H110.52H92.2718H92.0218V48.2564V51.3788V51.6288H92.2718H110.52H110.77V51.3788V48.2564ZM101.301 70.3976L101.355 70.4096L101.409 70.3976L110.533 68.37L110.729 68.3265V68.126V54.9066V54.6566H110.479H92.2314H91.9814V54.9066V68.126V68.3265L92.1772 68.37L101.301 70.3976Z" fill="black" stroke="white" stroke-width="0.5"/>
<mask id="path-9-inside-1_4054_79837" fill="white">
<path d="M153.056 56.9747L128.644 19.1399C128.563 19.0182 128.482 18.9371 128.401 18.856C117.047 7.50186 107.761 5.63663 103.584 5.47424L98.799 0.689369C98.4745 0.364964 96.5687 0 96.4065 0H57.2332C57.1521 0 55.4895 0.283852 55.1651 0.648809L50.3395 5.47447C46.1222 5.67722 36.9173 7.5831 25.6443 18.8563C25.5632 18.9374 25.4821 19.059 25.401 19.1401L0.989454 56.975C0.705601 57.3805 0.624496 57.9076 0.74615 58.3537C0.8678 58.8403 1.1922 59.2458 1.59772 59.4486L26.6985 73.2359C27.104 73.4792 27.5906 73.5198 28.0367 73.3981C28.4828 73.2765 28.8477 72.9521 29.091 72.5466L31.8079 67.4777V148.256C31.8079 149.23 32.5783 150 33.5516 150H120.329C121.302 150 122.073 149.23 122.073 148.256V67.4777L124.789 72.5466C124.992 72.9521 125.398 73.2765 125.844 73.3981C126.29 73.5198 126.776 73.4792 127.182 73.2359L152.283 59.4486C152.729 59.2053 153.013 58.7997 153.134 58.3537C153.418 57.9077 153.337 57.3805 153.053 56.975L153.056 56.9747ZM103.016 9.85635L85.0925 27.7798L79.6992 22.3865L97.6227 4.46307L103.016 9.85635ZM77.0636 20.0345L65.2634 8.23432H88.9045L77.0636 20.0345ZM93.527 3.57105L91.2562 5.84189H62.9518L60.6809 3.57105H93.527ZM56.4637 4.42263L74.3871 22.3461L68.9939 27.7394L51.0704 9.8159L56.4637 4.42263ZM70.9403 146.471H35.4181V60.3834C35.4181 59.5724 34.8505 58.883 34.08 58.6802C33.3095 58.4775 32.4985 58.8424 32.093 59.5723L26.9025 69.3449L5.00537 57.3419L26.5785 23.8878L31.1201 44.3657C31.3229 45.1767 32.0122 45.7444 32.8233 45.7444C32.9449 45.7444 33.0666 45.7444 33.1882 45.7039C34.1209 45.5011 34.7291 44.5685 34.5264 43.5953L29.3359 20.1977C36.5133 13.3448 42.6769 10.6684 46.7726 9.65437V10.0193V10.0599C46.7726 10.1815 46.8132 10.2626 46.8537 10.3843V10.4248C46.8943 10.5059 46.9348 10.6276 46.9753 10.7087C46.9753 10.7492 47.0159 10.7492 47.0159 10.7898C47.097 10.9114 47.1781 10.9925 47.2592 11.0736L67.6563 31.4707C67.9807 31.7951 68.4673 31.9979 68.9133 31.9979C69.3594 31.9979 69.8054 31.8357 70.1704 31.4707L70.9003 30.7408V146.474L70.9403 146.471ZM79.9832 146.471H74.4683V27.2125L77.023 24.6578L79.9832 27.618V146.471ZM127.183 69.3036L121.993 59.531C121.628 58.8011 120.817 58.4362 120.006 58.6389C119.235 58.8417 118.668 59.531 118.668 60.3421V146.43H83.4694V31.1456L83.8344 31.5106C84.1588 31.835 84.6048 32.0378 85.0914 32.0378C85.578 32.0378 86.0241 31.835 86.3485 31.5106L106.746 11.1135C106.827 11.0324 106.908 10.9108 106.989 10.7891C106.989 10.7486 107.029 10.7486 107.029 10.708C107.07 10.6269 107.111 10.5458 107.151 10.4242C107.151 10.3836 107.151 10.3836 107.192 10.3431C107.232 10.2214 107.232 10.1403 107.273 10.0186V9.9781V9.61314C111.368 10.6269 117.532 13.3032 124.75 20.1969L119.56 43.5944C119.357 44.5271 119.965 45.5003 120.898 45.7031C121.02 45.7436 121.141 45.7436 121.263 45.7436C122.074 45.7436 122.804 45.1759 122.966 44.3649L127.508 23.887L149.081 57.3411L127.183 69.3036Z"/>
</mask>
<path d="M153.056 56.9747L128.644 19.1399C128.563 19.0182 128.482 18.9371 128.401 18.856C117.047 7.50186 107.761 5.63663 103.584 5.47424L98.799 0.689369C98.4745 0.364964 96.5687 0 96.4065 0H57.2332C57.1521 0 55.4895 0.283852 55.1651 0.648809L50.3395 5.47447C46.1222 5.67722 36.9173 7.5831 25.6443 18.8563C25.5632 18.9374 25.4821 19.059 25.401 19.1401L0.989454 56.975C0.705601 57.3805 0.624496 57.9076 0.74615 58.3537C0.8678 58.8403 1.1922 59.2458 1.59772 59.4486L26.6985 73.2359C27.104 73.4792 27.5906 73.5198 28.0367 73.3981C28.4828 73.2765 28.8477 72.9521 29.091 72.5466L31.8079 67.4777V148.256C31.8079 149.23 32.5783 150 33.5516 150H120.329C121.302 150 122.073 149.23 122.073 148.256V67.4777L124.789 72.5466C124.992 72.9521 125.398 73.2765 125.844 73.3981C126.29 73.5198 126.776 73.4792 127.182 73.2359L152.283 59.4486C152.729 59.2053 153.013 58.7997 153.134 58.3537C153.418 57.9077 153.337 57.3805 153.053 56.975L153.056 56.9747ZM103.016 9.85635L85.0925 27.7798L79.6992 22.3865L97.6227 4.46307L103.016 9.85635ZM77.0636 20.0345L65.2634 8.23432H88.9045L77.0636 20.0345ZM93.527 3.57105L91.2562 5.84189H62.9518L60.6809 3.57105H93.527ZM56.4637 4.42263L74.3871 22.3461L68.9939 27.7394L51.0704 9.8159L56.4637 4.42263ZM70.9403 146.471H35.4181V60.3834C35.4181 59.5724 34.8505 58.883 34.08 58.6802C33.3095 58.4775 32.4985 58.8424 32.093 59.5723L26.9025 69.3449L5.00537 57.3419L26.5785 23.8878L31.1201 44.3657C31.3229 45.1767 32.0122 45.7444 32.8233 45.7444C32.9449 45.7444 33.0666 45.7444 33.1882 45.7039C34.1209 45.5011 34.7291 44.5685 34.5264 43.5953L29.3359 20.1977C36.5133 13.3448 42.6769 10.6684 46.7726 9.65437V10.0193V10.0599C46.7726 10.1815 46.8132 10.2626 46.8537 10.3843V10.4248C46.8943 10.5059 46.9348 10.6276 46.9753 10.7087C46.9753 10.7492 47.0159 10.7492 47.0159 10.7898C47.097 10.9114 47.1781 10.9925 47.2592 11.0736L67.6563 31.4707C67.9807 31.7951 68.4673 31.9979 68.9133 31.9979C69.3594 31.9979 69.8054 31.8357 70.1704 31.4707L70.9003 30.7408V146.474L70.9403 146.471ZM79.9832 146.471H74.4683V27.2125L77.023 24.6578L79.9832 27.618V146.471ZM127.183 69.3036L121.993 59.531C121.628 58.8011 120.817 58.4362 120.006 58.6389C119.235 58.8417 118.668 59.531 118.668 60.3421V146.43H83.4694V31.1456L83.8344 31.5106C84.1588 31.835 84.6048 32.0378 85.0914 32.0378C85.578 32.0378 86.0241 31.835 86.3485 31.5106L106.746 11.1135C106.827 11.0324 106.908 10.9108 106.989 10.7891C106.989 10.7486 107.029 10.7486 107.029 10.708C107.07 10.6269 107.111 10.5458 107.151 10.4242C107.151 10.3836 107.151 10.3836 107.192 10.3431C107.232 10.2214 107.232 10.1403 107.273 10.0186V9.9781V9.61314C111.368 10.6269 117.532 13.3032 124.75 20.1969L119.56 43.5944C119.357 44.5271 119.965 45.5003 120.898 45.7031C121.02 45.7436 121.141 45.7436 121.263 45.7436C122.074 45.7436 122.804 45.1759 122.966 44.3649L127.508 23.887L149.081 57.3411L127.183 69.3036Z" fill="black" stroke="white" mask="url(#path-9-inside-1_4054_79837)"/>
</g>
<defs>
<filter id="filter0_d_4054_79837" x="0.691406" y="0" width="154.619" height="152" filterUnits="userSpaceOnUse" color-interpolation-filters="sRGB">
<feFlood flood-opacity="0" result="BackgroundImageFix"/>
<feColorMatrix in="SourceAlpha" type="matrix" values="0 0 0 0 0 0 0 0 0 0 0 0 0 0 0 0 0 0 127 0" result="hardAlpha"/>
<feOffset dx="2" dy="2"/>
<feComposite in2="hardAlpha" operator="out"/>
<feColorMatrix type="matrix" values="0 0 0 0 0.8 0 0 0 0 1 0 0 0 0 0 0 0 0 1 0"/>
<feBlend mode="normal" in2="BackgroundImageFix" result="effect1_dropShadow_4054_79837"/>
<feBlend mode="normal" in="SourceGraphic" in2="effect1_dropShadow_4054_79837" result="shape"/>
</filter>
</defs>
</svg>
