<svg width="13" height="12" viewBox="0 0 13 12" fill="none" xmlns="http://www.w3.org/2000/svg">
<g clip-path="url(#clip0_5472_13126)">
<path fill-rule="evenodd" clip-rule="evenodd" d="M2.21771 1.332C2.04197 1.15626 1.75705 1.15626 1.58131 1.332C1.40558 1.50773 1.40558 1.79266 1.58131 1.96839L10.2813 10.6684C10.457 10.8441 10.742 10.8441 10.9177 10.6684C11.0934 10.4927 11.0934 10.2077 10.9177 10.032L9.8706 8.98489C10.7533 8.31582 11.4452 7.40808 11.8501 6.35775C11.9384 6.12882 11.9385 5.87496 11.8503 5.64597C10.9847 3.3965 8.8031 1.8002 6.24867 1.8002C5.21876 1.8002 4.24945 2.05969 3.40257 2.51686L2.21771 1.332ZM4.90067 4.01496L5.55571 4.67C5.76322 4.56153 5.99926 4.5002 6.24962 4.5002C7.07805 4.5002 7.74962 5.17177 7.74962 6.0002C7.74962 6.25056 7.68828 6.4866 7.57981 6.6941L8.23497 7.34926C8.49673 6.96481 8.64973 6.50037 8.64973 6.0002C8.64973 4.67471 7.57522 3.6002 6.24973 3.6002C5.74956 3.6002 5.28512 3.7532 4.90067 4.01496Z" fill="#DC5E03"/>
<path d="M6.69855 8.3583L8.21217 9.87192C7.59725 10.0846 6.93699 10.2002 6.24973 10.2002C3.6953 10.2002 1.5137 8.60389 0.648065 6.35442C0.559947 6.12543 0.560023 5.87158 0.648278 5.64264C0.943132 4.87779 1.39016 4.18854 1.95226 3.61201L3.89163 5.55138C3.86413 5.69678 3.84974 5.8468 3.84974 6.0002C3.84974 7.32568 4.92425 8.4002 6.24973 8.4002C6.40312 8.4002 6.55315 8.38581 6.69855 8.3583Z" fill="#DC5E03"/>
</g>
<defs>
<clipPath id="clip0_5472_13126">
<rect width="12" height="12" fill="white" transform="translate(0.25)"/>
</clipPath>
</defs>
</svg>
