<svg width="13" height="11" viewBox="0 0 13 11" fill="none" xmlns="http://www.w3.org/2000/svg">
<path d="M1.25 0.25C0.835786 0.25 0.5 0.585787 0.5 1V10C0.5 10.4142 0.835786 10.75 1.25 10.75C1.66421 10.75 2 10.4142 2 10V1C2 0.585786 1.66421 0.25 1.25 0.25Z" fill="black" fill-opacity="0.3"/>
<path d="M8.96967 7.21967C8.67678 7.51256 8.67678 7.98744 8.96967 8.28033C9.26256 8.57322 9.73744 8.57322 10.0303 8.28033L12.2803 6.03033C12.421 5.88968 12.5 5.69891 12.5 5.5C12.5 5.30109 12.421 5.11032 12.2803 4.96967L10.0303 2.71967C9.73744 2.42678 9.26256 2.42678 8.96967 2.71967C8.67678 3.01256 8.67678 3.48744 8.96967 3.78033L9.93934 4.75L4.25 4.75C3.83579 4.75 3.5 5.08579 3.5 5.5C3.5 5.91421 3.83579 6.25 4.25 6.25H9.93934L8.96967 7.21967Z" fill="black" fill-opacity="0.3"/>
</svg>
