<svg width="24" height="25" viewBox="0 0 24 25" fill="none" xmlns="http://www.w3.org/2000/svg">
<g clip-path="url(#clip0_5144_25239)">
<path d="M4.26562 1.09277H19.7438C22.0594 1.09277 24.0094 2.91176 24.0094 5.25176V19.7579C24.0094 22.0157 22.1438 23.9169 19.7438 23.9169H4.26562C1.94063 23.9078 0 22.0888 0 19.7579V5.24262C0 2.91176 1.86562 1.09277 4.26562 1.09277Z" fill="#B30B00"/>
<path d="M19.1433 14.2825C18.0183 13.1125 14.9527 13.6244 14.2121 13.6975C13.1621 12.6738 12.4215 11.5129 12.1215 11.0741C12.4965 9.97727 12.7965 8.74328 12.7965 7.57328C12.7965 6.47641 12.3465 5.38867 11.1558 5.38867C10.7058 5.38867 10.3308 5.60805 10.1058 5.97367C9.58083 6.85117 9.80583 8.59703 10.6308 10.416C10.1808 11.7323 9.43083 13.6975 8.54021 15.224C7.34021 15.6627 4.72458 16.8236 4.49958 18.1398C4.42458 18.5055 4.57458 18.9442 4.87458 19.1636C5.17458 19.4561 5.54958 19.5292 5.92458 19.5292C7.49021 19.5292 9.06521 17.4177 10.1902 15.5165C11.0902 15.224 12.5058 14.7852 13.9308 14.5659C15.5715 16.0284 17.0715 16.2386 17.8215 16.2386C18.8715 16.2386 19.2465 15.7998 19.3871 15.4342C19.584 15.0869 19.4433 14.575 19.1433 14.2825ZM18.0933 15.0138C18.0183 15.3063 17.6433 15.5988 16.9683 15.4525C16.1433 15.2331 15.4027 14.8675 14.8027 14.3556C15.3277 14.2825 16.5933 14.1363 17.4933 14.2825C17.7933 14.3556 18.1683 14.575 18.0933 15.0138ZM10.8371 6.26617C10.9121 6.11992 11.0621 6.0468 11.2121 6.0468C11.5871 6.0468 11.6621 6.48555 11.6621 6.85117C11.5871 7.72867 11.4371 8.67016 11.1371 9.47453C10.5371 7.87492 10.6121 6.70492 10.8371 6.26617ZM10.7621 14.5019C11.1371 13.8438 11.5871 12.6098 11.7371 12.171C12.1121 12.8291 12.7871 13.5604 13.0871 13.9169C13.1621 13.8529 11.8121 14.1362 10.7621 14.5019ZM8.22146 16.1838C7.18083 17.7834 6.20583 18.8071 5.60583 18.8071C5.53083 18.8071 5.38083 18.8071 5.30583 18.734C5.23083 18.5877 5.15583 18.4415 5.23083 18.2952C5.30583 17.7102 6.50583 16.9059 8.22146 16.1838Z" fill="white"/>
</g>
<defs>
<clipPath id="clip0_5144_25239">
<rect width="24" height="23.4" fill="white" transform="translate(0 0.799805)"/>
</clipPath>
</defs>
</svg>
