<svg width="115" height="120" viewBox="0 0 115 120" fill="none" xmlns="http://www.w3.org/2000/svg">
<g filter="url(#filter0_d_4771_130549)">
<path d="M13.8457 110.683H20.0264C21.0363 110.683 21.8551 109.865 21.8551 108.854C21.8551 107.843 21.0363 107.025 20.0264 107.025H15.5005L14.4923 96.9373C14.3919 95.934 13.5045 95.2156 12.4906 95.2997C11.4856 95.4001 10.7525 96.2964 10.853 97.3014L12.0261 109.036C12.12 109.97 12.9069 110.682 13.8458 110.682L13.8457 110.683Z" fill="black"/>
<path d="M15.3874 107.15L15.3761 107.038L14.3679 96.9497C14.2746 96.0169 13.4498 95.3461 12.502 95.4241C11.5663 95.5182 10.8838 96.353 10.9773 97.2889L15.3874 107.15ZM15.3874 107.15H15.5005H20.0264C20.9673 107.15 21.7301 107.912 21.7301 108.854C21.7301 109.795 20.9673 110.558 20.0264 110.558H13.9863L13.9863 110.557H13.8458C12.9712 110.557 12.238 109.893 12.1505 109.023C12.1505 109.023 12.1505 109.023 12.1504 109.023L10.9773 97.289L15.3874 107.15Z" stroke="white" stroke-width="0.25"/>
</g>
<g filter="url(#filter1_d_4771_130549)">
<path d="M75.8438 72.2821H97.7063C100.537 72.2821 102.938 70.0731 103.173 67.2517L103.631 61.7657C103.757 60.2407 103.237 58.7207 102.201 57.5957C101.165 56.4708 99.6941 55.8242 98.1635 55.8242H76.3762C73.5377 55.8242 71.1899 57.9549 70.9164 60.7796L70.3833 66.2639C70.2331 67.802 70.7425 69.3375 71.7801 70.4822C72.8169 71.6267 74.2969 72.2823 75.8424 72.2823L75.8438 72.2821ZM74.5564 61.1337C74.6486 60.1925 75.4307 59.4814 76.3769 59.4814H98.1641C98.6817 59.4814 99.1592 59.6904 99.5095 60.0725C99.8605 60.4529 100.029 60.946 99.9862 61.4619L99.5291 66.9479C99.4507 67.8892 98.6507 68.6247 97.7069 68.6247H75.8444C75.322 68.6247 74.8411 68.4125 74.4901 68.0247C74.1399 67.6369 73.975 67.1389 74.0247 66.6197L74.5564 61.1337Z" fill="black"/>
<path d="M75.8438 72.1571V72.1564L75.8357 72.1573C74.3279 72.1554 72.8843 71.5149 71.8727 70.3982L71.8727 70.3982C70.8587 69.2796 70.3609 67.7789 70.5077 66.2761L70.5077 66.276L71.0408 60.7917L71.0408 60.7916C71.3081 58.031 73.6021 55.9492 76.3762 55.9492H98.1635C99.6591 55.9492 101.097 56.5811 102.109 57.6804C103.121 58.7796 103.63 60.2651 103.506 61.7554L103.049 67.2413C102.819 69.9979 100.472 72.1571 97.7063 72.1571H75.8438ZM74.432 61.1216L74.432 61.1217L73.9003 66.6077L73.9003 66.6078C73.8472 67.162 74.0236 67.6947 74.3973 68.1085L74.3974 68.1086C74.7723 68.5227 75.2868 68.7497 75.8444 68.7497H97.7069C98.7156 68.7497 99.5699 67.9644 99.6536 66.9583L100.111 61.4723L100.111 61.4722C100.156 60.9217 99.9763 60.3942 99.6015 59.9879C99.2275 59.58 98.7165 59.3564 98.1641 59.3564H76.3769C75.3662 59.3564 74.5305 60.1164 74.432 61.1216Z" stroke="white" stroke-width="0.25"/>
</g>
<g filter="url(#filter2_d_4771_130549)">
<path d="M7.22567 117.999H105.974C106.925 117.999 107.716 117.27 107.796 116.322L112.622 58.4127C112.834 55.8714 111.965 53.3391 110.239 51.4621C109.084 50.2074 107.591 49.3503 105.974 48.8938V44.8528C105.974 39.8117 101.871 35.7095 96.8304 35.7095H95.0017V6.45084C95.0017 3.42529 92.5413 0.964844 89.5157 0.964844H23.6838C20.6583 0.964844 18.1978 3.42529 18.1978 6.45084V22.9088H16.3692C11.3281 22.9088 7.22583 27.0111 7.22583 32.0521V59.9085C5.63717 60.3828 4.17353 61.2408 3.04268 62.4914C1.31362 64.4025 0.467924 66.97 0.724982 69.5366L5.40595 116.353C5.49983 117.286 6.28598 117.999 7.22562 117.999L7.22567 117.999ZM95.0016 39.366H96.8302C99.8558 39.366 102.316 41.8265 102.316 44.852V48.5094H95.0016V39.366ZM21.855 6.45009C21.855 5.44106 22.6754 4.62142 23.6836 4.62142H89.5156C90.5238 4.62142 91.3442 5.44106 91.3442 6.45009V48.5094H72.1056C69.9259 48.5094 67.8124 49.2915 66.1551 50.7111L57.464 58.1597C56.4688 59.012 55.2019 59.4814 53.8932 59.4814H21.855V6.45009ZM10.883 32.0514C10.883 29.0258 13.3434 26.5654 16.369 26.5654H18.1977V59.4814H10.883V32.0514ZM5.75375 64.9444C6.80769 63.7802 8.25181 63.1394 9.82174 63.1394H53.8936C56.0734 63.1394 58.1869 62.3573 59.8442 60.9377L68.5352 53.489C69.5304 52.6368 70.7974 52.1673 72.1061 52.1673H103.511C105.064 52.1673 106.497 52.7959 107.549 53.9389C108.599 55.0818 109.106 56.5627 108.978 58.1089L104.292 114.342H8.88187L4.36496 69.1707C4.20904 67.6082 4.70295 66.1069 5.75523 64.9435L5.75375 64.9444Z" fill="black"/>
<path d="M7.22567 117.874H7.18297C6.3266 117.852 5.61637 117.196 5.53032 116.34L0.849362 69.5242L0.724982 69.5366L0.84936 69.5242C0.595823 66.9927 1.43 64.4602 3.13538 62.5752L3.1354 62.5752C4.24915 61.3435 5.69219 60.4968 7.26159 60.0282L7.35083 60.0016V59.9085V32.0521C7.35083 27.0801 11.3971 23.0338 16.3692 23.0338H18.1978H18.3228V22.9088V6.45084C18.3228 3.49432 20.7273 1.08984 23.6838 1.08984H89.5157C92.4723 1.08984 94.8767 3.49432 94.8767 6.45084V35.7095V35.8345H95.0017H96.8304C101.802 35.8345 105.849 39.8808 105.849 44.8528V48.8938V48.9884L105.94 49.0141C107.537 49.465 109.009 50.3108 110.147 51.5468C111.849 53.398 112.706 55.8959 112.498 58.4023L107.671 116.311C107.597 117.194 106.86 117.874 105.974 117.874H7.22567ZM95.0016 39.241H94.8766V39.366V48.5094V48.6344H95.0016H102.316H102.441V48.5094V44.852C102.441 41.7575 99.9248 39.241 96.8302 39.241H95.0016ZM91.3442 48.6344H91.4692V48.5094V6.45009C91.4692 5.37199 90.5928 4.49642 89.5156 4.49642H23.6836C22.6064 4.49642 21.73 5.37199 21.73 6.45009V59.4814V59.6064H21.855H53.8932C55.2318 59.6064 56.5276 59.1263 57.5453 58.2546L57.5453 58.2546L66.2364 50.806C67.8711 49.4058 69.9557 48.6344 72.1056 48.6344H91.3442ZM18.3227 26.5654V26.4404H18.1977H16.369C13.2744 26.4404 10.758 28.9568 10.758 32.0514V59.4814V59.6064H10.883H18.1977H18.3227V59.4814V26.5654ZM5.66108 64.8605L5.6614 64.8609C4.5862 66.0503 4.08121 67.586 4.24058 69.1831L4.36496 69.1707L4.24059 69.1831L8.75749 114.354L8.76875 114.467H8.88187H104.292H104.407L104.417 114.352L109.103 58.1192L108.978 58.1089L109.103 58.1192C109.234 56.5383 108.715 55.0229 107.641 53.8543L107.549 53.9389L107.641 53.8542C106.566 52.6856 105.099 52.0423 103.511 52.0423H72.1061C70.7675 52.0423 69.4717 52.5225 68.4539 53.3941L68.5352 53.489L68.4539 53.3941L59.7629 60.8427C59.7629 60.8427 59.7628 60.8427 59.7628 60.8427C58.1282 62.243 56.0435 63.0144 53.8936 63.0144H9.82174C8.21648 63.0144 6.7387 63.6702 5.66108 64.8605Z" stroke="white" stroke-width="0.25"/>
</g>
<g filter="url(#filter3_d_4771_130549)">
<path d="M27.4185 110.685H30.9787C31.9885 110.685 32.8073 109.867 32.8073 108.856C32.8073 107.845 31.9885 107.027 30.9787 107.027H27.4185C26.4087 107.027 25.5898 107.845 25.5898 108.856C25.5898 109.867 26.4087 110.685 27.4185 110.685Z" fill="black"/>
<path d="M30.9787 110.56H27.4185C26.4777 110.56 25.7148 109.798 25.7148 108.856C25.7148 107.914 26.4777 107.152 27.4185 107.152H30.9787C31.9195 107.152 32.6823 107.914 32.6823 108.856C32.6823 109.798 31.9195 110.56 30.9787 110.56Z" stroke="white" stroke-width="0.25"/>
</g>
<g filter="url(#filter4_d_4771_130549)">
<path d="M30.9986 13.7648H84.0299C85.0397 13.7648 85.8585 12.9467 85.8585 11.9361C85.8585 10.9254 85.0397 10.1074 84.0299 10.1074H30.9986C29.9887 10.1074 29.1699 10.9254 29.1699 11.9361C29.1699 12.9467 29.9887 13.7648 30.9986 13.7648Z" fill="black"/>
<path d="M84.0299 13.6398H30.9986C30.0577 13.6398 29.2949 12.8777 29.2949 11.9361C29.2949 10.9945 30.0577 10.2324 30.9986 10.2324H84.0299C84.9707 10.2324 85.7335 10.9945 85.7335 11.9361C85.7335 12.8777 84.9707 13.6398 84.0299 13.6398Z" stroke="white" stroke-width="0.25"/>
</g>
<g filter="url(#filter5_d_4771_130549)">
<path d="M84.0287 17.4219H54.7701C53.7602 17.4219 52.9414 18.2399 52.9414 19.2505C52.9414 20.2612 53.7602 21.0792 54.7701 21.0792H84.0287C85.0385 21.0792 85.8574 20.2612 85.8574 19.2505C85.8574 18.2399 85.0385 17.4219 84.0287 17.4219Z" fill="black"/>
<path d="M54.7701 17.5469H84.0287C84.9695 17.5469 85.7324 18.309 85.7324 19.2505C85.7324 20.1921 84.9695 20.9542 84.0287 20.9542H54.7701C53.8292 20.9542 53.0664 20.1921 53.0664 19.2505C53.0664 18.309 53.8292 17.5469 54.7701 17.5469Z" stroke="white" stroke-width="0.25"/>
</g>
<g filter="url(#filter6_d_4771_130549)">
<path d="M30.9986 21.0792H43.7992C44.8091 21.0792 45.6279 20.2612 45.6279 19.2505C45.6279 18.2399 44.8091 17.4219 43.7992 17.4219H30.9986C29.9887 17.4219 29.1699 18.2399 29.1699 19.2505C29.1699 20.2612 29.9887 21.0792 30.9986 21.0792Z" fill="black"/>
<path d="M43.7992 20.9542H30.9986C30.0577 20.9542 29.2949 20.1921 29.2949 19.2505C29.2949 18.309 30.0577 17.5469 30.9986 17.5469H43.7992C44.7401 17.5469 45.5029 18.309 45.5029 19.2505C45.5029 20.1921 44.7401 20.9542 43.7992 20.9542Z" stroke="white" stroke-width="0.25"/>
</g>
<g filter="url(#filter7_d_4771_130549)">
<path d="M84.0295 24.7383H78.5435C77.5337 24.7383 76.7148 25.5563 76.7148 26.5669C76.7148 27.5776 77.5337 28.3956 78.5435 28.3956H84.0295C85.0393 28.3956 85.8582 27.5776 85.8582 26.5669C85.8582 25.5563 85.0393 24.7383 84.0295 24.7383Z" fill="black"/>
<path d="M78.5435 24.8633H84.0295C84.9703 24.8633 85.7332 25.6254 85.7332 26.5669C85.7332 27.5085 84.9703 28.2706 84.0295 28.2706H78.5435C77.6027 28.2706 76.8398 27.5085 76.8398 26.5669C76.8398 25.6254 77.6027 24.8633 78.5435 24.8633Z" stroke="white" stroke-width="0.25"/>
</g>
<g filter="url(#filter8_d_4771_130549)">
<path d="M73.0579 26.5669C73.0579 25.5563 72.239 24.7383 71.2292 24.7383H30.9986C29.9887 24.7383 29.1699 25.5563 29.1699 26.5669C29.1699 27.5776 29.9887 28.3956 30.9986 28.3956H71.2292C72.239 28.3956 73.0579 27.5776 73.0579 26.5669Z" fill="black"/>
<path d="M71.2292 24.8633C72.17 24.8633 72.9329 25.6254 72.9329 26.5669C72.9329 27.5085 72.17 28.2706 71.2292 28.2706H30.9986C30.0577 28.2706 29.2949 27.5085 29.2949 26.5669C29.2949 25.6254 30.0577 24.8633 30.9986 24.8633H71.2292Z" stroke="white" stroke-width="0.25"/>
</g>
<defs>
<filter id="filter0_d_4771_130549" x="10.8438" y="95.293" width="13.0117" height="17.3887" filterUnits="userSpaceOnUse" color-interpolation-filters="sRGB">
<feFlood flood-opacity="0" result="BackgroundImageFix"/>
<feColorMatrix in="SourceAlpha" type="matrix" values="0 0 0 0 0 0 0 0 0 0 0 0 0 0 0 0 0 0 127 0" result="hardAlpha"/>
<feOffset dx="2" dy="2"/>
<feComposite in2="hardAlpha" operator="out"/>
<feColorMatrix type="matrix" values="0 0 0 0 0.8 0 0 0 0 1 0 0 0 0 0 0 0 0 1 0"/>
<feBlend mode="normal" in2="BackgroundImageFix" result="effect1_dropShadow_4771_130549"/>
<feBlend mode="normal" in="SourceGraphic" in2="effect1_dropShadow_4771_130549" result="shape"/>
</filter>
<filter id="filter1_d_4771_130549" x="70.3574" y="55.8242" width="35.291" height="18.459" filterUnits="userSpaceOnUse" color-interpolation-filters="sRGB">
<feFlood flood-opacity="0" result="BackgroundImageFix"/>
<feColorMatrix in="SourceAlpha" type="matrix" values="0 0 0 0 0 0 0 0 0 0 0 0 0 0 0 0 0 0 127 0" result="hardAlpha"/>
<feOffset dx="2" dy="2"/>
<feComposite in2="hardAlpha" operator="out"/>
<feColorMatrix type="matrix" values="0 0 0 0 0.8 0 0 0 0 1 0 0 0 0 0 0 0 0 1 0"/>
<feBlend mode="normal" in2="BackgroundImageFix" result="effect1_dropShadow_4771_130549"/>
<feBlend mode="normal" in="SourceGraphic" in2="effect1_dropShadow_4771_130549" result="shape"/>
</filter>
<filter id="filter2_d_4771_130549" x="0.679688" y="0.964844" width="113.975" height="119.035" filterUnits="userSpaceOnUse" color-interpolation-filters="sRGB">
<feFlood flood-opacity="0" result="BackgroundImageFix"/>
<feColorMatrix in="SourceAlpha" type="matrix" values="0 0 0 0 0 0 0 0 0 0 0 0 0 0 0 0 0 0 127 0" result="hardAlpha"/>
<feOffset dx="2" dy="2"/>
<feComposite in2="hardAlpha" operator="out"/>
<feColorMatrix type="matrix" values="0 0 0 0 0.8 0 0 0 0 1 0 0 0 0 0 0 0 0 1 0"/>
<feBlend mode="normal" in2="BackgroundImageFix" result="effect1_dropShadow_4771_130549"/>
<feBlend mode="normal" in="SourceGraphic" in2="effect1_dropShadow_4771_130549" result="shape"/>
</filter>
<filter id="filter3_d_4771_130549" x="25.5898" y="107.027" width="9.2168" height="5.6582" filterUnits="userSpaceOnUse" color-interpolation-filters="sRGB">
<feFlood flood-opacity="0" result="BackgroundImageFix"/>
<feColorMatrix in="SourceAlpha" type="matrix" values="0 0 0 0 0 0 0 0 0 0 0 0 0 0 0 0 0 0 127 0" result="hardAlpha"/>
<feOffset dx="2" dy="2"/>
<feComposite in2="hardAlpha" operator="out"/>
<feColorMatrix type="matrix" values="0 0 0 0 0.8 0 0 0 0 1 0 0 0 0 0 0 0 0 1 0"/>
<feBlend mode="normal" in2="BackgroundImageFix" result="effect1_dropShadow_4771_130549"/>
<feBlend mode="normal" in="SourceGraphic" in2="effect1_dropShadow_4771_130549" result="shape"/>
</filter>
<filter id="filter4_d_4771_130549" x="29.1699" y="10.1074" width="58.6895" height="5.6582" filterUnits="userSpaceOnUse" color-interpolation-filters="sRGB">
<feFlood flood-opacity="0" result="BackgroundImageFix"/>
<feColorMatrix in="SourceAlpha" type="matrix" values="0 0 0 0 0 0 0 0 0 0 0 0 0 0 0 0 0 0 127 0" result="hardAlpha"/>
<feOffset dx="2" dy="2"/>
<feComposite in2="hardAlpha" operator="out"/>
<feColorMatrix type="matrix" values="0 0 0 0 0.8 0 0 0 0 1 0 0 0 0 0 0 0 0 1 0"/>
<feBlend mode="normal" in2="BackgroundImageFix" result="effect1_dropShadow_4771_130549"/>
<feBlend mode="normal" in="SourceGraphic" in2="effect1_dropShadow_4771_130549" result="shape"/>
</filter>
<filter id="filter5_d_4771_130549" x="52.9414" y="17.4219" width="34.916" height="5.6582" filterUnits="userSpaceOnUse" color-interpolation-filters="sRGB">
<feFlood flood-opacity="0" result="BackgroundImageFix"/>
<feColorMatrix in="SourceAlpha" type="matrix" values="0 0 0 0 0 0 0 0 0 0 0 0 0 0 0 0 0 0 127 0" result="hardAlpha"/>
<feOffset dx="2" dy="2"/>
<feComposite in2="hardAlpha" operator="out"/>
<feColorMatrix type="matrix" values="0 0 0 0 0.8 0 0 0 0 1 0 0 0 0 0 0 0 0 1 0"/>
<feBlend mode="normal" in2="BackgroundImageFix" result="effect1_dropShadow_4771_130549"/>
<feBlend mode="normal" in="SourceGraphic" in2="effect1_dropShadow_4771_130549" result="shape"/>
</filter>
<filter id="filter6_d_4771_130549" x="29.1699" y="17.4219" width="18.457" height="5.6582" filterUnits="userSpaceOnUse" color-interpolation-filters="sRGB">
<feFlood flood-opacity="0" result="BackgroundImageFix"/>
<feColorMatrix in="SourceAlpha" type="matrix" values="0 0 0 0 0 0 0 0 0 0 0 0 0 0 0 0 0 0 127 0" result="hardAlpha"/>
<feOffset dx="2" dy="2"/>
<feComposite in2="hardAlpha" operator="out"/>
<feColorMatrix type="matrix" values="0 0 0 0 0.8 0 0 0 0 1 0 0 0 0 0 0 0 0 1 0"/>
<feBlend mode="normal" in2="BackgroundImageFix" result="effect1_dropShadow_4771_130549"/>
<feBlend mode="normal" in="SourceGraphic" in2="effect1_dropShadow_4771_130549" result="shape"/>
</filter>
<filter id="filter7_d_4771_130549" x="76.7148" y="24.7383" width="11.1426" height="5.6582" filterUnits="userSpaceOnUse" color-interpolation-filters="sRGB">
<feFlood flood-opacity="0" result="BackgroundImageFix"/>
<feColorMatrix in="SourceAlpha" type="matrix" values="0 0 0 0 0 0 0 0 0 0 0 0 0 0 0 0 0 0 127 0" result="hardAlpha"/>
<feOffset dx="2" dy="2"/>
<feComposite in2="hardAlpha" operator="out"/>
<feColorMatrix type="matrix" values="0 0 0 0 0.8 0 0 0 0 1 0 0 0 0 0 0 0 0 1 0"/>
<feBlend mode="normal" in2="BackgroundImageFix" result="effect1_dropShadow_4771_130549"/>
<feBlend mode="normal" in="SourceGraphic" in2="effect1_dropShadow_4771_130549" result="shape"/>
</filter>
<filter id="filter8_d_4771_130549" x="29.1699" y="24.7383" width="45.8887" height="5.6582" filterUnits="userSpaceOnUse" color-interpolation-filters="sRGB">
<feFlood flood-opacity="0" result="BackgroundImageFix"/>
<feColorMatrix in="SourceAlpha" type="matrix" values="0 0 0 0 0 0 0 0 0 0 0 0 0 0 0 0 0 0 127 0" result="hardAlpha"/>
<feOffset dx="2" dy="2"/>
<feComposite in2="hardAlpha" operator="out"/>
<feColorMatrix type="matrix" values="0 0 0 0 0.8 0 0 0 0 1 0 0 0 0 0 0 0 0 1 0"/>
<feBlend mode="normal" in2="BackgroundImageFix" result="effect1_dropShadow_4771_130549"/>
<feBlend mode="normal" in="SourceGraphic" in2="effect1_dropShadow_4771_130549" result="shape"/>
</filter>
</defs>
</svg>
