<svg width="80" height="80" viewBox="0 0 80 80" fill="none" xmlns="http://www.w3.org/2000/svg">
<path d="M40 80C17.9082 80 0 62.0918 0 40C0 17.9082 17.9082 0 40 0C62.0918 0 80 17.9082 80 40C80 62.0918 62.0918 80 40 80ZM40 75.8622C59.8058 75.8622 75.8626 59.8056 75.8626 39.9996C75.8626 20.1937 59.806 4.13709 40 4.13709C20.194 4.13709 4.13744 20.1937 4.13744 39.9996C4.13744 59.8056 20.194 75.8622 40 75.8622ZM40 71.7244C22.4789 71.7244 8.27488 57.5209 8.27488 39.9993C8.27488 22.4782 22.4784 8.27417 40 8.27417C57.5211 8.27417 71.7251 22.4777 71.7251 39.9993C71.7251 57.5204 57.5216 71.7244 40 71.7244ZM40 67.5866C55.2356 67.5866 67.5859 55.2355 67.5859 40.0007C67.5859 24.7644 55.2348 12.413 40 12.413C24.7652 12.413 12.4141 24.7642 12.4141 39.9989C12.4141 55.2337 24.7652 67.5848 40 67.5848V67.5866ZM31.7237 35.8615C30.6264 35.8615 29.5734 35.4258 28.7975 34.6492C28.0216 33.8733 27.5852 32.8209 27.5852 31.723C27.5852 30.6257 28.0216 29.5727 28.7975 28.7968C29.5734 28.0209 30.6263 27.5852 31.7237 27.5852C33.202 27.5852 34.5681 28.3743 35.3073 29.6545C36.0458 30.9347 36.0458 32.512 35.3073 33.7923C34.5681 35.0725 33.202 35.8608 31.7237 35.8615ZM31.7237 52.4134C30.6264 52.4134 29.5734 51.9777 28.7975 51.2018C28.0216 50.4259 27.5852 49.373 27.5852 48.2756C27.5852 47.1776 28.0216 46.1253 28.7975 45.3494C29.5734 44.5728 30.6263 44.1371 31.7237 44.1371C33.202 44.1378 34.5681 44.9261 35.3073 46.2064C36.0458 47.4866 36.0458 49.0639 35.3073 50.3442C34.5681 51.6244 33.202 52.4134 31.7237 52.4134ZM48.2763 35.8615C47.1783 35.8615 46.126 35.4258 45.3494 34.6492C44.5735 33.8733 44.1371 32.8209 44.1371 31.723C44.1371 30.6257 44.5735 29.5727 45.3494 28.7968C46.126 28.0209 47.1782 27.5852 48.2763 27.5852C49.7546 27.5852 51.12 28.3743 51.8592 29.6545C52.5983 30.9347 52.5983 32.512 51.8592 33.7923C51.12 35.0725 49.7546 35.8608 48.2763 35.8615ZM48.2763 52.4134C47.1783 52.4134 46.126 51.9777 45.3494 51.2018C44.5735 50.4259 44.1371 49.373 44.1371 48.2756C44.1371 47.1776 44.5735 46.1253 45.3494 45.3494C46.126 44.5728 47.1782 44.1371 48.2763 44.1371C49.7546 44.1378 51.12 44.9261 51.8592 46.2064C52.5983 47.4866 52.5983 49.0639 51.8592 50.3442C51.12 51.6244 49.7546 52.4134 48.2763 52.4134Z" fill="black" fill-opacity="0.2"/>
</svg>
