<svg width="153" height="152" viewBox="0 0 153 152" fill="none" xmlns="http://www.w3.org/2000/svg">
<g filter="url(#filter0_d_4054_79350)">
<mask id="path-1-inside-1_4054_79350" fill="white">
<path d="M10.552 0C9.49833 0.0177874 8.57547 0.707305 8.29505 1.70759C7.2184 5.55912 4.65085 8.4094 1.57986 9.49422C-0.521164 10.2235 -0.521164 13.1971 1.57986 13.9254C4.64978 15.0146 7.2121 17.872 8.28568 21.7257C8.60063 22.8536 9.57579 23.4238 10.5332 23.4375V23.4416C10.5394 23.4416 10.5457 23.4375 10.552 23.4375C10.5583 23.4375 10.5646 23.4416 10.5708 23.4416V23.4375C11.5282 23.4197 12.5034 22.8536 12.8183 21.7257C13.8918 17.872 16.4553 15.0145 19.5241 13.9254C21.6252 13.1961 21.6252 10.2225 19.5241 9.49422C16.4532 8.40918 13.8855 5.55912 12.8089 1.70759C12.5285 0.706261 11.6056 0.0167411 10.552 0ZM139.456 0.00418528C138.402 0.0219726 137.479 0.711491 137.199 1.71178C136.121 5.56438 133.555 8.41358 130.484 9.49841C128.383 10.2277 128.383 13.2013 130.484 13.9296C133.554 15.0188 136.116 17.8762 137.19 21.7299C137.505 22.8578 138.48 23.428 139.437 23.4416V23.4458C139.443 23.4458 139.45 23.4416 139.456 23.4416C139.462 23.4416 139.468 23.4458 139.475 23.4458V23.4416C140.432 23.4239 141.407 22.8578 141.722 21.7299C142.796 17.8762 145.359 15.0187 148.428 13.9296C150.529 13.2003 150.529 10.2267 148.428 9.49841C145.356 8.41337 142.789 5.56411 141.712 1.71178C141.432 0.711491 140.51 0.0209264 139.456 0.00418528ZM10.552 7.97912C11.4487 9.38746 12.7901 10.8021 13.9578 11.7093C12.1686 13.1752 11.2645 14.3837 10.552 15.4636C9.83942 14.3838 8.9354 13.1753 7.14616 11.7093C8.31386 10.8022 9.65524 9.38751 10.552 7.97912ZM142.86 11.7144C141.071 13.1803 140.167 14.3877 139.455 15.4687C138.742 14.3889 137.838 13.1804 136.049 11.7144C137.216 10.8072 138.558 9.39156 139.455 7.98313C140.352 9.39148 141.694 10.8061 142.86 11.7144ZM65.6289 142.978C65.6289 146.833 68.7366 150 72.6548 150H77.3517C81.2702 150 84.3776 146.833 84.3776 142.978L84.3797 140.625C88.3003 140.625 91.4088 137.458 91.4088 133.603V131.25C94.5342 131.25 94.5342 126.562 91.4088 126.562V121.875C94.1198 121.875 94.4715 118.357 92.4802 117.421C92.5933 116.338 93.0107 115.198 93.6699 113.974C100.282 117.917 106.418 120.697 111.591 121.884C115.613 122.807 119.029 122.816 121.818 121.591C124.807 120.278 126.475 117.744 127.018 114.656C128.042 108.833 125.269 100.264 119.177 89.8311C117.619 87.0708 113.491 89.4774 115.126 92.1926C120.964 102.191 123.13 109.664 122.395 113.845C122.11 115.464 121.348 116.688 119.932 117.311C118.515 117.933 116.091 118.109 112.653 117.319C108.067 116.266 102.485 113.764 96.3487 110.132C97.9684 108.092 99.8686 105.905 101.924 103.389C107.061 97.103 112.494 89.0652 112.494 77.0766C112.494 72.8161 111.818 68.7449 110.599 64.932C116.076 58.044 120.626 51.3926 124.053 45.3031C129.559 35.519 132.363 26.9181 130.842 21.0421C130.032 17.9146 127.951 15.5993 124.786 14.6197C123.31 14.1635 121.709 14.0045 119.984 14.0892C118.26 14.1687 116.414 14.5025 114.45 15.0278C106.592 17.1277 96.6376 22.5361 85.3314 30.9307C82.8192 32.7901 85.6118 36.5579 88.1241 34.6984C99.1376 26.5215 108.821 21.3704 115.663 19.5414C119.083 18.6269 121.746 18.5882 123.394 19.0978C125.042 19.6073 125.885 20.638 126.305 22.2063C127.341 26.0776 125.35 33.4365 119.965 43.0071C117.04 48.2011 113.182 53.9233 108.584 59.8842C102.748 47.9876 90.7309 39.8514 75.0081 39.8482C59.2819 39.8513 47.2661 47.9887 41.4322 59.8893C36.8314 53.9241 32.9684 48.1997 30.0428 43.0017C24.6576 33.4311 22.6663 26.0723 23.7032 22.2009C24.1227 20.6335 24.9671 19.6019 26.614 19.0924C28.2619 18.5829 30.9249 18.6216 34.3452 19.5361C41.1871 21.365 50.8707 26.5151 61.8836 34.6931C64.3969 36.5534 67.1896 32.7856 64.6774 30.9265C53.3719 22.5318 43.4183 17.1235 35.5586 15.0235C33.5936 14.4982 31.7488 14.1686 30.0246 14.0849C28.3003 14.0054 26.6984 14.1561 25.223 14.6154C22.058 15.5937 19.9767 17.9103 19.167 21.0378C17.6446 26.9141 20.4488 35.5148 25.9556 45.2999C29.3834 51.3915 33.937 58.0462 39.4176 64.9371C38.2007 68.7479 37.5227 72.8201 37.5227 77.0774C37.5227 89.0662 42.9562 97.103 48.0926 103.389C50.1476 105.903 52.0489 108.088 53.6684 110.127C47.5285 113.761 41.9424 116.266 37.3542 117.319C33.9171 118.108 31.4927 117.932 30.076 117.31C28.6593 116.688 27.8976 115.464 27.613 113.845C26.8784 109.665 29.0433 102.191 34.8818 92.1923C36.5172 89.4771 32.3884 87.0695 30.8305 89.8308C24.7388 100.263 21.966 108.833 22.9895 114.656C23.5325 117.743 25.2003 120.278 28.1897 121.591C30.9781 122.816 34.3943 122.807 38.4165 121.884C43.5926 120.696 49.7345 117.915 56.3514 113.97C57.0232 115.197 57.4229 116.333 57.5369 117.416C55.5353 118.345 55.8837 121.875 58.5989 121.875V126.562C55.4736 126.562 55.4736 131.25 58.5989 131.25V133.603C58.5989 137.458 61.7066 140.625 65.6281 140.625L65.6289 142.978ZM75.0039 25.785C73.832 25.785 72.6602 26.5666 72.6602 28.1287V32.8162C72.6602 35.9416 77.3477 35.9416 77.3477 32.8162V28.1287C77.3477 26.5655 76.1758 25.785 75.0039 25.785ZM38.5431 44.2013L41.8568 47.5203C44.0666 49.7301 47.3813 46.4112 45.1704 44.2013L41.8568 40.8876C41.3043 40.3351 40.6818 40.1248 40.0948 40.1593C38.3338 40.2629 36.8859 42.5438 38.5431 44.2013ZM108.149 40.8876L104.83 44.2023C102.62 46.4122 105.933 49.7312 108.143 47.5214L111.462 44.2023C113.12 42.545 111.667 40.264 109.906 40.1604C109.319 40.1248 108.701 40.3351 108.149 40.8886L108.149 40.8876ZM105.305 64.0134C102.491 67.4663 99.4652 70.9734 96.2049 74.4965C89.3442 81.9087 82.1171 88.7297 74.9929 94.7021C67.8738 88.7275 60.6521 81.8961 53.7987 74.4914C50.5426 70.9736 47.5188 67.4717 44.7081 64.023C49.4104 52.5062 60.4092 44.5436 75.0055 44.5406C89.5984 44.5438 100.6 52.5022 105.303 64.0136L105.305 64.0134ZM11.6938 49.2225C10.6454 49.2267 9.72362 49.9246 9.44218 50.9343C8.19391 55.3424 5.1878 58.6424 1.55511 59.9107C-0.513476 60.6536 -0.513476 63.5801 1.55511 64.3232C5.18887 65.5871 8.2087 68.8976 9.46013 73.3047C10.1193 75.5501 13.3012 75.5501 13.9604 73.3047C15.2087 68.8966 18.2148 65.5923 21.8475 64.3232C23.9485 63.5939 23.9485 60.6203 21.8475 59.892C18.2127 58.6301 15.2118 55.3416 13.9593 50.9354C13.6758 49.9194 12.7488 49.2194 11.6941 49.2225L11.6938 49.2225ZM138.262 49.2225C137.214 49.2267 136.292 49.9246 136.01 50.9343C134.762 55.3424 131.756 58.6424 128.123 59.9107C126.055 60.6536 126.055 63.5801 128.123 64.3232C131.757 65.5871 134.777 68.8976 136.028 73.3047C136.687 75.5501 139.869 75.5501 140.529 73.3047C141.777 68.8966 144.783 65.5923 148.416 64.3232C150.517 63.5939 150.517 60.6203 148.416 59.892C144.782 58.628 141.781 55.3406 140.529 50.9335C140.245 49.9175 139.318 49.2175 138.262 49.2217L138.262 49.2225ZM74.9994 49.2278C69.2415 49.2278 63.6165 50.9814 58.8955 54.2774C56.242 56.0603 59.0054 60.0155 61.5917 58.1362C65.526 55.3896 70.201 53.9153 74.9994 53.9153C78.1885 53.9801 78.1885 49.1629 74.9994 49.2278ZM11.6912 57.2793C13.1299 59.5017 14.1029 60.5072 16.1076 62.109C14.3843 63.508 13.1205 64.6704 11.7088 66.9431C10.1655 64.4298 8.47152 63.0214 7.27339 62.1133C8.9088 60.8745 10.4614 59.3793 11.6909 57.2793H11.6912ZM138.259 57.2793C139.698 59.5017 140.671 60.5062 142.677 62.109C140.954 63.508 139.689 64.6704 138.278 66.9431C136.735 64.4298 135.04 63.0214 133.842 62.1133C135.478 60.8745 137.03 59.3793 138.259 57.2793ZM53.9029 60.9414C52.6086 60.9414 51.5591 61.9909 51.5591 63.2852C51.5591 64.5795 52.6086 65.629 53.9029 65.629C55.1972 65.629 56.2466 64.5795 56.2466 63.2852C56.2466 61.9909 55.1972 60.9414 53.9029 60.9414ZM107.817 77.0777C107.817 87.3316 103.191 94.4269 98.2821 100.433C96.2146 102.963 94.1166 105.287 92.2992 107.62C87.9267 104.795 83.3354 101.464 78.6583 97.7183C85.8203 91.6634 92.971 84.8611 99.6369 77.6593C102.206 74.8845 104.646 72.121 106.952 69.3787C107.5 71.8491 107.817 74.4147 107.817 77.0785L107.817 77.0777ZM43.0493 69.383C45.3533 72.1224 47.789 74.8877 50.3546 77.6593C57.0143 84.8547 64.1608 91.6621 71.3198 97.7183C66.6521 101.453 62.0621 104.795 57.6968 107.615C55.8815 105.285 53.7856 102.961 51.7193 100.434C46.8122 94.4266 42.1841 87.3316 42.1841 77.0777C42.1841 74.4149 42.5021 71.8513 43.0493 69.383ZM25.7786 75.0037C22.6532 75.0037 22.6532 79.6869 25.7786 79.6869H30.4661C33.5915 79.6869 33.5915 75.0037 30.4661 75.0037H25.7786ZM119.523 75.0037C116.398 75.0037 116.398 79.6869 119.523 79.6869H124.215C127.341 79.6869 127.341 75.0037 124.215 75.0037H119.523ZM74.9975 100.767C79.9791 104.796 84.9187 108.409 89.6732 111.488C88.6656 113.276 87.9258 115.149 87.7647 117.187H62.2397C62.0786 115.147 61.3493 113.266 60.3354 111.478C65.0837 108.402 70.0243 104.785 74.9974 100.766L74.9975 100.767ZM112.235 109.612C114.692 111.545 117.59 107.859 115.132 105.927L111.447 103.03C110.833 102.547 110.19 102.413 109.612 102.517C107.875 102.829 106.707 105.266 108.55 106.715L112.235 109.612ZM38.5608 103.047L34.8756 105.95C32.4199 107.883 35.3171 111.569 37.7728 109.635L41.4579 106.733C43.2995 105.282 42.1328 102.845 40.3959 102.535C39.8173 102.431 39.1739 102.561 38.5608 103.047ZM16.4103 112.519C15.3556 112.514 14.4286 113.214 14.144 114.23C12.1685 121.471 7.3827 126.945 1.55144 129.058C-0.517147 129.8 -0.517147 132.732 1.55144 133.475C7.38565 135.579 12.18 141.045 14.1627 148.284C14.801 150.57 18.0434 150.57 18.6807 148.284C20.6561 141.043 25.4419 135.569 31.2732 133.456C33.3418 132.713 33.3418 129.783 31.2732 129.039C25.439 126.935 20.6446 121.469 18.6619 114.23C18.3794 113.221 17.4587 112.522 16.4103 112.519ZM133.582 112.519C132.527 112.514 131.6 113.214 131.316 114.23C129.34 121.471 124.554 126.945 118.723 129.058C116.655 129.8 116.655 132.732 118.723 133.475C124.557 135.579 129.352 141.045 131.334 148.284C131.973 150.57 135.215 150.57 135.852 148.284C137.828 141.043 142.614 135.569 148.445 133.456C150.514 132.713 150.514 129.783 148.445 129.039C142.611 126.935 137.816 121.469 135.834 114.23C135.551 113.221 134.63 112.522 133.582 112.519ZM16.4103 121.129C18.7216 125.83 21.3991 128.82 25.3227 131.254C21.2703 133.847 18.7141 136.914 16.4103 141.334C14.3302 137.092 11.1284 133.289 7.51661 131.273C11.5827 128.599 14.1356 125.658 16.4103 121.129V121.129ZM133.582 121.129C135.893 125.83 138.571 128.82 142.494 131.254C138.442 133.847 135.886 136.914 133.582 141.334C131.502 137.092 128.3 133.289 124.688 131.273C128.754 128.599 131.307 125.658 133.582 121.129V121.129ZM63.28 121.875H86.7176V126.562L63.279 126.561L63.28 121.875ZM63.28 131.25H86.7176V133.603C86.7176 134.942 85.6441 135.937 84.378 135.937L65.6186 135.936C64.3526 135.936 63.279 134.94 63.279 133.602L63.28 131.25ZM70.3113 140.625L79.6853 140.624V142.977C79.6853 144.316 78.6118 145.311 77.3457 145.311H72.6488C71.3828 145.311 70.3092 144.315 70.3092 142.977L70.3113 140.625Z"/>
</mask>
<path d="M10.552 0C9.49833 0.0177874 8.57547 0.707305 8.29505 1.70759C7.2184 5.55912 4.65085 8.4094 1.57986 9.49422C-0.521164 10.2235 -0.521164 13.1971 1.57986 13.9254C4.64978 15.0146 7.2121 17.872 8.28568 21.7257C8.60063 22.8536 9.57579 23.4238 10.5332 23.4375V23.4416C10.5394 23.4416 10.5457 23.4375 10.552 23.4375C10.5583 23.4375 10.5646 23.4416 10.5708 23.4416V23.4375C11.5282 23.4197 12.5034 22.8536 12.8183 21.7257C13.8918 17.872 16.4553 15.0145 19.5241 13.9254C21.6252 13.1961 21.6252 10.2225 19.5241 9.49422C16.4532 8.40918 13.8855 5.55912 12.8089 1.70759C12.5285 0.706261 11.6056 0.0167411 10.552 0ZM139.456 0.00418528C138.402 0.0219726 137.479 0.711491 137.199 1.71178C136.121 5.56438 133.555 8.41358 130.484 9.49841C128.383 10.2277 128.383 13.2013 130.484 13.9296C133.554 15.0188 136.116 17.8762 137.19 21.7299C137.505 22.8578 138.48 23.428 139.437 23.4416V23.4458C139.443 23.4458 139.45 23.4416 139.456 23.4416C139.462 23.4416 139.468 23.4458 139.475 23.4458V23.4416C140.432 23.4239 141.407 22.8578 141.722 21.7299C142.796 17.8762 145.359 15.0187 148.428 13.9296C150.529 13.2003 150.529 10.2267 148.428 9.49841C145.356 8.41337 142.789 5.56411 141.712 1.71178C141.432 0.711491 140.51 0.0209264 139.456 0.00418528ZM10.552 7.97912C11.4487 9.38746 12.7901 10.8021 13.9578 11.7093C12.1686 13.1752 11.2645 14.3837 10.552 15.4636C9.83942 14.3838 8.9354 13.1753 7.14616 11.7093C8.31386 10.8022 9.65524 9.38751 10.552 7.97912ZM142.86 11.7144C141.071 13.1803 140.167 14.3877 139.455 15.4687C138.742 14.3889 137.838 13.1804 136.049 11.7144C137.216 10.8072 138.558 9.39156 139.455 7.98313C140.352 9.39148 141.694 10.8061 142.86 11.7144ZM65.6289 142.978C65.6289 146.833 68.7366 150 72.6548 150H77.3517C81.2702 150 84.3776 146.833 84.3776 142.978L84.3797 140.625C88.3003 140.625 91.4088 137.458 91.4088 133.603V131.25C94.5342 131.25 94.5342 126.562 91.4088 126.562V121.875C94.1198 121.875 94.4715 118.357 92.4802 117.421C92.5933 116.338 93.0107 115.198 93.6699 113.974C100.282 117.917 106.418 120.697 111.591 121.884C115.613 122.807 119.029 122.816 121.818 121.591C124.807 120.278 126.475 117.744 127.018 114.656C128.042 108.833 125.269 100.264 119.177 89.8311C117.619 87.0708 113.491 89.4774 115.126 92.1926C120.964 102.191 123.13 109.664 122.395 113.845C122.11 115.464 121.348 116.688 119.932 117.311C118.515 117.933 116.091 118.109 112.653 117.319C108.067 116.266 102.485 113.764 96.3487 110.132C97.9684 108.092 99.8686 105.905 101.924 103.389C107.061 97.103 112.494 89.0652 112.494 77.0766C112.494 72.8161 111.818 68.7449 110.599 64.932C116.076 58.044 120.626 51.3926 124.053 45.3031C129.559 35.519 132.363 26.9181 130.842 21.0421C130.032 17.9146 127.951 15.5993 124.786 14.6197C123.31 14.1635 121.709 14.0045 119.984 14.0892C118.26 14.1687 116.414 14.5025 114.45 15.0278C106.592 17.1277 96.6376 22.5361 85.3314 30.9307C82.8192 32.7901 85.6118 36.5579 88.1241 34.6984C99.1376 26.5215 108.821 21.3704 115.663 19.5414C119.083 18.6269 121.746 18.5882 123.394 19.0978C125.042 19.6073 125.885 20.638 126.305 22.2063C127.341 26.0776 125.35 33.4365 119.965 43.0071C117.04 48.2011 113.182 53.9233 108.584 59.8842C102.748 47.9876 90.7309 39.8514 75.0081 39.8482C59.2819 39.8513 47.2661 47.9887 41.4322 59.8893C36.8314 53.9241 32.9684 48.1997 30.0428 43.0017C24.6576 33.4311 22.6663 26.0723 23.7032 22.2009C24.1227 20.6335 24.9671 19.6019 26.614 19.0924C28.2619 18.5829 30.9249 18.6216 34.3452 19.5361C41.1871 21.365 50.8707 26.5151 61.8836 34.6931C64.3969 36.5534 67.1896 32.7856 64.6774 30.9265C53.3719 22.5318 43.4183 17.1235 35.5586 15.0235C33.5936 14.4982 31.7488 14.1686 30.0246 14.0849C28.3003 14.0054 26.6984 14.1561 25.223 14.6154C22.058 15.5937 19.9767 17.9103 19.167 21.0378C17.6446 26.9141 20.4488 35.5148 25.9556 45.2999C29.3834 51.3915 33.937 58.0462 39.4176 64.9371C38.2007 68.7479 37.5227 72.8201 37.5227 77.0774C37.5227 89.0662 42.9562 97.103 48.0926 103.389C50.1476 105.903 52.0489 108.088 53.6684 110.127C47.5285 113.761 41.9424 116.266 37.3542 117.319C33.9171 118.108 31.4927 117.932 30.076 117.31C28.6593 116.688 27.8976 115.464 27.613 113.845C26.8784 109.665 29.0433 102.191 34.8818 92.1923C36.5172 89.4771 32.3884 87.0695 30.8305 89.8308C24.7388 100.263 21.966 108.833 22.9895 114.656C23.5325 117.743 25.2003 120.278 28.1897 121.591C30.9781 122.816 34.3943 122.807 38.4165 121.884C43.5926 120.696 49.7345 117.915 56.3514 113.97C57.0232 115.197 57.4229 116.333 57.5369 117.416C55.5353 118.345 55.8837 121.875 58.5989 121.875V126.562C55.4736 126.562 55.4736 131.25 58.5989 131.25V133.603C58.5989 137.458 61.7066 140.625 65.6281 140.625L65.6289 142.978ZM75.0039 25.785C73.832 25.785 72.6602 26.5666 72.6602 28.1287V32.8162C72.6602 35.9416 77.3477 35.9416 77.3477 32.8162V28.1287C77.3477 26.5655 76.1758 25.785 75.0039 25.785ZM38.5431 44.2013L41.8568 47.5203C44.0666 49.7301 47.3813 46.4112 45.1704 44.2013L41.8568 40.8876C41.3043 40.3351 40.6818 40.1248 40.0948 40.1593C38.3338 40.2629 36.8859 42.5438 38.5431 44.2013ZM108.149 40.8876L104.83 44.2023C102.62 46.4122 105.933 49.7312 108.143 47.5214L111.462 44.2023C113.12 42.545 111.667 40.264 109.906 40.1604C109.319 40.1248 108.701 40.3351 108.149 40.8886L108.149 40.8876ZM105.305 64.0134C102.491 67.4663 99.4652 70.9734 96.2049 74.4965C89.3442 81.9087 82.1171 88.7297 74.9929 94.7021C67.8738 88.7275 60.6521 81.8961 53.7987 74.4914C50.5426 70.9736 47.5188 67.4717 44.7081 64.023C49.4104 52.5062 60.4092 44.5436 75.0055 44.5406C89.5984 44.5438 100.6 52.5022 105.303 64.0136L105.305 64.0134ZM11.6938 49.2225C10.6454 49.2267 9.72362 49.9246 9.44218 50.9343C8.19391 55.3424 5.1878 58.6424 1.55511 59.9107C-0.513476 60.6536 -0.513476 63.5801 1.55511 64.3232C5.18887 65.5871 8.2087 68.8976 9.46013 73.3047C10.1193 75.5501 13.3012 75.5501 13.9604 73.3047C15.2087 68.8966 18.2148 65.5923 21.8475 64.3232C23.9485 63.5939 23.9485 60.6203 21.8475 59.892C18.2127 58.6301 15.2118 55.3416 13.9593 50.9354C13.6758 49.9194 12.7488 49.2194 11.6941 49.2225L11.6938 49.2225ZM138.262 49.2225C137.214 49.2267 136.292 49.9246 136.01 50.9343C134.762 55.3424 131.756 58.6424 128.123 59.9107C126.055 60.6536 126.055 63.5801 128.123 64.3232C131.757 65.5871 134.777 68.8976 136.028 73.3047C136.687 75.5501 139.869 75.5501 140.529 73.3047C141.777 68.8966 144.783 65.5923 148.416 64.3232C150.517 63.5939 150.517 60.6203 148.416 59.892C144.782 58.628 141.781 55.3406 140.529 50.9335C140.245 49.9175 139.318 49.2175 138.262 49.2217L138.262 49.2225ZM74.9994 49.2278C69.2415 49.2278 63.6165 50.9814 58.8955 54.2774C56.242 56.0603 59.0054 60.0155 61.5917 58.1362C65.526 55.3896 70.201 53.9153 74.9994 53.9153C78.1885 53.9801 78.1885 49.1629 74.9994 49.2278ZM11.6912 57.2793C13.1299 59.5017 14.1029 60.5072 16.1076 62.109C14.3843 63.508 13.1205 64.6704 11.7088 66.9431C10.1655 64.4298 8.47152 63.0214 7.27339 62.1133C8.9088 60.8745 10.4614 59.3793 11.6909 57.2793H11.6912ZM138.259 57.2793C139.698 59.5017 140.671 60.5062 142.677 62.109C140.954 63.508 139.689 64.6704 138.278 66.9431C136.735 64.4298 135.04 63.0214 133.842 62.1133C135.478 60.8745 137.03 59.3793 138.259 57.2793ZM53.9029 60.9414C52.6086 60.9414 51.5591 61.9909 51.5591 63.2852C51.5591 64.5795 52.6086 65.629 53.9029 65.629C55.1972 65.629 56.2466 64.5795 56.2466 63.2852C56.2466 61.9909 55.1972 60.9414 53.9029 60.9414ZM107.817 77.0777C107.817 87.3316 103.191 94.4269 98.2821 100.433C96.2146 102.963 94.1166 105.287 92.2992 107.62C87.9267 104.795 83.3354 101.464 78.6583 97.7183C85.8203 91.6634 92.971 84.8611 99.6369 77.6593C102.206 74.8845 104.646 72.121 106.952 69.3787C107.5 71.8491 107.817 74.4147 107.817 77.0785L107.817 77.0777ZM43.0493 69.383C45.3533 72.1224 47.789 74.8877 50.3546 77.6593C57.0143 84.8547 64.1608 91.6621 71.3198 97.7183C66.6521 101.453 62.0621 104.795 57.6968 107.615C55.8815 105.285 53.7856 102.961 51.7193 100.434C46.8122 94.4266 42.1841 87.3316 42.1841 77.0777C42.1841 74.4149 42.5021 71.8513 43.0493 69.383ZM25.7786 75.0037C22.6532 75.0037 22.6532 79.6869 25.7786 79.6869H30.4661C33.5915 79.6869 33.5915 75.0037 30.4661 75.0037H25.7786ZM119.523 75.0037C116.398 75.0037 116.398 79.6869 119.523 79.6869H124.215C127.341 79.6869 127.341 75.0037 124.215 75.0037H119.523ZM74.9975 100.767C79.9791 104.796 84.9187 108.409 89.6732 111.488C88.6656 113.276 87.9258 115.149 87.7647 117.187H62.2397C62.0786 115.147 61.3493 113.266 60.3354 111.478C65.0837 108.402 70.0243 104.785 74.9974 100.766L74.9975 100.767ZM112.235 109.612C114.692 111.545 117.59 107.859 115.132 105.927L111.447 103.03C110.833 102.547 110.19 102.413 109.612 102.517C107.875 102.829 106.707 105.266 108.55 106.715L112.235 109.612ZM38.5608 103.047L34.8756 105.95C32.4199 107.883 35.3171 111.569 37.7728 109.635L41.4579 106.733C43.2995 105.282 42.1328 102.845 40.3959 102.535C39.8173 102.431 39.1739 102.561 38.5608 103.047ZM16.4103 112.519C15.3556 112.514 14.4286 113.214 14.144 114.23C12.1685 121.471 7.3827 126.945 1.55144 129.058C-0.517147 129.8 -0.517147 132.732 1.55144 133.475C7.38565 135.579 12.18 141.045 14.1627 148.284C14.801 150.57 18.0434 150.57 18.6807 148.284C20.6561 141.043 25.4419 135.569 31.2732 133.456C33.3418 132.713 33.3418 129.783 31.2732 129.039C25.439 126.935 20.6446 121.469 18.6619 114.23C18.3794 113.221 17.4587 112.522 16.4103 112.519ZM133.582 112.519C132.527 112.514 131.6 113.214 131.316 114.23C129.34 121.471 124.554 126.945 118.723 129.058C116.655 129.8 116.655 132.732 118.723 133.475C124.557 135.579 129.352 141.045 131.334 148.284C131.973 150.57 135.215 150.57 135.852 148.284C137.828 141.043 142.614 135.569 148.445 133.456C150.514 132.713 150.514 129.783 148.445 129.039C142.611 126.935 137.816 121.469 135.834 114.23C135.551 113.221 134.63 112.522 133.582 112.519ZM16.4103 121.129C18.7216 125.83 21.3991 128.82 25.3227 131.254C21.2703 133.847 18.7141 136.914 16.4103 141.334C14.3302 137.092 11.1284 133.289 7.51661 131.273C11.5827 128.599 14.1356 125.658 16.4103 121.129V121.129ZM133.582 121.129C135.893 125.83 138.571 128.82 142.494 131.254C138.442 133.847 135.886 136.914 133.582 141.334C131.502 137.092 128.3 133.289 124.688 131.273C128.754 128.599 131.307 125.658 133.582 121.129V121.129ZM63.28 121.875H86.7176V126.562L63.279 126.561L63.28 121.875ZM63.28 131.25H86.7176V133.603C86.7176 134.942 85.6441 135.937 84.378 135.937L65.6186 135.936C64.3526 135.936 63.279 134.94 63.279 133.602L63.28 131.25ZM70.3113 140.625L79.6853 140.624V142.977C79.6853 144.316 78.6118 145.311 77.3457 145.311H72.6488C71.3828 145.311 70.3092 144.315 70.3092 142.977L70.3113 140.625Z" fill="black"/>
<path d="M10.552 0C9.49833 0.0177874 8.57547 0.707305 8.29505 1.70759C7.2184 5.55912 4.65085 8.4094 1.57986 9.49422C-0.521164 10.2235 -0.521164 13.1971 1.57986 13.9254C4.64978 15.0146 7.2121 17.872 8.28568 21.7257C8.60063 22.8536 9.57579 23.4238 10.5332 23.4375V23.4416C10.5394 23.4416 10.5457 23.4375 10.552 23.4375C10.5583 23.4375 10.5646 23.4416 10.5708 23.4416V23.4375C11.5282 23.4197 12.5034 22.8536 12.8183 21.7257C13.8918 17.872 16.4553 15.0145 19.5241 13.9254C21.6252 13.1961 21.6252 10.2225 19.5241 9.49422C16.4532 8.40918 13.8855 5.55912 12.8089 1.70759C12.5285 0.706261 11.6056 0.0167411 10.552 0ZM139.456 0.00418528C138.402 0.0219726 137.479 0.711491 137.199 1.71178C136.121 5.56438 133.555 8.41358 130.484 9.49841C128.383 10.2277 128.383 13.2013 130.484 13.9296C133.554 15.0188 136.116 17.8762 137.19 21.7299C137.505 22.8578 138.48 23.428 139.437 23.4416V23.4458C139.443 23.4458 139.45 23.4416 139.456 23.4416C139.462 23.4416 139.468 23.4458 139.475 23.4458V23.4416C140.432 23.4239 141.407 22.8578 141.722 21.7299C142.796 17.8762 145.359 15.0187 148.428 13.9296C150.529 13.2003 150.529 10.2267 148.428 9.49841C145.356 8.41337 142.789 5.56411 141.712 1.71178C141.432 0.711491 140.51 0.0209264 139.456 0.00418528ZM10.552 7.97912C11.4487 9.38746 12.7901 10.8021 13.9578 11.7093C12.1686 13.1752 11.2645 14.3837 10.552 15.4636C9.83942 14.3838 8.9354 13.1753 7.14616 11.7093C8.31386 10.8022 9.65524 9.38751 10.552 7.97912ZM142.86 11.7144C141.071 13.1803 140.167 14.3877 139.455 15.4687C138.742 14.3889 137.838 13.1804 136.049 11.7144C137.216 10.8072 138.558 9.39156 139.455 7.98313C140.352 9.39148 141.694 10.8061 142.86 11.7144ZM65.6289 142.978C65.6289 146.833 68.7366 150 72.6548 150H77.3517C81.2702 150 84.3776 146.833 84.3776 142.978L84.3797 140.625C88.3003 140.625 91.4088 137.458 91.4088 133.603V131.25C94.5342 131.25 94.5342 126.562 91.4088 126.562V121.875C94.1198 121.875 94.4715 118.357 92.4802 117.421C92.5933 116.338 93.0107 115.198 93.6699 113.974C100.282 117.917 106.418 120.697 111.591 121.884C115.613 122.807 119.029 122.816 121.818 121.591C124.807 120.278 126.475 117.744 127.018 114.656C128.042 108.833 125.269 100.264 119.177 89.8311C117.619 87.0708 113.491 89.4774 115.126 92.1926C120.964 102.191 123.13 109.664 122.395 113.845C122.11 115.464 121.348 116.688 119.932 117.311C118.515 117.933 116.091 118.109 112.653 117.319C108.067 116.266 102.485 113.764 96.3487 110.132C97.9684 108.092 99.8686 105.905 101.924 103.389C107.061 97.103 112.494 89.0652 112.494 77.0766C112.494 72.8161 111.818 68.7449 110.599 64.932C116.076 58.044 120.626 51.3926 124.053 45.3031C129.559 35.519 132.363 26.9181 130.842 21.0421C130.032 17.9146 127.951 15.5993 124.786 14.6197C123.31 14.1635 121.709 14.0045 119.984 14.0892C118.26 14.1687 116.414 14.5025 114.45 15.0278C106.592 17.1277 96.6376 22.5361 85.3314 30.9307C82.8192 32.7901 85.6118 36.5579 88.1241 34.6984C99.1376 26.5215 108.821 21.3704 115.663 19.5414C119.083 18.6269 121.746 18.5882 123.394 19.0978C125.042 19.6073 125.885 20.638 126.305 22.2063C127.341 26.0776 125.35 33.4365 119.965 43.0071C117.04 48.2011 113.182 53.9233 108.584 59.8842C102.748 47.9876 90.7309 39.8514 75.0081 39.8482C59.2819 39.8513 47.2661 47.9887 41.4322 59.8893C36.8314 53.9241 32.9684 48.1997 30.0428 43.0017C24.6576 33.4311 22.6663 26.0723 23.7032 22.2009C24.1227 20.6335 24.9671 19.6019 26.614 19.0924C28.2619 18.5829 30.9249 18.6216 34.3452 19.5361C41.1871 21.365 50.8707 26.5151 61.8836 34.6931C64.3969 36.5534 67.1896 32.7856 64.6774 30.9265C53.3719 22.5318 43.4183 17.1235 35.5586 15.0235C33.5936 14.4982 31.7488 14.1686 30.0246 14.0849C28.3003 14.0054 26.6984 14.1561 25.223 14.6154C22.058 15.5937 19.9767 17.9103 19.167 21.0378C17.6446 26.9141 20.4488 35.5148 25.9556 45.2999C29.3834 51.3915 33.937 58.0462 39.4176 64.9371C38.2007 68.7479 37.5227 72.8201 37.5227 77.0774C37.5227 89.0662 42.9562 97.103 48.0926 103.389C50.1476 105.903 52.0489 108.088 53.6684 110.127C47.5285 113.761 41.9424 116.266 37.3542 117.319C33.9171 118.108 31.4927 117.932 30.076 117.31C28.6593 116.688 27.8976 115.464 27.613 113.845C26.8784 109.665 29.0433 102.191 34.8818 92.1923C36.5172 89.4771 32.3884 87.0695 30.8305 89.8308C24.7388 100.263 21.966 108.833 22.9895 114.656C23.5325 117.743 25.2003 120.278 28.1897 121.591C30.9781 122.816 34.3943 122.807 38.4165 121.884C43.5926 120.696 49.7345 117.915 56.3514 113.97C57.0232 115.197 57.4229 116.333 57.5369 117.416C55.5353 118.345 55.8837 121.875 58.5989 121.875V126.562C55.4736 126.562 55.4736 131.25 58.5989 131.25V133.603C58.5989 137.458 61.7066 140.625 65.6281 140.625L65.6289 142.978ZM75.0039 25.785C73.832 25.785 72.6602 26.5666 72.6602 28.1287V32.8162C72.6602 35.9416 77.3477 35.9416 77.3477 32.8162V28.1287C77.3477 26.5655 76.1758 25.785 75.0039 25.785ZM38.5431 44.2013L41.8568 47.5203C44.0666 49.7301 47.3813 46.4112 45.1704 44.2013L41.8568 40.8876C41.3043 40.3351 40.6818 40.1248 40.0948 40.1593C38.3338 40.2629 36.8859 42.5438 38.5431 44.2013ZM108.149 40.8876L104.83 44.2023C102.62 46.4122 105.933 49.7312 108.143 47.5214L111.462 44.2023C113.12 42.545 111.667 40.264 109.906 40.1604C109.319 40.1248 108.701 40.3351 108.149 40.8886L108.149 40.8876ZM105.305 64.0134C102.491 67.4663 99.4652 70.9734 96.2049 74.4965C89.3442 81.9087 82.1171 88.7297 74.9929 94.7021C67.8738 88.7275 60.6521 81.8961 53.7987 74.4914C50.5426 70.9736 47.5188 67.4717 44.7081 64.023C49.4104 52.5062 60.4092 44.5436 75.0055 44.5406C89.5984 44.5438 100.6 52.5022 105.303 64.0136L105.305 64.0134ZM11.6938 49.2225C10.6454 49.2267 9.72362 49.9246 9.44218 50.9343C8.19391 55.3424 5.1878 58.6424 1.55511 59.9107C-0.513476 60.6536 -0.513476 63.5801 1.55511 64.3232C5.18887 65.5871 8.2087 68.8976 9.46013 73.3047C10.1193 75.5501 13.3012 75.5501 13.9604 73.3047C15.2087 68.8966 18.2148 65.5923 21.8475 64.3232C23.9485 63.5939 23.9485 60.6203 21.8475 59.892C18.2127 58.6301 15.2118 55.3416 13.9593 50.9354C13.6758 49.9194 12.7488 49.2194 11.6941 49.2225L11.6938 49.2225ZM138.262 49.2225C137.214 49.2267 136.292 49.9246 136.01 50.9343C134.762 55.3424 131.756 58.6424 128.123 59.9107C126.055 60.6536 126.055 63.5801 128.123 64.3232C131.757 65.5871 134.777 68.8976 136.028 73.3047C136.687 75.5501 139.869 75.5501 140.529 73.3047C141.777 68.8966 144.783 65.5923 148.416 64.3232C150.517 63.5939 150.517 60.6203 148.416 59.892C144.782 58.628 141.781 55.3406 140.529 50.9335C140.245 49.9175 139.318 49.2175 138.262 49.2217L138.262 49.2225ZM74.9994 49.2278C69.2415 49.2278 63.6165 50.9814 58.8955 54.2774C56.242 56.0603 59.0054 60.0155 61.5917 58.1362C65.526 55.3896 70.201 53.9153 74.9994 53.9153C78.1885 53.9801 78.1885 49.1629 74.9994 49.2278ZM11.6912 57.2793C13.1299 59.5017 14.1029 60.5072 16.1076 62.109C14.3843 63.508 13.1205 64.6704 11.7088 66.9431C10.1655 64.4298 8.47152 63.0214 7.27339 62.1133C8.9088 60.8745 10.4614 59.3793 11.6909 57.2793H11.6912ZM138.259 57.2793C139.698 59.5017 140.671 60.5062 142.677 62.109C140.954 63.508 139.689 64.6704 138.278 66.9431C136.735 64.4298 135.04 63.0214 133.842 62.1133C135.478 60.8745 137.03 59.3793 138.259 57.2793ZM53.9029 60.9414C52.6086 60.9414 51.5591 61.9909 51.5591 63.2852C51.5591 64.5795 52.6086 65.629 53.9029 65.629C55.1972 65.629 56.2466 64.5795 56.2466 63.2852C56.2466 61.9909 55.1972 60.9414 53.9029 60.9414ZM107.817 77.0777C107.817 87.3316 103.191 94.4269 98.2821 100.433C96.2146 102.963 94.1166 105.287 92.2992 107.62C87.9267 104.795 83.3354 101.464 78.6583 97.7183C85.8203 91.6634 92.971 84.8611 99.6369 77.6593C102.206 74.8845 104.646 72.121 106.952 69.3787C107.5 71.8491 107.817 74.4147 107.817 77.0785L107.817 77.0777ZM43.0493 69.383C45.3533 72.1224 47.789 74.8877 50.3546 77.6593C57.0143 84.8547 64.1608 91.6621 71.3198 97.7183C66.6521 101.453 62.0621 104.795 57.6968 107.615C55.8815 105.285 53.7856 102.961 51.7193 100.434C46.8122 94.4266 42.1841 87.3316 42.1841 77.0777C42.1841 74.4149 42.5021 71.8513 43.0493 69.383ZM25.7786 75.0037C22.6532 75.0037 22.6532 79.6869 25.7786 79.6869H30.4661C33.5915 79.6869 33.5915 75.0037 30.4661 75.0037H25.7786ZM119.523 75.0037C116.398 75.0037 116.398 79.6869 119.523 79.6869H124.215C127.341 79.6869 127.341 75.0037 124.215 75.0037H119.523ZM74.9975 100.767C79.9791 104.796 84.9187 108.409 89.6732 111.488C88.6656 113.276 87.9258 115.149 87.7647 117.187H62.2397C62.0786 115.147 61.3493 113.266 60.3354 111.478C65.0837 108.402 70.0243 104.785 74.9974 100.766L74.9975 100.767ZM112.235 109.612C114.692 111.545 117.59 107.859 115.132 105.927L111.447 103.03C110.833 102.547 110.19 102.413 109.612 102.517C107.875 102.829 106.707 105.266 108.55 106.715L112.235 109.612ZM38.5608 103.047L34.8756 105.95C32.4199 107.883 35.3171 111.569 37.7728 109.635L41.4579 106.733C43.2995 105.282 42.1328 102.845 40.3959 102.535C39.8173 102.431 39.1739 102.561 38.5608 103.047ZM16.4103 112.519C15.3556 112.514 14.4286 113.214 14.144 114.23C12.1685 121.471 7.3827 126.945 1.55144 129.058C-0.517147 129.8 -0.517147 132.732 1.55144 133.475C7.38565 135.579 12.18 141.045 14.1627 148.284C14.801 150.57 18.0434 150.57 18.6807 148.284C20.6561 141.043 25.4419 135.569 31.2732 133.456C33.3418 132.713 33.3418 129.783 31.2732 129.039C25.439 126.935 20.6446 121.469 18.6619 114.23C18.3794 113.221 17.4587 112.522 16.4103 112.519ZM133.582 112.519C132.527 112.514 131.6 113.214 131.316 114.23C129.34 121.471 124.554 126.945 118.723 129.058C116.655 129.8 116.655 132.732 118.723 133.475C124.557 135.579 129.352 141.045 131.334 148.284C131.973 150.57 135.215 150.57 135.852 148.284C137.828 141.043 142.614 135.569 148.445 133.456C150.514 132.713 150.514 129.783 148.445 129.039C142.611 126.935 137.816 121.469 135.834 114.23C135.551 113.221 134.63 112.522 133.582 112.519ZM16.4103 121.129C18.7216 125.83 21.3991 128.82 25.3227 131.254C21.2703 133.847 18.7141 136.914 16.4103 141.334C14.3302 137.092 11.1284 133.289 7.51661 131.273C11.5827 128.599 14.1356 125.658 16.4103 121.129V121.129ZM133.582 121.129C135.893 125.83 138.571 128.82 142.494 131.254C138.442 133.847 135.886 136.914 133.582 141.334C131.502 137.092 128.3 133.289 124.688 131.273C128.754 128.599 131.307 125.658 133.582 121.129V121.129ZM63.28 121.875H86.7176V126.562L63.279 126.561L63.28 121.875ZM63.28 131.25H86.7176V133.603C86.7176 134.942 85.6441 135.937 84.378 135.937L65.6186 135.936C64.3526 135.936 63.279 134.94 63.279 133.602L63.28 131.25ZM70.3113 140.625L79.6853 140.624V142.977C79.6853 144.316 78.6118 145.311 77.3457 145.311H72.6488C71.3828 145.311 70.3092 144.315 70.3092 142.977L70.3113 140.625Z" stroke="white" stroke-width="1.5" mask="url(#path-1-inside-1_4054_79350)"/>
</g>
<defs>
<filter id="filter0_d_4054_79350" x="0" y="0" width="152.004" height="152" filterUnits="userSpaceOnUse" color-interpolation-filters="sRGB">
<feFlood flood-opacity="0" result="BackgroundImageFix"/>
<feColorMatrix in="SourceAlpha" type="matrix" values="0 0 0 0 0 0 0 0 0 0 0 0 0 0 0 0 0 0 127 0" result="hardAlpha"/>
<feOffset dx="2" dy="2"/>
<feComposite in2="hardAlpha" operator="out"/>
<feColorMatrix type="matrix" values="0 0 0 0 0.8 0 0 0 0 1 0 0 0 0 0 0 0 0 1 0"/>
<feBlend mode="normal" in2="BackgroundImageFix" result="effect1_dropShadow_4054_79350"/>
<feBlend mode="normal" in="SourceGraphic" in2="effect1_dropShadow_4054_79350" result="shape"/>
</filter>
</defs>
</svg>
