<svg width="16" height="15" viewBox="0 0 16 15" fill="none" xmlns="http://www.w3.org/2000/svg">
<path fill-rule="evenodd" clip-rule="evenodd" d="M6.69279 2.32418C7.26625 1.3047 8.73406 1.3047 9.30752 2.32418L13.4927 9.76458C14.0552 10.7645 13.3326 12 12.1854 12H3.81493C2.66769 12 1.94512 10.7645 2.50756 9.76459L6.69279 2.32418ZM8.75009 9.75006C8.75009 10.1643 8.41431 10.5001 8.00009 10.5001C7.58588 10.5001 7.25009 10.1643 7.25009 9.75006C7.25009 9.33585 7.58588 9.00006 8.00009 9.00006C8.41431 9.00006 8.75009 9.33585 8.75009 9.75006ZM8.00009 3.75006C7.58588 3.75006 7.25009 4.08585 7.25009 4.50006V6.75006C7.25009 7.16428 7.58588 7.50006 8.00009 7.50006C8.4143 7.50006 8.75009 7.16428 8.75009 6.75006V4.50006C8.75009 4.08585 8.4143 3.75006 8.00009 3.75006Z" fill="black"/>
</svg>
