<svg width="16" height="17" viewBox="0 0 16 17" fill="none" xmlns="http://www.w3.org/2000/svg">
<path d="M0 9C0 8.17157 0.671573 7.5 1.5 7.5C2.32843 7.5 3 8.17157 3 9V15C3 15.8284 2.32843 16.5 1.5 16.5C0.671573 16.5 0 15.8284 0 15V9Z" fill="#01C797"/>
<path d="M4 8.83333V14.2639C4 15.0215 4.428 15.714 5.10557 16.0528L5.15542 16.0777C5.71084 16.3554 6.32329 16.5 6.94427 16.5H12.3604C13.3138 16.5 14.1346 15.8271 14.3216 14.8922L15.5216 8.89223C15.7691 7.65465 14.8225 6.5 13.5604 6.5H10V2.5C10 1.39543 9.10457 0.5 8 0.5C7.44772 0.5 7 0.947715 7 1.5V2.16667C7 3.03215 6.71929 3.87428 6.2 4.56667L4.8 6.43333C4.28071 7.12572 4 7.96785 4 8.83333Z" fill="#01C797"/>
</svg>
