<svg width="14" height="15" viewBox="0 0 14 15" fill="none" xmlns="http://www.w3.org/2000/svg">
<path fill-rule="evenodd" clip-rule="evenodd" d="M9 2.5C8.44772 2.5 8 2.05228 8 1.5C8 0.947715 8.44772 0.5 9 0.5H13C13.5523 0.5 14 0.947715 14 1.5V5.5C14 6.05228 13.5523 6.5 13 6.5C12.4477 6.5 12 6.05228 12 5.5V3.91421L9.70711 6.20711C9.31658 6.59763 8.68342 6.59763 8.29289 6.20711C7.90237 5.81658 7.90237 5.18342 8.29289 4.79289L10.5858 2.5H9ZM0 9.5C0 8.94772 0.447715 8.5 1 8.5C1.55228 8.5 2 8.94772 2 9.5V11.0858L4.29289 8.79289C4.68342 8.40237 5.31658 8.40237 5.70711 8.79289C6.09763 9.18342 6.09763 9.81658 5.70711 10.2071L3.41421 12.5H5C5.55228 12.5 6 12.9477 6 13.5C6 14.0523 5.55228 14.5 5 14.5H1C0.447715 14.5 0 14.0523 0 13.5V9.5Z" fill="white"/>
</svg>
