<svg width="15" height="16" viewBox="0 0 15 16" fill="none" xmlns="http://www.w3.org/2000/svg">
<path fill-rule="evenodd" clip-rule="evenodd" d="M1.32812 0C1.88041 0 2.32812 0.447715 2.32812 1V3.10125C3.59822 1.80489 5.36865 1 7.32812 1C10.3775 1 12.9691 2.94932 13.9296 5.66675C14.1136 6.18747 13.8407 6.75879 13.32 6.94284C12.7992 7.12689 12.2279 6.85396 12.0439 6.33325C11.357 4.38991 9.50359 3 7.32812 3C5.69319 3 4.24016 3.78502 3.32748 5H6.32812C6.88041 5 7.32812 5.44772 7.32812 6C7.32812 6.55228 6.88041 7 6.32812 7H1.32812C0.77584 7 0.328125 6.55228 0.328125 6V1C0.328125 0.447715 0.77584 0 1.32812 0ZM1.33629 9.05716C1.85701 8.87311 2.42833 9.14604 2.61238 9.66675C3.29925 11.6101 5.15266 13 7.32812 13C8.96306 13 10.4161 12.215 11.3288 11L8.32812 11C7.77584 11 7.32813 10.5523 7.32813 10C7.32813 9.44771 7.77584 9 8.32812 9H13.3281C13.5933 9 13.8477 9.10536 14.0352 9.29289C14.2228 9.48043 14.3281 9.73478 14.3281 10V15C14.3281 15.5523 13.8804 16 13.3281 16C12.7758 16 12.3281 15.5523 12.3281 15V12.8987C11.058 14.1951 9.28761 15 7.32812 15C4.27872 15 1.68717 13.0507 0.726697 10.3332C0.54265 9.81253 0.815574 9.24121 1.33629 9.05716Z" fill="#00DD81"/>
</svg>
