<svg width="45" height="45" viewBox="0 0 45 45" fill="none" xmlns="http://www.w3.org/2000/svg">
<g filter="url(#filter0_d_5093_25707)">
<path d="M21.0171 22.7727C21.6244 22.7727 22.1017 22.2746 22.1017 21.678C22.1017 21.0814 21.6244 20.5833 21.0171 20.5833C20.4099 20.5833 19.9326 21.0814 19.9326 21.678C19.9326 22.2746 20.4099 22.7727 21.0171 22.7727Z" fill="black" stroke="white"/>
<path d="M21.0171 27.8665C21.6244 27.8665 22.1017 27.3683 22.1017 26.7717C22.1017 26.1751 21.6244 25.677 21.0171 25.677C20.4099 25.677 19.9326 26.1751 19.9326 26.7717C19.9326 27.3683 20.4099 27.8665 21.0171 27.8665Z" fill="black" stroke="white"/>
<path d="M21.0171 27.8665C21.6244 27.8665 22.1017 27.3683 22.1017 26.7717C22.1017 26.1751 21.6244 25.677 21.0171 25.677C20.4099 25.677 19.9326 26.1751 19.9326 26.7717C19.9326 27.3683 20.4099 27.8665 21.0171 27.8665Z" fill="black" stroke="white"/>
<path d="M21.0171 12.5537C21.6244 12.5537 22.1017 12.0556 22.1017 11.459C22.1017 10.8624 21.6244 10.3643 21.0171 10.3643C20.4099 10.3643 19.9326 10.8624 19.9326 11.459C19.9326 12.0556 20.4099 12.5537 21.0171 12.5537Z" fill="black" stroke="white"/>
<path d="M21.0171 17.6367C21.6244 17.6367 22.1017 17.1386 22.1017 16.542C22.1017 15.9454 21.6244 15.4473 21.0171 15.4473C20.4099 15.4473 19.9326 15.9454 19.9326 16.542C19.9326 17.1386 20.4099 17.6367 21.0171 17.6367Z" fill="black" stroke="white"/>
<path d="M21.0171 32.678C21.6244 32.678 22.1017 32.1799 22.1017 31.5833C22.1017 30.9867 21.6244 30.4885 21.0171 30.4885C20.4099 30.4885 19.9326 30.9867 19.9326 31.5833C19.9326 32.1799 20.4099 32.678 21.0171 32.678Z" fill="black" stroke="white"/>
<path d="M21.0171 37.7598C21.6244 37.7598 22.1017 37.2616 22.1017 36.6651C22.1017 36.0685 21.6244 35.5703 21.0171 35.5703C20.4099 35.5703 19.9326 36.0685 19.9326 36.6651C19.9326 37.2616 20.4099 37.7598 21.0171 37.7598Z" fill="black" stroke="white"/>
<path d="M31.209 13.8925V13.8822L31.2086 13.872C31.1878 13.3642 30.7839 12.9275 30.2414 12.9275H30.2413H24.5341C23.9948 12.9275 23.5771 13.365 23.5771 13.8925V20.0345C23.5771 20.4702 23.8749 20.8809 24.3323 20.9773L27.1709 21.6215C27.2716 21.6495 27.3609 21.6486 27.388 21.6484C27.39 21.6483 27.3917 21.6483 27.3931 21.6483C27.3944 21.6483 27.3961 21.6483 27.3982 21.6484C27.4253 21.6486 27.5145 21.6495 27.6152 21.6215L30.4538 20.9773C30.9112 20.8809 31.209 20.4702 31.209 20.0345V13.8925ZM29.2737 19.2672L27.3824 19.6949L25.4911 19.2673V16.6416H29.2737V19.2672Z" fill="black" stroke="white"/>
<mask id="path-9-outside-1_5093_25707" maskUnits="userSpaceOnUse" x="0" y="0.5" width="43" height="42" fill="black">
<rect fill="white" y="0.5" width="43" height="42"/>
<path d="M40.9331 16.6933L34.5351 6.60397C34.5139 6.57153 34.4926 6.5499 34.4714 6.52827C31.4956 3.5005 29.0618 3.0031 27.967 2.9598L26.713 1.68383C26.628 1.59732 26.1284 1.5 26.0859 1.5H15.819C15.7978 1.5 15.362 1.57569 15.277 1.67302L14.0122 2.95986C12.9069 3.01393 10.4944 3.52216 7.5399 6.52833C7.51864 6.54996 7.49739 6.5824 7.47613 6.60403L1.07812 16.6933C1.00372 16.8015 0.982464 16.942 1.01435 17.061C1.04623 17.1907 1.13125 17.2989 1.23754 17.3529L7.81619 21.0296C7.92247 21.0945 8.05 21.1053 8.16691 21.0728C8.28383 21.0404 8.37947 20.9539 8.44324 20.8458L9.15531 19.4941V41.035C9.15531 41.2945 9.35724 41.5 9.61231 41.5H32.3558C32.6108 41.5 32.8127 41.2945 32.8127 41.035V19.4941L33.5248 20.8458C33.578 20.9539 33.6842 21.0404 33.8011 21.0728C33.9181 21.1053 34.0456 21.0945 34.1519 21.0296L40.7305 17.3529C40.8474 17.2881 40.9218 17.1799 40.9537 17.061C41.0281 16.942 41.0068 16.8015 40.9325 16.6933L40.9331 16.6933ZM27.8182 4.12836L23.1207 8.90795L21.7071 7.46974L26.4047 2.69015L27.8182 4.12836ZM21.0164 6.84253L17.9236 3.69582H24.1197L21.0164 6.84253ZM25.3313 2.45228L24.7361 3.05784H17.3178L16.7226 2.45228H25.3313ZM15.6173 2.67937L20.3149 7.45895L18.9014 8.89716L14.2038 4.11757L15.6173 2.67937ZM19.4115 40.559H10.1015V17.6022C10.1015 17.386 9.95273 17.2021 9.7508 17.1481C9.54886 17.094 9.33631 17.1913 9.23003 17.386L7.86966 19.992L2.13064 16.7912L7.78473 7.87008L8.97505 13.3309C9.02819 13.5471 9.20886 13.6985 9.42143 13.6985C9.45331 13.6985 9.4852 13.6985 9.51708 13.6877C9.76152 13.6336 9.92094 13.3849 9.86781 13.1254L8.50744 6.88606C10.3885 5.05861 12.004 4.3449 13.0774 4.0745V4.17182V4.18263C13.0774 4.21507 13.088 4.2367 13.0987 4.26914V4.27996C13.1093 4.30158 13.1199 4.33402 13.1305 4.35565C13.1305 4.36646 13.1412 4.36646 13.1412 4.37728C13.1624 4.40972 13.1837 4.43135 13.2049 4.45297L18.5508 9.89219C18.6358 9.9787 18.7634 10.0328 18.8803 10.0328C18.9972 10.0328 19.1141 9.98952 19.2097 9.89219L19.401 9.69755V40.5596L19.4115 40.559ZM21.7816 40.559H20.3362V8.75667L21.0057 8.07542L21.7816 8.86481V40.559ZM34.1522 19.9809L32.7918 17.3749C32.6962 17.1803 32.4836 17.083 32.271 17.137C32.0691 17.1911 31.9203 17.3749 31.9203 17.5912V40.5479H22.6953V9.8055L22.7909 9.90283C22.8759 9.98933 22.9928 10.0434 23.1204 10.0434C23.2479 10.0434 23.3648 9.98934 23.4498 9.90283L28.7957 4.4636C28.817 4.44198 28.8382 4.40954 28.8595 4.3771C28.8595 4.36628 28.8701 4.36628 28.8701 4.35547C28.8807 4.33384 28.8914 4.31221 28.902 4.27977C28.902 4.26896 28.902 4.26896 28.9126 4.25815C28.9232 4.22571 28.9232 4.20408 28.9339 4.17164V4.16083V4.0635C30.0073 4.33384 31.6227 5.04753 33.5145 6.88584L32.1542 13.1252C32.101 13.3739 32.2604 13.6334 32.5049 13.6875C32.5368 13.6983 32.5686 13.6983 32.6005 13.6983C32.8131 13.6983 33.0044 13.5469 33.0469 13.3306L34.2372 7.86986L39.8913 16.791L34.1522 19.9809Z"/>
</mask>
<path d="M40.9331 16.6933L34.5351 6.60397C34.5139 6.57153 34.4926 6.5499 34.4714 6.52827C31.4956 3.5005 29.0618 3.0031 27.967 2.9598L26.713 1.68383C26.628 1.59732 26.1284 1.5 26.0859 1.5H15.819C15.7978 1.5 15.362 1.57569 15.277 1.67302L14.0122 2.95986C12.9069 3.01393 10.4944 3.52216 7.5399 6.52833C7.51864 6.54996 7.49739 6.5824 7.47613 6.60403L1.07812 16.6933C1.00372 16.8015 0.982464 16.942 1.01435 17.061C1.04623 17.1907 1.13125 17.2989 1.23754 17.3529L7.81619 21.0296C7.92247 21.0945 8.05 21.1053 8.16691 21.0728C8.28383 21.0404 8.37947 20.9539 8.44324 20.8458L9.15531 19.4941V41.035C9.15531 41.2945 9.35724 41.5 9.61231 41.5H32.3558C32.6108 41.5 32.8127 41.2945 32.8127 41.035V19.4941L33.5248 20.8458C33.578 20.9539 33.6842 21.0404 33.8011 21.0728C33.9181 21.1053 34.0456 21.0945 34.1519 21.0296L40.7305 17.3529C40.8474 17.2881 40.9218 17.1799 40.9537 17.061C41.0281 16.942 41.0068 16.8015 40.9325 16.6933L40.9331 16.6933ZM27.8182 4.12836L23.1207 8.90795L21.7071 7.46974L26.4047 2.69015L27.8182 4.12836ZM21.0164 6.84253L17.9236 3.69582H24.1197L21.0164 6.84253ZM25.3313 2.45228L24.7361 3.05784H17.3178L16.7226 2.45228H25.3313ZM15.6173 2.67937L20.3149 7.45895L18.9014 8.89716L14.2038 4.11757L15.6173 2.67937ZM19.4115 40.559H10.1015V17.6022C10.1015 17.386 9.95273 17.2021 9.7508 17.1481C9.54886 17.094 9.33631 17.1913 9.23003 17.386L7.86966 19.992L2.13064 16.7912L7.78473 7.87008L8.97505 13.3309C9.02819 13.5471 9.20886 13.6985 9.42143 13.6985C9.45331 13.6985 9.4852 13.6985 9.51708 13.6877C9.76152 13.6336 9.92094 13.3849 9.86781 13.1254L8.50744 6.88606C10.3885 5.05861 12.004 4.3449 13.0774 4.0745V4.17182V4.18263C13.0774 4.21507 13.088 4.2367 13.0987 4.26914V4.27996C13.1093 4.30158 13.1199 4.33402 13.1305 4.35565C13.1305 4.36646 13.1412 4.36646 13.1412 4.37728C13.1624 4.40972 13.1837 4.43135 13.2049 4.45297L18.5508 9.89219C18.6358 9.9787 18.7634 10.0328 18.8803 10.0328C18.9972 10.0328 19.1141 9.98952 19.2097 9.89219L19.401 9.69755V40.5596L19.4115 40.559ZM21.7816 40.559H20.3362V8.75667L21.0057 8.07542L21.7816 8.86481V40.559ZM34.1522 19.9809L32.7918 17.3749C32.6962 17.1803 32.4836 17.083 32.271 17.137C32.0691 17.1911 31.9203 17.3749 31.9203 17.5912V40.5479H22.6953V9.8055L22.7909 9.90283C22.8759 9.98933 22.9928 10.0434 23.1204 10.0434C23.2479 10.0434 23.3648 9.98934 23.4498 9.90283L28.7957 4.4636C28.817 4.44198 28.8382 4.40954 28.8595 4.3771C28.8595 4.36628 28.8701 4.36628 28.8701 4.35547C28.8807 4.33384 28.8914 4.31221 28.902 4.27977C28.902 4.26896 28.902 4.26896 28.9126 4.25815C28.9232 4.22571 28.9232 4.20408 28.9339 4.17164V4.16083V4.0635C30.0073 4.33384 31.6227 5.04753 33.5145 6.88584L32.1542 13.1252C32.101 13.3739 32.2604 13.6334 32.5049 13.6875C32.5368 13.6983 32.5686 13.6983 32.6005 13.6983C32.8131 13.6983 33.0044 13.5469 33.0469 13.3306L34.2372 7.86986L39.8913 16.791L34.1522 19.9809Z" fill="black"/>
<path d="M40.9331 16.6933L34.5351 6.60397C34.5139 6.57153 34.4926 6.5499 34.4714 6.52827C31.4956 3.5005 29.0618 3.0031 27.967 2.9598L26.713 1.68383C26.628 1.59732 26.1284 1.5 26.0859 1.5H15.819C15.7978 1.5 15.362 1.57569 15.277 1.67302L14.0122 2.95986C12.9069 3.01393 10.4944 3.52216 7.5399 6.52833C7.51864 6.54996 7.49739 6.5824 7.47613 6.60403L1.07812 16.6933C1.00372 16.8015 0.982464 16.942 1.01435 17.061C1.04623 17.1907 1.13125 17.2989 1.23754 17.3529L7.81619 21.0296C7.92247 21.0945 8.05 21.1053 8.16691 21.0728C8.28383 21.0404 8.37947 20.9539 8.44324 20.8458L9.15531 19.4941V41.035C9.15531 41.2945 9.35724 41.5 9.61231 41.5H32.3558C32.6108 41.5 32.8127 41.2945 32.8127 41.035V19.4941L33.5248 20.8458C33.578 20.9539 33.6842 21.0404 33.8011 21.0728C33.9181 21.1053 34.0456 21.0945 34.1519 21.0296L40.7305 17.3529C40.8474 17.2881 40.9218 17.1799 40.9537 17.061C41.0281 16.942 41.0068 16.8015 40.9325 16.6933L40.9331 16.6933ZM27.8182 4.12836L23.1207 8.90795L21.7071 7.46974L26.4047 2.69015L27.8182 4.12836ZM21.0164 6.84253L17.9236 3.69582H24.1197L21.0164 6.84253ZM25.3313 2.45228L24.7361 3.05784H17.3178L16.7226 2.45228H25.3313ZM15.6173 2.67937L20.3149 7.45895L18.9014 8.89716L14.2038 4.11757L15.6173 2.67937ZM19.4115 40.559H10.1015V17.6022C10.1015 17.386 9.95273 17.2021 9.7508 17.1481C9.54886 17.094 9.33631 17.1913 9.23003 17.386L7.86966 19.992L2.13064 16.7912L7.78473 7.87008L8.97505 13.3309C9.02819 13.5471 9.20886 13.6985 9.42143 13.6985C9.45331 13.6985 9.4852 13.6985 9.51708 13.6877C9.76152 13.6336 9.92094 13.3849 9.86781 13.1254L8.50744 6.88606C10.3885 5.05861 12.004 4.3449 13.0774 4.0745V4.17182V4.18263C13.0774 4.21507 13.088 4.2367 13.0987 4.26914V4.27996C13.1093 4.30158 13.1199 4.33402 13.1305 4.35565C13.1305 4.36646 13.1412 4.36646 13.1412 4.37728C13.1624 4.40972 13.1837 4.43135 13.2049 4.45297L18.5508 9.89219C18.6358 9.9787 18.7634 10.0328 18.8803 10.0328C18.9972 10.0328 19.1141 9.98952 19.2097 9.89219L19.401 9.69755V40.5596L19.4115 40.559ZM21.7816 40.559H20.3362V8.75667L21.0057 8.07542L21.7816 8.86481V40.559ZM34.1522 19.9809L32.7918 17.3749C32.6962 17.1803 32.4836 17.083 32.271 17.137C32.0691 17.1911 31.9203 17.3749 31.9203 17.5912V40.5479H22.6953V9.8055L22.7909 9.90283C22.8759 9.98933 22.9928 10.0434 23.1204 10.0434C23.2479 10.0434 23.3648 9.98934 23.4498 9.90283L28.7957 4.4636C28.817 4.44198 28.8382 4.40954 28.8595 4.3771C28.8595 4.36628 28.8701 4.36628 28.8701 4.35547C28.8807 4.33384 28.8914 4.31221 28.902 4.27977C28.902 4.26896 28.902 4.26896 28.9126 4.25815C28.9232 4.22571 28.9232 4.20408 28.9339 4.17164V4.16083V4.0635C30.0073 4.33384 31.6227 5.04753 33.5145 6.88584L32.1542 13.1252C32.101 13.3739 32.2604 13.6334 32.5049 13.6875C32.5368 13.6983 32.5686 13.6983 32.6005 13.6983C32.8131 13.6983 33.0044 13.5469 33.0469 13.3306L34.2372 7.86986L39.8913 16.791L34.1522 19.9809Z" stroke="white" stroke-width="2" mask="url(#path-9-outside-1_5093_25707)"/>
</g>
<defs>
<filter id="filter0_d_5093_25707" x="0" y="0.5" width="44.6602" height="44" filterUnits="userSpaceOnUse" color-interpolation-filters="sRGB">
<feFlood flood-opacity="0" result="BackgroundImageFix"/>
<feColorMatrix in="SourceAlpha" type="matrix" values="0 0 0 0 0 0 0 0 0 0 0 0 0 0 0 0 0 0 127 0" result="hardAlpha"/>
<feOffset dx="2" dy="2"/>
<feComposite in2="hardAlpha" operator="out"/>
<feColorMatrix type="matrix" values="0 0 0 0 0.8 0 0 0 0 1 0 0 0 0 0 0 0 0 1 0"/>
<feBlend mode="normal" in2="BackgroundImageFix" result="effect1_dropShadow_5093_25707"/>
<feBlend mode="normal" in="SourceGraphic" in2="effect1_dropShadow_5093_25707" result="shape"/>
</filter>
</defs>
</svg>
