<svg width="85" height="153" viewBox="0 0 85 153" fill="none" xmlns="http://www.w3.org/2000/svg">
<g filter="url(#filter0_d_4054_79852)">
<path d="M76.2278 1.64048C76.2006 1.00328 75.6764 0.5 75.0381 0.5H7.54903C6.91078 0.5 6.38659 1.00328 6.35937 1.64048L0.223854 149.259C0.209205 149.582 0.329531 149.898 0.553451 150.133C0.778407 150.368 1.08812 150.5 1.41247 150.5H27.1811C27.7764 150.5 28.2797 150.06 28.3613 149.471L41.8556 51.0876L54.2231 149.458C54.2984 150.053 54.8038 150.5 55.4044 150.5L81.1751 150.499C81.4984 150.499 81.8092 150.367 82.0342 150.133C82.2581 149.898 82.3784 149.582 82.3638 149.259L76.2278 1.64048ZM59.0494 2.8814H61.5773V10.26H59.0494V2.8814ZM21.0111 2.8814H23.539V10.26H21.0111V2.8814ZM26.1443 148.119H2.65353L7.70825 26.5144L15.858 15.8336C16.2567 15.3115 16.1573 14.5644 15.6341 14.1658C15.112 13.7661 14.3639 13.8686 13.9663 14.3897L7.88194 22.3646L8.69073 2.88123H18.6295V11.4505C18.6295 12.1076 19.1621 12.6412 19.8203 12.6412H24.7285C25.3866 12.6412 25.9192 12.1076 25.9192 11.4505V2.88123H35.81V30.9713C35.81 36.4844 39.4095 40.9656 40.6523 42.3499L26.1443 148.119ZM56.4549 148.119L43.0894 41.8036C43.0863 41.7722 43.0695 41.744 43.0622 41.7147C43.0507 41.6592 43.034 41.609 43.0141 41.5557C42.9848 41.4709 42.9461 41.3945 42.8969 41.3192C42.8676 41.2731 42.8372 41.2292 42.8017 41.1863C42.7818 41.1622 42.7692 41.1329 42.7473 41.1099C42.7023 41.0639 38.1883 36.4883 38.1883 30.9732L38.1894 2.88305H56.6683V11.4523C56.6683 12.1094 57.2009 12.643 57.859 12.643H62.7672C63.4253 12.643 63.9579 12.1094 63.9579 11.4523L63.9568 2.88305H73.8956L74.7055 22.3653L68.6211 14.3904C68.2235 13.8683 67.4744 13.7668 66.9533 14.1665C66.4312 14.5652 66.3307 15.3122 66.7294 15.8344L74.8792 26.5151L79.9339 148.119L56.4549 148.119Z" fill="black"/>
<path d="M43.1335 4.16016C41.1236 4.16016 39.4883 5.78821 39.4883 7.79095C39.4883 9.79369 41.1226 11.4207 43.1335 11.4207C45.1446 11.4207 46.7788 9.79262 46.7788 7.79095C46.7788 5.78929 45.1434 4.16016 43.1335 4.16016ZM43.1335 9.03916C42.4367 9.03916 41.8696 8.47832 41.8696 7.78985C41.8696 7.10034 42.4377 6.5395 43.1335 6.5395C43.8304 6.5395 44.3975 7.10034 44.3975 7.78985C44.3965 8.48041 43.8304 9.03916 43.1335 9.03916Z" fill="black"/>
</g>
<defs>
<filter id="filter0_d_4054_79852" x="0.222656" y="0.5" width="84.1426" height="152" filterUnits="userSpaceOnUse" color-interpolation-filters="sRGB">
<feFlood flood-opacity="0" result="BackgroundImageFix"/>
<feColorMatrix in="SourceAlpha" type="matrix" values="0 0 0 0 0 0 0 0 0 0 0 0 0 0 0 0 0 0 127 0" result="hardAlpha"/>
<feOffset dx="2" dy="2"/>
<feComposite in2="hardAlpha" operator="out"/>
<feColorMatrix type="matrix" values="0 0 0 0 1 0 0 0 0 0.45098 0 0 0 0 0.580392 0 0 0 0.7 0"/>
<feBlend mode="normal" in2="BackgroundImageFix" result="effect1_dropShadow_4054_79852"/>
<feBlend mode="normal" in="SourceGraphic" in2="effect1_dropShadow_4054_79852" result="shape"/>
</filter>
</defs>
</svg>
