<svg width="40" height="41" viewBox="0 0 40 41" fill="none" xmlns="http://www.w3.org/2000/svg">
<g filter="url(#filter0_d_4771_130570)">
<path d="M5.23084 37.062H7.29046C7.62697 37.062 7.89983 36.7894 7.89983 36.4526C7.89983 36.1158 7.62697 35.8432 7.29046 35.8432H5.78227L5.4463 32.4815C5.41284 32.1472 5.11712 31.9078 4.77925 31.9358C4.44436 31.9693 4.20007 32.268 4.23353 32.6029L4.62446 36.5132C4.65575 36.8244 4.91799 37.0619 5.23084 37.0619L5.23084 37.062Z" fill="black"/>
<path d="M25.8908 24.2656H33.1761C34.1193 24.2656 34.9196 23.5295 34.998 22.5893L35.1503 20.7612C35.1925 20.253 35.0192 19.7465 34.674 19.3716C34.3287 18.9967 33.8385 18.7812 33.3285 18.7812H26.0682C25.1223 18.7812 24.3399 19.4913 24.2488 20.4326L24.0711 22.2601C24.0211 22.7727 24.1908 23.2844 24.5366 23.6658C24.8821 24.0472 25.3753 24.2657 25.8903 24.2657L25.8908 24.2656ZM25.4617 20.5506C25.4925 20.2369 25.7531 20 26.0684 20H33.3287C33.5012 20 33.6603 20.0696 33.777 20.1969C33.894 20.3237 33.95 20.488 33.9359 20.6599L33.7835 22.4881C33.7574 22.8017 33.4908 23.0468 33.1763 23.0468H25.891C25.7169 23.0468 25.5566 22.9761 25.4396 22.8469C25.3229 22.7177 25.268 22.5517 25.2846 22.3787L25.4617 20.5506Z" fill="black"/>
<path d="M3.0251 39.4998H35.9314C36.2484 39.4998 36.5122 39.2569 36.5386 38.9411L38.147 19.6437C38.2174 18.7968 37.928 17.953 37.3529 17.3275C36.968 16.9094 36.4704 16.6237 35.9315 16.4716V15.125C35.9315 13.4452 34.5645 12.0781 32.8846 12.0781H32.2752V2.32813C32.2752 1.31991 31.4553 0.5 30.4471 0.5H8.50954C7.50132 0.5 6.68142 1.31991 6.68142 2.32813V7.81251H6.07204C4.39218 7.81251 3.02516 9.17954 3.02516 10.8594V20.1421C2.49576 20.3002 2.00802 20.5861 1.63118 21.0028C1.055 21.6397 0.773183 22.4953 0.858844 23.3506L2.41871 38.9513C2.44999 39.2625 2.71197 39.5 3.02509 39.5L3.0251 39.4998ZM32.2752 13.2966H32.8845C33.8928 13.2966 34.7127 14.1166 34.7127 15.1248V16.3435H32.2752V13.2966ZM7.90011 2.32788C7.90011 1.99163 8.17352 1.7185 8.50949 1.7185H30.447C30.783 1.7185 31.0564 1.99163 31.0564 2.32788V16.3435H24.6454C23.919 16.3435 23.2147 16.6041 22.6625 17.0772L19.7663 19.5594C19.4347 19.8434 19.0125 19.9998 18.5764 19.9998H7.90011V2.32788ZM4.24386 10.8591C4.24386 9.85092 5.06376 9.03102 6.07198 9.03102H6.68136V19.9998H4.24386V10.8591ZM2.53461 21.8203C2.88582 21.4323 3.36705 21.2188 3.89021 21.2188H18.5765C19.3029 21.2188 20.0072 20.9582 20.5595 20.4851L23.4556 18.0029C23.7873 17.7189 24.2095 17.5625 24.6456 17.5625H35.1108C35.6282 17.5625 36.1059 17.772 36.4563 18.1528C36.8064 18.5337 36.9754 19.0272 36.9327 19.5424L35.3711 38.2813H3.57701L2.07182 23.2286C2.01986 22.7079 2.18444 22.2077 2.5351 21.82L2.53461 21.8203Z" fill="black"/>
<path d="M9.75391 37.0625H10.9403C11.2768 37.0625 11.5497 36.7899 11.5497 36.4531C11.5497 36.1163 11.2768 35.8438 10.9403 35.8438H9.75391C9.41739 35.8438 9.14453 36.1163 9.14453 36.4531C9.14453 36.7899 9.41739 37.0625 9.75391 37.0625Z" fill="black"/>
<path d="M10.9473 4.76563H28.6192C28.9557 4.76563 29.2286 4.49304 29.2286 4.15625C29.2286 3.81946 28.9557 3.54688 28.6192 3.54688H10.9473C10.6108 3.54688 10.3379 3.81946 10.3379 4.15625C10.3379 4.49304 10.6108 4.76563 10.9473 4.76563Z" fill="black"/>
<path d="M28.6192 5.98438H18.8691C18.5326 5.98438 18.2598 6.25696 18.2598 6.59375C18.2598 6.93054 18.5326 7.20313 18.8691 7.20313H28.6192C28.9557 7.20313 29.2285 6.93054 29.2285 6.59375C29.2285 6.25696 28.9557 5.98438 28.6192 5.98438Z" fill="black"/>
<path d="M10.9473 7.20313H15.2129C15.5494 7.20313 15.8223 6.93054 15.8223 6.59375C15.8223 6.25696 15.5494 5.98438 15.2129 5.98438H10.9473C10.6108 5.98438 10.3379 6.25696 10.3379 6.59375C10.3379 6.93054 10.6108 7.20313 10.9473 7.20313Z" fill="black"/>
<path d="M28.6191 8.42188H26.791C26.4545 8.42188 26.1816 8.69446 26.1816 9.03125C26.1816 9.36804 26.4545 9.64063 26.791 9.64063H28.6191C28.9557 9.64063 29.2285 9.36804 29.2285 9.03125C29.2285 8.69446 28.9557 8.42188 28.6191 8.42188Z" fill="black"/>
<path d="M24.9629 9.03125C24.9629 8.69446 24.6901 8.42188 24.3535 8.42188H10.9473C10.6108 8.42188 10.3379 8.69446 10.3379 9.03125C10.3379 9.36804 10.6108 9.64063 10.9473 9.64063H24.3535C24.6901 9.64063 24.9629 9.36804 24.9629 9.03125Z" fill="black"/>
</g>
<defs>
<filter id="filter0_d_4771_130570" x="0.84375" y="0.5" width="38.3145" height="40" filterUnits="userSpaceOnUse" color-interpolation-filters="sRGB">
<feFlood flood-opacity="0" result="BackgroundImageFix"/>
<feColorMatrix in="SourceAlpha" type="matrix" values="0 0 0 0 0 0 0 0 0 0 0 0 0 0 0 0 0 0 127 0" result="hardAlpha"/>
<feOffset dx="1" dy="1"/>
<feComposite in2="hardAlpha" operator="out"/>
<feColorMatrix type="matrix" values="0 0 0 0 0.8 0 0 0 0 1 0 0 0 0 0 0 0 0 1 0"/>
<feBlend mode="normal" in2="BackgroundImageFix" result="effect1_dropShadow_4771_130570"/>
<feBlend mode="normal" in="SourceGraphic" in2="effect1_dropShadow_4771_130570" result="shape"/>
</filter>
</defs>
</svg>
