<svg width="41" height="40" viewBox="0 0 41 40" fill="none" xmlns="http://www.w3.org/2000/svg">
<g filter="url(#filter0_d_5093_25694)">
<path d="M23 35V22.5C23 21.8097 23.5596 21.25 24.25 21.25H29.25C29.9404 21.25 30.5 21.8097 30.5 22.5V35M23 35H4.4348M23 35H30.5M30.5 35H36.5652M34.25 35V15.5813M6.75 35V15.5817M6.75 15.5817C8.66215 16.6869 11.1496 16.4216 12.7855 14.7857C12.8599 14.7113 12.9314 14.6352 13.0001 14.5574C13.9163 15.5954 15.2567 16.25 16.75 16.25C18.2434 16.25 19.5838 15.5953 20.5 14.5573C21.4162 15.5953 22.7566 16.25 24.25 16.25C25.7432 16.25 27.0835 15.5955 27.9997 14.5576C28.0683 14.6353 28.1397 14.7113 28.214 14.7855C29.85 16.4216 32.3378 16.6868 34.25 15.5813M6.75 15.5817C6.37981 15.3677 6.03118 15.1024 5.71447 14.7857C3.76184 12.8331 3.76184 9.66724 5.71447 7.71462L7.69661 5.73248C8.16545 5.26364 8.80134 5.00024 9.46438 5.00024H31.5353C32.1983 5.00024 32.8342 5.26364 33.3031 5.73248L35.2851 7.71448C37.2377 9.6671 37.2377 12.8329 35.2851 14.7855C34.9685 15.1021 34.62 15.3674 34.25 15.5813M11.75 30H18C18.6904 30 19.25 29.4404 19.25 28.75V22.5C19.25 21.8097 18.6904 21.25 18 21.25H11.75C11.0596 21.25 10.5 21.8097 10.5 22.5V28.75C10.5 29.4404 11.0596 30 11.75 30Z" stroke="black" stroke-width="1.5" stroke-linecap="round" stroke-linejoin="round"/>
</g>
<defs>
<filter id="filter0_d_5093_25694" x="0.5" y="0" width="42" height="42" filterUnits="userSpaceOnUse" color-interpolation-filters="sRGB">
<feFlood flood-opacity="0" result="BackgroundImageFix"/>
<feColorMatrix in="SourceAlpha" type="matrix" values="0 0 0 0 0 0 0 0 0 0 0 0 0 0 0 0 0 0 127 0" result="hardAlpha"/>
<feOffset dx="2" dy="2"/>
<feColorMatrix type="matrix" values="0 0 0 0 0.8 0 0 0 0 1 0 0 0 0 0 0 0 0 1 0"/>
<feBlend mode="normal" in2="BackgroundImageFix" result="effect1_dropShadow_5093_25694"/>
<feBlend mode="normal" in="SourceGraphic" in2="effect1_dropShadow_5093_25694" result="shape"/>
</filter>
</defs>
</svg>
