<svg width="36" height="45" viewBox="0 0 36 45" fill="none" xmlns="http://www.w3.org/2000/svg">
<g opacity="0.3">
<path opacity="0.3" d="M25.0232 9.82359C24.0437 9.82264 23.1046 9.4331 22.412 8.7405C21.7194 8.0479 21.3299 7.1088 21.3289 6.12931V1H4.8212C3.54255 1 2.31625 1.50796 1.4121 2.4121C0.507958 3.31625 0 4.5425 0 5.82116V34.8844C0 36.163 0.507958 37.3893 1.4121 38.2935C2.31625 39.1976 3.54255 39.7056 4.8212 39.7056H24.6362C25.9148 39.7056 27.1411 39.1976 28.0453 38.2935C28.9494 37.3893 29.4574 36.163 29.4574 34.8844V9.82359H25.0232Z" fill="#00C650"/>
</g>
<path d="M29.4576 9.82359H25.0234C24.0439 9.82264 23.1048 9.4331 22.4122 8.7405C21.7196 8.0479 21.3301 7.1088 21.3291 6.12931V1L29.4576 9.82359Z" fill="#00C650"/>
<path d="M32.9542 31.5664H10.5521C8.96302 31.5664 7.6748 32.8546 7.6748 34.4437V41.1228C7.6748 42.7118 8.96302 44.0001 10.5521 44.0001H32.9542C34.5433 44.0001 35.8314 42.7118 35.8314 41.1228V34.4437C35.8314 32.8546 34.5433 31.5664 32.9542 31.5664Z" fill="#00C650"/>
<path d="M15.6635 39.2285V40.531H14.3145V39.2285H15.6635Z" fill="white"/>
<path d="M19.6107 40.5318L18.4767 38.8549L17.5003 40.5318H16.0079L17.7296 37.7584L15.9541 35.1445H17.5003L18.6057 36.7677L19.5588 35.1445H21.044L19.3456 37.857L21.1587 40.5318H19.6107Z" fill="white"/>
<path d="M25.3149 39.8002C25.1603 40.0476 24.9384 40.2459 24.6753 40.3717C24.355 40.5217 24.004 40.5947 23.6505 40.5849C23.1171 40.6073 22.5915 40.4516 22.1563 40.1424C21.9638 39.9979 21.8063 39.8119 21.6956 39.5982C21.5849 39.3845 21.5237 39.1486 21.5167 38.908H22.9034C22.9133 39.0895 22.9906 39.2607 23.1202 39.3882C23.2492 39.5084 23.4204 39.5728 23.5967 39.5673C23.6685 39.5715 23.7405 39.5615 23.8085 39.5378C23.8764 39.5142 23.939 39.4773 23.9927 39.4294C24.0405 39.383 24.0781 39.3272 24.103 39.2655C24.128 39.2038 24.1399 39.1376 24.1378 39.071C24.1396 39.0079 24.1286 38.945 24.1055 38.8862C24.0824 38.8274 24.0477 38.7739 24.0034 38.7289C23.9086 38.6329 23.796 38.5562 23.672 38.5031C23.5418 38.4458 23.359 38.3759 23.1238 38.2935C22.8382 38.1994 22.5593 38.0862 22.2889 37.9549C22.0666 37.8404 21.8759 37.673 21.7335 37.4676C21.5682 37.2188 21.4866 36.9239 21.5006 36.6255C21.4941 36.3299 21.5792 36.0395 21.7442 35.7942C21.9137 35.5545 22.148 35.3681 22.4197 35.2567C22.7328 35.1294 23.0689 35.0684 23.4068 35.0776C23.9199 35.0493 24.4267 35.2007 24.8401 35.5058C25.0161 35.6489 25.1602 35.8272 25.2633 36.0293C25.3663 36.2314 25.426 36.4528 25.4385 36.6792H24.0285C24.0128 36.5207 23.9447 36.372 23.835 36.2565C23.779 36.2028 23.7126 36.1611 23.6399 36.134C23.5672 36.1069 23.4897 36.0949 23.4122 36.0988C23.2779 36.0927 23.1459 36.136 23.0413 36.2206C22.9931 36.2664 22.9555 36.3222 22.9314 36.3841C22.9072 36.4461 22.8971 36.5126 22.9016 36.5789C22.8988 36.6994 22.9439 36.816 23.027 36.9032C23.1161 36.9963 23.2235 37.0701 23.3423 37.12C23.4695 37.1756 23.6523 37.2472 23.8906 37.3332C24.1813 37.4279 24.4645 37.5441 24.738 37.6808C24.9613 37.8013 25.1538 37.9717 25.3005 38.1788C25.4677 38.4315 25.5505 38.7307 25.537 39.0334C25.5346 39.3045 25.4578 39.5698 25.3149 39.8002Z" fill="white"/>
<path d="M27.5605 39.5339H29.3055V40.5318H26.2598V35.1445H27.5641L27.5605 39.5339Z" fill="white"/>
<path d="M21.3005 28.0243H8.1645C7.02684 28.0243 6.10059 26.892 6.10059 25.4982V15.9687C6.10059 14.5766 7.02684 13.4443 8.1645 13.4443H21.3058C22.4417 13.4443 23.368 14.5766 23.368 15.9687V25.4982C23.3626 26.892 22.4363 28.0243 21.3005 28.0243ZM8.1645 14.7343C7.60732 14.7343 7.15586 15.2879 7.15586 15.9687V25.4982C7.15586 26.179 7.60732 26.7326 8.1645 26.7326H21.3058C21.8612 26.7326 22.3127 26.179 22.3127 25.4982V15.9687C22.3127 15.2879 21.8612 14.7343 21.3058 14.7343H8.1645Z" fill="#00C650"/>
<path d="M22.8352 22.2861H6.62305V23.5779H22.8352V22.2861Z" fill="#00C650"/>
<path d="M22.8352 17.8574H6.62305V19.1492H22.8352V17.8574Z" fill="#00C650"/>
<path d="M18.6824 14.0898H17.3906V27.3781H18.6824V14.0898Z" fill="#00C650"/>
<path d="M12.0661 14.0898H10.7744V27.3781H12.0661V14.0898Z" fill="#00C650"/>
</svg>
