<svg width="13" height="13" viewBox="0 0 13 13" fill="none" xmlns="http://www.w3.org/2000/svg">
<path fill-rule="evenodd" clip-rule="evenodd" d="M12.5 6.5C12.5 9.81371 9.81372 12.5 6.50001 12.5C3.1863 12.5 0.5 9.81371 0.5 6.5C0.5 3.18629 3.1863 0.5 6.50001 0.5C9.81372 0.5 12.5 3.18629 12.5 6.5ZM7.25001 3.5C7.25001 3.91421 6.91422 4.25 6.50001 4.25C6.0858 4.25 5.75001 3.91421 5.75001 3.5C5.75001 3.08579 6.0858 2.75 6.50001 2.75C6.91422 2.75 7.25001 3.08579 7.25001 3.5ZM5.75001 5.75C5.33579 5.75 5.00001 6.08579 5.00001 6.5C5.00001 6.91421 5.33579 7.25 5.75001 7.25V9.5C5.75001 9.91421 6.0858 10.25 6.50001 10.25H7.25001C7.66422 10.25 8.00001 9.91421 8.00001 9.5C8.00001 9.08579 7.66422 8.75 7.25001 8.75V6.5C7.25001 6.08579 6.91422 5.75 6.50001 5.75H5.75001Z" fill="black" fill-opacity="0.5"/>
</svg>
