<svg width="76" height="153" viewBox="0 0 76 153" fill="none" xmlns="http://www.w3.org/2000/svg">
<g filter="url(#filter0_d_4054_79199)">
<path d="M39.0078 0.738475H34.6012V29.1964L4.67581 56.5526C1.92238 58.9398 0.269152 62.7946 0.453404 66.4662V137.335C0.453404 141.006 1.92234 144.495 4.3096 146.882C6.87989 149.452 10.1854 150.738 13.857 150.738L59.7563 150.555C63.4279 150.555 66.7333 149.086 69.3036 146.699C71.8739 144.129 73.1598 140.823 73.1598 137.152V66.2831C73.1598 62.979 71.5077 59.3061 68.7532 56.5525L38.8265 29.0129L38.8252 0.738281L39.0078 0.738475ZM59.7546 146.147L13.8553 146.331C11.4682 146.331 9.08214 145.412 7.42878 143.76C5.7767 142.108 4.85849 139.721 4.85849 137.334V66.4652C4.67535 64.2624 5.59232 61.8753 7.24564 60.4065C7.42878 60.2233 7.42877 60.2233 7.61319 60.0389L34.419 35.4372V52.5111C31.8487 53.0618 29.6458 54.1632 27.8095 55.9998C25.4224 58.3869 24.1379 61.691 24.1379 64.9964C24.1379 68.3005 25.4237 71.6059 27.9941 73.993C30.3813 76.3801 33.6853 77.8492 36.9907 77.8492C40.2948 77.8492 43.4173 76.5633 45.9873 73.993C48.5576 71.4227 49.8435 68.3018 49.8435 64.9964C49.8435 58.9377 45.2536 53.6137 39.3778 52.5124V35.4385L65.8135 59.857C67.65 61.6935 68.7513 64.0794 68.7513 66.2835V137.152C68.7513 142.108 64.7122 146.148 59.7547 146.148L59.7546 146.147ZM34.4179 65.9154H38.8245V56.9189C42.3132 57.8371 44.8832 61.1413 44.8832 64.8129C44.8832 69.2195 41.027 73.0744 36.6217 73.0744C32.215 73.0744 28.3602 69.2182 28.3602 64.8129C28.3602 62.6101 29.2784 60.5905 30.7473 58.9371C31.6656 58.0189 32.9501 57.285 34.236 56.9175L34.2347 65.9154L34.4179 65.9154Z" fill="black"/>
<path d="M34.9762 1.11348H38.4502L38.4515 29.0129L38.4515 29.1774L38.5726 29.2888L68.4934 56.823C71.187 59.5183 72.7848 63.0971 72.7848 66.2831V137.152C72.7848 140.728 71.5354 143.934 69.0432 146.429C66.5355 148.756 63.321 150.18 59.7563 150.18H59.7548L13.857 150.363C13.8565 150.363 13.856 150.363 13.8555 150.363C10.2773 150.363 7.06981 149.112 4.57476 146.617C2.2597 144.302 0.828404 140.91 0.828404 137.335V66.4662V66.4568L0.827933 66.4474C0.649464 62.8911 2.25509 59.1477 4.92146 56.836L4.92154 56.8361L4.92883 56.8294L34.8542 29.4731L34.9762 29.3616V29.1964V1.11348ZM13.8568 146.706L59.6987 146.523H59.7547C64.9193 146.523 69.1263 142.315 69.1263 137.152V66.2835C69.1263 63.9608 67.9706 61.4838 66.0786 59.5918L66.0734 59.5865L66.0679 59.5815L39.6322 35.1631L39.0028 34.5817V35.4385V52.5124V52.8237L39.3087 52.881C45.0129 53.9501 49.4685 59.124 49.4685 64.9964C49.4685 68.1977 48.2254 71.2245 45.7221 73.7278L45.9873 73.993L45.7221 73.7278C43.2191 76.2312 40.1908 77.4742 36.9907 77.4742C33.7932 77.4742 30.5823 76.0508 28.2593 73.7278L28.2595 73.7276L28.2493 73.7182C25.7613 71.4076 24.5129 68.2047 24.5129 64.9964C24.5129 61.7851 25.7615 58.5781 28.0747 56.2649L27.8095 55.9998L28.0747 56.2649C29.8534 54.4859 31.9885 53.4154 34.4976 52.8778L34.794 52.8143V52.5111V35.4372V34.5841L34.1655 35.161L7.35963 59.7626L7.35371 59.7681L7.34803 59.7738L6.98819 60.1336C5.25262 61.6807 4.29688 64.1726 4.48349 66.4805V137.334C4.48349 139.812 5.43527 142.297 7.16361 144.025L7.16372 144.025C8.89324 145.754 11.3774 146.706 13.8553 146.706H13.8568ZM38.4495 56.9189V65.5404H34.6098L34.611 56.9175L34.6111 56.4203L34.1329 56.5569C32.7901 56.9407 31.4486 57.7055 30.4822 58.672L30.4743 58.6798L30.467 58.688C28.9494 60.3962 27.9852 62.5013 27.9852 64.8129C27.9852 69.4253 32.0079 73.4494 36.6217 73.4494C41.2341 73.4494 45.2582 69.4267 45.2582 64.8129C45.2582 60.971 42.5735 57.5178 38.92 56.5562L38.4495 56.4324V56.9189Z" stroke="white" stroke-width="0.75"/>
</g>
<defs>
<filter id="filter0_d_4054_79199" x="0.439453" y="0.738281" width="74.7207" height="152" filterUnits="userSpaceOnUse" color-interpolation-filters="sRGB">
<feFlood flood-opacity="0" result="BackgroundImageFix"/>
<feColorMatrix in="SourceAlpha" type="matrix" values="0 0 0 0 0 0 0 0 0 0 0 0 0 0 0 0 0 0 127 0" result="hardAlpha"/>
<feOffset dx="2" dy="2"/>
<feComposite in2="hardAlpha" operator="out"/>
<feColorMatrix type="matrix" values="0 0 0 0 1 0 0 0 0 0.45098 0 0 0 0 0.580392 0 0 0 0.7 0"/>
<feBlend mode="normal" in2="BackgroundImageFix" result="effect1_dropShadow_4054_79199"/>
<feBlend mode="normal" in="SourceGraphic" in2="effect1_dropShadow_4054_79199" result="shape"/>
</filter>
</defs>
</svg>
