<svg width="20" height="18" viewBox="0 0 20 18" fill="none" xmlns="http://www.w3.org/2000/svg">
<path d="M18.9906 3.15172C18.9904 3.1519 18.9902 3.15208 18.9901 3.15226L18.0931 4.05695L18.5521 4.58764C18.7763 4.82621 18.7757 5.19839 18.5504 5.43628L9.23995 15.6333C9.23325 15.6407 9.22593 15.6474 9.21809 15.6535L9.13821 15.7156C9.1075 15.7395 9.06973 15.7524 9.03084 15.7524H8.99454C8.92472 15.7649 8.85326 15.7649 8.78343 15.7524H6.39809L5.24377 16.8984L5.24332 16.8988L4.80238 17.3397C4.68918 17.4601 4.53054 17.5279 4.36507 17.5261M18.9906 3.15172L4.36613 17.3511M18.9906 3.15172C19.1085 3.03846 19.175 2.88203 19.175 2.71861C19.175 2.55381 19.1074 2.39611 18.9876 2.28263M18.9906 3.15172L18.9876 2.28263M4.36507 17.5261C4.36468 17.5261 4.3643 17.5261 4.36392 17.5261L4.36613 17.3511M4.36507 17.5261H4.36613V17.3511M4.36507 17.5261L1.89296 17.5261L1.89198 17.3511M4.36613 17.3511H1.89198M1.89198 17.3511V17.5261H1.89262M1.89198 17.3511L1.89262 17.5261M1.89262 17.5261C1.60993 17.5276 1.3383 17.4163 1.13788 17.217L1.2613 17.0929L1.13788 17.217C0.937403 17.0176 0.824675 16.7463 0.825001 16.4635L1 16.4636L0.825001 16.4633L1.89262 17.5261ZM18.9876 2.28263L17.2178 0.512451C17.1043 0.392646 16.9466 0.325 16.7818 0.325C16.6171 0.325 16.4596 0.392523 16.3461 0.512145L15.4512 1.39926L14.9979 0.952968L14.9979 0.952952L14.9959 0.95105C14.7576 0.723727 14.3829 0.723234 14.144 0.949564L3.94671 10.2424C3.93933 10.2492 3.93253 10.2565 3.92639 10.2644L3.86434 10.3443C3.84048 10.375 3.82753 10.4128 3.82753 10.4517V10.488C3.81506 10.5578 3.81506 10.6293 3.82753 10.6991V13.0819L2.60451 14.2538L2.60449 14.2538L2.60221 14.256L1.13914 15.7104L18.9876 2.28263ZM6.14125 14.5154C5.97583 14.5137 5.81757 14.5814 5.70436 14.7014M6.14125 14.5154C6.14167 14.5154 6.14208 14.5154 6.14249 14.5154L6.14028 14.6904M6.14125 14.5154H6.14028V14.6904M6.14125 14.5154H7.30517M5.70436 14.7014L6.14028 14.6904M5.70436 14.7014L4.81058 15.5875L3.91293 14.6899L4.79905 13.7961L5.70436 14.7014ZM6.14028 14.6904H7.48018L7.30517 14.5154M7.30517 14.5154L4.98505 12.1953M7.30517 14.5154L4.98505 12.1953M4.98505 12.1953V13.3592V13.3602H4.81005L4.98505 12.1953ZM3.75779 16.2891H2.31473L3.03621 15.5675L3.75779 16.2891ZM7.55266 14.5154L7.72766 14.6904L7.55266 14.5154ZM8.79449 14.2422L5.25878 10.7229L14.5597 2.24212L17.2588 4.94115L8.79449 14.2422ZM17.2257 3.17159L16.3291 2.275L16.7822 1.82187L17.6788 2.71846L17.2257 3.17159Z" fill="black" stroke="black" stroke-width="0.35" stroke-linejoin="round"/>
</svg>
