<svg width="152" height="153" viewBox="0 0 152 153" fill="none" xmlns="http://www.w3.org/2000/svg">
<g filter="url(#filter0_d_3897_76871)">
<path d="M137 31.009C137 31.0048 136.997 31.002 136.997 30.9978C136.996 30.74 136.945 30.4836 136.845 30.2412C136.641 29.7495 136.249 29.3572 135.757 29.1541C135.512 29.0518 135.252 29 134.99 29H115.355C115.093 29 114.832 29.0532 114.587 29.1541C114.341 29.2564 114.118 29.4035 113.932 29.5898L30.4111 113.111C30.4013 113.119 30.3999 113.134 30.3901 113.143C30.3453 113.19 30.3229 113.255 30.2822 113.307C30.2122 113.395 30.1519 113.487 30.0987 113.583C30.0637 113.646 30.0077 113.695 29.9796 113.763C29.9726 113.778 29.9698 113.793 29.9628 113.81C29.96 113.816 29.9558 113.819 29.953 113.824L17.9853 145.176L15.5884 147.572C14.8039 148.356 14.8039 149.627 15.5884 150.412C15.9806 150.804 16.4947 151 17.0089 151C17.523 151 18.0371 150.804 18.4293 150.412L20.8249 148.016L52.181 136.045C52.1894 136.042 52.195 136.034 52.2034 136.031C52.3239 135.983 52.422 135.893 52.5326 135.822C52.6475 135.748 52.775 135.692 52.8703 135.598C52.8745 135.594 52.8815 135.592 52.8857 135.588L136.406 52.0632C136.541 51.9287 136.621 51.7662 136.709 51.6079C136.748 51.5392 136.807 51.4874 136.838 51.4131C136.94 51.1652 136.995 50.9032 136.993 50.6398C136.993 50.6398 136.995 50.637 136.995 50.6356L137 31.009ZM50.6284 112.533H36.6728L116.184 33.0174H130.139L50.6284 112.533ZM33.2152 116.551H49.46V132.787L23.1891 142.817L33.2152 116.551ZM53.4762 115.365L132.98 35.8572V49.8136L53.4762 129.322V115.365Z" fill="black"/>
<path d="M52.3292 135.507C52.2861 135.535 52.2328 135.573 52.1944 135.601C52.179 135.612 52.166 135.622 52.157 135.628C52.1131 135.659 52.087 135.673 52.0677 135.681C52.0454 135.69 52.0265 135.699 52.0114 135.708L20.6911 147.666L20.6163 147.694L20.5597 147.751L18.1642 150.146L18.4293 150.412L18.1642 150.146C17.8451 150.466 17.4276 150.625 17.0089 150.625C16.5901 150.625 16.1727 150.466 15.8535 150.146C15.2155 149.508 15.2155 148.475 15.8535 147.837L18.2504 145.441L18.3071 145.385L18.3356 145.31L30.2893 113.995C30.2923 113.989 30.2953 113.984 30.2982 113.978L30.304 113.966L30.309 113.954C30.3151 113.94 30.3197 113.927 30.323 113.917C30.3235 113.915 30.324 113.914 30.3245 113.912C30.3267 113.909 30.3299 113.905 30.3341 113.899L30.3395 113.893C30.3478 113.882 30.3609 113.865 30.3719 113.85C30.3876 113.828 30.4074 113.8 30.4265 113.765L30.4272 113.764C30.4705 113.685 30.5192 113.612 30.576 113.54L30.5774 113.539C30.6006 113.509 30.6185 113.481 30.6314 113.459C30.6409 113.443 30.6509 113.426 30.6571 113.415L30.6608 113.408C30.6646 113.401 30.6673 113.397 30.6691 113.394C30.6845 113.377 30.6968 113.361 30.7064 113.346L114.197 29.855L113.932 29.5901L114.197 29.8549C114.347 29.7047 114.528 29.5847 114.731 29.5006C114.932 29.4178 115.144 29.375 115.355 29.375H134.99C135.202 29.375 135.414 29.417 135.613 29.5002L135.614 29.5007C136.014 29.6658 136.333 29.9848 136.498 30.3844L136.498 30.3853L136.492 51.2689M52.3292 135.507L52.5326 135.822L52.3291 135.507C52.3291 135.507 52.3292 135.507 52.3292 135.507ZM52.3292 135.507C52.3713 135.48 52.4289 135.446 52.4713 135.422C52.4897 135.411 52.5052 135.402 52.5153 135.396C52.5651 135.366 52.591 135.347 52.6071 135.331L52.8703 135.598L52.6051 135.333C52.62 135.318 52.6344 135.306 52.6471 135.296M52.6471 135.296L52.6205 135.323C52.6347 135.309 52.6482 135.298 52.6598 135.289C52.6713 135.28 52.6815 135.274 52.6891 135.269C52.6966 135.265 52.7027 135.261 52.706 135.26L52.7018 135.262C52.6972 135.264 52.6897 135.268 52.6809 135.274C52.6783 135.275 52.6755 135.277 52.6725 135.279C52.6652 135.283 52.6568 135.289 52.6478 135.296C52.6476 135.296 52.6473 135.296 52.6471 135.296ZM52.6471 135.296L136.141 51.798C136.217 51.7217 136.266 51.6345 136.343 51.4936C136.355 51.4721 136.368 51.4494 136.381 51.4252L136.383 51.4218C136.403 51.3876 136.423 51.3589 136.439 51.3369C136.453 51.3181 136.471 51.2941 136.478 51.2854C136.487 51.2736 136.492 51.267 136.493 51.2643M136.493 51.2643C136.493 51.2658 136.492 51.2674 136.492 51.2689M136.493 51.2643C136.577 51.0606 136.619 50.8498 136.618 50.6418L136.618 50.5525L136.62 50.5487M136.493 51.2643C136.494 51.2632 136.494 51.2627 136.495 51.2627C136.495 51.2627 136.493 51.2651 136.492 51.2689M136.492 51.2689L136.62 50.5487M136.62 50.5487L136.62 50.6355C136.62 50.5837 136.631 50.5445 136.634 50.5341C136.638 50.5181 136.643 50.5057 136.646 50.4994C136.646 50.4973 136.647 50.4954 136.648 50.4937C136.65 50.4891 136.651 50.4854 136.653 50.4826L136.655 50.4771L136.62 50.5487ZM136.62 50.5487L136.625 31.044M136.62 50.5487L136.997 30.9978H136.622C136.622 30.9981 136.622 30.9984 136.622 30.9987C136.622 31.0147 136.623 31.0298 136.625 31.044M136.625 31.044C136.626 31.0486 136.626 31.0531 136.627 31.0575C136.63 31.0756 136.633 31.0911 136.637 31.1037C136.641 31.116 136.644 31.1259 136.646 31.1322L136.647 31.1348M136.625 31.044L136.625 31.009C136.625 31.0295 136.627 31.0485 136.629 31.0657C136.632 31.0827 136.636 31.0974 136.639 31.109C136.641 31.1145 136.642 31.1195 136.644 31.1238C136.645 31.1283 136.646 31.1321 136.647 31.1348M136.647 31.1348C136.648 31.1373 136.649 31.1396 136.65 31.141L136.649 31.1396L136.647 31.1348ZM30.738 113.29C30.7375 113.291 30.7364 113.294 30.7351 113.296L30.7365 113.293L30.738 113.29ZM50.6284 112.908H50.7837L50.8935 112.798L130.405 33.2825L131.045 32.6424H130.139H116.184H116.029L115.919 32.7522L36.4076 112.267L35.7675 112.908H36.6728H50.6284ZM33.2152 116.176H32.957L32.8649 116.417L22.8388 142.683L22.5399 143.466L23.3229 143.167L49.5937 133.138L49.835 133.046V132.787V116.551V116.176H49.46H33.2152ZM53.211 115.1L53.1012 115.21V115.365V129.322V130.227L53.7414 129.587L133.245 50.0787L133.355 49.9689V49.8136V35.8572V34.9519L132.715 35.5921L53.211 115.1ZM136.838 51.4131L136.491 51.2694C136.491 51.2696 136.491 51.2699 136.491 51.2701L136.838 51.4131Z" stroke="white" stroke-width="0.75"/>
</g>
<defs>
<filter id="filter0_d_3897_76871" x="15" y="29" width="124" height="124" filterUnits="userSpaceOnUse" color-interpolation-filters="sRGB">
<feFlood flood-opacity="0" result="BackgroundImageFix"/>
<feColorMatrix in="SourceAlpha" type="matrix" values="0 0 0 0 0 0 0 0 0 0 0 0 0 0 0 0 0 0 127 0" result="hardAlpha"/>
<feOffset dx="2" dy="2"/>
<feComposite in2="hardAlpha" operator="out"/>
<feColorMatrix type="matrix" values="0 0 0 0 1 0 0 0 0 0.45098 0 0 0 0 0.580392 0 0 0 0.7 0"/>
<feBlend mode="normal" in2="BackgroundImageFix" result="effect1_dropShadow_3897_76871"/>
<feBlend mode="normal" in="SourceGraphic" in2="effect1_dropShadow_3897_76871" result="shape"/>
</filter>
</defs>
</svg>
