<svg width="154" height="153" viewBox="0 0 154 153" fill="none" xmlns="http://www.w3.org/2000/svg">
<g filter="url(#filter0_d_3897_76917)">
<path d="M136.469 122.609L136.697 122.473L136.644 122.212C136.549 121.752 136.499 121.281 136.499 120.795C136.499 116.894 139.675 113.719 143.576 113.719H143.578C147.479 113.719 150.655 116.894 150.655 120.795C150.655 124.697 147.479 127.872 143.578 127.872C141.88 127.872 140.336 127.244 139.109 126.234L138.905 126.066L138.678 126.202L113.428 141.335L113.199 141.472L113.253 141.733C113.348 142.193 113.397 142.664 113.397 143.15C113.397 147.051 110.222 150.226 106.321 150.226C102.466 150.226 99.3304 147.122 99.2598 143.281L99.2549 143.016L99.0034 142.932L60.1252 129.972L59.8741 129.888L59.7112 130.097C58.4128 131.757 56.4174 132.839 54.1618 132.839C52.0262 132.839 50.13 131.868 48.827 130.359L48.6539 130.158L48.4072 130.255L16.7447 142.582L16.4981 142.678L16.506 142.942C16.5077 143 16.5158 143.055 16.5205 143.087L16.5217 143.095C16.5271 143.132 16.528 143.143 16.528 143.15C16.528 147.051 13.3528 150.226 9.45148 150.226C5.5502 150.226 2.375 147.051 2.375 143.15C2.375 139.248 5.5502 136.073 9.45148 136.073C11.5868 136.073 13.4831 137.045 14.7838 138.553L14.9568 138.754L15.2038 138.658L46.8662 126.331L47.1129 126.235L47.105 125.97C47.1033 125.912 47.0952 125.857 47.0905 125.826L47.0893 125.818C47.0839 125.78 47.083 125.769 47.083 125.763C47.083 121.861 50.2582 118.686 54.1595 118.686C58.0142 118.686 61.1499 121.79 61.2204 125.631L61.2253 125.896L61.4768 125.98L100.355 138.94L100.606 139.024L100.769 138.815C102.067 137.155 104.063 136.073 106.318 136.073C108.016 136.073 109.56 136.7 110.787 137.711L110.991 137.879L111.218 137.743L136.469 122.609ZM6.5903 143.15C6.5903 144.725 7.8737 146.009 9.44913 146.009C11.0246 146.009 12.308 144.725 12.308 143.15C12.308 141.574 11.0246 140.291 9.44913 140.291C7.8737 140.291 6.5903 141.574 6.5903 143.15ZM51.2992 125.763C51.2992 127.338 52.5826 128.622 54.158 128.622C55.7335 128.622 57.0169 127.338 57.0169 125.763C57.0169 124.187 55.7335 122.904 54.158 122.904C52.5826 122.904 51.2992 124.187 51.2992 125.763ZM103.46 143.15C103.46 144.725 104.743 146.009 106.318 146.009C107.894 146.009 109.177 144.725 109.177 143.15C109.177 141.574 107.894 140.291 106.318 140.291C104.743 140.291 103.46 141.574 103.46 143.15ZM140.717 120.795C140.717 122.371 142 123.654 143.576 123.654C145.151 123.654 146.435 122.371 146.435 120.795C146.435 119.22 145.151 117.936 143.576 117.936C142 117.936 140.717 119.22 140.717 120.795Z" fill="black" stroke="white" stroke-width="0.75"/>
<path d="M31.8323 52.6862L31.8333 52.6851L51.2884 30.9716C51.2885 30.9715 51.2886 30.9713 51.2888 30.9712C51.6304 30.5911 52.1137 30.375 52.621 30.375H63.4467C64.4359 30.375 65.2375 31.1797 65.2375 32.172C65.2375 38.3971 70.2884 43.4629 76.497 43.4629C82.7069 43.4629 87.7566 38.3971 87.7566 32.172C87.7566 31.1783 88.5579 30.375 89.5473 30.375H100.373C100.879 30.375 101.362 30.5919 101.706 30.9721C101.706 30.9722 101.706 30.9724 101.707 30.9726L121.167 52.6836L121.167 52.6842C121.503 53.0574 121.665 53.5567 121.617 54.0592C121.566 54.5626 121.312 55.0191 120.91 55.3199L120.909 55.3206L104.482 67.6983L104.333 67.8108V67.9978V103.828C104.333 104.822 103.531 105.625 102.542 105.625H50.4582C49.469 105.625 48.6675 104.82 48.6675 103.828V67.9993V67.8124L48.5181 67.6998L32.0908 55.3222L32.0897 55.3213C31.6888 55.0217 31.4324 54.5637 31.3836 54.0617C31.3346 53.5571 31.4967 53.0577 31.8323 52.6862ZM104.328 62.5663V63.3184L104.929 62.8658L116.865 53.872L117.191 53.6263L116.919 53.3222L99.6864 34.0923L99.5746 33.9675H99.4071H91.5383H91.2131L91.1671 34.2896C90.1389 41.4961 83.9608 47.054 76.4975 47.054C69.0342 47.054 62.8563 41.4961 61.8279 34.2896L61.7819 33.9675H61.4566H53.5879H53.4204L53.3086 34.0923L36.0747 53.3222L35.8022 53.6263L36.1283 53.872L48.0641 62.8658L48.6648 63.3184V62.5663V51.714C48.6648 50.7203 49.4662 49.917 50.4556 49.917C51.4448 49.917 52.2463 50.7217 52.2463 51.714L52.2433 101.656L52.2433 102.031H52.6183H100.372H100.747V101.656V51.714C100.747 50.7203 101.548 49.917 102.537 49.917C103.527 49.917 104.328 50.7217 104.328 51.714V62.5663Z" fill="black" stroke="white" stroke-width="0.75"/>
</g>
<defs>
<filter id="filter0_d_3897_76917" x="2" y="30" width="151.029" height="122.602" filterUnits="userSpaceOnUse" color-interpolation-filters="sRGB">
<feFlood flood-opacity="0" result="BackgroundImageFix"/>
<feColorMatrix in="SourceAlpha" type="matrix" values="0 0 0 0 0 0 0 0 0 0 0 0 0 0 0 0 0 0 127 0" result="hardAlpha"/>
<feOffset dx="2" dy="2"/>
<feComposite in2="hardAlpha" operator="out"/>
<feColorMatrix type="matrix" values="0 0 0 0 1 0 0 0 0 0.45098 0 0 0 0 0.580392 0 0 0 0.7 0"/>
<feBlend mode="normal" in2="BackgroundImageFix" result="effect1_dropShadow_3897_76917"/>
<feBlend mode="normal" in="SourceGraphic" in2="effect1_dropShadow_3897_76917" result="shape"/>
</filter>
</defs>
</svg>
