<svg width="155" height="153" viewBox="0 0 155 153" fill="none" xmlns="http://www.w3.org/2000/svg">
<g filter="url(#filter0_d_3844_50145)">
<mask id="path-1-inside-1_3844_50145" fill="white">
<path d="M149.988 78.0397C148.551 77.6133 147.054 77.4309 145.557 77.498C142.529 77.61 139.633 78.7659 137.362 80.7713C136.606 81.5404 135.906 82.3622 135.27 83.2325C135.122 81.6327 134.925 80.0329 134.654 78.4571L134.432 77.8177L135.885 77.5715C138.906 76.9881 141.567 75.2147 143.269 72.6491C145.032 69.5724 145.742 66.0015 145.286 62.4844C145.158 61.2032 144.961 59.9297 144.696 58.6696C144.571 58.0125 144.381 57.3698 144.13 56.7501C143.703 55.7897 142.715 55.2074 141.669 55.2975C140.229 55.4953 138.833 55.9282 137.533 56.5776C134.896 57.851 132.763 59.9749 131.479 62.6077C131.019 63.5329 130.664 64.5075 130.421 65.5117C129.566 63.7372 128.612 62.0111 127.565 60.3431C128.24 60.0212 128.889 59.6509 129.51 59.2355C131.896 57.5413 133.522 54.9789 134.039 52.098C134.389 48.7434 133.711 45.3615 132.095 42.4002C131.272 40.9048 130.326 39.4807 129.264 38.1424C128.506 37.2084 127.184 36.959 126.138 37.5523C124.988 38.2621 123.965 39.1609 123.111 40.2102C121.311 42.3353 120.249 44.9864 120.084 47.7664C120.073 48.7948 120.139 49.8232 120.281 50.843C119.419 49.9574 118.484 49.096 117.524 48.2587C117.415 47.2819 117.217 46.3183 116.934 45.379C116.092 42.5563 114.279 40.1235 111.814 38.5117L111.518 38.3392H111.519C108.907 37.0317 105.922 36.6746 103.076 37.3306C101.724 37.6129 100.416 38.0755 99.1877 38.7084C98.1197 39.2918 97.6396 40.5686 98.056 41.7114C98.5318 42.9178 99.0998 44.0869 99.7536 45.2066L100.123 45.7977C101.185 47.747 102.749 49.3785 104.652 50.5225C106.669 51.6586 108.959 52.2201 111.273 52.1475H112.282H114.35C120.403 57.4458 125.009 64.1977 127.734 71.767C130.46 79.3363 131.215 87.4739 129.929 95.4156C129.798 95.9738 129.699 96.5397 129.633 97.1143C129.518 97.945 129.346 98.768 129.117 99.5756L127.96 103.587L126.41 107.501V107.5C126.097 108.233 125.743 108.948 125.351 109.641C125.08 110.134 124.809 110.65 124.636 111.044H124.637C119.337 120.682 110.881 128.199 100.69 132.334C97.81 133.491 94.4138 135.214 90.8449 137.035C86.7598 139.103 82.2306 141.415 77.8499 143.164C73.4692 141.417 68.9399 139.103 64.8549 137.035C61.262 135.213 57.8644 133.49 55.01 132.334H55.0089C44.8309 128.241 36.3739 120.766 31.0613 111.168L30.2734 109.667C29.8768 108.967 29.523 108.244 29.2153 107.5L27.665 103.612L26.4838 99.5012C26.2685 98.7584 26.1047 98.0025 25.9916 97.2377C25.9916 96.6719 25.8191 96.106 25.7213 95.6874L25.7202 95.6863C24.3797 87.6939 25.1104 79.4894 27.843 71.8596C30.5745 64.2287 35.2157 57.4253 41.3249 52.0984H43.4169H44.3773H44.3762C46.6902 52.172 48.9799 51.6094 50.9973 50.4744C52.9003 49.3295 54.4638 47.6989 55.5265 45.7486L55.9452 45.0838H55.9441C56.5791 43.9862 57.1307 42.8423 57.5933 41.6623C58.0097 40.5196 57.5296 39.2439 56.4616 38.6604C55.2562 38.044 53.9729 37.5968 52.6468 37.3309C49.7724 36.6508 46.7509 37.0266 44.1304 38.389L43.8348 38.5615H43.8359C41.3802 40.1558 39.5739 42.5732 38.7411 45.3793C38.44 46.333 38.2345 47.3142 38.1258 48.3074C37.1654 49.1447 36.2304 50.0061 35.369 50.8917C35.5107 49.8732 35.5766 48.8447 35.5656 47.815C35.4008 45.0352 34.3383 42.3837 32.5385 40.2601C31.6847 39.2107 30.6618 38.3119 29.5113 37.6011C28.4653 37.0077 27.1435 37.2582 26.3854 38.1922C25.3009 39.5667 24.3373 41.0326 23.5056 42.5729C21.9113 45.5143 21.2499 48.8711 21.6102 52.197C22.1486 55.0416 23.7726 57.5667 26.1395 59.2356C26.7207 59.6729 27.3382 60.0596 27.9854 60.3926C26.9284 62.055 25.9758 63.7812 25.1309 65.5611C24.887 64.5558 24.5321 63.5823 24.0717 62.6572C22.7895 60.0311 20.6676 57.9094 18.0416 56.627C16.7187 55.9733 15.2969 55.5414 13.8333 55.347C12.7873 55.2558 11.7984 55.8392 11.3721 56.7984C11.1205 57.4181 10.9315 58.062 10.8062 58.7191C10.5447 59.9453 10.3546 61.1858 10.2404 62.4351C9.75579 66.0018 10.4645 69.6275 12.2577 72.7481C13.9597 75.3126 16.6198 77.086 19.6414 77.6705L21.0939 77.9166L20.9467 78.5078C20.6764 80.1076 20.4786 81.7074 20.3314 83.307V83.306C19.6941 82.4368 18.9953 81.6139 18.2394 80.8447C15.9671 78.8395 13.0708 77.6837 10.0425 77.5714C8.54707 77.5154 7.0516 77.6978 5.61228 78.1131C4.56624 78.4647 3.88174 79.4712 3.93887 80.5743C3.93887 80.5743 3.93887 81.2138 4.0861 82.15L4.0872 82.1489C4.24432 83.5685 4.56626 84.964 5.04643 86.3088C5.59471 87.969 6.31331 89.57 7.18793 91.0841C8.19439 92.6444 9.49974 93.9915 11.0269 95.0463C12.8102 96.2154 14.901 96.823 17.0328 96.7933C18.003 96.757 18.9678 96.6252 19.9126 96.4C20.2576 96.4 20.5521 96.2527 20.8729 96.178H20.8718C20.8839 96.2516 20.8839 96.3263 20.8718 96.4C20.9949 96.8922 21.0685 97.3603 21.1421 97.8272H21.1432C21.2707 98.8282 21.4849 99.8171 21.7827 100.781L21.9552 101.396C21.174 100.863 20.351 100.394 19.494 99.9929C15.212 98.0888 10.2699 98.392 6.25286 100.806C5.24311 101.463 4.85745 102.754 5.34198 103.857C6.13638 105.622 7.07475 107.317 8.14823 108.928C9.18327 110.512 10.4523 111.932 11.9138 113.136C13.3422 114.426 15.0166 115.414 16.8362 116.04C17.8526 116.333 18.9041 116.481 19.9621 116.483C22.1234 116.457 24.2441 115.899 26.1394 114.859L27.2469 114.22C28.0842 115.672 28.994 117.074 29.9785 118.453V118.452C28.894 118.207 27.7908 118.051 26.681 117.985C23.6825 117.937 20.7631 118.948 18.436 120.84C17.268 121.767 16.2615 122.882 15.4572 124.138C14.9144 125.056 15.0243 126.217 15.7286 127.018C17.0834 128.453 18.6424 129.68 20.3554 130.66C21.8113 131.577 23.3736 132.313 25.0076 132.85C26.3195 133.229 27.6776 133.428 29.0434 133.441C29.5027 133.467 29.9631 133.467 30.4224 133.441C33.4616 132.98 36.1909 131.323 38.0027 128.839L38.5938 128.027H38.5927C40.0266 129.251 41.522 130.401 43.0724 131.472C42.1747 131.52 41.2836 131.659 40.4145 131.891C35.9635 133.051 32.3442 136.286 30.6928 140.579C30.2984 141.727 30.7994 142.992 31.874 143.557C33.5913 144.426 35.3779 145.151 37.215 145.723C38.9521 146.234 40.7465 146.524 42.556 146.585H43.368C45.0568 146.606 46.7324 146.279 48.2904 145.625C51.2099 144.373 53.5184 142.021 54.7138 139.078C54.9182 138.62 55.0995 138.151 55.2555 137.675C57.4948 138.684 60.0308 139.989 62.6392 141.317C65.2476 142.647 68.0044 144.025 70.7612 145.329C68.0978 146.02 65.3027 146.02 62.6392 145.329C62.0063 145.079 61.2965 145.101 60.6812 145.392C60.0648 145.683 59.5967 146.216 59.389 146.865C59.1803 147.513 59.2506 148.22 59.5813 148.814C59.9132 149.41 60.4768 149.842 61.1383 150.005C62.7864 150.524 64.505 150.781 66.2332 150.769C70.226 150.621 74.1628 149.789 77.8746 148.308C81.585 149.789 85.523 150.621 89.5161 150.769C91.2433 150.781 92.9629 150.524 94.611 150.005C95.2724 149.842 95.835 149.41 96.1668 148.814C96.4986 148.22 96.569 147.513 96.3602 146.865C96.1514 146.216 95.6845 145.683 95.068 145.392C94.4516 145.101 93.7429 145.079 93.109 145.329C90.4467 146.02 87.6504 146.02 84.9869 145.329C87.7437 144.025 90.4511 142.671 93.109 141.317C95.7669 139.964 98.2775 138.684 100.493 137.675C100.65 138.16 100.83 138.637 101.034 139.102C102.21 142.02 104.48 144.36 107.36 145.625C108.919 146.271 110.595 146.59 112.282 146.56H113.094C114.916 146.479 116.719 146.164 118.459 145.625C120.298 145.052 122.083 144.328 123.8 143.459C124.875 142.893 125.377 141.629 124.982 140.48C124.451 139.1 123.703 137.813 122.767 136.666C120.896 134.277 118.308 132.552 115.383 131.743C114.514 131.512 113.624 131.372 112.725 131.326C114.274 130.277 115.77 129.152 117.205 127.954L117.796 128.766C119.587 131.204 122.266 132.84 125.253 133.319C125.712 133.344 126.172 133.344 126.631 133.319C128.023 133.304 129.406 133.097 130.741 132.704C132.338 132.172 133.866 131.453 135.295 130.562C137.017 129.574 138.583 128.338 139.947 126.896C140.651 126.095 140.76 124.933 140.217 124.016C139.421 122.769 138.423 121.662 137.264 120.743C135.021 118.901 132.215 117.885 129.314 117.863H128.969C127.859 117.927 126.756 118.084 125.672 118.33C126.632 116.952 127.542 115.549 128.379 114.072L129.511 114.737C131.375 115.761 133.463 116.31 135.59 116.337C136.671 116.337 137.748 116.187 138.79 115.894C140.606 115.272 142.28 114.293 143.712 113.014C145.117 111.835 146.344 110.459 147.354 108.929C148.447 107.295 149.401 105.575 150.209 103.785C150.694 102.681 150.308 101.39 149.299 100.732C147.995 99.9464 146.574 99.3729 145.09 99.0345C142.061 98.3532 138.895 98.6642 136.057 99.92C135.198 100.316 134.375 100.785 133.596 101.323L133.743 100.807H133.744C134.053 99.8509 134.284 98.8708 134.433 97.8775C134.433 97.4094 134.58 96.9424 134.729 96.3271L135.713 96.5733C136.638 96.7436 137.578 96.8348 138.518 96.8436C140.654 96.8765 142.748 96.259 144.524 95.0712C146.101 93.9988 147.434 92.6067 148.438 90.9862C149.282 89.5303 149.967 87.9866 150.48 86.3835C150.971 85.0672 151.292 83.6949 151.44 82.2985C151.587 81.2645 151.612 80.625 151.612 80.625C151.735 79.4911 151.063 78.4209 149.988 78.0408L149.988 78.0397ZM134.432 71.7876V70.7042C134.513 68.6978 134.954 66.7212 135.737 64.8721C136.562 63.2206 137.9 61.8812 139.551 61.0573L139.97 60.8606V60.8595C140.107 61.6089 140.205 62.3648 140.266 63.1241C140.573 65.5194 140.135 67.952 139.01 70.0892C137.97 71.5374 136.391 72.5043 134.629 72.7724H134.236C134.432 72.5021 134.432 72.1571 134.432 71.7879L134.432 71.7876ZM126.902 43.4595C127.148 43.8782 127.443 44.3451 127.689 44.8132H127.688C128.817 46.8108 129.339 49.0941 129.19 51.3837C128.847 52.9912 127.894 54.403 126.532 55.3217C126.532 55.0261 126.31 54.7558 126.213 54.4844L126.212 54.4855C125.446 52.4462 125.038 50.2893 125.006 48.1105C125.109 46.3942 125.775 44.7593 126.902 43.4595V43.4595ZM111.962 47.3238H111.494V47.3227C110.062 47.393 108.637 47.0876 107.359 46.4371L107.014 46.2404C105.888 45.4713 104.974 44.4297 104.356 43.2133L104.011 42.6716L103.717 42.2529H104.233C105.9 41.9266 107.628 42.1508 109.156 42.8924C110.614 43.8461 111.713 45.2581 112.281 46.9052C112.281 47.0524 112.281 47.2008 112.404 47.3238L111.962 47.3238ZM43.368 46.8557C43.8855 45.2175 44.9338 43.7979 46.3457 42.8188C47.9543 42.0463 49.7782 41.8475 51.5143 42.2529H51.9329C51.8846 42.3562 51.8274 42.4551 51.7604 42.5485L51.367 43.1638C50.7506 44.3801 49.8354 45.4217 48.7091 46.1909L48.2905 46.4371C46.9885 47.0919 45.5359 47.3897 44.0822 47.2985H43.368L43.368 46.8557ZM27.7633 44.8867C28.0588 44.345 28.3544 43.8528 28.6247 43.4342C29.7257 44.7373 30.3816 46.359 30.4959 48.061C30.4662 50.2036 30.0751 52.3253 29.3389 54.337L28.9697 55.272V55.2731C27.5995 54.3722 26.6436 52.9646 26.3118 51.3594C26.1788 49.0959 26.7183 46.8434 27.8621 44.8865L27.7633 44.8867ZM16.4911 70.0892C15.3176 67.9158 14.8606 65.426 15.1869 62.9769C15.1869 62.2144 15.3594 61.476 15.4825 60.8607L15.9011 61.0574C17.558 61.8617 18.8996 63.1956 19.7159 64.8471C20.4982 66.6974 20.9399 68.6731 21.0201 70.6804L21.2168 71.7879V72.9449H20.8234C19.0489 72.6274 17.4821 71.5956 16.4911 70.0893L16.4911 70.0892ZM18.9524 91.6248C17.2152 92.0665 15.3747 91.8006 13.8333 90.8864C12.8697 90.2227 12.0357 89.3888 11.3721 88.4252C10.693 87.2517 10.148 86.0046 9.7481 84.7091C9.48659 83.9708 9.28111 83.2137 9.13279 82.4446H9.89532C11.7533 82.5028 13.5346 83.1972 14.941 84.4136C16.5979 86.0782 17.9262 88.0407 18.8548 90.1973V90.4193C19.0514 90.8126 19.2481 91.1818 19.3965 91.5268L18.9524 91.6248ZM23.8748 110.503C22.1937 111.502 20.1841 111.795 18.2877 111.314C17.1131 110.893 16.033 110.24 15.1134 109.395C14.0278 108.496 13.0895 107.434 12.3324 106.245C11.816 105.457 11.3721 104.719 11.0029 104.054L11.6182 103.881V103.883C13.607 103.429 15.6893 103.636 17.5494 104.473C18.6602 104.993 19.6887 105.674 20.6019 106.491L20.8722 106.737C21.783 107.525 22.7422 108.337 23.3334 109.002L24.342 110.133L23.8748 110.503ZM34.1383 125.688C33.1065 127.138 31.5375 128.112 29.7818 128.396C28.638 128.502 27.4842 128.385 26.3856 128.051C25.122 127.627 23.9144 127.049 22.7927 126.328C22.1379 125.971 21.5193 125.551 20.9468 125.073L21.4885 124.605H21.4874C22.8993 123.508 24.6231 122.888 26.4099 122.834C28.7239 122.979 30.9841 123.59 33.0552 124.63H33.2771L34.3605 125.073L34.1383 125.688ZM50.1363 137.084C49.455 138.881 48.0673 140.322 46.2973 141.071C45.1722 141.52 43.958 141.696 42.7526 141.588C41.3703 141.554 39.998 141.347 38.6675 140.972L36.4282 140.16L36.6985 139.767C37.961 138.209 39.6838 137.089 41.621 136.567C42.8417 136.306 44.0888 136.191 45.337 136.222C46.4984 136.196 47.6587 136.27 48.8069 136.444L50.3078 136.666C50.3089 136.665 50.21 136.937 50.1364 137.084L50.1363 137.084ZM114.128 136.567C116.072 137.086 117.798 138.217 119.051 139.791L119.321 140.16L117.082 140.972C115.751 141.347 114.378 141.554 112.997 141.588C111.775 141.692 110.545 141.515 109.403 141.071C107.662 140.308 106.298 138.881 105.613 137.109L105.416 136.666L105.415 136.665C105.887 136.618 106.356 136.544 106.818 136.444C108.041 136.27 109.276 136.196 110.51 136.222C111.718 136.196 112.924 136.311 114.104 136.567L114.128 136.567ZM129.241 122.908C131.031 122.969 132.754 123.599 134.163 124.704L134.68 125.147C134.084 125.625 133.45 126.052 132.784 126.427C131.707 127.121 130.55 127.683 129.338 128.1C128.211 128.462 127.021 128.587 125.843 128.47C124.081 128.173 122.515 127.169 121.512 125.689L121.167 125.246L122.25 124.803H122.472C124.544 123.725 126.814 123.08 129.142 122.908H129.241ZM135.172 106.54C136.079 105.733 137.099 105.061 138.199 104.546C140.059 103.71 142.143 103.502 144.131 103.956L144.747 104.129C144.377 104.793 143.909 105.581 143.369 106.393L143.368 106.392C142.617 107.52 141.705 108.532 140.66 109.395C139.744 110.226 138.674 110.87 137.51 111.29C135.609 111.785 133.59 111.501 131.899 110.503L131.382 110.207L132.367 109.099C133.006 108.411 133.967 107.599 134.828 106.811L135.172 106.54ZM145.977 84.7092C145.541 85.9563 144.972 87.1528 144.278 88.2781C143.633 89.2912 142.797 90.1691 141.817 90.8624C140.268 91.804 138.403 92.0787 136.649 91.6249L136.107 91.4777C136.254 91.1326 136.452 90.7635 136.649 90.3701L136.772 90.1482C137.7 87.9913 139.027 86.0288 140.685 84.3644C142.097 83.1437 143.888 82.4482 145.755 82.3954H146.493C146.339 83.18 146.134 83.9524 145.878 84.7094L145.977 84.7092Z"/>
</mask>
<path d="M149.988 78.0397C148.551 77.6133 147.054 77.4309 145.557 77.498C142.529 77.61 139.633 78.7659 137.362 80.7713C136.606 81.5404 135.906 82.3622 135.27 83.2325C135.122 81.6327 134.925 80.0329 134.654 78.4571L134.432 77.8177L135.885 77.5715C138.906 76.9881 141.567 75.2147 143.269 72.6491C145.032 69.5724 145.742 66.0015 145.286 62.4844C145.158 61.2032 144.961 59.9297 144.696 58.6696C144.571 58.0125 144.381 57.3698 144.13 56.7501C143.703 55.7897 142.715 55.2074 141.669 55.2975C140.229 55.4953 138.833 55.9282 137.533 56.5776C134.896 57.851 132.763 59.9749 131.479 62.6077C131.019 63.5329 130.664 64.5075 130.421 65.5117C129.566 63.7372 128.612 62.0111 127.565 60.3431C128.24 60.0212 128.889 59.6509 129.51 59.2355C131.896 57.5413 133.522 54.9789 134.039 52.098C134.389 48.7434 133.711 45.3615 132.095 42.4002C131.272 40.9048 130.326 39.4807 129.264 38.1424C128.506 37.2084 127.184 36.959 126.138 37.5523C124.988 38.2621 123.965 39.1609 123.111 40.2102C121.311 42.3353 120.249 44.9864 120.084 47.7664C120.073 48.7948 120.139 49.8232 120.281 50.843C119.419 49.9574 118.484 49.096 117.524 48.2587C117.415 47.2819 117.217 46.3183 116.934 45.379C116.092 42.5563 114.279 40.1235 111.814 38.5117L111.518 38.3392H111.519C108.907 37.0317 105.922 36.6746 103.076 37.3306C101.724 37.6129 100.416 38.0755 99.1877 38.7084C98.1197 39.2918 97.6396 40.5686 98.056 41.7114C98.5318 42.9178 99.0998 44.0869 99.7536 45.2066L100.123 45.7977C101.185 47.747 102.749 49.3785 104.652 50.5225C106.669 51.6586 108.959 52.2201 111.273 52.1475H112.282H114.35C120.403 57.4458 125.009 64.1977 127.734 71.767C130.46 79.3363 131.215 87.4739 129.929 95.4156C129.798 95.9738 129.699 96.5397 129.633 97.1143C129.518 97.945 129.346 98.768 129.117 99.5756L127.96 103.587L126.41 107.501V107.5C126.097 108.233 125.743 108.948 125.351 109.641C125.08 110.134 124.809 110.65 124.636 111.044H124.637C119.337 120.682 110.881 128.199 100.69 132.334C97.81 133.491 94.4138 135.214 90.8449 137.035C86.7598 139.103 82.2306 141.415 77.8499 143.164C73.4692 141.417 68.9399 139.103 64.8549 137.035C61.262 135.213 57.8644 133.49 55.01 132.334H55.0089C44.8309 128.241 36.3739 120.766 31.0613 111.168L30.2734 109.667C29.8768 108.967 29.523 108.244 29.2153 107.5L27.665 103.612L26.4838 99.5012C26.2685 98.7584 26.1047 98.0025 25.9916 97.2377C25.9916 96.6719 25.8191 96.106 25.7213 95.6874L25.7202 95.6863C24.3797 87.6939 25.1104 79.4894 27.843 71.8596C30.5745 64.2287 35.2157 57.4253 41.3249 52.0984H43.4169H44.3773H44.3762C46.6902 52.172 48.9799 51.6094 50.9973 50.4744C52.9003 49.3295 54.4638 47.6989 55.5265 45.7486L55.9452 45.0838H55.9441C56.5791 43.9862 57.1307 42.8423 57.5933 41.6623C58.0097 40.5196 57.5296 39.2439 56.4616 38.6604C55.2562 38.044 53.9729 37.5968 52.6468 37.3309C49.7724 36.6508 46.7509 37.0266 44.1304 38.389L43.8348 38.5615H43.8359C41.3802 40.1558 39.5739 42.5732 38.7411 45.3793C38.44 46.333 38.2345 47.3142 38.1258 48.3074C37.1654 49.1447 36.2304 50.0061 35.369 50.8917C35.5107 49.8732 35.5766 48.8447 35.5656 47.815C35.4008 45.0352 34.3383 42.3837 32.5385 40.2601C31.6847 39.2107 30.6618 38.3119 29.5113 37.6011C28.4653 37.0077 27.1435 37.2582 26.3854 38.1922C25.3009 39.5667 24.3373 41.0326 23.5056 42.5729C21.9113 45.5143 21.2499 48.8711 21.6102 52.197C22.1486 55.0416 23.7726 57.5667 26.1395 59.2356C26.7207 59.6729 27.3382 60.0596 27.9854 60.3926C26.9284 62.055 25.9758 63.7812 25.1309 65.5611C24.887 64.5558 24.5321 63.5823 24.0717 62.6572C22.7895 60.0311 20.6676 57.9094 18.0416 56.627C16.7187 55.9733 15.2969 55.5414 13.8333 55.347C12.7873 55.2558 11.7984 55.8392 11.3721 56.7984C11.1205 57.4181 10.9315 58.062 10.8062 58.7191C10.5447 59.9453 10.3546 61.1858 10.2404 62.4351C9.75579 66.0018 10.4645 69.6275 12.2577 72.7481C13.9597 75.3126 16.6198 77.086 19.6414 77.6705L21.0939 77.9166L20.9467 78.5078C20.6764 80.1076 20.4786 81.7074 20.3314 83.307V83.306C19.6941 82.4368 18.9953 81.6139 18.2394 80.8447C15.9671 78.8395 13.0708 77.6837 10.0425 77.5714C8.54707 77.5154 7.0516 77.6978 5.61228 78.1131C4.56624 78.4647 3.88174 79.4712 3.93887 80.5743C3.93887 80.5743 3.93887 81.2138 4.0861 82.15L4.0872 82.1489C4.24432 83.5685 4.56626 84.964 5.04643 86.3088C5.59471 87.969 6.31331 89.57 7.18793 91.0841C8.19439 92.6444 9.49974 93.9915 11.0269 95.0463C12.8102 96.2154 14.901 96.823 17.0328 96.7933C18.003 96.757 18.9678 96.6252 19.9126 96.4C20.2576 96.4 20.5521 96.2527 20.8729 96.178H20.8718C20.8839 96.2516 20.8839 96.3263 20.8718 96.4C20.9949 96.8922 21.0685 97.3603 21.1421 97.8272H21.1432C21.2707 98.8282 21.4849 99.8171 21.7827 100.781L21.9552 101.396C21.174 100.863 20.351 100.394 19.494 99.9929C15.212 98.0888 10.2699 98.392 6.25286 100.806C5.24311 101.463 4.85745 102.754 5.34198 103.857C6.13638 105.622 7.07475 107.317 8.14823 108.928C9.18327 110.512 10.4523 111.932 11.9138 113.136C13.3422 114.426 15.0166 115.414 16.8362 116.04C17.8526 116.333 18.9041 116.481 19.9621 116.483C22.1234 116.457 24.2441 115.899 26.1394 114.859L27.2469 114.22C28.0842 115.672 28.994 117.074 29.9785 118.453V118.452C28.894 118.207 27.7908 118.051 26.681 117.985C23.6825 117.937 20.7631 118.948 18.436 120.84C17.268 121.767 16.2615 122.882 15.4572 124.138C14.9144 125.056 15.0243 126.217 15.7286 127.018C17.0834 128.453 18.6424 129.68 20.3554 130.66C21.8113 131.577 23.3736 132.313 25.0076 132.85C26.3195 133.229 27.6776 133.428 29.0434 133.441C29.5027 133.467 29.9631 133.467 30.4224 133.441C33.4616 132.98 36.1909 131.323 38.0027 128.839L38.5938 128.027H38.5927C40.0266 129.251 41.522 130.401 43.0724 131.472C42.1747 131.52 41.2836 131.659 40.4145 131.891C35.9635 133.051 32.3442 136.286 30.6928 140.579C30.2984 141.727 30.7994 142.992 31.874 143.557C33.5913 144.426 35.3779 145.151 37.215 145.723C38.9521 146.234 40.7465 146.524 42.556 146.585H43.368C45.0568 146.606 46.7324 146.279 48.2904 145.625C51.2099 144.373 53.5184 142.021 54.7138 139.078C54.9182 138.62 55.0995 138.151 55.2555 137.675C57.4948 138.684 60.0308 139.989 62.6392 141.317C65.2476 142.647 68.0044 144.025 70.7612 145.329C68.0978 146.02 65.3027 146.02 62.6392 145.329C62.0063 145.079 61.2965 145.101 60.6812 145.392C60.0648 145.683 59.5967 146.216 59.389 146.865C59.1803 147.513 59.2506 148.22 59.5813 148.814C59.9132 149.41 60.4768 149.842 61.1383 150.005C62.7864 150.524 64.505 150.781 66.2332 150.769C70.226 150.621 74.1628 149.789 77.8746 148.308C81.585 149.789 85.523 150.621 89.5161 150.769C91.2433 150.781 92.9629 150.524 94.611 150.005C95.2724 149.842 95.835 149.41 96.1668 148.814C96.4986 148.22 96.569 147.513 96.3602 146.865C96.1514 146.216 95.6845 145.683 95.068 145.392C94.4516 145.101 93.7429 145.079 93.109 145.329C90.4467 146.02 87.6504 146.02 84.9869 145.329C87.7437 144.025 90.4511 142.671 93.109 141.317C95.7669 139.964 98.2775 138.684 100.493 137.675C100.65 138.16 100.83 138.637 101.034 139.102C102.21 142.02 104.48 144.36 107.36 145.625C108.919 146.271 110.595 146.59 112.282 146.56H113.094C114.916 146.479 116.719 146.164 118.459 145.625C120.298 145.052 122.083 144.328 123.8 143.459C124.875 142.893 125.377 141.629 124.982 140.48C124.451 139.1 123.703 137.813 122.767 136.666C120.896 134.277 118.308 132.552 115.383 131.743C114.514 131.512 113.624 131.372 112.725 131.326C114.274 130.277 115.77 129.152 117.205 127.954L117.796 128.766C119.587 131.204 122.266 132.84 125.253 133.319C125.712 133.344 126.172 133.344 126.631 133.319C128.023 133.304 129.406 133.097 130.741 132.704C132.338 132.172 133.866 131.453 135.295 130.562C137.017 129.574 138.583 128.338 139.947 126.896C140.651 126.095 140.76 124.933 140.217 124.016C139.421 122.769 138.423 121.662 137.264 120.743C135.021 118.901 132.215 117.885 129.314 117.863H128.969C127.859 117.927 126.756 118.084 125.672 118.33C126.632 116.952 127.542 115.549 128.379 114.072L129.511 114.737C131.375 115.761 133.463 116.31 135.59 116.337C136.671 116.337 137.748 116.187 138.79 115.894C140.606 115.272 142.28 114.293 143.712 113.014C145.117 111.835 146.344 110.459 147.354 108.929C148.447 107.295 149.401 105.575 150.209 103.785C150.694 102.681 150.308 101.39 149.299 100.732C147.995 99.9464 146.574 99.3729 145.09 99.0345C142.061 98.3532 138.895 98.6642 136.057 99.92C135.198 100.316 134.375 100.785 133.596 101.323L133.743 100.807H133.744C134.053 99.8509 134.284 98.8708 134.433 97.8775C134.433 97.4094 134.58 96.9424 134.729 96.3271L135.713 96.5733C136.638 96.7436 137.578 96.8348 138.518 96.8436C140.654 96.8765 142.748 96.259 144.524 95.0712C146.101 93.9988 147.434 92.6067 148.438 90.9862C149.282 89.5303 149.967 87.9866 150.48 86.3835C150.971 85.0672 151.292 83.6949 151.44 82.2985C151.587 81.2645 151.612 80.625 151.612 80.625C151.735 79.4911 151.063 78.4209 149.988 78.0408L149.988 78.0397ZM134.432 71.7876V70.7042C134.513 68.6978 134.954 66.7212 135.737 64.8721C136.562 63.2206 137.9 61.8812 139.551 61.0573L139.97 60.8606V60.8595C140.107 61.6089 140.205 62.3648 140.266 63.1241C140.573 65.5194 140.135 67.952 139.01 70.0892C137.97 71.5374 136.391 72.5043 134.629 72.7724H134.236C134.432 72.5021 134.432 72.1571 134.432 71.7879L134.432 71.7876ZM126.902 43.4595C127.148 43.8782 127.443 44.3451 127.689 44.8132H127.688C128.817 46.8108 129.339 49.0941 129.19 51.3837C128.847 52.9912 127.894 54.403 126.532 55.3217C126.532 55.0261 126.31 54.7558 126.213 54.4844L126.212 54.4855C125.446 52.4462 125.038 50.2893 125.006 48.1105C125.109 46.3942 125.775 44.7593 126.902 43.4595V43.4595ZM111.962 47.3238H111.494V47.3227C110.062 47.393 108.637 47.0876 107.359 46.4371L107.014 46.2404C105.888 45.4713 104.974 44.4297 104.356 43.2133L104.011 42.6716L103.717 42.2529H104.233C105.9 41.9266 107.628 42.1508 109.156 42.8924C110.614 43.8461 111.713 45.2581 112.281 46.9052C112.281 47.0524 112.281 47.2008 112.404 47.3238L111.962 47.3238ZM43.368 46.8557C43.8855 45.2175 44.9338 43.7979 46.3457 42.8188C47.9543 42.0463 49.7782 41.8475 51.5143 42.2529H51.9329C51.8846 42.3562 51.8274 42.4551 51.7604 42.5485L51.367 43.1638C50.7506 44.3801 49.8354 45.4217 48.7091 46.1909L48.2905 46.4371C46.9885 47.0919 45.5359 47.3897 44.0822 47.2985H43.368L43.368 46.8557ZM27.7633 44.8867C28.0588 44.345 28.3544 43.8528 28.6247 43.4342C29.7257 44.7373 30.3816 46.359 30.4959 48.061C30.4662 50.2036 30.0751 52.3253 29.3389 54.337L28.9697 55.272V55.2731C27.5995 54.3722 26.6436 52.9646 26.3118 51.3594C26.1788 49.0959 26.7183 46.8434 27.8621 44.8865L27.7633 44.8867ZM16.4911 70.0892C15.3176 67.9158 14.8606 65.426 15.1869 62.9769C15.1869 62.2144 15.3594 61.476 15.4825 60.8607L15.9011 61.0574C17.558 61.8617 18.8996 63.1956 19.7159 64.8471C20.4982 66.6974 20.9399 68.6731 21.0201 70.6804L21.2168 71.7879V72.9449H20.8234C19.0489 72.6274 17.4821 71.5956 16.4911 70.0893L16.4911 70.0892ZM18.9524 91.6248C17.2152 92.0665 15.3747 91.8006 13.8333 90.8864C12.8697 90.2227 12.0357 89.3888 11.3721 88.4252C10.693 87.2517 10.148 86.0046 9.7481 84.7091C9.48659 83.9708 9.28111 83.2137 9.13279 82.4446H9.89532C11.7533 82.5028 13.5346 83.1972 14.941 84.4136C16.5979 86.0782 17.9262 88.0407 18.8548 90.1973V90.4193C19.0514 90.8126 19.2481 91.1818 19.3965 91.5268L18.9524 91.6248ZM23.8748 110.503C22.1937 111.502 20.1841 111.795 18.2877 111.314C17.1131 110.893 16.033 110.24 15.1134 109.395C14.0278 108.496 13.0895 107.434 12.3324 106.245C11.816 105.457 11.3721 104.719 11.0029 104.054L11.6182 103.881V103.883C13.607 103.429 15.6893 103.636 17.5494 104.473C18.6602 104.993 19.6887 105.674 20.6019 106.491L20.8722 106.737C21.783 107.525 22.7422 108.337 23.3334 109.002L24.342 110.133L23.8748 110.503ZM34.1383 125.688C33.1065 127.138 31.5375 128.112 29.7818 128.396C28.638 128.502 27.4842 128.385 26.3856 128.051C25.122 127.627 23.9144 127.049 22.7927 126.328C22.1379 125.971 21.5193 125.551 20.9468 125.073L21.4885 124.605H21.4874C22.8993 123.508 24.6231 122.888 26.4099 122.834C28.7239 122.979 30.9841 123.59 33.0552 124.63H33.2771L34.3605 125.073L34.1383 125.688ZM50.1363 137.084C49.455 138.881 48.0673 140.322 46.2973 141.071C45.1722 141.52 43.958 141.696 42.7526 141.588C41.3703 141.554 39.998 141.347 38.6675 140.972L36.4282 140.16L36.6985 139.767C37.961 138.209 39.6838 137.089 41.621 136.567C42.8417 136.306 44.0888 136.191 45.337 136.222C46.4984 136.196 47.6587 136.27 48.8069 136.444L50.3078 136.666C50.3089 136.665 50.21 136.937 50.1364 137.084L50.1363 137.084ZM114.128 136.567C116.072 137.086 117.798 138.217 119.051 139.791L119.321 140.16L117.082 140.972C115.751 141.347 114.378 141.554 112.997 141.588C111.775 141.692 110.545 141.515 109.403 141.071C107.662 140.308 106.298 138.881 105.613 137.109L105.416 136.666L105.415 136.665C105.887 136.618 106.356 136.544 106.818 136.444C108.041 136.27 109.276 136.196 110.51 136.222C111.718 136.196 112.924 136.311 114.104 136.567L114.128 136.567ZM129.241 122.908C131.031 122.969 132.754 123.599 134.163 124.704L134.68 125.147C134.084 125.625 133.45 126.052 132.784 126.427C131.707 127.121 130.55 127.683 129.338 128.1C128.211 128.462 127.021 128.587 125.843 128.47C124.081 128.173 122.515 127.169 121.512 125.689L121.167 125.246L122.25 124.803H122.472C124.544 123.725 126.814 123.08 129.142 122.908H129.241ZM135.172 106.54C136.079 105.733 137.099 105.061 138.199 104.546C140.059 103.71 142.143 103.502 144.131 103.956L144.747 104.129C144.377 104.793 143.909 105.581 143.369 106.393L143.368 106.392C142.617 107.52 141.705 108.532 140.66 109.395C139.744 110.226 138.674 110.87 137.51 111.29C135.609 111.785 133.59 111.501 131.899 110.503L131.382 110.207L132.367 109.099C133.006 108.411 133.967 107.599 134.828 106.811L135.172 106.54ZM145.977 84.7092C145.541 85.9563 144.972 87.1528 144.278 88.2781C143.633 89.2912 142.797 90.1691 141.817 90.8624C140.268 91.804 138.403 92.0787 136.649 91.6249L136.107 91.4777C136.254 91.1326 136.452 90.7635 136.649 90.3701L136.772 90.1482C137.7 87.9913 139.027 86.0288 140.685 84.3644C142.097 83.1437 143.888 82.4482 145.755 82.3954H146.493C146.339 83.18 146.134 83.9524 145.878 84.7094L145.977 84.7092Z" fill="black" stroke="white" stroke-width="1.8" mask="url(#path-1-inside-1_3844_50145)"/>
<path d="M77.8241 61.4915L77.8252 61.4915C80.6146 61.4915 83.2892 62.5992 85.2613 64.5711L85.2614 64.5712C87.2333 66.5442 88.3421 69.2186 88.3421 72.0083C88.3421 74.7966 87.2332 77.4723 85.2613 79.4444L84.9431 79.1262L85.2613 79.4444C83.2892 81.4165 80.6148 82.524 77.8252 82.524C75.0357 82.524 72.3613 81.4163 70.3892 79.4444L70.3892 79.4444C68.4172 77.4724 67.3084 74.7968 67.3084 72.0083V72.0072C67.3153 69.2205 68.4252 66.5497 70.3959 64.579L77.8241 61.4915ZM77.8241 61.4915C75.0375 61.4985 72.3666 62.6083 70.3959 64.579L77.8241 61.4915ZM88.1058 82.214L88.1057 82.2141C85.3796 84.9413 81.6813 86.4728 77.8252 86.4728C73.9692 86.4728 70.2709 84.9414 67.5447 82.2141L67.5447 82.214C64.8185 79.4878 63.2859 75.7895 63.2859 71.9335C63.2859 68.0776 64.8184 64.3804 67.5447 61.6529C70.2708 58.9269 73.9692 57.3953 77.8252 57.3953C81.6813 57.3953 85.3796 58.9267 88.1058 61.6529C90.832 64.3803 92.3645 68.0776 92.3645 71.9335C92.3645 75.7895 90.8321 79.4878 88.1058 82.214Z" fill="black" stroke="white" stroke-width="0.9"/>
<path d="M53.6697 116.539L53.7257 116.039C54.3478 110.479 56.9964 105.343 61.1641 101.61C65.3315 97.8777 70.7277 95.8097 76.3233 95.8019L76.3239 95.8019L79.3258 95.8019L79.3265 95.8019L79.3269 95.8019M53.6697 116.539L79.3255 96.2519H76.3239C70.8389 96.2595 65.5494 98.2867 61.4643 101.946C57.4916 105.504 54.9271 110.362 54.2279 115.639H54.1729V116.089L54.6201 116.139C54.622 116.122 54.6238 116.106 54.6258 116.089H101.024C101.026 116.106 101.028 116.122 101.03 116.139L101.476 116.089L101.477 116.089V115.639H101.476H101.422C100.723 110.362 98.1578 105.504 94.1854 101.946C90.1006 98.2871 84.8116 96.2599 79.3269 96.2519V95.8019M53.6697 116.539H54.1729H101.476H101.477H101.98L101.924 116.039C101.302 110.479 98.653 105.343 94.4857 101.61C90.3184 97.878 84.9224 95.8099 79.3269 95.8019M53.6697 116.539L79.3269 95.8019M57.4675 99.7319C62.477 94.745 69.2544 91.9396 76.3238 91.9266H79.326C86.3953 91.9397 93.1728 94.7451 98.1823 99.7319C103.191 104.718 106.028 111.482 106.073 118.551C106.073 119.084 105.861 119.595 105.484 119.972C105.107 120.349 104.595 120.561 104.062 120.561H51.5882C51.0548 120.561 50.543 120.349 50.1659 119.972C49.7892 119.596 49.5773 119.084 49.577 118.551C49.6216 111.483 52.4582 104.718 57.4675 99.7319Z" fill="black" stroke="white" stroke-width="0.9"/>
</g>
<defs>
<filter id="filter0_d_3844_50145" x="3.93555" y="37" width="149.691" height="115.77" filterUnits="userSpaceOnUse" color-interpolation-filters="sRGB">
<feFlood flood-opacity="0" result="BackgroundImageFix"/>
<feColorMatrix in="SourceAlpha" type="matrix" values="0 0 0 0 0 0 0 0 0 0 0 0 0 0 0 0 0 0 127 0" result="hardAlpha"/>
<feOffset dx="2" dy="2"/>
<feComposite in2="hardAlpha" operator="out"/>
<feColorMatrix type="matrix" values="0 0 0 0 1 0 0 0 0 0.45098 0 0 0 0 0.580392 0 0 0 0.7 0"/>
<feBlend mode="normal" in2="BackgroundImageFix" result="effect1_dropShadow_3844_50145"/>
<feBlend mode="normal" in="SourceGraphic" in2="effect1_dropShadow_3844_50145" result="shape"/>
</filter>
</defs>
</svg>
