<svg width="151" height="152" viewBox="0 0 151 152" fill="none" xmlns="http://www.w3.org/2000/svg">
<g filter="url(#filter0_d_3844_50106)">
<mask id="path-1-inside-1_3844_50106" fill="white">
<path d="M104.235 36.637C104.235 37.4806 103.547 38.1644 102.696 38.1644H91.9253C91.0752 38.1644 90.3862 37.4806 90.3862 36.637C90.3862 35.7935 91.0742 35.1097 91.9253 35.1097H102.696C103.547 35.1107 104.235 35.7945 104.235 36.637ZM70.3832 35.1107C69.5331 35.1107 68.844 35.7945 68.844 36.6381C68.844 37.4817 69.532 38.1654 70.3832 38.1654H79.6162C80.4663 38.1654 81.1553 37.4817 81.1553 36.6381C81.1553 35.7945 80.4673 35.1107 79.6162 35.1107H70.3832ZM47.3021 35.1107C46.452 35.1107 45.7629 35.7945 45.7629 36.6381C45.7629 37.4817 46.4509 38.1654 47.3021 38.1654H58.073C58.9231 38.1654 59.6122 37.4817 59.6122 36.6381C59.6122 35.7945 58.9242 35.1107 58.073 35.1107H47.3021ZM122.7 126.726H95.003C93.306 126.726 91.9258 125.356 91.9258 123.672V57.0441C91.9258 53.295 94.1916 49.9717 97.6972 48.5754L107.313 44.7464L107.32 33.58C107.32 31.0568 109.39 29.0022 111.936 29.0022H115.008C115.858 29.0022 116.547 29.686 116.547 30.5296C116.547 31.3732 115.859 32.0569 115.008 32.0569H111.936C111.087 32.0569 110.397 32.7407 110.397 33.5822L110.39 44.7838L119.989 48.582C123.506 49.973 125.778 53.2993 125.778 57.0547V123.672C125.778 125.357 124.396 126.727 122.701 126.727L122.7 126.726ZM122.701 123.671L122.7 57.0539C122.7 54.5552 121.189 52.342 118.85 51.4163L108.806 47.4425L98.8419 51.41C96.5095 52.3377 95.0024 54.549 95.0024 57.0433V123.672L122.701 123.671ZM75.7616 51.4098L85.7255 47.4422L91.3572 49.6704C92.1376 49.9825 93.0402 49.6023 93.3558 48.8183C93.6713 48.0344 93.2871 47.1472 92.4961 46.8341L87.3097 44.7817L87.3161 33.5801C87.3161 32.7387 88.0063 32.0548 88.8553 32.0548H91.9273C92.7774 32.0548 93.4665 31.3711 93.4665 30.5275C93.4665 29.6839 92.7784 29.0001 91.9273 29.0001H88.8553C86.3093 29.0001 84.2388 31.0536 84.2388 33.5779L84.2324 44.7443L74.6164 48.5733C71.1108 49.9707 68.845 53.2937 68.845 57.0428V123.671C68.845 125.355 70.2264 126.725 71.9222 126.725H88.8489C89.699 126.725 90.388 126.041 90.388 125.197C90.388 124.354 89.7 123.67 88.8489 123.67L71.9222 123.671V57.0427C71.9222 54.5483 73.4292 52.3371 75.7616 51.4095L75.7616 51.4098ZM67.3521 123.671H50.4254L50.4265 57.043C50.4265 54.5486 51.9335 52.3374 54.2649 51.4098L64.2309 47.4422L69.8627 49.6704C70.643 49.9825 71.5446 49.6023 71.8613 48.8183C72.1768 48.0344 71.7926 47.1472 71.0015 46.8341L65.7679 44.7635L65.7743 33.5799C65.7743 32.7385 66.4645 32.0547 67.3135 32.0547H70.3855C71.2356 32.0547 71.9246 31.3709 71.9246 30.5274C71.9246 29.6838 71.2366 29 70.3855 29H67.3135C64.7675 29 62.697 31.0535 62.697 33.5778L62.6906 44.7633L53.1196 48.5732C49.614 49.9695 47.3494 53.2936 47.3494 57.0419V123.67C47.3494 125.354 48.7307 126.724 50.4266 126.724H67.3532C68.2033 126.724 68.8924 126.04 68.8924 125.196C68.8913 124.355 68.2033 123.671 67.3521 123.671L67.3521 123.671ZM31.1835 51.4098L41.1496 47.4422L46.7814 49.6704C47.5639 49.9825 48.4644 49.6023 48.7799 48.8183C49.0955 48.0344 48.7112 47.1472 47.9202 46.8341L42.6866 44.7635L42.693 33.5799C42.693 32.7385 43.3832 32.0547 44.2322 32.0547H47.3042C48.1543 32.0547 48.8433 31.3709 48.8433 30.5274C48.8433 29.6838 48.1553 29 47.3042 29H44.2322C41.6862 29 39.6157 31.0535 39.6157 33.5778L39.6092 44.7633L30.0383 48.5732C26.5327 49.9695 24.268 53.2936 24.268 57.0419V123.67C24.268 125.354 25.6494 126.724 27.3452 126.724H44.2719C45.122 126.724 45.8111 126.04 45.8111 125.196C45.8111 124.353 45.1231 123.669 44.2719 123.669H27.3452L27.3463 57.0435C27.3463 54.549 28.8533 52.3378 31.1835 51.4102V51.4098ZM19.6054 141.362V38.1638H34.9927C35.8428 38.1638 36.5319 37.48 36.5319 36.6364C36.5319 35.7928 35.8439 35.109 34.9927 35.109L18.0672 35.1101C17.2171 35.1101 16.528 35.7939 16.528 36.6375V141.362L10.4508 147.393C9.84973 147.989 9.84973 148.955 10.4508 149.552C11.0519 150.148 12.0254 150.148 12.6265 149.552L18.0673 144.153L23.507 149.551C23.8075 149.849 24.2014 149.998 24.5953 149.998C24.9893 149.998 25.3832 149.849 25.6837 149.551C26.2848 148.954 26.2848 147.988 25.6837 147.392L19.6054 141.362ZM133.472 141.362V36.6368C133.472 35.7933 132.784 35.1095 131.933 35.1095L115.007 35.1105C114.157 35.1105 113.468 35.7943 113.468 36.6379C113.468 37.4815 114.156 38.1653 115.007 38.1653H130.395V141.363L124.317 147.394C123.716 147.99 123.716 148.956 124.317 149.553C124.918 150.149 125.892 150.149 126.493 149.553L131.933 144.154L137.372 149.552C137.673 149.85 138.067 149.999 138.461 149.999C138.855 149.999 139.249 149.85 139.549 149.552C140.15 148.955 140.15 147.989 139.549 147.393L133.472 141.362Z"/>
</mask>
<path d="M104.235 36.637C104.235 37.4806 103.547 38.1644 102.696 38.1644H91.9253C91.0752 38.1644 90.3862 37.4806 90.3862 36.637C90.3862 35.7935 91.0742 35.1097 91.9253 35.1097H102.696C103.547 35.1107 104.235 35.7945 104.235 36.637ZM70.3832 35.1107C69.5331 35.1107 68.844 35.7945 68.844 36.6381C68.844 37.4817 69.532 38.1654 70.3832 38.1654H79.6162C80.4663 38.1654 81.1553 37.4817 81.1553 36.6381C81.1553 35.7945 80.4673 35.1107 79.6162 35.1107H70.3832ZM47.3021 35.1107C46.452 35.1107 45.7629 35.7945 45.7629 36.6381C45.7629 37.4817 46.4509 38.1654 47.3021 38.1654H58.073C58.9231 38.1654 59.6122 37.4817 59.6122 36.6381C59.6122 35.7945 58.9242 35.1107 58.073 35.1107H47.3021ZM122.7 126.726H95.003C93.306 126.726 91.9258 125.356 91.9258 123.672V57.0441C91.9258 53.295 94.1916 49.9717 97.6972 48.5754L107.313 44.7464L107.32 33.58C107.32 31.0568 109.39 29.0022 111.936 29.0022H115.008C115.858 29.0022 116.547 29.686 116.547 30.5296C116.547 31.3732 115.859 32.0569 115.008 32.0569H111.936C111.087 32.0569 110.397 32.7407 110.397 33.5822L110.39 44.7838L119.989 48.582C123.506 49.973 125.778 53.2993 125.778 57.0547V123.672C125.778 125.357 124.396 126.727 122.701 126.727L122.7 126.726ZM122.701 123.671L122.7 57.0539C122.7 54.5552 121.189 52.342 118.85 51.4163L108.806 47.4425L98.8419 51.41C96.5095 52.3377 95.0024 54.549 95.0024 57.0433V123.672L122.701 123.671ZM75.7616 51.4098L85.7255 47.4422L91.3572 49.6704C92.1376 49.9825 93.0402 49.6023 93.3558 48.8183C93.6713 48.0344 93.2871 47.1472 92.4961 46.8341L87.3097 44.7817L87.3161 33.5801C87.3161 32.7387 88.0063 32.0548 88.8553 32.0548H91.9273C92.7774 32.0548 93.4665 31.3711 93.4665 30.5275C93.4665 29.6839 92.7784 29.0001 91.9273 29.0001H88.8553C86.3093 29.0001 84.2388 31.0536 84.2388 33.5779L84.2324 44.7443L74.6164 48.5733C71.1108 49.9707 68.845 53.2937 68.845 57.0428V123.671C68.845 125.355 70.2264 126.725 71.9222 126.725H88.8489C89.699 126.725 90.388 126.041 90.388 125.197C90.388 124.354 89.7 123.67 88.8489 123.67L71.9222 123.671V57.0427C71.9222 54.5483 73.4292 52.3371 75.7616 51.4095L75.7616 51.4098ZM67.3521 123.671H50.4254L50.4265 57.043C50.4265 54.5486 51.9335 52.3374 54.2649 51.4098L64.2309 47.4422L69.8627 49.6704C70.643 49.9825 71.5446 49.6023 71.8613 48.8183C72.1768 48.0344 71.7926 47.1472 71.0015 46.8341L65.7679 44.7635L65.7743 33.5799C65.7743 32.7385 66.4645 32.0547 67.3135 32.0547H70.3855C71.2356 32.0547 71.9246 31.3709 71.9246 30.5274C71.9246 29.6838 71.2366 29 70.3855 29H67.3135C64.7675 29 62.697 31.0535 62.697 33.5778L62.6906 44.7633L53.1196 48.5732C49.614 49.9695 47.3494 53.2936 47.3494 57.0419V123.67C47.3494 125.354 48.7307 126.724 50.4266 126.724H67.3532C68.2033 126.724 68.8924 126.04 68.8924 125.196C68.8913 124.355 68.2033 123.671 67.3521 123.671L67.3521 123.671ZM31.1835 51.4098L41.1496 47.4422L46.7814 49.6704C47.5639 49.9825 48.4644 49.6023 48.7799 48.8183C49.0955 48.0344 48.7112 47.1472 47.9202 46.8341L42.6866 44.7635L42.693 33.5799C42.693 32.7385 43.3832 32.0547 44.2322 32.0547H47.3042C48.1543 32.0547 48.8433 31.3709 48.8433 30.5274C48.8433 29.6838 48.1553 29 47.3042 29H44.2322C41.6862 29 39.6157 31.0535 39.6157 33.5778L39.6092 44.7633L30.0383 48.5732C26.5327 49.9695 24.268 53.2936 24.268 57.0419V123.67C24.268 125.354 25.6494 126.724 27.3452 126.724H44.2719C45.122 126.724 45.8111 126.04 45.8111 125.196C45.8111 124.353 45.1231 123.669 44.2719 123.669H27.3452L27.3463 57.0435C27.3463 54.549 28.8533 52.3378 31.1835 51.4102V51.4098ZM19.6054 141.362V38.1638H34.9927C35.8428 38.1638 36.5319 37.48 36.5319 36.6364C36.5319 35.7928 35.8439 35.109 34.9927 35.109L18.0672 35.1101C17.2171 35.1101 16.528 35.7939 16.528 36.6375V141.362L10.4508 147.393C9.84973 147.989 9.84973 148.955 10.4508 149.552C11.0519 150.148 12.0254 150.148 12.6265 149.552L18.0673 144.153L23.507 149.551C23.8075 149.849 24.2014 149.998 24.5953 149.998C24.9893 149.998 25.3832 149.849 25.6837 149.551C26.2848 148.954 26.2848 147.988 25.6837 147.392L19.6054 141.362ZM133.472 141.362V36.6368C133.472 35.7933 132.784 35.1095 131.933 35.1095L115.007 35.1105C114.157 35.1105 113.468 35.7943 113.468 36.6379C113.468 37.4815 114.156 38.1653 115.007 38.1653H130.395V141.363L124.317 147.394C123.716 147.99 123.716 148.956 124.317 149.553C124.918 150.149 125.892 150.149 126.493 149.553L131.933 144.154L137.372 149.552C137.673 149.85 138.067 149.999 138.461 149.999C138.855 149.999 139.249 149.85 139.549 149.552C140.15 148.955 140.15 147.989 139.549 147.393L133.472 141.362Z" fill="black"/>
<path d="M104.235 36.637C104.235 37.4806 103.547 38.1644 102.696 38.1644H91.9253C91.0752 38.1644 90.3862 37.4806 90.3862 36.637C90.3862 35.7935 91.0742 35.1097 91.9253 35.1097H102.696C103.547 35.1107 104.235 35.7945 104.235 36.637ZM70.3832 35.1107C69.5331 35.1107 68.844 35.7945 68.844 36.6381C68.844 37.4817 69.532 38.1654 70.3832 38.1654H79.6162C80.4663 38.1654 81.1553 37.4817 81.1553 36.6381C81.1553 35.7945 80.4673 35.1107 79.6162 35.1107H70.3832ZM47.3021 35.1107C46.452 35.1107 45.7629 35.7945 45.7629 36.6381C45.7629 37.4817 46.4509 38.1654 47.3021 38.1654H58.073C58.9231 38.1654 59.6122 37.4817 59.6122 36.6381C59.6122 35.7945 58.9242 35.1107 58.073 35.1107H47.3021ZM122.7 126.726H95.003C93.306 126.726 91.9258 125.356 91.9258 123.672V57.0441C91.9258 53.295 94.1916 49.9717 97.6972 48.5754L107.313 44.7464L107.32 33.58C107.32 31.0568 109.39 29.0022 111.936 29.0022H115.008C115.858 29.0022 116.547 29.686 116.547 30.5296C116.547 31.3732 115.859 32.0569 115.008 32.0569H111.936C111.087 32.0569 110.397 32.7407 110.397 33.5822L110.39 44.7838L119.989 48.582C123.506 49.973 125.778 53.2993 125.778 57.0547V123.672C125.778 125.357 124.396 126.727 122.701 126.727L122.7 126.726ZM122.701 123.671L122.7 57.0539C122.7 54.5552 121.189 52.342 118.85 51.4163L108.806 47.4425L98.8419 51.41C96.5095 52.3377 95.0024 54.549 95.0024 57.0433V123.672L122.701 123.671ZM75.7616 51.4098L85.7255 47.4422L91.3572 49.6704C92.1376 49.9825 93.0402 49.6023 93.3558 48.8183C93.6713 48.0344 93.2871 47.1472 92.4961 46.8341L87.3097 44.7817L87.3161 33.5801C87.3161 32.7387 88.0063 32.0548 88.8553 32.0548H91.9273C92.7774 32.0548 93.4665 31.3711 93.4665 30.5275C93.4665 29.6839 92.7784 29.0001 91.9273 29.0001H88.8553C86.3093 29.0001 84.2388 31.0536 84.2388 33.5779L84.2324 44.7443L74.6164 48.5733C71.1108 49.9707 68.845 53.2937 68.845 57.0428V123.671C68.845 125.355 70.2264 126.725 71.9222 126.725H88.8489C89.699 126.725 90.388 126.041 90.388 125.197C90.388 124.354 89.7 123.67 88.8489 123.67L71.9222 123.671V57.0427C71.9222 54.5483 73.4292 52.3371 75.7616 51.4095L75.7616 51.4098ZM67.3521 123.671H50.4254L50.4265 57.043C50.4265 54.5486 51.9335 52.3374 54.2649 51.4098L64.2309 47.4422L69.8627 49.6704C70.643 49.9825 71.5446 49.6023 71.8613 48.8183C72.1768 48.0344 71.7926 47.1472 71.0015 46.8341L65.7679 44.7635L65.7743 33.5799C65.7743 32.7385 66.4645 32.0547 67.3135 32.0547H70.3855C71.2356 32.0547 71.9246 31.3709 71.9246 30.5274C71.9246 29.6838 71.2366 29 70.3855 29H67.3135C64.7675 29 62.697 31.0535 62.697 33.5778L62.6906 44.7633L53.1196 48.5732C49.614 49.9695 47.3494 53.2936 47.3494 57.0419V123.67C47.3494 125.354 48.7307 126.724 50.4266 126.724H67.3532C68.2033 126.724 68.8924 126.04 68.8924 125.196C68.8913 124.355 68.2033 123.671 67.3521 123.671L67.3521 123.671ZM31.1835 51.4098L41.1496 47.4422L46.7814 49.6704C47.5639 49.9825 48.4644 49.6023 48.7799 48.8183C49.0955 48.0344 48.7112 47.1472 47.9202 46.8341L42.6866 44.7635L42.693 33.5799C42.693 32.7385 43.3832 32.0547 44.2322 32.0547H47.3042C48.1543 32.0547 48.8433 31.3709 48.8433 30.5274C48.8433 29.6838 48.1553 29 47.3042 29H44.2322C41.6862 29 39.6157 31.0535 39.6157 33.5778L39.6092 44.7633L30.0383 48.5732C26.5327 49.9695 24.268 53.2936 24.268 57.0419V123.67C24.268 125.354 25.6494 126.724 27.3452 126.724H44.2719C45.122 126.724 45.8111 126.04 45.8111 125.196C45.8111 124.353 45.1231 123.669 44.2719 123.669H27.3452L27.3463 57.0435C27.3463 54.549 28.8533 52.3378 31.1835 51.4102V51.4098ZM19.6054 141.362V38.1638H34.9927C35.8428 38.1638 36.5319 37.48 36.5319 36.6364C36.5319 35.7928 35.8439 35.109 34.9927 35.109L18.0672 35.1101C17.2171 35.1101 16.528 35.7939 16.528 36.6375V141.362L10.4508 147.393C9.84973 147.989 9.84973 148.955 10.4508 149.552C11.0519 150.148 12.0254 150.148 12.6265 149.552L18.0673 144.153L23.507 149.551C23.8075 149.849 24.2014 149.998 24.5953 149.998C24.9893 149.998 25.3832 149.849 25.6837 149.551C26.2848 148.954 26.2848 147.988 25.6837 147.392L19.6054 141.362ZM133.472 141.362V36.6368C133.472 35.7933 132.784 35.1095 131.933 35.1095L115.007 35.1105C114.157 35.1105 113.468 35.7943 113.468 36.6379C113.468 37.4815 114.156 38.1653 115.007 38.1653H130.395V141.363L124.317 147.394C123.716 147.99 123.716 148.956 124.317 149.553C124.918 150.149 125.892 150.149 126.493 149.553L131.933 144.154L137.372 149.552C137.673 149.85 138.067 149.999 138.461 149.999C138.855 149.999 139.249 149.85 139.549 149.552C140.15 148.955 140.15 147.989 139.549 147.393L133.472 141.362Z" stroke="white" stroke-width="0.4" mask="url(#path-1-inside-1_3844_50106)"/>
</g>
<defs>
<filter id="filter0_d_3844_50106" x="10" y="29" width="132" height="123" filterUnits="userSpaceOnUse" color-interpolation-filters="sRGB">
<feFlood flood-opacity="0" result="BackgroundImageFix"/>
<feColorMatrix in="SourceAlpha" type="matrix" values="0 0 0 0 0 0 0 0 0 0 0 0 0 0 0 0 0 0 127 0" result="hardAlpha"/>
<feOffset dx="2" dy="2"/>
<feComposite in2="hardAlpha" operator="out"/>
<feColorMatrix type="matrix" values="0 0 0 0 1 0 0 0 0 0.45098 0 0 0 0 0.580392 0 0 0 0.7 0"/>
<feBlend mode="normal" in2="BackgroundImageFix" result="effect1_dropShadow_3844_50106"/>
<feBlend mode="normal" in="SourceGraphic" in2="effect1_dropShadow_3844_50106" result="shape"/>
</filter>
</defs>
</svg>
