<svg width="151" height="153" viewBox="0 0 151 153" fill="none" xmlns="http://www.w3.org/2000/svg">
<g filter="url(#filter0_d_3897_76863)">
<path d="M110.228 2.14048C110.201 1.50328 109.676 1 109.038 1H41.549C40.9108 1 40.3866 1.50328 40.3594 2.14048L34.2239 149.759C34.2092 150.082 34.3295 150.398 34.5535 150.633C34.7784 150.868 35.0881 151 35.4125 151H61.1811C61.7764 151 62.2797 150.56 62.3613 149.971L75.8556 51.5876L88.2231 149.958C88.2984 150.553 88.8038 151 89.4044 151L115.175 150.999C115.498 150.999 115.809 150.867 116.034 150.633C116.258 150.398 116.378 150.082 116.364 149.759L110.228 2.14048ZM93.0494 3.3814H95.5773V10.76H93.0494V3.3814ZM55.0111 3.3814H57.539V10.76H55.0111V3.3814ZM60.1443 148.619H36.6535L41.7082 27.0144L49.858 16.3336C50.2567 15.8115 50.1573 15.0644 49.6341 14.6658C49.112 14.2661 48.3639 14.3686 47.9663 14.8897L41.8819 22.8646L42.6907 3.38123H52.6295V11.9505C52.6295 12.6076 53.1621 13.1412 53.8203 13.1412H58.7285C59.3866 13.1412 59.9192 12.6076 59.9192 11.9505V3.38123H69.81V31.4713C69.81 36.9844 73.4095 41.4656 74.6523 42.8499L60.1443 148.619ZM90.4549 148.619L77.0894 42.3036C77.0863 42.2722 77.0695 42.244 77.0622 42.2147C77.0507 42.1592 77.034 42.109 77.0141 42.0557C76.9848 41.9709 76.9461 41.8945 76.8969 41.8192C76.8676 41.7731 76.8372 41.7292 76.8017 41.6863C76.7818 41.6622 76.7692 41.6329 76.7473 41.6099C76.7023 41.5639 72.1884 36.9883 72.1884 31.4732L72.1894 3.38305H90.6683V11.9523C90.6683 12.6094 91.2009 13.143 91.859 13.143H96.7672C97.4253 13.143 97.9579 12.6094 97.9579 11.9523L97.9568 3.38305H107.896L108.705 22.8653L102.621 14.8904C102.224 14.3683 101.474 14.2668 100.953 14.6665C100.431 15.0652 100.331 15.8122 100.729 16.3344L108.879 27.0151L113.934 148.619L90.4549 148.619Z" fill="black"/>
<path d="M77.1335 4.66016C75.1236 4.66016 73.4883 6.28821 73.4883 8.29095C73.4883 10.2937 75.1226 11.9207 77.1335 11.9207C79.1446 11.9207 80.7788 10.2926 80.7788 8.29095C80.7788 6.28929 79.1434 4.66016 77.1335 4.66016ZM77.1335 9.53916C76.4367 9.53916 75.8696 8.97832 75.8696 8.28985C75.8696 7.60034 76.4377 7.0395 77.1335 7.0395C77.8304 7.0395 78.3975 7.60034 78.3975 8.28985C78.3965 8.98041 77.8304 9.53916 77.1335 9.53916Z" fill="black"/>
</g>
<defs>
<filter id="filter0_d_3897_76863" x="34.2227" y="1" width="84.1426" height="152" filterUnits="userSpaceOnUse" color-interpolation-filters="sRGB">
<feFlood flood-opacity="0" result="BackgroundImageFix"/>
<feColorMatrix in="SourceAlpha" type="matrix" values="0 0 0 0 0 0 0 0 0 0 0 0 0 0 0 0 0 0 127 0" result="hardAlpha"/>
<feOffset dx="2" dy="2"/>
<feComposite in2="hardAlpha" operator="out"/>
<feColorMatrix type="matrix" values="0 0 0 0 1 0 0 0 0 0.45098 0 0 0 0 0.580392 0 0 0 0.7 0"/>
<feBlend mode="normal" in2="BackgroundImageFix" result="effect1_dropShadow_3897_76863"/>
<feBlend mode="normal" in="SourceGraphic" in2="effect1_dropShadow_3897_76863" result="shape"/>
</filter>
</defs>
</svg>
