<svg width="152" height="153" viewBox="0 0 152 153" fill="none" xmlns="http://www.w3.org/2000/svg">
<g filter="url(#filter0_d_3844_50114)">
<path d="M78.3418 0.238475H73.9351V28.6964L44.0098 56.0526C41.2564 58.4398 39.6031 62.2946 39.7874 65.9662V136.835C39.7874 140.506 41.2563 143.995 43.6436 146.382C46.2139 148.952 49.5193 150.238 53.191 150.238L99.0902 150.055C102.762 150.055 106.067 148.586 108.638 146.199C111.208 143.629 112.494 140.323 112.494 136.652V65.7831C112.494 62.479 110.842 58.8061 108.087 56.0525L78.1605 28.5129L78.1592 0.238281L78.3418 0.238475ZM99.0886 145.647L53.1893 145.831C50.8022 145.831 48.4161 144.912 46.7628 143.26C45.1107 141.608 44.1925 139.221 44.1925 136.834V65.9652C44.0093 63.7624 44.9263 61.3753 46.5796 59.9065C46.7628 59.7233 46.7628 59.7233 46.9472 59.5389L73.753 34.9372V52.0111C71.1827 52.5618 68.9798 53.6632 67.1435 55.4998C64.7564 57.8869 63.4719 61.191 63.4719 64.4964C63.4719 67.8005 64.7577 71.1059 67.3281 73.493C69.7153 75.8801 73.0193 77.3492 76.3247 77.3492C79.6288 77.3492 82.7512 76.0633 85.3213 73.493C87.8916 70.9227 89.1775 67.8018 89.1775 64.4964C89.1775 58.4377 84.5875 53.1137 78.7118 52.0124V34.9385L105.147 59.357C106.984 61.1935 108.085 63.5794 108.085 65.7835V136.652C108.085 141.608 104.046 145.648 99.0887 145.648L99.0886 145.647ZM73.7519 65.4154H78.1585V56.4189C81.6472 57.3371 84.2172 60.6413 84.2172 64.3129C84.2172 68.7195 80.361 72.5744 75.9557 72.5744C71.549 72.5744 67.6942 68.7182 67.6942 64.3129C67.6942 62.1101 68.6124 60.0905 70.0813 58.4371C70.9996 57.5189 72.2841 56.785 73.57 56.4175L73.5687 65.4154L73.7519 65.4154Z" fill="black"/>
<path d="M74.3101 0.613475H77.7842L77.7855 28.5129L77.7855 28.6774L77.9066 28.7888L107.827 56.323C110.521 59.0183 112.119 62.5971 112.119 65.7831V136.652C112.119 140.228 110.869 143.434 108.377 145.929C105.869 148.256 102.655 149.68 99.0902 149.68H99.0887L53.191 149.863C53.1905 149.863 53.19 149.863 53.1895 149.863C49.6112 149.863 46.4038 148.612 43.9087 146.117C41.5937 143.802 40.1624 140.41 40.1624 136.835V65.9662V65.9568L40.1619 65.9474C39.9834 62.3911 41.5891 58.6477 44.2554 56.336L44.2555 56.3361L44.2628 56.3294L74.1882 28.9731L74.3101 28.8616V28.6964V0.613475ZM53.1908 146.206L99.0327 146.023H99.0887C104.253 146.023 108.46 141.815 108.46 136.652V65.7835C108.46 63.4608 107.305 60.9838 105.413 59.0918L105.407 59.0865L105.402 59.0815L78.9662 34.6631L78.3368 34.0817V34.9385V52.0124V52.3237L78.6427 52.381C84.3469 53.4501 88.8025 58.624 88.8025 64.4964C88.8025 67.6977 87.5594 70.7245 85.0561 73.2278L85.3213 73.493L85.0561 73.2278C82.5531 75.7312 79.5247 76.9742 76.3247 76.9742C73.1272 76.9742 69.9163 75.5508 67.5933 73.2278L67.5934 73.2276L67.5833 73.2182C65.0953 70.9076 63.8469 67.7047 63.8469 64.4964C63.8469 61.2851 65.0955 58.0781 67.4087 55.7649L67.1435 55.4998L67.4087 55.7649C69.1874 53.9859 71.3225 52.9154 73.8316 52.3778L74.128 52.3143V52.0111V34.9372V34.0841L73.4995 34.661L46.6936 59.2626L46.6877 59.2681L46.682 59.2738L46.3222 59.6336C44.5866 61.1807 43.6309 63.6726 43.8175 65.9805V136.834C43.8175 139.312 44.7693 141.797 46.4976 143.525L46.4977 143.525C48.2272 145.254 50.7113 146.206 53.1893 146.206H53.1908ZM77.7835 56.4189V65.0404H73.9437L73.945 56.4175L73.945 55.9203L73.4669 56.0569C72.1241 56.4407 70.7826 57.2055 69.8161 58.172L69.8083 58.1798L69.801 58.188C68.2834 59.8962 67.3192 62.0013 67.3192 64.3129C67.3192 68.9253 71.3419 72.9494 75.9557 72.9494C80.5681 72.9494 84.5922 68.9267 84.5922 64.3129C84.5922 60.471 81.9075 57.0178 78.254 56.0562L77.7835 55.9324V56.4189Z" stroke="white" stroke-width="0.75"/>
</g>
<defs>
<filter id="filter0_d_3844_50114" x="39.7734" y="0.238281" width="74.7207" height="152" filterUnits="userSpaceOnUse" color-interpolation-filters="sRGB">
<feFlood flood-opacity="0" result="BackgroundImageFix"/>
<feColorMatrix in="SourceAlpha" type="matrix" values="0 0 0 0 0 0 0 0 0 0 0 0 0 0 0 0 0 0 127 0" result="hardAlpha"/>
<feOffset dx="2" dy="2"/>
<feComposite in2="hardAlpha" operator="out"/>
<feColorMatrix type="matrix" values="0 0 0 0 1 0 0 0 0 0.45098 0 0 0 0 0.580392 0 0 0 0.7 0"/>
<feBlend mode="normal" in2="BackgroundImageFix" result="effect1_dropShadow_3844_50114"/>
<feBlend mode="normal" in="SourceGraphic" in2="effect1_dropShadow_3844_50114" result="shape"/>
</filter>
</defs>
</svg>
