<svg width="24" height="25" viewBox="0 0 24 25" fill="none" xmlns="http://www.w3.org/2000/svg">
<path d="M20.9906 7.05175C20.9904 7.05193 20.9902 7.05211 20.9901 7.05228L20.0931 7.95697L20.5521 8.48766C20.7763 8.72624 20.7757 9.09842 20.5504 9.33631L11.24 19.5334C11.2332 19.5407 11.2259 19.5475 11.2181 19.5536L11.1382 19.6156C11.1075 19.6395 11.0697 19.6524 11.0308 19.6524H10.9945C10.9247 19.6649 10.8533 19.6649 10.7834 19.6524H8.39809L7.24377 20.7984L7.24332 20.7988L6.80238 21.2398C6.68918 21.3602 6.53054 21.4279 6.36507 21.4261M20.9906 7.05175L6.36613 21.2511M20.9906 7.05175C21.1085 6.93848 21.175 6.78205 21.175 6.61864C21.175 6.45384 21.1074 6.29614 20.9876 6.18265M20.9906 7.05175L20.9876 6.18265M6.36507 21.4261C6.36468 21.4261 6.3643 21.4261 6.36392 21.4261L6.36613 21.2511M6.36507 21.4261H6.36613V21.2511M6.36507 21.4261L3.89296 21.4261L3.89198 21.2511M6.36613 21.2511H3.89198M3.89198 21.2511V21.4261H3.89262M3.89198 21.2511L3.89262 21.4261M3.89262 21.4261C3.60993 21.4276 3.3383 21.3164 3.13788 21.117L3.2613 20.9929L3.13788 21.117C2.9374 20.9176 2.82467 20.6463 2.825 20.3635L3 20.3636L2.825 20.3634L3.89262 21.4261ZM20.9876 6.18265L19.2178 4.41248C19.1043 4.29267 18.9466 4.22502 18.7818 4.22502C18.6171 4.22502 18.4596 4.29255 18.3461 4.41217L17.4512 5.29929L16.9979 4.85299L16.9979 4.85298L16.9959 4.85107C16.7576 4.62375 16.3829 4.62326 16.144 4.84959L5.94671 14.1425C5.93933 14.1492 5.93253 14.1566 5.92639 14.1645L5.86434 14.2443C5.84048 14.275 5.82753 14.3128 5.82753 14.3517V14.388C5.81506 14.4578 5.81506 14.5293 5.82753 14.5991V16.9819L4.60451 18.1538L4.60449 18.1538L4.60221 18.1561L3.13914 19.6104L20.9876 6.18265ZM8.14125 18.4154C7.97583 18.4137 7.81757 18.4814 7.70436 18.6014M8.14125 18.4154C8.14167 18.4154 8.14208 18.4154 8.14249 18.4154L8.14028 18.5904M8.14125 18.4154H8.14028V18.5904M8.14125 18.4154H9.30517M7.70436 18.6014L8.14028 18.5904M7.70436 18.6014L6.81058 19.4875L5.91293 18.5899L6.79905 17.6961L7.70436 18.6014ZM8.14028 18.5904H9.48018L9.30517 18.4154M9.30517 18.4154L6.98505 16.0953M9.30517 18.4154L6.98505 16.0953M6.98505 16.0953V17.2592V17.2602H6.81005L6.98505 16.0953ZM5.75779 20.1891H4.31473L5.03621 19.4675L5.75779 20.1891ZM9.55266 18.4154L9.72766 18.5904L9.55266 18.4154ZM10.7945 18.1422L7.25878 14.623L16.5597 6.14215L19.2588 8.84117L10.7945 18.1422ZM19.2257 7.07161L18.3291 6.17502L18.7822 5.7219L19.6788 6.61848L19.2257 7.07161Z" fill="black" stroke="black" stroke-width="0.35" stroke-linejoin="round"/>
</svg>
