<svg width="1725" height="37" viewBox="0 0 1725 37" fill="none" xmlns="http://www.w3.org/2000/svg">
<path fill-rule="evenodd" clip-rule="evenodd" d="M1688.37 36.0791L1698.28 14.0176L1692.83 14.0176L1688.28 24.0561L1679.95 6.21759L1701.83 6.21759L1703.93 1.21759L1672.1 1.21759L1688.37 36.0791Z" fill="white"/>
<path fill-rule="evenodd" clip-rule="evenodd" d="M1693.55 36.0979L1708.73 0.979492L1725 36.0405L1719.98 36.1427L1719.95 36.0795H1709.25V31.0795H1717.53L1708.89 13.2037L1698.54 36.0853L1693.55 36.0979Z" fill="#FBF9F2"/>
<path fill-rule="evenodd" clip-rule="evenodd" d="M1626.44 36.0791L1636.35 14.0176L1630.9 14.0176L1626.35 24.0561L1618.02 6.21759L1639.9 6.21759L1642 1.21759L1610.17 1.21759L1626.44 36.0791Z" fill="white"/>
<path fill-rule="evenodd" clip-rule="evenodd" d="M1631.62 36.0979L1646.81 0.979492L1663.07 36.0405L1658.05 36.1427L1658.02 36.0795H1647.32V31.0795H1655.6L1646.96 13.2037L1636.61 36.0853L1631.62 36.0979Z" fill="#FBF9F2"/>
<path fill-rule="evenodd" clip-rule="evenodd" d="M1564.51 36.0791L1574.42 14.0176L1568.97 14.0176L1564.42 24.0561L1556.09 6.21759L1577.97 6.21759L1580.07 1.21759L1548.24 1.21759L1564.51 36.0791Z" fill="white"/>
<path fill-rule="evenodd" clip-rule="evenodd" d="M1569.69 36.0979L1584.88 0.979492L1601.14 36.0405L1596.12 36.1427L1596.09 36.0795H1585.39V31.0795H1593.67L1585.03 13.2037L1574.68 36.0853L1569.69 36.0979Z" fill="#FBF9F2"/>
<path fill-rule="evenodd" clip-rule="evenodd" d="M1502.58 36.0791L1512.49 14.0176L1507.04 14.0176L1502.49 24.0561L1494.16 6.21759L1516.04 6.21759L1518.14 1.21759L1486.31 1.21759L1502.58 36.0791Z" fill="white"/>
<path fill-rule="evenodd" clip-rule="evenodd" d="M1507.76 36.0979L1522.95 0.979492L1539.21 36.0405L1534.19 36.1427L1534.16 36.0795H1523.46V31.0795H1531.74L1523.1 13.2037L1512.76 36.0853L1507.76 36.0979Z" fill="#FBF9F2"/>
<path fill-rule="evenodd" clip-rule="evenodd" d="M1440.65 36.0791L1450.56 14.0176L1445.11 14.0176L1440.56 24.0561L1432.23 6.21759L1454.11 6.21759L1456.21 1.21759L1424.38 1.21759L1440.65 36.0791Z" fill="white"/>
<path fill-rule="evenodd" clip-rule="evenodd" d="M1445.83 36.0979L1461.02 0.979492L1477.28 36.0405L1472.26 36.1427L1472.23 36.0795H1461.53V31.0795H1469.81L1461.17 13.2037L1450.83 36.0853L1445.83 36.0979Z" fill="#FBF9F2"/>
<path fill-rule="evenodd" clip-rule="evenodd" d="M1378.73 36.0791L1388.63 14.0176L1383.18 14.0176L1378.63 24.0561L1370.3 6.21759L1392.18 6.21759L1394.28 1.21759L1362.45 1.21759L1378.73 36.0791Z" fill="white"/>
<path fill-rule="evenodd" clip-rule="evenodd" d="M1383.9 36.0979L1399.09 0.979492L1415.35 36.0405L1410.33 36.1427L1410.3 36.0795H1399.6V31.0795H1407.89L1399.24 13.2037L1388.9 36.0853L1383.9 36.0979Z" fill="#FBF9F2"/>
<path fill-rule="evenodd" clip-rule="evenodd" d="M1316.8 36.0791L1326.7 14.0176L1321.25 14.0176L1316.7 24.0561L1308.37 6.21759L1330.25 6.21759L1332.35 1.21759L1300.52 1.21759L1316.8 36.0791Z" fill="white"/>
<path fill-rule="evenodd" clip-rule="evenodd" d="M1321.97 36.0979L1337.16 0.979492L1353.42 36.0405L1348.4 36.1427L1348.37 36.0795H1337.67V31.0795H1345.96L1337.31 13.2037L1326.97 36.0853L1321.97 36.0979Z" fill="#FBF9F2"/>
<path fill-rule="evenodd" clip-rule="evenodd" d="M1254.87 36.0791L1264.77 14.0176L1259.32 14.0176L1254.77 24.0561L1246.44 6.21759L1268.32 6.21759L1270.42 1.21759L1238.59 1.21759L1254.87 36.0791Z" fill="white"/>
<path fill-rule="evenodd" clip-rule="evenodd" d="M1260.04 36.0979L1275.23 0.979492L1291.49 36.0405L1286.47 36.1427L1286.44 36.0795H1275.74V31.0795H1284.03L1275.38 13.2037L1265.04 36.0853L1260.04 36.0979Z" fill="#FBF9F2"/>
<path fill-rule="evenodd" clip-rule="evenodd" d="M1192.94 36.0791L1202.84 14.0176L1197.39 14.0176L1192.84 24.0561L1184.51 6.21759L1206.39 6.21759L1208.49 1.21759L1176.66 1.21759L1192.94 36.0791Z" fill="white"/>
<path fill-rule="evenodd" clip-rule="evenodd" d="M1198.11 36.0979L1213.3 0.979492L1229.56 36.0405L1224.54 36.1427L1224.51 36.0795H1213.81V31.0795H1222.1L1213.45 13.2037L1203.11 36.0853L1198.11 36.0979Z" fill="#FBF9F2"/>
<path fill-rule="evenodd" clip-rule="evenodd" d="M1131.01 36.0791L1140.91 14.0176L1135.46 14.0176L1130.91 24.0561L1122.59 6.21759L1144.46 6.21759L1146.56 1.21759L1114.73 1.21759L1131.01 36.0791Z" fill="white"/>
<path fill-rule="evenodd" clip-rule="evenodd" d="M1136.18 36.0979L1151.37 0.979492L1167.63 36.0405L1162.62 36.1427L1162.58 36.0795H1151.88V31.0795H1160.17L1151.52 13.2037L1141.18 36.0853L1136.18 36.0979Z" fill="#FBF9F2"/>
<path fill-rule="evenodd" clip-rule="evenodd" d="M1069.08 36.0791L1078.98 14.0176L1073.53 14.0176L1068.98 24.0561L1060.66 6.21759L1082.53 6.21759L1084.63 1.21759L1052.8 1.21759L1069.08 36.0791Z" fill="white"/>
<path fill-rule="evenodd" clip-rule="evenodd" d="M1074.25 36.0979L1089.44 0.979492L1105.7 36.0405L1100.69 36.1427L1100.65 36.0795H1089.95V31.0795H1098.24L1089.59 13.2037L1079.25 36.0853L1074.25 36.0979Z" fill="#FBF9F2"/>
<path fill-rule="evenodd" clip-rule="evenodd" d="M1007.15 36.0791L1017.05 14.0176L1011.6 14.0176L1007.05 24.0561L998.726 6.21759L1020.6 6.21759L1022.7 1.21759L990.874 1.21759L1007.15 36.0791Z" fill="white"/>
<path fill-rule="evenodd" clip-rule="evenodd" d="M1012.32 36.0979L1027.51 0.979492L1043.77 36.0405L1038.76 36.1427L1038.73 36.0795H1028.02V31.0795H1036.31L1027.66 13.2037L1017.32 36.0853L1012.32 36.0979Z" fill="#FBF9F2"/>
<path fill-rule="evenodd" clip-rule="evenodd" d="M945.218 36.0791L955.12 14.0176L949.67 14.0176L945.123 24.0561L936.796 6.21759L958.67 6.21759L960.77 1.21759L928.945 1.21759L945.218 36.0791Z" fill="white"/>
<path fill-rule="evenodd" clip-rule="evenodd" d="M950.394 36.0979L965.579 0.979492L981.844 36.0405L976.826 36.1427L976.796 36.0795H966.094V31.0795H974.378L965.733 13.2037L955.389 36.0853L950.394 36.0979Z" fill="#FBF9F2"/>
<path fill-rule="evenodd" clip-rule="evenodd" d="M883.288 36.0791L893.191 14.0176L887.741 14.0176L883.194 24.0561L874.867 6.21759L896.741 6.21759L898.841 1.21759L867.015 1.21759L883.288 36.0791Z" fill="white"/>
<path fill-rule="evenodd" clip-rule="evenodd" d="M888.465 36.0979L903.65 0.979492L919.915 36.0405L914.897 36.1427L914.866 36.0795H904.165V31.0795H912.448L903.804 13.2037L893.459 36.0853L888.465 36.0979Z" fill="#FBF9F2"/>
<path fill-rule="evenodd" clip-rule="evenodd" d="M821.358 36.0791L831.261 14.0176L825.811 14.0176L821.264 24.0561L812.937 6.21759L834.811 6.21759L836.911 1.21759L805.085 1.21759L821.358 36.0791Z" fill="white"/>
<path fill-rule="evenodd" clip-rule="evenodd" d="M826.535 36.0979L841.72 0.979492L857.985 36.0405L852.967 36.1427L852.936 36.0795H842.235V31.0795H850.518L841.874 13.2037L831.529 36.0853L826.535 36.0979Z" fill="#FBF9F2"/>
<path fill-rule="evenodd" clip-rule="evenodd" d="M759.429 36.0791L769.332 14.0176L763.882 14.0176L759.335 24.0561L751.008 6.21759L772.882 6.21759L774.982 1.21759L743.156 1.21759L759.429 36.0791Z" fill="white"/>
<path fill-rule="evenodd" clip-rule="evenodd" d="M764.606 36.0979L779.791 0.979492L796.056 36.0405L791.037 36.1427L791.007 36.0795H780.306V31.0795H788.589L779.944 13.2037L769.6 36.0853L764.606 36.0979Z" fill="#FBF9F2"/>
<path fill-rule="evenodd" clip-rule="evenodd" d="M697.499 36.0791L707.402 14.0176L701.952 14.0176L697.405 24.0561L689.078 6.21759L710.952 6.21759L713.052 1.21759L681.226 1.21759L697.499 36.0791Z" fill="white"/>
<path fill-rule="evenodd" clip-rule="evenodd" d="M702.676 36.0979L717.861 0.979492L734.126 36.0405L729.108 36.1427L729.077 36.0795H718.376V31.0795H726.659L718.015 13.2037L707.67 36.0853L702.676 36.0979Z" fill="#FBF9F2"/>
<path fill-rule="evenodd" clip-rule="evenodd" d="M635.57 36.0791L645.472 14.0176L640.022 14.0176L635.475 24.0561L627.148 6.21759L649.022 6.21759L651.122 1.21759L619.296 1.21759L635.57 36.0791Z" fill="white"/>
<path fill-rule="evenodd" clip-rule="evenodd" d="M640.746 36.0979L655.931 0.979492L672.196 36.0405L667.178 36.1427L667.147 36.0795H656.446V31.0795H664.729L656.085 13.2037L645.74 36.0853L640.746 36.0979Z" fill="#FBF9F2"/>
<path fill-rule="evenodd" clip-rule="evenodd" d="M573.64 36.0791L583.543 14.0176L578.093 14.0176L573.546 24.0561L565.219 6.21759L587.093 6.21759L589.193 1.21759L557.367 1.21759L573.64 36.0791Z" fill="white"/>
<path fill-rule="evenodd" clip-rule="evenodd" d="M578.817 36.0979L594.002 0.979492L610.267 36.0405L605.248 36.1427L605.218 36.0795H594.517V31.0795H602.8L594.155 13.2037L583.811 36.0853L578.817 36.0979Z" fill="#FBF9F2"/>
<path fill-rule="evenodd" clip-rule="evenodd" d="M511.71 36.0791L521.613 14.0176L516.163 14.0176L511.616 24.0561L503.289 6.21759L525.163 6.21759L527.263 1.21759L495.437 1.21759L511.71 36.0791Z" fill="white"/>
<path fill-rule="evenodd" clip-rule="evenodd" d="M516.887 36.0979L532.072 0.979492L548.337 36.0405L543.319 36.1427L543.288 36.0795H532.587V31.0795H540.87L532.226 13.2037L521.881 36.0853L516.887 36.0979Z" fill="#FBF9F2"/>
<path fill-rule="evenodd" clip-rule="evenodd" d="M449.781 36.0791L459.683 14.0176L454.233 14.0176L449.686 24.0561L441.359 6.21759L463.233 6.21759L465.333 1.21759L433.507 1.21759L449.781 36.0791Z" fill="white"/>
<path fill-rule="evenodd" clip-rule="evenodd" d="M454.957 36.0979L470.142 0.979492L486.407 36.0405L481.389 36.1427L481.358 36.0795H470.657V31.0795H478.94L470.296 13.2037L459.951 36.0853L454.957 36.0979Z" fill="#FBF9F2"/>
<path fill-rule="evenodd" clip-rule="evenodd" d="M387.851 36.0791L397.754 14.0176L392.304 14.0176L387.756 24.0561L379.43 6.21759L401.304 6.21759L403.404 1.21759L371.578 1.21759L387.851 36.0791Z" fill="white"/>
<path fill-rule="evenodd" clip-rule="evenodd" d="M393.028 36.0979L408.212 0.979492L424.478 36.0405L419.459 36.1427L419.429 36.0795H408.728V31.0795H417.011L408.366 13.2037L398.022 36.0853L393.028 36.0979Z" fill="#FBF9F2"/>
<path fill-rule="evenodd" clip-rule="evenodd" d="M325.921 36.0791L335.824 14.0176L330.374 14.0176L325.827 24.0561L317.5 6.21759L339.374 6.21759L341.474 1.21759L309.648 1.21759L325.921 36.0791Z" fill="white"/>
<path fill-rule="evenodd" clip-rule="evenodd" d="M331.098 36.0979L346.283 0.979492L362.548 36.0405L357.53 36.1427L357.499 36.0795H346.798V31.0795H355.081L346.437 13.2037L336.092 36.0853L331.098 36.0979Z" fill="#FBF9F2"/>
<path fill-rule="evenodd" clip-rule="evenodd" d="M263.991 36.0791L273.894 14.0176L268.444 14.0176L263.897 24.0561L255.57 6.21759L277.444 6.21759L279.544 1.21759L247.718 1.21759L263.991 36.0791Z" fill="white"/>
<path fill-rule="evenodd" clip-rule="evenodd" d="M269.168 36.0979L284.353 0.979492L300.618 36.0405L295.6 36.1427L295.569 36.0795H284.868V31.0795H293.151L284.507 13.2037L274.162 36.0853L269.168 36.0979Z" fill="#FBF9F2"/>
<path fill-rule="evenodd" clip-rule="evenodd" d="M202.062 36.0791L211.964 14.0176L206.514 14.0176L201.967 24.0561L193.64 6.21759L215.514 6.21759L217.614 1.21759L185.789 1.21759L202.062 36.0791Z" fill="white"/>
<path fill-rule="evenodd" clip-rule="evenodd" d="M207.238 36.0979L222.423 0.979492L238.688 36.0405L233.67 36.1427L233.64 36.0795H222.938V31.0795H231.222L222.577 13.2037L212.233 36.0853L207.238 36.0979Z" fill="#FBF9F2"/>
<path fill-rule="evenodd" clip-rule="evenodd" d="M140.132 36.0791L150.035 14.0176L144.585 14.0176L140.038 24.0561L131.711 6.21759L153.585 6.21759L155.685 1.21759L123.859 1.21759L140.132 36.0791Z" fill="white"/>
<path fill-rule="evenodd" clip-rule="evenodd" d="M145.309 36.0979L160.494 0.979492L176.759 36.0405L171.74 36.1427L171.71 36.0795H161.009V31.0795H169.292L160.648 13.2037L150.303 36.0853L145.309 36.0979Z" fill="#FBF9F2"/>
<path fill-rule="evenodd" clip-rule="evenodd" d="M78.2024 36.0791L88.1051 14.0176L82.6551 14.0176L78.108 24.0561L69.7811 6.21759L91.6551 6.21759L93.7551 1.21759L61.9292 1.21759L78.2024 36.0791Z" fill="white"/>
<path fill-rule="evenodd" clip-rule="evenodd" d="M83.3791 36.0979L98.564 0.979492L114.829 36.0405L109.811 36.1427L109.78 36.0795H99.0791V31.0795H107.362L98.7178 13.2037L88.3731 36.0853L83.3791 36.0979Z" fill="#FBF9F2"/>
<path fill-rule="evenodd" clip-rule="evenodd" d="M16.2727 36.0791L26.1754 14.0176L20.7254 14.0176L16.1783 24.0561L7.8514 6.21759L29.7254 6.21759L31.8254 1.21759L-0.000491329 1.21759L16.2727 36.0791Z" fill="white"/>
<path fill-rule="evenodd" clip-rule="evenodd" d="M21.4494 36.0979L36.6343 0.979492L52.8994 36.0405L47.8811 36.1427L47.8506 36.0795H37.1494V31.0795H45.4326L36.7881 13.2037L26.4435 36.0853L21.4494 36.0979Z" fill="#FBF9F2"/>
</svg>
