<svg width="137" height="28" viewBox="0 0 137 28" fill="none" xmlns="http://www.w3.org/2000/svg">
<path fill-rule="evenodd" clip-rule="evenodd" d="M124.751 0.180664L132.222 16.8256H128.11L124.68 9.25176L118.397 22.7105L134.901 22.7105L136.485 26.4829L112.473 26.4829L124.751 0.180664Z" fill="white"/>
<path fill-rule="evenodd" clip-rule="evenodd" d="M23.7283 26.4961L12.2717 0L0 26.4528L3.78619 26.5299L3.80933 26.482H11.883V22.7096H5.63361L12.1556 9.22292L19.9604 26.4866L23.7283 26.4961Z" fill="#FBF9F2"/>
<path d="M68.6575 26.8547L73.8623 0.0839844L82.3502 19.4363L91.1423 0.0839844L95.8187 26.8547H91.9911L89.6049 11.8244L82.2861 27.9997L75.1755 11.8083L72.5171 26.8547H68.6575Z" fill="white"/>
<path d="M44.0815 0.0839844V22.7452H52.059V26.4907H39.9873V0.0839844H44.0815Z" fill="white"/>
</svg>
