<svg width="18" height="18" viewBox="0 0 18 18" fill="none" xmlns="http://www.w3.org/2000/svg">
<rect width="18" height="18" rx="9" fill="#CCFF00"/>
<path fill-rule="evenodd" clip-rule="evenodd" d="M4.5 4.5C4.5 3.67157 5.17157 3 6 3H12C12.8284 3 13.5 3.67157 13.5 4.5V13.5C13.9142 13.5 14.25 13.8358 14.25 14.25C14.25 14.6642 13.9142 15 13.5 15H11.5C10.9477 15 10.5 14.5523 10.5 14V12.75C10.5 12.3358 10.1642 12 9.75 12H8.25C7.83579 12 7.5 12.3358 7.5 12.75V14C7.5 14.5523 7.05228 15 6.5 15H4.5C4.08579 15 3.75 14.6642 3.75 14.25C3.75 13.8358 4.08579 13.5 4.5 13.5V4.5ZM6.75 5.25H8.25V6.75H6.75V5.25ZM8.25 8.25H6.75V9.75H8.25V8.25ZM9.75 5.25H11.25V6.75H9.75V5.25ZM11.25 8.25H9.75V9.75H11.25V8.25Z" fill="#111827"/>
<path d="M13 13.5V14H13.5C13.6381 14 13.75 14.1119 13.75 14.25C13.75 14.3881 13.6381 14.5 13.5 14.5H11.5C11.2239 14.5 11 14.2761 11 14V12.75C11 12.0596 10.4404 11.5 9.75 11.5H8.25C7.55964 11.5 7 12.0596 7 12.75V14C7 14.2761 6.77614 14.5 6.5 14.5H4.5C4.36193 14.5 4.25 14.3881 4.25 14.25C4.25 14.1119 4.36193 14 4.5 14H5V13.5V4.5C5 3.94772 5.44772 3.5 6 3.5H12C12.5523 3.5 13 3.94772 13 4.5V13.5ZM6.75 4.75H6.25V5.25V6.75V7.25H6.75H8.25H8.75V6.75V5.25V4.75H8.25H6.75ZM8.75 8.25V7.75H8.25H6.75H6.25V8.25V9.75V10.25H6.75H8.25H8.75V9.75V8.25ZM9.75 4.75H9.25V5.25V6.75V7.25H9.75H11.25H11.75V6.75V5.25V4.75H11.25H9.75ZM11.75 8.25V7.75H11.25H9.75H9.25V8.25V9.75V10.25H9.75H11.25H11.75V9.75V8.25Z" stroke="black" stroke-opacity="0.5"/>
</svg>
