<svg width="55" height="16" viewBox="0 0 55 16" fill="none" xmlns="http://www.w3.org/2000/svg">
<path d="M0.792893 7.29289C0.402369 7.68342 0.402369 8.31658 0.792893 8.70711L7.15685 15.0711C7.54738 15.4616 8.18054 15.4616 8.57107 15.0711C8.96159 14.6805 8.96159 14.0474 8.57107 13.6569L2.91421 8L8.57107 2.34315C8.96159 1.95262 8.96159 1.31946 8.57107 0.928932C8.18054 0.538408 7.54738 0.538408 7.15685 0.928932L0.792893 7.29289ZM54.7071 8.70711C55.0976 8.31658 55.0976 7.68342 54.7071 7.29289L48.3431 0.928932C47.9526 0.538408 47.3195 0.538408 46.9289 0.928932C46.5384 1.31946 46.5384 1.95262 46.9289 2.34315L52.5858 8L46.9289 13.6569C46.5384 14.0474 46.5384 14.6805 46.9289 15.0711C47.3195 15.4616 47.9526 15.4616 48.3431 15.0711L54.7071 8.70711ZM1.5 9H54V7H1.5V9Z" fill="white"/>
</svg>
