<?xml version="1.0" encoding="utf-8"?>
<!-- Generator: Adobe Illustrator 27.1.1, SVG Export Plug-In . SVG Version: 6.00 Build 0)  -->
<svg version="1.1" id="Layer_1" xmlns="http://www.w3.org/2000/svg" xmlns:xlink="http://www.w3.org/1999/xlink" x="0px" y="0px"
	 viewBox="0 0 100 100" style="enable-background:new 0 0 100 100;" xml:space="preserve">
<style type="text/css">
	.st0{opacity:0.2;}
</style>
<g class="st0">
	<g>
		<path d="M87.5,90h-75c-1.4,0-2.5-1.1-2.5-2.5s1.1-2.5,2.5-2.5h5.8V20.8c0-6,4.9-10.8,10.8-10.8h41.7c6,0,10.8,4.9,10.8,10.8V85
			h5.8c1.4,0,2.5,1.1,2.5,2.5S88.9,90,87.5,90z M60.8,85h15.8V20.8c0-3.2-2.6-5.8-5.8-5.8H29.2c-3.2,0-5.8,2.6-5.8,5.8V85h15.8V66.7
			c0-3.7,3-6.7,6.7-6.7h8.3c3.7,0,6.7,3,6.7,6.7V85z M44.2,85h11.7V66.7c0-0.9-0.7-1.7-1.7-1.7h-8.3c-0.9,0-1.7,0.7-1.7,1.7V85z
			 M62.5,48.3h-4.2c-1.4,0-2.5-1.1-2.5-2.5s1.1-2.5,2.5-2.5h4.2c1.4,0,2.5,1.1,2.5,2.5S63.9,48.3,62.5,48.3z M41.7,48.3h-4.2
			c-1.4,0-2.5-1.1-2.5-2.5s1.1-2.5,2.5-2.5h4.2c1.4,0,2.5,1.1,2.5,2.5S43,48.3,41.7,48.3z M62.5,31.7h-4.2c-1.4,0-2.5-1.1-2.5-2.5
			s1.1-2.5,2.5-2.5h4.2c1.4,0,2.5,1.1,2.5,2.5S63.9,31.7,62.5,31.7z M41.7,31.7h-4.2c-1.4,0-2.5-1.1-2.5-2.5s1.1-2.5,2.5-2.5h4.2
			c1.4,0,2.5,1.1,2.5,2.5S43,31.7,41.7,31.7z"/>
	</g>
</g>
</svg>
