<svg width="24" height="25" viewBox="0 0 24 25" fill="none" xmlns="http://www.w3.org/2000/svg">
<path d="M3 9.5C3 8.39543 3.89543 7.5 5 7.5H5.92963C6.59834 7.5 7.2228 7.1658 7.59373 6.6094L8.40627 5.3906C8.7772 4.8342 9.40166 4.5 10.0704 4.5H13.9296C14.5983 4.5 15.2228 4.8342 15.5937 5.3906L16.4063 6.6094C16.7772 7.1658 17.4017 7.5 18.0704 7.5H19C20.1046 7.5 21 8.39543 21 9.5V18.5C21 19.6046 20.1046 20.5 19 20.5H5C3.89543 20.5 3 19.6046 3 18.5V9.5Z" stroke="black" stroke-width="2" stroke-linecap="round" stroke-linejoin="round"/>
<path d="M15 13.5C15 15.1569 13.6569 16.5 12 16.5C10.3431 16.5 9 15.1569 9 13.5C9 11.8431 10.3431 10.5 12 10.5C13.6569 10.5 15 11.8431 15 13.5Z" stroke="black" stroke-width="2" stroke-linecap="round" stroke-linejoin="round"/>
</svg>
