<svg width="16" height="15" viewBox="0 0 16 15" fill="none" xmlns="http://www.w3.org/2000/svg">
<path fill-rule="evenodd" clip-rule="evenodd" d="M8 13.5C11.3137 13.5 14 10.8137 14 7.5C14 4.18629 11.3137 1.5 8 1.5C4.68629 1.5 2 4.18629 2 7.5C2 10.8137 4.68629 13.5 8 13.5ZM8.74999 4.5C8.74999 4.08579 8.41421 3.75 8 3.75C7.58578 3.75 7.25 4.08579 7.25 4.5V7.5C7.25 7.69891 7.32901 7.88968 7.46967 8.03033L9.59098 10.1517C9.88388 10.4445 10.3588 10.4445 10.6516 10.1517C10.9445 9.85876 10.9445 9.38388 10.6516 9.09099L8.74999 7.18934V4.5Z" fill="black" fill-opacity="0.3"/>
</svg>
