<svg width="15" height="16" viewBox="0 0 15 16" fill="none" xmlns="http://www.w3.org/2000/svg">
<path fill-rule="evenodd" clip-rule="evenodd" d="M6.19255 2.82418C6.76601 1.8047 8.23382 1.8047 8.80728 2.82418L12.9925 10.2646C13.555 11.2645 12.8324 12.5 11.6851 12.5H3.31468C2.16744 12.5 1.44487 11.2645 2.00732 10.2646L6.19255 2.82418ZM8.24985 10.2501C8.24985 10.6643 7.91406 11.0001 7.49985 11.0001C7.08563 11.0001 6.74985 10.6643 6.74985 10.2501C6.74985 9.83585 7.08563 9.50006 7.49985 9.50006C7.91406 9.50006 8.24985 9.83585 8.24985 10.2501ZM7.49985 4.25006C7.08563 4.25006 6.74985 4.58585 6.74985 5.00006V7.25006C6.74985 7.66428 7.08563 8.00006 7.49985 8.00006C7.91406 8.00006 8.24985 7.66428 8.24985 7.25006V5.00006C8.24985 4.58585 7.91406 4.25006 7.49985 4.25006Z" fill="#FF0000"/>
</svg>
