<svg width="144" height="155" viewBox="0 0 144 155" fill="none" xmlns="http://www.w3.org/2000/svg">
<rect y="0.123047" width="144" height="154" rx="2" fill="#F2F2F2"/>
<path d="M72 97.123C60.9541 97.123 52 88.1689 52 77.123C52 66.0772 60.9541 57.123 72 57.123C83.0459 57.123 92 66.0772 92 77.123C92 88.1689 83.0459 97.123 72 97.123ZM72 95.0541C81.9029 95.0541 89.9313 87.0259 89.9313 77.1229C89.9313 67.2199 81.903 59.1916 72 59.1916C62.097 59.1916 54.0687 67.2199 54.0687 77.1229C54.0687 87.0259 62.097 95.0541 72 95.0541ZM72 92.9852C63.2395 92.9852 56.1374 85.8835 56.1374 77.1227C56.1374 68.3622 63.2392 61.2601 72 61.2601C80.7605 61.2601 87.8626 68.3619 87.8626 77.1227C87.8626 85.8832 80.7608 92.9852 72 92.9852ZM72 90.9164C79.6178 90.9164 85.7929 84.7408 85.7929 77.1234C85.7929 69.5052 79.6174 63.3296 72 63.3296C64.3826 63.3296 58.207 69.5051 58.207 77.1225C58.207 84.7399 64.3826 90.9155 72 90.9155V90.9164ZM67.8618 75.0538C67.3132 75.0538 66.7867 74.8359 66.3988 74.4476C66.0108 74.0597 65.7926 73.5335 65.7926 72.9846C65.7926 72.4359 66.0108 71.9094 66.3988 71.5215C66.7867 71.1335 67.3131 70.9157 67.8618 70.9157C68.601 70.9157 69.2841 71.3102 69.6536 71.9503C70.0229 72.5904 70.0229 73.3791 69.6536 74.0192C69.2841 74.6593 68.601 75.0534 67.8618 75.0538ZM67.8618 83.3297C67.3132 83.3297 66.7867 83.1119 66.3988 82.7239C66.0108 82.336 65.7926 81.8095 65.7926 81.2608C65.7926 80.7118 66.0108 80.1857 66.3988 79.7978C66.7867 79.4095 67.3131 79.1916 67.8618 79.1916C68.601 79.1919 69.2841 79.5861 69.6536 80.2262C70.0229 80.8663 70.0229 81.655 69.6536 82.2951C69.2841 82.9352 68.601 83.3297 67.8618 83.3297ZM76.1381 75.0538C75.5891 75.0538 75.063 74.8359 74.6747 74.4476C74.2868 74.0597 74.0685 73.5335 74.0685 72.9846C74.0685 72.4359 74.2868 71.9094 74.6747 71.5215C75.063 71.1335 75.5891 70.9157 76.1381 70.9157C76.8773 70.9157 77.56 71.3102 77.9296 71.9503C78.2992 72.5904 78.2992 73.3791 77.9296 74.0192C77.56 74.6593 76.8773 75.0534 76.1381 75.0538ZM76.1381 83.3297C75.5891 83.3297 75.063 83.1119 74.6747 82.7239C74.2868 82.336 74.0685 81.8095 74.0685 81.2608C74.0685 80.7118 74.2868 80.1857 74.6747 79.7978C75.063 79.4095 75.5891 79.1916 76.1381 79.1916C76.8773 79.1919 77.56 79.5861 77.9296 80.2262C78.2992 80.8663 78.2992 81.655 77.9296 82.2951C77.56 82.9352 76.8773 83.3297 76.1381 83.3297Z" fill="black" fill-opacity="0.2"/>
</svg>
