<svg width="144" height="155" viewBox="0 0 144 155" fill="none" xmlns="http://www.w3.org/2000/svg">
<rect y="0.123047" width="144" height="154" rx="2" fill="#F2F2F2"/>
<path d="M111.907 75.4007L100.657 47.9007C100.519 47.563 100.241 47.3024 99.8948 47.1869L84.8948 42.1869C84.6141 42.0932 84.3094 42.1021 84.0349 42.212C76.3121 45.3186 67.6877 45.3186 59.9648 42.212C59.6897 42.1038 59.3856 42.0948 59.1049 42.1869L44.1049 47.1869C43.7589 47.3024 43.4805 47.563 43.3426 47.9007L32.0926 75.4007C31.9481 75.755 31.9738 76.1563 32.1624 76.4888C32.351 76.822 32.6819 77.0502 33.0603 77.1083L48.2503 79.4458V110.873C48.2503 111.204 48.382 111.523 48.6163 111.757C48.8507 111.991 49.1688 112.123 49.5003 112.123H57.0003C57.6906 112.123 58.2503 111.563 58.2503 110.873C58.2503 110.183 57.6906 109.623 57.0003 109.623H50.7503V63.373C50.7503 62.6827 50.1906 62.123 49.5003 62.123C48.81 62.123 48.2503 62.6827 48.2503 63.373V76.9165L35.0075 74.8791L45.44 49.3734L58.3663 45.0698C58.936 49.6412 61.7574 53.624 65.8813 55.6775C70.0051 57.7311 74.8836 57.5832 78.8752 55.2836C79.1648 55.1189 79.3763 54.8455 79.4639 54.5241C79.5509 54.2032 79.5063 53.86 79.34 53.5715C79.1731 53.2836 78.8986 53.0732 78.5766 52.9884C78.2552 52.903 77.9125 52.9499 77.6251 53.1184C74.4316 54.9621 70.537 55.1222 67.2027 53.547C63.8684 51.9717 61.5191 48.8611 60.9153 45.2232C68.1111 47.6489 75.9039 47.6489 83.0996 45.2232C82.8066 47.0028 82.0856 48.6842 80.9997 50.1234C80.5857 50.6758 80.6973 51.4593 81.2497 51.8734C81.8022 52.2874 82.5857 52.1758 82.9997 51.6234C84.4417 49.7094 85.3519 47.4477 85.637 45.0681L98.56 49.3734L108.992 74.8734L95.7497 76.917V63.3734C95.7497 62.6831 95.19 62.1234 94.4997 62.1234C93.8095 62.1234 93.2497 62.6831 93.2497 63.3734V109.623H61.9997C61.3094 109.623 60.7497 110.183 60.7497 110.873C60.7497 111.564 61.3094 112.123 61.9997 112.123H94.4997C94.8312 112.123 95.1493 111.992 95.3837 111.757C95.618 111.523 95.7497 111.205 95.7497 110.873V79.4463L110.94 77.1087C111.318 77.0507 111.649 76.8224 111.838 76.4893C112.026 76.1567 112.052 75.7555 111.907 75.4011L111.907 75.4007Z" fill="black" fill-opacity="0.2"/>
<path d="M68.25 104.624H75.75C76.4403 104.624 77 104.064 77 103.374C77 102.683 76.4403 102.124 75.75 102.124H68.25C67.5597 102.124 67 102.683 67 103.374C67 104.064 67.5597 104.624 68.25 104.624Z" fill="black" fill-opacity="0.2"/>
<path d="M55.75 103.374C55.75 103.705 55.8817 104.023 56.1161 104.257C56.3504 104.492 56.6685 104.624 57 104.624H60.75C61.4403 104.624 62 104.064 62 103.374C62 102.683 61.4403 102.124 60.75 102.124H58.25V99.6235C58.25 98.9333 57.6903 98.3735 57 98.3735C56.3097 98.3735 55.75 98.9333 55.75 99.6235V103.374Z" fill="black" fill-opacity="0.2"/>
<path d="M55.75 80.1235C55.75 80.8138 56.3097 81.3735 57 81.3735C57.6903 81.3735 58.25 80.8138 58.25 80.1235V73.6235C58.25 72.9333 57.6903 72.3735 57 72.3735C56.3097 72.3735 55.75 72.9333 55.75 73.6235V80.1235Z" fill="black" fill-opacity="0.2"/>
<path d="M55.75 93.1235C55.75 93.8138 56.3097 94.3735 57 94.3735C57.6903 94.3735 58.25 93.8138 58.25 93.1235V86.6235C58.25 85.9333 57.6903 85.3735 57 85.3735C56.3097 85.3735 55.75 85.9333 55.75 86.6235V93.1235Z" fill="black" fill-opacity="0.2"/>
<path d="M57 68.3735C57.3315 68.3735 57.6496 68.2418 57.8839 68.0075C58.1183 67.7731 58.25 67.455 58.25 67.1235V64.6235H60.75C61.4403 64.6235 62 64.0638 62 63.3735C62 62.6833 61.4403 62.1235 60.75 62.1235H57C56.3097 62.1235 55.75 62.6833 55.75 63.3735V67.1235C55.75 67.455 55.8817 67.7731 56.1161 68.0075C56.3504 68.2418 56.6685 68.3735 57 68.3735Z" fill="black" fill-opacity="0.2"/>
<path d="M68.25 64.6235H75.75C76.4403 64.6235 77 64.0638 77 63.3735C77 62.6833 76.4403 62.1235 75.75 62.1235H68.25C67.5597 62.1235 67 62.6833 67 63.3735C67 64.0638 67.5597 64.6235 68.25 64.6235Z" fill="black" fill-opacity="0.2"/>
<path d="M88.25 63.3735C88.25 63.0421 88.1183 62.724 87.8839 62.4896C87.6496 62.2552 87.3315 62.1235 87 62.1235H83.25C82.5597 62.1235 82 62.6833 82 63.3735C82 64.0638 82.5597 64.6235 83.25 64.6235H85.75V67.1235C85.75 67.8138 86.3097 68.3735 87 68.3735C87.6903 68.3735 88.25 67.8138 88.25 67.1235V63.3735Z" fill="black" fill-opacity="0.2"/>
<path d="M88.25 73.6235C88.25 72.9333 87.6903 72.3735 87 72.3735C86.3097 72.3735 85.75 72.9333 85.75 73.6235V80.1235C85.75 80.8138 86.3097 81.3735 87 81.3735C87.6903 81.3735 88.25 80.8138 88.25 80.1235V73.6235Z" fill="black" fill-opacity="0.2"/>
<path d="M87 85.3735C86.3097 85.3735 85.75 85.9333 85.75 86.6235V93.1235C85.75 93.8138 86.3097 94.3735 87 94.3735C87.6903 94.3735 88.25 93.8138 88.25 93.1235V86.6235C88.25 86.2921 88.1183 85.974 87.8839 85.7396C87.6496 85.5052 87.3315 85.3735 87 85.3735Z" fill="black" fill-opacity="0.2"/>
<path d="M83.25 104.624H87C87.3315 104.624 87.6496 104.492 87.8839 104.257C88.1183 104.023 88.25 103.705 88.25 103.374V99.6235C88.25 98.9333 87.6903 98.3735 87 98.3735C86.3097 98.3735 85.75 98.9333 85.75 99.6235V102.124H83.25C82.5597 102.124 82 102.683 82 103.374C82 104.064 82.5597 104.624 83.25 104.624Z" fill="black" fill-opacity="0.2"/>
</svg>
