<svg width="290" height="290" viewBox="0 0 290 290" fill="none" xmlns="http://www.w3.org/2000/svg">
<rect width="290" height="290" rx="2" fill="#F2F2F2"/>
<path d="M151.795 105C151.577 105 151.356 105.003 151.131 105.007H130.906C127.523 105.007 125.005 106.808 123.309 109.058C121.613 111.309 120.475 113.989 119.143 116.417L92.0759 165.729V165.729C92.0701 165.743 92.065 165.758 92.0592 165.773C90.7598 167.741 90 170.114 90 172.669C90 179.471 95.3909 185 102.005 185H157.098C160.673 185 164.998 184.314 168.925 182.542C172.843 180.774 176.436 177.833 178.021 173.329C178.025 173.32 178.027 173.31 178.03 173.3L199.847 121.756C200.093 121.181 200.039 120.519 199.707 119.993C199.374 119.467 198.807 119.151 198.199 119.151H162.094C162.863 116.732 163.262 114.372 162.957 112.139C162.662 109.978 161.492 107.919 159.465 106.682C157.564 105.522 155.067 104.997 151.797 105.001L151.795 105ZM151.788 108.713C154.661 108.716 156.544 109.219 157.629 109.881C158.786 110.588 159.216 111.37 159.393 112.66C159.625 114.358 159.028 116.911 157.969 119.778C157.682 120.108 157.519 120.533 157.509 120.976C157.059 122.097 156.547 123.253 155.996 124.416L137.001 164.471C135.419 161.968 132.465 160.344 129.214 160.344H102.007C100.955 160.344 99.9338 160.483 98.9604 160.746L122.283 118.245C123.725 115.618 124.858 113.062 126.156 111.341C127.453 109.621 128.641 108.72 130.908 108.72H151.167H151.202C151.403 108.715 151.597 108.712 151.789 108.713L151.788 108.713ZM160.685 122.863H195.441L174.686 171.928V171.927C174.681 171.944 174.676 171.963 174.672 171.981C174.662 171.999 174.652 172.017 174.642 172.036C173.483 175.352 170.812 177.636 167.478 179.141C164.145 180.645 160.212 181.279 157.096 181.279H102.004C97.314 181.279 93.5993 177.466 93.5993 172.667C93.5993 170.787 94.1715 169.058 95.1475 167.651L95.1466 167.65C95.1693 167.622 95.191 167.594 95.2128 167.565L95.2388 167.519C96.761 165.409 99.2089 164.054 102.004 164.054H129.21C132.36 164.054 134.61 166.226 134.61 168.644C134.61 171.062 132.36 173.223 129.21 173.223H106.567C105.574 173.224 104.769 174.056 104.769 175.081C104.769 176.105 105.575 176.935 106.567 176.936H129.21C132.96 176.936 136.314 174.779 137.624 171.605L159.231 126.052C159.736 124.987 160.227 123.921 160.683 122.861L160.685 122.863Z" fill="black" fill-opacity="0.2"/>
</svg>
