<svg width="16" height="15" viewBox="0 0 16 15" fill="none" xmlns="http://www.w3.org/2000/svg">
<path d="M2.75 2.25C2.33579 2.25 2 2.58579 2 3V12C2 12.4142 2.33579 12.75 2.75 12.75C3.16421 12.75 3.5 12.4142 3.5 12V3C3.5 2.58579 3.16421 2.25 2.75 2.25Z" fill="black" fill-opacity="0.3"/>
<path d="M10.4697 9.21967C10.1768 9.51256 10.1768 9.98744 10.4697 10.2803C10.7626 10.5732 11.2374 10.5732 11.5303 10.2803L13.7803 8.03033C13.921 7.88968 14 7.69891 14 7.5C14 7.30109 13.921 7.11032 13.7803 6.96967L11.5303 4.71967C11.2374 4.42678 10.7626 4.42678 10.4697 4.71967C10.1768 5.01256 10.1768 5.48744 10.4697 5.78033L11.4393 6.75L5.75 6.75C5.33579 6.75 5 7.08579 5 7.5C5 7.91421 5.33579 8.25 5.75 8.25H11.4393L10.4697 9.21967Z" fill="black" fill-opacity="0.3"/>
</svg>
