<svg width="26" height="25" viewBox="0 0 26 25" fill="none" xmlns="http://www.w3.org/2000/svg">
<rect x="0.5" width="25" height="25" rx="12.5" fill="black"/>
<path fill-rule="evenodd" clip-rule="evenodd" d="M7 6.5C7 5.39543 7.89543 4.5 9 4.5H17C18.1046 4.5 19 5.39543 19 6.5V18.5C19.5523 18.5 20 18.9477 20 19.5C20 20.0523 19.5523 20.5 19 20.5H16C15.4477 20.5 15 20.0523 15 19.5V17.5C15 16.9477 14.5523 16.5 14 16.5H12C11.4477 16.5 11 16.9477 11 17.5V19.5C11 20.0523 10.5523 20.5 10 20.5H7C6.44772 20.5 6 20.0523 6 19.5C6 18.9477 6.44772 18.5 7 18.5V6.5ZM10 7.5H12V9.5H10V7.5ZM12 11.5H10V13.5H12V11.5ZM14 7.5H16V9.5H14V7.5ZM16 11.5H14V13.5H16V11.5Z" fill="white"/>
</svg>
