<svg width="290" height="290" viewBox="0 0 290 290" fill="none" xmlns="http://www.w3.org/2000/svg">
<rect width="290" height="290" rx="2" fill="#F2F2F2"/>
<path d="M145 185C122.908 185 105 167.092 105 145C105 122.908 122.908 105 145 105C167.092 105 185 122.908 185 145C185 167.092 167.092 185 145 185ZM145 180.862C164.806 180.862 180.863 164.806 180.863 145C180.863 125.194 164.806 109.137 145 109.137C125.194 109.137 109.137 125.194 109.137 145C109.137 164.806 125.194 180.862 145 180.862ZM145 176.724C127.479 176.724 113.275 162.521 113.275 144.999C113.275 127.478 127.478 113.274 145 113.274C162.521 113.274 176.725 127.478 176.725 144.999C176.725 162.52 162.522 176.724 145 176.724ZM145 172.587C160.236 172.587 172.586 160.235 172.586 145.001C172.586 129.764 160.235 117.413 145 117.413C129.765 117.413 117.414 129.764 117.414 144.999C117.414 160.234 129.765 172.585 145 172.585V172.587ZM136.724 140.861C135.626 140.861 134.573 140.426 133.798 139.649C133.022 138.873 132.585 137.821 132.585 136.723C132.585 135.626 133.022 134.573 133.798 133.797C134.573 133.021 135.626 132.585 136.724 132.585C138.202 132.585 139.568 133.374 140.307 134.654C141.046 135.935 141.046 137.512 140.307 138.792C139.568 140.072 138.202 140.861 136.724 140.861ZM136.724 157.413C135.626 157.413 134.573 156.978 133.798 156.202C133.022 155.426 132.585 154.373 132.585 153.276C132.585 152.178 133.022 151.125 133.798 150.349C134.573 149.573 135.626 149.137 136.724 149.137C138.202 149.138 139.568 149.926 140.307 151.206C141.046 152.487 141.046 154.064 140.307 155.344C139.568 156.624 138.202 157.413 136.724 157.413ZM153.276 140.861C152.178 140.861 151.126 140.426 150.349 139.649C149.574 138.873 149.137 137.821 149.137 136.723C149.137 135.626 149.574 134.573 150.349 133.797C151.126 133.021 152.178 132.585 153.276 132.585C154.755 132.585 156.12 133.374 156.859 134.654C157.598 135.935 157.598 137.512 156.859 138.792C156.12 140.072 154.755 140.861 153.276 140.861ZM153.276 157.413C152.178 157.413 151.126 156.978 150.349 156.202C149.574 155.426 149.137 154.373 149.137 153.276C149.137 152.178 149.574 151.125 150.349 150.349C151.126 149.573 152.178 149.137 153.276 149.137C154.755 149.138 156.12 149.926 156.859 151.206C157.598 152.487 157.598 154.064 156.859 155.344C156.12 156.624 154.755 157.413 153.276 157.413Z" fill="black" fill-opacity="0.2"/>
</svg>
