<svg width="20" height="21" viewBox="0 0 20 21" fill="none" xmlns="http://www.w3.org/2000/svg">
<path fill-rule="evenodd" clip-rule="evenodd" d="M1 8.93848C1 7.83391 1.89543 6.93848 3 6.93848H3.92963C4.59834 6.93848 5.2228 6.60427 5.59373 6.04788L6.40627 4.82908C6.7772 4.27268 7.40166 3.93848 8.07037 3.93848H11.9296C12.5983 3.93848 13.2228 4.27268 13.5937 4.82908L14.4063 6.04788C14.7772 6.60427 15.4017 6.93848 16.0704 6.93848H17C18.1046 6.93848 19 7.83391 19 8.93848V15.9385C19 17.043 18.1046 17.9385 17 17.9385H3C1.89543 17.9385 1 17.043 1 15.9385V8.93848ZM14.5 11.9385C14.5 14.4238 12.4853 16.4385 10 16.4385C7.51472 16.4385 5.5 14.4238 5.5 11.9385C5.5 9.4532 7.51472 7.43848 10 7.43848C12.4853 7.43848 14.5 9.4532 14.5 11.9385ZM10 14.9385C11.6569 14.9385 13 13.5953 13 11.9385C13 10.2816 11.6569 8.93848 10 8.93848C8.34315 8.93848 7 10.2816 7 11.9385C7 13.5953 8.34315 14.9385 10 14.9385Z" fill="white"/>
</svg>
