<svg width="147" height="30" viewBox="0 0 147 30" fill="none" xmlns="http://www.w3.org/2000/svg">
<path fill-rule="evenodd" clip-rule="evenodd" d="M133.663 0.192265L141.668 18.0263H137.263L133.587 9.91141L126.855 24.3317L144.538 24.3317L146.236 28.3736L120.508 28.3736L133.663 0.192265Z" fill="white"/>
<path fill-rule="evenodd" clip-rule="evenodd" d="M25.4235 28.389L13.1484 0L0 28.3426L4.05668 28.4252L4.08169 28.3735H12.732V24.3316H6.0363L13.024 9.88181L21.3864 28.3788L25.4235 28.389Z" fill="#FBF9F2"/>
<path d="M73.5625 28.7729L79.1392 0.0897236L88.2334 20.8246L97.6537 0.0897236L102.664 28.7729H98.5631L96.0064 12.6689L88.1648 29.9997L80.5462 12.6516L77.6978 28.7729H73.5625Z" fill="white"/>
<path d="M47.2308 0.0897236V24.3699H55.7782V28.383H42.8441V0.0897236H47.2308Z" fill="white"/>
</svg>
