<svg width="83" height="82" viewBox="0 0 83 82" fill="none" xmlns="http://www.w3.org/2000/svg">
<g filter="url(#filter0_d_1_347)">
<path d="M80.25 1.31736C80.25 1.3146 80.2482 1.31276 80.2482 1.31001C80.2472 1.14097 80.2142 0.972855 80.148 0.813923C80.0148 0.491471 79.7576 0.234259 79.4352 0.101054C79.2744 0.0339914 79.1036 0 78.9318 0H66.0565C65.8847 0 65.7139 0.0349109 65.5531 0.101054C65.3915 0.168118 65.2454 0.264575 65.1232 0.386747L10.3556 55.1548C10.3492 55.1603 10.3483 55.1695 10.3419 55.1759C10.3125 55.2063 10.2978 55.2494 10.2711 55.2834C10.2252 55.3413 10.1857 55.401 10.1508 55.4644C10.1278 55.5057 10.0911 55.5379 10.0727 55.582C10.0681 55.5921 10.0663 55.6022 10.0617 55.6132C10.0598 55.6169 10.0571 55.6187 10.0553 55.6224L2.20757 76.1811L0.635818 77.752C0.121394 78.2665 0.121394 79.0997 0.635818 79.6142C0.893041 79.8714 1.23015 80 1.56728 80C1.90442 80 2.24155 79.8714 2.49875 79.6142L4.06958 78.0433L24.631 70.1933C24.6365 70.1914 24.6402 70.1859 24.6457 70.1841C24.7247 70.1529 24.789 70.0941 24.8616 70.0472C24.9369 69.9985 25.0205 69.9618 25.083 69.9002C25.0857 69.8975 25.0903 69.8965 25.0931 69.8938L79.8606 15.1234C79.9488 15.0352 80.0012 14.9286 80.0591 14.8248C80.0848 14.7798 80.1234 14.7458 80.1436 14.6971C80.2106 14.5345 80.2465 14.3627 80.2455 14.19C80.2455 14.19 80.2465 14.1882 80.2465 14.1873L80.25 1.31736ZM23.6129 54.7755H14.4616L66.6001 2.63435H75.7513L23.6129 54.7755ZM12.1944 57.4102H22.8467V68.0573L5.61991 74.6341L12.1944 57.4102ZM25.4803 56.633L77.614 4.49655V13.6482L25.4803 65.7847V56.633Z" fill="black"/>
<path d="M10.3419 55.1759L10.4303 55.2643C10.4414 55.2532 10.4488 55.2421 10.4535 55.2341C10.4537 55.2338 10.4539 55.2334 10.4542 55.2331L65.2116 0.475135C65.3218 0.364972 65.4539 0.277527 65.601 0.216515C65.7472 0.15642 65.9018 0.125 66.0565 0.125H78.9318C79.0871 0.125 79.2416 0.155712 79.3871 0.216419L79.3875 0.216583C79.6792 0.337098 79.912 0.569913 80.0325 0.861648L80.0326 0.861948L24.6457 70.1841M10.3419 55.1759L10.4316 55.263C10.4292 55.2655 10.4249 55.2711 10.4142 55.29C10.4059 55.3046 10.3901 55.3343 10.3695 55.3605L10.369 55.3611C10.3275 55.4134 10.2919 55.4673 10.2603 55.5247L10.2601 55.5251C10.2451 55.552 10.2261 55.5765 10.214 55.592C10.2123 55.5943 10.2107 55.5964 10.2092 55.5982C10.1953 55.6163 10.1905 55.6243 10.1881 55.6301L10.1874 55.6318C10.1872 55.6323 10.1869 55.6332 10.1866 55.6344L10.1862 55.6355C10.1848 55.6401 10.1816 55.6504 10.1771 55.6613L10.1737 55.6693L10.1735 55.6691C10.1712 55.6736 10.1688 55.6778 10.1665 55.6814L2.32435 76.2257L2.31482 76.2507L2.29593 76.2695L0.724208 77.8404C0.258597 78.3061 0.258597 79.0601 0.724209 79.5258C0.957047 79.7586 1.26195 79.875 1.56728 79.875C1.87262 79.875 2.17754 79.7586 2.41036 79.5258L3.98119 77.9549L4.00006 77.936L4.025 77.9265L24.5733 70.0815C24.5796 70.0774 24.589 70.0719 24.6011 70.0673M10.3419 55.1759C10.3253 55.193 10.3135 55.2141 10.3015 55.2353C10.2922 55.2519 10.2828 55.2685 10.2711 55.2834L65.5531 0.101054C65.3915 0.168118 65.2454 0.264575 65.1232 0.386747L10.3556 55.1548C10.3523 55.1577 10.3505 55.1615 10.3486 55.1654C10.3468 55.1691 10.345 55.1728 10.3419 55.1759ZM24.6011 70.0673C24.6028 70.0667 24.6044 70.0661 24.6061 70.0655L24.6457 70.1841M24.6011 70.0673C24.6007 70.0675 24.6002 70.0677 24.5997 70.0678L24.6457 70.1841M24.6011 70.0673C24.6266 70.057 24.6526 70.0412 24.6845 70.019C24.6935 70.0127 24.7042 70.005 24.7158 69.9966C24.7399 69.9791 24.7681 69.9588 24.7937 69.9422M24.6457 70.1841C24.6995 70.1628 24.7464 70.1288 24.7938 70.0945C24.816 70.0784 24.8384 70.0622 24.8616 70.0472M24.7937 69.9422L24.8616 70.0472M24.7937 69.9422C24.7937 69.9422 24.7938 69.9422 24.7938 69.9422L24.8616 70.0472M24.7937 69.9422C24.8191 69.9258 24.8496 69.9081 24.876 69.8929C24.8898 69.8849 24.9024 69.8776 24.9126 69.8715C24.9479 69.8502 24.9745 69.8316 24.9952 69.8112C25.0024 69.8041 25.0094 69.7988 25.015 69.795M24.8616 70.0472L25.015 69.795M25.015 69.795L25.0047 69.8054C25.0136 69.7965 25.022 69.791 25.0263 69.7884L25.0313 69.7856L25.0286 69.787C25.0268 69.7879 25.0241 69.7894 25.0209 69.7913C25.0192 69.7923 25.0172 69.7936 25.015 69.795ZM80.028 14.6495L80.1436 14.6971L80.0281 14.6492C80.0281 14.6493 80.0281 14.6494 80.028 14.6495ZM80.1215 14.1585L80.1215 14.1873C80.1215 14.17 80.1252 14.157 80.1262 14.1536C80.1277 14.1484 80.1292 14.1444 80.13 14.1424L80.1323 14.1371L80.1215 14.1585ZM24.5603 70.0911C24.5595 70.0917 24.56 70.0913 24.5607 70.0908L24.5603 70.0911ZM10.4612 55.2196C10.4617 55.2187 10.4614 55.2192 10.4609 55.2201L10.4612 55.2196ZM23.6129 54.9005H23.6646L23.7012 54.8639L75.8397 2.72273L76.0531 2.50935H75.7513H66.6001H66.5483L66.5117 2.54596L14.3733 54.6871L14.1599 54.9005H14.4616H23.6129ZM12.1944 57.2852H12.1083L12.0776 57.3656L5.50313 74.5895L5.40351 74.8505L5.6645 74.7508L22.8913 68.1741L22.9717 68.1434V68.0573V57.4102V57.2852H22.8467H12.1944ZM25.3919 56.5446L25.3553 56.5812V56.633V65.7847V66.0864L25.5687 65.873L77.7024 13.7366L77.739 13.7V13.6482V4.49655V4.19476L77.5256 4.40816L25.3919 56.5446ZM80.1232 1.31069L80.2482 1.31001H80.1232C80.1232 1.31023 80.1232 1.31046 80.1232 1.31069Z" stroke="white" stroke-width="0.25"/>
</g>
<defs>
<filter id="filter0_d_1_347" x="0.25" y="0" width="82" height="82" filterUnits="userSpaceOnUse" color-interpolation-filters="sRGB">
<feFlood flood-opacity="0" result="BackgroundImageFix"/>
<feColorMatrix in="SourceAlpha" type="matrix" values="0 0 0 0 0 0 0 0 0 0 0 0 0 0 0 0 0 0 127 0" result="hardAlpha"/>
<feOffset dx="2" dy="2"/>
<feComposite in2="hardAlpha" operator="out"/>
<feColorMatrix type="matrix" values="0 0 0 0 0.8 0 0 0 0 1 0 0 0 0 0 0 0 0 1 0"/>
<feBlend mode="normal" in2="BackgroundImageFix" result="effect1_dropShadow_1_347"/>
<feBlend mode="normal" in="SourceGraphic" in2="effect1_dropShadow_1_347" result="shape"/>
</filter>
</defs>
</svg>
