<svg width="84" height="82" viewBox="0 0 84 82" fill="none" xmlns="http://www.w3.org/2000/svg">
<g filter="url(#filter0_d_2698_26883)">
<path d="M41.6559 40.3574C41.6559 40.8214 41.2804 41.1969 40.8164 41.1969C40.3524 41.1969 39.977 40.8214 39.977 40.3574C39.977 39.8934 40.3524 39.518 40.8164 39.518C41.2804 39.518 41.6559 39.8934 41.6559 40.3574Z" fill="black" stroke="white" stroke-width="0.7"/>
<path d="M41.6559 50.543C41.6559 51.007 41.2804 51.3825 40.8164 51.3825C40.3524 51.3825 39.977 51.007 39.977 50.543C39.977 50.079 40.3524 49.7035 40.8164 49.7035C41.2804 49.7035 41.6559 50.079 41.6559 50.543Z" fill="black" stroke="white" stroke-width="0.7"/>
<path d="M41.6559 50.543C41.6559 51.007 41.2804 51.3825 40.8164 51.3825C40.3524 51.3825 39.977 51.007 39.977 50.543C39.977 50.079 40.3524 49.7035 40.8164 49.7035C41.2804 49.7035 41.6559 50.079 41.6559 50.543Z" fill="black" stroke="white" stroke-width="0.7"/>
<path d="M41.6559 19.918C41.6559 20.382 41.2804 20.7575 40.8164 20.7575C40.3524 20.7575 39.977 20.382 39.977 19.918C39.977 19.454 40.3524 19.0785 40.8164 19.0785C41.2804 19.0785 41.6559 19.454 41.6559 19.918Z" fill="black" stroke="white" stroke-width="0.7"/>
<path d="M41.6559 30.084C41.6559 30.548 41.2804 30.9235 40.8164 30.9235C40.3524 30.9235 39.977 30.548 39.977 30.084C39.977 29.62 40.3524 29.2445 40.8164 29.2445C41.2804 29.2445 41.6559 29.62 41.6559 30.084Z" fill="black" stroke="white" stroke-width="0.7"/>
<path d="M41.6559 60.166C41.6559 60.63 41.2804 61.0055 40.8164 61.0055C40.3524 61.0055 39.977 60.63 39.977 60.166C39.977 59.702 40.3524 59.3266 40.8164 59.3266C41.2804 59.3266 41.6559 59.702 41.6559 60.166Z" fill="black" stroke="white" stroke-width="0.7"/>
<path d="M41.6559 70.3321C41.6559 70.7961 41.2804 71.1715 40.8164 71.1715C40.3524 71.1715 39.977 70.7961 39.977 70.3321C39.977 69.8681 40.3524 69.4926 40.8164 69.4926C41.2804 69.4926 41.6559 69.8681 41.6559 70.3321Z" fill="black" stroke="white" stroke-width="0.7"/>
<path d="M47.8564 37.6363L47.8565 37.6362L47.8489 37.6347C47.5869 37.5823 47.3949 37.3425 47.3949 37.0696V24.7854C47.3949 24.4597 47.6491 24.2055 47.9749 24.2055H59.5885H59.5886C59.9097 24.2055 60.173 24.4568 60.1902 24.7934V37.0696C60.1902 37.3425 59.9982 37.5823 59.7363 37.6347L59.7362 37.6346L59.7287 37.6363L53.911 38.9339L53.8935 38.9378L53.8766 38.9434C53.8759 38.9436 53.8715 38.9448 53.8608 38.9456C53.8453 38.9469 53.8274 38.9471 53.7926 38.9471C53.7577 38.9471 53.7398 38.9469 53.7243 38.9456C53.7136 38.9448 53.7093 38.9436 53.7085 38.9434L53.6916 38.9378L53.6741 38.9339L47.8564 37.6363ZM59.0085 25.737V25.387H58.6585H48.9263H48.5763V25.737V27.4023V27.7523H48.9263H58.6585H59.0085V27.4023V25.737ZM53.6949 37.7571L53.7708 37.774L53.8467 37.7571L58.7129 36.6758L58.987 36.6149V36.3341V29.2838V28.9338H58.637H48.9048H48.5548V29.2838V36.3341V36.6149L48.8289 36.6758L53.6949 37.7571Z" fill="black" stroke="white" stroke-width="0.7"/>
<mask id="path-9-inside-1_2698_26883" fill="white">
<path d="M81.345 30.3865L68.3255 10.2079C68.2822 10.1431 68.239 10.0998 68.1957 10.0565C62.1402 4.00099 57.1876 3.0062 54.9599 2.9196L52.408 0.367663C52.235 0.194647 51.2185 0 51.132 0H30.2396C30.1964 0 29.3097 0.151388 29.1366 0.346032L26.563 2.91972C24.3137 3.02785 19.4044 4.04432 13.3922 10.0567C13.3489 10.0999 13.3057 10.1648 13.2624 10.2081L0.242943 30.3866C0.0915551 30.6029 0.0482991 30.8841 0.113181 31.122C0.178061 31.3815 0.351074 31.5978 0.567354 31.7059L13.9544 39.0592C14.1707 39.1889 14.4302 39.2106 14.6681 39.1457C14.906 39.0808 15.1007 38.9078 15.2304 38.6915L16.6794 35.9881V79.07C16.6794 79.5891 17.0903 80 17.6094 80H63.8906C64.4097 80 64.8206 79.5891 64.8206 79.07V35.9881L66.2696 38.6915C66.3777 38.9078 66.594 39.0808 66.8319 39.1457C67.0698 39.2106 67.3293 39.1889 67.5456 39.0592L80.9327 31.7059C81.1706 31.5761 81.322 31.3599 81.3868 31.122C81.5382 30.8841 81.495 30.6029 81.3436 30.3866L81.345 30.3865ZM54.6571 5.25672L45.0979 14.8159L42.2215 11.9395L51.7806 2.38031L54.6571 5.25672ZM40.8158 10.6851L34.5224 4.39164H47.131L40.8158 10.6851ZM49.5963 1.90456L48.3852 3.11567H33.2895L32.0784 1.90456H49.5963ZM29.8292 2.35873L39.3884 11.9179L36.512 14.7943L26.9528 5.23515L29.8292 2.35873ZM37.55 78.1179H18.6049V32.2045C18.6049 31.7719 18.3021 31.4043 17.8912 31.2961C17.4803 31.188 17.0478 31.3826 16.8315 31.7719L14.0632 36.9839L2.38476 30.5823L13.8904 12.7402L16.3126 23.6617C16.4208 24.0942 16.7884 24.397 17.221 24.397C17.2859 24.397 17.3507 24.397 17.4156 24.3754C17.913 24.2673 18.2374 23.7699 18.1293 23.2508L15.3611 10.7721C19.189 7.11723 22.4763 5.6898 24.6606 5.149V5.34364V5.36527C24.6606 5.43015 24.6822 5.47341 24.7039 5.53829V5.55991C24.7255 5.60317 24.7471 5.66805 24.7687 5.7113C24.7687 5.73293 24.7904 5.73293 24.7904 5.75456C24.8336 5.81944 24.8769 5.86269 24.9201 5.90594L35.7986 16.7844C35.9716 16.9574 36.2311 17.0655 36.469 17.0655C36.7069 17.0655 36.9448 16.979 37.1394 16.7844L37.5287 16.3951V78.1192L37.55 78.1179ZM42.3729 78.1179H39.4317V14.5133L40.7942 13.1508L42.3729 14.7296V78.1179ZM67.5462 36.9619L64.778 31.7499C64.5833 31.3606 64.1508 31.1659 63.7183 31.2741C63.3074 31.3822 63.0046 31.7499 63.0046 32.1824V78.0959H44.2323V16.611L44.4269 16.8057C44.5999 16.9787 44.8378 17.0868 45.0973 17.0868C45.3568 17.0868 45.5947 16.9787 45.7678 16.8057L56.6462 5.92721C56.6895 5.88395 56.7327 5.81907 56.776 5.75419C56.776 5.73256 56.7976 5.73256 56.7976 5.71094C56.8192 5.66768 56.8408 5.62443 56.8625 5.55955C56.8625 5.53792 56.8625 5.53792 56.8841 5.51629C56.9057 5.45141 56.9057 5.40816 56.9274 5.34328V5.32165V5.12701C59.1117 5.66769 62.399 7.09506 66.2486 10.7717L63.4804 23.2504C63.3723 23.7478 63.6967 24.2668 64.1941 24.375C64.259 24.3966 64.3239 24.3966 64.3887 24.3966C64.8213 24.3966 65.2106 24.0938 65.2971 23.6613L67.7193 12.7397L79.225 30.5819L67.5462 36.9619Z"/>
</mask>
<path d="M81.345 30.3865L68.3255 10.2079C68.2822 10.1431 68.239 10.0998 68.1957 10.0565C62.1402 4.00099 57.1876 3.0062 54.9599 2.9196L52.408 0.367663C52.235 0.194647 51.2185 0 51.132 0H30.2396C30.1964 0 29.3097 0.151388 29.1366 0.346032L26.563 2.91972C24.3137 3.02785 19.4044 4.04432 13.3922 10.0567C13.3489 10.0999 13.3057 10.1648 13.2624 10.2081L0.242943 30.3866C0.0915551 30.6029 0.0482991 30.8841 0.113181 31.122C0.178061 31.3815 0.351074 31.5978 0.567354 31.7059L13.9544 39.0592C14.1707 39.1889 14.4302 39.2106 14.6681 39.1457C14.906 39.0808 15.1007 38.9078 15.2304 38.6915L16.6794 35.9881V79.07C16.6794 79.5891 17.0903 80 17.6094 80H63.8906C64.4097 80 64.8206 79.5891 64.8206 79.07V35.9881L66.2696 38.6915C66.3777 38.9078 66.594 39.0808 66.8319 39.1457C67.0698 39.2106 67.3293 39.1889 67.5456 39.0592L80.9327 31.7059C81.1706 31.5761 81.322 31.3599 81.3868 31.122C81.5382 30.8841 81.495 30.6029 81.3436 30.3866L81.345 30.3865ZM54.6571 5.25672L45.0979 14.8159L42.2215 11.9395L51.7806 2.38031L54.6571 5.25672ZM40.8158 10.6851L34.5224 4.39164H47.131L40.8158 10.6851ZM49.5963 1.90456L48.3852 3.11567H33.2895L32.0784 1.90456H49.5963ZM29.8292 2.35873L39.3884 11.9179L36.512 14.7943L26.9528 5.23515L29.8292 2.35873ZM37.55 78.1179H18.6049V32.2045C18.6049 31.7719 18.3021 31.4043 17.8912 31.2961C17.4803 31.188 17.0478 31.3826 16.8315 31.7719L14.0632 36.9839L2.38476 30.5823L13.8904 12.7402L16.3126 23.6617C16.4208 24.0942 16.7884 24.397 17.221 24.397C17.2859 24.397 17.3507 24.397 17.4156 24.3754C17.913 24.2673 18.2374 23.7699 18.1293 23.2508L15.3611 10.7721C19.189 7.11723 22.4763 5.6898 24.6606 5.149V5.34364V5.36527C24.6606 5.43015 24.6822 5.47341 24.7039 5.53829V5.55991C24.7255 5.60317 24.7471 5.66805 24.7687 5.7113C24.7687 5.73293 24.7904 5.73293 24.7904 5.75456C24.8336 5.81944 24.8769 5.86269 24.9201 5.90594L35.7986 16.7844C35.9716 16.9574 36.2311 17.0655 36.469 17.0655C36.7069 17.0655 36.9448 16.979 37.1394 16.7844L37.5287 16.3951V78.1192L37.55 78.1179ZM42.3729 78.1179H39.4317V14.5133L40.7942 13.1508L42.3729 14.7296V78.1179ZM67.5462 36.9619L64.778 31.7499C64.5833 31.3606 64.1508 31.1659 63.7183 31.2741C63.3074 31.3822 63.0046 31.7499 63.0046 32.1824V78.0959H44.2323V16.611L44.4269 16.8057C44.5999 16.9787 44.8378 17.0868 45.0973 17.0868C45.3568 17.0868 45.5947 16.9787 45.7678 16.8057L56.6462 5.92721C56.6895 5.88395 56.7327 5.81907 56.776 5.75419C56.776 5.73256 56.7976 5.73256 56.7976 5.71094C56.8192 5.66768 56.8408 5.62443 56.8625 5.55955C56.8625 5.53792 56.8625 5.53792 56.8841 5.51629C56.9057 5.45141 56.9057 5.40816 56.9274 5.34328V5.32165V5.12701C59.1117 5.66769 62.399 7.09506 66.2486 10.7717L63.4804 23.2504C63.3723 23.7478 63.6967 24.2668 64.1941 24.375C64.259 24.3966 64.3239 24.3966 64.3887 24.3966C64.8213 24.3966 65.2106 24.0938 65.2971 23.6613L67.7193 12.7397L79.225 30.5819L67.5462 36.9619Z" fill="black" stroke="white" stroke-width="0.2" mask="url(#path-9-inside-1_2698_26883)"/>
</g>
<defs>
<filter id="filter0_d_2698_26883" x="0.0839844" y="0" width="83.3965" height="82" filterUnits="userSpaceOnUse" color-interpolation-filters="sRGB">
<feFlood flood-opacity="0" result="BackgroundImageFix"/>
<feColorMatrix in="SourceAlpha" type="matrix" values="0 0 0 0 0 0 0 0 0 0 0 0 0 0 0 0 0 0 127 0" result="hardAlpha"/>
<feOffset dx="2" dy="2"/>
<feComposite in2="hardAlpha" operator="out"/>
<feColorMatrix type="matrix" values="0 0 0 0 0.8 0 0 0 0 1 0 0 0 0 0 0 0 0 1 0"/>
<feBlend mode="normal" in2="BackgroundImageFix" result="effect1_dropShadow_2698_26883"/>
<feBlend mode="normal" in="SourceGraphic" in2="effect1_dropShadow_2698_26883" result="shape"/>
</filter>
</defs>
</svg>
