<svg width="58" height="83" viewBox="0 0 58 83" fill="none" xmlns="http://www.w3.org/2000/svg">
<g filter="url(#filter0_d_1_409)">
<path d="M22.4715 64.4077C21.8737 64.3308 21.2828 64.2406 20.6977 64.1313C20.5307 64.0989 20.3699 64.1637 20.2607 64.292C20.0485 64.5621 20.1965 64.9604 20.537 65.0246C21.1412 65.1338 21.7517 65.2304 22.3623 65.3073C22.5618 65.3327 22.7479 65.2304 22.8312 65.05C22.9601 64.7736 22.7803 64.4458 22.4716 64.4077L22.4715 64.4077Z" fill="black"/>
<path d="M23.2154 46.6581C22.6239 46.5679 22.0394 46.4656 21.4543 46.3303C21.2936 46.2915 21.1265 46.3494 21.0109 46.472C20.786 46.7356 20.9143 47.1403 21.2548 47.2172C21.859 47.3519 22.4632 47.4611 23.0801 47.5577C23.3952 47.6028 23.6519 47.3265 23.5941 47.0177C23.556 46.8316 23.4086 46.6899 23.2155 46.6581L23.2154 46.6581Z" fill="black"/>
<path d="M20.4088 37.7901C21.013 37.8994 21.6235 37.996 22.2341 38.0792C22.4202 38.1046 22.5937 38.015 22.6903 37.8543C22.851 37.5716 22.6776 37.2184 22.3561 37.1733C21.7646 37.0964 21.1674 36.9998 20.5824 36.8905C20.2291 36.8264 19.9464 37.1733 20.0811 37.5074C20.1326 37.6618 20.2545 37.7647 20.4089 37.7901H20.4088Z" fill="black"/>
<path d="M24.977 38.3559C25.5875 38.3946 26.198 38.4264 26.815 38.4461C27.1879 38.4524 27.4128 38.0478 27.207 37.739C27.1237 37.617 26.9884 37.5395 26.8404 37.5395C26.2362 37.5204 25.6384 37.4944 25.0413 37.4563C24.7713 37.4372 24.5527 37.6488 24.5527 37.9188C24.5591 38.1437 24.7459 38.3368 24.9771 38.3559L24.977 38.3559Z" fill="black"/>
<path d="M26.9633 64.748C26.3591 64.7353 25.7613 64.7092 25.1642 64.6648C24.8109 64.6457 24.5663 65.018 24.7334 65.3331C24.8103 65.4748 24.9456 65.558 25.1064 65.5707C25.7169 65.6095 26.3338 65.6349 26.9443 65.6539C27.3039 65.6603 27.5288 65.2747 27.349 64.9665C27.2658 64.8312 27.1241 64.748 26.9634 64.748L26.9633 64.748Z" fill="black"/>
<path d="M17.9598 36.2819C17.388 36.1085 16.8416 35.9287 16.2826 35.6974C15.9548 35.5627 15.6079 35.8321 15.6594 36.186C15.6848 36.3467 15.7877 36.4814 15.9358 36.5456C16.5139 36.7832 17.099 36.9827 17.7032 37.1624C17.8575 37.2076 18.0183 37.1688 18.1339 37.0595C18.4032 36.8156 18.3067 36.3848 17.9598 36.2819L17.9598 36.2819Z" fill="black"/>
<path d="M13.1858 44.686L9.79263 43.2852V44.2038H1.37412C1.1238 44.2038 0.917969 44.4096 0.917969 44.66C0.917969 44.9103 1.1238 45.1161 1.37412 45.1161H9.79263V46.0481L13.1858 44.686Z" fill="black"/>
<path d="M55.3408 44.2038H46.9159V43.2852L43.5234 44.686L46.9166 46.0418V45.1097H55.3351C55.5854 45.1097 55.7912 44.9039 55.7912 44.6536C55.7969 44.4096 55.5917 44.2038 55.3408 44.2038H55.3408Z" fill="black"/>
<path d="M27.688 46.9984C27.0902 46.9921 26.486 46.973 25.8889 46.9343C25.5223 46.9152 25.2847 47.3072 25.4715 47.6217C25.5484 47.75 25.6837 47.8339 25.8381 47.8466C26.4549 47.8853 27.0655 47.9044 27.6824 47.9107C28.0102 47.9107 28.2287 47.5893 28.1068 47.2875C28.0356 47.1141 27.8749 47.0048 27.6881 46.9984L27.688 46.9984Z" fill="black"/>
<path d="M18.0753 63.5272C17.5036 63.3664 16.9445 63.1803 16.3917 62.9617C16.1281 62.8588 15.839 63.0132 15.7812 63.2896C15.7361 63.5081 15.8517 63.7266 16.0575 63.8099C16.6357 64.0411 17.2271 64.2343 17.8249 64.4077C17.9793 64.4528 18.14 64.414 18.2557 64.3048C18.525 64.0602 18.4227 63.6301 18.0752 63.5272H18.0753Z" fill="black"/>
<path d="M35.935 64.0811C35.3435 64.1904 34.7527 64.287 34.1613 64.3702C33.8207 64.4217 33.6536 64.8136 33.8595 65.09C33.9624 65.2247 34.1231 65.2958 34.2902 65.2698C34.9007 65.1866 35.5049 65.09 36.1092 64.9744C36.456 64.9102 36.5977 64.4985 36.3665 64.2292C36.2566 64.1066 36.0958 64.0487 35.9351 64.0811L35.935 64.0811Z" fill="black"/>
<path d="M40.6888 62.9345C40.5541 62.8252 40.38 62.7928 40.2199 62.864C39.6736 63.0953 39.1145 63.2884 38.5492 63.4555C38.337 63.5196 38.2023 63.7255 38.2277 63.944C38.2601 64.2267 38.5364 64.4065 38.8122 64.3297C39.41 64.1499 40.0008 63.944 40.5732 63.7064C40.882 63.5641 40.9398 63.1531 40.6888 62.9345L40.6888 62.9345Z" fill="black"/>
<path d="M36.981 45.9766C36.8591 45.8737 36.7047 45.8419 36.5503 45.8934C35.9912 46.0668 35.3998 46.2275 34.828 46.3432C34.4811 46.42 34.3521 46.8444 34.5904 47.1017C34.6996 47.2174 34.8604 47.2688 35.0148 47.2364C35.6126 47.1144 36.2358 46.9474 36.8204 46.7676C37.1672 46.6513 37.2575 46.2142 36.9811 45.9766H36.981Z" fill="black"/>
<path d="M38.6834 37.1612C39.2813 36.9878 39.8721 36.7883 40.4508 36.5507C40.785 36.409 40.8301 35.9592 40.5341 35.754C40.4057 35.6708 40.245 35.6511 40.1033 35.7089C39.557 35.9338 38.9916 36.1199 38.4262 36.287C38.1499 36.3702 38.0152 36.6854 38.1562 36.9426C38.2597 37.1288 38.4777 37.2254 38.6835 37.1612L38.6834 37.1612Z" fill="black"/>
<path d="M29.5724 38.446C30.1829 38.4269 30.7998 38.4009 31.4104 38.3627C31.7833 38.3373 31.9631 37.9066 31.7318 37.6175C31.6353 37.5019 31.5006 37.4441 31.3526 37.4568C30.7547 37.4956 30.1506 37.5273 29.5535 37.54C29.1939 37.5527 28.988 37.9511 29.1869 38.2471C29.2707 38.3755 29.4181 38.446 29.5725 38.446L29.5724 38.446Z" fill="black"/>
<path d="M43.118 52.4097C40.4382 44.0364 40.5412 43.7924 43.491 36.2862C43.6129 35.9711 43.7482 35.6432 43.8766 35.2964C44.712 33.163 44.5964 31.736 44.4808 30.3352C44.3651 28.9598 44.2559 27.6104 45.3035 25.5348L45.3289 25.4833L45.3479 25.4319C46.3117 22.5081 44.9884 21.364 42.8544 20.6576C42.186 20.4391 41.4211 20.272 40.6244 20.0922C40.0203 19.9575 39.3907 19.8222 38.7674 19.6487C38.0864 19.4562 37.4568 19.3019 36.8844 19.1665C34.2308 18.5173 33.0351 18.2218 33.0993 15.1952V15.1247L33.0866 15.0669C33.0415 14.7905 32.9449 14.5466 32.8166 14.3153C32.5593 13.8204 32.0517 13.4094 31.3643 13.107C30.7023 12.8179 29.8478 12.6121 28.9031 12.5415L28.9158 6.8931C29.4234 6.75143 29.8732 6.48206 30.2397 6.12183C30.7861 5.57547 31.1203 4.83026 31.1203 4.00119C31.1203 3.17212 30.7861 2.42054 30.2397 1.88054C29.6934 1.33417 28.9482 1 28.1191 1C27.29 1 26.5384 1.33417 25.9985 1.88054C25.4521 2.42691 25.1179 3.17212 25.1179 4.00119C25.1179 4.83026 25.4521 5.58184 25.9985 6.12183C26.3968 6.52017 26.9044 6.80288 27.4698 6.93122L27.4571 12.541C26.5124 12.6115 25.658 12.811 24.9959 13.1064C23.987 13.5498 23.3638 14.2309 23.3638 15.0473V15.0664L23.3448 15.1255V15.196C23.4089 18.2225 22.2139 18.518 19.5597 19.1673C18.9879 19.309 18.3577 19.4627 17.6766 19.6495C17.0534 19.8229 16.4302 19.9646 15.8196 20.0929C15.023 20.2664 14.258 20.4398 13.5897 20.6584C11.45 21.3591 10.1323 22.509 11.0961 25.4326L11.1152 25.4841L11.1406 25.5355C12.1946 27.6111 12.0853 28.9606 11.9697 30.336C11.8541 31.7305 11.7384 33.1568 12.5675 35.2908L12.7346 35.7152C15.9347 43.9531 16.4359 45.2455 13.3515 52.3401L13.3324 52.3916L13.3261 52.4106C11.2244 59.0941 11.443 63.8106 13.4804 66.9725C15.537 70.1725 19.3862 71.7214 24.5335 72.0619C24.996 72.0943 25.5233 72.1197 26.1205 72.1324C26.4998 72.1451 26.8981 72.1515 27.3289 72.1579L27.3098 80.2738C27.3098 80.6722 27.6376 81 28.036 81C28.4343 81 28.7621 80.6722 28.7621 80.2738L28.7812 72.1515C29.1605 72.1452 29.52 72.1388 29.8542 72.1324C30.452 72.1134 30.9787 72.0937 31.4412 72.0619C36.5821 71.7214 40.547 70.1789 42.7192 66.9915C44.8849 63.829 45.2253 59.1058 43.118 52.4097ZM27.0135 5.09321C26.7308 4.81049 26.5637 4.42486 26.5637 4.00047C26.5637 3.57608 26.7372 3.1841 27.0135 2.90773C27.2962 2.62502 27.6819 2.45794 28.1063 2.45794C28.5307 2.45794 28.9226 2.63138 29.199 2.90773C29.4817 3.19045 29.6488 3.57608 29.6488 4.00047C29.6488 4.42486 29.4754 4.81683 29.199 5.09321C28.9163 5.37592 28.5307 5.543 28.1063 5.543C27.6819 5.543 27.2962 5.36956 27.0135 5.09321ZM25.619 14.469C26.1267 14.2314 26.7626 14.0897 27.4443 14.0192V14.4239C27.4443 14.8222 27.7722 15.1501 28.1705 15.1501C28.5688 15.1501 28.8966 14.8222 28.8966 14.4239V14.0065C29.6101 14.0707 30.2848 14.2187 30.8177 14.469C31.1392 14.617 31.3959 14.8032 31.5375 15.009V15.0414C31.5375 15.2212 31.2485 15.4461 30.7726 15.652C30.117 15.941 29.1983 16.1145 28.1698 16.1145C27.1418 16.1145 26.2225 15.9347 25.5669 15.652C25.1749 15.4785 24.9049 15.2987 24.828 15.138C24.9506 14.8737 25.2334 14.6488 25.619 14.469ZM43.0734 60.3071C43.0734 60.4488 43.048 60.5644 43.0093 60.6927C42.8936 61.0333 42.6687 61.3033 42.4114 61.5472C42.1478 61.7975 42.2698 62.241 42.6236 62.3248C42.7393 62.3502 42.8612 62.3312 42.9578 62.2734C42.7456 63.8089 42.2507 65.1012 41.5245 66.1741C39.6288 68.9503 36.0431 70.2997 31.3456 70.6143C30.8507 70.6467 30.3431 70.6721 29.8165 70.6848C29.251 70.7039 28.6469 70.7102 27.9848 70.7102C27.3292 70.7102 26.7187 70.6975 26.1532 70.6848C25.6195 70.6721 25.1183 70.646 24.624 70.6143C19.9329 70.2992 16.4755 68.9562 14.6954 66.1931C14.0017 65.1137 13.5582 63.8152 13.3778 62.2669C13.4356 62.3183 13.4934 62.3698 13.5576 62.4212C13.6859 62.5305 13.8593 62.5559 14.0201 62.4918C14.3416 62.3634 14.4057 61.939 14.1421 61.7205C13.8333 61.4632 13.5506 61.1614 13.3905 60.7885C13.3517 60.6983 13.3263 60.6023 13.3073 60.5058C13.3073 60.4931 13.3009 60.4804 13.3009 60.467C13.3333 58.3337 13.7831 55.8147 14.7081 52.8586C16.128 49.5811 16.8351 47.4675 16.912 45.4173C17.3942 45.8219 18.0048 46.1434 18.5828 46.3874C18.9106 46.522 19.2575 46.259 19.2124 45.9052C19.187 45.7444 19.0904 45.6097 18.9361 45.5456C18.4348 45.3334 17.9011 45.057 17.4837 44.7038C17.3103 44.5621 17.079 44.5691 16.912 44.6911C16.8217 42.2299 15.8389 39.6919 14.0912 35.1868L14.0524 35.0903C14.2773 34.9232 14.3097 34.589 14.0975 34.3895C13.9114 34.2161 13.7506 34.0299 13.6217 33.805C13.6153 33.7987 13.6153 33.786 13.609 33.7796C13.2621 32.462 13.3453 31.4467 13.4292 30.4442C13.5575 28.8763 13.6795 27.3401 12.4718 24.9304C11.9127 23.1694 12.729 22.4692 14.046 22.0385C14.6756 21.8327 15.3954 21.672 16.1407 21.5119C16.7766 21.3702 17.4323 21.2292 18.0688 21.0494C18.7434 20.8632 19.354 20.7088 19.9067 20.5735C22.8113 19.8601 24.3666 19.4808 24.7262 16.8525C24.8094 16.8976 24.8996 16.9427 24.9962 16.9808C25.8253 17.3474 26.9498 17.5723 28.1836 17.5723C29.4174 17.5723 30.5419 17.3474 31.371 16.9808C31.493 16.923 31.615 16.8652 31.7242 16.8074C32.0711 19.4743 33.6263 19.8601 36.5501 20.5728C37.1028 20.7075 37.7133 20.8555 38.388 21.0487C39.024 21.2285 39.6796 21.3701 40.3161 21.5112C41.0613 21.6782 41.7811 21.8326 42.4107 22.0378C43.7284 22.4686 44.5504 23.1687 43.985 24.9297C42.7767 27.3394 42.9057 28.8687 43.034 30.4435C43.1172 31.42 43.1947 32.4225 42.8732 33.695C42.7449 33.9713 42.5391 34.2026 42.3205 34.4084C42.1985 34.5177 42.1534 34.6848 42.1858 34.8455C42.2182 34.9675 42.2888 35.0704 42.3853 35.1282C42.3021 35.3404 42.2183 35.5456 42.1414 35.7515C40.6637 39.5169 39.86 41.5544 39.7254 43.6045C39.7127 43.6496 39.7063 43.6947 39.7063 43.7461C39.7063 43.8554 39.6809 43.9386 39.6422 44.0416C39.5005 44.363 39.1924 44.633 38.916 44.8255C38.7813 44.9221 38.7102 45.0828 38.7299 45.2499C38.7686 45.5968 39.1606 45.7702 39.4433 45.5714C39.5526 45.4945 39.6619 45.4107 39.7648 45.3211C39.9573 47.1527 40.6193 49.3184 41.7438 52.8464C42.637 55.6995 43.0677 58.1481 43.0932 60.2298C43.0735 60.2552 43.0734 60.2817 43.0734 60.3071Z" fill="black" stroke="black" stroke-width="0.5"/>
<path d="M31.4745 64.6451C30.8766 64.6902 30.2725 64.7156 29.6754 64.7353C29.3221 64.748 29.1163 65.1336 29.3024 65.429C29.3926 65.5637 29.54 65.6476 29.7008 65.6412C30.3113 65.6222 30.9282 65.5898 31.5387 65.551C31.9117 65.5256 32.0978 65.0821 31.8538 64.7994C31.7509 64.6902 31.6163 64.6387 31.4746 64.6451L31.4745 64.6451Z" fill="black"/>
<path d="M32.1762 46.7744C31.5784 46.8449 30.9876 46.8964 30.3834 46.9352C30.0239 46.9606 29.8307 47.3722 30.0493 47.6613C30.1458 47.7833 30.2869 47.8538 30.4413 47.8411C31.0518 47.8023 31.675 47.7509 32.2792 47.6804C32.44 47.6613 32.5747 47.5584 32.6458 47.4104C32.7932 47.0895 32.5296 46.7357 32.1763 46.7744L32.1762 46.7744Z" fill="black"/>
<path d="M34.1593 38.0857C34.7699 38.0025 35.3804 37.9123 35.9846 37.7967C36.2159 37.7516 36.3766 37.5394 36.3512 37.3018C36.3188 37.0381 36.0748 36.8583 35.8175 36.9034C35.2261 37.0127 34.6352 37.1029 34.0438 37.1861C33.8062 37.2185 33.6328 37.4301 33.6518 37.6747C33.6645 37.932 33.9028 38.1181 34.1594 38.0857H34.1593Z" fill="black"/>
</g>
<defs>
<filter id="filter0_d_1_409" x="0.917969" y="0.75" width="56.373" height="82" filterUnits="userSpaceOnUse" color-interpolation-filters="sRGB">
<feFlood flood-opacity="0" result="BackgroundImageFix"/>
<feColorMatrix in="SourceAlpha" type="matrix" values="0 0 0 0 0 0 0 0 0 0 0 0 0 0 0 0 0 0 127 0" result="hardAlpha"/>
<feOffset dx="1.5" dy="1.5"/>
<feComposite in2="hardAlpha" operator="out"/>
<feColorMatrix type="matrix" values="0 0 0 0 0 0 0 0 0 0.639216 0 0 0 0 1 0 0 0 0.5 0"/>
<feBlend mode="normal" in2="BackgroundImageFix" result="effect1_dropShadow_1_409"/>
<feBlend mode="normal" in="SourceGraphic" in2="effect1_dropShadow_1_409" result="shape"/>
</filter>
</defs>
</svg>
