<svg width="83" height="82" viewBox="0 0 83 82" fill="none" xmlns="http://www.w3.org/2000/svg">
<g filter="url(#filter0_d_1_304)">
<path d="M75.0156 35.2176C74.0528 34.2561 73.0152 33.4447 71.9279 32.7332L72.9281 31.0229C73.1778 30.5737 73.0281 29.9988 72.5783 29.7372C72.1286 29.4878 71.553 29.6373 71.3032 30.0865L70.303 31.7968C69.4028 31.3347 68.4652 30.9603 67.5153 30.6607L68.0277 28.7255C68.1651 28.226 67.8651 27.7143 67.3649 27.5893C66.8648 27.4521 66.3525 27.7517 66.215 28.2512L65.7027 30.1735C64.7153 29.9614 63.7152 29.8364 62.7149 29.7862V27.7884C62.7149 27.2639 62.2897 26.8521 61.7773 26.8521C61.252 26.8521 60.8397 27.2639 60.8397 27.7884V29.7862C59.8272 29.8358 58.8269 29.9608 57.839 30.1735L57.3266 28.2512C57.1892 27.7517 56.6768 27.452 56.1767 27.5893C55.6766 27.7143 55.3765 28.226 55.514 28.7255L56.0264 30.6607C55.0765 30.9603 54.1388 31.3347 53.2387 31.7968L52.2385 30.0865C51.9887 29.6373 51.4131 29.4872 50.9633 29.7372C50.5136 29.9995 50.3632 30.5737 50.6258 31.0229L51.6132 32.7332C50.7756 33.27 49.9883 33.8945 49.2378 34.5686C49.1003 33.5072 48.7751 32.5585 48.2124 32.0094C47.6 31.3979 46.6747 31.1104 45.7873 30.9732C46.4371 30.2488 47.0373 29.4877 47.5503 28.6886L49.2751 29.6746C49.4248 29.7622 49.5752 29.7996 49.7378 29.7996C50.063 29.7996 50.3754 29.6372 50.5503 29.3253C50.8129 28.8884 50.6625 28.3141 50.2128 28.0518L48.4879 27.0658C48.9506 26.1546 49.3255 25.2305 49.6378 24.269L51.5627 24.7936C51.6505 24.8058 51.7253 24.8187 51.8002 24.8187C52.2254 24.8187 52.6004 24.5442 52.7126 24.1195C52.8501 23.62 52.55 23.1083 52.0499 22.9833L50.125 22.4587C50.3251 21.4727 50.4503 20.4739 50.5 19.475H52.5127C53.0251 19.475 53.4503 19.0503 53.4503 18.5386C53.4503 18.014 53.0251 17.6022 52.5127 17.6022L50.5006 17.6015C50.4509 16.6027 50.3257 15.6038 50.1257 14.6178L52.0506 14.0932C52.5507 13.9559 52.8508 13.4442 52.7133 12.9448C52.5759 12.4454 52.0635 12.1586 51.5634 12.2829L49.6385 12.8075C49.3262 11.846 48.9506 10.9096 48.4886 10.0107L50.2134 9.02466C50.6632 8.76237 50.8135 8.18817 50.5509 7.73899C50.2883 7.2898 49.7133 7.13965 49.2758 7.40194L47.551 8.38794C46.8508 7.30206 46.0255 6.26583 45.0757 5.31655C44.713 4.95438 44.1129 4.95438 43.7502 5.31655C43.3876 5.67873 43.3876 6.27806 43.7502 6.64023C50.3135 13.1948 50.3135 23.882 43.7502 30.4366L43.2501 30.936C42.2499 31.0482 40.3121 31.3607 39.3125 32.3596C38.2748 33.3959 37.8122 35.6682 37.8251 37.4662C37.8251 37.8657 37.8625 38.3149 37.9251 38.777C37.3875 38.6771 36.8378 38.6275 36.2498 38.7022C34.5119 38.902 32.8742 39.8384 32.0992 41.0241C30.5731 43.1205 4.57082 69.3013 4.57082 69.3013C4.20816 69.6634 4.20816 70.2628 4.57082 70.625C4.7586 70.7996 4.99607 70.8995 5.23354 70.8995C5.48327 70.8995 5.72139 70.7996 5.90852 70.625L7.32109 69.2014L8.90853 70.7867C9.09631 70.9742 9.33378 71.0612 9.57125 71.0612C9.80872 71.0612 10.0462 70.9736 10.234 70.7867C10.5966 70.4245 10.5966 69.8252 10.234 69.463L8.64653 67.8777L11.4471 65.0808L13.0346 66.6662C13.2223 66.8537 13.4598 66.9407 13.6973 66.9407C13.9347 66.9407 14.1722 66.8531 14.36 66.6662C14.7227 66.304 14.7227 65.7047 14.36 65.3425L12.7726 63.7571L15.5731 60.9603L17.1606 62.5456C17.3484 62.7332 17.5858 62.8202 17.8233 62.8202C18.0608 62.8202 18.3111 62.7325 18.486 62.5456C18.8487 62.1834 18.8487 61.5841 18.486 61.2219L16.8986 59.6366L19.6992 56.8397L21.2866 58.4251C21.4744 58.6126 21.7119 58.6996 21.9493 58.6996C22.1868 58.6996 22.4372 58.612 22.612 58.4251C22.987 58.0629 22.987 57.4636 22.612 57.1014L21.0246 55.5161L24.9125 51.6333C24.9003 52.707 25.2248 53.631 25.8876 54.3304C26.5503 54.9548 27.4376 55.279 28.4881 55.279H28.5629L26.738 57.1015L25.1506 55.5162C24.7879 55.1417 24.1878 55.1417 23.8251 55.5162C23.4625 55.8783 23.4625 56.4648 23.8251 56.8398L25.4126 58.4252L22.61 61.224L21.0226 59.6387C20.6599 59.2643 20.0598 59.2643 19.6971 59.6387C19.3345 60.0009 19.3345 60.5873 19.6971 60.9624L21.2846 62.5477L18.484 65.3446L16.8965 63.7592C16.5339 63.3848 15.9337 63.3848 15.5711 63.7592C15.2084 64.1214 15.2084 64.7207 15.5711 65.0829L17.1585 66.6682L14.358 69.4651L12.7705 67.8798C12.4079 67.5176 11.8077 67.5176 11.4451 67.8798C11.0702 68.2419 11.0702 68.8413 11.4451 69.2035L13.0325 70.7888L9.54471 74.2598C9.18205 74.6342 9.18205 75.2213 9.54471 75.5834C9.73249 75.771 9.96996 75.858 10.2074 75.858C10.4449 75.858 10.6953 75.7703 10.8702 75.5834L15.0207 71.4512C15.0207 71.4512 37.0729 49.628 39.161 48.1168C40.3864 47.3055 41.2988 45.6821 41.5112 43.9467C41.5738 43.3596 41.5364 42.7983 41.4235 42.2614C41.861 42.3239 42.2985 42.3613 42.7612 42.3613C44.7739 42.3613 46.9117 41.7994 47.8365 40.8881C48.5489 40.1638 49.049 38.7157 49.2368 37.1548L49.8492 36.5433C56.4249 29.9763 67.1139 29.9763 73.6888 36.5433C74.0514 36.9054 74.6387 36.9054 75.0142 36.5433C75.3782 36.1663 75.3782 35.5798 75.0155 35.2176L75.0156 35.2176ZM39.6485 43.7326C39.5111 44.8939 38.8735 46.0545 38.1108 46.554C38.0985 46.5663 38.0856 46.5792 38.0734 46.5792C35.8981 48.1645 33.848 49.9503 31.985 51.8726C31.1726 52.7214 29.7349 53.371 28.5721 53.4083C27.9597 53.4083 27.497 53.2711 27.2092 53.0088C26.9091 52.684 26.7594 52.2226 26.7839 51.6103C26.8091 50.449 27.4589 49.0261 28.334 48.2019C30.2466 46.3543 32.0218 44.3069 33.6345 42.0842C34.1346 41.3225 35.2973 40.6986 36.4725 40.5607C36.6223 40.5356 36.7849 40.5356 36.9604 40.5356C37.3231 40.5356 37.7354 40.5981 38.1232 40.7476L36.0982 42.7699C35.7233 43.1321 35.7233 43.7185 36.0982 44.0936C36.2731 44.2682 36.5235 44.3681 36.761 44.3681C36.9984 44.3681 37.2359 44.2682 37.4237 44.0936L39.4364 42.0713C39.6739 42.6584 39.6991 43.2577 39.6488 43.7326L39.6485 43.7326ZM46.512 39.5624C45.737 40.3364 42.7866 40.7611 41.1611 40.3616L43.7365 37.7896C44.0992 37.4151 44.0992 36.828 43.7365 36.4536C43.3739 36.0914 42.7737 36.0914 42.4111 36.4536L39.8608 39.0005C39.7607 38.6132 39.6981 38.1015 39.6981 37.4648C39.6859 35.7171 40.186 34.144 40.6358 33.6943C41.0107 33.3069 42.211 32.87 43.7861 32.7701C44.0113 32.7579 44.2113 32.745 44.4114 32.745C45.7117 32.745 46.5867 33.0324 46.8867 33.3321C47.8869 34.3316 47.4746 38.6011 46.5118 39.5626L46.512 39.5624Z" fill="black"/>
<path d="M61.7772 35.6289C58.4269 35.6289 55.2888 36.9275 52.9385 39.2746L13.772 78.4023C13.4093 78.7645 13.4093 79.3638 13.772 79.726C13.9598 79.9135 14.1972 80.0005 14.4347 80.0005C14.6722 80.0005 14.9097 79.9129 15.0974 79.726L54.264 40.6115C56.2644 38.6137 58.9392 37.5155 61.7771 37.5155C64.6152 37.5277 67.2899 38.6394 69.2903 40.6365C69.653 40.9987 70.2531 40.9987 70.6157 40.6365C70.9784 40.2744 70.9784 39.675 70.6157 39.3129C68.265 36.9413 65.1267 35.6428 61.7764 35.6299L61.7772 35.6289Z" fill="black"/>
<path d="M79.9798 30.2606C73.4667 23.7562 65.0656 21.1217 57.1892 23.0319C59.1141 15.1787 56.4768 6.7894 49.951 0.271632C49.5883 -0.0905439 48.9882 -0.0905439 48.6255 0.271632C48.2629 0.633807 48.2629 1.23314 48.6255 1.59531C55.0888 8.05006 57.4513 16.4646 54.9263 24.0933C54.814 24.4304 54.9011 24.7925 55.1515 25.0548C55.4012 25.3171 55.7768 25.3919 56.1143 25.2797C63.7527 22.758 72.1784 25.1173 78.6422 31.5721C78.83 31.7597 79.0674 31.8467 79.3049 31.8467C79.5424 31.8467 79.7799 31.759 79.9676 31.5721C80.3425 31.2093 80.3425 30.6229 79.9799 30.2607L79.9798 30.2606Z" fill="black"/>
<path d="M41.0133 9.71108C40.6506 9.34891 40.0505 9.34891 39.6878 9.71108C39.3252 10.0733 39.3252 10.6726 39.6878 11.0348C43.8384 15.1798 43.8384 21.9091 39.7001 26.0413L0.521993 65.169C0.159336 65.5312 0.159336 66.1305 0.521993 66.4927C0.709772 66.6803 0.947243 66.7673 1.18471 66.7673C1.42218 66.7673 1.65965 66.6796 1.84743 66.4927L41.014 27.3782C45.8886 22.5087 45.8886 14.5815 41.0133 9.71237L41.0133 9.71108Z" fill="black"/>
</g>
<defs>
<filter id="filter0_d_1_304" x="0.25" y="0" width="82" height="82" filterUnits="userSpaceOnUse" color-interpolation-filters="sRGB">
<feFlood flood-opacity="0" result="BackgroundImageFix"/>
<feColorMatrix in="SourceAlpha" type="matrix" values="0 0 0 0 0 0 0 0 0 0 0 0 0 0 0 0 0 0 127 0" result="hardAlpha"/>
<feOffset dx="2" dy="2"/>
<feComposite in2="hardAlpha" operator="out"/>
<feColorMatrix type="matrix" values="0 0 0 0 0.8 0 0 0 0 1 0 0 0 0 0 0 0 0 1 0"/>
<feBlend mode="normal" in2="BackgroundImageFix" result="effect1_dropShadow_1_304"/>
<feBlend mode="normal" in="SourceGraphic" in2="effect1_dropShadow_1_304" result="shape"/>
</filter>
</defs>
</svg>
