<svg width="95" height="82" viewBox="0 0 95 82" fill="none" xmlns="http://www.w3.org/2000/svg">
<g filter="url(#filter0_d_1_398)">
<path d="M92.8627 13.8128L79.6595 0.609574C79.2315 0.181523 78.6384 -0.0430422 78.0251 0.00685867C77.4224 0.0663638 76.8667 0.386925 76.5154 0.872543C74.7159 3.39191 72.9356 5.42553 71.1946 7.06973L71.185 7.07933C66.8355 11.2149 62.8073 12.8694 59.6757 13.4328C56.543 13.9971 54.306 13.4712 53.5257 13.237C46.5415 7.24324 30.1961 16.6028 18.084 28.7158C5.73683 41.063 -3.74728 57.8234 2.98331 64.558L16.1865 77.7612C22.9287 84.5016 39.6908 75.0192 52.0385 62.67C62.323 52.3864 70.6116 39.0582 69.219 30.9925C73.4995 31.2055 80.4942 30.049 87.9371 22.6061C89.6387 20.9045 91.3712 18.8804 93.0832 16.4686C93.6705 15.6528 93.5727 14.5232 92.8634 13.8129L92.8627 13.8128ZM5.90362 61.6399C2.38132 58.1186 8.09282 44.5469 21.0043 31.6356C33.9255 18.7144 47.4977 13.0049 51.0185 16.5272C54.5408 20.0495 48.8293 33.6213 35.9102 46.5414C22.9977 59.452 9.4269 65.1622 5.90362 61.6399ZM49.1191 59.7521C36.2075 72.6637 22.6281 78.3636 19.1049 74.8413L10.9239 66.6603C12.4595 66.4646 14.1045 66.0279 15.8359 65.4059L20.8073 70.3774C21.6154 71.1855 22.9197 71.1855 23.7269 70.3774C24.535 69.5692 24.535 68.2669 23.7269 67.4587L19.9034 63.6352C21.2067 62.9749 22.5397 62.2445 23.8632 61.4287L25.5745 63.14C26.3826 63.9481 27.6849 63.9481 28.4931 63.14C29.3012 62.3309 29.3012 61.0275 28.4931 60.2213L27.3846 59.1109C28.5708 58.276 29.7581 57.3997 30.9251 56.4842L35.4014 60.9605C36.2095 61.7667 37.5215 61.7581 38.32 60.9605C39.1281 60.1514 39.1281 58.8481 38.32 58.0419L34.128 53.8479C35.2269 52.8862 36.3075 51.9025 37.3576 50.8909L38.7771 52.3104C39.5852 53.1185 40.8895 53.1185 41.6957 52.3104C42.4933 51.5128 42.5048 50.198 41.6957 49.3918L40.2762 47.9704C41.2792 46.93 42.262 45.8503 43.2266 44.7505L47.4186 48.9426C48.2267 49.7517 49.5291 49.7517 50.3372 48.9426C51.1348 48.145 51.1454 46.8331 50.3372 46.024L45.8629 41.5496C46.7775 40.3816 47.6528 39.1953 48.4896 38.0081L49.5981 39.1166C50.4062 39.9248 51.7086 39.9248 52.5167 39.1166C53.3249 38.3085 53.3249 37.0062 52.5167 36.198L50.8055 34.4848C51.6136 33.1518 52.3613 31.8186 53.012 30.525L56.8365 34.3485C57.6446 35.1566 58.947 35.1547 59.7551 34.3485C60.5632 33.5404 60.5632 32.238 59.7551 31.4299L54.7837 26.4575C55.4056 24.7251 55.8442 23.0811 56.0381 21.5445L64.221 29.7274C67.7403 33.2507 62.0405 46.834 49.1193 59.7515L49.1191 59.7521ZM66.7966 26.4702L58.0995 17.773C61.9038 17.5503 67.0502 16.1203 72.5764 11.3915L82.8504 21.6656C74.9584 28.2514 68.4101 26.9375 66.7966 26.4702ZM85.8457 18.8229L75.5611 8.53926C76.5141 7.52768 77.4681 6.43836 78.4203 5.21278L88.6857 15.4782C87.7317 16.722 86.7892 17.821 85.8457 18.8229ZM36.537 31.005C33.2488 27.7168 26.3416 34.2739 24.9893 35.6263C23.6466 36.9689 17.0983 43.8666 20.3874 47.1538C23.6841 50.4515 30.5722 43.8944 31.9159 42.5519C33.2682 41.2006 39.8345 34.3027 36.537 31.005ZM28.9971 39.6331C27.0516 41.5785 25.3097 42.7964 24.1234 43.4183C24.7453 42.232 25.9633 40.49 27.9086 38.5446C29.8636 36.5896 31.6056 35.3717 32.7928 34.7499C32.1699 35.9361 30.9539 37.6781 28.9971 39.6331Z" fill="black"/>
<path d="M92.5328 14.19L92.5092 14.1663L79.306 0.963126C78.9809 0.638016 78.5329 0.468464 78.0699 0.504868C77.6117 0.551366 77.188 0.796665 76.9214 1.16438C75.1073 3.70399 73.3083 5.76065 71.5432 7.42824L71.5386 7.43289L71.5297 7.4418L71.5296 7.44168C67.1127 11.6413 62.9966 13.3434 59.7642 13.9249C56.5357 14.5065 54.2173 13.9666 53.3819 13.7159L53.2804 13.6854L53.2 13.6164C51.5863 12.2315 49.4033 11.7051 46.786 11.9218C44.1647 12.1389 41.1497 13.0997 37.944 14.6372C31.5347 17.7113 24.4655 23.041 18.4376 29.0694L18.4376 29.0694C12.2924 35.2145 6.87433 42.4449 3.83247 48.9533C2.3109 52.2089 1.39752 55.2552 1.26638 57.8778C1.13563 60.4928 1.78198 62.6485 3.33687 64.2044L92.5328 14.19ZM92.5328 14.19C93.0498 14.7302 93.1134 15.5709 92.6774 16.1765L92.6755 16.1792C90.9793 18.5687 89.2648 20.5712 87.5835 22.2526C80.2469 29.5893 73.3925 30.6996 69.2438 30.4931L68.62 30.462L68.7263 31.0775C69.3916 34.931 67.7442 40.1486 64.5725 45.7533C61.415 51.3328 56.8014 57.2004 51.6849 62.3164L51.6849 62.3165C45.5395 68.4626 38.3087 73.8807 31.7988 76.9212C28.5425 78.442 25.4954 79.3543 22.8716 79.484C20.2555 79.6133 18.098 78.9651 16.5401 77.4076C16.5401 77.4076 16.54 77.4076 16.54 77.4076L3.33697 64.2045L92.5328 14.19ZM49.5476 60.0306L49.4726 60.1057C42.9843 66.594 36.3161 71.2833 30.8066 73.9107C28.0542 75.2233 25.5689 76.0319 23.5259 76.2816C21.5041 76.5287 19.7969 76.2401 18.7514 75.1949L18.7513 75.1948L10.5704 67.0139L9.84973 66.2933L10.8607 66.1644C12.35 65.9745 13.9584 65.5491 15.6668 64.9354L15.9652 64.8282L16.1894 65.0524L21.1608 70.0238C21.7738 70.6368 22.7614 70.6365 23.3731 70.024L23.3733 70.0238C23.9862 69.411 23.9862 68.4252 23.3733 67.8123L19.5498 63.9888L19.062 63.501L19.6774 63.1892C20.9709 62.5339 22.2914 61.8102 23.6009 61.0031L23.9373 60.7957L24.2168 61.0752L25.928 62.7864C26.5408 63.3992 27.5264 63.3993 28.1393 62.7866C28.7528 62.1724 28.7519 61.1858 28.14 60.5753L28.1392 60.5746L27.0307 59.4642L26.6112 59.0439L27.0968 58.7021C28.2769 57.8714 29.4571 57.0003 30.6164 56.0908L30.9652 55.8172L31.2786 56.1306L35.7545 60.6065L49.5476 60.0306ZM49.5476 60.0306L49.5479 60.0299M49.5476 60.0306L49.5479 60.0299M49.5479 60.0299C56.0021 53.5623 60.6678 46.9219 63.2866 41.4319C64.5999 38.6787 65.4092 36.1927 65.6594 34.1493C65.9071 32.1272 65.6192 30.4197 64.5748 29.3741L64.5746 29.3739L56.3917 21.191L55.6698 20.4692L55.542 21.4819C55.3541 22.9715 54.927 24.5786 54.3131 26.2885L54.206 26.5868L54.4301 26.811L59.4015 31.7834L59.4016 31.7834C60.0143 32.3962 60.0144 33.3816 59.402 33.9945C59.402 33.9945 59.402 33.9945 59.4019 33.9945C59.4018 33.9947 59.4017 33.9948 59.4016 33.9949L49.5479 60.0299ZM36.2637 46.895L36.2638 46.895C42.7557 40.4025 47.4498 33.7341 50.0811 28.2256C51.3955 25.4738 52.2059 22.9892 52.4569 20.947C52.7052 18.9258 52.4175 17.2191 51.3721 16.1737C50.327 15.1283 48.6205 14.8405 46.5996 15.0886C44.5575 15.3394 42.0729 16.1496 39.3211 17.4639C33.8125 20.0949 27.1438 24.789 20.6508 31.282C14.1626 37.7701 9.47041 44.4363 6.84011 49.9435C5.52613 52.6947 4.71598 55.1789 4.46518 57.2209C4.21698 59.2418 4.50465 60.9484 5.55011 61.9935C6.59573 63.0389 8.30253 63.3267 10.3236 63.0786C12.3658 62.8279 14.8501 62.018 17.6014 60.7042C23.1088 58.0744 29.775 53.3827 36.2637 46.895ZM49.9835 46.3773L49.9837 46.3775C50.5951 46.9899 50.5875 47.9853 49.9837 48.589L49.9835 48.5892C49.3707 49.2028 48.3852 49.2028 47.7724 48.5892L47.7722 48.589L43.5801 44.397L43.2027 44.0195L42.8507 44.4208C41.89 45.5161 40.9126 46.5898 39.9163 47.6233L39.5758 47.9765L39.9224 48.3237L41.3419 49.7451L41.3428 49.7459C41.9536 50.3546 41.9466 51.3524 41.3422 51.9568L41.3417 51.9572C40.7311 52.5693 39.7437 52.5699 39.1306 51.9568L37.7112 50.5374L37.3642 50.1904L37.0107 50.5308C35.9674 51.5359 34.8927 52.5142 33.7987 53.4716L33.3966 53.8235L33.7743 54.2013L37.9664 58.3954L37.9669 58.3959C38.5788 59.0063 38.5797 59.9927 37.9665 60.607C37.362 61.2104 36.3666 61.2167 35.755 60.607L49.9835 46.3773ZM66.4431 26.8237L66.534 26.9146L66.6575 26.9504C68.3899 27.4522 75.1217 28.7664 83.1708 22.0495L83.5908 21.6989L83.204 21.312L72.9299 11.038L72.6028 10.7109L72.2513 11.0116C66.8103 15.6675 61.7687 17.0574 58.0703 17.2739L56.9583 17.3389L57.7459 18.1266L66.4431 26.8237ZM85.4921 19.1764L85.8565 19.5407L86.2097 19.1657C87.1646 18.1517 88.118 17.0399 89.0824 15.7825L89.3492 15.4346L89.0392 15.1247L78.7738 4.85923L78.3731 4.45851L78.0254 4.90603C77.0847 6.11695 76.1413 7.1942 75.1972 8.1964L74.8644 8.54966L75.2076 8.89283L85.4921 19.1764ZM20.741 46.8003L20.7408 46.8002C20.0608 46.1206 19.8688 45.2495 20.0243 44.2301C20.1823 43.1941 20.6968 42.0473 21.3792 40.9197C22.741 38.6694 24.679 36.6436 25.3428 35.9798C26.0115 35.3112 28.0421 33.3684 30.2962 32.0031C31.4257 31.319 32.5742 30.803 33.6114 30.6439C34.6322 30.4874 35.5038 30.6789 36.1834 31.3585C36.8657 32.0409 37.058 32.9141 36.902 33.9348C36.7434 34.9722 36.2272 36.1203 35.5426 37.2491C34.1763 39.5018 32.2315 41.5298 31.5625 42.1982C30.8976 42.8626 28.874 44.8026 26.6249 46.1653C25.498 46.8482 24.3516 47.3628 23.3154 47.5205C22.2959 47.6756 21.4233 47.4829 20.741 46.8003ZM29.3506 39.9866C31.3367 38.0024 32.5853 36.2206 33.2355 34.9823L33.9806 33.5632L32.5608 34.3069C31.321 34.9564 29.539 36.2071 27.5551 38.1911L27.9086 38.5446L27.5551 38.1911C25.5807 40.1656 24.33 41.9475 23.6806 43.1861L22.9368 44.6049L24.3556 43.8611C25.5942 43.2118 27.3761 41.9611 29.3506 39.9866Z" stroke="white"/>
</g>
<defs>
<filter id="filter0_d_1_398" x="0.75" y="0" width="94.2168" height="81.5" filterUnits="userSpaceOnUse" color-interpolation-filters="sRGB">
<feFlood flood-opacity="0" result="BackgroundImageFix"/>
<feColorMatrix in="SourceAlpha" type="matrix" values="0 0 0 0 0 0 0 0 0 0 0 0 0 0 0 0 0 0 127 0" result="hardAlpha"/>
<feOffset dx="1.5" dy="1.5"/>
<feComposite in2="hardAlpha" operator="out"/>
<feColorMatrix type="matrix" values="0 0 0 0 0 0 0 0 0 0.639216 0 0 0 0 1 0 0 0 0.5 0"/>
<feBlend mode="normal" in2="BackgroundImageFix" result="effect1_dropShadow_1_398"/>
<feBlend mode="normal" in="SourceGraphic" in2="effect1_dropShadow_1_398" result="shape"/>
</filter>
</defs>
</svg>
