<svg width="61" height="82" viewBox="0 0 61 82" fill="none" xmlns="http://www.w3.org/2000/svg">
<g filter="url(#filter0_d_2698_26946)">
<path d="M24.1009 80C23.9484 80 23.7966 79.9713 23.6516 79.9135C23.3541 79.7942 23.1168 79.5616 22.9907 79.2675L18.7248 69.3017C18.581 68.9664 18.5965 68.5841 18.7661 68.262C18.9369 67.9393 19.2441 67.7112 19.6018 67.6407L44.0945 62.8069L36.0093 21.8369C35.909 21.3257 36.1474 20.807 36.6019 20.5508C37.0552 20.294 37.6238 20.3582 38.0084 20.7101C39.3255 21.9086 40.3473 23.3421 41.0466 24.9697L57.9068 64.3081C58.0328 64.6027 58.038 64.9351 57.9188 65.2331C57.7996 65.5306 57.5669 65.769 57.2723 65.8945L24.5761 79.9028C24.4254 79.9687 24.2626 80.0008 24.1004 80.0008L24.1009 80ZM21.5332 69.723L24.7359 77.2053L55.2092 64.1486L39.6666 27.8826L46.7008 63.525C46.8292 64.1795 46.4033 64.8146 45.7488 64.9441L21.5332 69.723Z" fill="black"/>
<path d="M10.6204 71.8552C10.382 71.8552 10.1481 71.7847 9.94755 71.6506C9.68103 71.4724 9.49706 71.195 9.43401 70.8809L1.15727 28.8912C0.516489 25.6695 1.17274 22.3883 3.00394 19.6544C4.83742 16.9159 7.62577 15.0584 10.8567 14.4228L15.3535 13.5401C15.961 13.4215 16.5726 13.7883 16.7468 14.3907C17.536 17.1252 18.3694 18.6343 18.864 19.2372C19.087 18.4732 19.2795 16.7531 18.9867 13.9322C18.9231 13.3109 19.3432 12.7429 19.9553 12.6225L23.9427 11.8373C30.5069 10.5478 36.9736 14.8142 38.3716 21.3486L46.7012 63.5261C46.7625 63.8408 46.6977 64.1669 46.5195 64.4328C46.3401 64.6994 46.0638 64.8833 45.7492 64.9458L10.8536 71.8328C10.7774 71.8471 10.6983 71.8546 10.6204 71.8546L10.6204 71.8552ZM14.7504 16.1218L11.3237 16.7947C8.72796 17.3053 6.48571 18.7989 5.01156 20.9998C3.54035 23.1973 3.01361 25.8331 3.52832 28.4232L11.5712 69.2274L44.0971 62.8087L36.006 21.8358C34.8838 16.6013 29.6739 13.1682 24.4114 14.2085L21.4883 14.7839C21.6969 17.7076 21.513 20.9194 19.8726 21.7402C19.7367 21.8084 19.5894 21.8496 19.4381 21.8634C19.3401 21.872 19.2421 21.88 19.143 21.8978C19.0238 21.919 18.9011 21.9224 18.7796 21.9064C16.9765 21.6748 15.6325 18.8338 14.751 16.121L14.7504 16.1218Z" fill="black"/>
<path d="M17.1099 59.5202C16.5447 59.5202 16.0398 59.1213 15.9252 58.5459C15.7968 57.8908 16.2226 57.2557 16.8772 57.1262L34.5957 53.6295C35.2496 53.4971 35.8852 53.9263 36.0153 54.5803C36.1437 55.2354 35.7179 55.8705 35.0633 56L17.3449 59.4967C17.2658 59.5134 17.1878 59.5202 17.1099 59.5202V59.5202Z" fill="black"/>
<path d="M15.8696 52.9987C15.4219 52.9987 15.0213 52.6822 14.9302 52.2253C14.8286 51.7062 15.1663 51.2027 15.6853 51.0999C15.6854 51.0999 15.6854 51.0999 15.6855 51.0999L33.4053 47.6038L33.4053 47.6038L33.4075 47.6033C33.9178 47.4978 34.4275 47.837 34.5313 48.3582C34.633 48.8774 34.2952 49.381 33.776 49.4838L16.0562 52.9799L16.0549 52.9802C15.9941 52.9925 15.9341 52.9984 15.8737 52.9987H15.8696Z" fill="black" stroke="white" stroke-width="0.5"/>
<path d="M15.8696 53.2487C15.3045 53.2487 14.7996 52.8497 14.6849 52.2737C14.5566 51.6192 14.9824 50.9842 15.6369 50.8546L33.3569 47.3585C34.0057 47.2244 34.6465 47.6548 34.7766 48.3099C34.905 48.9644 34.4791 49.5995 33.8246 49.729L16.1046 53.2252C16.0255 53.2412 15.9476 53.2487 15.8696 53.2487V53.2487Z" fill="black"/>
<path d="M19.6041 29.0505C17.3528 29.0505 15.3302 27.4641 14.8746 25.1863C14.6247 23.9202 14.8803 22.637 15.5967 21.5714C16.2977 20.5295 17.3574 19.8137 18.5869 19.5506C18.6316 19.5369 18.678 19.526 18.725 19.5174C18.8923 19.4881 19.0591 19.4709 19.2276 19.456C21.6457 19.2812 23.8335 20.9314 24.3119 23.3087C24.5618 24.5691 24.3074 25.8488 23.5932 26.9161C22.8768 27.9856 21.7867 28.7123 20.5217 28.9616C20.5205 28.9622 20.5182 28.9622 20.5171 28.9628C20.2105 29.0224 19.905 29.0504 19.6041 29.0504L19.6041 29.0505ZM20.2884 27.7769H20.3005H20.2884ZM19.1324 21.905V21.9056C18.5025 22.0299 17.9598 22.3905 17.6033 22.92C17.2479 23.4485 17.1207 24.0864 17.2456 24.7151C17.5007 25.9955 18.7667 26.8369 20.0574 26.591C20.6862 26.466 21.229 26.1044 21.5854 25.5725C21.9396 25.0423 22.0669 24.4073 21.9431 23.7838C21.7047 22.6019 20.6111 21.7795 19.4235 21.8649C19.3588 21.8706 19.2831 21.8775 19.2063 21.8878C19.1817 21.8947 19.157 21.9004 19.1324 21.905L19.1324 21.905Z" fill="black"/>
<path d="M18.9331 21.9169C18.8821 21.9169 18.8305 21.914 18.7795 21.9077C16.7379 21.6469 15.2845 18.0412 14.4253 15.0633C14.1198 14.0351 13.8412 12.8957 13.6028 11.688C13.0703 8.98565 12.8336 6.3807 12.9351 4.35414C12.9844 3.3798 13.1345 0.414869 15.0746 0.0332381C18.5416 -0.615564 20.5074 8.42751 20.8685 10.2529C21.1023 11.4336 21.2789 12.5885 21.3923 13.6855C21.719 16.8498 21.7213 20.8161 19.8724 21.7416C19.7366 21.8098 19.5893 21.8511 19.438 21.8648C19.34 21.8734 19.242 21.8815 19.1428 21.8992C19.0735 21.9107 19.0035 21.917 18.933 21.917L18.9331 21.9169ZM19.332 20.6605H19.344H19.332ZM15.5997 2.68149C15.2644 3.78192 15.0993 6.78641 15.9751 11.2196C16.198 12.3532 16.4577 13.4175 16.7443 14.3832C17.5358 17.1257 18.3703 18.6353 18.8649 19.2389C19.0878 18.4749 19.2804 16.7549 18.9875 13.934C18.8826 12.9115 18.7176 11.8305 18.4981 10.7214C17.6206 6.28065 16.3276 3.56741 15.5997 2.68134L15.5997 2.68149Z" fill="black"/>
<path d="M19.0606 21.9348C18.8778 21.9348 18.7116 21.9078 18.5557 21.8557C18.0295 21.682 17.6897 21.1736 17.7298 20.6217C17.7687 20.0692 18.1791 19.6153 18.7247 19.5184C18.8921 19.4892 19.0589 19.472 19.2274 19.4571C19.8103 19.4095 20.3697 19.7964 20.5089 20.3793C20.6482 20.9616 20.3404 21.5588 19.7845 21.7817L19.334 20.6607L19.7621 21.7909C19.6441 21.8396 19.5357 21.878 19.4079 21.9044C19.2859 21.9245 19.1707 21.9348 19.0606 21.9348V21.9348ZM19.064 20.0956L19.1065 20.1867L19.3128 19.562C19.2314 19.5345 19.1042 19.5064 18.9718 19.5282L19.064 20.0956Z" fill="black"/>
</g>
<defs>
<filter id="filter0_d_2698_26946" x="0.917969" y="0" width="59.0859" height="82" filterUnits="userSpaceOnUse" color-interpolation-filters="sRGB">
<feFlood flood-opacity="0" result="BackgroundImageFix"/>
<feColorMatrix in="SourceAlpha" type="matrix" values="0 0 0 0 0 0 0 0 0 0 0 0 0 0 0 0 0 0 127 0" result="hardAlpha"/>
<feOffset dx="2" dy="2"/>
<feComposite in2="hardAlpha" operator="out"/>
<feColorMatrix type="matrix" values="0 0 0 0 0 0 0 0 0 0.639216 0 0 0 0 1 0 0 0 0.5 0"/>
<feBlend mode="normal" in2="BackgroundImageFix" result="effect1_dropShadow_2698_26946"/>
<feBlend mode="normal" in="SourceGraphic" in2="effect1_dropShadow_2698_26946" result="shape"/>
</filter>
</defs>
</svg>
