<svg width="44" height="83" viewBox="0 0 44 83" fill="none" xmlns="http://www.w3.org/2000/svg">
<g filter="url(#filter0_d_2698_26934)">
<path d="M37.027 1.95521H36.158C35.9668 1.95521 35.8519 2.16943 35.9582 2.32879C36.0038 2.39577 36.0765 2.43619 36.158 2.43619H37.0789L36.5518 3.03092C36.464 3.12966 36.4732 3.28094 36.5725 3.36871C36.6713 3.45648 36.8226 3.44724 36.9103 3.34792L37.7713 2.37729C37.8613 2.28549 37.8631 2.13824 37.7736 2.04471L36.8947 1.12315C36.8035 1.0273 36.6517 1.02326 36.5558 1.11449C36.4599 1.20572 36.4559 1.35758 36.5471 1.45344L37.0264 1.95636L37.027 1.95521ZM11.9882 6.89615C19.1377 6.19344 27.4321 6.23791 34.585 6.91232C35.1012 6.77778 35.5499 6.62881 35.9183 6.46541C37.0177 5.97634 36.9149 5.6582 35.8842 5.46995C30.1124 4.4156 15.7988 4.28048 10.1669 5.53116C9.42843 5.69514 9.23615 5.87471 10.1323 6.30142C10.5942 6.52141 11.2253 6.72004 11.9881 6.89557L11.9882 6.89615ZM32.9472 7.25473C26.6928 6.78644 19.9901 6.7593 13.7339 7.22643C19.3216 8.09947 27.3798 8.19764 32.9472 7.25473ZM10.238 8.92107C10.2236 9.05272 10.1052 9.14741 9.97357 9.13298C9.84193 9.11855 9.74724 9.00018 9.76166 8.86852L9.89505 7.68021C9.90948 7.54856 10.0279 7.45387 10.1595 7.4683C10.2912 7.48273 10.3858 7.6011 10.3714 7.73276L10.238 8.92107ZM18.8859 10.6055C18.8796 10.7377 18.7676 10.8399 18.6353 10.8335C18.5031 10.8272 18.4009 10.7152 18.4073 10.5829L18.4754 9.22949C18.4817 9.09727 18.5938 8.99507 18.726 9.00141C18.8582 9.00776 18.9604 9.11978 18.9541 9.25201L18.8859 10.6055ZM36.6447 8.8686C36.6591 9.00025 36.5644 9.11862 36.4328 9.13306C36.3011 9.14749 36.1828 9.0528 36.1683 8.92115L36.035 7.73283C36.0205 7.60118 36.1152 7.48281 36.2469 7.46837C36.3785 7.45393 36.4969 7.54863 36.5113 7.68028L36.6447 8.8686ZM28.4311 10.583C28.4374 10.7152 28.3352 10.8272 28.203 10.8336C28.0708 10.8399 27.9588 10.7377 27.9524 10.6055L27.8843 9.25205C27.8779 9.11982 27.9801 9.00781 28.1124 9.00146C28.2446 8.9951 28.3566 9.09731 28.363 9.22954L28.4311 10.583ZM3.39232 5.08255C3.62098 5.29967 3.29012 5.64726 3.06204 5.42958L2.51118 4.90471V5.40014C2.51118 5.7131 2.03078 5.72003 2.03078 5.40014V4.94052L1.48397 5.42496C1.24838 5.63341 0.931385 5.27483 1.16698 5.06638L2.1376 4.20547C2.22941 4.11539 2.37665 4.11366 2.47019 4.20316L3.39175 5.08197L3.39232 5.08255ZM3.06204 79.0754C3.2907 78.8583 3.62097 79.2054 3.39232 79.4225L2.47077 80.3013C2.37723 80.3908 2.22999 80.3891 2.13818 80.299L1.16755 79.4381C0.931963 79.2296 1.24955 78.8711 1.48455 79.0795L2.04464 79.5761V78.919C2.04464 78.606 2.52505 78.5991 2.52505 78.919V79.5876L3.06204 79.0754ZM24.0181 79.0754C24.2468 78.8583 24.577 79.2054 24.3484 79.4225L23.4268 80.3013C23.3333 80.3908 23.186 80.3891 23.0942 80.299L22.1236 79.4381C21.888 79.2296 22.2056 78.8711 22.4406 79.0795L23.007 79.5818V78.647C23.007 78.3346 23.4874 78.3271 23.4874 78.647V79.5813L24.0181 79.0754ZM24.3484 28.6771C24.577 28.8943 24.2462 29.2419 24.0181 29.0242L23.4892 28.5201V29.1541C23.4892 29.4665 23.0088 29.474 23.0088 29.1541V28.5155L22.44 29.0196C22.2044 29.228 21.8874 28.8694 22.123 28.661L23.0937 27.8001C23.1855 27.71 23.3327 27.7083 23.4263 27.7978L24.3478 28.6766L24.3484 28.6771ZM24.0181 24.0487C24.1139 23.9575 24.2658 23.9615 24.357 24.0574C24.4483 24.1532 24.4442 24.3051 24.3484 24.3963L23.4268 25.2751C23.3333 25.3646 23.186 25.3629 23.0942 25.2728L22.1236 24.4119C22.0249 24.3241 22.0156 24.1728 22.1028 24.0741C22.1906 23.9754 22.3419 23.9661 22.4406 24.0533L23.0071 24.5557V23.8888C23.0071 23.7594 23.1098 23.6526 23.2397 23.6485C23.3754 23.6445 23.4875 23.7531 23.4875 23.8888V24.5551L24.0181 24.0493L24.0181 24.0487ZM24.3484 10.0158C24.577 10.2329 24.2462 10.5805 24.0181 10.3628L23.4892 9.85875V10.7376C23.4892 11.0534 23.0088 11.054 23.0088 10.7376V9.85413L22.44 10.3582C22.2044 10.5667 21.8874 10.2081 22.123 9.99964L23.0937 9.13872C23.1855 9.04864 23.3327 9.04691 23.4263 9.13641L24.3478 10.0152L24.3484 10.0158ZM36.1801 16.3235C36.2633 16.3021 36.2586 16.1814 36.1726 16.167C36.1611 16.1653 36.1512 16.1658 36.1403 16.1687C36.0375 16.1953 35.9341 16.2207 35.8308 16.2455C35.7436 16.268 35.7522 16.391 35.8394 16.4031C35.8498 16.4043 35.8579 16.4037 35.8677 16.4014C35.9722 16.3766 36.0762 16.3506 36.1801 16.324V16.3235ZM28.194 13.9433C28.149 13.8503 28.0034 13.9168 28.0502 14.0143C28.0976 14.1119 28.1478 14.2078 28.2009 14.3025C28.2535 14.3937 28.3926 14.3146 28.3401 14.2234C28.2887 14.1315 28.2402 14.038 28.194 13.9433L28.194 13.9433ZM28.5901 14.6247C28.5277 14.5392 28.4007 14.6293 28.4584 14.7159C28.5197 14.8048 28.5849 14.8932 28.653 14.9775C28.7177 15.0583 28.8447 14.9607 28.7778 14.877C28.7304 14.8181 28.6854 14.7575 28.6409 14.6962C28.6242 14.6726 28.6068 14.6483 28.5901 14.6246V14.6247ZM29.0913 15.2298C29.0156 15.1542 28.9042 15.2691 28.9781 15.343C29.0549 15.4203 29.134 15.4942 29.216 15.5658C29.2974 15.6346 29.4002 15.5139 29.3211 15.4446C29.242 15.3753 29.1658 15.3043 29.0919 15.2292L29.0913 15.2298ZM29.6929 15.7345C29.6335 15.6946 29.5573 15.7443 29.5688 15.8147C29.5734 15.8361 29.5838 15.8546 29.6023 15.8667C29.6929 15.9296 29.7836 15.9845 29.8771 16.0422C29.9545 16.0867 30.0359 15.9903 29.9782 15.921C29.9724 15.914 29.9655 15.9083 29.958 15.9042C29.8708 15.8465 29.7807 15.7957 29.6929 15.735V15.7345ZM29.6023 15.8667L29.8771 16.0422L29.9574 15.9036L29.6023 15.8667ZM30.3766 16.1213C30.2917 16.0844 30.2219 16.1947 30.2923 16.2559C30.2981 16.2605 30.3044 16.2645 30.3114 16.2674C30.4107 16.3125 30.51 16.354 30.6116 16.3921C30.6405 16.4025 30.6728 16.3962 30.6953 16.3748C30.7375 16.3344 30.723 16.2622 30.6682 16.242C30.5695 16.2045 30.473 16.1646 30.3772 16.1208L30.3766 16.1213ZM31.1174 16.3892C31.025 16.3656 30.9748 16.492 31.0597 16.5376C31.0649 16.54 31.0695 16.5417 31.0747 16.5434C31.1792 16.5723 31.2843 16.5983 31.39 16.6214C31.4217 16.6283 31.4546 16.615 31.4731 16.5885C31.5049 16.5417 31.4795 16.477 31.424 16.4649C31.3212 16.4424 31.219 16.417 31.1174 16.3892V16.3892ZM31.8912 16.5486C31.8542 16.544 31.819 16.5642 31.8057 16.5994C31.7878 16.6468 31.8184 16.701 31.8698 16.7074C31.9766 16.7224 32.084 16.7351 32.1914 16.7449C32.2653 16.7519 32.308 16.6612 32.2555 16.6087C32.2411 16.5954 32.2255 16.5873 32.2058 16.5856C32.1008 16.5758 31.9957 16.563 31.8912 16.5486ZM32.6805 16.6156C32.5933 16.6127 32.5644 16.734 32.6476 16.7698C32.6568 16.7732 32.6655 16.7755 32.6753 16.7755C32.7827 16.779 32.8906 16.7807 32.9986 16.7802C33.0321 16.7802 33.0627 16.7582 33.0737 16.7265C33.0916 16.6739 33.0535 16.6196 32.9975 16.6196C32.8918 16.6202 32.7856 16.6185 32.6805 16.615L32.6805 16.6156ZM33.4738 16.6058C33.4409 16.6081 33.4132 16.6289 33.4028 16.6595C33.3843 16.7132 33.4265 16.7692 33.4831 16.7657C33.5905 16.7599 33.6979 16.7524 33.8047 16.7432C33.8925 16.7351 33.9057 16.6127 33.8203 16.5867C33.8105 16.5838 33.8012 16.5827 33.7908 16.5838C33.6852 16.5925 33.5795 16.6 33.4733 16.6058H33.4738ZM34.2655 16.5336C34.1881 16.5434 34.169 16.6479 34.2389 16.6843C34.2539 16.6918 34.2684 16.6947 34.2857 16.6924C34.3925 16.6791 34.4987 16.6641 34.605 16.6479C34.6443 16.6416 34.6731 16.6087 34.6731 16.5688C34.6731 16.5197 34.6292 16.4816 34.5807 16.4897C34.4757 16.5053 34.3706 16.5203 34.2655 16.5336L34.2655 16.5336ZM35.0519 16.4106C35.0167 16.417 34.9907 16.4464 34.9872 16.4816C34.982 16.5348 35.0294 16.5781 35.0819 16.5682C35.1876 16.5486 35.2927 16.5278 35.3978 16.5059C35.4832 16.4874 35.4821 16.3661 35.3966 16.3488C35.3862 16.3471 35.3758 16.3471 35.3654 16.3494C35.2615 16.3708 35.157 16.3916 35.0525 16.4112L35.0519 16.4106ZM9.95844 1.07457C10.0497 0.978716 10.2015 0.974675 10.2974 1.06591C10.3932 1.15714 10.3973 1.30899 10.3061 1.40485L9.78291 1.95339H10.6935C10.7749 1.95339 10.8477 1.99323 10.8933 2.06078C10.9995 2.22015 10.8846 2.43436 10.6935 2.43436H9.81525L10.3014 2.9829C10.3892 3.08164 10.38 3.23292 10.2807 3.32069C10.1819 3.40846 10.0306 3.39922 9.94286 3.2999L9.08194 2.32928C8.99187 2.23747 8.99014 2.09023 9.07963 1.99669L9.95845 1.07514L9.95844 1.07457ZM29.355 33.1302C29.5721 32.9016 29.9197 33.2324 29.7021 33.4605L29.1986 33.9883H30.1213C30.3043 33.9883 30.4204 34.1857 30.3309 34.3457C30.2887 34.4219 30.2079 34.4687 30.1207 34.4687H29.1922L29.6969 35.038C29.9053 35.2736 29.5468 35.5906 29.3383 35.355L28.4774 34.3844C28.3873 34.2926 28.3856 34.1453 28.4751 34.0518L29.3539 33.1302L29.355 33.1302ZM36.8065 33.4767C36.5894 33.248 36.9364 32.9178 37.1535 33.1464L38.0323 34.0679C38.1218 34.1615 38.1201 34.3087 38.03 34.4005L37.1691 35.3712C36.9607 35.6068 36.6021 35.2892 36.8105 35.0542L37.3279 34.471H36.3688C36.0495 34.471 36.0559 33.9906 36.3688 33.9906H37.2967L36.8071 33.4767H36.8065ZM9.9821 19.6391C10.0716 19.5415 10.2235 19.5351 10.321 19.6252C10.4186 19.7147 10.425 19.8666 10.3349 19.9641L9.85161 20.4907L10.6935 20.4902C10.7616 20.4902 10.8257 20.5185 10.8713 20.5687C11.011 20.7223 10.9013 20.9706 10.6935 20.9706L9.87644 20.9712L10.3678 21.5168C10.4562 21.6155 10.4487 21.7668 10.3499 21.8558C10.2512 21.9441 10.0999 21.9366 10.011 21.8379L9.14197 20.8742C9.05997 20.7829 9.0594 20.6432 9.1437 20.5514L9.98095 19.6402L9.9821 19.6391ZM36.5508 19.9561C36.4595 19.8602 36.4636 19.7083 36.5594 19.6171C36.6553 19.5259 36.8071 19.5299 36.8984 19.6258L37.7772 20.5473C37.8667 20.6409 37.865 20.7887 37.7749 20.8799L36.914 21.8505C36.8262 21.9493 36.6749 21.9585 36.5762 21.8713C36.4774 21.7836 36.4682 21.6323 36.5554 21.5335L37.067 20.9567L36.1616 20.9573C36.0935 20.9573 36.0294 20.929 35.9837 20.8788C35.844 20.7252 35.9537 20.4769 36.1616 20.4769L37.0473 20.4763L36.5513 19.956L36.5508 19.9561ZM31.5643 33.9889C31.2513 33.9889 31.2444 34.4693 31.5643 34.4693H32.5251C32.8381 34.4693 32.845 33.9889 32.5251 33.9889H31.5643ZM33.9669 33.9895C33.654 33.9895 33.647 34.4699 33.9669 34.4699H34.9277C35.2407 34.4699 35.2476 33.9895 34.9277 33.9895H33.9669ZM12.1358 20.4885C11.9279 20.4885 11.8182 20.7368 11.958 20.8904C12.0036 20.9406 12.0677 20.9689 12.1358 20.9689L13.0966 20.9683C13.3045 20.9683 13.4142 20.72 13.2744 20.5664C13.2288 20.5162 13.1647 20.4879 13.0966 20.4879L12.1358 20.4885ZM14.5384 20.4873C14.3306 20.4873 14.2208 20.7356 14.3606 20.8892C14.4062 20.9394 14.4703 20.9677 14.5384 20.9677L15.4992 20.9672C15.7071 20.9672 15.8168 20.7189 15.6771 20.5653C15.6315 20.515 15.5674 20.4867 15.4992 20.4867L14.5384 20.4873ZM16.941 20.4862C16.7332 20.4862 16.6235 20.7345 16.7632 20.8881C16.8088 20.9383 16.8729 20.9666 16.941 20.9666L17.9018 20.966C18.1097 20.966 18.2194 20.7177 18.0797 20.5641C18.0341 20.5139 17.97 20.4856 17.9018 20.4856L16.941 20.4862ZM19.3437 20.485C19.1358 20.485 19.0261 20.7333 19.1658 20.8869C19.2114 20.9371 19.2755 20.9654 19.3437 20.9654L20.3045 20.9648C20.5123 20.9648 20.622 20.7166 20.4823 20.563C20.4367 20.5127 20.3726 20.4844 20.3045 20.4844L19.3437 20.485ZM21.7463 20.4839C21.5384 20.4839 21.4287 20.7321 21.5684 20.8857C21.6141 20.936 21.6782 20.9643 21.7463 20.9643L22.7071 20.9637C22.915 20.9637 23.0247 20.7154 22.8849 20.5618C22.8393 20.5116 22.7752 20.4833 22.7071 20.4833L21.7463 20.4839ZM24.1489 20.4827C23.941 20.4827 23.8313 20.731 23.9711 20.8846C24.0167 20.9348 24.0808 20.9631 24.1489 20.9631L25.1097 20.9625C25.3176 20.9625 25.4273 20.7142 25.2876 20.5607C25.2419 20.5104 25.1778 20.4821 25.1097 20.4821L24.1489 20.4827ZM26.5515 20.4815C26.3437 20.4815 26.234 20.7298 26.3737 20.8834C26.4193 20.9337 26.4834 20.962 26.5515 20.962L27.5123 20.9614C27.7202 20.9614 27.8299 20.7131 27.6902 20.5595C27.6446 20.5093 27.5805 20.481 27.5123 20.481L26.5515 20.4815ZM28.9541 20.4804C28.7463 20.4804 28.6366 20.7287 28.7763 20.8823C28.8219 20.9325 28.886 20.9608 28.9541 20.9608L29.915 20.9602C30.1228 20.9602 30.2325 20.7119 30.0928 20.5583C30.0472 20.5081 29.9831 20.4798 29.915 20.4798L28.9541 20.4804ZM31.3568 20.4792C31.1489 20.4792 31.0392 20.7275 31.1789 20.8811C31.2245 20.9314 31.2886 20.9597 31.3568 20.9597L32.3176 20.9591C32.5254 20.9591 32.6352 20.7108 32.4954 20.5572C32.4498 20.507 32.3857 20.4787 32.3176 20.4787L31.3568 20.4792ZM33.7594 20.4781C33.5515 20.4781 33.4418 20.7264 33.5816 20.88C33.6272 20.9302 33.6913 20.9585 33.7594 20.9585L34.7202 20.9579C34.9281 20.9579 35.0378 20.7096 34.898 20.556C34.8524 20.5058 34.7883 20.4775 34.7202 20.4775L33.7594 20.4781ZM2.51525 6.84135C2.51525 6.52146 2.03485 6.52839 2.03485 6.84135V7.80216C2.03485 8.12205 2.51525 8.11512 2.51525 7.80216V6.84135ZM2.51583 9.24397C2.51583 8.92408 2.03542 8.93101 2.03542 9.24397V10.2048C2.03542 10.5247 2.51583 10.5177 2.51583 10.2048V9.24397ZM2.51641 11.6466C2.51641 11.3267 2.036 11.3336 2.036 11.6466V12.6074C2.036 12.9273 2.51641 12.9204 2.51641 12.6074V11.6466ZM2.51698 14.0492C2.51698 13.7293 2.03658 13.7363 2.03658 14.0492V15.01C2.03658 15.3299 2.51698 15.323 2.51698 15.01V14.0492ZM2.51756 16.4518C2.51756 16.1319 2.03716 16.1389 2.03716 16.4518V17.4126C2.03716 17.7325 2.51756 17.7256 2.51756 17.4126V16.4518ZM2.51814 18.8545C2.51814 18.5346 2.03773 18.5415 2.03773 18.8545V19.8153C2.03773 20.1352 2.51814 20.1282 2.51814 19.8153V18.8545ZM2.51872 21.2571C2.51872 20.9372 2.03831 20.9441 2.03831 21.2571V22.2179C2.03831 22.5378 2.51872 22.5309 2.51872 22.2179V21.2571ZM2.51929 23.6597C2.51929 23.3398 2.03889 23.3467 2.03889 23.6597V24.6205C2.03889 24.9404 2.51929 24.9335 2.51929 24.6205V23.6597ZM2.51987 26.0623C2.51987 25.7424 2.03946 25.7494 2.03946 26.0623V27.0231C2.03946 27.343 2.51987 27.3361 2.51987 27.0231V26.0623ZM2.52045 28.4649C2.52045 28.1451 2.04004 28.152 2.04004 28.4649V29.4258C2.04004 29.7456 2.52045 29.7387 2.52045 29.4258V28.4649ZM2.52103 30.8676C2.52103 30.5477 2.04062 30.5546 2.04062 30.8676V31.8284C2.04062 32.1483 2.52103 32.1413 2.52103 31.8284V30.8676ZM2.5216 33.2702C2.5216 32.9503 2.0412 32.9572 2.0412 33.2702V34.231C2.0412 34.5509 2.5216 34.544 2.5216 34.231V33.2702ZM2.52218 35.6728C2.52218 35.3529 2.04177 35.3599 2.04177 35.6728V36.6336C2.04177 36.9535 2.52218 36.9466 2.52218 36.6336V35.6728ZM2.52276 38.0754C2.52276 37.7555 2.04235 37.7625 2.04235 38.0754V39.0363C2.04235 39.3561 2.52276 39.3492 2.52276 39.0363V38.0754ZM2.52334 40.4781C2.52334 40.1582 2.04293 40.1651 2.04293 40.4781V41.4389C2.04293 41.7588 2.52334 41.7518 2.52334 41.4389V40.4781ZM2.52391 42.8807C2.52391 42.5608 2.04351 42.5677 2.04351 42.8807V43.8415C2.04351 44.1614 2.52391 44.1545 2.52391 43.8415V42.8807ZM2.52449 45.2833C2.52449 44.9634 2.04408 44.9703 2.04408 45.2833V46.2441C2.04408 46.564 2.52449 46.5571 2.52449 46.2441V45.2833ZM2.52507 47.6859C2.52507 47.366 2.04466 47.373 2.04466 47.6859V48.6467C2.04466 48.9666 2.52507 48.9597 2.52507 48.6467V47.6859ZM2.52565 50.0885C2.52565 49.7687 2.04524 49.7756 2.04524 50.0885V51.0494C2.04524 51.3693 2.52565 51.3623 2.52565 51.0494V50.0885ZM2.52622 52.4912C2.52622 52.1713 2.04582 52.1782 2.04582 52.4912V53.452C2.04582 53.7719 2.52622 53.7649 2.52622 53.452V52.4912ZM2.5268 54.8938C2.5268 54.5739 2.04639 54.5808 2.04639 54.8938V55.8546C2.04639 56.1745 2.5268 56.1676 2.5268 55.8546V54.8938ZM2.52738 57.2964C2.52738 56.9765 2.04697 56.9835 2.04697 57.2964V58.2572C2.04697 58.5771 2.52738 58.5702 2.52738 58.2572V57.2964ZM2.52795 59.699C2.52795 59.3791 2.04755 59.3861 2.04755 59.699V60.6598C2.04755 60.9797 2.52795 60.9728 2.52795 60.6598V59.699ZM2.52853 62.1017C2.52853 61.7818 2.04813 61.7887 2.04813 62.1017V63.0625C2.04813 63.3824 2.52853 63.3754 2.52853 63.0625V62.1017ZM2.52911 64.5043C2.52911 64.1844 2.0487 64.1913 2.0487 64.5043V65.4651C2.0487 65.785 2.52911 65.778 2.52911 65.4651V64.5043ZM2.52969 66.9069C2.52969 66.587 2.04928 66.5939 2.04928 66.9069V67.8677C2.04928 68.1876 2.52969 68.1807 2.52969 67.8677V66.9069ZM2.53026 69.3095C2.53026 68.9896 2.04986 68.9966 2.04986 69.3095V70.2703C2.04986 70.5902 2.53026 70.5833 2.53026 70.2703V69.3095ZM2.53084 71.7122C2.53084 71.3923 2.05044 71.3992 2.05044 71.7122V72.673C2.05044 72.9929 2.53084 72.9859 2.53084 72.673V71.7122ZM2.53142 74.1148C2.53142 73.7949 2.05101 73.8018 2.05101 74.1148V75.0756C2.05101 75.3955 2.53142 75.3885 2.53142 75.0756V74.1148ZM2.532 76.5174C2.532 76.1975 2.05159 76.2044 2.05159 76.5174V77.4782C2.05159 77.7981 2.532 77.7912 2.532 77.4782V76.5174ZM23.4954 30.5965C23.4954 30.2766 23.015 30.2841 23.015 30.5965V31.5573C23.015 31.8772 23.4954 31.8697 23.4954 31.5573V30.5965ZM23.4954 32.9991C23.4954 32.6792 23.015 32.6867 23.015 32.9991V33.9599C23.015 34.151 23.2293 34.2659 23.3886 34.1597C23.4556 34.1141 23.496 34.0413 23.496 33.9599V32.9991H23.4954ZM23.4954 35.4017C23.4954 35.2106 23.2812 35.0957 23.1219 35.2019C23.0549 35.2475 23.0145 35.3203 23.0145 35.4017V36.3625C23.0145 36.5537 23.2287 36.6686 23.388 36.5623C23.455 36.5167 23.4954 36.444 23.4954 36.3625V35.4017ZM23.4954 37.8043C23.4954 37.6132 23.2812 37.4983 23.1219 37.6045C23.0549 37.6502 23.0145 37.7229 23.0145 37.8043V38.7652C23.0145 38.9563 23.2287 39.0712 23.388 38.9649C23.455 38.9193 23.4954 38.8466 23.4954 38.7652V37.8043ZM23.4954 40.207C23.4954 40.0158 23.2812 39.9009 23.1219 40.0072C23.0549 40.0528 23.0145 40.1255 23.0145 40.207V41.1678C23.0145 41.3589 23.2287 41.4738 23.388 41.3676C23.455 41.3219 23.4954 41.2492 23.4954 41.1678V40.207ZM23.4954 42.6096C23.4954 42.4185 23.2812 42.3036 23.1219 42.4098C23.0549 42.4554 23.0145 42.5282 23.0145 42.6096V43.5704C23.0145 43.8903 23.4949 43.8828 23.4949 43.5704V42.6096H23.4954ZM23.4954 45.0122C23.4954 44.6923 23.015 44.6998 23.015 45.0122V45.973C23.015 46.2929 23.4954 46.2854 23.4954 45.973V45.0122ZM23.4954 47.4148C23.4954 47.0949 23.015 47.1024 23.015 47.4148V48.3756C23.015 48.6955 23.4954 48.688 23.4954 48.3756V47.4148ZM23.4954 49.8174C23.4954 49.4976 23.015 49.5051 23.015 49.8174V50.7783C23.015 51.0982 23.4954 51.0906 23.4954 50.7783V49.8174ZM23.4954 52.2201C23.4954 51.9002 23.015 51.9077 23.015 52.2201V53.1809C23.015 53.5008 23.4954 53.4933 23.4954 53.1809V52.2201ZM23.4954 54.6227C23.4954 54.3028 23.015 54.3103 23.015 54.6227V55.5835C23.015 55.9034 23.4954 55.8959 23.4954 55.5835V54.6227ZM23.4954 57.0253C23.4954 56.8342 23.2812 56.7193 23.1219 56.8255C23.0549 56.8711 23.0145 56.9439 23.0145 57.0253V57.9861C23.0145 58.306 23.4949 58.2985 23.4949 57.9861V57.0253H23.4954ZM23.4954 59.4279C23.4954 59.108 23.015 59.1156 23.015 59.4279V60.3888C23.015 60.7086 23.4954 60.7011 23.4954 60.3888V59.4279ZM23.4954 61.8306C23.4954 61.5107 23.015 61.5182 23.015 61.8306V62.7914C23.015 63.1113 23.4954 63.1038 23.4954 62.7914V61.8306ZM23.4954 64.2332C23.4954 63.9133 23.015 63.9208 23.015 64.2332V65.194C23.015 65.5139 23.4954 65.5064 23.4954 65.194V64.2332ZM23.4954 66.6358C23.4954 66.3159 23.015 66.3234 23.015 66.6358V67.5966C23.015 67.9165 23.4954 67.909 23.4954 67.5966V66.6358ZM23.4954 69.0384C23.4954 68.7185 23.015 68.726 23.015 69.0384V69.9992C23.015 70.3191 23.4954 70.3116 23.4954 69.9992V69.0384ZM23.4954 71.441C23.4954 71.1212 23.015 71.1287 23.015 71.441V72.4019C23.015 72.7217 23.4954 72.7142 23.4954 72.4019V71.441ZM23.4954 73.8437C23.4954 73.5238 23.015 73.5313 23.015 73.8437V74.8045C23.015 75.1244 23.4954 75.1169 23.4954 74.8045V73.8437ZM23.4954 76.2463C23.4954 75.9264 23.015 75.9339 23.015 76.2463V77.2071C23.015 77.527 23.4954 77.5195 23.4954 77.2071V76.2463ZM9.84141 15.653C9.71323 15.6201 9.63643 15.489 9.66991 15.3614C9.70283 15.2332 9.8339 15.1565 9.96209 15.1899C11.5084 15.5947 13.1765 15.8551 14.5877 15.5474C15.9602 15.2483 17.0977 14.3972 17.6434 12.5841C17.6815 12.457 17.8149 12.3848 17.9419 12.4224C18.069 12.4605 18.1411 12.5939 18.1036 12.7209C17.4979 14.7349 16.2265 15.6812 14.6899 16.0168C13.1921 16.3436 11.4501 16.0745 9.84255 15.6536L9.84141 15.653ZM23.4972 11.8773C23.4972 11.5609 23.0168 11.5615 23.0168 11.8773V12.8381C23.0168 13.1546 23.4972 13.154 23.4972 12.8381V11.8773ZM23.4966 14.28C23.4966 13.9635 23.0162 13.9641 23.0162 14.28V15.2408C23.0162 15.5572 23.4966 15.5566 23.4966 15.2408V14.28ZM23.4961 16.6826C23.4961 16.5469 23.384 16.4383 23.2483 16.4424C23.119 16.4464 23.0157 16.5527 23.0157 16.6826V17.6434C23.0157 17.7791 23.1277 17.8876 23.2634 17.8836C23.3927 17.8796 23.4961 17.7733 23.4961 17.6434V16.6826ZM23.4955 19.0852C23.4955 18.9495 23.3835 18.841 23.2478 18.845C23.1184 18.849 23.0151 18.9553 23.0151 19.0852V20.046C23.0151 20.1817 23.1271 20.2903 23.2628 20.2862C23.3921 20.2822 23.4955 20.1759 23.4955 20.046V19.0852ZM23.4949 21.4878C23.4949 21.3521 23.3829 21.2436 23.2472 21.2476C23.1179 21.2517 23.0145 21.3579 23.0145 21.4878V22.4486C23.0145 22.5843 23.1265 22.6929 23.2622 22.6888C23.3916 22.6848 23.4949 22.5786 23.4949 22.4486V21.4878ZM37.6514 5.38904C37.7859 5.64484 37.7657 5.96819 37.8131 6.38623C37.8627 6.83026 37.9482 7.35166 38.0319 7.93772C38.499 11.2052 39.2468 16.4406 39.4131 21.2383L41.4116 79.0556C41.4387 80.0972 41.3428 80.5747 40.348 80.6856C40.3416 80.6867 40.3353 80.6873 40.3283 80.6884C38.0586 80.9477 34.4445 81.1867 32.203 80.7872C31.1388 80.5972 31.0193 80.1872 30.9396 79.3592L26.6183 34.3031C26.2695 30.6654 25.4156 28.4943 24.4016 27.5317C23.5453 26.7187 22.6433 26.8682 21.8264 27.6443C20.6727 28.7414 19.7102 31.0665 19.4307 34.2879L15.4974 79.6442H15.4963C15.4951 79.6598 15.4928 79.6754 15.4893 79.6915C15.3889 80.1708 15.2988 80.6015 14.26 80.7869C12.0191 81.1865 8.40454 80.9474 6.13466 80.6881V80.6876C5.57919 80.6333 5.2795 80.4589 5.11899 80.124C4.98041 79.8359 4.99715 79.4935 5.05201 79.024L7.0505 21.2378C7.22315 16.2496 7.96569 11.3814 8.64131 6.45168C8.68115 6.16066 8.73947 5.11151 9.16848 4.98102C13.0608 3.4925 29.2835 3.71648 35.341 4.58203C35.9144 4.66402 37.3481 4.81184 37.6507 5.38809L37.6514 5.38904ZM37.0514 6.71594C36.9452 6.81294 36.828 6.89783 36.7096 6.96596C32.6001 9.32763 13.4757 9.20406 9.4728 6.85394C9.44797 6.8395 9.42372 6.82449 9.39946 6.80832C9.29207 7.57975 9.18005 8.35124 9.07091 9.12196C9.85504 9.62893 11.5041 10.0955 13.633 10.4656C15.8924 10.8582 18.6761 11.1371 21.5331 11.2382C21.6653 11.2428 21.7687 11.3537 21.7641 11.4859C21.7594 11.6181 21.6486 11.7215 21.5163 11.7168C18.6327 11.6152 15.8272 11.3346 13.5521 10.9391C11.5178 10.5857 9.8948 10.1365 8.998 9.63644C8.54761 12.8578 7.98753 17.2329 7.84838 21.2637L5.84885 79.078C5.84827 79.0879 5.8477 79.0971 5.84712 79.1063C6.08271 78.9094 6.36909 78.7322 6.69418 78.5774C8.78447 77.582 12.9979 77.31 14.7323 79.2022L18.6334 34.2199C18.9302 30.7953 19.9932 28.2854 21.2762 27.0663C22.4039 25.9946 23.7851 25.8457 24.9526 26.9537C26.093 28.0363 27.0439 30.3789 27.413 34.2285L31.7309 79.2448C31.9861 78.9988 32.3204 78.7794 32.7113 78.5918C34.775 77.6009 38.7655 77.3486 40.6114 78.9838L38.6153 21.2641C38.4721 17.127 37.886 12.6272 37.4299 9.38389C36.6186 9.91973 35.1353 10.4492 33.1662 10.869C31.0084 11.3286 28.2473 11.6653 25.1316 11.7421C24.9994 11.7449 24.8897 11.6404 24.8868 11.5082C24.8839 11.376 24.9884 11.2663 25.1207 11.2634C28.2012 11.1877 30.9322 10.8546 33.067 10.3996C35.1849 9.94861 36.6961 9.38853 37.3549 8.85207C37.3156 8.57376 37.277 8.30642 37.2406 8.05062C37.1701 7.55867 37.1066 7.11117 37.0518 6.71566L37.0514 6.71594ZM14.3127 79.9564C13.0101 78.0758 8.80016 78.4616 7.03847 79.3011C6.66604 79.4783 6.36751 79.6781 6.17525 79.8912C6.1891 79.8929 6.20296 79.8941 6.21797 79.8952L6.22548 79.8958V79.8952C8.42426 80.1464 11.9516 80.3872 14.1222 80.0003C14.1944 79.9876 14.2573 79.9726 14.3121 79.9564H14.3127ZM40.3625 79.882C38.9785 78.0903 34.8269 78.4615 33.0548 79.3126C32.654 79.5049 32.3399 79.7237 32.1552 79.9582C33.8908 80.4721 38.3363 80.1129 40.2372 79.8958C40.2476 79.8947 40.2586 79.8941 40.269 79.8935C40.303 79.89 40.3342 79.886 40.3631 79.8825L40.3625 79.882ZM10.2152 16.1727C10.1147 16.1467 10.072 16.3009 10.1754 16.328C10.2793 16.3546 10.3832 16.3806 10.4878 16.4054C10.5911 16.4285 10.6269 16.2761 10.5247 16.2495C10.4213 16.2253 10.318 16.1993 10.2152 16.1727L10.2152 16.1727ZM18.3052 14.0184C18.352 13.922 18.2071 13.8539 18.1615 13.9474C18.1153 14.0421 18.0668 14.1356 18.0154 14.2274C17.964 14.3169 18.1014 14.3995 18.1545 14.3065C18.2071 14.2119 18.2573 14.116 18.3052 14.0184L18.3052 14.0184ZM17.897 14.7206C17.9559 14.6322 17.8283 14.5433 17.7654 14.6293C17.7059 14.7154 17.643 14.8002 17.5777 14.8816C17.5113 14.9648 17.6372 15.0641 17.7024 14.9821C17.77 14.8978 17.8352 14.8095 17.897 14.7206H17.897ZM17.3779 15.3476C17.453 15.2726 17.3392 15.16 17.2648 15.2345C17.1908 15.3089 17.1146 15.3805 17.0355 15.4498C16.9576 15.518 17.058 15.6404 17.1406 15.5711C17.2226 15.4989 17.3017 15.4256 17.3785 15.3482L17.3779 15.3476ZM16.7537 15.8708C16.838 15.8142 16.7537 15.6779 16.6631 15.7385C16.5765 15.7986 16.4881 15.8546 16.3981 15.9077C16.3103 15.9585 16.3836 16.0983 16.4777 16.0446C16.5713 15.9868 16.6631 15.9337 16.7537 15.8708L16.7537 15.8708ZM16.0453 16.2715C16.1417 16.2282 16.0764 16.0833 15.98 16.1254C15.8842 16.1687 15.7877 16.2091 15.689 16.2467C15.592 16.2825 15.6445 16.4337 15.745 16.3968C15.8466 16.3581 15.9465 16.3165 16.0452 16.2721L16.0453 16.2715ZM15.2813 16.5475C15.3835 16.518 15.3408 16.3668 15.2392 16.3927C15.1376 16.421 15.0354 16.4459 14.9326 16.4684C14.8286 16.4909 14.8644 16.6474 14.9666 16.6249C15.0723 16.6018 15.1774 16.5758 15.2819 16.5469L15.2813 16.5475ZM14.4874 16.7109C14.589 16.6982 14.5734 16.5388 14.4655 16.5521C14.3609 16.5665 14.2558 16.5787 14.1508 16.5891C14.0463 16.5989 14.0595 16.7582 14.1652 16.7484C14.2726 16.738 14.38 16.7259 14.4868 16.7109L14.4874 16.7109ZM13.6813 16.779C13.7876 16.7756 13.7812 16.6156 13.6761 16.6191C13.5705 16.6226 13.4648 16.6243 13.3591 16.6237C13.2517 16.6237 13.2546 16.7837 13.358 16.7837C13.4654 16.7842 13.5739 16.7825 13.6813 16.779H13.6813ZM12.8735 16.7692C12.9786 16.7756 12.9884 16.6162 12.8828 16.6093C12.7765 16.6035 12.6714 16.596 12.5652 16.5873C12.4624 16.5775 12.444 16.7369 12.5519 16.7467C12.6593 16.7559 12.7661 16.7629 12.8735 16.7692H12.8735ZM12.0704 16.6965C12.1749 16.7097 12.1957 16.551 12.0906 16.5377C11.9855 16.5244 11.8804 16.51 11.7753 16.4938C11.6731 16.4776 11.6454 16.6358 11.7511 16.652C11.8573 16.6682 11.9635 16.6826 12.0704 16.6965L12.0704 16.6965ZM11.2747 16.5717C11.3792 16.5914 11.4069 16.4337 11.3041 16.4141C11.1996 16.3945 11.0957 16.3743 10.9912 16.3523C10.8919 16.3304 10.852 16.4857 10.9583 16.5094C11.0634 16.5313 11.1684 16.5521 11.2741 16.5717L11.2747 16.5717ZM36.3268 15.1912C36.4549 15.1582 36.5854 15.235 36.6184 15.3627C36.6513 15.4908 36.5745 15.6213 36.4469 15.6543C34.8394 16.0752 33.0973 16.3437 31.5995 16.0174C30.0629 15.6825 28.7916 14.7356 28.1858 12.7216C28.1477 12.5945 28.2204 12.4612 28.3475 12.423C28.4745 12.3849 28.6079 12.4577 28.646 12.5847C29.1917 14.3979 30.3286 15.2488 31.7017 15.548C33.1129 15.8558 34.781 15.5954 36.3273 15.1906L36.3268 15.1912ZM12.1409 1.95752C11.9498 1.95752 11.8349 2.17174 11.9411 2.3311C11.9867 2.39808 12.0595 2.4385 12.1409 2.4385H13.1017C13.2928 2.4385 13.4077 2.22428 13.3015 2.06492C13.2559 1.99794 13.1831 1.95752 13.1017 1.95752H12.1409ZM14.5435 1.95752C14.3524 1.95752 14.2375 2.17174 14.3437 2.3311C14.3893 2.39808 14.4621 2.4385 14.5435 2.4385H15.5043C15.6955 2.4385 15.8104 2.22428 15.7041 2.06492C15.6585 1.99794 15.5858 1.95752 15.5043 1.95752H14.5435ZM16.9461 1.95752C16.755 1.95752 16.6401 2.17174 16.7464 2.3311C16.792 2.39808 16.8647 2.4385 16.9461 2.4385H17.907C18.0981 2.4385 18.213 2.22428 18.1067 2.06492C18.0611 1.99794 17.9884 1.95752 17.907 1.95752H16.9461ZM19.3488 1.95752C19.1576 1.95752 19.0427 2.17174 19.149 2.3311C19.1946 2.39808 19.2673 2.4385 19.3488 2.4385H20.3096C20.5007 2.4385 20.6156 2.22428 20.5094 2.06492C20.4638 1.99794 20.391 1.95752 20.3096 1.95752H19.3488ZM21.7514 1.95752C21.5603 1.95752 21.4454 2.17174 21.5516 2.3311C21.5972 2.39808 21.67 2.4385 21.7514 2.4385H22.7122C22.9033 2.4385 23.0182 2.22428 22.912 2.06492C22.8664 1.99794 22.7936 1.95752 22.7122 1.95752H21.7514ZM24.154 1.95752C23.9629 1.95752 23.848 2.17174 23.9542 2.3311C23.9998 2.39808 24.0726 2.4385 24.154 2.4385H25.1148C25.306 2.4385 25.4208 2.22428 25.3146 2.06492C25.269 1.99794 25.1962 1.95752 25.1148 1.95752H24.154ZM26.5566 1.95752C26.3655 1.95752 26.2506 2.17174 26.3568 2.3311C26.4025 2.39808 26.4752 2.4385 26.5566 2.4385H27.5174C27.7086 2.4385 27.8235 2.22428 27.7172 2.06492C27.6716 1.99794 27.5989 1.95752 27.5174 1.95752H26.5566ZM28.9593 1.95752C28.7681 1.95752 28.6532 2.17174 28.7595 2.3311C28.8051 2.39808 28.8778 2.4385 28.9593 2.4385H29.9201C30.1112 2.4385 30.2261 2.22428 30.1199 2.06492C30.0742 1.99794 30.0015 1.95752 29.9201 1.95752H28.9593ZM31.3619 1.95752C31.1707 1.95752 31.0558 2.17174 31.1621 2.3311C31.2077 2.39808 31.2805 2.4385 31.3619 2.4385H32.3227C32.5138 2.4385 32.6287 2.22428 32.5225 2.06492C32.4769 1.99794 32.4041 1.95752 32.3227 1.95752H31.3619ZM33.7645 1.95752C33.5734 1.95752 33.4585 2.17174 33.5647 2.3311C33.6103 2.39808 33.6831 2.4385 33.7645 2.4385H34.7253C34.9164 2.4385 35.0313 2.22428 34.9251 2.06492C34.8795 1.99794 34.8067 1.95752 34.7253 1.95752H33.7645Z" fill="black"/>
<path d="M37.027 1.95521H36.158C35.9668 1.95521 35.8519 2.16943 35.9582 2.32879C36.0038 2.39577 36.0765 2.43619 36.158 2.43619H37.0789L36.5518 3.03092C36.464 3.12966 36.4732 3.28094 36.5725 3.36871C36.6713 3.45648 36.8226 3.44724 36.9103 3.34792L37.7713 2.37729C37.8613 2.28549 37.8631 2.13824 37.7736 2.04471L36.8947 1.12315C36.8035 1.0273 36.6517 1.02326 36.5558 1.11449C36.4599 1.20572 36.4559 1.35758 36.5471 1.45344L37.0264 1.95636L37.027 1.95521ZM11.9882 6.89615C19.1377 6.19344 27.4321 6.23791 34.585 6.91232C35.1012 6.77778 35.5499 6.62881 35.9183 6.46541C37.0177 5.97634 36.9149 5.6582 35.8842 5.46995C30.1124 4.4156 15.7988 4.28048 10.1669 5.53116C9.42843 5.69514 9.23615 5.87471 10.1323 6.30142C10.5942 6.52141 11.2253 6.72004 11.9881 6.89557L11.9882 6.89615ZM32.9472 7.25473C26.6928 6.78644 19.9901 6.7593 13.7339 7.22643C19.3216 8.09947 27.3798 8.19764 32.9472 7.25473ZM10.238 8.92107C10.2236 9.05272 10.1052 9.14741 9.97357 9.13298C9.84193 9.11855 9.74724 9.00018 9.76166 8.86852L9.89505 7.68021C9.90948 7.54856 10.0279 7.45387 10.1595 7.4683C10.2912 7.48273 10.3858 7.6011 10.3714 7.73276L10.238 8.92107ZM18.8859 10.6055C18.8796 10.7377 18.7676 10.8399 18.6353 10.8335C18.5031 10.8272 18.4009 10.7152 18.4073 10.5829L18.4754 9.22949C18.4817 9.09727 18.5938 8.99507 18.726 9.00141C18.8582 9.00776 18.9604 9.11978 18.9541 9.25201L18.8859 10.6055ZM36.6447 8.8686C36.6591 9.00025 36.5644 9.11862 36.4328 9.13306C36.3011 9.14749 36.1828 9.0528 36.1683 8.92115L36.035 7.73283C36.0205 7.60118 36.1152 7.48281 36.2469 7.46837C36.3785 7.45393 36.4969 7.54863 36.5113 7.68028L36.6447 8.8686ZM28.4311 10.583C28.4374 10.7152 28.3352 10.8272 28.203 10.8336C28.0708 10.8399 27.9588 10.7377 27.9524 10.6055L27.8843 9.25205C27.8779 9.11982 27.9801 9.00781 28.1124 9.00146C28.2446 8.9951 28.3566 9.09731 28.363 9.22954L28.4311 10.583ZM3.39232 5.08255C3.62098 5.29967 3.29012 5.64726 3.06204 5.42958L2.51118 4.90471V5.40014C2.51118 5.7131 2.03078 5.72003 2.03078 5.40014V4.94052L1.48397 5.42496C1.24838 5.63341 0.931385 5.27483 1.16698 5.06638L2.1376 4.20547C2.22941 4.11539 2.37665 4.11366 2.47019 4.20316L3.39175 5.08197L3.39232 5.08255ZM3.06204 79.0754C3.2907 78.8583 3.62097 79.2054 3.39232 79.4225L2.47077 80.3013C2.37723 80.3908 2.22999 80.3891 2.13818 80.299L1.16755 79.4381C0.931963 79.2296 1.24955 78.8711 1.48455 79.0795L2.04464 79.5761V78.919C2.04464 78.606 2.52505 78.5991 2.52505 78.919V79.5876L3.06204 79.0754ZM24.0181 79.0754C24.2468 78.8583 24.577 79.2054 24.3484 79.4225L23.4268 80.3013C23.3333 80.3908 23.186 80.3891 23.0942 80.299L22.1236 79.4381C21.888 79.2296 22.2056 78.8711 22.4406 79.0795L23.007 79.5818V78.647C23.007 78.3346 23.4874 78.3271 23.4874 78.647V79.5813L24.0181 79.0754ZM24.3484 28.6771C24.577 28.8943 24.2462 29.2419 24.0181 29.0242L23.4892 28.5201V29.1541C23.4892 29.4665 23.0088 29.474 23.0088 29.1541V28.5155L22.44 29.0196C22.2044 29.228 21.8874 28.8694 22.123 28.661L23.0937 27.8001C23.1855 27.71 23.3327 27.7083 23.4263 27.7978L24.3478 28.6766L24.3484 28.6771ZM24.0181 24.0487C24.1139 23.9575 24.2658 23.9615 24.357 24.0574C24.4483 24.1532 24.4442 24.3051 24.3484 24.3963L23.4268 25.2751C23.3333 25.3646 23.186 25.3629 23.0942 25.2728L22.1236 24.4119C22.0249 24.3241 22.0156 24.1728 22.1028 24.0741C22.1906 23.9754 22.3419 23.9661 22.4406 24.0533L23.0071 24.5557V23.8888C23.0071 23.7594 23.1098 23.6526 23.2397 23.6485C23.3754 23.6445 23.4875 23.7531 23.4875 23.8888V24.5551L24.0181 24.0493L24.0181 24.0487ZM24.3484 10.0158C24.577 10.2329 24.2462 10.5805 24.0181 10.3628L23.4892 9.85875V10.7376C23.4892 11.0534 23.0088 11.054 23.0088 10.7376V9.85413L22.44 10.3582C22.2044 10.5667 21.8874 10.2081 22.123 9.99964L23.0937 9.13872C23.1855 9.04864 23.3327 9.04691 23.4263 9.13641L24.3478 10.0152L24.3484 10.0158ZM36.1801 16.3235C36.2633 16.3021 36.2586 16.1814 36.1726 16.167C36.1611 16.1653 36.1512 16.1658 36.1403 16.1687C36.0375 16.1953 35.9341 16.2207 35.8308 16.2455C35.7436 16.268 35.7522 16.391 35.8394 16.4031C35.8498 16.4043 35.8579 16.4037 35.8677 16.4014C35.9722 16.3766 36.0762 16.3506 36.1801 16.324V16.3235ZM28.194 13.9433C28.149 13.8503 28.0034 13.9168 28.0502 14.0143C28.0976 14.1119 28.1478 14.2078 28.2009 14.3025C28.2535 14.3937 28.3926 14.3146 28.3401 14.2234C28.2887 14.1315 28.2402 14.038 28.194 13.9433L28.194 13.9433ZM28.5901 14.6247C28.5277 14.5392 28.4007 14.6293 28.4584 14.7159C28.5197 14.8048 28.5849 14.8932 28.653 14.9775C28.7177 15.0583 28.8447 14.9607 28.7778 14.877C28.7304 14.8181 28.6854 14.7575 28.6409 14.6962C28.6242 14.6726 28.6068 14.6483 28.5901 14.6246V14.6247ZM29.0913 15.2298C29.0156 15.1542 28.9042 15.2691 28.9781 15.343C29.0549 15.4203 29.134 15.4942 29.216 15.5658C29.2974 15.6346 29.4002 15.5139 29.3211 15.4446C29.242 15.3753 29.1658 15.3043 29.0919 15.2292L29.0913 15.2298ZM29.6929 15.7345C29.6335 15.6946 29.5573 15.7443 29.5688 15.8147C29.5734 15.8361 29.5838 15.8546 29.6023 15.8667C29.6929 15.9296 29.7836 15.9845 29.8771 16.0422C29.9545 16.0867 30.0359 15.9903 29.9782 15.921C29.9724 15.914 29.9655 15.9083 29.958 15.9042C29.8708 15.8465 29.7807 15.7957 29.6929 15.735V15.7345ZM29.6023 15.8667L29.8771 16.0422L29.9574 15.9036L29.6023 15.8667ZM30.3766 16.1213C30.2917 16.0844 30.2219 16.1947 30.2923 16.2559C30.2981 16.2605 30.3044 16.2645 30.3114 16.2674C30.4107 16.3125 30.51 16.354 30.6116 16.3921C30.6405 16.4025 30.6728 16.3962 30.6953 16.3748C30.7375 16.3344 30.723 16.2622 30.6682 16.242C30.5695 16.2045 30.473 16.1646 30.3772 16.1208L30.3766 16.1213ZM31.1174 16.3892C31.025 16.3656 30.9748 16.492 31.0597 16.5376C31.0649 16.54 31.0695 16.5417 31.0747 16.5434C31.1792 16.5723 31.2843 16.5983 31.39 16.6214C31.4217 16.6283 31.4546 16.615 31.4731 16.5885C31.5049 16.5417 31.4795 16.477 31.424 16.4649C31.3212 16.4424 31.219 16.417 31.1174 16.3892V16.3892ZM31.8912 16.5486C31.8542 16.544 31.819 16.5642 31.8057 16.5994C31.7878 16.6468 31.8184 16.701 31.8698 16.7074C31.9766 16.7224 32.084 16.7351 32.1914 16.7449C32.2653 16.7519 32.308 16.6612 32.2555 16.6087C32.2411 16.5954 32.2255 16.5873 32.2058 16.5856C32.1008 16.5758 31.9957 16.563 31.8912 16.5486ZM32.6805 16.6156C32.5933 16.6127 32.5644 16.734 32.6476 16.7698C32.6568 16.7732 32.6655 16.7755 32.6753 16.7755C32.7827 16.779 32.8906 16.7807 32.9986 16.7802C33.0321 16.7802 33.0627 16.7582 33.0737 16.7265C33.0916 16.6739 33.0535 16.6196 32.9975 16.6196C32.8918 16.6202 32.7856 16.6185 32.6805 16.615L32.6805 16.6156ZM33.4738 16.6058C33.4409 16.6081 33.4132 16.6289 33.4028 16.6595C33.3843 16.7132 33.4265 16.7692 33.4831 16.7657C33.5905 16.7599 33.6979 16.7524 33.8047 16.7432C33.8925 16.7351 33.9057 16.6127 33.8203 16.5867C33.8105 16.5838 33.8012 16.5827 33.7908 16.5838C33.6852 16.5925 33.5795 16.6 33.4733 16.6058H33.4738ZM34.2655 16.5336C34.1881 16.5434 34.169 16.6479 34.2389 16.6843C34.2539 16.6918 34.2684 16.6947 34.2857 16.6924C34.3925 16.6791 34.4987 16.6641 34.605 16.6479C34.6443 16.6416 34.6731 16.6087 34.6731 16.5688C34.6731 16.5197 34.6292 16.4816 34.5807 16.4897C34.4757 16.5053 34.3706 16.5203 34.2655 16.5336L34.2655 16.5336ZM35.0519 16.4106C35.0167 16.417 34.9907 16.4464 34.9872 16.4816C34.982 16.5348 35.0294 16.5781 35.0819 16.5682C35.1876 16.5486 35.2927 16.5278 35.3978 16.5059C35.4832 16.4874 35.4821 16.3661 35.3966 16.3488C35.3862 16.3471 35.3758 16.3471 35.3654 16.3494C35.2615 16.3708 35.157 16.3916 35.0525 16.4112L35.0519 16.4106ZM9.95844 1.07457C10.0497 0.978716 10.2015 0.974675 10.2974 1.06591C10.3932 1.15714 10.3973 1.30899 10.3061 1.40485L9.78291 1.95339H10.6935C10.7749 1.95339 10.8477 1.99323 10.8933 2.06078C10.9995 2.22015 10.8846 2.43436 10.6935 2.43436H9.81525L10.3014 2.9829C10.3892 3.08164 10.38 3.23292 10.2807 3.32069C10.1819 3.40846 10.0306 3.39922 9.94286 3.2999L9.08194 2.32928C8.99187 2.23747 8.99014 2.09023 9.07963 1.99669L9.95845 1.07514L9.95844 1.07457ZM29.355 33.1302C29.5721 32.9016 29.9197 33.2324 29.7021 33.4605L29.1986 33.9883H30.1213C30.3043 33.9883 30.4204 34.1857 30.3309 34.3457C30.2887 34.4219 30.2079 34.4687 30.1207 34.4687H29.1922L29.6969 35.038C29.9053 35.2736 29.5468 35.5906 29.3383 35.355L28.4774 34.3844C28.3873 34.2926 28.3856 34.1453 28.4751 34.0518L29.3539 33.1302L29.355 33.1302ZM36.8065 33.4767C36.5894 33.248 36.9364 32.9178 37.1535 33.1464L38.0323 34.0679C38.1218 34.1615 38.1201 34.3087 38.03 34.4005L37.1691 35.3712C36.9607 35.6068 36.6021 35.2892 36.8105 35.0542L37.3279 34.471H36.3688C36.0495 34.471 36.0559 33.9906 36.3688 33.9906H37.2967L36.8071 33.4767H36.8065ZM9.9821 19.6391C10.0716 19.5415 10.2235 19.5351 10.321 19.6252C10.4186 19.7147 10.425 19.8666 10.3349 19.9641L9.85161 20.4907L10.6935 20.4902C10.7616 20.4902 10.8257 20.5185 10.8713 20.5687C11.011 20.7223 10.9013 20.9706 10.6935 20.9706L9.87644 20.9712L10.3678 21.5168C10.4562 21.6155 10.4487 21.7668 10.3499 21.8558C10.2512 21.9441 10.0999 21.9366 10.011 21.8379L9.14197 20.8742C9.05997 20.7829 9.0594 20.6432 9.1437 20.5514L9.98095 19.6402L9.9821 19.6391ZM36.5508 19.9561C36.4595 19.8602 36.4636 19.7083 36.5594 19.6171C36.6553 19.5259 36.8071 19.5299 36.8984 19.6258L37.7772 20.5473C37.8667 20.6409 37.865 20.7887 37.7749 20.8799L36.914 21.8505C36.8262 21.9493 36.6749 21.9585 36.5762 21.8713C36.4774 21.7836 36.4682 21.6323 36.5554 21.5335L37.067 20.9567L36.1616 20.9573C36.0935 20.9573 36.0294 20.929 35.9837 20.8788C35.844 20.7252 35.9537 20.4769 36.1616 20.4769L37.0473 20.4763L36.5513 19.956L36.5508 19.9561ZM31.5643 33.9889C31.2513 33.9889 31.2444 34.4693 31.5643 34.4693H32.5251C32.8381 34.4693 32.845 33.9889 32.5251 33.9889H31.5643ZM33.9669 33.9895C33.654 33.9895 33.647 34.4699 33.9669 34.4699H34.9277C35.2407 34.4699 35.2476 33.9895 34.9277 33.9895H33.9669ZM12.1358 20.4885C11.9279 20.4885 11.8182 20.7368 11.958 20.8904C12.0036 20.9406 12.0677 20.9689 12.1358 20.9689L13.0966 20.9683C13.3045 20.9683 13.4142 20.72 13.2744 20.5664C13.2288 20.5162 13.1647 20.4879 13.0966 20.4879L12.1358 20.4885ZM14.5384 20.4873C14.3306 20.4873 14.2208 20.7356 14.3606 20.8892C14.4062 20.9394 14.4703 20.9677 14.5384 20.9677L15.4992 20.9672C15.7071 20.9672 15.8168 20.7189 15.6771 20.5653C15.6315 20.515 15.5674 20.4867 15.4992 20.4867L14.5384 20.4873ZM16.941 20.4862C16.7332 20.4862 16.6235 20.7345 16.7632 20.8881C16.8088 20.9383 16.8729 20.9666 16.941 20.9666L17.9018 20.966C18.1097 20.966 18.2194 20.7177 18.0797 20.5641C18.0341 20.5139 17.97 20.4856 17.9018 20.4856L16.941 20.4862ZM19.3437 20.485C19.1358 20.485 19.0261 20.7333 19.1658 20.8869C19.2114 20.9371 19.2755 20.9654 19.3437 20.9654L20.3045 20.9648C20.5123 20.9648 20.622 20.7166 20.4823 20.563C20.4367 20.5127 20.3726 20.4844 20.3045 20.4844L19.3437 20.485ZM21.7463 20.4839C21.5384 20.4839 21.4287 20.7321 21.5684 20.8857C21.6141 20.936 21.6782 20.9643 21.7463 20.9643L22.7071 20.9637C22.915 20.9637 23.0247 20.7154 22.8849 20.5618C22.8393 20.5116 22.7752 20.4833 22.7071 20.4833L21.7463 20.4839ZM24.1489 20.4827C23.941 20.4827 23.8313 20.731 23.9711 20.8846C24.0167 20.9348 24.0808 20.9631 24.1489 20.9631L25.1097 20.9625C25.3176 20.9625 25.4273 20.7142 25.2876 20.5607C25.2419 20.5104 25.1778 20.4821 25.1097 20.4821L24.1489 20.4827ZM26.5515 20.4815C26.3437 20.4815 26.234 20.7298 26.3737 20.8834C26.4193 20.9337 26.4834 20.962 26.5515 20.962L27.5123 20.9614C27.7202 20.9614 27.8299 20.7131 27.6902 20.5595C27.6446 20.5093 27.5805 20.481 27.5123 20.481L26.5515 20.4815ZM28.9541 20.4804C28.7463 20.4804 28.6366 20.7287 28.7763 20.8823C28.8219 20.9325 28.886 20.9608 28.9541 20.9608L29.915 20.9602C30.1228 20.9602 30.2325 20.7119 30.0928 20.5583C30.0472 20.5081 29.9831 20.4798 29.915 20.4798L28.9541 20.4804ZM31.3568 20.4792C31.1489 20.4792 31.0392 20.7275 31.1789 20.8811C31.2245 20.9314 31.2886 20.9597 31.3568 20.9597L32.3176 20.9591C32.5254 20.9591 32.6352 20.7108 32.4954 20.5572C32.4498 20.507 32.3857 20.4787 32.3176 20.4787L31.3568 20.4792ZM33.7594 20.4781C33.5515 20.4781 33.4418 20.7264 33.5816 20.88C33.6272 20.9302 33.6913 20.9585 33.7594 20.9585L34.7202 20.9579C34.9281 20.9579 35.0378 20.7096 34.898 20.556C34.8524 20.5058 34.7883 20.4775 34.7202 20.4775L33.7594 20.4781ZM2.51525 6.84135C2.51525 6.52146 2.03485 6.52839 2.03485 6.84135V7.80216C2.03485 8.12205 2.51525 8.11512 2.51525 7.80216V6.84135ZM2.51583 9.24397C2.51583 8.92408 2.03542 8.93101 2.03542 9.24397V10.2048C2.03542 10.5247 2.51583 10.5177 2.51583 10.2048V9.24397ZM2.51641 11.6466C2.51641 11.3267 2.036 11.3336 2.036 11.6466V12.6074C2.036 12.9273 2.51641 12.9204 2.51641 12.6074V11.6466ZM2.51698 14.0492C2.51698 13.7293 2.03658 13.7363 2.03658 14.0492V15.01C2.03658 15.3299 2.51698 15.323 2.51698 15.01V14.0492ZM2.51756 16.4518C2.51756 16.1319 2.03716 16.1389 2.03716 16.4518V17.4126C2.03716 17.7325 2.51756 17.7256 2.51756 17.4126V16.4518ZM2.51814 18.8545C2.51814 18.5346 2.03773 18.5415 2.03773 18.8545V19.8153C2.03773 20.1352 2.51814 20.1282 2.51814 19.8153V18.8545ZM2.51872 21.2571C2.51872 20.9372 2.03831 20.9441 2.03831 21.2571V22.2179C2.03831 22.5378 2.51872 22.5309 2.51872 22.2179V21.2571ZM2.51929 23.6597C2.51929 23.3398 2.03889 23.3467 2.03889 23.6597V24.6205C2.03889 24.9404 2.51929 24.9335 2.51929 24.6205V23.6597ZM2.51987 26.0623C2.51987 25.7424 2.03946 25.7494 2.03946 26.0623V27.0231C2.03946 27.343 2.51987 27.3361 2.51987 27.0231V26.0623ZM2.52045 28.4649C2.52045 28.1451 2.04004 28.152 2.04004 28.4649V29.4258C2.04004 29.7456 2.52045 29.7387 2.52045 29.4258V28.4649ZM2.52103 30.8676C2.52103 30.5477 2.04062 30.5546 2.04062 30.8676V31.8284C2.04062 32.1483 2.52103 32.1413 2.52103 31.8284V30.8676ZM2.5216 33.2702C2.5216 32.9503 2.0412 32.9572 2.0412 33.2702V34.231C2.0412 34.5509 2.5216 34.544 2.5216 34.231V33.2702ZM2.52218 35.6728C2.52218 35.3529 2.04177 35.3599 2.04177 35.6728V36.6336C2.04177 36.9535 2.52218 36.9466 2.52218 36.6336V35.6728ZM2.52276 38.0754C2.52276 37.7555 2.04235 37.7625 2.04235 38.0754V39.0363C2.04235 39.3561 2.52276 39.3492 2.52276 39.0363V38.0754ZM2.52334 40.4781C2.52334 40.1582 2.04293 40.1651 2.04293 40.4781V41.4389C2.04293 41.7588 2.52334 41.7518 2.52334 41.4389V40.4781ZM2.52391 42.8807C2.52391 42.5608 2.04351 42.5677 2.04351 42.8807V43.8415C2.04351 44.1614 2.52391 44.1545 2.52391 43.8415V42.8807ZM2.52449 45.2833C2.52449 44.9634 2.04408 44.9703 2.04408 45.2833V46.2441C2.04408 46.564 2.52449 46.5571 2.52449 46.2441V45.2833ZM2.52507 47.6859C2.52507 47.366 2.04466 47.373 2.04466 47.6859V48.6467C2.04466 48.9666 2.52507 48.9597 2.52507 48.6467V47.6859ZM2.52565 50.0885C2.52565 49.7687 2.04524 49.7756 2.04524 50.0885V51.0494C2.04524 51.3693 2.52565 51.3623 2.52565 51.0494V50.0885ZM2.52622 52.4912C2.52622 52.1713 2.04582 52.1782 2.04582 52.4912V53.452C2.04582 53.7719 2.52622 53.7649 2.52622 53.452V52.4912ZM2.5268 54.8938C2.5268 54.5739 2.04639 54.5808 2.04639 54.8938V55.8546C2.04639 56.1745 2.5268 56.1676 2.5268 55.8546V54.8938ZM2.52738 57.2964C2.52738 56.9765 2.04697 56.9835 2.04697 57.2964V58.2572C2.04697 58.5771 2.52738 58.5702 2.52738 58.2572V57.2964ZM2.52795 59.699C2.52795 59.3791 2.04755 59.3861 2.04755 59.699V60.6598C2.04755 60.9797 2.52795 60.9728 2.52795 60.6598V59.699ZM2.52853 62.1017C2.52853 61.7818 2.04813 61.7887 2.04813 62.1017V63.0625C2.04813 63.3824 2.52853 63.3754 2.52853 63.0625V62.1017ZM2.52911 64.5043C2.52911 64.1844 2.0487 64.1913 2.0487 64.5043V65.4651C2.0487 65.785 2.52911 65.778 2.52911 65.4651V64.5043ZM2.52969 66.9069C2.52969 66.587 2.04928 66.5939 2.04928 66.9069V67.8677C2.04928 68.1876 2.52969 68.1807 2.52969 67.8677V66.9069ZM2.53026 69.3095C2.53026 68.9896 2.04986 68.9966 2.04986 69.3095V70.2703C2.04986 70.5902 2.53026 70.5833 2.53026 70.2703V69.3095ZM2.53084 71.7122C2.53084 71.3923 2.05044 71.3992 2.05044 71.7122V72.673C2.05044 72.9929 2.53084 72.9859 2.53084 72.673V71.7122ZM2.53142 74.1148C2.53142 73.7949 2.05101 73.8018 2.05101 74.1148V75.0756C2.05101 75.3955 2.53142 75.3885 2.53142 75.0756V74.1148ZM2.532 76.5174C2.532 76.1975 2.05159 76.2044 2.05159 76.5174V77.4782C2.05159 77.7981 2.532 77.7912 2.532 77.4782V76.5174ZM23.4954 30.5965C23.4954 30.2766 23.015 30.2841 23.015 30.5965V31.5573C23.015 31.8772 23.4954 31.8697 23.4954 31.5573V30.5965ZM23.4954 32.9991C23.4954 32.6792 23.015 32.6867 23.015 32.9991V33.9599C23.015 34.151 23.2293 34.2659 23.3886 34.1597C23.4556 34.1141 23.496 34.0413 23.496 33.9599V32.9991H23.4954ZM23.4954 35.4017C23.4954 35.2106 23.2812 35.0957 23.1219 35.2019C23.0549 35.2475 23.0145 35.3203 23.0145 35.4017V36.3625C23.0145 36.5537 23.2287 36.6686 23.388 36.5623C23.455 36.5167 23.4954 36.444 23.4954 36.3625V35.4017ZM23.4954 37.8043C23.4954 37.6132 23.2812 37.4983 23.1219 37.6045C23.0549 37.6502 23.0145 37.7229 23.0145 37.8043V38.7652C23.0145 38.9563 23.2287 39.0712 23.388 38.9649C23.455 38.9193 23.4954 38.8466 23.4954 38.7652V37.8043ZM23.4954 40.207C23.4954 40.0158 23.2812 39.9009 23.1219 40.0072C23.0549 40.0528 23.0145 40.1255 23.0145 40.207V41.1678C23.0145 41.3589 23.2287 41.4738 23.388 41.3676C23.455 41.3219 23.4954 41.2492 23.4954 41.1678V40.207ZM23.4954 42.6096C23.4954 42.4185 23.2812 42.3036 23.1219 42.4098C23.0549 42.4554 23.0145 42.5282 23.0145 42.6096V43.5704C23.0145 43.8903 23.4949 43.8828 23.4949 43.5704V42.6096H23.4954ZM23.4954 45.0122C23.4954 44.6923 23.015 44.6998 23.015 45.0122V45.973C23.015 46.2929 23.4954 46.2854 23.4954 45.973V45.0122ZM23.4954 47.4148C23.4954 47.0949 23.015 47.1024 23.015 47.4148V48.3756C23.015 48.6955 23.4954 48.688 23.4954 48.3756V47.4148ZM23.4954 49.8174C23.4954 49.4976 23.015 49.5051 23.015 49.8174V50.7783C23.015 51.0982 23.4954 51.0906 23.4954 50.7783V49.8174ZM23.4954 52.2201C23.4954 51.9002 23.015 51.9077 23.015 52.2201V53.1809C23.015 53.5008 23.4954 53.4933 23.4954 53.1809V52.2201ZM23.4954 54.6227C23.4954 54.3028 23.015 54.3103 23.015 54.6227V55.5835C23.015 55.9034 23.4954 55.8959 23.4954 55.5835V54.6227ZM23.4954 57.0253C23.4954 56.8342 23.2812 56.7193 23.1219 56.8255C23.0549 56.8711 23.0145 56.9439 23.0145 57.0253V57.9861C23.0145 58.306 23.4949 58.2985 23.4949 57.9861V57.0253H23.4954ZM23.4954 59.4279C23.4954 59.108 23.015 59.1156 23.015 59.4279V60.3888C23.015 60.7086 23.4954 60.7011 23.4954 60.3888V59.4279ZM23.4954 61.8306C23.4954 61.5107 23.015 61.5182 23.015 61.8306V62.7914C23.015 63.1113 23.4954 63.1038 23.4954 62.7914V61.8306ZM23.4954 64.2332C23.4954 63.9133 23.015 63.9208 23.015 64.2332V65.194C23.015 65.5139 23.4954 65.5064 23.4954 65.194V64.2332ZM23.4954 66.6358C23.4954 66.3159 23.015 66.3234 23.015 66.6358V67.5966C23.015 67.9165 23.4954 67.909 23.4954 67.5966V66.6358ZM23.4954 69.0384C23.4954 68.7185 23.015 68.726 23.015 69.0384V69.9992C23.015 70.3191 23.4954 70.3116 23.4954 69.9992V69.0384ZM23.4954 71.441C23.4954 71.1212 23.015 71.1287 23.015 71.441V72.4019C23.015 72.7217 23.4954 72.7142 23.4954 72.4019V71.441ZM23.4954 73.8437C23.4954 73.5238 23.015 73.5313 23.015 73.8437V74.8045C23.015 75.1244 23.4954 75.1169 23.4954 74.8045V73.8437ZM23.4954 76.2463C23.4954 75.9264 23.015 75.9339 23.015 76.2463V77.2071C23.015 77.527 23.4954 77.5195 23.4954 77.2071V76.2463ZM9.84141 15.653C9.71323 15.6201 9.63643 15.489 9.66991 15.3614C9.70283 15.2332 9.8339 15.1565 9.96209 15.1899C11.5084 15.5947 13.1765 15.8551 14.5877 15.5474C15.9602 15.2483 17.0977 14.3972 17.6434 12.5841C17.6815 12.457 17.8149 12.3848 17.9419 12.4224C18.069 12.4605 18.1411 12.5939 18.1036 12.7209C17.4979 14.7349 16.2265 15.6812 14.6899 16.0168C13.1921 16.3436 11.4501 16.0745 9.84255 15.6536L9.84141 15.653ZM23.4972 11.8773C23.4972 11.5609 23.0168 11.5615 23.0168 11.8773V12.8381C23.0168 13.1546 23.4972 13.154 23.4972 12.8381V11.8773ZM23.4966 14.28C23.4966 13.9635 23.0162 13.9641 23.0162 14.28V15.2408C23.0162 15.5572 23.4966 15.5566 23.4966 15.2408V14.28ZM23.4961 16.6826C23.4961 16.5469 23.384 16.4383 23.2483 16.4424C23.119 16.4464 23.0157 16.5527 23.0157 16.6826V17.6434C23.0157 17.7791 23.1277 17.8876 23.2634 17.8836C23.3927 17.8796 23.4961 17.7733 23.4961 17.6434V16.6826ZM23.4955 19.0852C23.4955 18.9495 23.3835 18.841 23.2478 18.845C23.1184 18.849 23.0151 18.9553 23.0151 19.0852V20.046C23.0151 20.1817 23.1271 20.2903 23.2628 20.2862C23.3921 20.2822 23.4955 20.1759 23.4955 20.046V19.0852ZM23.4949 21.4878C23.4949 21.3521 23.3829 21.2436 23.2472 21.2476C23.1179 21.2517 23.0145 21.3579 23.0145 21.4878V22.4486C23.0145 22.5843 23.1265 22.6929 23.2622 22.6888C23.3916 22.6848 23.4949 22.5786 23.4949 22.4486V21.4878ZM37.6514 5.38904C37.7859 5.64484 37.7657 5.96819 37.8131 6.38623C37.8627 6.83026 37.9482 7.35166 38.0319 7.93772C38.499 11.2052 39.2468 16.4406 39.4131 21.2383L41.4116 79.0556C41.4387 80.0972 41.3428 80.5747 40.348 80.6856C40.3416 80.6867 40.3353 80.6873 40.3283 80.6884C38.0586 80.9477 34.4445 81.1867 32.203 80.7872C31.1388 80.5972 31.0193 80.1872 30.9396 79.3592L26.6183 34.3031C26.2695 30.6654 25.4156 28.4943 24.4016 27.5317C23.5453 26.7187 22.6433 26.8682 21.8264 27.6443C20.6727 28.7414 19.7102 31.0665 19.4307 34.2879L15.4974 79.6442H15.4963C15.4951 79.6598 15.4928 79.6754 15.4893 79.6915C15.3889 80.1708 15.2988 80.6015 14.26 80.7869C12.0191 81.1865 8.40454 80.9474 6.13466 80.6881V80.6876C5.57919 80.6333 5.2795 80.4589 5.11899 80.124C4.98041 79.8359 4.99715 79.4935 5.05201 79.024L7.0505 21.2378C7.22315 16.2496 7.96569 11.3814 8.64131 6.45168C8.68115 6.16066 8.73947 5.11151 9.16848 4.98102C13.0608 3.4925 29.2835 3.71648 35.341 4.58203C35.9144 4.66402 37.3481 4.81184 37.6507 5.38809L37.6514 5.38904ZM37.0514 6.71594C36.9452 6.81294 36.828 6.89783 36.7096 6.96596C32.6001 9.32763 13.4757 9.20406 9.4728 6.85394C9.44797 6.8395 9.42372 6.82449 9.39946 6.80832C9.29207 7.57975 9.18005 8.35124 9.07091 9.12196C9.85504 9.62893 11.5041 10.0955 13.633 10.4656C15.8924 10.8582 18.6761 11.1371 21.5331 11.2382C21.6653 11.2428 21.7687 11.3537 21.7641 11.4859C21.7594 11.6181 21.6486 11.7215 21.5163 11.7168C18.6327 11.6152 15.8272 11.3346 13.5521 10.9391C11.5178 10.5857 9.8948 10.1365 8.998 9.63644C8.54761 12.8578 7.98753 17.2329 7.84838 21.2637L5.84885 79.078C5.84827 79.0879 5.8477 79.0971 5.84712 79.1063C6.08271 78.9094 6.36909 78.7322 6.69418 78.5774C8.78447 77.582 12.9979 77.31 14.7323 79.2022L18.6334 34.2199C18.9302 30.7953 19.9932 28.2854 21.2762 27.0663C22.4039 25.9946 23.7851 25.8457 24.9526 26.9537C26.093 28.0363 27.0439 30.3789 27.413 34.2285L31.7309 79.2448C31.9861 78.9988 32.3204 78.7794 32.7113 78.5918C34.775 77.6009 38.7655 77.3486 40.6114 78.9838L38.6153 21.2641C38.4721 17.127 37.886 12.6272 37.4299 9.38389C36.6186 9.91973 35.1353 10.4492 33.1662 10.869C31.0084 11.3286 28.2473 11.6653 25.1316 11.7421C24.9994 11.7449 24.8897 11.6404 24.8868 11.5082C24.8839 11.376 24.9884 11.2663 25.1207 11.2634C28.2012 11.1877 30.9322 10.8546 33.067 10.3996C35.1849 9.94861 36.6961 9.38853 37.3549 8.85207C37.3156 8.57376 37.277 8.30642 37.2406 8.05062C37.1701 7.55867 37.1066 7.11117 37.0518 6.71566L37.0514 6.71594ZM14.3127 79.9564C13.0101 78.0758 8.80016 78.4616 7.03847 79.3011C6.66604 79.4783 6.36751 79.6781 6.17525 79.8912C6.1891 79.8929 6.20296 79.8941 6.21797 79.8952L6.22548 79.8958V79.8952C8.42426 80.1464 11.9516 80.3872 14.1222 80.0003C14.1944 79.9876 14.2573 79.9726 14.3121 79.9564H14.3127ZM40.3625 79.882C38.9785 78.0903 34.8269 78.4615 33.0548 79.3126C32.654 79.5049 32.3399 79.7237 32.1552 79.9582C33.8908 80.4721 38.3363 80.1129 40.2372 79.8958C40.2476 79.8947 40.2586 79.8941 40.269 79.8935C40.303 79.89 40.3342 79.886 40.3631 79.8825L40.3625 79.882ZM10.2152 16.1727C10.1147 16.1467 10.072 16.3009 10.1754 16.328C10.2793 16.3546 10.3832 16.3806 10.4878 16.4054C10.5911 16.4285 10.6269 16.2761 10.5247 16.2495C10.4213 16.2253 10.318 16.1993 10.2152 16.1727L10.2152 16.1727ZM18.3052 14.0184C18.352 13.922 18.2071 13.8539 18.1615 13.9474C18.1153 14.0421 18.0668 14.1356 18.0154 14.2274C17.964 14.3169 18.1014 14.3995 18.1545 14.3065C18.2071 14.2119 18.2573 14.116 18.3052 14.0184L18.3052 14.0184ZM17.897 14.7206C17.9559 14.6322 17.8283 14.5433 17.7654 14.6293C17.7059 14.7154 17.643 14.8002 17.5777 14.8816C17.5113 14.9648 17.6372 15.0641 17.7024 14.9821C17.77 14.8978 17.8352 14.8095 17.897 14.7206H17.897ZM17.3779 15.3476C17.453 15.2726 17.3392 15.16 17.2648 15.2345C17.1908 15.3089 17.1146 15.3805 17.0355 15.4498C16.9576 15.518 17.058 15.6404 17.1406 15.5711C17.2226 15.4989 17.3017 15.4256 17.3785 15.3482L17.3779 15.3476ZM16.7537 15.8708C16.838 15.8142 16.7537 15.6779 16.6631 15.7385C16.5765 15.7986 16.4881 15.8546 16.3981 15.9077C16.3103 15.9585 16.3836 16.0983 16.4777 16.0446C16.5713 15.9868 16.6631 15.9337 16.7537 15.8708L16.7537 15.8708ZM16.0453 16.2715C16.1417 16.2282 16.0764 16.0833 15.98 16.1254C15.8842 16.1687 15.7877 16.2091 15.689 16.2467C15.592 16.2825 15.6445 16.4337 15.745 16.3968C15.8466 16.3581 15.9465 16.3165 16.0452 16.2721L16.0453 16.2715ZM15.2813 16.5475C15.3835 16.518 15.3408 16.3668 15.2392 16.3927C15.1376 16.421 15.0354 16.4459 14.9326 16.4684C14.8286 16.4909 14.8644 16.6474 14.9666 16.6249C15.0723 16.6018 15.1774 16.5758 15.2819 16.5469L15.2813 16.5475ZM14.4874 16.7109C14.589 16.6982 14.5734 16.5388 14.4655 16.5521C14.3609 16.5665 14.2558 16.5787 14.1508 16.5891C14.0463 16.5989 14.0595 16.7582 14.1652 16.7484C14.2726 16.738 14.38 16.7259 14.4868 16.7109L14.4874 16.7109ZM13.6813 16.779C13.7876 16.7756 13.7812 16.6156 13.6761 16.6191C13.5705 16.6226 13.4648 16.6243 13.3591 16.6237C13.2517 16.6237 13.2546 16.7837 13.358 16.7837C13.4654 16.7842 13.5739 16.7825 13.6813 16.779H13.6813ZM12.8735 16.7692C12.9786 16.7756 12.9884 16.6162 12.8828 16.6093C12.7765 16.6035 12.6714 16.596 12.5652 16.5873C12.4624 16.5775 12.444 16.7369 12.5519 16.7467C12.6593 16.7559 12.7661 16.7629 12.8735 16.7692H12.8735ZM12.0704 16.6965C12.1749 16.7097 12.1957 16.551 12.0906 16.5377C11.9855 16.5244 11.8804 16.51 11.7753 16.4938C11.6731 16.4776 11.6454 16.6358 11.7511 16.652C11.8573 16.6682 11.9635 16.6826 12.0704 16.6965L12.0704 16.6965ZM11.2747 16.5717C11.3792 16.5914 11.4069 16.4337 11.3041 16.4141C11.1996 16.3945 11.0957 16.3743 10.9912 16.3523C10.8919 16.3304 10.852 16.4857 10.9583 16.5094C11.0634 16.5313 11.1684 16.5521 11.2741 16.5717L11.2747 16.5717ZM36.3268 15.1912C36.4549 15.1582 36.5854 15.235 36.6184 15.3627C36.6513 15.4908 36.5745 15.6213 36.4469 15.6543C34.8394 16.0752 33.0973 16.3437 31.5995 16.0174C30.0629 15.6825 28.7916 14.7356 28.1858 12.7216C28.1477 12.5945 28.2204 12.4612 28.3475 12.423C28.4745 12.3849 28.6079 12.4577 28.646 12.5847C29.1917 14.3979 30.3286 15.2488 31.7017 15.548C33.1129 15.8558 34.781 15.5954 36.3273 15.1906L36.3268 15.1912ZM12.1409 1.95752C11.9498 1.95752 11.8349 2.17174 11.9411 2.3311C11.9867 2.39808 12.0595 2.4385 12.1409 2.4385H13.1017C13.2928 2.4385 13.4077 2.22428 13.3015 2.06492C13.2559 1.99794 13.1831 1.95752 13.1017 1.95752H12.1409ZM14.5435 1.95752C14.3524 1.95752 14.2375 2.17174 14.3437 2.3311C14.3893 2.39808 14.4621 2.4385 14.5435 2.4385H15.5043C15.6955 2.4385 15.8104 2.22428 15.7041 2.06492C15.6585 1.99794 15.5858 1.95752 15.5043 1.95752H14.5435ZM16.9461 1.95752C16.755 1.95752 16.6401 2.17174 16.7464 2.3311C16.792 2.39808 16.8647 2.4385 16.9461 2.4385H17.907C18.0981 2.4385 18.213 2.22428 18.1067 2.06492C18.0611 1.99794 17.9884 1.95752 17.907 1.95752H16.9461ZM19.3488 1.95752C19.1576 1.95752 19.0427 2.17174 19.149 2.3311C19.1946 2.39808 19.2673 2.4385 19.3488 2.4385H20.3096C20.5007 2.4385 20.6156 2.22428 20.5094 2.06492C20.4638 1.99794 20.391 1.95752 20.3096 1.95752H19.3488ZM21.7514 1.95752C21.5603 1.95752 21.4454 2.17174 21.5516 2.3311C21.5972 2.39808 21.67 2.4385 21.7514 2.4385H22.7122C22.9033 2.4385 23.0182 2.22428 22.912 2.06492C22.8664 1.99794 22.7936 1.95752 22.7122 1.95752H21.7514ZM24.154 1.95752C23.9629 1.95752 23.848 2.17174 23.9542 2.3311C23.9998 2.39808 24.0726 2.4385 24.154 2.4385H25.1148C25.306 2.4385 25.4208 2.22428 25.3146 2.06492C25.269 1.99794 25.1962 1.95752 25.1148 1.95752H24.154ZM26.5566 1.95752C26.3655 1.95752 26.2506 2.17174 26.3568 2.3311C26.4025 2.39808 26.4752 2.4385 26.5566 2.4385H27.5174C27.7086 2.4385 27.8235 2.22428 27.7172 2.06492C27.6716 1.99794 27.5989 1.95752 27.5174 1.95752H26.5566ZM28.9593 1.95752C28.7681 1.95752 28.6532 2.17174 28.7595 2.3311C28.8051 2.39808 28.8778 2.4385 28.9593 2.4385H29.9201C30.1112 2.4385 30.2261 2.22428 30.1199 2.06492C30.0742 1.99794 30.0015 1.95752 29.9201 1.95752H28.9593ZM31.3619 1.95752C31.1707 1.95752 31.0558 2.17174 31.1621 2.3311C31.2077 2.39808 31.2805 2.4385 31.3619 2.4385H32.3227C32.5138 2.4385 32.6287 2.22428 32.5225 2.06492C32.4769 1.99794 32.4041 1.95752 32.3227 1.95752H31.3619ZM33.7645 1.95752C33.5734 1.95752 33.4585 2.17174 33.5647 2.3311C33.6103 2.39808 33.6831 2.4385 33.7645 2.4385H34.7253C34.9164 2.4385 35.0313 2.22428 34.9251 2.06492C34.8795 1.99794 34.8067 1.95752 34.7253 1.95752H33.7645Z" stroke="black" stroke-width="0.75"/>
</g>
<defs>
<filter id="filter0_d_2698_26934" x="0.708984" y="0.625" width="42.582" height="82.25" filterUnits="userSpaceOnUse" color-interpolation-filters="sRGB">
<feFlood flood-opacity="0" result="BackgroundImageFix"/>
<feColorMatrix in="SourceAlpha" type="matrix" values="0 0 0 0 0 0 0 0 0 0 0 0 0 0 0 0 0 0 127 0" result="hardAlpha"/>
<feOffset dx="1.5" dy="1.5"/>
<feComposite in2="hardAlpha" operator="out"/>
<feColorMatrix type="matrix" values="0 0 0 0 0 0 0 0 0 0.639216 0 0 0 0 1 0 0 0 0.5 0"/>
<feBlend mode="normal" in2="BackgroundImageFix" result="effect1_dropShadow_2698_26934"/>
<feBlend mode="normal" in="SourceGraphic" in2="effect1_dropShadow_2698_26934" result="shape"/>
</filter>
</defs>
</svg>
