<svg width="83" height="82" viewBox="0 0 83 82" fill="none" xmlns="http://www.w3.org/2000/svg">
<g filter="url(#filter0_d_1_284)">
<path d="M10.4361 75.6255C13.3729 75.6255 15.7595 73.2382 15.7595 70.3127C15.7595 67.388 13.3729 65 10.4361 65C7.51224 65 5.125 67.3873 5.125 70.3127C5.125 73.2382 7.51158 75.6255 10.4361 75.6255ZM10.4361 66.8756C12.3358 66.8756 13.8852 68.4131 13.8852 70.3132C13.8852 72.2133 12.3358 73.7509 10.4361 73.7509C8.53653 73.7502 6.99952 72.2127 6.99952 70.3126C6.99952 68.413 8.53662 66.8754 10.4361 66.8754V66.8756Z" fill="black"/>
<path d="M10.4372 71.2642C10.9494 71.2642 11.3745 70.839 11.3745 70.3145C11.3745 69.7892 10.9494 69.377 10.4372 69.377C9.92443 69.3763 9.5 69.8015 9.5 70.3138C9.5 70.8268 9.92443 71.2642 10.4372 71.2642Z" fill="black"/>
<path d="M77.8646 6.66248C77.2273 6.39988 76.59 6.16244 75.9527 5.93726C75.9031 5.91209 75.8527 5.88757 75.7902 5.87467C74.0905 5.28687 72.3915 4.84942 70.6919 4.53712C70.6422 4.52486 70.6041 4.52486 70.5545 4.51196C67.0178 3.88673 63.4567 3.78673 59.8954 4.04933C59.8328 4.04933 59.758 4.04933 59.6954 4.06159C57.3714 4.23644 55.0468 4.54937 52.7226 4.96167C52.6729 4.96167 52.6349 4.97393 52.5852 4.98683C48.5363 5.71206 44.5004 6.71144 40.5141 7.69936C33.7665 9.37442 26.793 11.0868 20.1325 11.3119V9.68728C20.1325 4.35009 15.7837 0 10.4357 0C5.09879 0 0.75 4.35009 0.75 9.68794V70.3127C0.75 75.6499 5.09879 80 10.435 80C10.7227 80 10.9975 79.9877 11.2845 79.9626H19.2197C26.3801 79.8626 33.8024 78.0251 40.9752 76.2499C52.6464 73.3626 64.7056 70.3622 76.1142 74.7001C77.1637 75.1001 78.3383 74.9498 79.2632 74.3123C80.2004 73.6748 80.75 72.6121 80.75 71.4746V10.9869C80.7255 9.08735 79.6006 7.39941 77.8636 6.66189L77.8646 6.66248ZM73.6035 7.16252C71.9413 8.76267 70.9543 10.9874 70.9543 13.3502C70.9543 17.8499 74.4407 21.5626 78.852 21.9123V24.4996C73.0164 24.137 68.3678 19.2746 68.3678 13.3495C68.3678 10.837 69.2173 8.42463 70.7544 6.46184C71.7038 6.65024 72.654 6.88768 73.6035 7.16255V7.16252ZM78.852 49.5617C75.4778 49.212 72.8287 46.3743 72.8287 42.912C72.8287 39.462 75.4403 36.6495 78.852 36.2623V49.5617ZM78.852 34.3371C74.4407 34.6997 70.9543 38.3994 70.9543 42.8992C70.9543 47.3989 74.4407 51.1116 78.852 51.4612V54.0615C73.0164 53.6988 68.3678 48.8364 68.3678 42.8992C68.3678 36.9619 73.0164 32.1116 78.852 31.7491V34.3371ZM78.852 63.8987C74.8161 64.2239 71.5671 67.3488 71.042 71.3361C70.1925 71.1735 69.3424 71.0361 68.4928 70.9361C69.2049 65.6859 73.5536 61.6365 78.8647 61.3112L78.8641 63.8986L78.852 63.8987ZM78.852 10.986V19.9984C75.4778 19.6487 72.8287 16.811 72.8287 13.3487C72.8287 11.1486 73.9285 9.08633 75.7151 7.84883C76.1898 8.02369 76.6646 8.18629 77.14 8.3863C78.1765 8.82375 78.8518 9.84838 78.8518 10.9858L78.852 10.986ZM68.6923 6.13661C67.2803 8.26127 66.4928 10.7616 66.4928 13.3489C66.4928 20.3114 71.9788 26.0113 78.8515 26.3739V29.8736C71.9788 30.2363 66.4928 35.9361 66.4928 42.8987C66.4928 49.8736 71.9788 55.5733 78.8515 55.936V59.4358C72.5787 59.7733 67.43 64.5485 66.6179 70.7606C65.7433 70.6981 64.8557 70.6606 63.9688 70.6484C63.0819 64.2736 57.5708 59.3984 51.0605 59.3984C43.8626 59.3984 38.0019 65.2608 38.0019 72.4609C38.0019 73.3106 38.1141 74.1481 38.2767 74.9734C37.2517 75.2231 36.2275 75.4734 35.2025 75.7108C35.4773 74.6482 35.6276 73.5609 35.6276 72.4608C35.6276 65.2608 29.7669 59.3983 22.569 59.3983C21.7318 59.3983 20.9319 59.4983 20.1321 59.6609V55.7109C20.9319 55.8606 21.7317 55.9735 22.569 55.9735C29.7669 55.9735 35.6276 50.111 35.6276 42.8988C35.6276 35.6987 29.7669 29.8363 22.569 29.8363C21.7318 29.8363 20.9319 29.9485 20.1321 30.0989V26.1488C20.9319 26.2985 21.7317 26.4114 22.569 26.4114C29.7669 26.4114 35.6276 20.549 35.6276 13.3489C35.6276 12.5114 35.5154 11.6863 35.3528 10.8739C36.3777 10.6365 37.402 10.3861 38.4141 10.1487C38.1516 11.1985 38.0019 12.2611 38.0019 13.3483C38.0019 20.5484 43.8626 26.4108 51.0605 26.4108C58.2584 26.4108 64.1191 20.5484 64.1191 13.3483C64.1191 10.6236 63.2696 8.02337 61.7196 5.8361C64.0565 5.749 66.3807 5.83675 68.6924 6.13678L68.6923 6.13661ZM29.9667 76.8355C30.7413 75.5231 31.1664 74.023 31.1664 72.4603C31.1664 67.723 27.3052 63.8602 22.5689 63.8602C21.7316 63.8602 20.9196 63.9977 20.1319 64.2351V61.5729C20.9189 61.3981 21.7316 61.2729 22.5689 61.2729C28.7418 61.2729 33.7529 66.2857 33.7529 72.4603C33.7529 73.7353 33.5278 74.9851 33.1034 76.1852C32.0539 76.4233 31.0038 76.6356 29.9667 76.8356V76.8355ZM33.5284 11.2868C33.6536 11.9617 33.7536 12.6495 33.7536 13.3495C33.7536 19.5243 28.7423 24.537 22.5695 24.537C21.7323 24.537 20.9202 24.4118 20.1326 24.2369V21.587C20.9195 21.8244 21.7322 21.9496 22.5695 21.9496C27.3053 21.9496 31.167 18.0873 31.167 13.3495C31.167 12.8243 31.1044 12.312 31.0174 11.812C31.854 11.6494 32.6913 11.4745 33.5284 11.2867L33.5284 11.2868ZM20.1325 36.6497C20.8949 36.3497 21.7193 36.1871 22.5695 36.1871C26.281 36.1871 29.2926 39.1996 29.2926 42.9122C29.2926 46.6249 26.281 49.6374 22.5695 49.6374C21.72 49.6374 20.8949 49.4748 20.1325 49.1748V36.6497ZM20.1325 51.1368C20.9194 51.3743 21.7322 51.4995 22.5695 51.4995C27.3053 51.4995 31.167 47.6371 31.167 42.8994C31.167 38.1621 27.3058 34.2993 22.5695 34.2993C21.7322 34.2993 20.9201 34.4367 20.1325 34.6619V32.012C20.9194 31.8242 21.7322 31.7119 22.5695 31.7119C28.7424 31.7119 33.7535 36.7369 33.7535 42.8993C33.7535 49.0741 28.7422 54.0991 22.5695 54.0991C21.7322 54.0991 20.9201 53.974 20.1325 53.7991V51.1368ZM57.7831 13.3494C57.7831 17.0621 54.7715 20.0745 51.06 20.0745C47.3484 20.0745 44.3368 17.0621 44.3368 13.3494C44.3368 11.262 45.2741 9.36185 46.8861 8.08701C48.8483 7.63729 50.8098 7.21209 52.7842 6.86173C55.7339 7.63664 57.7831 10.2743 57.7831 13.3494ZM43.7376 8.83675C42.9126 10.1743 42.463 11.7118 42.463 13.3494C42.463 18.0866 46.3242 21.9495 51.0605 21.9495C55.7964 21.9495 59.658 18.0871 59.658 13.3494C59.658 10.4743 58.246 7.91209 56.0343 6.34936C57.1715 6.19966 58.3086 6.06158 59.4458 5.97449C61.2454 8.02433 62.2452 10.6245 62.2452 13.3617C62.2452 19.5365 57.2217 24.5491 51.0612 24.5491C44.9006 24.5491 39.8771 19.5241 39.8771 13.3617C39.8771 12.0867 40.1022 10.837 40.5267 9.63678C40.664 9.59936 40.8143 9.56194 40.9517 9.53677C41.8877 9.28708 42.8127 9.06189 43.7376 8.83671V8.83675ZM29.1793 12.1616C29.2419 12.5494 29.2916 12.9365 29.2916 13.3488C29.2916 17.0615 26.28 20.074 22.5684 20.074C21.7189 20.074 20.8939 19.9114 20.1315 19.6113V13.1992C23.1186 13.0869 26.1424 12.712 29.1793 12.1617L29.1793 12.1616ZM2.62524 9.68725C2.62524 5.37465 6.12395 1.87489 10.4353 1.87489C14.7466 1.87489 18.2575 5.37465 18.2575 9.68725V64.6118C16.4953 62.1994 13.6461 60.6243 10.4353 60.6243C7.2237 60.6243 4.38681 62.1992 2.62524 64.6118V9.68725ZM2.62524 70.3104C2.62524 65.9984 6.12445 62.498 10.4359 62.498C14.7474 62.498 18.2581 65.9978 18.2581 70.3104C18.2581 74.3475 15.184 77.673 11.248 78.0852H10.4359C10.3733 78.0852 10.3237 78.1104 10.2611 78.1227C6.03683 78.0233 2.62531 74.5605 2.62531 70.3103L2.62524 70.3104ZM19.1957 78.0852H16.1964C18.5707 76.3225 20.1323 73.4978 20.1323 70.3104V66.2107C20.9193 65.8984 21.732 65.7358 22.5693 65.7358C26.2808 65.7358 29.2924 68.7483 29.2924 72.461C29.2924 74.3108 28.5178 76.0736 27.1806 77.3357C24.4818 77.7609 21.8076 78.048 19.1959 78.0854L19.1957 78.0852ZM40.5136 74.4229C40.3763 74.4604 40.2389 74.4855 40.1015 74.523C39.9763 73.8481 39.8764 73.1602 39.8764 72.4602C39.8764 66.2854 44.8998 61.2728 51.0604 61.2728C56.5586 61.2728 61.2195 65.3229 62.0942 70.6601C61.2318 70.6853 60.3571 70.735 59.4948 70.7976C58.7201 66.8353 55.1835 63.8479 51.0726 63.8479C46.3368 63.8479 42.4751 67.7103 42.4751 72.448C42.4751 72.9481 42.5248 73.4229 42.6003 73.8978C41.901 74.0733 41.2012 74.2482 40.5135 74.423L40.5136 74.4229ZM44.4128 73.4732C44.3631 73.148 44.338 72.8105 44.338 72.4731C44.338 68.7604 47.3496 65.7479 51.0611 65.7479C54.2225 65.7479 56.9096 67.9978 57.5843 70.9981C53.1845 71.4729 48.7739 72.4227 44.4128 73.4731L44.4128 73.4732ZM78.1763 72.7731C77.7513 73.0609 77.2391 73.1228 76.7644 72.948C75.4775 72.4602 74.19 72.073 72.9032 71.7479C73.2405 68.6353 75.6775 66.1731 78.8516 65.8106V71.473C78.8516 71.9982 78.6013 72.4731 78.1762 72.7731L78.1763 72.7731Z" fill="black"/>
<path d="M60.2951 33.6628C55.1968 28.5629 46.912 28.5629 41.8256 33.6628C39.3642 36.1249 38.002 39.4129 38.002 42.9004C38.002 46.3878 39.3642 49.6753 41.8256 52.1381C44.287 54.6002 47.574 55.9629 51.0605 55.9629C54.547 55.9629 57.8334 54.6002 60.2954 52.1381C65.3931 47.0498 65.3931 38.7626 60.2948 33.6631L60.2951 33.6628ZM58.9702 50.8246C56.8584 52.9371 54.0468 54.0997 51.0603 54.0997C48.0738 54.0997 45.2622 52.937 43.1504 50.8246C41.0386 48.7122 39.8762 45.8997 39.8762 42.9123C39.8762 39.9249 41.0386 37.1125 43.1504 35C45.337 32.8128 48.199 31.7249 51.0603 31.7249C53.9216 31.7249 56.7836 32.8121 58.9702 35C63.3312 39.3623 63.3312 46.4625 58.9702 50.8248V50.8246Z" fill="black"/>
<path d="M51.0604 34.3008C46.3246 34.3008 42.4629 38.1631 42.4629 42.9009C42.4629 47.6381 46.3241 51.501 51.0604 51.501C55.7962 51.501 59.6579 47.6386 59.6579 42.9009C59.6579 38.1631 55.7961 34.3008 51.0604 34.3008ZM51.0604 49.6383C47.3488 49.6383 44.3372 46.6258 44.3372 42.9131C44.3372 39.2004 47.3488 36.1879 51.0604 36.1879C54.772 36.1879 57.7835 39.2004 57.7835 42.9131C57.7835 46.6258 54.772 49.6383 51.0604 49.6383Z" fill="black"/>
<path d="M39.8644 31.1869C40.6894 30.3617 41.139 29.2745 41.139 28.1118C41.139 25.7116 39.1897 23.7617 36.7902 23.7617C34.3907 23.7617 32.4414 25.7116 32.4414 28.1118C32.4414 30.512 34.3907 32.4619 36.7902 32.4619C37.9396 32.4619 39.0394 32.0122 39.8644 31.1869L39.8644 31.1869ZM34.3036 28.1118C34.3036 26.7491 35.4156 25.6368 36.7778 25.6368C38.1401 25.6368 39.2521 26.7492 39.2521 28.1118C39.2521 28.7744 38.9896 29.3868 38.5271 29.8617C38.0524 30.3366 37.4402 30.5869 36.7777 30.5869C35.4154 30.5869 34.3035 29.4746 34.3035 28.1119L34.3036 28.1118Z" fill="black"/>
<path d="M61.3457 58.0493C61.3457 60.4495 63.2951 62.3994 65.6945 62.3994C66.8569 62.3994 67.9437 61.9496 68.7687 61.1244C69.5937 60.2992 70.0433 59.212 70.0433 58.0493C70.0433 55.6491 68.094 53.6992 65.6945 53.6992C63.295 53.6992 61.3457 55.6491 61.3457 58.0493L61.3457 58.0493ZM68.1812 58.0615C68.1812 58.7242 67.9187 59.3365 67.4562 59.8114C66.9814 60.2863 66.3693 60.5366 65.7068 60.5366C64.3445 60.5366 63.2325 59.4243 63.2325 58.0616C63.2325 56.699 64.3446 55.5866 65.7068 55.5866C67.0691 55.5744 68.1811 56.6867 68.1811 58.0616L68.1812 58.0615Z" fill="black"/>
<path d="M61.3457 28.1119C61.3457 29.2746 61.7953 30.3618 62.6203 31.187C63.4453 32.0122 64.5322 32.462 65.6945 32.462C68.094 32.462 70.0433 30.5121 70.0433 28.1119C70.0433 25.7117 68.094 23.7618 65.6945 23.7618C63.295 23.7495 61.3457 25.7123 61.3457 28.1119L61.3457 28.1119ZM65.7067 25.6245C67.069 25.6245 68.181 26.7369 68.181 28.0995C68.181 29.4622 67.069 30.5745 65.7067 30.5745C65.0443 30.5745 64.4322 30.3119 63.9574 29.8493C63.4826 29.3867 63.2324 28.7621 63.2324 28.0994C63.2201 26.7367 64.3322 25.6244 65.7066 25.6244L65.7067 25.6245Z" fill="black"/>
<path d="M36.7902 53.6993C34.3907 53.6993 32.4414 55.6492 32.4414 58.0493C32.4414 59.212 32.891 60.2992 33.716 61.1244C34.541 61.9497 35.6278 62.3994 36.7902 62.3994C39.1896 62.3994 41.1389 60.4495 41.1389 58.0493C41.1389 55.6491 39.1896 53.6992 36.7902 53.6992L36.7902 53.6993ZM36.7779 60.5367C36.1155 60.5367 35.5034 60.2741 35.0286 59.8115C34.5538 59.3489 34.3036 58.7243 34.3036 58.0616C34.3036 56.6989 35.4156 55.5866 36.7778 55.5866C38.1401 55.5866 39.2521 56.699 39.2521 58.0616C39.2644 59.4243 38.1523 60.5366 36.7778 60.5366L36.7779 60.5367Z" fill="black"/>
</g>
<defs>
<filter id="filter0_d_1_284" x="0.75" y="0" width="82" height="82" filterUnits="userSpaceOnUse" color-interpolation-filters="sRGB">
<feFlood flood-opacity="0" result="BackgroundImageFix"/>
<feColorMatrix in="SourceAlpha" type="matrix" values="0 0 0 0 0 0 0 0 0 0 0 0 0 0 0 0 0 0 127 0" result="hardAlpha"/>
<feOffset dx="2" dy="2"/>
<feComposite in2="hardAlpha" operator="out"/>
<feColorMatrix type="matrix" values="0 0 0 0 0.8 0 0 0 0 1 0 0 0 0 0 0 0 0 1 0"/>
<feBlend mode="normal" in2="BackgroundImageFix" result="effect1_dropShadow_1_284"/>
<feBlend mode="normal" in="SourceGraphic" in2="effect1_dropShadow_1_284" result="shape"/>
</filter>
</defs>
</svg>
