<svg width="107" height="82" viewBox="0 0 107 82" fill="none" xmlns="http://www.w3.org/2000/svg">
<g filter="url(#filter0_d_2698_26858)">
<mask id="path-1-inside-1_2698_26858" fill="white">
<path d="M103.532 28.8581C102.522 28.5583 101.469 28.4301 100.417 28.4772C98.2877 28.556 96.2512 29.3688 94.6541 30.7789C94.1225 31.3197 93.6303 31.8976 93.183 32.5096C93.0794 31.3846 92.9404 30.2597 92.7503 29.1517L92.5942 28.702L93.6156 28.5289C95.7403 28.1187 97.6108 26.8717 98.8077 25.0676C100.048 22.9041 100.547 20.3932 100.226 17.92C100.137 17.0191 99.9975 16.1236 99.8113 15.2375C99.7232 14.7755 99.5896 14.3235 99.4134 13.8878C99.1129 13.2125 98.4183 12.803 97.6827 12.8664C96.6706 13.0054 95.6886 13.3098 94.7746 13.7665C92.9203 14.6619 91.4207 16.1554 90.5175 18.0067C90.1938 18.6573 89.9443 19.3426 89.7735 20.0487C89.1724 18.8009 88.5018 17.5872 87.7655 16.4143C88.2399 16.1879 88.6965 15.9276 89.1331 15.6355C90.8105 14.4441 91.954 12.6423 92.3179 10.6165C92.5636 8.25767 92.0869 5.87962 90.9504 3.79727C90.3717 2.74573 89.7064 1.74439 88.9602 0.803302C88.4271 0.146574 87.4976 -0.028808 86.7621 0.388394C85.9532 0.887501 85.2339 1.51953 84.6335 2.25737C83.368 3.75162 82.6208 5.61587 82.5049 7.57064C82.4971 8.29381 82.5435 9.01699 82.6432 9.73409C82.0374 9.11136 81.3799 8.50562 80.7047 7.91688C80.6282 7.23001 80.4891 6.55243 80.2897 5.89189C79.6979 3.90705 78.4231 2.19635 76.6893 1.063L76.4815 0.941701C74.645 0.0222864 72.5466 -0.228831 70.5454 0.232439C69.5943 0.431002 68.6749 0.756271 67.8111 1.2013C67.0601 1.61156 66.7225 2.50936 67.0153 3.31292C67.3498 4.16127 67.7493 4.98334 68.209 5.77068L68.4686 6.18636C69.2157 7.557 70.3152 8.70425 71.6535 9.50867C73.072 10.3076 74.682 10.7024 76.3093 10.6514H77.0185H78.4726C82.7291 14.377 85.9679 19.1248 87.8839 24.4473C89.8008 29.7699 90.3316 35.492 89.4276 41.0765C89.3357 41.469 89.2662 41.8669 89.2198 42.271C89.1387 42.855 89.0174 43.4338 88.8567 44.0016L88.0431 46.8225L86.9529 49.5746C86.7327 50.09 86.4839 50.5921 86.2081 51.0797C86.0181 51.4258 85.8272 51.7889 85.7059 52.0663C81.9787 58.8431 76.0335 64.1292 68.8673 67.0368C66.8423 67.8503 64.4542 69.0618 61.9446 70.3421C59.0721 71.7962 55.8872 73.4225 52.8068 74.6517C49.7264 73.4233 46.5416 71.796 43.669 70.3421C41.1427 69.0611 38.7535 67.8495 36.7463 67.0368C29.5894 64.1587 23.6419 58.9026 19.9062 52.153L19.3522 51.0976C19.0733 50.6054 18.8245 50.097 18.6082 49.574L17.518 46.8397L16.6874 43.9493C16.536 43.4271 16.4209 42.8955 16.3413 42.3577C16.3413 41.9598 16.22 41.5619 16.1512 41.2676L16.1505 41.2668C15.2079 35.6468 15.7217 29.8776 17.6432 24.5125C19.5639 19.1466 22.8275 14.3626 27.1233 10.6168H28.5944H29.2697C30.8968 10.6686 32.5062 10.273 33.9247 9.47488C35.2629 8.66981 36.3623 7.52323 37.1096 6.15179L37.4039 5.68434C37.8505 4.9125 38.2376 4.10818 38.5629 3.27841C38.8557 2.47488 38.5181 1.57785 37.7671 1.16758C36.9195 0.734135 36.0171 0.419686 35.0846 0.232694C33.0634 -0.245566 30.9387 0.0186838 29.0961 0.976727L28.8883 1.09803C27.1614 2.21911 25.8921 3.91893 25.3064 5.8921C25.0947 6.56273 24.9503 7.25269 24.8738 7.95111C24.1985 8.53986 23.541 9.1456 22.9352 9.76832C23.0349 9.0521 23.0813 8.32893 23.0735 7.60488C22.9577 5.65014 22.2105 3.78572 20.9449 2.29239C20.3446 1.55453 19.6253 0.922528 18.8163 0.422649C18.0807 0.00542724 17.1513 0.18158 16.6182 0.838328C15.8556 1.80488 15.1781 2.83563 14.5932 3.91873C13.4722 5.98704 13.007 8.34749 13.2605 10.6862C13.639 12.6864 14.781 14.462 16.4453 15.6355C16.854 15.943 17.2882 16.215 17.7433 16.4491C17 17.6181 16.3302 18.8319 15.7361 20.0835C15.5646 19.3766 15.315 18.692 14.9913 18.0415C14.0897 16.1949 12.5976 14.703 10.7511 13.8013C9.82082 13.3415 8.82104 13.0379 7.79189 12.9011C7.05635 12.837 6.36099 13.2473 6.06122 13.9218C5.88429 14.3575 5.7514 14.8103 5.66332 15.2723C5.47943 16.1346 5.34577 17.0069 5.26542 17.8854C4.92469 20.3934 5.42304 22.9429 6.68396 25.1372C7.88076 26.9405 9.75132 28.1875 11.876 28.5985L12.8974 28.7716L12.7939 29.1873C12.6038 30.3122 12.4647 31.4372 12.3612 32.562C11.9131 31.9509 11.4217 31.3714 10.8901 30.8306C9.29235 29.4205 7.25571 28.6078 5.12629 28.5289C4.07475 28.4895 3.02317 28.6177 2.01107 28.9098C1.27552 29.157 0.794196 29.8647 0.834368 30.6404C0.834368 30.6404 0.834367 31.0901 0.937899 31.7484L0.938672 31.7476C1.04916 32.7459 1.27553 33.7271 1.61318 34.6728C1.99872 35.8402 2.50401 36.966 3.11903 38.0307C3.82675 39.1278 4.74464 40.075 5.81849 40.8168C7.07245 41.6388 8.54267 42.0661 10.0417 42.0452C10.724 42.0197 11.4023 41.927 12.0667 41.7686C12.3093 41.7686 12.5164 41.6651 12.742 41.6126C12.7505 41.6643 12.7497 41.7169 12.7412 41.7686C12.8278 42.1148 12.8795 42.4439 12.9313 42.7723C13.0209 43.4761 13.1723 44.1715 13.3817 44.8491L13.503 45.2817C12.9537 44.907 12.375 44.5771 11.7724 44.2951C8.76137 42.9562 5.28617 43.1694 2.46151 44.8668C1.75148 45.3289 1.48029 46.2367 1.821 47.0125C2.37961 48.2533 3.03944 49.4455 3.79429 50.5781C4.52211 51.6922 5.41448 52.6905 6.44213 53.5372C7.44654 54.4443 8.62397 55.1389 9.90348 55.5792C10.6182 55.7848 11.3576 55.889 12.1015 55.8906C13.6213 55.8721 15.1125 55.4796 16.4452 54.7487L17.224 54.299C17.8128 55.3204 18.4525 56.3062 19.1448 57.276C18.3822 57.1037 17.6065 56.9932 16.8261 56.9468C14.7176 56.9128 12.6647 57.6236 11.0284 58.954C10.2071 59.6061 9.49937 60.3903 8.93379 61.2735C8.55211 61.9186 8.62937 62.7353 9.12463 63.2985C10.0773 64.3076 11.1735 65.1706 12.3781 65.8597C13.4018 66.5041 14.5004 67.0217 15.6494 67.3996C16.5719 67.6661 17.5269 67.806 18.4873 67.8152C18.8102 67.833 19.134 67.833 19.4569 67.8152C21.5941 67.4907 23.5132 66.3256 24.7872 64.5788L25.2029 64.0078C26.2112 64.8685 27.2619 65.6774 28.3521 66.4307C27.7209 66.464 27.0943 66.5621 26.4832 66.7251C23.3533 67.541 20.8083 69.8156 19.6471 72.8343C19.3697 73.6417 19.722 74.531 20.4777 74.9281C21.6853 75.5393 22.9416 76.0492 24.2333 76.4517C25.4549 76.811 26.7166 77.015 27.989 77.0575H28.56C29.7475 77.0722 30.9258 76.8427 32.0213 76.3822C34.0742 75.5022 35.6975 73.8481 36.5381 71.779C36.6818 71.4568 36.8093 71.1269 36.919 70.7924C38.4936 71.5016 40.2769 72.4195 42.111 73.3536C43.9452 74.2884 45.8837 75.2573 47.8223 76.1745C45.9494 76.6604 43.9839 76.6604 42.111 76.1745C41.666 75.9983 41.1669 76.0138 40.7342 76.2185C40.3008 76.4233 39.9716 76.798 39.8256 77.2546C39.6788 77.7104 39.7283 78.2072 39.9608 78.6252C40.1941 79.044 40.5905 79.3476 41.0556 79.4628C42.2146 79.8274 43.423 80.0082 44.6382 79.9997C47.4459 79.8954 50.2142 79.3105 52.8242 78.269C55.4333 79.3105 58.2024 79.8954 61.0102 79.9997C62.2248 80.0082 63.434 79.8274 64.5928 79.4628C65.058 79.3476 65.4535 79.044 65.6869 78.6252C65.9202 78.2072 65.9696 77.7104 65.8228 77.2546C65.676 76.798 65.3477 76.4233 64.9142 76.2185C64.4808 76.0137 63.9824 75.9983 63.5366 76.1745C61.6646 76.6604 59.6983 76.6604 57.8254 76.1745C59.7639 75.2574 61.6677 74.3055 63.5366 73.3536C65.4056 72.4017 67.1711 71.5016 68.7287 70.7924C68.8391 71.1331 68.9659 71.4684 69.1096 71.796C69.9363 73.8473 71.5325 75.4929 73.5575 76.3824C74.6539 76.8367 75.8321 77.0607 77.0189 77.0399H77.5898C78.8708 76.9827 80.1388 76.7617 81.3625 76.3824C82.6551 75.9798 83.9107 75.4707 85.1182 74.8595C85.8738 74.4616 86.2269 73.5723 85.9487 72.7649C85.5756 71.7945 85.0494 70.889 84.3911 70.0825C83.0761 68.4028 81.2557 67.1898 79.1991 66.6211C78.588 66.4589 77.9621 66.36 77.3301 66.3275C78.4195 65.5904 79.471 64.7993 80.4802 63.9564L80.8958 64.5274C82.1552 66.2418 84.039 67.3922 86.1397 67.7292C86.4627 67.747 86.7856 67.747 87.1086 67.7292C88.0875 67.7184 89.0602 67.5732 89.9989 67.2965C91.1215 66.9226 92.1962 66.4173 93.2007 65.7907C94.4114 65.0961 95.5131 64.2269 96.472 63.2125C96.9673 62.6492 97.0438 61.8326 96.6621 61.1875C96.1019 60.3106 95.4004 59.5325 94.5853 58.8858C93.0083 57.5909 91.0351 56.8762 88.9953 56.8608H88.7527C87.9723 56.9056 87.1966 57.0161 86.434 57.1892C87.1092 56.2203 87.749 55.2337 88.3377 54.1952L89.1335 54.6626C90.4446 55.3827 91.9127 55.769 93.4084 55.7876C94.1686 55.7876 94.9258 55.6825 95.6582 55.4762C96.9354 55.0389 98.1128 54.3505 99.1196 53.4512C100.108 52.6222 100.97 51.6549 101.681 50.5787C102.449 49.4298 103.12 48.2206 103.688 46.9613C104.029 46.1856 103.758 45.2778 103.048 44.8149C102.131 44.2624 101.132 43.8591 100.088 43.6211C97.9589 43.1421 95.7323 43.3608 93.7366 44.2439C93.1324 44.522 92.5537 44.8519 92.0059 45.2305L92.1095 44.8674C92.3266 44.1952 92.4896 43.506 92.5947 42.8076C92.5947 42.4784 92.6982 42.1501 92.8025 41.7174L93.4948 41.8905C94.1453 42.0102 94.8059 42.0744 95.4673 42.0806C96.9693 42.1037 98.4419 41.6695 99.6906 40.8343C100.799 40.0802 101.737 39.1013 102.443 37.9618C103.036 36.9381 103.518 35.8525 103.879 34.7253C104.224 33.7997 104.45 32.8347 104.553 31.8528C104.657 31.1257 104.675 30.6761 104.675 30.6761C104.761 29.8788 104.288 29.1254 103.532 28.8581ZM92.5943 24.4618V23.7C92.6507 22.2892 92.9613 20.8992 93.5113 19.599C94.0916 18.4377 95.0326 17.4958 96.1938 16.9165L96.4882 16.7782C96.5847 17.3052 96.6535 17.8359 96.696 18.3698C96.9124 20.0541 96.6041 21.7647 95.8129 23.2675C95.082 24.2858 93.9718 24.9658 92.7325 25.1543H92.4559C92.5942 24.9642 92.5943 24.7214 92.5943 24.4618ZM87.2988 4.5422C87.4718 4.83657 87.6797 5.16492 87.8527 5.49407C88.6462 6.8987 89.0125 8.50426 88.9081 10.1143C88.6671 11.2446 87.9965 12.2374 87.0392 12.8834C87.0392 12.6755 86.8831 12.4855 86.8143 12.2946L86.8136 12.2954C86.275 10.8614 85.9884 9.34474 85.966 7.81264C86.0386 6.6058 86.5068 5.45619 87.2988 4.5422ZM76.7935 7.25946H76.4643C75.4576 7.30891 74.4556 7.09334 73.557 6.63596L73.3144 6.49766C72.5224 5.95682 71.8796 5.22437 71.4454 4.36902L71.2028 3.98812L70.9957 3.69374H71.3588C72.5309 3.46427 73.7462 3.62189 74.8202 4.1434C75.8455 4.81404 76.6189 5.80687 77.0183 6.9651C77.0183 7.06863 77.0183 7.17294 77.1048 7.25947L76.7935 7.25946ZM28.56 6.93031C28.9239 5.77833 29.661 4.78012 30.6538 4.09161C31.785 3.54845 33.0675 3.40861 34.2882 3.69371H34.5826C34.5486 3.76634 34.5084 3.83587 34.4613 3.90155L34.1847 4.33422C33.7513 5.18951 33.1077 5.92195 32.3158 6.46285L32.0214 6.63592C31.1058 7.0964 30.0844 7.30578 29.0622 7.24166H28.56L28.56 6.93031ZM17.5871 5.54577C17.795 5.16486 18.0028 4.81873 18.1929 4.52435C18.967 5.44068 19.4283 6.58099 19.5086 7.77783C19.4878 9.28445 19.2127 10.7764 18.695 12.191L18.4354 12.8485C17.472 12.2149 16.7998 11.226 16.5665 10.0972C16.473 8.50554 16.8523 6.92161 17.6566 5.54557L17.5871 5.54577ZM9.66082 23.2675C8.83565 21.7392 8.51424 19.9885 8.74372 18.2663C8.74372 17.7302 8.86502 17.2109 8.95156 16.7783L9.24593 16.9166C10.411 17.4821 11.3544 18.4201 11.9284 19.5814C12.4785 20.8825 12.7891 22.2718 12.8455 23.6832L12.9838 24.462V25.2756H12.7072C11.4594 25.0523 10.3576 24.3267 9.66082 23.2675ZM11.3915 38.4108C10.17 38.7214 8.87578 38.5344 7.79189 37.8916C7.11429 37.425 6.52788 36.8385 6.06121 36.1609C5.58372 35.3358 5.2005 34.4589 4.91928 33.5479C4.73539 33.0287 4.59091 32.4964 4.48661 31.9555H5.0228C6.32932 31.9965 7.58183 32.4848 8.57079 33.3401C9.7359 34.5106 10.67 35.8906 11.3229 37.4071V37.5631C11.4612 37.8397 11.5995 38.0993 11.7038 38.3419L11.3915 38.4108ZM14.8528 51.6852C13.6707 52.3883 12.2576 52.5938 10.9241 52.2562C10.0982 51.9595 9.3387 51.5005 8.69204 50.9064C7.92868 50.2744 7.26887 49.5273 6.73653 48.6913C6.3734 48.1374 6.06125 47.6182 5.80165 47.1507L6.23432 47.0294C7.63276 46.7103 9.09696 46.8571 10.405 47.4451C11.1861 47.8113 11.9093 48.2896 12.5514 48.8644L12.7415 49.0375C13.382 49.5915 14.0564 50.1624 14.4721 50.6299L15.1814 51.4257L14.8528 51.6852ZM22.0699 62.3636C21.3444 63.3827 20.2411 64.068 19.0065 64.2673C18.2022 64.3423 17.3909 64.2596 16.6183 64.0247C15.7298 63.7265 14.8807 63.3201 14.0919 62.8132C13.6315 62.5622 13.1965 62.267 12.7939 61.9309L13.1748 61.6018C14.1677 60.8307 15.3791 60.3942 16.6354 60.3563C18.2626 60.4583 19.8519 60.8879 21.3083 61.6195H21.4643L22.2261 61.9309L22.0699 62.3636ZM33.3193 70.3765C32.8402 71.6405 31.8644 72.6535 30.6198 73.1804C29.8286 73.4957 28.9749 73.62 28.1272 73.5435C27.1553 73.5196 26.1903 73.3743 25.2547 73.1109L23.6801 72.5399L23.8702 72.2633C24.7579 71.1677 25.9693 70.3804 27.3315 70.0134C28.1899 69.8296 29.0668 69.7484 29.9446 69.7708C30.7612 69.7523 31.5771 69.804 32.3845 69.9269L33.4399 70.083C33.4399 70.083 33.371 70.273 33.3193 70.3765ZM78.3169 70.0134C79.6836 70.3781 80.8974 71.1731 81.7782 72.2803L81.9683 72.5399L80.3937 73.1108C79.458 73.3743 78.4923 73.5196 77.5212 73.5435C76.662 73.6169 75.7974 73.4925 74.994 73.1804C73.7701 72.6434 72.8105 71.6405 72.3291 70.3943L72.1908 70.0829L72.19 70.0822C72.5215 70.0489 72.8514 69.9972 73.1767 69.9269C74.0366 69.804 74.9051 69.7523 75.7727 69.7708C76.6218 69.7523 77.4702 69.8334 78.2999 70.0134L78.3169 70.0134ZM88.9436 60.4082C90.2022 60.4515 91.4144 60.8942 92.405 61.6715L92.7681 61.9828C92.3493 62.3189 91.9035 62.6195 91.4353 62.8829C90.6781 63.3713 89.8646 63.7661 89.0124 64.0597C88.2197 64.3139 87.3829 64.4019 86.5546 64.3193C85.3153 64.1106 84.2143 63.4045 83.509 62.3637L83.2664 62.0524L84.0282 61.741H84.1843C85.6407 60.9831 87.237 60.5295 88.8741 60.4082H88.9436ZM93.1142 48.8991C93.7524 48.3313 94.4694 47.8592 95.2429 47.4968C96.5509 46.9089 98.0159 46.7629 99.4143 47.0819L99.847 47.2032C99.5874 47.6707 99.2582 48.2246 98.8781 48.7956L98.8773 48.7948C98.3496 49.5883 97.7083 50.2999 96.9736 50.9065C96.3292 51.4906 95.5767 51.9433 94.7585 52.2392C93.4219 52.5869 92.0017 52.3876 90.8128 51.6853L90.4497 51.4774L91.1419 50.6986C91.5916 50.2142 92.2669 49.6432 92.8726 49.0893L93.1142 48.8991ZM100.712 33.5479C100.405 34.4249 100.005 35.2663 99.5177 36.0575C99.0642 36.7699 98.4762 37.3872 97.7871 37.8747C96.6977 38.5369 95.3865 38.73 94.1526 38.4109L93.7717 38.3074C93.8753 38.0648 94.0143 37.8052 94.1526 37.5286L94.2392 37.3725C94.892 35.8559 95.8253 34.4759 96.9912 33.3055C97.984 32.4472 99.2435 31.9581 100.556 31.921H101.075C100.967 32.4726 100.823 33.0158 100.643 33.5481L100.712 33.5479Z"/>
</mask>
<path d="M103.532 28.8581C102.522 28.5583 101.469 28.4301 100.417 28.4772C98.2877 28.556 96.2512 29.3688 94.6541 30.7789C94.1225 31.3197 93.6303 31.8976 93.183 32.5096C93.0794 31.3846 92.9404 30.2597 92.7503 29.1517L92.5942 28.702L93.6156 28.5289C95.7403 28.1187 97.6108 26.8717 98.8077 25.0676C100.048 22.9041 100.547 20.3932 100.226 17.92C100.137 17.0191 99.9975 16.1236 99.8113 15.2375C99.7232 14.7755 99.5896 14.3235 99.4134 13.8878C99.1129 13.2125 98.4183 12.803 97.6827 12.8664C96.6706 13.0054 95.6886 13.3098 94.7746 13.7665C92.9203 14.6619 91.4207 16.1554 90.5175 18.0067C90.1938 18.6573 89.9443 19.3426 89.7735 20.0487C89.1724 18.8009 88.5018 17.5872 87.7655 16.4143C88.2399 16.1879 88.6965 15.9276 89.1331 15.6355C90.8105 14.4441 91.954 12.6423 92.3179 10.6165C92.5636 8.25767 92.0869 5.87962 90.9504 3.79727C90.3717 2.74573 89.7064 1.74439 88.9602 0.803302C88.4271 0.146574 87.4976 -0.028808 86.7621 0.388394C85.9532 0.887501 85.2339 1.51953 84.6335 2.25737C83.368 3.75162 82.6208 5.61587 82.5049 7.57064C82.4971 8.29381 82.5435 9.01699 82.6432 9.73409C82.0374 9.11136 81.3799 8.50562 80.7047 7.91688C80.6282 7.23001 80.4891 6.55243 80.2897 5.89189C79.6979 3.90705 78.4231 2.19635 76.6893 1.063L76.4815 0.941701C74.645 0.0222864 72.5466 -0.228831 70.5454 0.232439C69.5943 0.431002 68.6749 0.756271 67.8111 1.2013C67.0601 1.61156 66.7225 2.50936 67.0153 3.31292C67.3498 4.16127 67.7493 4.98334 68.209 5.77068L68.4686 6.18636C69.2157 7.557 70.3152 8.70425 71.6535 9.50867C73.072 10.3076 74.682 10.7024 76.3093 10.6514H77.0185H78.4726C82.7291 14.377 85.9679 19.1248 87.8839 24.4473C89.8008 29.7699 90.3316 35.492 89.4276 41.0765C89.3357 41.469 89.2662 41.8669 89.2198 42.271C89.1387 42.855 89.0174 43.4338 88.8567 44.0016L88.0431 46.8225L86.9529 49.5746C86.7327 50.09 86.4839 50.5921 86.2081 51.0797C86.0181 51.4258 85.8272 51.7889 85.7059 52.0663C81.9787 58.8431 76.0335 64.1292 68.8673 67.0368C66.8423 67.8503 64.4542 69.0618 61.9446 70.3421C59.0721 71.7962 55.8872 73.4225 52.8068 74.6517C49.7264 73.4233 46.5416 71.796 43.669 70.3421C41.1427 69.0611 38.7535 67.8495 36.7463 67.0368C29.5894 64.1587 23.6419 58.9026 19.9062 52.153L19.3522 51.0976C19.0733 50.6054 18.8245 50.097 18.6082 49.574L17.518 46.8397L16.6874 43.9493C16.536 43.4271 16.4209 42.8955 16.3413 42.3577C16.3413 41.9598 16.22 41.5619 16.1512 41.2676L16.1505 41.2668C15.2079 35.6468 15.7217 29.8776 17.6432 24.5125C19.5639 19.1466 22.8275 14.3626 27.1233 10.6168H28.5944H29.2697C30.8968 10.6686 32.5062 10.273 33.9247 9.47488C35.2629 8.66981 36.3623 7.52323 37.1096 6.15179L37.4039 5.68434C37.8505 4.9125 38.2376 4.10818 38.5629 3.27841C38.8557 2.47488 38.5181 1.57785 37.7671 1.16758C36.9195 0.734135 36.0171 0.419686 35.0846 0.232694C33.0634 -0.245566 30.9387 0.0186838 29.0961 0.976727L28.8883 1.09803C27.1614 2.21911 25.8921 3.91893 25.3064 5.8921C25.0947 6.56273 24.9503 7.25269 24.8738 7.95111C24.1985 8.53986 23.541 9.1456 22.9352 9.76832C23.0349 9.0521 23.0813 8.32893 23.0735 7.60488C22.9577 5.65014 22.2105 3.78572 20.9449 2.29239C20.3446 1.55453 19.6253 0.922528 18.8163 0.422649C18.0807 0.00542724 17.1513 0.18158 16.6182 0.838328C15.8556 1.80488 15.1781 2.83563 14.5932 3.91873C13.4722 5.98704 13.007 8.34749 13.2605 10.6862C13.639 12.6864 14.781 14.462 16.4453 15.6355C16.854 15.943 17.2882 16.215 17.7433 16.4491C17 17.6181 16.3302 18.8319 15.7361 20.0835C15.5646 19.3766 15.315 18.692 14.9913 18.0415C14.0897 16.1949 12.5976 14.703 10.7511 13.8013C9.82082 13.3415 8.82104 13.0379 7.79189 12.9011C7.05635 12.837 6.36099 13.2473 6.06122 13.9218C5.88429 14.3575 5.7514 14.8103 5.66332 15.2723C5.47943 16.1346 5.34577 17.0069 5.26542 17.8854C4.92469 20.3934 5.42304 22.9429 6.68396 25.1372C7.88076 26.9405 9.75132 28.1875 11.876 28.5985L12.8974 28.7716L12.7939 29.1873C12.6038 30.3122 12.4647 31.4372 12.3612 32.562C11.9131 31.9509 11.4217 31.3714 10.8901 30.8306C9.29235 29.4205 7.25571 28.6078 5.12629 28.5289C4.07475 28.4895 3.02317 28.6177 2.01107 28.9098C1.27552 29.157 0.794196 29.8647 0.834368 30.6404C0.834368 30.6404 0.834367 31.0901 0.937899 31.7484L0.938672 31.7476C1.04916 32.7459 1.27553 33.7271 1.61318 34.6728C1.99872 35.8402 2.50401 36.966 3.11903 38.0307C3.82675 39.1278 4.74464 40.075 5.81849 40.8168C7.07245 41.6388 8.54267 42.0661 10.0417 42.0452C10.724 42.0197 11.4023 41.927 12.0667 41.7686C12.3093 41.7686 12.5164 41.6651 12.742 41.6126C12.7505 41.6643 12.7497 41.7169 12.7412 41.7686C12.8278 42.1148 12.8795 42.4439 12.9313 42.7723C13.0209 43.4761 13.1723 44.1715 13.3817 44.8491L13.503 45.2817C12.9537 44.907 12.375 44.5771 11.7724 44.2951C8.76137 42.9562 5.28617 43.1694 2.46151 44.8668C1.75148 45.3289 1.48029 46.2367 1.821 47.0125C2.37961 48.2533 3.03944 49.4455 3.79429 50.5781C4.52211 51.6922 5.41448 52.6905 6.44213 53.5372C7.44654 54.4443 8.62397 55.1389 9.90348 55.5792C10.6182 55.7848 11.3576 55.889 12.1015 55.8906C13.6213 55.8721 15.1125 55.4796 16.4452 54.7487L17.224 54.299C17.8128 55.3204 18.4525 56.3062 19.1448 57.276C18.3822 57.1037 17.6065 56.9932 16.8261 56.9468C14.7176 56.9128 12.6647 57.6236 11.0284 58.954C10.2071 59.6061 9.49937 60.3903 8.93379 61.2735C8.55211 61.9186 8.62937 62.7353 9.12463 63.2985C10.0773 64.3076 11.1735 65.1706 12.3781 65.8597C13.4018 66.5041 14.5004 67.0217 15.6494 67.3996C16.5719 67.6661 17.5269 67.806 18.4873 67.8152C18.8102 67.833 19.134 67.833 19.4569 67.8152C21.5941 67.4907 23.5132 66.3256 24.7872 64.5788L25.2029 64.0078C26.2112 64.8685 27.2619 65.6774 28.3521 66.4307C27.7209 66.464 27.0943 66.5621 26.4832 66.7251C23.3533 67.541 20.8083 69.8156 19.6471 72.8343C19.3697 73.6417 19.722 74.531 20.4777 74.9281C21.6853 75.5393 22.9416 76.0492 24.2333 76.4517C25.4549 76.811 26.7166 77.015 27.989 77.0575H28.56C29.7475 77.0722 30.9258 76.8427 32.0213 76.3822C34.0742 75.5022 35.6975 73.8481 36.5381 71.779C36.6818 71.4568 36.8093 71.1269 36.919 70.7924C38.4936 71.5016 40.2769 72.4195 42.111 73.3536C43.9452 74.2884 45.8837 75.2573 47.8223 76.1745C45.9494 76.6604 43.9839 76.6604 42.111 76.1745C41.666 75.9983 41.1669 76.0138 40.7342 76.2185C40.3008 76.4233 39.9716 76.798 39.8256 77.2546C39.6788 77.7104 39.7283 78.2072 39.9608 78.6252C40.1941 79.044 40.5905 79.3476 41.0556 79.4628C42.2146 79.8274 43.423 80.0082 44.6382 79.9997C47.4459 79.8954 50.2142 79.3105 52.8242 78.269C55.4333 79.3105 58.2024 79.8954 61.0102 79.9997C62.2248 80.0082 63.434 79.8274 64.5928 79.4628C65.058 79.3476 65.4535 79.044 65.6869 78.6252C65.9202 78.2072 65.9696 77.7104 65.8228 77.2546C65.676 76.798 65.3477 76.4233 64.9142 76.2185C64.4808 76.0137 63.9824 75.9983 63.5366 76.1745C61.6646 76.6604 59.6983 76.6604 57.8254 76.1745C59.7639 75.2574 61.6677 74.3055 63.5366 73.3536C65.4056 72.4017 67.1711 71.5016 68.7287 70.7924C68.8391 71.1331 68.9659 71.4684 69.1096 71.796C69.9363 73.8473 71.5325 75.4929 73.5575 76.3824C74.6539 76.8367 75.8321 77.0607 77.0189 77.0399H77.5898C78.8708 76.9827 80.1388 76.7617 81.3625 76.3824C82.6551 75.9798 83.9107 75.4707 85.1182 74.8595C85.8738 74.4616 86.2269 73.5723 85.9487 72.7649C85.5756 71.7945 85.0494 70.889 84.3911 70.0825C83.0761 68.4028 81.2557 67.1898 79.1991 66.6211C78.588 66.4589 77.9621 66.36 77.3301 66.3275C78.4195 65.5904 79.471 64.7993 80.4802 63.9564L80.8958 64.5274C82.1552 66.2418 84.039 67.3922 86.1397 67.7292C86.4627 67.747 86.7856 67.747 87.1086 67.7292C88.0875 67.7184 89.0602 67.5732 89.9989 67.2965C91.1215 66.9226 92.1962 66.4173 93.2007 65.7907C94.4114 65.0961 95.5131 64.2269 96.472 63.2125C96.9673 62.6492 97.0438 61.8326 96.6621 61.1875C96.1019 60.3106 95.4004 59.5325 94.5853 58.8858C93.0083 57.5909 91.0351 56.8762 88.9953 56.8608H88.7527C87.9723 56.9056 87.1966 57.0161 86.434 57.1892C87.1092 56.2203 87.749 55.2337 88.3377 54.1952L89.1335 54.6626C90.4446 55.3827 91.9127 55.769 93.4084 55.7876C94.1686 55.7876 94.9258 55.6825 95.6582 55.4762C96.9354 55.0389 98.1128 54.3505 99.1196 53.4512C100.108 52.6222 100.97 51.6549 101.681 50.5787C102.449 49.4298 103.12 48.2206 103.688 46.9613C104.029 46.1856 103.758 45.2778 103.048 44.8149C102.131 44.2624 101.132 43.8591 100.088 43.6211C97.9589 43.1421 95.7323 43.3608 93.7366 44.2439C93.1324 44.522 92.5537 44.8519 92.0059 45.2305L92.1095 44.8674C92.3266 44.1952 92.4896 43.506 92.5947 42.8076C92.5947 42.4784 92.6982 42.1501 92.8025 41.7174L93.4948 41.8905C94.1453 42.0102 94.8059 42.0744 95.4673 42.0806C96.9693 42.1037 98.4419 41.6695 99.6906 40.8343C100.799 40.0802 101.737 39.1013 102.443 37.9618C103.036 36.9381 103.518 35.8525 103.879 34.7253C104.224 33.7997 104.45 32.8347 104.553 31.8528C104.657 31.1257 104.675 30.6761 104.675 30.6761C104.761 29.8788 104.288 29.1254 103.532 28.8581ZM92.5943 24.4618V23.7C92.6507 22.2892 92.9613 20.8992 93.5113 19.599C94.0916 18.4377 95.0326 17.4958 96.1938 16.9165L96.4882 16.7782C96.5847 17.3052 96.6535 17.8359 96.696 18.3698C96.9124 20.0541 96.6041 21.7647 95.8129 23.2675C95.082 24.2858 93.9718 24.9658 92.7325 25.1543H92.4559C92.5942 24.9642 92.5943 24.7214 92.5943 24.4618ZM87.2988 4.5422C87.4718 4.83657 87.6797 5.16492 87.8527 5.49407C88.6462 6.8987 89.0125 8.50426 88.9081 10.1143C88.6671 11.2446 87.9965 12.2374 87.0392 12.8834C87.0392 12.6755 86.8831 12.4855 86.8143 12.2946L86.8136 12.2954C86.275 10.8614 85.9884 9.34474 85.966 7.81264C86.0386 6.6058 86.5068 5.45619 87.2988 4.5422ZM76.7935 7.25946H76.4643C75.4576 7.30891 74.4556 7.09334 73.557 6.63596L73.3144 6.49766C72.5224 5.95682 71.8796 5.22437 71.4454 4.36902L71.2028 3.98812L70.9957 3.69374H71.3588C72.5309 3.46427 73.7462 3.62189 74.8202 4.1434C75.8455 4.81404 76.6189 5.80687 77.0183 6.9651C77.0183 7.06863 77.0183 7.17294 77.1048 7.25947L76.7935 7.25946ZM28.56 6.93031C28.9239 5.77833 29.661 4.78012 30.6538 4.09161C31.785 3.54845 33.0675 3.40861 34.2882 3.69371H34.5826C34.5486 3.76634 34.5084 3.83587 34.4613 3.90155L34.1847 4.33422C33.7513 5.18951 33.1077 5.92195 32.3158 6.46285L32.0214 6.63592C31.1058 7.0964 30.0844 7.30578 29.0622 7.24166H28.56L28.56 6.93031ZM17.5871 5.54577C17.795 5.16486 18.0028 4.81873 18.1929 4.52435C18.967 5.44068 19.4283 6.58099 19.5086 7.77783C19.4878 9.28445 19.2127 10.7764 18.695 12.191L18.4354 12.8485C17.472 12.2149 16.7998 11.226 16.5665 10.0972C16.473 8.50554 16.8523 6.92161 17.6566 5.54557L17.5871 5.54577ZM9.66082 23.2675C8.83565 21.7392 8.51424 19.9885 8.74372 18.2663C8.74372 17.7302 8.86502 17.2109 8.95156 16.7783L9.24593 16.9166C10.411 17.4821 11.3544 18.4201 11.9284 19.5814C12.4785 20.8825 12.7891 22.2718 12.8455 23.6832L12.9838 24.462V25.2756H12.7072C11.4594 25.0523 10.3576 24.3267 9.66082 23.2675ZM11.3915 38.4108C10.17 38.7214 8.87578 38.5344 7.79189 37.8916C7.11429 37.425 6.52788 36.8385 6.06121 36.1609C5.58372 35.3358 5.2005 34.4589 4.91928 33.5479C4.73539 33.0287 4.59091 32.4964 4.48661 31.9555H5.0228C6.32932 31.9965 7.58183 32.4848 8.57079 33.3401C9.7359 34.5106 10.67 35.8906 11.3229 37.4071V37.5631C11.4612 37.8397 11.5995 38.0993 11.7038 38.3419L11.3915 38.4108ZM14.8528 51.6852C13.6707 52.3883 12.2576 52.5938 10.9241 52.2562C10.0982 51.9595 9.3387 51.5005 8.69204 50.9064C7.92868 50.2744 7.26887 49.5273 6.73653 48.6913C6.3734 48.1374 6.06125 47.6182 5.80165 47.1507L6.23432 47.0294C7.63276 46.7103 9.09696 46.8571 10.405 47.4451C11.1861 47.8113 11.9093 48.2896 12.5514 48.8644L12.7415 49.0375C13.382 49.5915 14.0564 50.1624 14.4721 50.6299L15.1814 51.4257L14.8528 51.6852ZM22.0699 62.3636C21.3444 63.3827 20.2411 64.068 19.0065 64.2673C18.2022 64.3423 17.3909 64.2596 16.6183 64.0247C15.7298 63.7265 14.8807 63.3201 14.0919 62.8132C13.6315 62.5622 13.1965 62.267 12.7939 61.9309L13.1748 61.6018C14.1677 60.8307 15.3791 60.3942 16.6354 60.3563C18.2626 60.4583 19.8519 60.8879 21.3083 61.6195H21.4643L22.2261 61.9309L22.0699 62.3636ZM33.3193 70.3765C32.8402 71.6405 31.8644 72.6535 30.6198 73.1804C29.8286 73.4957 28.9749 73.62 28.1272 73.5435C27.1553 73.5196 26.1903 73.3743 25.2547 73.1109L23.6801 72.5399L23.8702 72.2633C24.7579 71.1677 25.9693 70.3804 27.3315 70.0134C28.1899 69.8296 29.0668 69.7484 29.9446 69.7708C30.7612 69.7523 31.5771 69.804 32.3845 69.9269L33.4399 70.083C33.4399 70.083 33.371 70.273 33.3193 70.3765ZM78.3169 70.0134C79.6836 70.3781 80.8974 71.1731 81.7782 72.2803L81.9683 72.5399L80.3937 73.1108C79.458 73.3743 78.4923 73.5196 77.5212 73.5435C76.662 73.6169 75.7974 73.4925 74.994 73.1804C73.7701 72.6434 72.8105 71.6405 72.3291 70.3943L72.1908 70.0829L72.19 70.0822C72.5215 70.0489 72.8514 69.9972 73.1767 69.9269C74.0366 69.804 74.9051 69.7523 75.7727 69.7708C76.6218 69.7523 77.4702 69.8334 78.2999 70.0134L78.3169 70.0134ZM88.9436 60.4082C90.2022 60.4515 91.4144 60.8942 92.405 61.6715L92.7681 61.9828C92.3493 62.3189 91.9035 62.6195 91.4353 62.8829C90.6781 63.3713 89.8646 63.7661 89.0124 64.0597C88.2197 64.3139 87.3829 64.4019 86.5546 64.3193C85.3153 64.1106 84.2143 63.4045 83.509 62.3637L83.2664 62.0524L84.0282 61.741H84.1843C85.6407 60.9831 87.237 60.5295 88.8741 60.4082H88.9436ZM93.1142 48.8991C93.7524 48.3313 94.4694 47.8592 95.2429 47.4968C96.5509 46.9089 98.0159 46.7629 99.4143 47.0819L99.847 47.2032C99.5874 47.6707 99.2582 48.2246 98.8781 48.7956L98.8773 48.7948C98.3496 49.5883 97.7083 50.2999 96.9736 50.9065C96.3292 51.4906 95.5767 51.9433 94.7585 52.2392C93.4219 52.5869 92.0017 52.3876 90.8128 51.6853L90.4497 51.4774L91.1419 50.6986C91.5916 50.2142 92.2669 49.6432 92.8726 49.0893L93.1142 48.8991ZM100.712 33.5479C100.405 34.4249 100.005 35.2663 99.5177 36.0575C99.0642 36.7699 98.4762 37.3872 97.7871 37.8747C96.6977 38.5369 95.3865 38.73 94.1526 38.4109L93.7717 38.3074C93.8753 38.0648 94.0143 37.8052 94.1526 37.5286L94.2392 37.3725C94.892 35.8559 95.8253 34.4759 96.9912 33.3055C97.984 32.4472 99.2435 31.9581 100.556 31.921H101.075C100.967 32.4726 100.823 33.0158 100.643 33.5481L100.712 33.5479Z" fill="black" stroke="white" stroke-width="1.8" mask="url(#path-1-inside-1_2698_26858)"/>
<path d="M52.789 17.0886L52.7901 17.0886C54.7869 17.0886 56.7016 17.8815 58.1134 19.2932L58.1135 19.2933C59.5251 20.7057 60.3189 22.6202 60.3189 24.6173C60.3189 26.6135 59.5251 28.5289 58.1134 29.9406L58.1134 29.9406C56.7017 31.3524 54.7871 32.1453 52.7901 32.1453C50.7932 32.1453 48.8786 31.3523 47.4668 29.9407L47.4668 29.9406C46.0551 28.5289 45.2614 26.6136 45.2614 24.6173V24.6162C45.2663 22.6213 46.0608 20.7095 47.4715 19.2988L52.789 17.0886ZM52.789 17.0886C50.7942 17.0936 48.8823 17.888 47.4716 19.2988L52.789 17.0886ZM59.9247 31.6993L59.9246 31.6994C58.0327 33.592 55.4662 34.6548 52.7901 34.6548C50.114 34.6548 47.5475 33.592 45.6556 31.6994L45.6555 31.6993C43.7636 29.8073 42.7 27.2407 42.7 24.5647C42.7 21.8888 43.7635 19.3229 45.6556 17.4301C47.5475 15.5382 50.1141 14.4754 52.7901 14.4754C55.4662 14.4754 58.0328 15.5382 59.9247 17.4301C61.8167 19.323 62.8802 21.8888 62.8802 24.5647C62.8802 27.2407 61.8167 29.8073 59.9247 31.6993Z" fill="black" stroke="white" stroke-width="0.9"/>
<path d="M35.7103 55.5634L35.6544 56.0634H36.1576H69.4202H69.4206H69.9237L69.8678 55.5634C69.4267 51.6212 67.5485 47.9796 64.5937 45.333L64.2934 45.6682L64.5937 45.333C61.6388 42.6865 57.8127 41.2201 53.8453 41.2145H53.8445L51.7336 41.2145L51.733 41.2145C47.7655 41.22 43.9394 42.6864 40.9845 45.333C38.0295 47.9796 36.1515 51.6212 35.7103 55.5634ZM38.5685 44.2062C42.066 40.7245 46.7979 38.7658 51.7337 38.7566H53.8445C58.7802 38.7658 63.5121 40.7245 67.0097 44.2062C70.5069 47.6877 72.4873 52.4099 72.5187 57.345C72.5185 57.6843 72.3836 58.0099 72.1437 58.2497C71.9036 58.4898 71.5777 58.6248 71.2381 58.6248H34.34C34.0004 58.6248 33.6745 58.4898 33.4344 58.2497C33.1947 58.01 33.0597 57.6846 33.0594 57.3454C33.0907 52.4101 35.0711 47.6877 38.5685 44.2062Z" fill="black" stroke="white" stroke-width="0.9"/>
</g>
<defs>
<filter id="filter0_d_2698_26858" x="0.832031" y="0" width="105.854" height="82" filterUnits="userSpaceOnUse" color-interpolation-filters="sRGB">
<feFlood flood-opacity="0" result="BackgroundImageFix"/>
<feColorMatrix in="SourceAlpha" type="matrix" values="0 0 0 0 0 0 0 0 0 0 0 0 0 0 0 0 0 0 127 0" result="hardAlpha"/>
<feOffset dx="2" dy="2"/>
<feComposite in2="hardAlpha" operator="out"/>
<feColorMatrix type="matrix" values="0 0 0 0 1 0 0 0 0 0.45098 0 0 0 0 0.580392 0 0 0 0.7 0"/>
<feBlend mode="normal" in2="BackgroundImageFix" result="effect1_dropShadow_2698_26858"/>
<feBlend mode="normal" in="SourceGraphic" in2="effect1_dropShadow_2698_26858" result="shape"/>
</filter>
</defs>
</svg>
