<svg width="83" height="82" viewBox="0 0 83 82" fill="none" xmlns="http://www.w3.org/2000/svg">
<g filter="url(#filter0_d_1_334)">
<mask id="path-1-inside-1_1_334" fill="white">
<path d="M76.7758 57.4042H40.9246L67.7137 33.1651C68.4351 32.5094 68.8682 31.5946 68.9161 30.6205C68.964 29.6465 68.6236 28.6934 67.9696 27.9703L57.7431 16.6723C57.0891 15.9443 56.171 15.5072 55.1936 15.4593C54.2154 15.4105 53.2591 15.7558 52.5369 16.4164L32.7365 34.2954L39.83 8.74175L39.8292 8.74094C40.0875 7.80093 39.9624 6.79671 39.4823 5.94763C39.0021 5.09862 38.2059 4.47384 37.2667 4.21058L22.5791 0.133565H22.5799C21.6383 -0.128045 20.6316 -0.00211654 19.7843 0.482925C18.9296 0.954958 18.3032 1.75362 18.0489 2.69615L0.997054 64.2529C-0.498686 67.744 -0.140403 71.7534 1.95169 74.9238C4.04386 78.094 7.58863 80.0017 11.3867 80H76.7746C77.7512 80 78.6872 79.6125 79.377 78.9219C80.0676 78.2321 80.4551 77.2953 80.4551 76.3195V61.0842C80.4551 60.1085 80.0676 59.1725 79.377 58.4819C78.6872 57.7913 77.7513 57.4037 76.7746 57.4037L76.7758 57.4042ZM54.0758 18.1523C54.3382 17.92 54.6811 17.7989 55.0312 17.8144C55.3806 17.8379 55.7096 17.9915 55.9509 18.2458L66.1774 29.5438V29.543C66.673 30.0841 66.6364 30.9233 66.0961 31.4189L61.5886 35.5072L49.5917 22.2406L54.0758 18.1523ZM47.8215 23.8249L59.841 37.0907L54.343 42.076L42.3349 28.7979L47.8215 23.8249ZM40.5882 30.3709L52.5963 43.6367L47.1106 48.6098L35.0902 35.344L40.5882 30.3709ZM20.3215 3.3135C20.423 2.97876 20.6481 2.69602 20.9511 2.52135C21.2583 2.34667 21.623 2.30036 21.9643 2.39298L36.6519 6.47001C36.9899 6.56344 37.2759 6.79012 37.4432 7.09884C37.6187 7.40188 37.665 7.76262 37.5716 8.10061L35.941 13.9243L18.703 9.14867L20.3215 3.3135ZM15.4645 20.866L20.1231 22.1586H20.1239C20.2279 22.1757 20.3343 22.1757 20.4383 22.1586C21.0818 22.2455 21.6732 21.7946 21.7602 21.1511C21.8471 20.5085 21.3962 19.9162 20.7527 19.8293L16.0942 18.5245L18.0741 11.4665L35.3121 16.2536L33.285 23.3821L24.8175 21.0528C24.1903 20.8789 23.5412 21.2462 23.3673 21.8734C23.1942 22.5006 23.5615 23.1497 24.1887 23.3236L32.6562 25.6529L30.6762 32.7928L13.4846 28.0057L15.4645 20.866ZM12.8557 30.2767L30.0937 35.0638L29.4884 37.2533L24.9808 41.3303L10.8758 37.4176L12.8557 30.2767ZM20.6245 48.4579L26.1103 43.4849L38.1306 56.7515L37.4083 57.4039H28.72L20.6245 48.4579ZM25.54 57.4032L10.7361 57.404L18.8891 50.031L25.54 57.4032ZM10.2471 39.6883L22.9199 43.1827L16.3626 49.1227H16.3618C16.2554 49.0398 16.1327 48.9797 16.0011 48.948L8.25592 46.8047L10.2471 39.6883ZM7.66093 49.0875L14.3929 50.9627C14.3929 50.9627 4.91151 59.4651 4.74907 59.582L7.66093 49.0875ZM19.518 77.6466H11.365C8.16967 77.6466 5.21642 75.9421 3.61823 73.174C2.02012 70.4067 2.02012 66.9969 3.61823 64.2288C5.21634 61.4615 8.16967 59.7562 11.365 59.7562H19.518V77.6466ZM29.2902 77.6466H21.8822V59.7562H29.2902V77.6466ZM39.0512 77.6466H31.6432V59.7562H39.109L39.0512 77.6466ZM27.858 41.9015L33.356 36.9284L45.3641 50.1942L39.8784 55.1673L27.858 41.9015ZM58.5719 77.6466H51.1639V75.713C51.1639 75.0703 50.6423 74.5487 49.9996 74.5487C49.3562 74.5487 48.8346 75.0703 48.8346 75.713V77.6466H41.4387V59.7562H48.8466V71.008H48.8458C48.8458 71.6507 49.3674 72.1723 50.0109 72.1723C50.6544 72.1723 51.1752 71.6507 51.1752 71.008V59.7562H58.5831L58.5719 77.6466ZM68.3441 77.6466H60.9247V59.7562H68.3441V77.6466ZM78.1051 76.3191H78.1042C78.1042 77.0519 77.5103 77.6466 76.7767 77.6466H70.6971V59.7562H76.7767C77.5103 59.7562 78.1042 60.3509 78.1042 61.0837L78.1051 76.3191Z"/>
</mask>
<path d="M76.7758 57.4042H40.9246L67.7137 33.1651C68.4351 32.5094 68.8682 31.5946 68.9161 30.6205C68.964 29.6465 68.6236 28.6934 67.9696 27.9703L57.7431 16.6723C57.0891 15.9443 56.171 15.5072 55.1936 15.4593C54.2154 15.4105 53.2591 15.7558 52.5369 16.4164L32.7365 34.2954L39.83 8.74175L39.8292 8.74094C40.0875 7.80093 39.9624 6.79671 39.4823 5.94763C39.0021 5.09862 38.2059 4.47384 37.2667 4.21058L22.5791 0.133565H22.5799C21.6383 -0.128045 20.6316 -0.00211654 19.7843 0.482925C18.9296 0.954958 18.3032 1.75362 18.0489 2.69615L0.997054 64.2529C-0.498686 67.744 -0.140403 71.7534 1.95169 74.9238C4.04386 78.094 7.58863 80.0017 11.3867 80H76.7746C77.7512 80 78.6872 79.6125 79.377 78.9219C80.0676 78.2321 80.4551 77.2953 80.4551 76.3195V61.0842C80.4551 60.1085 80.0676 59.1725 79.377 58.4819C78.6872 57.7913 77.7513 57.4037 76.7746 57.4037L76.7758 57.4042ZM54.0758 18.1523C54.3382 17.92 54.6811 17.7989 55.0312 17.8144C55.3806 17.8379 55.7096 17.9915 55.9509 18.2458L66.1774 29.5438V29.543C66.673 30.0841 66.6364 30.9233 66.0961 31.4189L61.5886 35.5072L49.5917 22.2406L54.0758 18.1523ZM47.8215 23.8249L59.841 37.0907L54.343 42.076L42.3349 28.7979L47.8215 23.8249ZM40.5882 30.3709L52.5963 43.6367L47.1106 48.6098L35.0902 35.344L40.5882 30.3709ZM20.3215 3.3135C20.423 2.97876 20.6481 2.69602 20.9511 2.52135C21.2583 2.34667 21.623 2.30036 21.9643 2.39298L36.6519 6.47001C36.9899 6.56344 37.2759 6.79012 37.4432 7.09884C37.6187 7.40188 37.665 7.76262 37.5716 8.10061L35.941 13.9243L18.703 9.14867L20.3215 3.3135ZM15.4645 20.866L20.1231 22.1586H20.1239C20.2279 22.1757 20.3343 22.1757 20.4383 22.1586C21.0818 22.2455 21.6732 21.7946 21.7602 21.1511C21.8471 20.5085 21.3962 19.9162 20.7527 19.8293L16.0942 18.5245L18.0741 11.4665L35.3121 16.2536L33.285 23.3821L24.8175 21.0528C24.1903 20.8789 23.5412 21.2462 23.3673 21.8734C23.1942 22.5006 23.5615 23.1497 24.1887 23.3236L32.6562 25.6529L30.6762 32.7928L13.4846 28.0057L15.4645 20.866ZM12.8557 30.2767L30.0937 35.0638L29.4884 37.2533L24.9808 41.3303L10.8758 37.4176L12.8557 30.2767ZM20.6245 48.4579L26.1103 43.4849L38.1306 56.7515L37.4083 57.4039H28.72L20.6245 48.4579ZM25.54 57.4032L10.7361 57.404L18.8891 50.031L25.54 57.4032ZM10.2471 39.6883L22.9199 43.1827L16.3626 49.1227H16.3618C16.2554 49.0398 16.1327 48.9797 16.0011 48.948L8.25592 46.8047L10.2471 39.6883ZM7.66093 49.0875L14.3929 50.9627C14.3929 50.9627 4.91151 59.4651 4.74907 59.582L7.66093 49.0875ZM19.518 77.6466H11.365C8.16967 77.6466 5.21642 75.9421 3.61823 73.174C2.02012 70.4067 2.02012 66.9969 3.61823 64.2288C5.21634 61.4615 8.16967 59.7562 11.365 59.7562H19.518V77.6466ZM29.2902 77.6466H21.8822V59.7562H29.2902V77.6466ZM39.0512 77.6466H31.6432V59.7562H39.109L39.0512 77.6466ZM27.858 41.9015L33.356 36.9284L45.3641 50.1942L39.8784 55.1673L27.858 41.9015ZM58.5719 77.6466H51.1639V75.713C51.1639 75.0703 50.6423 74.5487 49.9996 74.5487C49.3562 74.5487 48.8346 75.0703 48.8346 75.713V77.6466H41.4387V59.7562H48.8466V71.008H48.8458C48.8458 71.6507 49.3674 72.1723 50.0109 72.1723C50.6544 72.1723 51.1752 71.6507 51.1752 71.008V59.7562H58.5831L58.5719 77.6466ZM68.3441 77.6466H60.9247V59.7562H68.3441V77.6466ZM78.1051 76.3191H78.1042C78.1042 77.0519 77.5103 77.6466 76.7767 77.6466H70.6971V59.7562H76.7767C77.5103 59.7562 78.1042 60.3509 78.1042 61.0837L78.1051 76.3191Z" fill="black" stroke="white" stroke-width="0.5" mask="url(#path-1-inside-1_1_334)"/>
<path d="M14.7216 57.2303L14.7218 57.2302C15.5347 56.7951 15.9162 56.2452 15.9162 55.7349C15.9162 55.2252 15.5347 54.6752 14.7217 54.2396L14.7217 54.2396C13.917 53.8085 12.808 53.5586 11.6378 53.5586C10.4684 53.5586 9.35929 53.8085 8.5538 54.2397L14.7216 57.2303ZM14.7216 57.2303C13.9172 57.6618 12.8081 57.9113 11.6378 57.9113C10.4684 57.9113 9.35932 57.6618 8.55383 57.2303L8.55382 57.2303M14.7216 57.2303L8.55382 57.2303M8.55382 57.2303C7.74158 56.7951 7.35938 56.2451 7.35938 55.7349C7.35938 55.2253 7.74149 54.6754 8.55375 54.2397L8.55382 57.2303ZM9.99397 54.6855L9.99372 54.6857C9.65101 54.8686 9.39317 55.1157 9.28183 55.4124C9.16556 55.7223 9.22476 56.0456 9.43912 56.3236C9.64547 56.5919 9.97462 56.7936 10.3495 56.9281C10.6601 57.0395 11.0156 57.1098 11.3894 57.1315L11.3895 57.1508L11.6373 57.1514C12.2465 57.1528 12.8439 57.0244 13.2951 56.7812C13.7387 56.5425 14.0599 56.1769 14.0533 55.7338C14.055 55.3995 13.8688 55.1115 13.6011 54.8947C13.3319 54.6767 12.9603 54.5119 12.5293 54.4152C11.6736 54.223 10.6777 54.3216 9.99397 54.6855Z" fill="black" stroke="white" stroke-width="0.5"/>
</g>
<defs>
<filter id="filter0_d_1_334" x="0.0839844" y="0" width="82.3711" height="82" filterUnits="userSpaceOnUse" color-interpolation-filters="sRGB">
<feFlood flood-opacity="0" result="BackgroundImageFix"/>
<feColorMatrix in="SourceAlpha" type="matrix" values="0 0 0 0 0 0 0 0 0 0 0 0 0 0 0 0 0 0 127 0" result="hardAlpha"/>
<feOffset dx="2" dy="2"/>
<feComposite in2="hardAlpha" operator="out"/>
<feColorMatrix type="matrix" values="0 0 0 0 0.8 0 0 0 0 1 0 0 0 0 0 0 0 0 1 0"/>
<feBlend mode="normal" in2="BackgroundImageFix" result="effect1_dropShadow_1_334"/>
<feBlend mode="normal" in="SourceGraphic" in2="effect1_dropShadow_1_334" result="shape"/>
</filter>
</defs>
</svg>
