<svg width="65" height="82" viewBox="0 0 65 82" fill="none" xmlns="http://www.w3.org/2000/svg">
<g filter="url(#filter0_d_2698_26965)">
<path d="M37.168 25.125H37.293V25V17.5C37.293 16.8702 37.5432 16.2658 37.9885 15.8205C38.4338 15.3752 39.0382 15.125 39.668 15.125H59.668C60.2978 15.125 60.9022 15.3752 61.3474 15.8205C61.7927 16.2658 62.043 16.8702 62.043 17.5V77.5C62.043 78.1298 61.7927 78.7342 61.3474 79.1795C60.9022 79.6248 60.2978 79.875 59.668 79.875H3.41797C2.78816 79.875 2.18379 79.6248 1.7385 79.1795C1.29321 78.7342 1.04297 78.1298 1.04297 77.5V2.5C1.04297 1.87019 1.29321 1.26582 1.7385 0.820531C2.18379 0.375241 2.78816 0.125 3.41797 0.125H24.668C25.2978 0.125 25.9021 0.375241 26.3474 0.820531C26.7927 1.26582 27.043 1.87019 27.043 2.5V25V25.125H27.168H37.168ZM20.793 77.5V77.625L20.918 77.625L40.9191 77.6257L41.0441 77.6257L41.0441 77.5007L41.0446 46.3449L41.0446 45.9046L40.8133 46.2793C38.3241 50.3106 33.9003 55.7284 27.4434 57.3413C27.3533 57.3634 27.261 57.375 27.1691 57.375C26.6096 57.3639 26.1432 56.9437 26.075 56.3883L26.075 56.3881C26.0062 55.8331 26.3562 55.3116 26.896 55.1645C31.231 54.0801 34.5966 50.9335 36.9585 47.8766C39.3222 44.8175 40.6923 41.8334 41.0326 41.0498L41.043 41.026V41V36.25V36.125H40.918H20.918H20.793V36.25V77.5ZM39.668 17.375H39.543V17.5L39.543 33.7496V33.8746H39.668H40.918C41.5478 33.8746 42.1522 34.1248 42.5975 34.5701C43.0428 35.0154 43.293 35.6198 43.293 36.2496V77.4996V77.6246H43.418H59.668H59.793V77.4996V46.6853V46.3287L59.5704 46.6073C57.8237 48.7929 55.2425 51.125 52.168 51.125C51.5468 51.125 51.043 50.6213 51.043 50C51.043 49.3788 51.5468 48.875 52.168 48.875C53.8855 48.875 55.5215 47.7126 56.8506 46.3228C58.1844 44.9281 59.2338 43.2786 59.7785 42.2511L59.793 42.2237V42.1926V23.6712V23.2668L59.5648 23.6006C57.4534 26.6893 53.8962 30.3499 48.5778 31.11L48.5777 31.11C47.9625 31.1984 47.3924 30.7711 47.304 30.1557C47.2161 29.5409 47.6431 28.9705 48.2582 28.8826C51.9435 28.3558 54.6902 26.0899 56.5791 23.8047C58.4685 21.5189 59.5097 19.2021 59.7833 18.5483L59.793 18.5251V18.5V17.5V17.375H59.668H39.668ZM37.168 33.875H37.293V33.75V27.5V27.375H37.168H24.668H24.543V27.5V33.75V33.875H24.668H37.168ZM24.668 25.125H24.793V25V2.50118V2.37618H24.668H3.41797H3.29297V2.50118V4.69761V4.72779L3.30674 4.75464C4.2045 6.50545 5.95205 9.49475 8.04357 12.1608C9.08934 13.4938 10.2234 14.749 11.3826 15.7285C12.5402 16.7066 13.732 17.4179 14.8933 17.6489C15.4598 17.764 15.8468 18.2893 15.7886 18.8642C15.7303 19.4393 15.2461 19.8767 14.6681 19.8762L14.6671 19.8762C14.5923 19.8767 14.5169 19.8692 14.4438 19.8538L14.293 19.822V19.8223C12.2106 19.3541 10.1617 17.8194 8.31667 15.9009C6.43033 13.9394 4.77139 11.5919 3.5236 9.61968L3.29297 9.25515V9.68651V34.7608V34.7853L3.30222 34.808C3.57167 35.4688 4.56049 37.7914 6.11817 40.0773C7.67136 42.3567 9.81149 44.6317 12.3931 45.1483C12.9597 45.2633 13.3468 45.7887 13.2886 46.3636C13.2303 46.9388 12.7461 47.3762 12.1681 47.3757L12.1671 47.3757C12.0923 47.3762 12.0169 47.3687 11.9438 47.3533L11.9425 47.353C8.22777 46.6091 5.37704 43.2106 3.52442 40.2002L3.29297 39.8241V40.2657V77.5V77.625H3.41797H18.418H18.543V77.5V36.25C18.543 35.6202 18.7932 35.0158 19.2385 34.5705C19.6838 34.1252 20.2882 33.875 20.918 33.875H22.168H22.293V33.75V26.25C22.293 25.6288 22.7967 25.125 23.418 25.125H24.668Z" fill="black" stroke="white" stroke-width="0.25"/>
<path d="M31.9555 65.4019L31.9555 65.4017C32.8401 65.1792 34.046 64.7553 35.1274 64.2012C35.6686 63.9239 36.1871 63.6097 36.6211 63.2659C37.0516 62.925 37.4204 62.5383 37.6345 62.1098C37.7387 61.9014 37.9205 61.7434 38.1403 61.6701C38.3581 61.5975 38.5953 61.6131 38.8002 61.713L38.8088 61.7173C39.0173 61.8215 39.1753 62.0034 39.2485 62.2231C39.3189 62.4343 39.3064 62.6636 39.2145 62.8642L39.2008 62.8917C38.5275 64.2384 37.0038 65.2584 35.5071 65.968C34.0278 66.6694 32.6555 67.0307 32.381 67.0994C32.3119 67.1165 32.2399 67.1253 32.1669 67.1257C31.7258 67.1252 31.3539 66.7963 31.2996 66.3577C31.2458 65.9194 31.5271 65.5093 31.9555 65.4019Z" fill="black" stroke="white" stroke-width="0.75"/>
</g>
<defs>
<filter id="filter0_d_2698_26965" x="0.917969" y="0" width="63.25" height="82" filterUnits="userSpaceOnUse" color-interpolation-filters="sRGB">
<feFlood flood-opacity="0" result="BackgroundImageFix"/>
<feColorMatrix in="SourceAlpha" type="matrix" values="0 0 0 0 0 0 0 0 0 0 0 0 0 0 0 0 0 0 127 0" result="hardAlpha"/>
<feOffset dx="2" dy="2"/>
<feComposite in2="hardAlpha" operator="out"/>
<feColorMatrix type="matrix" values="0 0 0 0 0.8 0 0 0 0 1 0 0 0 0 0 0 0 0 1 0"/>
<feBlend mode="normal" in2="BackgroundImageFix" result="effect1_dropShadow_2698_26965"/>
<feBlend mode="normal" in="SourceGraphic" in2="effect1_dropShadow_2698_26965" result="shape"/>
</filter>
</defs>
</svg>
