<svg width="60" height="82" viewBox="0 0 60 82" fill="none" xmlns="http://www.w3.org/2000/svg">
<g filter="url(#filter0_d_2909_28293)">
<path d="M23.1837 79.9993C23.0312 79.9993 22.8793 79.9706 22.7343 79.9127C22.4369 79.7935 22.1996 79.5608 22.0735 79.2668L17.8076 69.301C17.6638 68.9657 17.6792 68.5834 17.8489 68.2613C18.0197 67.9386 18.3269 67.7105 18.6845 67.64L43.1773 62.8061L35.092 21.8362C34.9917 21.3249 35.2301 20.8063 35.6847 20.5501C36.138 20.2933 36.7066 20.3575 37.0911 20.7094C38.4082 21.9078 39.4301 23.3413 40.1294 24.969L56.9895 64.3073C57.1156 64.6019 57.1208 64.9343 57.0016 65.2324C56.8823 65.5298 56.6497 65.7683 56.3551 65.8938L23.6589 79.902C23.5082 79.968 23.3454 80.0001 23.1832 80.0001L23.1837 79.9993ZM20.616 69.7222L23.8187 77.2046L54.292 64.1479L38.7494 27.8819L45.7835 63.5243C45.9119 64.1788 45.4861 64.8139 44.8315 64.9434L20.616 69.7222Z" fill="black"/>
<path d="M9.70244 71.8557C9.46402 71.8557 9.23016 71.7852 9.02958 71.6511C8.76307 71.4729 8.57909 71.1954 8.51604 70.8814L0.239297 28.8917C-0.401479 25.67 0.254772 22.3888 2.08597 19.6549C3.91945 16.9164 6.7078 15.0589 9.93868 14.4233L14.4355 13.5406C15.043 13.422 15.6546 13.7888 15.8288 14.3912C16.618 17.1257 17.4514 18.6348 17.9461 19.2377C18.169 18.4737 18.3616 16.7536 18.0687 13.9327C18.0051 13.3114 18.4252 12.7434 19.0373 12.623L23.0247 11.8378C29.5889 10.5482 36.0556 14.8147 37.4536 21.3491L45.7832 63.5266C45.8445 63.8413 45.7798 64.1674 45.6015 64.4333C45.4221 64.6998 45.1459 64.8838 44.8312 64.9463L9.93565 71.8333C9.85942 71.8476 9.78033 71.855 9.70239 71.855L9.70244 71.8557ZM13.8325 16.1223L10.4057 16.7952C7.80999 17.3058 5.56774 18.7994 4.09359 21.0003C2.62238 23.1978 2.09564 25.8335 2.61035 28.4237L10.6532 69.2278L43.1792 62.8092L35.088 21.8363C33.9658 16.6018 28.756 13.1687 23.4934 14.209L20.5703 14.7844C20.779 17.7081 20.595 20.9199 18.9546 21.7406C18.8188 21.8088 18.6715 21.8501 18.5202 21.8639C18.4222 21.8725 18.3242 21.8805 18.225 21.8983C18.1058 21.9195 17.9832 21.9229 17.8616 21.9069C16.0585 21.6753 14.7145 18.8343 13.833 16.1215L13.8325 16.1223Z" fill="black"/>
<path d="M16.1921 59.521C15.627 59.521 15.1221 59.122 15.0075 58.5466C14.8791 57.8915 15.3049 57.2565 15.9594 57.1269L33.6779 53.6302C34.3319 53.4978 34.9675 53.9271 35.0976 54.581C35.226 55.2361 34.8002 55.8712 34.1456 56.0007L16.4271 59.4975C16.348 59.5141 16.2701 59.521 16.1921 59.521V59.521Z" fill="black"/>
<path d="M14.9524 52.9974C14.5047 52.9974 14.1041 52.681 14.013 52.2241C13.9114 51.705 14.2491 51.2015 14.7681 51.0987C14.7681 51.0987 14.7682 51.0987 14.7682 51.0987L32.488 47.6025L32.4881 47.6025L32.4903 47.6021C33.0005 47.4966 33.5103 47.8358 33.614 48.357C33.7158 48.8761 33.378 49.3798 32.8588 49.4825L15.139 52.9787L15.1377 52.9789C15.0768 52.9913 15.0169 52.9972 14.9565 52.9974H14.9524Z" fill="black" stroke="white" stroke-width="0.5"/>
<path d="M14.9524 53.2474C14.3873 53.2474 13.8823 52.8485 13.7677 52.2725C13.6393 51.618 14.0652 50.9829 14.7197 50.8534L32.4397 47.3573C33.0885 47.2231 33.7292 47.6536 33.8593 48.3087C33.9877 48.9632 33.5619 49.5983 32.9073 49.7278L15.1874 53.224C15.1083 53.24 15.0303 53.2475 14.9524 53.2475V53.2474Z" fill="black"/>
<path d="M18.6849 29.0509C16.4336 29.0509 14.411 27.4646 13.9554 25.1868C13.7055 23.9207 13.9611 22.6375 14.6776 21.5719C15.3785 20.53 16.4383 19.8142 17.6677 19.5511C17.7124 19.5373 17.7588 19.5265 17.8058 19.5179C17.9731 19.4886 18.1399 19.4714 18.3084 19.4565C20.7265 19.2817 22.9143 20.9318 23.3927 23.3092C23.6426 24.5696 23.3882 25.8493 22.674 26.9166C21.9576 27.9861 20.8676 28.7128 19.6025 28.9621C19.6013 28.9627 19.5991 28.9627 19.5979 28.9632C19.2913 29.0228 18.9858 29.0509 18.6849 29.0509L18.6849 29.0509ZM19.3693 27.7774H19.3813H19.3693ZM18.2132 21.9055V21.9061C17.5833 22.0304 17.0406 22.3909 16.6841 22.9205C16.3287 23.449 16.2015 24.0869 16.3264 24.7156C16.5815 25.996 17.8475 26.8373 19.1383 26.5914C19.767 26.4665 20.3098 26.1048 20.6662 25.573C21.0205 25.0428 21.1477 24.4078 21.0239 23.7842C20.7855 22.6024 19.6919 21.78 18.5043 21.8654C18.4396 21.8711 18.3639 21.878 18.2871 21.8883C18.2625 21.8952 18.2378 21.9009 18.2132 21.9055L18.2132 21.9055Z" fill="black"/>
<path d="M18.0158 21.9169C17.9648 21.9169 17.9132 21.914 17.8622 21.9077C15.8207 21.6469 14.3672 18.0412 13.508 15.0633C13.2025 14.0351 12.924 12.8957 12.6856 11.688C12.1531 8.98565 11.9164 6.3807 12.0178 4.35414C12.0671 3.3798 12.2173 0.414869 14.1574 0.0332381C17.6243 -0.615564 19.5902 8.42751 19.9513 10.2529C20.1851 11.4336 20.3616 12.5885 20.4751 13.6855C20.8018 16.8498 20.8041 20.8161 18.9552 21.7416C18.8193 21.8098 18.672 21.8511 18.5207 21.8648C18.4227 21.8734 18.3247 21.8815 18.2256 21.8992C18.1562 21.9107 18.0863 21.917 18.0158 21.917L18.0158 21.9169ZM18.4148 20.6605H18.4268H18.4148ZM14.6825 2.68149C14.3472 3.78192 14.1821 6.78641 15.0579 11.2196C15.2808 12.3532 15.5405 13.4175 15.827 14.3832C16.6185 17.1257 17.453 18.6353 17.9476 19.2389C18.1706 18.4749 18.3632 16.7549 18.0703 13.934C17.9654 12.9115 17.8003 11.8305 17.5808 10.7214C16.7033 6.28065 15.4103 3.56741 14.6824 2.68134L14.6825 2.68149Z" fill="black"/>
<path d="M18.1422 21.9348C17.9593 21.9348 17.7931 21.9078 17.6372 21.8557C17.1111 21.682 16.7712 21.1736 16.8113 20.6217C16.8503 20.0692 17.2607 19.6153 17.8063 19.5184C17.9736 19.4892 18.1404 19.472 18.3089 19.4571C18.8918 19.4095 19.4512 19.7964 19.5905 20.3793C19.7298 20.9616 19.422 21.5588 18.866 21.7817L18.4155 20.6607L18.8437 21.7909C18.7256 21.8396 18.6173 21.878 18.4895 21.9044C18.3674 21.9245 18.2522 21.9348 18.1422 21.9348V21.9348ZM18.1456 20.0956L18.188 20.1867L18.3943 19.562C18.3129 19.5345 18.1857 19.5064 18.0533 19.5282L18.1456 20.0956Z" fill="black"/>
</g>
<defs>
<filter id="filter0_d_2909_28293" x="0" y="0" width="59.0876" height="82" filterUnits="userSpaceOnUse" color-interpolation-filters="sRGB">
<feFlood flood-opacity="0" result="BackgroundImageFix"/>
<feColorMatrix in="SourceAlpha" type="matrix" values="0 0 0 0 0 0 0 0 0 0 0 0 0 0 0 0 0 0 127 0" result="hardAlpha"/>
<feOffset dx="2" dy="2"/>
<feComposite in2="hardAlpha" operator="out"/>
<feColorMatrix type="matrix" values="0 0 0 0 0.8 0 0 0 0 1 0 0 0 0 0 0 0 0 1 0"/>
<feBlend mode="normal" in2="BackgroundImageFix" result="effect1_dropShadow_2909_28293"/>
<feBlend mode="normal" in="SourceGraphic" in2="effect1_dropShadow_2909_28293" result="shape"/>
</filter>
</defs>
</svg>
