<svg width="160" height="160" viewBox="0 0 160 160" fill="none" xmlns="http://www.w3.org/2000/svg">
<path d="M80 160C35.8165 160 0 124.184 0 80C0 35.8165 35.8165 0 80 0C124.184 0 160 35.8165 160 80C160 124.184 124.184 160 80 160ZM80 151.724C119.612 151.724 151.725 119.611 151.725 79.9993C151.725 40.3873 119.612 8.27417 80 8.27417C40.388 8.27417 8.27488 40.3873 8.27488 79.9993C8.27488 119.611 40.388 151.724 80 151.724ZM80 143.449C44.9578 143.449 16.5498 115.042 16.5498 79.9986C16.5498 44.9564 44.9568 16.5483 80 16.5483C115.042 16.5483 143.45 44.9554 143.45 79.9986C143.45 115.041 115.043 143.449 80 143.449ZM80 135.173C110.471 135.173 135.172 110.471 135.172 80.0014C135.172 49.5287 110.47 24.8261 80 24.8261C49.5305 24.8261 24.8282 49.5284 24.8282 79.9979C24.8282 110.467 49.5305 135.17 80 135.17V135.173ZM63.4474 71.723C61.2528 71.723 59.1468 70.8515 57.595 69.2984C56.0433 67.7466 55.1704 65.6419 55.1704 63.446C55.1704 61.2514 56.0433 59.1454 57.595 57.5937C59.1468 56.0419 61.2526 55.1704 63.4474 55.1704C66.404 55.1704 69.1362 56.7485 70.6146 59.3089C72.0916 61.8694 72.0916 65.024 70.6146 67.5845C69.1362 70.1449 66.4041 71.7216 63.4474 71.723ZM63.4474 104.827C61.2528 104.827 59.1468 103.955 57.595 102.404C56.0433 100.852 55.1704 98.746 55.1704 96.5512C55.1704 94.3552 56.0433 92.2506 57.595 90.6988C59.1468 89.1457 61.2526 88.2742 63.4474 88.2742C66.404 88.2756 69.1362 89.8523 70.6146 92.4127C72.0916 94.9731 72.0916 98.1278 70.6146 100.688C69.1362 103.249 66.4041 104.827 63.4474 104.827ZM96.5526 71.723C94.3566 71.723 92.252 70.8515 90.6988 69.2984C89.147 67.7466 88.2742 65.6419 88.2742 63.446C88.2742 61.2514 89.147 59.1454 90.6988 57.5937C92.2519 56.0419 94.3563 55.1704 96.5526 55.1704C99.5092 55.1704 102.24 56.7485 103.718 59.3089C105.197 61.8694 105.197 65.024 103.718 67.5845C102.24 70.1449 99.5093 71.7216 96.5526 71.723ZM96.5526 104.827C94.3566 104.827 92.252 103.955 90.6988 102.404C89.147 100.852 88.2742 98.746 88.2742 96.5512C88.2742 94.3552 89.147 92.2506 90.6988 90.6988C92.2519 89.1457 94.3563 88.2742 96.5526 88.2742C99.5092 88.2756 102.24 89.8523 103.718 92.4127C105.197 94.9731 105.197 98.1278 103.718 100.688C102.24 103.249 99.5093 104.827 96.5526 104.827Z" fill="black" fill-opacity="0.2"/>
</svg>
