<svg width="20" height="20" viewBox="0 0 20 20" fill="none" xmlns="http://www.w3.org/2000/svg">
<path d="M2.5 7.50016C2.5 6.57969 3.24619 5.8335 4.16667 5.8335H4.94136C5.49862 5.8335 6.019 5.55499 6.32811 5.09133L7.00522 4.07566C7.31433 3.612 7.83472 3.3335 8.39197 3.3335H11.608C12.1653 3.3335 12.6857 3.612 12.9948 4.07566L13.6719 5.09133C13.981 5.55499 14.5014 5.8335 15.0586 5.8335H15.8333C16.7538 5.8335 17.5 6.57969 17.5 7.50016V15.0002C17.5 15.9206 16.7538 16.6668 15.8333 16.6668H4.16667C3.24619 16.6668 2.5 15.9206 2.5 15.0002V7.50016Z" stroke="white" stroke-width="2" stroke-linecap="round" stroke-linejoin="round"/>
<path d="M12.5 10.8335C12.5 12.2142 11.3807 13.3335 10 13.3335C8.61929 13.3335 7.5 12.2142 7.5 10.8335C7.5 9.45278 8.61929 8.3335 10 8.3335C11.3807 8.3335 12.5 9.45278 12.5 10.8335Z" stroke="white" stroke-width="2" stroke-linecap="round" stroke-linejoin="round"/>
</svg>
