<svg width="16" height="16" viewBox="0 0 16 16" fill="none" xmlns="http://www.w3.org/2000/svg">
<path fill-rule="evenodd" clip-rule="evenodd" d="M10.7322 1.73223C11.7085 0.755922 13.2914 0.755923 14.2677 1.73223C15.244 2.70854 15.244 4.29146 14.2677 5.26777C13.9461 5.58934 13.5575 5.8054 13.1466 5.9151L12 6.22232V7.99999C12 8.1326 11.9473 8.25978 11.8536 8.35354L11.3536 8.85354C11.1583 9.04881 10.8417 9.04881 10.6464 8.85354L10 8.2071L4.70711 13.5C4.38696 13.8201 3.95275 14 3.5 14C3.31246 14 3.13261 14.0745 3 14.2071L2.35355 14.8536C2.15829 15.0488 1.84171 15.0488 1.64645 14.8536L1.14645 14.3536C0.951184 14.1583 0.951184 13.8417 1.14645 13.6464L1.79289 13C1.9255 12.8674 2 12.6875 2 12.5C2 12.0472 2.17986 11.613 2.5 11.2929L7.7929 6L7.14645 5.35354C6.95118 5.15828 6.95118 4.8417 7.14645 4.64644L7.64645 4.14644C7.74021 4.05267 7.86739 3.99999 8 3.99999H9.77741L10.0847 2.85318C10.1944 2.44215 10.4107 2.05366 10.7322 1.73223ZM8.5 6.7071L3.20711 12C3.0745 12.1326 3 12.3125 3 12.5C3 12.7121 2.96051 12.9202 2.88561 13.1144C3.07978 13.0395 3.28785 13 3.5 13C3.68754 13 3.86739 12.9255 4 12.7929L9.2929 7.5L8.5 6.7071Z" fill="black"/>
</svg>
