<svg width="152" height="150" viewBox="0 0 152 150" fill="none" xmlns="http://www.w3.org/2000/svg">
<g filter="url(#filter0_d_4453_76728)">
<path d="M149.023 32.3467L127.662 10.9862C126.97 10.2937 126.01 9.93037 125.018 10.0111C124.043 10.1074 123.144 10.626 122.576 11.4116C119.664 15.4875 116.784 18.7776 113.967 21.4376L113.952 21.4531C106.915 28.1438 100.398 30.8205 95.3318 31.7319C90.2637 32.6449 86.6445 31.7941 85.3821 31.4152C74.0829 21.7183 47.6388 36.8605 28.0436 56.4573C8.0679 76.433 -7.27577 103.548 3.61318 114.444L24.9737 135.804C35.8813 146.709 62.9996 131.368 82.976 111.389C99.6148 94.7523 113.024 73.1894 110.771 60.1405C117.696 60.4852 129.013 58.6142 141.054 46.5728C143.807 43.8199 146.61 40.5452 149.379 36.6434C150.33 35.3236 150.171 33.4961 149.024 32.3469L149.023 32.3467ZM8.33774 109.723C2.63926 104.026 11.8795 82.0693 32.7681 61.1809C53.6723 40.2767 75.6299 31.0398 81.326 36.7382C87.0245 42.4367 77.7842 64.3935 56.8833 85.2961C35.993 106.183 14.0378 115.421 8.33774 109.723ZM78.253 106.669C57.3643 127.557 35.3952 136.779 29.6951 131.08L16.4597 117.845C18.9441 117.528 21.6053 116.822 24.4064 115.816L32.4493 123.859C33.7567 125.166 35.8669 125.166 37.1728 123.859C38.4802 122.551 38.4802 120.444 37.1728 119.137L30.987 112.951C33.0955 111.883 35.2521 110.701 37.3934 109.381L40.1618 112.15C41.4692 113.457 43.5762 113.457 44.8837 112.15C46.1911 110.841 46.1911 108.732 44.8837 107.428L43.0903 105.631C45.0094 104.281 46.9302 102.863 48.8182 101.382L56.0601 108.624C57.3675 109.928 59.4901 109.914 60.782 108.624C62.0894 107.315 62.0894 105.206 60.782 103.902L53.9999 97.1167C55.7778 95.5609 57.5261 93.9693 59.225 92.3328L61.5214 94.6293C62.8288 95.9367 64.9389 95.9367 66.2432 94.6293C67.5335 93.339 67.5522 91.2117 66.2432 89.9074L63.9468 87.6079C65.5694 85.9247 67.1593 84.1779 68.7199 82.3987L75.502 89.1808C76.8094 90.4897 78.9163 90.4897 80.2238 89.1808C81.5141 87.8905 81.5312 85.7679 80.2238 84.4589L72.985 77.2202C74.4648 75.3305 75.8808 73.4114 77.2346 71.4907L79.028 73.284C80.3354 74.5914 82.4424 74.5914 83.7498 73.284C85.0573 71.9766 85.0572 69.8697 83.7498 68.5622L80.9814 65.7906C82.2888 63.6339 83.4983 61.477 84.5511 59.3842L90.7385 65.57C92.0459 66.8774 94.1529 66.8743 95.4603 65.57C96.7677 64.2626 96.7677 62.1556 95.4603 60.8482L87.4174 52.8037C88.4235 50.001 89.1331 47.3413 89.4468 44.8554L102.685 58.0939C108.379 63.794 99.1576 85.7694 78.2534 106.668L78.253 106.669ZM106.852 52.8242L92.7818 38.7537C98.9366 38.3935 107.262 36.0799 116.203 28.4296L132.825 45.0512C120.057 55.706 109.463 53.5802 106.852 52.8242ZM137.67 40.4522L121.032 23.8151C122.574 22.1785 124.117 20.4162 125.657 18.4334L142.265 35.0411C140.722 37.0534 139.197 38.8313 137.67 40.4522ZM57.8973 60.1607C52.5776 54.8411 41.4029 65.4494 39.2151 67.6372C37.0429 69.8094 26.4488 80.9688 31.77 86.2868C37.1036 91.622 48.2473 81.0137 50.4212 78.8418C52.609 76.6555 63.2321 65.4959 57.8973 60.1607ZM45.699 74.1195C42.5516 77.2669 39.7334 79.2373 37.8143 80.2433C38.8205 78.3242 40.7909 75.506 43.9381 72.3586C47.101 69.1958 49.9192 67.2254 51.8399 66.2193C50.8322 68.1385 48.8649 70.9567 45.699 74.1195Z" fill="black"/>
<path d="M78.8961 107.086L78.7833 107.199C68.2902 117.692 57.5075 125.274 48.6011 129.522C44.1516 131.644 40.137 132.949 36.8405 133.352C33.5756 133.751 30.8369 133.282 29.1648 131.611L29.1648 131.611L15.9294 118.375L14.8484 117.294L16.3649 117.101C18.7798 116.793 21.3862 116.104 24.1529 115.11L24.6005 114.949L24.9368 115.285L32.9797 123.328C33.9943 124.343 35.6294 124.342 36.6421 123.329L36.6424 123.328C37.6569 122.314 37.6569 120.682 36.6424 119.667L30.4566 113.481L29.7249 112.75L30.648 112.282C32.7418 111.221 34.8796 110.05 36.9998 108.743L37.5045 108.432L37.9237 108.851L40.6922 111.619C41.7067 112.634 43.3388 112.634 44.3533 111.619C45.3685 110.603 45.367 108.969 44.354 107.959L44.3529 107.958L42.5595 106.161L41.9301 105.531L42.6586 105.018C44.5685 103.674 46.4787 102.264 48.3553 100.792L48.8784 100.381L49.3485 100.851L56.5898 108.093L78.8961 107.086ZM78.8961 107.086L78.8965 107.085M78.8961 107.086L78.8965 107.085M78.8965 107.085C89.3389 96.6228 96.8859 85.8816 101.121 77.0044C103.244 72.5535 104.55 68.5379 104.954 65.2407C105.354 61.9752 104.886 59.2361 103.216 57.5639L103.216 57.5636L89.9771 44.3251L88.8944 43.2423L88.7027 44.7615C88.3979 47.1769 87.7056 49.7812 86.7115 52.5503L86.5509 52.9977L86.887 53.334L94.9299 61.3784L94.93 61.3785C95.9443 62.3928 95.9445 64.0245 94.9306 65.039L78.8965 107.085ZM32.3002 85.7563L32.3004 85.7566C33.421 86.8775 34.8535 87.1912 36.5159 86.9383C38.2033 86.6816 40.0657 85.8445 41.8918 84.738C45.5367 82.5295 48.8145 79.3868 49.8911 78.3112L32.3002 85.7563ZM32.3002 85.7563C31.1833 84.6401 30.8708 83.2101 31.1244 81.5478C31.3817 79.8608 32.2185 77.9977 33.3241 76.1706C35.5311 72.5238 38.6706 69.2423 39.7454 68.1675C40.828 67.0849 44.1174 63.9378 47.7703 61.7252M32.3002 85.7563L47.7703 61.7252M36.0343 82.0233L37.1501 79.8951C38.1974 77.8974 40.2169 75.0193 43.4078 71.8283L43.8899 72.3104L43.4078 71.8283C46.614 68.622 49.4923 66.6024 51.4919 65.555L53.6216 64.4394L52.5039 66.568C51.4552 68.5652 49.439 71.4432 46.2293 74.6499L36.0343 82.0233ZM36.0343 82.0233L38.1625 80.9076C40.1602 79.8604 43.0382 77.8409 46.2291 74.6501L36.0343 82.0233ZM47.7703 61.7252C49.6005 60.6166 51.4662 59.7774 53.1553 59.5184M47.7703 61.7252L53.1553 59.5184M53.1553 59.5184C54.8197 59.2631 56.2507 59.5748 57.3669 60.6911M53.1553 59.5184L57.3669 60.6911M57.3669 60.6911C58.4876 61.8117 58.8005 63.2452 58.546 64.9096C58.2877 66.5991 57.4483 68.4641 56.3389 70.2932C54.1247 73.9438 50.9743 77.2288 49.8911 78.3112L57.3669 60.6911ZM148.492 32.8771L148.531 32.9157C149.387 33.8099 149.493 35.2019 148.771 36.2052L148.768 36.2093C146.022 40.0777 143.246 43.32 140.524 46.0425C128.642 57.9246 117.536 59.7263 110.809 59.3914L109.873 59.3449L110.032 60.2681C111.112 66.5235 108.438 74.9801 103.305 84.05C98.1939 93.0822 90.7264 102.579 82.4457 110.859L82.4457 110.859C72.5001 120.806 60.7964 129.576 50.2567 134.499C44.9848 136.961 40.0473 138.44 35.792 138.65C31.5482 138.86 28.0395 137.809 25.504 135.274L4.14367 113.914C4.14361 113.914 4.14356 113.913 4.14351 113.913C1.61291 111.381 0.564529 107.875 0.776637 103.633C0.989318 99.3801 2.47019 94.444 4.93359 89.1732C9.8585 78.6357 18.6287 66.9328 28.5739 56.9876L28.0559 56.4697L28.5739 56.9876C38.3293 47.2315 49.7715 38.6043 60.1482 33.6273C65.3381 31.1381 70.2231 29.5807 74.4736 29.2288C78.7182 28.8774 82.2673 29.7304 84.8936 31.9843L85.0143 32.0879L85.1665 32.1335C86.5115 32.5372 90.2527 33.409 95.4646 32.4701C100.682 31.5314 107.331 28.7834 114.469 21.9967L114.476 21.9901L114.482 21.9834L114.49 21.9754C117.343 19.2804 120.251 15.9558 123.184 11.8496C123.626 11.2407 124.327 10.8349 125.085 10.7581C125.852 10.6976 126.594 10.9784 127.132 11.5165L148.492 32.8771ZM57.4136 85.8265L57.4136 85.8264C67.9127 75.3265 75.5027 64.5436 79.7562 55.6389C81.8812 51.1902 83.1896 47.1769 83.5945 43.8815C83.9955 40.6178 83.5282 37.8799 81.8564 36.208C80.1852 34.536 77.4476 34.0686 74.184 34.4693C70.8888 34.8739 66.8756 36.182 62.4269 38.3068C53.5221 42.5599 42.7385 50.1499 32.2378 60.6506C21.7448 71.1434 14.158 81.9228 9.90599 90.8255C7.78175 95.2732 6.47377 99.2859 6.06907 102.581C5.66826 105.844 6.13552 108.582 7.80748 110.253C9.47969 111.925 12.2177 112.393 15.4814 111.992C18.7767 111.587 22.7895 110.28 27.2374 108.156C36.1403 103.905 46.9198 96.3187 57.4136 85.8265ZM94.93 65.0397C93.9144 66.0521 92.2823 66.0531 91.2688 65.0397L91.2687 65.0396L85.0813 58.8538L84.3474 58.1201L83.8811 59.0472C82.8387 61.1193 81.6391 63.2588 80.34 65.4018L80.0352 65.9046L80.4507 66.3206L83.2192 69.0922L83.2195 69.0925C84.234 70.1071 84.234 71.7392 83.2195 72.7537C82.205 73.7682 80.5728 73.7682 79.5583 72.7537L77.765 70.9603L77.1349 70.3303L76.6216 71.0586C75.2741 72.9703 73.8656 74.8792 72.3945 76.7578L71.985 77.2808L72.4547 77.7505L79.6931 84.9889C80.7057 86.0028 80.6932 87.6507 79.6935 88.6504L79.6931 88.6507C78.6787 89.6664 77.047 89.6664 76.0326 88.6507L76.0323 88.6504L69.2502 81.8684L68.6841 81.3022L68.1561 81.9042C66.6014 83.6766 65.0195 85.4145 63.4068 87.0873L62.8961 87.6171L63.4161 88.1378L65.7125 90.4374L65.7139 90.4387C66.7254 91.4467 66.7136 93.0983 65.7129 94.0989L65.7123 94.0996C64.7014 95.1129 63.0666 95.1138 62.0517 94.0989L59.7553 91.8025L59.2348 91.282L58.7046 91.7927C57.0159 93.4194 55.2766 95.0028 53.506 96.5523L52.9029 97.0801L53.4695 97.6469L60.2515 104.432L60.2523 104.433C61.2653 105.443 61.2668 107.077 60.2516 108.093C59.2509 109.093 57.6032 109.103 56.5905 108.093L94.93 65.0397ZM106.322 53.3545L106.458 53.4909L106.644 53.5446C109.432 54.3523 120.302 56.4785 133.305 45.627L133.935 45.1012L133.355 44.5209L116.733 27.8993L116.243 27.4086L115.715 27.8597C106.903 35.4007 98.7338 37.654 92.738 38.005L91.07 38.1026L92.2514 39.284L106.322 53.3545ZM137.14 40.9825L137.687 41.529L138.216 40.9664C139.76 39.3273 141.301 37.5302 142.86 35.4975L143.26 34.9758L142.795 34.5108L126.188 17.9031L125.587 17.302L125.065 17.9733C123.542 19.9341 122.014 21.6783 120.486 23.3008L119.987 23.8307L120.501 24.3454L137.14 40.9825Z" stroke="white" stroke-width="1.5"/>
</g>
<defs>
<filter id="filter0_d_4453_76728" x="6.10352e-05" y="10" width="152" height="131.426" filterUnits="userSpaceOnUse" color-interpolation-filters="sRGB">
<feFlood flood-opacity="0" result="BackgroundImageFix"/>
<feColorMatrix in="SourceAlpha" type="matrix" values="0 0 0 0 0 0 0 0 0 0 0 0 0 0 0 0 0 0 127 0" result="hardAlpha"/>
<feOffset dx="2" dy="2"/>
<feComposite in2="hardAlpha" operator="out"/>
<feColorMatrix type="matrix" values="0 0 0 0 0 0 0 0 0 0.639216 0 0 0 0 1 0 0 0 0.5 0"/>
<feBlend mode="normal" in2="BackgroundImageFix" result="effect1_dropShadow_4453_76728"/>
<feBlend mode="normal" in="SourceGraphic" in2="effect1_dropShadow_4453_76728" result="shape"/>
</filter>
</defs>
</svg>
