<svg width="151" height="154" viewBox="0 0 151 154" fill="none" xmlns="http://www.w3.org/2000/svg">
<g filter="url(#filter0_d_4453_76730)">
<path d="M105.06 2.79102H103.43C103.072 2.79102 102.857 3.19268 103.056 3.49148C103.141 3.61707 103.278 3.69286 103.43 3.69286H105.157L104.169 4.80797C104.004 4.9931 104.021 5.27676 104.208 5.44133C104.393 5.60589 104.676 5.58857 104.841 5.40235L106.455 3.58243C106.624 3.41029 106.627 3.13421 106.46 2.95882L104.812 1.23091C104.641 1.05119 104.356 1.04362 104.176 1.21467C103.997 1.38573 103.989 1.67046 104.16 1.8502L105.059 2.79317L105.06 2.79102ZM58.112 12.0553C71.5173 10.7377 87.0694 10.8211 100.481 12.0856C101.449 11.8333 102.29 11.554 102.981 11.2476C105.042 10.3306 104.85 9.73412 102.917 9.38116C92.0948 7.40425 65.2569 7.1509 54.6972 9.49592C53.3125 9.8034 52.9519 10.1401 54.6322 10.9402C55.4983 11.3526 56.6816 11.7251 58.1119 12.0542L58.112 12.0553ZM97.4102 12.7276C85.6831 11.8496 73.1157 11.7987 61.3852 12.6746C71.8621 14.3115 86.9713 14.4956 97.4102 12.7276ZM54.8305 15.852C54.8034 16.0989 54.5815 16.2764 54.3346 16.2493C54.0878 16.2223 53.9102 16.0003 53.9373 15.7535L54.1874 13.5254C54.2144 13.2785 54.4364 13.101 54.6832 13.1281C54.9301 13.1551 55.1076 13.3771 55.0806 13.6239L54.8305 15.852ZM71.0453 19.0102C71.0334 19.2581 70.8233 19.4498 70.5754 19.4379C70.3275 19.426 70.1359 19.2159 70.1478 18.968L70.2755 16.4303C70.2874 16.1824 70.4975 15.9908 70.7454 16.0026C70.9933 16.0146 71.1849 16.2246 71.173 16.4725L71.0453 19.0102ZM104.343 15.7536C104.37 16.0005 104.192 16.2224 103.946 16.2495C103.699 16.2766 103.477 16.099 103.45 15.8522L103.2 13.6241C103.173 13.3772 103.35 13.1553 103.597 13.1282C103.844 13.1011 104.066 13.2787 104.093 13.5255L104.343 15.7536ZM88.9425 18.9681C88.9544 19.216 88.7627 19.426 88.5148 19.438C88.2669 19.4499 88.0568 19.2582 88.0449 19.0103L87.9172 16.4726C87.9053 16.2247 88.0969 16.0146 88.3448 16.0027C88.5928 15.9908 88.8028 16.1825 88.8147 16.4304L88.9425 18.9681ZM41.9948 8.65479C42.4235 9.06188 41.8031 9.71361 41.3755 9.30547L40.3426 8.32134V9.25026C40.3426 9.83706 39.4419 9.85006 39.4419 9.25026V8.38847L38.4166 9.2968C37.9749 9.68764 37.3805 9.01531 37.8222 8.62447L39.6422 7.01025C39.8143 6.84135 40.0904 6.83811 40.2658 7.00592L41.9937 8.6537L41.9948 8.65479ZM41.3755 147.391C41.8042 146.984 42.4235 147.635 41.9948 148.042L40.2669 149.69C40.0915 149.858 39.8154 149.854 39.6432 149.686L37.8233 148.071C37.3816 147.681 37.9771 147.008 38.4177 147.399L39.4679 148.33V147.098C39.4679 146.511 40.3686 146.498 40.3686 147.098V148.352L41.3755 147.391ZM80.6681 147.391C81.0968 146.984 81.7161 147.635 81.2874 148.042L79.5595 149.69C79.3841 149.858 79.108 149.854 78.9359 149.686L77.1159 148.071C76.6742 147.681 77.2697 147.008 77.7103 147.399L78.7724 148.341V146.588C78.7724 146.002 79.6731 145.988 79.6731 146.588V148.34L80.6681 147.391ZM81.2874 52.8947C81.7161 53.3017 81.0957 53.9535 80.6681 53.5453L79.6764 52.6002V53.7889C79.6764 54.3747 78.7756 54.3887 78.7756 53.7889V52.5915L77.7092 53.5367C77.2675 53.9275 76.6731 53.2552 77.1148 52.8644L78.9348 51.2501C79.1069 51.0812 79.383 51.078 79.5584 51.2458L81.2863 52.8936L81.2874 52.8947ZM80.6681 44.2163C80.8478 44.0452 81.1325 44.0528 81.3036 44.2325C81.4747 44.4123 81.4671 44.697 81.2874 44.8681L79.5595 46.5159C79.3841 46.6837 79.108 46.6804 78.9359 46.5115L77.1159 44.8973C76.9308 44.7327 76.9135 44.4491 77.0769 44.2639C77.2415 44.0788 77.5252 44.0615 77.7103 44.225L78.7724 45.1669V43.9164C78.7724 43.6739 78.9651 43.4736 79.2087 43.466C79.4631 43.4584 79.6731 43.662 79.6731 43.9164V45.1658L80.6681 44.2174L80.6681 44.2163ZM81.2874 17.9046C81.7161 18.3117 81.0957 18.9635 80.6681 18.5553L79.6764 17.6102V19.2579C79.6764 19.8501 78.7756 19.8512 78.7756 19.2579V17.6015L77.7092 18.5466C77.2675 18.9375 76.6731 18.2652 77.1148 17.8743L78.9348 16.2601C79.1069 16.0912 79.383 16.088 79.5584 16.2558L81.2863 17.9036L81.2874 17.9046ZM103.472 29.7315C103.628 29.6914 103.619 29.4652 103.458 29.4381C103.436 29.4349 103.418 29.4359 103.397 29.4414C103.204 29.4912 103.011 29.5388 102.817 29.5853C102.653 29.6276 102.67 29.8582 102.833 29.8809C102.853 29.8831 102.868 29.882 102.886 29.8777C103.082 29.8311 103.277 29.7824 103.472 29.7326V29.7315ZM88.4979 25.2687C88.4134 25.0944 88.1406 25.2189 88.2283 25.4019C88.3171 25.5848 88.4113 25.7646 88.5109 25.9421C88.6094 26.1132 88.8703 25.9648 88.7718 25.7938C88.6754 25.6217 88.5845 25.4463 88.4979 25.2687L88.4979 25.2687ZM89.2406 26.5462C89.1237 26.386 88.8855 26.5549 88.9937 26.7173C89.1085 26.884 89.2308 27.0497 89.3586 27.2077C89.4799 27.3593 89.718 27.1763 89.5924 27.0194C89.5037 26.9089 89.4192 26.7952 89.3359 26.6805C89.3045 26.6361 89.272 26.5906 89.2406 26.5462V26.5462ZM90.1803 27.6809C90.0385 27.539 89.8296 27.7545 89.9681 27.8931C90.1121 28.0381 90.2604 28.1767 90.4142 28.311C90.5668 28.4398 90.7595 28.2135 90.6112 28.0836C90.4629 27.9537 90.32 27.8205 90.1814 27.6798L90.1803 27.6809ZM91.3084 28.6271C91.1969 28.5524 91.054 28.6455 91.0757 28.7776C91.0843 28.8177 91.1038 28.8523 91.1385 28.875C91.3084 28.993 91.4784 29.0959 91.6538 29.2042C91.7989 29.2875 91.9515 29.1067 91.8433 28.9768C91.8324 28.9638 91.8194 28.953 91.8054 28.9454C91.6419 28.8371 91.473 28.7419 91.3084 28.6282V28.6271ZM91.1385 28.875L91.6538 29.2042L91.8043 28.9443L91.1385 28.875ZM92.5903 29.3525C92.4311 29.2832 92.3001 29.49 92.4322 29.6048C92.4431 29.6134 92.455 29.621 92.468 29.6264C92.6542 29.7109 92.8404 29.7888 93.0309 29.8603C93.085 29.8797 93.1457 29.8678 93.1879 29.8278C93.2669 29.752 93.2399 29.6167 93.137 29.5788C92.9519 29.5084 92.7711 29.4337 92.5914 29.3514L92.5903 29.3525ZM93.9793 29.8548C93.8061 29.8105 93.7119 30.0476 93.8711 30.1331C93.8808 30.1374 93.8895 30.1407 93.8992 30.1439C94.0952 30.198 94.2922 30.2468 94.4903 30.2901C94.5499 30.3031 94.6116 30.2782 94.6462 30.2284C94.7058 30.1407 94.6581 30.0194 94.5542 29.9967C94.3615 29.9544 94.1699 29.9068 93.9793 29.8548V29.8548ZM95.4301 30.1536C95.3608 30.145 95.2947 30.1829 95.2698 30.2489C95.2363 30.3377 95.2937 30.4395 95.39 30.4514C95.5903 30.4795 95.7917 30.5033 95.9931 30.5217C96.1316 30.5347 96.2117 30.3648 96.1132 30.2662C96.0862 30.2413 96.0569 30.2262 96.0201 30.2229C95.8231 30.2045 95.626 30.1807 95.4301 30.1536V30.1536ZM96.91 30.2792C96.7466 30.2738 96.6924 30.5012 96.8483 30.5683C96.8656 30.5748 96.8819 30.5791 96.9003 30.5791C97.1017 30.5856 97.3041 30.5889 97.5066 30.5878C97.5694 30.5878 97.6267 30.5467 97.6473 30.4871C97.6809 30.3886 97.6094 30.2868 97.5044 30.2868C97.3063 30.2879 97.1071 30.2847 96.91 30.2782L96.91 30.2792ZM98.3976 30.2608C98.3359 30.2652 98.2839 30.3041 98.2644 30.3615C98.2298 30.4622 98.3088 30.5672 98.4149 30.5607C98.6163 30.5499 98.8177 30.5358 99.018 30.5185C99.1825 30.5033 99.2074 30.2738 99.0472 30.2251C99.0288 30.2197 99.0115 30.2175 98.992 30.2197C98.7938 30.2359 98.5957 30.25 98.3965 30.2608H98.3976ZM99.8819 30.1255C99.7368 30.1439 99.7011 30.3399 99.8321 30.4081C99.8603 30.4221 99.8873 30.4275 99.9198 30.4232C100.12 30.3983 100.319 30.3702 100.519 30.3399C100.592 30.3279 100.646 30.2662 100.646 30.1915C100.646 30.0995 100.564 30.0281 100.473 30.0432C100.276 30.0724 100.079 30.1006 99.8819 30.1255L99.8819 30.1255ZM101.356 29.8949C101.29 29.9068 101.242 29.962 101.235 30.0281C101.225 30.1277 101.314 30.2089 101.413 30.1905C101.611 30.1536 101.808 30.1147 102.005 30.0735C102.165 30.0389 102.163 29.8115 102.003 29.7791C101.983 29.7758 101.964 29.7758 101.944 29.7801C101.749 29.8202 101.553 29.8592 101.358 29.896L101.356 29.8949ZM54.3062 1.13981C54.4773 0.960093 54.762 0.952516 54.9418 1.12357C55.1215 1.29463 55.1291 1.57936 54.958 1.7591L53.9771 2.7876H55.6845C55.8371 2.7876 55.9735 2.8623 56.0591 2.98897C56.2583 3.28777 56.0428 3.68943 55.6845 3.68943H54.0377L54.9493 4.71793C55.1139 4.90307 55.0966 5.18672 54.9104 5.35129C54.7252 5.51586 54.4416 5.49853 54.277 5.31232L52.6628 3.49239C52.4939 3.32025 52.4907 3.04417 52.6585 2.86879L54.3062 1.14088L54.3062 1.13981ZM90.6748 61.2442C91.0819 60.8154 91.7337 61.4358 91.3255 61.8635L90.3815 62.853H92.1115C92.4547 62.853 92.6723 63.2232 92.5045 63.5232C92.4255 63.6661 92.2739 63.7538 92.1104 63.7538H90.3696L91.3158 64.8213C91.7067 65.263 91.0343 65.8574 90.6435 65.4156L89.0293 63.5957C88.8604 63.4236 88.8571 63.1475 89.0249 62.9721L90.6727 61.2442L90.6748 61.2442ZM104.646 61.8938C104.239 61.465 104.89 60.8458 105.297 61.2745L106.945 63.0024C107.113 63.1778 107.109 63.4539 106.94 63.626L105.326 65.4459C104.935 65.8877 104.263 65.2922 104.654 64.8516L105.624 63.7581H103.826C103.227 63.7581 103.239 62.8573 103.826 62.8573H105.565L104.647 61.8938H104.646ZM54.3506 35.9482C54.5184 35.7653 54.8031 35.7534 54.9861 35.9223C55.1691 36.0901 55.181 36.3748 55.0121 36.5578L54.1059 37.5451L55.6844 37.5441C55.8122 37.5441 55.9323 37.5971 56.0179 37.6913C56.2799 37.9793 56.0742 38.4448 55.6844 38.4448L54.1525 38.4459L55.0738 39.469C55.2395 39.6542 55.2254 39.9378 55.0402 40.1045C54.8551 40.2702 54.5715 40.2561 54.4047 40.071L52.7753 38.2641C52.6216 38.093 52.6205 37.831 52.7786 37.6589L54.3484 35.9504L54.3506 35.9482ZM104.167 36.5426C103.996 36.3629 104.003 36.0781 104.183 35.9071C104.363 35.736 104.648 35.7436 104.819 35.9233L106.466 37.6512C106.634 37.8266 106.631 38.1038 106.462 38.2748L104.848 40.0948C104.683 40.2799 104.4 40.2972 104.214 40.1337C104.029 39.9692 104.012 39.6855 104.176 39.5004L105.135 38.4188L103.437 38.4199C103.309 38.4199 103.189 38.3669 103.104 38.2727C102.842 37.9847 103.047 37.5191 103.437 37.5191L105.098 37.518L104.168 36.5426L104.167 36.5426ZM94.8172 62.8543C94.2304 62.8543 94.2174 63.755 94.8172 63.755H96.6187C97.2055 63.755 97.2185 62.8543 96.6187 62.8543H94.8172ZM99.3221 62.8553C98.7353 62.8553 98.7223 63.7561 99.3221 63.7561H101.124C101.71 63.7561 101.723 62.8553 101.124 62.8553H99.3221ZM58.3888 37.5409C57.999 37.5409 57.7933 38.0064 58.0553 38.2944C58.1408 38.3886 58.261 38.4417 58.3888 38.4417L60.1903 38.4406C60.58 38.4406 60.7857 37.975 60.5237 37.6871C60.4382 37.5929 60.318 37.5398 60.1903 37.5398L58.3888 37.5409ZM62.8937 37.5387C62.5039 37.5387 62.2982 38.0043 62.5602 38.2923C62.6458 38.3865 62.7659 38.4395 62.8937 38.4395L64.6952 38.4384C65.0849 38.4384 65.2907 37.9729 65.0287 37.6849C64.9431 37.5907 64.8229 37.5376 64.6952 37.5376L62.8937 37.5387ZM67.3986 37.5366C67.0089 37.5366 66.8031 38.0021 67.0651 38.2901C67.1507 38.3843 67.2708 38.4373 67.3986 38.4373L69.2001 38.4363C69.5899 38.4363 69.7956 37.9707 69.5336 37.6827C69.448 37.5885 69.3279 37.5355 69.2001 37.5355L67.3986 37.5366ZM71.9035 37.5344C71.5138 37.5344 71.3081 37.9999 71.5701 38.2879C71.6556 38.3821 71.7758 38.4352 71.9035 38.4352L73.705 38.4341C74.0948 38.4341 74.3005 37.9686 74.0385 37.6806C73.953 37.5864 73.8328 37.5333 73.705 37.5333L71.9035 37.5344ZM76.4084 37.5322C76.0187 37.5322 75.813 37.9978 76.075 38.2858C76.1605 38.38 76.2807 38.433 76.4084 38.433L78.21 38.4319C78.5997 38.4319 78.8054 37.9664 78.5434 37.6784C78.4579 37.5842 78.3377 37.5312 78.21 37.5312L76.4084 37.5322ZM80.9133 37.5301C80.5236 37.5301 80.3179 37.9956 80.5799 38.2836C80.6654 38.3778 80.7856 38.4308 80.9133 38.4308L82.7149 38.4298C83.1046 38.4298 83.3103 37.9642 83.0483 37.6762C82.9628 37.582 82.8426 37.529 82.7149 37.529L80.9133 37.5301ZM85.4183 37.5279C85.0285 37.5279 84.8228 37.9934 85.0848 38.2814C85.1703 38.3756 85.2905 38.4287 85.4183 38.4287L87.2198 38.4276C87.6095 38.4276 87.8152 37.9621 87.5532 37.6741C87.4677 37.5799 87.3475 37.5268 87.2198 37.5268L85.4183 37.5279ZM89.9232 37.5257C89.5334 37.5257 89.3277 37.9913 89.5897 38.2793C89.6753 38.3735 89.7954 38.4265 89.9232 38.4265L91.7247 38.4254C92.1144 38.4254 92.3201 37.9599 92.0581 37.6719C91.9726 37.5777 91.8524 37.5247 91.7247 37.5247L89.9232 37.5257ZM94.4281 37.5236C94.0384 37.5236 93.8327 37.9891 94.0946 38.2771C94.1802 38.3713 94.3003 38.4244 94.4281 38.4244L96.2296 38.4233C96.6194 38.4233 96.8251 37.9577 96.5631 37.6697C96.4775 37.5755 96.3574 37.5225 96.2296 37.5225L94.4281 37.5236ZM98.933 37.5214C98.5433 37.5214 98.3376 37.987 98.5996 38.2749C98.6851 38.3691 98.8053 38.4222 98.933 38.4222L100.735 38.4211C101.124 38.4211 101.33 37.9556 101.068 37.6676C100.982 37.5734 100.862 37.5203 100.735 37.5203L98.933 37.5214ZM40.3503 11.9525C40.3503 11.3527 39.4495 11.3657 39.4495 11.9525V13.7541C39.4495 14.3538 40.3503 14.3408 40.3503 13.7541V11.9525ZM40.3513 16.4574C40.3513 15.8576 39.4506 15.8706 39.4506 16.4574V18.259C39.4506 18.8588 40.3513 18.8458 40.3513 18.259V16.4574ZM40.3524 20.9624C40.3524 20.3626 39.4517 20.3756 39.4517 20.9624V22.7639C39.4517 23.3637 40.3524 23.3507 40.3524 22.7639V20.9624ZM40.3535 25.4673C40.3535 24.8675 39.4527 24.8805 39.4527 25.4673V27.2688C39.4527 27.8686 40.3535 27.8556 40.3535 27.2688V25.4673ZM40.3546 29.9722C40.3546 29.3724 39.4538 29.3854 39.4538 29.9722V31.7737C39.4538 32.3735 40.3546 32.3605 40.3546 31.7737V29.9722ZM40.3557 34.4771C40.3557 33.8773 39.4549 33.8903 39.4549 34.4771V36.2786C39.4549 36.8784 40.3557 36.8654 40.3557 36.2786V34.4771ZM40.3567 38.982C40.3567 38.3822 39.456 38.3952 39.456 38.982V40.7836C39.456 41.3833 40.3567 41.3703 40.3567 40.7836V38.982ZM40.3578 43.4869C40.3578 42.8871 39.4571 42.9001 39.4571 43.4869V45.2885C39.4571 45.8883 40.3578 45.8753 40.3578 45.2885V43.4869ZM40.3589 47.9919C40.3589 47.3921 39.4582 47.4051 39.4582 47.9919V49.7934C39.4582 50.3932 40.3589 50.3802 40.3589 49.7934V47.9919ZM40.36 52.4968C40.36 51.897 39.4592 51.91 39.4592 52.4968V54.2983C39.4592 54.8981 40.36 54.8851 40.36 54.2983V52.4968ZM40.3611 57.0017C40.3611 56.4019 39.4603 56.4149 39.4603 57.0017V58.8032C39.4603 59.403 40.3611 59.39 40.3611 58.8032V57.0017ZM40.3622 61.5066C40.3622 60.9068 39.4614 60.9198 39.4614 61.5066V63.3081C39.4614 63.9079 40.3622 63.8949 40.3622 63.3081V61.5066ZM40.3632 66.0115C40.3632 65.4117 39.4625 65.4247 39.4625 66.0115V67.8131C39.4625 68.4128 40.3632 68.3999 40.3632 67.8131V66.0115ZM40.3643 70.5164C40.3643 69.9167 39.4636 69.9297 39.4636 70.5164V72.318C39.4636 72.9178 40.3643 72.9048 40.3643 72.318V70.5164ZM40.3654 75.0214C40.3654 74.4216 39.4646 74.4346 39.4646 75.0214V76.8229C39.4646 77.4227 40.3654 77.4097 40.3654 76.8229V75.0214ZM40.3665 79.5263C40.3665 78.9265 39.4657 78.9395 39.4657 79.5263V81.3278C39.4657 81.9276 40.3665 81.9146 40.3665 81.3278V79.5263ZM40.3676 84.0312C40.3676 83.4314 39.4668 83.4444 39.4668 84.0312V85.8327C39.4668 86.4325 40.3676 86.4195 40.3676 85.8327V84.0312ZM40.3687 88.5361C40.3687 87.9363 39.4679 87.9493 39.4679 88.5361V90.3376C39.4679 90.9374 40.3687 90.9244 40.3687 90.3376V88.5361ZM40.3697 93.041C40.3697 92.4412 39.469 92.4542 39.469 93.041V94.8426C39.469 95.4424 40.3697 95.4294 40.3697 94.8426V93.041ZM40.3708 97.5459C40.3708 96.9462 39.4701 96.9591 39.4701 97.5459V99.3475C39.4701 99.9473 40.3708 99.9343 40.3708 99.3475V97.5459ZM40.3719 102.051C40.3719 101.451 39.4711 101.464 39.4711 102.051V103.852C39.4711 104.452 40.3719 104.439 40.3719 103.852V102.051ZM40.373 106.556C40.373 105.956 39.4722 105.969 39.4722 106.556V108.357C39.4722 108.957 40.373 108.944 40.373 108.357V106.556ZM40.3741 111.061C40.3741 110.461 39.4733 110.474 39.4733 111.061V112.862C39.4733 113.462 40.3741 113.449 40.3741 112.862V111.061ZM40.3752 115.566C40.3752 114.966 39.4744 114.979 39.4744 115.566V117.367C39.4744 117.967 40.3752 117.954 40.3752 117.367V115.566ZM40.3762 120.071C40.3762 119.471 39.4755 119.484 39.4755 120.071V121.872C39.4755 122.472 40.3762 122.459 40.3762 121.872V120.071ZM40.3773 124.575C40.3773 123.976 39.4766 123.989 39.4766 124.575V126.377C39.4766 126.977 40.3773 126.964 40.3773 126.377V124.575ZM40.3784 129.08C40.3784 128.481 39.4776 128.494 39.4776 129.08V130.882C39.4776 131.482 40.3784 131.469 40.3784 130.882V129.08ZM40.3795 133.585C40.3795 132.985 39.4787 132.998 39.4787 133.585V135.387C39.4787 135.987 40.3795 135.974 40.3795 135.387V133.585ZM40.3806 138.09C40.3806 137.49 39.4798 137.503 39.4798 138.09V139.892C39.4798 140.492 40.3806 140.479 40.3806 139.892V138.09ZM40.3816 142.595C40.3816 141.995 39.4809 142.008 39.4809 142.595V144.397C39.4809 144.996 40.3816 144.983 40.3816 144.397V142.595ZM79.6881 56.4934C79.6881 55.8936 78.7874 55.9077 78.7874 56.4934V58.2949C78.7874 58.8947 79.6881 58.8806 79.6881 58.2949V56.4934ZM79.6881 60.9983C79.6881 60.3985 78.7874 60.4126 78.7874 60.9983V62.7998C78.7874 63.1582 79.189 63.3736 79.4878 63.1744C79.6134 63.0889 79.6892 62.9525 79.6892 62.7998V60.9983H79.6881ZM79.6881 65.5032C79.6881 65.1449 79.2865 64.9294 78.9876 65.1286C78.8621 65.2141 78.7863 65.3506 78.7863 65.5032V67.3047C78.7863 67.6631 79.1879 67.8785 79.4867 67.6794C79.6123 67.5938 79.6881 67.4574 79.6881 67.3047V65.5032ZM79.6881 70.0081C79.6881 69.6498 79.2865 69.4343 78.9876 69.6335C78.8621 69.7191 78.7863 69.8555 78.7863 70.0081V71.8097C78.7863 72.168 79.1879 72.3835 79.4867 72.1843C79.6123 72.0987 79.6881 71.9623 79.6881 71.8097V70.0081ZM79.6881 74.5131C79.6881 74.1547 79.2865 73.9393 78.9876 74.1385C78.8621 74.224 78.7863 74.3604 78.7863 74.5131V76.3146C78.7863 76.6729 79.1879 76.8884 79.4867 76.6892C79.6123 76.6037 79.6881 76.4672 79.6881 76.3146V74.5131ZM79.6881 79.018C79.6881 78.6596 79.2865 78.4442 78.9876 78.6434C78.8621 78.7289 78.7863 78.8653 78.7863 79.018V80.8195C78.7863 81.4193 79.687 81.4052 79.687 80.8195V79.018H79.6881ZM79.6881 83.5229C79.6881 82.9231 78.7874 82.9372 78.7874 83.5229V85.3244C78.7874 85.9242 79.6881 85.9101 79.6881 85.3244V83.5229ZM79.6881 88.0278C79.6881 87.428 78.7874 87.4421 78.7874 88.0278V89.8293C78.7874 90.4291 79.6881 90.415 79.6881 89.8293V88.0278ZM79.6881 92.5327C79.6881 91.9329 78.7874 91.947 78.7874 92.5327V94.3342C78.7874 94.934 79.6881 94.92 79.6881 94.3342V92.5327ZM79.6881 97.0376C79.6881 96.4378 78.7874 96.4519 78.7874 97.0376V98.8392C78.7874 99.439 79.6881 99.4249 79.6881 98.8392V97.0376ZM79.6881 101.543C79.6881 100.943 78.7874 100.957 78.7874 101.543V103.344C78.7874 103.944 79.6881 103.93 79.6881 103.344V101.543ZM79.6881 106.047C79.6881 105.689 79.2865 105.474 78.9876 105.673C78.8621 105.758 78.7863 105.895 78.7863 106.047V107.849C78.7863 108.449 79.687 108.435 79.687 107.849V106.047H79.6881ZM79.6881 110.552C79.6881 109.953 78.7874 109.967 78.7874 110.552V112.354C78.7874 112.954 79.6881 112.94 79.6881 112.354V110.552ZM79.6881 115.057C79.6881 114.458 78.7874 114.472 78.7874 115.057V116.859C78.7874 117.459 79.6881 117.445 79.6881 116.859V115.057ZM79.6881 119.562C79.6881 118.962 78.7874 118.977 78.7874 119.562V121.364C78.7874 121.964 79.6881 121.949 79.6881 121.364V119.562ZM79.6881 124.067C79.6881 123.467 78.7874 123.481 78.7874 124.067V125.869C78.7874 126.468 79.6881 126.454 79.6881 125.869V124.067ZM79.6881 128.572C79.6881 127.972 78.7874 127.986 78.7874 128.572V130.374C78.7874 130.973 79.6881 130.959 79.6881 130.374V128.572ZM79.6881 133.077C79.6881 132.477 78.7874 132.491 78.7874 133.077V134.878C78.7874 135.478 79.6881 135.464 79.6881 134.878V133.077ZM79.6881 137.582C79.6881 136.982 78.7874 136.996 78.7874 137.582V139.383C78.7874 139.983 79.6881 139.969 79.6881 139.383V137.582ZM79.6881 142.087C79.6881 141.487 78.7874 141.501 78.7874 142.087V143.888C78.7874 144.488 79.6881 144.474 79.6881 143.888V142.087ZM54.0868 28.4744C53.8465 28.4127 53.7025 28.167 53.7652 27.9277C53.827 27.6873 54.0727 27.5434 54.3131 27.6061C57.2124 28.3651 60.3401 28.8533 62.9862 28.2763C65.5596 27.7155 67.6923 26.1197 68.7156 22.7201C68.787 22.4819 69.0371 22.3466 69.2753 22.417C69.5135 22.4884 69.6488 22.7385 69.5784 22.9767C68.4427 26.753 66.0588 28.5273 63.1778 29.1565C60.3693 29.7692 57.103 29.2647 54.0889 28.4755L54.0868 28.4744ZM79.6914 21.395C79.6914 20.8017 78.7907 20.8028 78.7907 21.395V23.1965C78.7907 23.7898 79.6914 23.7887 79.6914 23.1965V21.395ZM79.6904 25.8999C79.6904 25.3066 78.7896 25.3077 78.7896 25.8999V27.7014C78.7896 28.2947 79.6904 28.2936 79.6904 27.7014V25.8999ZM79.6893 30.4048C79.6893 30.1504 79.4792 29.9469 79.2248 29.9545C78.9823 29.962 78.7885 30.1612 78.7885 30.4048V32.2064C78.7885 32.4608 78.9985 32.6643 79.253 32.6567C79.4955 32.6492 79.6893 32.45 79.6893 32.2064V30.4048ZM79.6882 34.9098C79.6882 34.6553 79.4782 34.4518 79.2237 34.4594C78.9812 34.467 78.7874 34.6662 78.7874 34.9098V36.7113C78.7874 36.9657 78.9975 37.1692 79.2519 37.1617C79.4944 37.1541 79.6882 36.9549 79.6882 36.7113V34.9098ZM79.6871 39.4147C79.6871 39.1602 79.4771 38.9567 79.2226 38.9643C78.9801 38.9719 78.7863 39.1711 78.7863 39.4147V41.2162C78.7863 41.4706 78.9964 41.6741 79.2508 41.6666C79.4933 41.659 79.6871 41.4598 79.6871 41.2162V39.4147ZM106.23 9.22945C106.483 9.70908 106.445 10.3154 106.534 11.0992C106.627 11.9317 106.787 12.9094 106.944 14.0082C107.82 20.1348 109.222 29.9512 109.534 38.9469L113.281 147.354C113.332 149.307 113.152 150.203 111.287 150.41C111.275 150.413 111.263 150.414 111.25 150.416C106.994 150.902 100.218 151.35 96.0147 150.601C94.0194 150.245 93.7953 149.476 93.6459 147.924L85.5435 63.4432C84.8895 56.6227 83.2883 52.5518 81.3872 50.7469C79.7816 49.2226 78.0904 49.503 76.5586 50.958C74.3954 53.0151 72.5908 57.3748 72.0667 63.4149L64.6918 148.458H64.6896C64.6875 148.487 64.6831 148.516 64.6766 148.547C64.4883 149.445 64.3194 150.253 62.3717 150.6C58.17 151.35 51.3927 150.901 47.1366 150.415V150.414C46.0951 150.312 45.5332 149.985 45.2323 149.358C44.9724 148.817 45.0038 148.175 45.1067 147.295L48.8538 38.946C49.1776 29.593 50.5698 20.4651 51.8366 11.2219C51.9113 10.6762 52.0207 8.70908 52.8251 8.4644C60.1232 5.67343 90.5406 6.09341 101.899 7.7163C102.974 7.87004 105.662 8.1472 106.229 9.22767L106.23 9.22945ZM105.106 11.7174C104.906 11.8993 104.687 12.0584 104.465 12.1862C96.7594 16.6143 60.9011 16.3826 53.3956 11.9761C53.3491 11.9491 53.3036 11.9209 53.2582 11.8906C53.0568 13.337 52.8467 14.7836 52.6421 16.2287C54.1124 17.1792 57.2044 18.054 61.196 18.748C65.4324 19.4842 70.6518 20.0071 76.0087 20.1966C76.2566 20.2052 76.4504 20.4131 76.4418 20.661C76.4331 20.909 76.2252 21.1028 75.9773 21.0941C70.5705 20.9035 65.3101 20.3774 61.0443 19.6358C57.2301 18.9732 54.1869 18.1309 52.5054 17.1933C51.6609 23.2334 50.6108 31.4367 50.3499 38.9945L46.6007 147.396C46.5997 147.415 46.5986 147.432 46.5975 147.449C47.0392 147.08 47.5762 146.748 48.1858 146.458C52.105 144.591 60.0051 144.081 63.2573 147.629L70.5718 63.2874C71.1282 56.8662 73.1214 52.16 75.5271 49.8743C77.6415 47.8649 80.2312 47.5856 82.4202 49.6632C84.5585 51.6932 86.3415 56.0855 87.0335 63.3035L95.1296 147.709C95.6081 147.248 96.235 146.836 96.9679 146.485C100.837 144.627 108.319 144.154 111.781 147.22L108.038 38.9952C107.769 31.2381 106.67 22.8009 105.815 16.7198C104.294 17.7245 101.513 18.7173 97.8208 19.5044C93.7749 20.3662 88.5979 20.9974 82.756 21.1413C82.508 21.1468 82.3023 20.9508 82.2969 20.7029C82.2915 20.455 82.4875 20.2493 82.7354 20.2439C88.5113 20.102 93.6321 19.4773 97.6348 18.6242C101.606 17.7786 104.439 16.7285 105.675 15.7226C105.601 15.2008 105.528 14.6995 105.46 14.2199C105.328 13.2975 105.209 12.4584 105.106 11.7169L105.106 11.7174ZM62.4705 149.043C60.028 145.517 52.1344 146.24 48.8313 147.815C48.133 148.147 47.5732 148.522 47.2127 148.921C47.2387 148.924 47.2647 148.926 47.2929 148.929L47.3069 148.93V148.929C51.4296 149.4 58.0435 149.851 62.1132 149.126C62.2486 149.102 62.3666 149.074 62.4694 149.043H62.4705ZM111.314 148.904C108.719 145.544 100.935 146.24 97.6118 147.836C96.8605 148.197 96.2715 148.607 95.9251 149.047C99.1794 150.01 107.515 149.337 111.079 148.93C111.098 148.927 111.119 148.926 111.138 148.925C111.202 148.919 111.261 148.911 111.315 148.905L111.314 148.904ZM54.7877 29.4488C54.5993 29.4001 54.5192 29.6892 54.713 29.7401C54.9078 29.7899 55.1027 29.8386 55.2987 29.8851C55.4925 29.9285 55.5596 29.6426 55.368 29.5928C55.1742 29.5474 54.9804 29.4986 54.7877 29.4488L54.7877 29.4488ZM69.9565 25.4095C70.0442 25.2287 69.7724 25.101 69.6869 25.2764C69.6003 25.4539 69.5094 25.6293 69.413 25.8014C69.3166 25.9693 69.5743 26.1241 69.6739 25.9498C69.7724 25.7722 69.8666 25.5925 69.9565 25.4095L69.9565 25.4095ZM69.1911 26.726C69.3015 26.5604 69.0622 26.3937 68.9442 26.555C68.8327 26.7163 68.7147 26.8754 68.5924 27.0281C68.4679 27.184 68.7039 27.3702 68.8262 27.2165C68.9529 27.0584 69.0752 26.8927 69.1911 26.726H69.1911ZM68.2178 27.9018C68.3585 27.7611 68.1452 27.5499 68.0056 27.6896C67.867 27.8293 67.7241 27.9635 67.5758 28.0934C67.4296 28.2212 67.618 28.4507 67.7728 28.3208C67.9265 28.1854 68.0749 28.0479 68.2189 27.9029L68.2178 27.9018ZM67.0474 28.8827C67.2055 28.7766 67.0474 28.5211 66.8774 28.6348C66.7151 28.7474 66.5494 28.8524 66.3805 28.952C66.2159 29.0472 66.3534 29.3092 66.5299 29.2086C66.7053 29.1003 66.8774 29.0007 67.0474 28.8827L67.0474 28.8827ZM65.719 29.634C65.8998 29.5528 65.7775 29.2811 65.5967 29.3601C65.417 29.4413 65.2361 29.5171 65.051 29.5875C64.8691 29.6546 64.9676 29.9382 65.156 29.869C65.3466 29.7964 65.5339 29.7185 65.719 29.6351L65.719 29.634ZM64.2867 30.1515C64.4783 30.0963 64.3982 29.8127 64.2076 29.8614C64.0171 29.9144 63.8254 29.961 63.6327 30.0032C63.4379 30.0454 63.505 30.3388 63.6966 30.2966C63.8947 30.2533 64.0918 30.2046 64.2877 30.1505L64.2867 30.1515ZM62.798 30.4579C62.9886 30.4341 62.9593 30.1353 62.7569 30.1602C62.5609 30.1873 62.3639 30.21 62.1668 30.2295C61.9709 30.2479 61.9958 30.5467 62.1939 30.5283C62.3953 30.5088 62.5966 30.4861 62.7969 30.4579L62.798 30.4579ZM61.2867 30.5857C61.4859 30.5792 61.474 30.2793 61.2769 30.2858C61.0788 30.2923 60.8807 30.2955 60.6825 30.2945C60.4812 30.2945 60.4866 30.5943 60.6804 30.5943C60.8818 30.5954 61.0853 30.5922 61.2867 30.5857H61.2867ZM59.772 30.5673C59.9691 30.5792 59.9875 30.2804 59.7894 30.2674C59.5902 30.2566 59.3931 30.2425 59.1939 30.2263C59.0012 30.2079 58.9666 30.5067 59.169 30.5251C59.3704 30.5424 59.5707 30.5554 59.7721 30.5673H59.772ZM58.2661 30.4309C58.462 30.4558 58.501 30.158 58.304 30.1331C58.1069 30.1082 57.9099 30.0812 57.7129 30.0509C57.5212 30.0206 57.4693 30.3172 57.6674 30.3475C57.8666 30.3778 58.0658 30.4049 58.2661 30.4309L58.2661 30.4309ZM56.7742 30.197C56.9702 30.2338 57.0221 29.9383 56.8294 29.9015C56.6335 29.8646 56.4386 29.8268 56.2426 29.7856C56.0564 29.7445 55.9817 30.0357 56.1809 30.0801C56.3779 30.1212 56.575 30.1602 56.7731 30.197L56.7742 30.197ZM103.747 27.6084C103.987 27.5467 104.232 27.6907 104.294 27.93C104.355 28.1703 104.211 28.415 103.972 28.4767C100.958 29.266 97.6916 29.7694 94.8832 29.1577C92.0022 28.5298 89.6183 26.7542 88.4825 22.9779C88.4111 22.7397 88.5475 22.4897 88.7857 22.4182C89.0239 22.3468 89.2739 22.4832 89.3454 22.7214C90.3685 26.121 92.5003 27.7166 95.0748 28.2775C97.7208 28.8546 100.849 28.3663 103.748 27.6074L103.747 27.6084ZM58.3983 2.79535C58.04 2.79535 57.8245 3.19701 58.0237 3.49581C58.1093 3.6214 58.2457 3.69718 58.3983 3.69718H60.1999C60.5582 3.69718 60.7737 3.29553 60.5745 2.99672C60.4889 2.87114 60.3525 2.79535 60.1999 2.79535H58.3983ZM62.9033 2.79535C62.5449 2.79535 62.3295 3.19701 62.5287 3.49581C62.6142 3.6214 62.7506 3.69718 62.9033 3.69718H64.7048C65.0631 3.69718 65.2786 3.29553 65.0794 2.99672C64.9939 2.87114 64.8574 2.79535 64.7048 2.79535H62.9033ZM67.4082 2.79535C67.0498 2.79535 66.8344 3.19701 67.0336 3.49581C67.1191 3.6214 67.2555 3.69718 67.4082 3.69718H69.2097C69.5681 3.69718 69.7835 3.29553 69.5843 2.99672C69.4988 2.87114 69.3624 2.79535 69.2097 2.79535H67.4082ZM71.9131 2.79535C71.5547 2.79535 71.3393 3.19701 71.5385 3.49581C71.624 3.6214 71.7604 3.69718 71.9131 3.69718H73.7146C74.073 3.69718 74.2884 3.29553 74.0892 2.99672C74.0037 2.87114 73.8673 2.79535 73.7146 2.79535H71.9131ZM76.418 2.79535C76.0596 2.79535 75.8442 3.19701 76.0434 3.49581C76.1289 3.6214 76.2653 3.69718 76.418 3.69718H78.2195C78.5779 3.69718 78.7933 3.29553 78.5941 2.99672C78.5086 2.87114 78.3722 2.79535 78.2195 2.79535H76.418ZM80.9229 2.79535C80.5646 2.79535 80.3491 3.19701 80.5483 3.49581C80.6338 3.6214 80.7703 3.69718 80.9229 3.69718H82.7244C83.0828 3.69718 83.2982 3.29553 83.099 2.99672C83.0135 2.87114 82.8771 2.79535 82.7244 2.79535H80.9229ZM85.4278 2.79535C85.0695 2.79535 84.854 3.19701 85.0532 3.49581C85.1388 3.6214 85.2752 3.69718 85.4278 3.69718H87.2294C87.5877 3.69718 87.8032 3.29553 87.604 2.99672C87.5184 2.87114 87.382 2.79535 87.2294 2.79535H85.4278ZM89.9328 2.79535C89.5744 2.79535 89.359 3.19701 89.5581 3.49581C89.6437 3.6214 89.7801 3.69718 89.9328 3.69718H91.7343C92.0926 3.69718 92.3081 3.29553 92.1089 2.99672C92.0234 2.87114 91.8869 2.79535 91.7343 2.79535H89.9328ZM94.4377 2.79535C94.0793 2.79535 93.8639 3.19701 94.0631 3.49581C94.1486 3.6214 94.285 3.69718 94.4377 3.69718H96.2392C96.5976 3.69718 96.813 3.29553 96.6138 2.99672C96.5283 2.87114 96.3919 2.79535 96.2392 2.79535H94.4377ZM98.9426 2.79535C98.5842 2.79535 98.3688 3.19701 98.568 3.49581C98.6535 3.6214 98.7899 3.69718 98.9426 3.69718H100.744C101.102 3.69718 101.318 3.29553 101.119 2.99672C101.033 2.87114 100.897 2.79535 100.744 2.79535H98.9426Z" fill="black"/>
<path d="M105.06 2.79102H103.43C103.072 2.79102 102.857 3.19268 103.056 3.49148C103.141 3.61707 103.278 3.69286 103.43 3.69286H105.157L104.169 4.80797C104.004 4.9931 104.021 5.27676 104.208 5.44133C104.393 5.60589 104.676 5.58857 104.841 5.40235L106.455 3.58243C106.624 3.41029 106.627 3.13421 106.46 2.95882L104.812 1.23091C104.641 1.05119 104.356 1.04362 104.176 1.21467C103.997 1.38573 103.989 1.67046 104.16 1.8502L105.059 2.79317L105.06 2.79102ZM58.112 12.0553C71.5173 10.7377 87.0694 10.8211 100.481 12.0856C101.449 11.8333 102.29 11.554 102.981 11.2476C105.042 10.3306 104.85 9.73412 102.917 9.38116C92.0948 7.40425 65.2569 7.1509 54.6972 9.49592C53.3125 9.8034 52.9519 10.1401 54.6322 10.9402C55.4983 11.3526 56.6816 11.7251 58.1119 12.0542L58.112 12.0553ZM97.4102 12.7276C85.6831 11.8496 73.1157 11.7987 61.3852 12.6746C71.8621 14.3115 86.9713 14.4956 97.4102 12.7276ZM54.8305 15.852C54.8034 16.0989 54.5815 16.2764 54.3346 16.2493C54.0878 16.2223 53.9102 16.0003 53.9373 15.7535L54.1874 13.5254C54.2144 13.2785 54.4364 13.101 54.6832 13.1281C54.9301 13.1551 55.1076 13.3771 55.0806 13.6239L54.8305 15.852ZM71.0453 19.0102C71.0334 19.2581 70.8233 19.4498 70.5754 19.4379C70.3275 19.426 70.1359 19.2159 70.1478 18.968L70.2755 16.4303C70.2874 16.1824 70.4975 15.9908 70.7454 16.0026C70.9933 16.0146 71.1849 16.2246 71.173 16.4725L71.0453 19.0102ZM104.343 15.7536C104.37 16.0005 104.192 16.2224 103.946 16.2495C103.699 16.2766 103.477 16.099 103.45 15.8522L103.2 13.6241C103.173 13.3772 103.35 13.1553 103.597 13.1282C103.844 13.1011 104.066 13.2787 104.093 13.5255L104.343 15.7536ZM88.9425 18.9681C88.9544 19.216 88.7627 19.426 88.5148 19.438C88.2669 19.4499 88.0568 19.2582 88.0449 19.0103L87.9172 16.4726C87.9053 16.2247 88.0969 16.0146 88.3448 16.0027C88.5928 15.9908 88.8028 16.1825 88.8147 16.4304L88.9425 18.9681ZM41.9948 8.65479C42.4235 9.06188 41.8031 9.71361 41.3755 9.30547L40.3426 8.32134V9.25026C40.3426 9.83706 39.4419 9.85006 39.4419 9.25026V8.38847L38.4166 9.2968C37.9749 9.68764 37.3805 9.01531 37.8222 8.62447L39.6422 7.01025C39.8143 6.84135 40.0904 6.83811 40.2658 7.00592L41.9937 8.6537L41.9948 8.65479ZM41.3755 147.391C41.8042 146.984 42.4235 147.635 41.9948 148.042L40.2669 149.69C40.0915 149.858 39.8154 149.854 39.6432 149.686L37.8233 148.071C37.3816 147.681 37.9771 147.008 38.4177 147.399L39.4679 148.33V147.098C39.4679 146.511 40.3686 146.498 40.3686 147.098V148.352L41.3755 147.391ZM80.6681 147.391C81.0968 146.984 81.7161 147.635 81.2874 148.042L79.5595 149.69C79.3841 149.858 79.108 149.854 78.9359 149.686L77.1159 148.071C76.6742 147.681 77.2697 147.008 77.7103 147.399L78.7724 148.341V146.588C78.7724 146.002 79.6731 145.988 79.6731 146.588V148.34L80.6681 147.391ZM81.2874 52.8947C81.7161 53.3017 81.0957 53.9535 80.6681 53.5453L79.6764 52.6002V53.7889C79.6764 54.3747 78.7756 54.3887 78.7756 53.7889V52.5915L77.7092 53.5367C77.2675 53.9275 76.6731 53.2552 77.1148 52.8644L78.9348 51.2501C79.1069 51.0812 79.383 51.078 79.5584 51.2458L81.2863 52.8936L81.2874 52.8947ZM80.6681 44.2163C80.8478 44.0452 81.1325 44.0528 81.3036 44.2325C81.4747 44.4123 81.4671 44.697 81.2874 44.8681L79.5595 46.5159C79.3841 46.6837 79.108 46.6804 78.9359 46.5115L77.1159 44.8973C76.9308 44.7327 76.9135 44.4491 77.0769 44.2639C77.2415 44.0788 77.5252 44.0615 77.7103 44.225L78.7724 45.1669V43.9164C78.7724 43.6739 78.9651 43.4736 79.2087 43.466C79.4631 43.4584 79.6731 43.662 79.6731 43.9164V45.1658L80.6681 44.2174L80.6681 44.2163ZM81.2874 17.9046C81.7161 18.3117 81.0957 18.9635 80.6681 18.5553L79.6764 17.6102V19.2579C79.6764 19.8501 78.7756 19.8512 78.7756 19.2579V17.6015L77.7092 18.5466C77.2675 18.9375 76.6731 18.2652 77.1148 17.8743L78.9348 16.2601C79.1069 16.0912 79.383 16.088 79.5584 16.2558L81.2863 17.9036L81.2874 17.9046ZM103.472 29.7315C103.628 29.6914 103.619 29.4652 103.458 29.4381C103.436 29.4349 103.418 29.4359 103.397 29.4414C103.204 29.4912 103.011 29.5388 102.817 29.5853C102.653 29.6276 102.67 29.8582 102.833 29.8809C102.853 29.8831 102.868 29.882 102.886 29.8777C103.082 29.8311 103.277 29.7824 103.472 29.7326V29.7315ZM88.4979 25.2687C88.4134 25.0944 88.1406 25.2189 88.2283 25.4019C88.3171 25.5848 88.4113 25.7646 88.5109 25.9421C88.6094 26.1132 88.8703 25.9648 88.7718 25.7938C88.6754 25.6217 88.5845 25.4463 88.4979 25.2687L88.4979 25.2687ZM89.2406 26.5462C89.1237 26.386 88.8855 26.5549 88.9937 26.7173C89.1085 26.884 89.2308 27.0497 89.3586 27.2077C89.4799 27.3593 89.718 27.1763 89.5924 27.0194C89.5037 26.9089 89.4192 26.7952 89.3359 26.6805C89.3045 26.6361 89.272 26.5906 89.2406 26.5462V26.5462ZM90.1803 27.6809C90.0385 27.539 89.8296 27.7545 89.9681 27.8931C90.1121 28.0381 90.2604 28.1767 90.4142 28.311C90.5668 28.4398 90.7595 28.2135 90.6112 28.0836C90.4629 27.9537 90.32 27.8205 90.1814 27.6798L90.1803 27.6809ZM91.3084 28.6271C91.1969 28.5524 91.054 28.6455 91.0757 28.7776C91.0843 28.8177 91.1038 28.8523 91.1385 28.875C91.3084 28.993 91.4784 29.0959 91.6538 29.2042C91.7989 29.2875 91.9515 29.1067 91.8433 28.9768C91.8324 28.9638 91.8194 28.953 91.8054 28.9454C91.6419 28.8371 91.473 28.7419 91.3084 28.6282V28.6271ZM91.1385 28.875L91.6538 29.2042L91.8043 28.9443L91.1385 28.875ZM92.5903 29.3525C92.4311 29.2832 92.3001 29.49 92.4322 29.6048C92.4431 29.6134 92.455 29.621 92.468 29.6264C92.6542 29.7109 92.8404 29.7888 93.0309 29.8603C93.085 29.8797 93.1457 29.8678 93.1879 29.8278C93.2669 29.752 93.2399 29.6167 93.137 29.5788C92.9519 29.5084 92.7711 29.4337 92.5914 29.3514L92.5903 29.3525ZM93.9793 29.8548C93.8061 29.8105 93.7119 30.0476 93.8711 30.1331C93.8808 30.1374 93.8895 30.1407 93.8992 30.1439C94.0952 30.198 94.2922 30.2468 94.4903 30.2901C94.5499 30.3031 94.6116 30.2782 94.6462 30.2284C94.7058 30.1407 94.6581 30.0194 94.5542 29.9967C94.3615 29.9544 94.1699 29.9068 93.9793 29.8548V29.8548ZM95.4301 30.1536C95.3608 30.145 95.2947 30.1829 95.2698 30.2489C95.2363 30.3377 95.2937 30.4395 95.39 30.4514C95.5903 30.4795 95.7917 30.5033 95.9931 30.5217C96.1316 30.5347 96.2117 30.3648 96.1132 30.2662C96.0862 30.2413 96.0569 30.2262 96.0201 30.2229C95.8231 30.2045 95.626 30.1807 95.4301 30.1536V30.1536ZM96.91 30.2792C96.7466 30.2738 96.6924 30.5012 96.8483 30.5683C96.8656 30.5748 96.8819 30.5791 96.9003 30.5791C97.1017 30.5856 97.3041 30.5889 97.5066 30.5878C97.5694 30.5878 97.6267 30.5467 97.6473 30.4871C97.6809 30.3886 97.6094 30.2868 97.5044 30.2868C97.3063 30.2879 97.1071 30.2847 96.91 30.2782L96.91 30.2792ZM98.3976 30.2608C98.3359 30.2652 98.2839 30.3041 98.2644 30.3615C98.2298 30.4622 98.3088 30.5672 98.4149 30.5607C98.6163 30.5499 98.8177 30.5358 99.018 30.5185C99.1825 30.5033 99.2074 30.2738 99.0472 30.2251C99.0288 30.2197 99.0115 30.2175 98.992 30.2197C98.7938 30.2359 98.5957 30.25 98.3965 30.2608H98.3976ZM99.8819 30.1255C99.7368 30.1439 99.7011 30.3399 99.8321 30.4081C99.8603 30.4221 99.8873 30.4275 99.9198 30.4232C100.12 30.3983 100.319 30.3702 100.519 30.3399C100.592 30.3279 100.646 30.2662 100.646 30.1915C100.646 30.0995 100.564 30.0281 100.473 30.0432C100.276 30.0724 100.079 30.1006 99.8819 30.1255L99.8819 30.1255ZM101.356 29.8949C101.29 29.9068 101.242 29.962 101.235 30.0281C101.225 30.1277 101.314 30.2089 101.413 30.1905C101.611 30.1536 101.808 30.1147 102.005 30.0735C102.165 30.0389 102.163 29.8115 102.003 29.7791C101.983 29.7758 101.964 29.7758 101.944 29.7801C101.749 29.8202 101.553 29.8592 101.358 29.896L101.356 29.8949ZM54.3062 1.13981C54.4773 0.960093 54.762 0.952516 54.9418 1.12357C55.1215 1.29463 55.1291 1.57936 54.958 1.7591L53.9771 2.7876H55.6845C55.8371 2.7876 55.9735 2.8623 56.0591 2.98897C56.2583 3.28777 56.0428 3.68943 55.6845 3.68943H54.0377L54.9493 4.71793C55.1139 4.90307 55.0966 5.18672 54.9104 5.35129C54.7252 5.51586 54.4416 5.49853 54.277 5.31232L52.6628 3.49239C52.4939 3.32025 52.4907 3.04417 52.6585 2.86879L54.3062 1.14088L54.3062 1.13981ZM90.6748 61.2442C91.0819 60.8154 91.7337 61.4358 91.3255 61.8635L90.3815 62.853H92.1115C92.4547 62.853 92.6723 63.2232 92.5045 63.5232C92.4255 63.6661 92.2739 63.7538 92.1104 63.7538H90.3696L91.3158 64.8213C91.7067 65.263 91.0343 65.8574 90.6435 65.4156L89.0293 63.5957C88.8604 63.4236 88.8571 63.1475 89.0249 62.9721L90.6727 61.2442L90.6748 61.2442ZM104.646 61.8938C104.239 61.465 104.89 60.8458 105.297 61.2745L106.945 63.0024C107.113 63.1778 107.109 63.4539 106.94 63.626L105.326 65.4459C104.935 65.8877 104.263 65.2922 104.654 64.8516L105.624 63.7581H103.826C103.227 63.7581 103.239 62.8573 103.826 62.8573H105.565L104.647 61.8938H104.646ZM54.3506 35.9482C54.5184 35.7653 54.8031 35.7534 54.9861 35.9223C55.1691 36.0901 55.181 36.3748 55.0121 36.5578L54.1059 37.5451L55.6844 37.5441C55.8122 37.5441 55.9323 37.5971 56.0179 37.6913C56.2799 37.9793 56.0742 38.4448 55.6844 38.4448L54.1525 38.4459L55.0738 39.469C55.2395 39.6542 55.2254 39.9378 55.0402 40.1045C54.8551 40.2702 54.5715 40.2561 54.4047 40.071L52.7753 38.2641C52.6216 38.093 52.6205 37.831 52.7786 37.6589L54.3484 35.9504L54.3506 35.9482ZM104.167 36.5426C103.996 36.3629 104.003 36.0781 104.183 35.9071C104.363 35.736 104.648 35.7436 104.819 35.9233L106.466 37.6512C106.634 37.8266 106.631 38.1038 106.462 38.2748L104.848 40.0948C104.683 40.2799 104.4 40.2972 104.214 40.1337C104.029 39.9692 104.012 39.6855 104.176 39.5004L105.135 38.4188L103.437 38.4199C103.309 38.4199 103.189 38.3669 103.104 38.2727C102.842 37.9847 103.047 37.5191 103.437 37.5191L105.098 37.518L104.168 36.5426L104.167 36.5426ZM94.8172 62.8543C94.2304 62.8543 94.2174 63.755 94.8172 63.755H96.6187C97.2055 63.755 97.2185 62.8543 96.6187 62.8543H94.8172ZM99.3221 62.8553C98.7353 62.8553 98.7223 63.7561 99.3221 63.7561H101.124C101.71 63.7561 101.723 62.8553 101.124 62.8553H99.3221ZM58.3888 37.5409C57.999 37.5409 57.7933 38.0064 58.0553 38.2944C58.1408 38.3886 58.261 38.4417 58.3888 38.4417L60.1903 38.4406C60.58 38.4406 60.7857 37.975 60.5237 37.6871C60.4382 37.5929 60.318 37.5398 60.1903 37.5398L58.3888 37.5409ZM62.8937 37.5387C62.5039 37.5387 62.2982 38.0043 62.5602 38.2923C62.6458 38.3865 62.7659 38.4395 62.8937 38.4395L64.6952 38.4384C65.0849 38.4384 65.2907 37.9729 65.0287 37.6849C64.9431 37.5907 64.8229 37.5376 64.6952 37.5376L62.8937 37.5387ZM67.3986 37.5366C67.0089 37.5366 66.8031 38.0021 67.0651 38.2901C67.1507 38.3843 67.2708 38.4373 67.3986 38.4373L69.2001 38.4363C69.5899 38.4363 69.7956 37.9707 69.5336 37.6827C69.448 37.5885 69.3279 37.5355 69.2001 37.5355L67.3986 37.5366ZM71.9035 37.5344C71.5138 37.5344 71.3081 37.9999 71.5701 38.2879C71.6556 38.3821 71.7758 38.4352 71.9035 38.4352L73.705 38.4341C74.0948 38.4341 74.3005 37.9686 74.0385 37.6806C73.953 37.5864 73.8328 37.5333 73.705 37.5333L71.9035 37.5344ZM76.4084 37.5322C76.0187 37.5322 75.813 37.9978 76.075 38.2858C76.1605 38.38 76.2807 38.433 76.4084 38.433L78.21 38.4319C78.5997 38.4319 78.8054 37.9664 78.5434 37.6784C78.4579 37.5842 78.3377 37.5312 78.21 37.5312L76.4084 37.5322ZM80.9133 37.5301C80.5236 37.5301 80.3179 37.9956 80.5799 38.2836C80.6654 38.3778 80.7856 38.4308 80.9133 38.4308L82.7149 38.4298C83.1046 38.4298 83.3103 37.9642 83.0483 37.6762C82.9628 37.582 82.8426 37.529 82.7149 37.529L80.9133 37.5301ZM85.4183 37.5279C85.0285 37.5279 84.8228 37.9934 85.0848 38.2814C85.1703 38.3756 85.2905 38.4287 85.4183 38.4287L87.2198 38.4276C87.6095 38.4276 87.8152 37.9621 87.5532 37.6741C87.4677 37.5799 87.3475 37.5268 87.2198 37.5268L85.4183 37.5279ZM89.9232 37.5257C89.5334 37.5257 89.3277 37.9913 89.5897 38.2793C89.6753 38.3735 89.7954 38.4265 89.9232 38.4265L91.7247 38.4254C92.1144 38.4254 92.3201 37.9599 92.0581 37.6719C91.9726 37.5777 91.8524 37.5247 91.7247 37.5247L89.9232 37.5257ZM94.4281 37.5236C94.0384 37.5236 93.8327 37.9891 94.0946 38.2771C94.1802 38.3713 94.3003 38.4244 94.4281 38.4244L96.2296 38.4233C96.6194 38.4233 96.8251 37.9577 96.5631 37.6697C96.4775 37.5755 96.3574 37.5225 96.2296 37.5225L94.4281 37.5236ZM98.933 37.5214C98.5433 37.5214 98.3376 37.987 98.5996 38.2749C98.6851 38.3691 98.8053 38.4222 98.933 38.4222L100.735 38.4211C101.124 38.4211 101.33 37.9556 101.068 37.6676C100.982 37.5734 100.862 37.5203 100.735 37.5203L98.933 37.5214ZM40.3503 11.9525C40.3503 11.3527 39.4495 11.3657 39.4495 11.9525V13.7541C39.4495 14.3538 40.3503 14.3408 40.3503 13.7541V11.9525ZM40.3513 16.4574C40.3513 15.8576 39.4506 15.8706 39.4506 16.4574V18.259C39.4506 18.8588 40.3513 18.8458 40.3513 18.259V16.4574ZM40.3524 20.9624C40.3524 20.3626 39.4517 20.3756 39.4517 20.9624V22.7639C39.4517 23.3637 40.3524 23.3507 40.3524 22.7639V20.9624ZM40.3535 25.4673C40.3535 24.8675 39.4527 24.8805 39.4527 25.4673V27.2688C39.4527 27.8686 40.3535 27.8556 40.3535 27.2688V25.4673ZM40.3546 29.9722C40.3546 29.3724 39.4538 29.3854 39.4538 29.9722V31.7737C39.4538 32.3735 40.3546 32.3605 40.3546 31.7737V29.9722ZM40.3557 34.4771C40.3557 33.8773 39.4549 33.8903 39.4549 34.4771V36.2786C39.4549 36.8784 40.3557 36.8654 40.3557 36.2786V34.4771ZM40.3567 38.982C40.3567 38.3822 39.456 38.3952 39.456 38.982V40.7836C39.456 41.3833 40.3567 41.3703 40.3567 40.7836V38.982ZM40.3578 43.4869C40.3578 42.8871 39.4571 42.9001 39.4571 43.4869V45.2885C39.4571 45.8883 40.3578 45.8753 40.3578 45.2885V43.4869ZM40.3589 47.9919C40.3589 47.3921 39.4582 47.4051 39.4582 47.9919V49.7934C39.4582 50.3932 40.3589 50.3802 40.3589 49.7934V47.9919ZM40.36 52.4968C40.36 51.897 39.4592 51.91 39.4592 52.4968V54.2983C39.4592 54.8981 40.36 54.8851 40.36 54.2983V52.4968ZM40.3611 57.0017C40.3611 56.4019 39.4603 56.4149 39.4603 57.0017V58.8032C39.4603 59.403 40.3611 59.39 40.3611 58.8032V57.0017ZM40.3622 61.5066C40.3622 60.9068 39.4614 60.9198 39.4614 61.5066V63.3081C39.4614 63.9079 40.3622 63.8949 40.3622 63.3081V61.5066ZM40.3632 66.0115C40.3632 65.4117 39.4625 65.4247 39.4625 66.0115V67.8131C39.4625 68.4128 40.3632 68.3999 40.3632 67.8131V66.0115ZM40.3643 70.5164C40.3643 69.9167 39.4636 69.9297 39.4636 70.5164V72.318C39.4636 72.9178 40.3643 72.9048 40.3643 72.318V70.5164ZM40.3654 75.0214C40.3654 74.4216 39.4646 74.4346 39.4646 75.0214V76.8229C39.4646 77.4227 40.3654 77.4097 40.3654 76.8229V75.0214ZM40.3665 79.5263C40.3665 78.9265 39.4657 78.9395 39.4657 79.5263V81.3278C39.4657 81.9276 40.3665 81.9146 40.3665 81.3278V79.5263ZM40.3676 84.0312C40.3676 83.4314 39.4668 83.4444 39.4668 84.0312V85.8327C39.4668 86.4325 40.3676 86.4195 40.3676 85.8327V84.0312ZM40.3687 88.5361C40.3687 87.9363 39.4679 87.9493 39.4679 88.5361V90.3376C39.4679 90.9374 40.3687 90.9244 40.3687 90.3376V88.5361ZM40.3697 93.041C40.3697 92.4412 39.469 92.4542 39.469 93.041V94.8426C39.469 95.4424 40.3697 95.4294 40.3697 94.8426V93.041ZM40.3708 97.5459C40.3708 96.9462 39.4701 96.9591 39.4701 97.5459V99.3475C39.4701 99.9473 40.3708 99.9343 40.3708 99.3475V97.5459ZM40.3719 102.051C40.3719 101.451 39.4711 101.464 39.4711 102.051V103.852C39.4711 104.452 40.3719 104.439 40.3719 103.852V102.051ZM40.373 106.556C40.373 105.956 39.4722 105.969 39.4722 106.556V108.357C39.4722 108.957 40.373 108.944 40.373 108.357V106.556ZM40.3741 111.061C40.3741 110.461 39.4733 110.474 39.4733 111.061V112.862C39.4733 113.462 40.3741 113.449 40.3741 112.862V111.061ZM40.3752 115.566C40.3752 114.966 39.4744 114.979 39.4744 115.566V117.367C39.4744 117.967 40.3752 117.954 40.3752 117.367V115.566ZM40.3762 120.071C40.3762 119.471 39.4755 119.484 39.4755 120.071V121.872C39.4755 122.472 40.3762 122.459 40.3762 121.872V120.071ZM40.3773 124.575C40.3773 123.976 39.4766 123.989 39.4766 124.575V126.377C39.4766 126.977 40.3773 126.964 40.3773 126.377V124.575ZM40.3784 129.08C40.3784 128.481 39.4776 128.494 39.4776 129.08V130.882C39.4776 131.482 40.3784 131.469 40.3784 130.882V129.08ZM40.3795 133.585C40.3795 132.985 39.4787 132.998 39.4787 133.585V135.387C39.4787 135.987 40.3795 135.974 40.3795 135.387V133.585ZM40.3806 138.09C40.3806 137.49 39.4798 137.503 39.4798 138.09V139.892C39.4798 140.492 40.3806 140.479 40.3806 139.892V138.09ZM40.3816 142.595C40.3816 141.995 39.4809 142.008 39.4809 142.595V144.397C39.4809 144.996 40.3816 144.983 40.3816 144.397V142.595ZM79.6881 56.4934C79.6881 55.8936 78.7874 55.9077 78.7874 56.4934V58.2949C78.7874 58.8947 79.6881 58.8806 79.6881 58.2949V56.4934ZM79.6881 60.9983C79.6881 60.3985 78.7874 60.4126 78.7874 60.9983V62.7998C78.7874 63.1582 79.189 63.3736 79.4878 63.1744C79.6134 63.0889 79.6892 62.9525 79.6892 62.7998V60.9983H79.6881ZM79.6881 65.5032C79.6881 65.1449 79.2865 64.9294 78.9876 65.1286C78.8621 65.2141 78.7863 65.3506 78.7863 65.5032V67.3047C78.7863 67.6631 79.1879 67.8785 79.4867 67.6794C79.6123 67.5938 79.6881 67.4574 79.6881 67.3047V65.5032ZM79.6881 70.0081C79.6881 69.6498 79.2865 69.4343 78.9876 69.6335C78.8621 69.7191 78.7863 69.8555 78.7863 70.0081V71.8097C78.7863 72.168 79.1879 72.3835 79.4867 72.1843C79.6123 72.0987 79.6881 71.9623 79.6881 71.8097V70.0081ZM79.6881 74.5131C79.6881 74.1547 79.2865 73.9393 78.9876 74.1385C78.8621 74.224 78.7863 74.3604 78.7863 74.5131V76.3146C78.7863 76.6729 79.1879 76.8884 79.4867 76.6892C79.6123 76.6037 79.6881 76.4672 79.6881 76.3146V74.5131ZM79.6881 79.018C79.6881 78.6596 79.2865 78.4442 78.9876 78.6434C78.8621 78.7289 78.7863 78.8653 78.7863 79.018V80.8195C78.7863 81.4193 79.687 81.4052 79.687 80.8195V79.018H79.6881ZM79.6881 83.5229C79.6881 82.9231 78.7874 82.9372 78.7874 83.5229V85.3244C78.7874 85.9242 79.6881 85.9101 79.6881 85.3244V83.5229ZM79.6881 88.0278C79.6881 87.428 78.7874 87.4421 78.7874 88.0278V89.8293C78.7874 90.4291 79.6881 90.415 79.6881 89.8293V88.0278ZM79.6881 92.5327C79.6881 91.9329 78.7874 91.947 78.7874 92.5327V94.3342C78.7874 94.934 79.6881 94.92 79.6881 94.3342V92.5327ZM79.6881 97.0376C79.6881 96.4378 78.7874 96.4519 78.7874 97.0376V98.8392C78.7874 99.439 79.6881 99.4249 79.6881 98.8392V97.0376ZM79.6881 101.543C79.6881 100.943 78.7874 100.957 78.7874 101.543V103.344C78.7874 103.944 79.6881 103.93 79.6881 103.344V101.543ZM79.6881 106.047C79.6881 105.689 79.2865 105.474 78.9876 105.673C78.8621 105.758 78.7863 105.895 78.7863 106.047V107.849C78.7863 108.449 79.687 108.435 79.687 107.849V106.047H79.6881ZM79.6881 110.552C79.6881 109.953 78.7874 109.967 78.7874 110.552V112.354C78.7874 112.954 79.6881 112.94 79.6881 112.354V110.552ZM79.6881 115.057C79.6881 114.458 78.7874 114.472 78.7874 115.057V116.859C78.7874 117.459 79.6881 117.445 79.6881 116.859V115.057ZM79.6881 119.562C79.6881 118.962 78.7874 118.977 78.7874 119.562V121.364C78.7874 121.964 79.6881 121.949 79.6881 121.364V119.562ZM79.6881 124.067C79.6881 123.467 78.7874 123.481 78.7874 124.067V125.869C78.7874 126.468 79.6881 126.454 79.6881 125.869V124.067ZM79.6881 128.572C79.6881 127.972 78.7874 127.986 78.7874 128.572V130.374C78.7874 130.973 79.6881 130.959 79.6881 130.374V128.572ZM79.6881 133.077C79.6881 132.477 78.7874 132.491 78.7874 133.077V134.878C78.7874 135.478 79.6881 135.464 79.6881 134.878V133.077ZM79.6881 137.582C79.6881 136.982 78.7874 136.996 78.7874 137.582V139.383C78.7874 139.983 79.6881 139.969 79.6881 139.383V137.582ZM79.6881 142.087C79.6881 141.487 78.7874 141.501 78.7874 142.087V143.888C78.7874 144.488 79.6881 144.474 79.6881 143.888V142.087ZM54.0868 28.4744C53.8465 28.4127 53.7025 28.167 53.7652 27.9277C53.827 27.6873 54.0727 27.5434 54.3131 27.6061C57.2124 28.3651 60.3401 28.8533 62.9862 28.2763C65.5596 27.7155 67.6923 26.1197 68.7156 22.7201C68.787 22.4819 69.0371 22.3466 69.2753 22.417C69.5135 22.4884 69.6488 22.7385 69.5784 22.9767C68.4427 26.753 66.0588 28.5273 63.1778 29.1565C60.3693 29.7692 57.103 29.2647 54.0889 28.4755L54.0868 28.4744ZM79.6914 21.395C79.6914 20.8017 78.7907 20.8028 78.7907 21.395V23.1965C78.7907 23.7898 79.6914 23.7887 79.6914 23.1965V21.395ZM79.6904 25.8999C79.6904 25.3066 78.7896 25.3077 78.7896 25.8999V27.7014C78.7896 28.2947 79.6904 28.2936 79.6904 27.7014V25.8999ZM79.6893 30.4048C79.6893 30.1504 79.4792 29.9469 79.2248 29.9545C78.9823 29.962 78.7885 30.1612 78.7885 30.4048V32.2064C78.7885 32.4608 78.9985 32.6643 79.253 32.6567C79.4955 32.6492 79.6893 32.45 79.6893 32.2064V30.4048ZM79.6882 34.9098C79.6882 34.6553 79.4782 34.4518 79.2237 34.4594C78.9812 34.467 78.7874 34.6662 78.7874 34.9098V36.7113C78.7874 36.9657 78.9975 37.1692 79.2519 37.1617C79.4944 37.1541 79.6882 36.9549 79.6882 36.7113V34.9098ZM79.6871 39.4147C79.6871 39.1602 79.4771 38.9567 79.2226 38.9643C78.9801 38.9719 78.7863 39.1711 78.7863 39.4147V41.2162C78.7863 41.4706 78.9964 41.6741 79.2508 41.6666C79.4933 41.659 79.6871 41.4598 79.6871 41.2162V39.4147ZM106.23 9.22945C106.483 9.70908 106.445 10.3154 106.534 11.0992C106.627 11.9317 106.787 12.9094 106.944 14.0082C107.82 20.1348 109.222 29.9512 109.534 38.9469L113.281 147.354C113.332 149.307 113.152 150.203 111.287 150.41C111.275 150.413 111.263 150.414 111.25 150.416C106.994 150.902 100.218 151.35 96.0147 150.601C94.0194 150.245 93.7953 149.476 93.6459 147.924L85.5435 63.4432C84.8895 56.6227 83.2883 52.5518 81.3872 50.7469C79.7816 49.2226 78.0904 49.503 76.5586 50.958C74.3954 53.0151 72.5908 57.3748 72.0667 63.4149L64.6918 148.458H64.6896C64.6875 148.487 64.6831 148.516 64.6766 148.547C64.4883 149.445 64.3194 150.253 62.3717 150.6C58.17 151.35 51.3927 150.901 47.1366 150.415V150.414C46.0951 150.312 45.5332 149.985 45.2323 149.358C44.9724 148.817 45.0038 148.175 45.1067 147.295L48.8538 38.946C49.1776 29.593 50.5698 20.4651 51.8366 11.2219C51.9113 10.6762 52.0207 8.70908 52.8251 8.4644C60.1232 5.67343 90.5406 6.09341 101.899 7.7163C102.974 7.87004 105.662 8.1472 106.229 9.22767L106.23 9.22945ZM105.106 11.7174C104.906 11.8993 104.687 12.0584 104.465 12.1862C96.7594 16.6143 60.9011 16.3826 53.3956 11.9761C53.3491 11.9491 53.3036 11.9209 53.2582 11.8906C53.0568 13.337 52.8467 14.7836 52.6421 16.2287C54.1124 17.1792 57.2044 18.054 61.196 18.748C65.4324 19.4842 70.6518 20.0071 76.0087 20.1966C76.2566 20.2052 76.4504 20.4131 76.4418 20.661C76.4331 20.909 76.2252 21.1028 75.9773 21.0941C70.5705 20.9035 65.3101 20.3774 61.0443 19.6358C57.2301 18.9732 54.1869 18.1309 52.5054 17.1933C51.6609 23.2334 50.6108 31.4367 50.3499 38.9945L46.6007 147.396C46.5997 147.415 46.5986 147.432 46.5975 147.449C47.0392 147.08 47.5762 146.748 48.1858 146.458C52.105 144.591 60.0051 144.081 63.2573 147.629L70.5718 63.2874C71.1282 56.8662 73.1214 52.16 75.5271 49.8743C77.6415 47.8649 80.2312 47.5856 82.4202 49.6632C84.5585 51.6932 86.3415 56.0855 87.0335 63.3035L95.1296 147.709C95.6081 147.248 96.235 146.836 96.9679 146.485C100.837 144.627 108.319 144.154 111.781 147.22L108.038 38.9952C107.769 31.2381 106.67 22.8009 105.815 16.7198C104.294 17.7245 101.513 18.7173 97.8208 19.5044C93.7749 20.3662 88.5979 20.9974 82.756 21.1413C82.508 21.1468 82.3023 20.9508 82.2969 20.7029C82.2915 20.455 82.4875 20.2493 82.7354 20.2439C88.5113 20.102 93.6321 19.4773 97.6348 18.6242C101.606 17.7786 104.439 16.7285 105.675 15.7226C105.601 15.2008 105.528 14.6995 105.46 14.2199C105.328 13.2975 105.209 12.4584 105.106 11.7169L105.106 11.7174ZM62.4705 149.043C60.028 145.517 52.1344 146.24 48.8313 147.815C48.133 148.147 47.5732 148.522 47.2127 148.921C47.2387 148.924 47.2647 148.926 47.2929 148.929L47.3069 148.93V148.929C51.4296 149.4 58.0435 149.851 62.1132 149.126C62.2486 149.102 62.3666 149.074 62.4694 149.043H62.4705ZM111.314 148.904C108.719 145.544 100.935 146.24 97.6118 147.836C96.8605 148.197 96.2715 148.607 95.9251 149.047C99.1794 150.01 107.515 149.337 111.079 148.93C111.098 148.927 111.119 148.926 111.138 148.925C111.202 148.919 111.261 148.911 111.315 148.905L111.314 148.904ZM54.7877 29.4488C54.5993 29.4001 54.5192 29.6892 54.713 29.7401C54.9078 29.7899 55.1027 29.8386 55.2987 29.8851C55.4925 29.9285 55.5596 29.6426 55.368 29.5928C55.1742 29.5474 54.9804 29.4986 54.7877 29.4488L54.7877 29.4488ZM69.9565 25.4095C70.0442 25.2287 69.7724 25.101 69.6869 25.2764C69.6003 25.4539 69.5094 25.6293 69.413 25.8014C69.3166 25.9693 69.5743 26.1241 69.6739 25.9498C69.7724 25.7722 69.8666 25.5925 69.9565 25.4095L69.9565 25.4095ZM69.1911 26.726C69.3015 26.5604 69.0622 26.3937 68.9442 26.555C68.8327 26.7163 68.7147 26.8754 68.5924 27.0281C68.4679 27.184 68.7039 27.3702 68.8262 27.2165C68.9529 27.0584 69.0752 26.8927 69.1911 26.726H69.1911ZM68.2178 27.9018C68.3585 27.7611 68.1452 27.5499 68.0056 27.6896C67.867 27.8293 67.7241 27.9635 67.5758 28.0934C67.4296 28.2212 67.618 28.4507 67.7728 28.3208C67.9265 28.1854 68.0749 28.0479 68.2189 27.9029L68.2178 27.9018ZM67.0474 28.8827C67.2055 28.7766 67.0474 28.5211 66.8774 28.6348C66.7151 28.7474 66.5494 28.8524 66.3805 28.952C66.2159 29.0472 66.3534 29.3092 66.5299 29.2086C66.7053 29.1003 66.8774 29.0007 67.0474 28.8827L67.0474 28.8827ZM65.719 29.634C65.8998 29.5528 65.7775 29.2811 65.5967 29.3601C65.417 29.4413 65.2361 29.5171 65.051 29.5875C64.8691 29.6546 64.9676 29.9382 65.156 29.869C65.3466 29.7964 65.5339 29.7185 65.719 29.6351L65.719 29.634ZM64.2867 30.1515C64.4783 30.0963 64.3982 29.8127 64.2076 29.8614C64.0171 29.9144 63.8254 29.961 63.6327 30.0032C63.4379 30.0454 63.505 30.3388 63.6966 30.2966C63.8947 30.2533 64.0918 30.2046 64.2877 30.1505L64.2867 30.1515ZM62.798 30.4579C62.9886 30.4341 62.9593 30.1353 62.7569 30.1602C62.5609 30.1873 62.3639 30.21 62.1668 30.2295C61.9709 30.2479 61.9958 30.5467 62.1939 30.5283C62.3953 30.5088 62.5966 30.4861 62.7969 30.4579L62.798 30.4579ZM61.2867 30.5857C61.4859 30.5792 61.474 30.2793 61.2769 30.2858C61.0788 30.2923 60.8807 30.2955 60.6825 30.2945C60.4812 30.2945 60.4866 30.5943 60.6804 30.5943C60.8818 30.5954 61.0853 30.5922 61.2867 30.5857H61.2867ZM59.772 30.5673C59.9691 30.5792 59.9875 30.2804 59.7894 30.2674C59.5902 30.2566 59.3931 30.2425 59.1939 30.2263C59.0012 30.2079 58.9666 30.5067 59.169 30.5251C59.3704 30.5424 59.5707 30.5554 59.7721 30.5673H59.772ZM58.2661 30.4309C58.462 30.4558 58.501 30.158 58.304 30.1331C58.1069 30.1082 57.9099 30.0812 57.7129 30.0509C57.5212 30.0206 57.4693 30.3172 57.6674 30.3475C57.8666 30.3778 58.0658 30.4049 58.2661 30.4309L58.2661 30.4309ZM56.7742 30.197C56.9702 30.2338 57.0221 29.9383 56.8294 29.9015C56.6335 29.8646 56.4386 29.8268 56.2426 29.7856C56.0564 29.7445 55.9817 30.0357 56.1809 30.0801C56.3779 30.1212 56.575 30.1602 56.7731 30.197L56.7742 30.197ZM103.747 27.6084C103.987 27.5467 104.232 27.6907 104.294 27.93C104.355 28.1703 104.211 28.415 103.972 28.4767C100.958 29.266 97.6916 29.7694 94.8832 29.1577C92.0022 28.5298 89.6183 26.7542 88.4825 22.9779C88.4111 22.7397 88.5475 22.4897 88.7857 22.4182C89.0239 22.3468 89.2739 22.4832 89.3454 22.7214C90.3685 26.121 92.5003 27.7166 95.0748 28.2775C97.7208 28.8546 100.849 28.3663 103.748 27.6074L103.747 27.6084ZM58.3983 2.79535C58.04 2.79535 57.8245 3.19701 58.0237 3.49581C58.1093 3.6214 58.2457 3.69718 58.3983 3.69718H60.1999C60.5582 3.69718 60.7737 3.29553 60.5745 2.99672C60.4889 2.87114 60.3525 2.79535 60.1999 2.79535H58.3983ZM62.9033 2.79535C62.5449 2.79535 62.3295 3.19701 62.5287 3.49581C62.6142 3.6214 62.7506 3.69718 62.9033 3.69718H64.7048C65.0631 3.69718 65.2786 3.29553 65.0794 2.99672C64.9939 2.87114 64.8574 2.79535 64.7048 2.79535H62.9033ZM67.4082 2.79535C67.0498 2.79535 66.8344 3.19701 67.0336 3.49581C67.1191 3.6214 67.2555 3.69718 67.4082 3.69718H69.2097C69.5681 3.69718 69.7835 3.29553 69.5843 2.99672C69.4988 2.87114 69.3624 2.79535 69.2097 2.79535H67.4082ZM71.9131 2.79535C71.5547 2.79535 71.3393 3.19701 71.5385 3.49581C71.624 3.6214 71.7604 3.69718 71.9131 3.69718H73.7146C74.073 3.69718 74.2884 3.29553 74.0892 2.99672C74.0037 2.87114 73.8673 2.79535 73.7146 2.79535H71.9131ZM76.418 2.79535C76.0596 2.79535 75.8442 3.19701 76.0434 3.49581C76.1289 3.6214 76.2653 3.69718 76.418 3.69718H78.2195C78.5779 3.69718 78.7933 3.29553 78.5941 2.99672C78.5086 2.87114 78.3722 2.79535 78.2195 2.79535H76.418ZM80.9229 2.79535C80.5646 2.79535 80.3491 3.19701 80.5483 3.49581C80.6338 3.6214 80.7703 3.69718 80.9229 3.69718H82.7244C83.0828 3.69718 83.2982 3.29553 83.099 2.99672C83.0135 2.87114 82.8771 2.79535 82.7244 2.79535H80.9229ZM85.4278 2.79535C85.0695 2.79535 84.854 3.19701 85.0532 3.49581C85.1388 3.6214 85.2752 3.69718 85.4278 3.69718H87.2294C87.5877 3.69718 87.8032 3.29553 87.604 2.99672C87.5184 2.87114 87.382 2.79535 87.2294 2.79535H85.4278ZM89.9328 2.79535C89.5744 2.79535 89.359 3.19701 89.5581 3.49581C89.6437 3.6214 89.7801 3.69718 89.9328 3.69718H91.7343C92.0926 3.69718 92.3081 3.29553 92.1089 2.99672C92.0234 2.87114 91.8869 2.79535 91.7343 2.79535H89.9328ZM94.4377 2.79535C94.0793 2.79535 93.8639 3.19701 94.0631 3.49581C94.1486 3.6214 94.285 3.69718 94.4377 3.69718H96.2392C96.5976 3.69718 96.813 3.29553 96.6138 2.99672C96.5283 2.87114 96.3919 2.79535 96.2392 2.79535H94.4377ZM98.9426 2.79535C98.5842 2.79535 98.3688 3.19701 98.568 3.49581C98.6535 3.6214 98.7899 3.69718 98.9426 3.69718H100.744C101.102 3.69718 101.318 3.29553 101.119 2.99672C101.033 2.87114 100.897 2.79535 100.744 2.79535H98.9426Z" stroke="black" stroke-width="0.5"/>
</g>
<defs>
<filter id="filter0_d_4453_76730" x="37.4166" y="0.75" width="78.1215" height="152.5" filterUnits="userSpaceOnUse" color-interpolation-filters="sRGB">
<feFlood flood-opacity="0" result="BackgroundImageFix"/>
<feColorMatrix in="SourceAlpha" type="matrix" values="0 0 0 0 0 0 0 0 0 0 0 0 0 0 0 0 0 0 127 0" result="hardAlpha"/>
<feOffset dx="2" dy="2"/>
<feComposite in2="hardAlpha" operator="out"/>
<feColorMatrix type="matrix" values="0 0 0 0 0 0 0 0 0 0.639216 0 0 0 0 1 0 0 0 0.5 0"/>
<feBlend mode="normal" in2="BackgroundImageFix" result="effect1_dropShadow_4453_76730"/>
<feBlend mode="normal" in="SourceGraphic" in2="effect1_dropShadow_4453_76730" result="shape"/>
</filter>
</defs>
</svg>
