<svg width="151" height="152" viewBox="0 0 151 152" fill="none" xmlns="http://www.w3.org/2000/svg">
<g filter="url(#filter0_d_4453_76723)">
<path d="M86.302 47.25H86.677V46.875V32.8125C86.677 31.6689 87.1314 30.5715 87.9399 29.7629C88.7485 28.9544 89.8459 28.5 90.9895 28.5H128.49C129.633 28.5 130.731 28.9544 131.539 29.7629C132.348 30.5715 132.802 31.6689 132.802 32.8125V145.312C132.802 146.456 132.348 147.554 131.539 148.362C130.731 149.171 129.633 149.625 128.49 149.625H23.0208C21.8771 149.625 20.7797 149.171 19.9712 148.362C19.1627 147.554 18.7083 146.456 18.7083 145.312V4.6875C18.7083 3.54389 19.1627 2.44647 19.9712 1.63793C20.7797 0.829399 21.8771 0.375 23.0208 0.375H62.8645C64.0081 0.375 65.1055 0.829399 65.9141 1.63793C66.7226 2.44647 67.177 3.54389 67.177 4.6875V46.875V47.25H67.552H86.302ZM55.4583 145.312V145.687L55.8332 145.688L93.3353 145.689L93.7103 145.689L93.7103 145.314L93.7114 86.8968L93.7114 85.5756L93.0173 86.6997C88.3554 94.2501 80.0861 104.368 68.0344 107.378C67.8767 107.417 67.7155 107.437 67.5554 107.438C66.5768 107.417 65.7615 106.682 65.6422 105.711L65.6421 105.71C65.5219 104.74 66.1338 103.827 67.0778 103.569C75.2497 101.525 81.5839 95.5965 86.0206 89.8546C90.4623 84.106 93.0368 78.499 93.6772 77.0244L93.7083 76.9529V76.875V67.9688V67.5938H93.3333H55.8333H55.4583V67.9688V145.312ZM90.9895 32.4375H90.6145V32.8125L90.6146 63.2805L90.6146 63.6555H90.9896H93.3333C94.4769 63.6555 95.5744 64.1099 96.3829 64.9184C97.1914 65.727 97.6458 66.8244 97.6458 67.968V145.312V145.687H98.0208H128.49H128.865V145.312V87.535V86.4651L128.197 87.3008C124.925 91.3942 120.122 95.7188 114.427 95.7188C113.34 95.7188 112.458 94.8372 112.458 93.7501C112.458 92.6629 113.34 91.7813 114.427 91.7813C117.708 91.7813 120.811 89.5645 123.309 86.9524C125.821 84.3257 127.795 81.2215 128.821 79.2868L128.865 79.2044V79.1111V44.3834V43.1704L128.18 44.1718C124.231 49.9489 117.591 56.775 107.675 58.192L107.675 58.1921C106.599 58.3467 105.601 57.599 105.446 56.5219C105.293 55.446 106.04 54.4478 107.116 54.2941L107.07 53.9748L107.116 54.2941C114.074 53.2996 119.253 49.0224 122.806 44.7234C126.361 40.4227 128.32 36.0647 128.835 34.8322L128.865 34.7628V34.6875V32.8125V32.4375H128.49H90.9895ZM86.302 63.6562H86.677V63.2812V51.5625V51.1875H86.302H62.8645H62.4895V51.5625V63.2812V63.6562H62.8645H86.302ZM62.8645 47.25H63.2395V46.875V4.68971V4.31471H62.8645H23.0208H22.6458V4.68971V8.80801V8.89855L22.6871 8.97912C24.3734 12.2678 27.6547 17.8807 31.5831 22.8882C33.5474 25.392 35.6804 27.7534 37.8637 29.5984C40.0421 31.4391 42.2983 32.7896 44.5094 33.2295C45.5005 33.4311 46.1776 34.3502 46.0757 35.3561C45.9738 36.3627 45.1264 37.1281 44.1148 37.1273L44.112 37.1273C43.9815 37.1281 43.8503 37.1151 43.7231 37.0882L43.4025 37.0206C39.5525 36.1413 35.749 33.2956 32.3072 29.7167C28.7795 26.0485 25.6748 21.6557 23.3377 17.9617L22.6458 16.8681V18.1622V65.1765V65.25L22.6735 65.3181C23.1802 66.5608 25.0386 70.926 27.9674 75.2242C30.8828 79.5025 34.9227 83.8105 39.8211 84.7909C40.8127 84.9922 41.4902 85.9115 41.3882 86.9176C41.2863 87.9242 40.4389 88.6897 39.4273 88.6888L39.4245 88.6888C39.294 88.6897 39.1628 88.6766 39.0356 88.6497L39.0319 88.649C32.1291 87.2667 26.8113 80.942 23.3401 75.3017L22.6458 74.1734V75.4982V145.312V145.688H23.0208H51.1458H51.5208V145.312V67.9688C51.5208 66.8251 51.9752 65.7277 52.7837 64.9192C53.5922 64.1106 54.6896 63.6562 55.8333 63.6562H58.177H58.552V63.2812V49.2188C58.552 48.1316 59.4336 47.25 60.5208 47.25H62.8645Z" fill="black" stroke="white" stroke-width="0.75"/>
<path d="M76.4489 122.31L76.4489 122.31C75.4848 122.552 74.852 123.475 74.9731 124.461L76.4489 122.31ZM76.4489 122.31C78.0853 121.898 80.3228 121.112 82.3264 120.085C83.3287 119.572 84.281 118.994 85.0729 118.366C85.8613 117.742 86.512 117.052 86.8833 116.309C87.1174 115.841 87.5263 115.485 88.0214 115.32C88.5115 115.157 89.0457 115.192 89.5078 115.418L89.5253 115.426C89.9935 115.661 90.3493 116.069 90.5143 116.565C90.6731 117.041 90.6444 117.559 90.4352 118.012L90.407 118.069C89.0929 120.697 86.1481 122.65 83.3285 123.986C80.5261 125.315 77.9287 125.999 77.4055 126.13C77.2496 126.168 77.0881 126.188 76.9258 126.189C75.9324 126.188 75.0953 125.448 74.9731 124.461L76.4489 122.31Z" fill="black" stroke="white" stroke-width="0.75"/>
</g>
<defs>
<filter id="filter0_d_4453_76723" x="18.3333" y="0" width="116.844" height="152" filterUnits="userSpaceOnUse" color-interpolation-filters="sRGB">
<feFlood flood-opacity="0" result="BackgroundImageFix"/>
<feColorMatrix in="SourceAlpha" type="matrix" values="0 0 0 0 0 0 0 0 0 0 0 0 0 0 0 0 0 0 127 0" result="hardAlpha"/>
<feOffset dx="2" dy="2"/>
<feComposite in2="hardAlpha" operator="out"/>
<feColorMatrix type="matrix" values="0 0 0 0 0.8 0 0 0 0 1 0 0 0 0 0 0 0 0 1 0"/>
<feBlend mode="normal" in2="BackgroundImageFix" result="effect1_dropShadow_4453_76723"/>
<feBlend mode="normal" in="SourceGraphic" in2="effect1_dropShadow_4453_76723" result="shape"/>
</filter>
</defs>
</svg>
