<svg width="153" height="152" viewBox="0 0 153 152" fill="none" xmlns="http://www.w3.org/2000/svg">
<g filter="url(#filter0_d_4453_76724)">
<mask id="path-1-inside-1_4453_76724" fill="white">
<path d="M143.8 107.136H76.8891L126.887 61.8973C128.233 60.6737 129.041 58.9663 129.131 57.1483C129.22 55.3304 128.585 53.5516 127.364 52.2021L108.278 31.1162C107.058 29.7575 105.344 28.9417 103.52 28.8523C101.694 28.7613 99.9096 29.4058 98.5617 30.6386L61.6073 64.0069L74.8462 16.3151L74.8447 16.3136C75.3269 14.5592 75.0934 12.685 74.1972 11.1003C73.3011 9.51576 71.8151 8.34971 70.0623 7.85839L42.6502 0.249277H42.6517C40.8943 -0.238976 39.0156 -0.00395019 37.4342 0.901302C35.839 1.78228 34.6699 3.27285 34.1953 5.03193L2.37072 119.918C-0.420835 126.433 0.247843 133.916 4.15239 139.833C8.0571 145.75 14.6729 149.31 21.7614 149.307H143.798C145.62 149.307 147.367 148.584 148.654 147.295C149.943 146.008 150.667 144.259 150.667 142.438V114.004C150.667 112.183 149.943 110.436 148.654 109.147C147.367 107.858 145.62 107.135 143.798 107.135L143.8 107.136ZM101.434 33.8785C101.923 33.4448 102.563 33.2189 103.217 33.2477C103.869 33.2916 104.483 33.5782 104.933 34.0528L124.019 55.1388V55.1373C124.944 56.1472 124.876 57.7135 123.868 58.6385L115.455 66.2685L93.065 41.5085L101.434 33.8785ZM89.7611 44.4653L112.194 69.2238L101.933 78.5281L79.5213 53.7467L89.7611 44.4653ZM76.2614 56.6825L98.6726 81.441L88.4343 90.7224L66.0002 65.9639L76.2614 56.6825ZM38.4367 6.18413C38.6263 5.55939 39.0463 5.0317 39.6119 4.7057C40.185 4.3797 40.8659 4.29326 41.5027 4.46612L68.9148 12.0752C69.5456 12.2496 70.0794 12.6727 70.3918 13.2489C70.7193 13.8144 70.8057 14.4877 70.6313 15.1185L67.5881 25.9875L35.4161 17.0745L38.4367 6.18413ZM29.3719 38.9431L38.0664 41.3555H38.0679C38.262 41.3874 38.4606 41.3874 38.6547 41.3555C39.8557 41.5178 40.9595 40.6762 41.1218 39.4753C41.284 38.2759 40.4425 37.1704 39.2415 37.0082L30.5471 34.573L34.2423 21.4005L66.4143 30.3348L62.6311 43.6389L46.8279 39.2917C45.6573 38.9672 44.4457 39.6526 44.1212 40.8232C43.7982 41.9938 44.4836 43.2053 45.6542 43.5298L61.4574 47.8771L57.7622 61.2025L25.6767 52.2682L29.3719 38.9431ZM24.503 56.5067L56.675 65.441L55.5453 69.5274L47.1326 77.1365L20.8078 69.8341L24.503 56.5067ZM39.0023 90.4391L49.2405 81.1577L71.6746 105.918L70.3266 107.135H54.1112L39.0023 90.4391ZM48.1762 107.134L20.547 107.135L35.7633 93.3748L48.1762 107.134ZM19.6344 74.0718L43.2862 80.5936L31.0481 91.6797H31.0466C30.8479 91.525 30.619 91.4128 30.3733 91.3537L15.9183 87.3535L19.6344 74.0718ZM14.8078 91.6141L27.372 95.1138C27.372 95.1138 9.67643 110.982 9.37326 111.2L14.8078 91.6141ZM36.9372 144.915H21.7209C15.7573 144.915 10.2455 141.734 7.26273 136.568C4.28011 131.403 4.28011 125.039 7.26273 119.873C10.2454 114.708 15.7573 111.525 21.7209 111.525H36.9372V144.915ZM55.1754 144.915H41.3496V111.525H55.1754V144.915ZM73.3927 144.915H59.5669V111.525H73.5007L73.3927 144.915ZM52.5024 78.2025L62.7636 68.9211L85.1748 93.6796L74.9365 102.961L52.5024 78.2025ZM109.825 144.915H95.9992V141.306C95.9992 140.107 95.0257 139.133 93.8263 139.133C92.6253 139.133 91.6518 140.107 91.6518 141.306V144.915H77.8485V111.525H91.6744V132.525H91.6728C91.6728 133.725 92.6463 134.698 93.8473 134.698C95.0482 134.698 96.0202 133.725 96.0202 132.525V111.525H109.846L109.825 144.915ZM128.063 144.915H114.216V111.525H128.063V144.915ZM146.281 142.437H146.279C146.279 143.805 145.171 144.915 143.801 144.915H132.455V111.525H143.801C145.171 111.525 146.279 112.635 146.279 114.003L146.281 142.437Z"/>
</mask>
<path d="M143.8 107.136H76.8891L126.887 61.8973C128.233 60.6737 129.041 58.9663 129.131 57.1483C129.22 55.3304 128.585 53.5516 127.364 52.2021L108.278 31.1162C107.058 29.7575 105.344 28.9417 103.52 28.8523C101.694 28.7613 99.9096 29.4058 98.5617 30.6386L61.6073 64.0069L74.8462 16.3151L74.8447 16.3136C75.3269 14.5592 75.0934 12.685 74.1972 11.1003C73.3011 9.51576 71.8151 8.34971 70.0623 7.85839L42.6502 0.249277H42.6517C40.8943 -0.238976 39.0156 -0.00395019 37.4342 0.901302C35.839 1.78228 34.6699 3.27285 34.1953 5.03193L2.37072 119.918C-0.420835 126.433 0.247843 133.916 4.15239 139.833C8.0571 145.75 14.6729 149.31 21.7614 149.307H143.798C145.62 149.307 147.367 148.584 148.654 147.295C149.943 146.008 150.667 144.259 150.667 142.438V114.004C150.667 112.183 149.943 110.436 148.654 109.147C147.367 107.858 145.62 107.135 143.798 107.135L143.8 107.136ZM101.434 33.8785C101.923 33.4448 102.563 33.2189 103.217 33.2477C103.869 33.2916 104.483 33.5782 104.933 34.0528L124.019 55.1388V55.1373C124.944 56.1472 124.876 57.7135 123.868 58.6385L115.455 66.2685L93.065 41.5085L101.434 33.8785ZM89.7611 44.4653L112.194 69.2238L101.933 78.5281L79.5213 53.7467L89.7611 44.4653ZM76.2614 56.6825L98.6726 81.441L88.4343 90.7224L66.0002 65.9639L76.2614 56.6825ZM38.4367 6.18413C38.6263 5.55939 39.0463 5.0317 39.6119 4.7057C40.185 4.3797 40.8659 4.29326 41.5027 4.46612L68.9148 12.0752C69.5456 12.2496 70.0794 12.6727 70.3918 13.2489C70.7193 13.8144 70.8057 14.4877 70.6313 15.1185L67.5881 25.9875L35.4161 17.0745L38.4367 6.18413ZM29.3719 38.9431L38.0664 41.3555H38.0679C38.262 41.3874 38.4606 41.3874 38.6547 41.3555C39.8557 41.5178 40.9595 40.6762 41.1218 39.4753C41.284 38.2759 40.4425 37.1704 39.2415 37.0082L30.5471 34.573L34.2423 21.4005L66.4143 30.3348L62.6311 43.6389L46.8279 39.2917C45.6573 38.9672 44.4457 39.6526 44.1212 40.8232C43.7982 41.9938 44.4836 43.2053 45.6542 43.5298L61.4574 47.8771L57.7622 61.2025L25.6767 52.2682L29.3719 38.9431ZM24.503 56.5067L56.675 65.441L55.5453 69.5274L47.1326 77.1365L20.8078 69.8341L24.503 56.5067ZM39.0023 90.4391L49.2405 81.1577L71.6746 105.918L70.3266 107.135H54.1112L39.0023 90.4391ZM48.1762 107.134L20.547 107.135L35.7633 93.3748L48.1762 107.134ZM19.6344 74.0718L43.2862 80.5936L31.0481 91.6797H31.0466C30.8479 91.525 30.619 91.4128 30.3733 91.3537L15.9183 87.3535L19.6344 74.0718ZM14.8078 91.6141L27.372 95.1138C27.372 95.1138 9.67643 110.982 9.37326 111.2L14.8078 91.6141ZM36.9372 144.915H21.7209C15.7573 144.915 10.2455 141.734 7.26273 136.568C4.28011 131.403 4.28011 125.039 7.26273 119.873C10.2454 114.708 15.7573 111.525 21.7209 111.525H36.9372V144.915ZM55.1754 144.915H41.3496V111.525H55.1754V144.915ZM73.3927 144.915H59.5669V111.525H73.5007L73.3927 144.915ZM52.5024 78.2025L62.7636 68.9211L85.1748 93.6796L74.9365 102.961L52.5024 78.2025ZM109.825 144.915H95.9992V141.306C95.9992 140.107 95.0257 139.133 93.8263 139.133C92.6253 139.133 91.6518 140.107 91.6518 141.306V144.915H77.8485V111.525H91.6744V132.525H91.6728C91.6728 133.725 92.6463 134.698 93.8473 134.698C95.0482 134.698 96.0202 133.725 96.0202 132.525V111.525H109.846L109.825 144.915ZM128.063 144.915H114.216V111.525H128.063V144.915ZM146.281 142.437H146.279C146.279 143.805 145.171 144.915 143.801 144.915H132.455V111.525H143.801C145.171 111.525 146.279 112.635 146.279 114.003L146.281 142.437Z" fill="black" stroke="white" mask="url(#path-1-inside-1_4453_76724)"/>
<path d="M18.267 131.038C18.8966 132.573 20.3457 133.602 21.9828 133.697L21.983 133.747L22.231 133.748C23.3765 133.753 24.4753 133.298 25.2812 132.484C26.0883 131.67 26.5344 130.564 26.5236 129.416C26.531 127.673 25.4933 126.096 23.8905 125.421C22.2884 124.747 20.4392 125.11 19.2067 126.34L19.2064 126.34C17.9759 127.571 17.604 129.426 18.267 131.038ZM18.267 131.038C18.2669 131.038 18.2669 131.038 18.2669 131.037L18.4982 130.943L18.267 131.038C18.267 131.038 18.267 131.038 18.267 131.038ZM16.4331 135.244L16.4331 135.244C14.8955 133.699 14.0304 131.603 14.0304 129.417C14.0304 127.231 14.8954 125.135 16.4331 123.589C17.972 122.044 20.0579 121.176 22.232 121.176C24.4076 121.176 26.4933 122.044 28.0308 123.589L28.0308 123.589C29.5699 125.135 30.4335 127.231 30.4335 129.417C30.4335 131.603 29.5699 133.699 28.0309 135.244L28.0307 135.244C26.4935 136.79 24.4077 137.657 22.232 137.657C20.0578 137.657 17.9721 136.79 16.4331 135.244Z" fill="black" stroke="white" stroke-width="0.5"/>
</g>
<defs>
<filter id="filter0_d_4453_76724" x="0.666626" y="0" width="152" height="151.309" filterUnits="userSpaceOnUse" color-interpolation-filters="sRGB">
<feFlood flood-opacity="0" result="BackgroundImageFix"/>
<feColorMatrix in="SourceAlpha" type="matrix" values="0 0 0 0 0 0 0 0 0 0 0 0 0 0 0 0 0 0 127 0" result="hardAlpha"/>
<feOffset dx="2" dy="2"/>
<feComposite in2="hardAlpha" operator="out"/>
<feColorMatrix type="matrix" values="0 0 0 0 0.8 0 0 0 0 1 0 0 0 0 0 0 0 0 1 0"/>
<feBlend mode="normal" in2="BackgroundImageFix" result="effect1_dropShadow_4453_76724"/>
<feBlend mode="normal" in="SourceGraphic" in2="effect1_dropShadow_4453_76724" result="shape"/>
</filter>
</defs>
</svg>
