<svg width="153" height="150" viewBox="0 0 153 150" fill="none" xmlns="http://www.w3.org/2000/svg">
<g filter="url(#filter0_d_1_378)">
<path d="M77.5711 74.3697C77.5711 75.3877 76.7471 76.2117 75.7291 76.2117C74.7111 76.2117 73.8871 75.3877 73.8871 74.3697C73.8871 73.3517 74.7111 72.5277 75.7291 72.5277C76.7471 72.5277 77.5711 73.3517 77.5711 74.3697Z" fill="black" stroke="white" stroke-width="0.7"/>
<path d="M77.5711 93.1432C77.5711 94.1612 76.7471 94.9852 75.7291 94.9852C74.7111 94.9852 73.8871 94.1612 73.8871 93.1432C73.8871 92.1252 74.7111 91.3012 75.7291 91.3012C76.7471 91.3012 77.5711 92.1252 77.5711 93.1432Z" fill="black" stroke="white" stroke-width="0.7"/>
<path d="M77.5711 93.1432C77.5711 94.1612 76.7471 94.9852 75.7291 94.9852C74.7111 94.9852 73.8871 94.1612 73.8871 93.1432C73.8871 92.1252 74.7111 91.3012 75.7291 91.3012C76.7471 91.3012 77.5711 92.1252 77.5711 93.1432Z" fill="black" stroke="white" stroke-width="0.7"/>
<path d="M77.5711 36.7057C77.5711 37.7237 76.7471 38.5477 75.7291 38.5477C74.7111 38.5477 73.8871 37.7237 73.8871 36.7057C73.8871 35.6877 74.7111 34.8637 75.7291 34.8637C76.7471 34.8637 77.5711 35.6877 77.5711 36.7057Z" fill="black" stroke="white" stroke-width="0.7"/>
<path d="M77.5711 55.4381C77.5711 56.4561 76.7471 57.2801 75.7291 57.2801C74.7111 57.2801 73.8871 56.4561 73.8871 55.4381C73.8871 54.4201 74.7111 53.5961 75.7291 53.5961C76.7471 53.5961 77.5711 54.4201 77.5711 55.4381Z" fill="black" stroke="white" stroke-width="0.7"/>
<path d="M77.5711 110.876C77.5711 111.894 76.7471 112.718 75.7291 112.718C74.7111 112.718 73.8871 111.894 73.8871 110.876C73.8871 109.858 74.7111 109.034 75.7291 109.034C76.7471 109.034 77.5711 109.858 77.5711 110.876Z" fill="black" stroke="white" stroke-width="0.7"/>
<path d="M77.5711 129.608C77.5711 130.626 76.7471 131.45 75.7291 131.45C74.7111 131.45 73.8871 130.626 73.8871 129.608C73.8871 128.59 74.7111 127.766 75.7291 127.766C76.7471 127.766 77.5711 128.59 77.5711 129.608Z" fill="black" stroke="white" stroke-width="0.7"/>
<path d="M88.6383 69.6463L88.6383 69.6463L88.6308 69.6447C88.0042 69.5194 87.557 68.9516 87.557 68.314V45.6766C87.557 44.9134 88.1576 44.3129 88.9208 44.3129H110.323H110.323C111.081 44.3129 111.691 44.9103 111.726 45.6843V68.314C111.726 68.9516 111.279 69.5194 110.653 69.6447L110.653 69.6447L110.645 69.6463L99.9242 72.0376L99.9067 72.0415L99.8897 72.0472C99.8323 72.0663 99.7692 72.0691 99.6417 72.0691C99.5143 72.0691 99.4511 72.0663 99.3937 72.0472L99.3767 72.0415L99.3592 72.0376L88.6383 69.6463ZM108.959 47.4302V47.0802H108.609H90.6742H90.3242V47.4302V50.499V50.849H90.6742H108.609H108.959V50.499V47.4302ZM99.5257 69.2932L99.6016 69.3101L99.6775 69.2932L108.645 67.3004L108.919 67.2395V66.9588V53.9663V53.6163H108.569H90.6344H90.2844V53.9663V66.9588V67.2395L90.5585 67.3004L99.5257 69.2932Z" fill="black" stroke="white" stroke-width="0.7"/>
<mask id="path-9-inside-1_1_378" fill="white">
<path d="M150.415 55.9968L126.423 18.8114C126.343 18.6918 126.263 18.6121 126.184 18.5324C115.024 7.37311 105.898 5.53989 101.792 5.38029L97.0897 0.677536C96.7708 0.3587 94.8977 0 94.7383 0H56.2374C56.1577 0 54.5236 0.27898 54.2048 0.637673L49.4619 5.38051C45.3171 5.57978 36.2701 7.45295 25.1906 18.5326C25.1109 18.6123 25.0312 18.7319 24.9515 18.8116L0.958947 55.9971C0.679967 56.3956 0.600254 56.9137 0.71982 57.3521C0.839382 57.8304 1.15821 58.2289 1.55678 58.4282L26.2267 71.979C26.6253 72.2181 27.1035 72.2579 27.5419 72.1384C27.9804 72.0188 28.339 71.7 28.5782 71.3014L31.2484 66.3195V145.712C31.2484 146.668 32.0057 147.425 32.9622 147.425H118.25C119.207 147.425 119.964 146.668 119.964 145.712V66.3195L122.634 71.3014C122.833 71.7 123.232 72.0188 123.67 72.1384C124.109 72.2579 124.587 72.2181 124.986 71.979L149.655 58.4282C150.094 58.1891 150.373 57.7905 150.492 57.3521C150.771 56.9137 150.692 56.3956 150.413 55.9971L150.415 55.9968ZM101.234 9.68718L83.6185 27.303L78.3178 22.0023L95.9336 4.38647L101.234 9.68718ZM75.7273 19.6906L64.1297 8.09299H87.3651L75.7273 19.6906ZM91.9082 3.50976L89.6764 5.74162H61.8578L59.6259 3.50976H91.9082ZM55.481 4.34672L73.0968 21.9625L67.7961 27.2632L50.1803 9.64742L55.481 4.34672ZM69.7092 143.957H34.7967V59.347C34.7967 58.5499 34.2388 57.8723 33.4815 57.6731C32.7242 57.4738 31.9272 57.8325 31.5286 58.5498L26.4272 68.1547L4.90593 56.3577L26.1088 23.4778L30.5725 43.6042C30.7717 44.4013 31.4493 44.9593 32.2464 44.9593C32.3659 44.9593 32.4855 44.9593 32.6051 44.9194C33.5217 44.7202 34.1195 43.8035 33.9203 42.847L28.8189 19.851C35.873 13.1158 41.9309 10.4853 45.9563 9.48867V9.84736V9.88722C45.9563 10.0068 45.9961 10.0865 46.036 10.2061V10.2459C46.0759 10.3256 46.1157 10.4452 46.1556 10.5249C46.1556 10.5647 46.1954 10.5647 46.1954 10.6046C46.2751 10.7242 46.3548 10.8039 46.4345 10.8836L66.4815 30.9306C66.8004 31.2494 67.2786 31.4487 67.717 31.4487C68.1554 31.4487 68.5938 31.2893 68.9525 30.9306L69.6699 30.2132V143.96L69.7092 143.957ZM78.5969 143.957H73.1766V26.7455L75.6875 24.2346L78.5969 27.144V143.957ZM124.987 68.1141L119.885 58.5092C119.527 57.7918 118.73 57.4332 117.932 57.6325C117.175 57.8317 116.617 58.5093 116.617 59.3064V143.917H82.0233V30.6111L82.3819 30.9698C82.7008 31.2886 83.1392 31.4879 83.6174 31.4879C84.0957 31.4879 84.5341 31.2886 84.8529 30.9698L104.9 10.9228C104.98 10.8431 105.059 10.7235 105.139 10.6039C105.139 10.5641 105.179 10.5641 105.179 10.5242C105.219 10.4445 105.259 10.3648 105.298 10.2452C105.298 10.2054 105.298 10.2054 105.338 10.1655C105.378 10.046 105.378 9.96625 105.418 9.84669V9.80684V9.44814C109.443 10.4445 115.501 13.0749 122.595 19.8502L117.494 42.8462C117.295 43.7628 117.893 44.7194 118.809 44.9186C118.929 44.9585 119.048 44.9585 119.168 44.9585C119.965 44.9585 120.682 44.4006 120.842 43.6034L125.306 23.477L146.508 56.3569L124.987 68.1141Z"/>
</mask>
<path d="M150.415 55.9968L126.423 18.8114C126.343 18.6918 126.263 18.6121 126.184 18.5324C115.024 7.37311 105.898 5.53989 101.792 5.38029L97.0897 0.677536C96.7708 0.3587 94.8977 0 94.7383 0H56.2374C56.1577 0 54.5236 0.27898 54.2048 0.637673L49.4619 5.38051C45.3171 5.57978 36.2701 7.45295 25.1906 18.5326C25.1109 18.6123 25.0312 18.7319 24.9515 18.8116L0.958947 55.9971C0.679967 56.3956 0.600254 56.9137 0.71982 57.3521C0.839382 57.8304 1.15821 58.2289 1.55678 58.4282L26.2267 71.979C26.6253 72.2181 27.1035 72.2579 27.5419 72.1384C27.9804 72.0188 28.339 71.7 28.5782 71.3014L31.2484 66.3195V145.712C31.2484 146.668 32.0057 147.425 32.9622 147.425H118.25C119.207 147.425 119.964 146.668 119.964 145.712V66.3195L122.634 71.3014C122.833 71.7 123.232 72.0188 123.67 72.1384C124.109 72.2579 124.587 72.2181 124.986 71.979L149.655 58.4282C150.094 58.1891 150.373 57.7905 150.492 57.3521C150.771 56.9137 150.692 56.3956 150.413 55.9971L150.415 55.9968ZM101.234 9.68718L83.6185 27.303L78.3178 22.0023L95.9336 4.38647L101.234 9.68718ZM75.7273 19.6906L64.1297 8.09299H87.3651L75.7273 19.6906ZM91.9082 3.50976L89.6764 5.74162H61.8578L59.6259 3.50976H91.9082ZM55.481 4.34672L73.0968 21.9625L67.7961 27.2632L50.1803 9.64742L55.481 4.34672ZM69.7092 143.957H34.7967V59.347C34.7967 58.5499 34.2388 57.8723 33.4815 57.6731C32.7242 57.4738 31.9272 57.8325 31.5286 58.5498L26.4272 68.1547L4.90593 56.3577L26.1088 23.4778L30.5725 43.6042C30.7717 44.4013 31.4493 44.9593 32.2464 44.9593C32.3659 44.9593 32.4855 44.9593 32.6051 44.9194C33.5217 44.7202 34.1195 43.8035 33.9203 42.847L28.8189 19.851C35.873 13.1158 41.9309 10.4853 45.9563 9.48867V9.84736V9.88722C45.9563 10.0068 45.9961 10.0865 46.036 10.2061V10.2459C46.0759 10.3256 46.1157 10.4452 46.1556 10.5249C46.1556 10.5647 46.1954 10.5647 46.1954 10.6046C46.2751 10.7242 46.3548 10.8039 46.4345 10.8836L66.4815 30.9306C66.8004 31.2494 67.2786 31.4487 67.717 31.4487C68.1554 31.4487 68.5938 31.2893 68.9525 30.9306L69.6699 30.2132V143.96L69.7092 143.957ZM78.5969 143.957H73.1766V26.7455L75.6875 24.2346L78.5969 27.144V143.957ZM124.987 68.1141L119.885 58.5092C119.527 57.7918 118.73 57.4332 117.932 57.6325C117.175 57.8317 116.617 58.5093 116.617 59.3064V143.917H82.0233V30.6111L82.3819 30.9698C82.7008 31.2886 83.1392 31.4879 83.6174 31.4879C84.0957 31.4879 84.5341 31.2886 84.8529 30.9698L104.9 10.9228C104.98 10.8431 105.059 10.7235 105.139 10.6039C105.139 10.5641 105.179 10.5641 105.179 10.5242C105.219 10.4445 105.259 10.3648 105.298 10.2452C105.298 10.2054 105.298 10.2054 105.338 10.1655C105.378 10.046 105.378 9.96625 105.418 9.84669V9.80684V9.44814C109.443 10.4445 115.501 13.0749 122.595 19.8502L117.494 42.8462C117.295 43.7628 117.893 44.7194 118.809 44.9186C118.929 44.9585 119.048 44.9585 119.168 44.9585C119.965 44.9585 120.682 44.4006 120.842 43.6034L125.306 23.477L146.508 56.3569L124.987 68.1141Z" fill="black" stroke="white" stroke-width="0.4" mask="url(#path-9-inside-1_1_378)"/>
</g>
<defs>
<filter id="filter0_d_1_378" x="0.666016" y="0" width="152" height="149.426" filterUnits="userSpaceOnUse" color-interpolation-filters="sRGB">
<feFlood flood-opacity="0" result="BackgroundImageFix"/>
<feColorMatrix in="SourceAlpha" type="matrix" values="0 0 0 0 0 0 0 0 0 0 0 0 0 0 0 0 0 0 127 0" result="hardAlpha"/>
<feOffset dx="2" dy="2"/>
<feComposite in2="hardAlpha" operator="out"/>
<feColorMatrix type="matrix" values="0 0 0 0 0.8 0 0 0 0 1 0 0 0 0 0 0 0 0 1 0"/>
<feBlend mode="normal" in2="BackgroundImageFix" result="effect1_dropShadow_1_378"/>
<feBlend mode="normal" in="SourceGraphic" in2="effect1_dropShadow_1_378" result="shape"/>
</filter>
</defs>
</svg>
