<svg width="152" height="152" viewBox="0 0 152 152" fill="none" xmlns="http://www.w3.org/2000/svg">
<g filter="url(#filter0_d_4453_76722)">
<path d="M140.185 66.0347C138.38 64.2319 136.435 62.7106 134.396 61.3764L136.271 58.1696C136.74 57.3274 136.459 56.2495 135.615 55.7589C134.772 55.2913 133.693 55.5717 133.225 56.4139L131.349 59.6207C129.661 58.7543 127.903 58.0523 126.122 57.4904L127.083 53.862C127.341 52.9255 126.778 51.9661 125.84 51.7317C124.903 51.4743 123.942 52.0362 123.684 52.9726L122.724 56.577C120.872 56.1794 118.997 55.945 117.122 55.8508V52.105C117.122 51.1215 116.324 50.3493 115.364 50.3493C114.379 50.3493 113.605 51.1215 113.605 52.105V55.8508C111.707 55.9438 109.832 56.1782 107.979 56.577L107.019 52.9726C106.761 52.0362 105.8 51.4743 104.862 51.7317C103.925 51.9661 103.362 52.9255 103.62 53.862L104.581 57.4904C102.8 58.0523 101.041 58.7543 99.3536 59.6207L97.4782 56.4139C97.01 55.5716 95.9307 55.2901 95.0874 55.7589C94.244 56.2507 93.9621 57.3274 94.4546 58.1696L96.3058 61.3764C94.7353 62.383 93.2592 63.5539 91.852 64.8178C91.5943 62.8276 90.9844 61.0489 89.9294 60.0194C88.7812 58.8727 87.0461 58.3338 85.3823 58.0764C86.6008 56.7182 87.726 55.2912 88.6879 53.7928L91.922 55.6415C92.2027 55.8059 92.4846 55.8759 92.7895 55.8759C93.3993 55.8759 93.9849 55.5714 94.3128 54.9866C94.8053 54.1674 94.5234 53.0907 93.68 52.5989L90.446 50.7502C91.3135 49.0416 92.0165 47.3088 92.6021 45.506L96.2112 46.4896C96.3758 46.5126 96.5161 46.5368 96.6565 46.5368C97.4538 46.5368 98.1568 46.022 98.3673 45.2257C98.625 44.2893 98.0624 43.3298 97.1247 43.0954L93.5156 42.1118C93.8907 40.2631 94.1254 38.3903 94.2185 36.5172H97.9925C98.9532 36.5172 99.7505 35.721 99.7505 34.7615C99.7505 33.7779 98.9532 33.0058 97.9925 33.0058L94.2198 33.0046C94.1266 31.1317 93.8919 29.2589 93.5168 27.41L97.126 26.4264C98.0637 26.169 98.6263 25.2096 98.3686 24.2732C98.1108 23.3367 97.1502 22.799 96.2125 23.0322L92.6033 24.0158C92.0177 22.213 91.3135 20.4573 90.4472 18.7717L93.6813 16.9229C94.5246 16.4312 94.8065 15.3545 94.3141 14.5123C93.8216 13.6701 92.7436 13.3886 91.9232 13.8803L88.6892 15.7291C87.3764 13.6931 85.8289 11.7501 84.048 9.97025C83.368 9.29117 82.2428 9.29117 81.5628 9.97025C80.8828 10.6493 80.8828 11.7731 81.5628 12.4521C93.8689 24.7419 93.8689 44.7805 81.5628 57.0703L80.6251 58.0068C78.7497 58.217 75.1163 58.8031 73.242 60.676C71.2964 62.619 70.4289 66.8797 70.4531 70.2508C70.4531 71 70.5233 71.8421 70.6407 72.7085C69.6328 72.5212 68.6019 72.4282 67.4995 72.5684C64.241 72.9429 61.1702 74.6986 59.7172 76.9219C56.8557 80.8526 8.10141 129.942 8.10141 129.942C7.42143 130.621 7.42143 131.744 8.10141 132.423C8.4535 132.751 8.89875 132.938 9.34401 132.938C9.81225 132.938 10.2587 132.751 10.6096 132.423L13.2582 129.754L16.2346 132.727C16.5867 133.078 17.032 133.242 17.4772 133.242C17.9225 133.242 18.3677 133.077 18.7198 132.727C19.3998 132.048 19.3998 130.924 18.7198 130.245L15.7434 127.272L20.9945 122.028L23.9709 125.001C24.323 125.352 24.7683 125.516 25.2135 125.516C25.6588 125.516 26.104 125.351 26.4561 125.001C27.1361 124.322 27.1361 123.198 26.4561 122.519L23.4797 119.546L28.7308 114.302L31.7072 117.275C32.0593 117.626 32.5046 117.789 32.9498 117.789C33.3951 117.789 33.8645 117.625 34.1924 117.275C34.8724 116.596 34.8724 115.472 34.1924 114.793L31.216 111.82L36.4671 106.576L39.4435 109.549C39.7956 109.9 40.2409 110.063 40.6861 110.063C41.1314 110.063 41.6008 109.899 41.9287 109.549C42.6317 108.87 42.6317 107.746 41.9287 107.067L38.9523 104.094L46.2421 96.8142C46.2191 98.8272 46.8277 100.56 48.0703 101.871C49.3129 103.042 50.9766 103.65 52.9463 103.65H53.0866L49.6649 107.067L46.6884 104.094C46.0085 103.392 44.8832 103.392 44.2032 104.094C43.5233 104.774 43.5233 105.873 44.2032 106.576L47.1797 109.549L41.9249 114.797L38.9484 111.824C38.2684 111.122 37.1432 111.122 36.4632 111.824C35.7832 112.503 35.7832 113.603 36.4632 114.306L39.4397 117.279L34.1886 122.523L31.2121 119.55C30.5321 118.848 29.4069 118.848 28.7269 119.55C28.0469 120.229 28.0469 121.353 28.7269 122.032L31.7034 125.005L26.4523 130.249L23.4758 127.276C22.7958 126.597 21.6706 126.597 20.9906 127.276C20.2877 127.955 20.2877 129.079 20.9906 129.758L23.9671 132.731L17.4274 139.239C16.7475 139.941 16.7475 141.042 17.4274 141.721C17.7795 142.072 18.2248 142.235 18.6701 142.235C19.1153 142.235 19.5848 142.071 19.9127 141.721L27.695 133.973C27.695 133.973 69.0427 93.0542 72.9579 90.2207C75.2556 88.6994 76.9663 85.6556 77.3646 82.4017C77.482 81.3009 77.4118 80.2485 77.2001 79.2419C78.0204 79.3591 78.8408 79.4292 79.7083 79.4292C83.4822 79.4292 87.4906 78.3755 89.2246 76.6669C90.5604 75.3088 91.498 72.5936 91.8502 69.667L92.9984 68.5203C105.328 56.2073 125.37 56.2073 137.698 68.5203C138.378 69.1994 139.479 69.1994 140.183 68.5203C140.865 67.8134 140.865 66.7139 140.185 66.0348L140.185 66.0347ZM73.8722 82.0003C73.6144 84.1777 72.419 86.3538 70.9889 87.2905C70.9659 87.3135 70.9417 87.3376 70.9187 87.3376C66.84 90.3101 62.9961 93.6585 59.5031 97.2629C57.9797 98.8542 55.284 100.072 53.1038 100.142C51.9555 100.142 51.088 99.885 50.5484 99.3932C49.9857 98.7841 49.705 97.919 49.751 96.7711C49.7982 94.5936 51.0166 91.9257 52.6573 90.3803C56.2435 86.916 59.572 83.0772 62.5957 78.9096C63.5334 77.4813 65.7136 76.3117 67.9171 76.0531C68.1979 76.0059 68.5028 76.0059 68.8319 76.0059C69.5118 76.0059 70.285 76.1231 71.0122 76.4035L67.2153 80.1953C66.5124 80.8744 66.5124 81.974 67.2153 82.6772C67.5432 83.0047 68.0127 83.192 68.4579 83.192C68.9032 83.192 69.3484 83.0047 69.7005 82.6772L73.4745 78.8854C73.9197 79.9862 73.9669 81.1099 73.8725 82.0004L73.8722 82.0003ZM86.7411 74.1813C85.288 75.6325 79.7561 76.4288 76.7082 75.6796L81.5371 70.8571C82.2171 70.1551 82.2171 69.0543 81.5371 68.3522C80.8571 67.6731 79.7319 67.6731 79.0519 68.3522L74.2701 73.1277C74.0825 72.4015 73.9651 71.4421 73.9651 70.2483C73.9422 66.9712 74.8799 64.0217 75.7232 63.1785C76.4262 62.4522 78.6767 61.633 81.63 61.4457C82.0523 61.4227 82.4274 61.3986 82.8025 61.3986C85.2405 61.3986 86.8812 61.9375 87.4437 62.4994C89.3191 64.3735 88.5459 72.3788 86.7407 74.1816L86.7411 74.1813Z" fill="black"/>
<path d="M115.362 66.8047C109.08 66.8047 103.197 69.2395 98.7899 73.6403L25.3526 147.005C24.6726 147.684 24.6726 148.808 25.3526 149.487C25.7047 149.838 26.1499 150.002 26.5952 150.002C27.0404 150.002 27.4857 149.837 27.8378 149.487L101.275 76.147C105.026 72.4013 110.041 70.342 115.362 70.342C120.684 70.365 125.699 72.4494 129.449 76.194C130.129 76.8731 131.255 76.8731 131.935 76.194C132.615 75.5149 132.615 74.3912 131.935 73.7121C127.527 69.2654 121.643 66.8307 115.361 66.8065L115.362 66.8047Z" fill="black"/>
<path d="M149.493 56.7386C137.281 44.5429 121.529 39.6031 106.761 43.1849C110.37 28.46 105.425 12.7301 93.1891 0.509309C92.5091 -0.16977 91.3838 -0.16977 90.7038 0.509309C90.0239 1.18839 90.0239 2.31213 90.7038 2.99121C102.823 15.0939 107.252 30.8711 102.518 45.175C102.307 45.8069 102.471 46.486 102.94 46.9778C103.408 47.4696 104.113 47.6097 104.745 47.3995C119.067 42.6713 134.865 47.095 146.985 59.1978C147.337 59.5494 147.782 59.7125 148.228 59.7125C148.673 59.7125 149.118 59.5482 149.47 59.1978C150.173 58.5175 150.173 57.4179 149.493 56.7388L149.493 56.7386Z" fill="black"/>
<path d="M76.4306 18.2085C75.7507 17.5294 74.6254 17.5294 73.9454 18.2085C73.2654 18.8876 73.2654 20.0114 73.9454 20.6904C81.7278 28.4624 81.7278 41.0798 73.9684 48.8277L0.509467 122.192C-0.170514 122.871 -0.170514 123.995 0.509467 124.674C0.861554 125.026 1.30681 125.189 1.75207 125.189C2.19733 125.189 2.64258 125.025 2.99467 124.674L76.4319 51.3343C85.5719 42.204 85.5719 27.3406 76.4307 18.2109L76.4306 18.2085Z" fill="black"/>
</g>
<defs>
<filter id="filter0_d_4453_76722" x="-0.000518799" y="0" width="152.001" height="152" filterUnits="userSpaceOnUse" color-interpolation-filters="sRGB">
<feFlood flood-opacity="0" result="BackgroundImageFix"/>
<feColorMatrix in="SourceAlpha" type="matrix" values="0 0 0 0 0 0 0 0 0 0 0 0 0 0 0 0 0 0 127 0" result="hardAlpha"/>
<feOffset dx="2" dy="2"/>
<feComposite in2="hardAlpha" operator="out"/>
<feColorMatrix type="matrix" values="0 0 0 0 0.8 0 0 0 0 1 0 0 0 0 0 0 0 0 1 0"/>
<feBlend mode="normal" in2="BackgroundImageFix" result="effect1_dropShadow_4453_76722"/>
<feBlend mode="normal" in="SourceGraphic" in2="effect1_dropShadow_4453_76722" result="shape"/>
</filter>
</defs>
</svg>
