<svg width="153" height="152" viewBox="0 0 153 152" fill="none" xmlns="http://www.w3.org/2000/svg">
<g filter="url(#filter0_d_4453_76721)">
<path d="M18.8289 141.798C24.3354 141.798 28.8103 137.322 28.8103 131.836C28.8103 126.352 24.3354 121.875 18.8289 121.875C13.3466 121.875 8.87054 126.351 8.87054 131.836C8.87054 137.322 13.3454 141.798 18.8289 141.798ZM18.8289 125.392C22.3907 125.392 25.2958 128.275 25.2958 131.837C25.2958 135.4 22.3908 138.283 18.8289 138.283C15.2672 138.282 12.3853 135.399 12.3853 131.836C12.3853 128.274 15.2673 125.391 18.8289 125.391V125.392Z" fill="black"/>
<path d="M18.829 133.621C19.7893 133.621 20.5863 132.823 20.5863 131.84C20.5863 130.855 19.7893 130.082 18.829 130.082C17.8675 130.081 17.0717 130.878 17.0717 131.839C17.0717 132.8 17.8675 133.621 18.829 133.621Z" fill="black"/>
<path d="M145.256 12.4922C144.061 11.9998 142.867 11.5546 141.672 11.1324C141.579 11.0852 141.484 11.0392 141.367 11.015C138.18 9.91288 134.994 9.09266 131.808 8.5071C131.715 8.48411 131.643 8.48411 131.55 8.45992C124.919 7.28762 118.242 7.10012 111.564 7.59249C111.447 7.59249 111.307 7.59249 111.189 7.61548C106.832 7.94333 102.473 8.53007 98.1152 9.30313C98.0221 9.30313 97.9508 9.32612 97.8576 9.35031C90.2659 10.7101 82.6987 12.584 75.2243 14.4363C62.5726 17.577 49.4973 20.7878 37.0087 21.2099V18.1637C37.0087 8.15642 28.8547 0 18.8273 0C8.8206 0 0.666626 8.15642 0.666626 18.1649V131.836C0.666626 141.844 8.8206 150 18.8261 150C19.3655 150 19.8807 149.977 20.4189 149.93H35.2973C48.7231 149.742 62.6399 146.297 76.0889 142.969C97.9723 137.555 120.583 131.929 141.975 140.063C143.942 140.813 146.145 140.531 147.879 139.336C149.636 138.14 150.667 136.148 150.667 134.015V20.6004C150.621 17.0388 148.511 13.8739 145.255 12.4911L145.256 12.4922ZM137.267 13.4297C134.15 16.43 132.3 20.6013 132.3 25.0316C132.3 33.4686 138.837 40.4299 147.108 41.0856V45.9368C136.166 45.2569 127.45 36.1399 127.45 25.0304C127.45 20.3195 129.043 15.7962 131.925 12.116C133.705 12.4692 135.487 12.9144 137.267 13.4298V13.4297ZM147.108 92.9282C140.781 92.2725 135.814 86.9518 135.814 80.4601C135.814 73.9912 140.711 68.7179 147.108 67.9919V92.9282ZM147.108 64.382C138.837 65.0619 132.3 71.9989 132.3 80.4359C132.3 88.8729 138.837 95.8342 147.108 96.4898V101.365C136.166 100.685 127.45 91.5683 127.45 80.4359C127.45 69.3035 136.166 60.2093 147.108 59.5295V64.382ZM147.108 119.81C139.541 120.42 133.449 126.279 132.464 133.755C130.871 133.45 129.277 133.193 127.684 133.005C129.02 123.161 137.173 115.568 147.132 114.959L147.131 119.81L147.108 119.81ZM147.108 20.5988V37.497C140.781 36.8413 135.814 31.5206 135.814 25.0288C135.814 20.9036 137.876 17.0369 141.226 14.7166C142.116 15.0444 143.006 15.3493 143.898 15.7243C145.841 16.5445 147.108 18.4657 147.108 20.5985L147.108 20.5988ZM128.058 11.5061C125.411 15.4899 123.934 20.1779 123.934 25.0292C123.934 38.0839 134.221 48.7712 147.107 49.451V56.0131C134.221 56.693 123.934 67.3802 123.934 80.435C123.934 93.5129 134.221 104.2 147.107 104.88V111.442C135.345 112.075 125.692 121.028 124.169 132.676C122.529 132.559 120.865 132.489 119.202 132.466C117.539 120.513 107.206 111.372 94.9988 111.372C81.5027 111.372 70.5139 122.364 70.5139 135.864C70.5139 137.457 70.7244 139.028 71.0292 140.575C69.1074 141.043 67.1869 141.513 65.2651 141.958C65.7803 139.965 66.0621 137.927 66.0621 135.864C66.0621 122.364 55.0733 111.372 41.5773 111.372C40.0074 111.372 38.5077 111.559 37.008 111.864V104.458C38.5077 104.739 40.0074 104.95 41.5773 104.95C55.0733 104.95 66.0621 93.9582 66.0621 80.4352C66.0621 66.9351 55.0733 55.943 41.5773 55.943C40.0074 55.943 38.5077 56.1535 37.008 56.4354V49.0291C38.5077 49.3097 40.0074 49.5214 41.5773 49.5214C55.0733 49.5214 66.0621 38.5293 66.0621 25.0292C66.0621 23.4589 65.8516 21.9117 65.5469 20.3886C67.4686 19.9434 69.3892 19.474 71.2868 19.0288C70.7946 20.9972 70.514 22.9896 70.514 25.0281C70.514 38.5282 81.5027 49.5203 94.9988 49.5203C108.495 49.5203 119.484 38.5282 119.484 25.0281C119.484 19.9192 117.891 15.0438 114.985 10.9427C119.366 10.7794 123.724 10.9439 128.059 11.5065L128.058 11.5061ZM55.4478 144.067C56.9004 141.606 57.6974 138.793 57.6974 135.863C57.6974 126.981 50.4577 119.738 41.577 119.738C40.0072 119.738 38.4845 119.996 37.0078 120.441V115.449C38.4833 115.121 40.0071 114.887 41.577 114.887C53.1513 114.887 62.5471 124.286 62.5471 135.863C62.5471 138.254 62.1251 140.597 61.3293 142.847C59.3615 143.294 57.3925 143.692 55.4478 144.067V144.067ZM62.1262 21.1628C62.3608 22.4282 62.5483 23.7179 62.5483 25.0304C62.5483 36.6081 53.1521 46.0068 41.5782 46.0068C40.0084 46.0068 38.4857 45.7721 37.0089 45.4442V40.4756C38.4844 40.9208 40.0083 41.1555 41.5782 41.1555C50.4579 41.1555 57.6985 33.9137 57.6985 25.0304C57.6985 24.0456 57.5812 23.085 57.4179 22.1474C58.9865 21.8426 60.5565 21.5147 62.1262 21.1627L62.1262 21.1628ZM37.0088 68.7182C38.4384 68.1556 39.984 67.8507 41.5781 67.8507C48.5373 67.8507 54.184 73.4992 54.184 80.4604C54.184 87.4217 48.5373 93.0701 41.5781 93.0701C39.9853 93.0701 38.4383 92.7652 37.0088 92.2027V68.7182ZM37.0088 95.8816C38.4843 96.3268 40.0082 96.5615 41.5781 96.5615C50.4578 96.5615 57.6984 89.3196 57.6984 80.4363C57.6984 71.5539 50.4587 64.3111 41.5781 64.3111C40.0083 64.3111 38.4856 64.5688 37.0088 64.991V60.0224C38.4843 59.6704 40.0082 59.4599 41.5781 59.4599C53.1524 59.4599 62.5482 68.8818 62.5482 80.4363C62.5482 92.014 53.1521 101.436 41.5781 101.436C40.0083 101.436 38.4856 101.201 37.0088 100.873V95.8816ZM107.604 25.0301C107.604 31.9913 101.957 37.6398 94.9978 37.6398C88.0386 37.6398 82.3919 31.9913 82.3919 25.0301C82.3919 21.1163 84.1492 17.5535 87.1717 15.1632C90.8509 14.3199 94.5288 13.5227 98.2308 12.8658C103.761 14.3187 107.604 19.2643 107.604 25.0301V25.0301ZM81.2683 16.5689C79.7215 19.0768 78.8785 21.9597 78.8785 25.0301C78.8785 33.9125 86.1182 41.1552 94.9988 41.1552C103.879 41.1552 111.119 33.9134 111.119 25.0301C111.119 19.6393 108.472 14.8352 104.325 11.905C106.457 11.6244 108.589 11.3655 110.721 11.2022C114.095 15.0456 115.97 19.921 115.97 25.0532C115.97 36.6309 106.551 46.0296 95.0001 46.0296C83.449 46.0296 74.03 36.6077 74.03 25.0532C74.03 22.6626 74.4521 20.3193 75.2479 18.069C75.5055 17.9988 75.7873 17.9286 76.0449 17.8815C77.7997 17.4133 79.5342 16.991 81.2683 16.5688V16.5689ZM53.9716 22.803C54.0889 23.5301 54.182 24.2559 54.182 25.029C54.182 31.9903 48.5353 37.6387 41.5761 37.6387C39.9833 37.6387 38.4364 37.3338 37.0069 36.7713V24.7485C42.6078 24.538 48.2774 23.8351 53.9715 22.8031L53.9716 22.803ZM4.1827 18.1636C4.1827 10.0775 10.7428 3.51541 18.8265 3.51541C26.9102 3.51541 33.4932 10.0775 33.4932 18.1636V121.147C30.189 116.624 24.8469 113.67 18.8265 113.67C12.8048 113.67 7.48565 116.624 4.1827 121.147V18.1636ZM4.1827 131.832C4.1827 123.747 10.7437 117.184 18.8277 117.184C26.9117 117.184 33.4944 123.746 33.4944 131.832C33.4944 139.401 27.7303 145.637 20.3504 146.41H18.8277C18.7104 146.41 18.6173 146.457 18.5 146.48C10.5794 146.294 4.18282 139.801 4.18282 131.832L4.1827 131.832ZM35.2524 146.41H29.6286C34.0805 143.105 37.0085 137.808 37.0085 131.832V124.145C38.484 123.56 40.0079 123.255 41.5778 123.255C48.537 123.255 54.1837 128.903 54.1837 135.864C54.1837 139.333 52.7312 142.638 50.224 145.004C45.1637 145.802 40.1495 146.34 35.2527 146.41L35.2524 146.41ZM75.2235 139.543C74.9659 139.613 74.7082 139.66 74.4506 139.731C74.216 138.465 74.0285 137.175 74.0285 135.863C74.0285 124.285 83.4476 114.887 94.9986 114.887C105.308 114.887 114.047 122.481 115.687 132.488C114.07 132.535 112.43 132.628 110.813 132.745C109.361 125.316 102.729 119.715 95.0215 119.715C86.1418 119.715 78.9012 126.957 78.9012 135.84C78.9012 136.778 78.9944 137.668 79.1359 138.558C77.8248 138.887 76.5126 139.215 75.2233 139.543L75.2235 139.543ZM82.5343 137.762C82.4412 137.152 82.3941 136.52 82.3941 135.887C82.3941 128.926 88.0408 123.277 95 123.277C100.928 123.277 105.966 127.496 107.231 133.121C98.9813 134.012 90.7115 135.793 82.5343 137.762L82.5343 137.762ZM145.841 136.45C145.044 136.989 144.084 137.105 143.194 136.777C140.781 135.863 138.367 135.137 135.954 134.527C136.586 128.691 141.156 124.075 147.107 123.395V134.012C147.107 134.997 146.638 135.887 145.841 136.45L145.841 136.45Z" fill="black"/>
<path d="M112.314 63.1169C102.754 53.5548 87.2204 53.5548 77.6833 63.1169C73.0682 67.7334 70.5139 73.8984 70.5139 80.4376C70.5139 86.9764 73.0682 93.1405 77.6833 97.7582C82.2984 102.375 88.4616 104.93 94.9988 104.93C101.536 104.93 107.698 102.375 112.314 97.7582C121.872 88.2177 121.872 72.6791 112.313 63.1176L112.314 63.1169ZM109.829 95.2954C105.87 99.2563 100.598 101.436 94.9983 101.436C89.3987 101.436 84.1269 99.2562 80.1673 95.2954C76.2076 91.3346 74.0282 86.0612 74.0282 80.4599C74.0282 74.8585 76.2076 69.5852 80.1673 65.6243C84.2671 61.5232 89.6334 59.4835 94.9983 59.4835C100.363 59.4835 105.73 61.522 109.829 65.6243C118.006 73.8037 118.006 87.1164 109.829 95.2957V95.2954Z" fill="black"/>
<path d="M95 64.3125C86.1203 64.3125 78.8797 71.5544 78.8797 80.4377C78.8797 89.32 86.1194 96.5628 95 96.5628C103.88 96.5628 111.12 89.321 111.12 80.4377C111.12 71.5544 103.879 64.3125 95 64.3125V64.3125ZM95 93.0703C88.0408 93.0703 82.3941 87.4219 82.3941 80.4606C82.3941 73.4993 88.0408 67.8509 95 67.8509C101.959 67.8509 107.606 73.4993 107.606 80.4606C107.606 87.4219 101.959 93.0703 95 93.0703Z" fill="black"/>
<path d="M74.0051 58.4769C75.552 56.9296 76.395 54.8911 76.395 52.7111C76.395 48.2108 72.74 44.5547 68.241 44.5547C63.742 44.5547 60.087 48.2108 60.087 52.7111C60.087 57.2115 63.742 60.8675 68.241 60.8675C70.3962 60.8675 72.4582 60.0243 74.0051 58.477L74.0051 58.4769ZM63.5786 52.7111C63.5786 50.156 65.6636 48.0705 68.2178 48.0705C70.772 48.0705 72.8571 50.1562 72.8571 52.7111C72.8571 53.9536 72.3648 55.1017 71.4977 55.9921C70.6075 56.8825 69.4598 57.3519 68.2176 57.3519C65.6633 57.3519 63.5784 55.2662 63.5784 52.7113L63.5786 52.7111Z" fill="black"/>
<path d="M114.283 108.844C114.283 113.344 117.938 117 122.437 117C124.616 117 126.654 116.157 128.201 114.61C129.748 113.062 130.591 111.024 130.591 108.844C130.591 104.344 126.936 100.688 122.437 100.688C117.938 100.688 114.283 104.344 114.283 108.844L114.283 108.844ZM127.099 108.867C127.099 110.109 126.607 111.257 125.74 112.148C124.85 113.038 123.702 113.508 122.46 113.508C119.905 113.508 117.82 111.422 117.82 108.867C117.82 106.312 119.906 104.226 122.46 104.226C125.014 104.203 127.099 106.289 127.099 108.867L127.099 108.867Z" fill="black"/>
<path d="M114.283 52.7074C114.283 54.8874 115.126 56.9259 116.673 58.4732C118.219 60.0205 120.257 60.8637 122.437 60.8637C126.936 60.8637 130.591 57.2077 130.591 52.7073C130.591 48.207 126.936 44.5509 122.437 44.5509C117.938 44.5279 114.283 48.2082 114.283 52.7073L114.283 52.7074ZM122.46 48.0435C125.014 48.0435 127.099 50.1292 127.099 52.6841C127.099 55.2391 125.014 57.3248 122.46 57.3248C121.218 57.3248 120.07 56.8324 119.18 55.965C118.289 55.0976 117.82 53.9265 117.82 52.684C117.797 50.1289 119.882 48.0433 122.459 48.0433L122.46 48.0435Z" fill="black"/>
<path d="M68.2432 100.688C63.7442 100.688 60.0892 104.344 60.0892 108.844C60.0892 111.024 60.9322 113.062 62.479 114.61C64.0259 116.157 66.0638 117 68.2431 117C72.7421 117 76.3971 113.344 76.3971 108.844C76.3971 104.344 72.7421 100.688 68.2431 100.688L68.2432 100.688ZM68.2202 113.508C66.9781 113.508 65.8304 113.015 64.9402 112.148C64.05 111.281 63.5808 110.11 63.5808 108.867C63.5808 106.312 65.6658 104.226 68.22 104.226C70.7742 104.226 72.8593 106.312 72.8593 108.867C72.8822 111.422 70.7972 113.508 68.22 113.508L68.2202 113.508Z" fill="black"/>
</g>
<defs>
<filter id="filter0_d_4453_76721" x="0.666626" y="0" width="152" height="152" filterUnits="userSpaceOnUse" color-interpolation-filters="sRGB">
<feFlood flood-opacity="0" result="BackgroundImageFix"/>
<feColorMatrix in="SourceAlpha" type="matrix" values="0 0 0 0 0 0 0 0 0 0 0 0 0 0 0 0 0 0 127 0" result="hardAlpha"/>
<feOffset dx="2" dy="2"/>
<feComposite in2="hardAlpha" operator="out"/>
<feColorMatrix type="matrix" values="0 0 0 0 0.8 0 0 0 0 1 0 0 0 0 0 0 0 0 1 0"/>
<feBlend mode="normal" in2="BackgroundImageFix" result="effect1_dropShadow_4453_76721"/>
<feBlend mode="normal" in="SourceGraphic" in2="effect1_dropShadow_4453_76721" result="shape"/>
</filter>
</defs>
</svg>
