<svg width="220" height="160" viewBox="0 0 220 160" fill="none" xmlns="http://www.w3.org/2000/svg">
<path d="M123.589 0C123.154 0 122.711 0.00518337 122.262 0.013822H81.813C75.0459 0.013822 70.0108 3.61617 66.618 8.11684C63.2253 12.6175 60.9499 17.9789 58.2858 22.8336L4.15183 121.459V121.457C4.1401 121.486 4.13005 121.516 4.11832 121.545C1.51966 125.483 0 130.229 0 135.338C0 148.942 10.7818 160 24.0109 160H134.196C141.345 160 149.996 158.628 157.85 155.085C165.687 151.548 172.872 145.667 176.043 136.658C176.049 136.639 176.054 136.62 176.061 136.6L219.695 33.5116C220.186 32.3626 220.079 31.0374 219.413 29.9869C218.748 28.9347 217.614 28.3024 216.398 28.3024H144.189C145.725 23.4631 146.525 18.7446 145.915 14.2782C145.325 9.95537 142.984 5.83814 138.93 3.36388C135.128 1.04351 130.133 -0.00523969 123.594 0.00166026L123.589 0ZM123.576 7.42585C129.321 7.43104 133.088 8.43834 135.257 9.76176C137.573 11.1751 138.432 12.7404 138.786 15.3198C139.25 18.7165 138.057 23.8222 135.937 29.5567C135.364 30.2167 135.038 31.0667 135.018 31.9513C134.118 34.194 133.094 36.5058 131.992 38.8314L94.0022 118.942C90.8372 113.936 84.9296 110.688 78.4272 110.688H24.0144C21.91 110.688 19.8676 110.966 17.9207 111.492L64.5658 26.4895C67.4493 21.2354 69.7163 16.1245 72.3117 12.683C74.907 9.2413 77.2811 7.43943 81.8165 7.43943H122.334H122.405C122.805 7.43079 123.194 7.42388 123.578 7.42561L123.576 7.42585ZM141.371 35.7263H210.882L169.372 133.856V133.854C169.362 133.889 169.352 133.925 169.344 133.961C169.323 133.998 169.303 134.034 169.283 134.072C166.966 140.703 161.623 145.273 154.956 148.281C148.29 151.289 140.423 152.557 134.192 152.557H24.0072C14.628 152.557 7.19867 144.933 7.19867 135.335C7.19867 131.573 8.34303 128.116 10.295 125.302L10.2933 125.3C10.3385 125.244 10.3821 125.187 10.4256 125.13L10.4776 125.039C13.5219 120.818 18.4178 118.107 24.007 118.107H78.4198C84.7198 118.107 89.22 122.452 89.22 127.288C89.22 132.125 84.7198 136.445 78.4198 136.445H33.1344C31.1473 136.449 29.5372 138.111 29.5372 140.162C29.5389 142.209 31.149 143.87 33.1344 143.871H78.4198C85.9208 143.871 92.6278 139.559 95.2481 133.21L138.462 42.1037C139.472 39.9734 140.454 37.8413 141.365 35.723L141.371 35.7263Z" fill="black" fill-opacity="0.2"/>
</svg>
