<svg width="151" height="152" viewBox="0 0 151 152" fill="none" xmlns="http://www.w3.org/2000/svg">
<g filter="url(#filter0_d_4453_76725)">
<path d="M64.8023 149.999C64.5165 149.999 64.2317 149.945 63.9598 149.836C63.4021 149.613 62.9572 149.176 62.7208 148.625L54.7222 129.939C54.4525 129.311 54.4815 128.594 54.7996 127.99C55.1199 127.385 55.6959 126.957 56.3664 126.825L102.29 117.761L87.1305 40.9428C86.9424 39.9842 87.3895 39.0116 88.2417 38.5313C89.0917 38.0498 90.1578 38.1702 90.8789 38.83C93.3484 41.0771 95.2644 43.7649 96.5756 46.8167L128.188 120.576C128.425 121.129 128.434 121.752 128.211 122.311C127.987 122.868 127.551 123.315 126.999 123.551L65.6934 149.816C65.4108 149.94 65.1056 150 64.8015 150L64.8023 149.999ZM59.9879 130.729L65.993 144.759L123.13 120.277L93.9881 52.2785L107.177 119.108C107.418 120.335 106.619 121.526 105.392 121.769L59.9879 130.729Z" fill="black"/>
<path d="M39.5253 134.73C39.0783 134.73 38.6398 134.598 38.2637 134.347C37.764 134.012 37.419 133.492 37.3008 132.903L21.7819 54.1727C20.5805 48.1321 21.8109 41.9798 25.2445 36.8537C28.6822 31.7191 33.9104 28.2362 39.9683 27.0444L48.3998 25.3895C49.5389 25.167 50.6856 25.8548 51.0123 26.9843C52.4921 32.1115 54.0547 34.941 54.9821 36.0714C55.4001 34.6389 55.7612 31.4138 55.2121 26.1245C55.0928 24.9596 55.8805 23.8947 57.0282 23.669L64.5046 22.1967C76.8124 19.7787 88.9376 27.7784 91.5588 40.0304L107.177 119.113C107.292 119.703 107.17 120.315 106.836 120.813C106.5 121.313 105.982 121.658 105.392 121.775L39.9626 134.688C39.8197 134.715 39.6714 134.729 39.5252 134.729L39.5253 134.73ZM47.2691 30.2301L40.8439 31.4917C35.977 32.4492 31.7728 35.2497 29.0087 39.3763C26.2502 43.4966 25.2626 48.4387 26.2277 53.2952L41.308 129.803L102.294 117.768L87.1233 40.9439C85.0192 31.1291 75.2507 24.6921 65.3834 26.6426L59.9027 27.7216C60.2938 33.2034 59.9489 39.2255 56.8732 40.7645C56.6185 40.8924 56.3423 40.9698 56.0586 40.9955C55.8748 41.0117 55.6911 41.0267 55.5051 41.06C55.2816 41.0998 55.0517 41.1062 54.8238 41.0761C51.443 40.642 48.923 35.3151 47.2701 30.2286L47.2691 30.2301Z" fill="black"/>
<path d="M51.6934 111.602C50.6338 111.602 49.687 110.854 49.4721 109.775C49.2314 108.547 50.0298 107.356 51.2571 107.113L84.4792 100.557C85.7054 100.308 86.8972 101.113 87.1411 102.34C87.3819 103.568 86.5834 104.759 85.3561 105.001L52.134 111.558C51.9857 111.589 51.8395 111.602 51.6934 111.602V111.602Z" fill="black"/>
<path d="M49.3771 99.59C49.5043 99.5895 49.631 99.5771 49.7596 99.551L49.7609 99.5507L82.9857 92.9954L49.3771 99.59ZM49.3771 99.59H49.3687C48.4265 99.59 47.5841 98.9245 47.3927 97.9636C47.1787 96.8718 47.8891 95.8126 48.9808 95.5965C48.9809 95.5965 48.9809 95.5965 48.981 95.5965L82.2057 89.0412L82.2057 89.0412L82.2079 89.0408C83.2859 88.8179 84.3563 89.5337 84.5739 90.6281C84.788 91.7199 84.0777 92.7793 82.9859 92.9954L49.3771 99.59Z" fill="black" stroke="white" stroke-width="0.5"/>
<path d="M49.3687 99.84C48.3091 99.84 47.3624 99.0921 47.1474 98.0121C46.9067 96.7848 47.7052 95.5941 48.9324 95.3512L82.1573 88.7959C83.3738 88.5445 84.5753 89.3515 84.8192 90.5799C85.06 91.8071 84.2615 92.9978 83.0342 93.2407L49.8093 99.796C49.661 99.8261 49.5149 99.84 49.3687 99.84V99.84Z" fill="black"/>
<path d="M56.3675 54.4703C52.1462 54.4703 48.3539 51.4959 47.4996 47.2251C47.0311 44.8512 47.5104 42.445 48.8537 40.4472C50.168 38.4935 52.155 37.1514 54.4602 36.6581C54.544 36.6323 54.631 36.6119 54.7191 36.5958C55.0329 36.541 55.3456 36.5087 55.6616 36.4808C60.1954 36.153 64.2976 39.247 65.1947 43.7046C65.6632 46.0678 65.1861 48.4673 63.8471 50.4684C62.5038 52.4737 60.4599 53.8363 58.088 54.3037C58.0858 54.3048 58.0815 54.3048 58.0794 54.3059C57.5044 54.4177 56.9316 54.4703 56.3674 54.4703L56.3675 54.4703ZM57.6506 52.0825H57.6732H57.6506ZM55.4831 41.0726V41.0737C54.302 41.3069 53.2844 41.9828 52.6159 42.9758C51.9496 43.9666 51.711 45.1627 51.9453 46.3415C52.4235 48.7423 54.7974 50.3198 57.2175 49.8588C58.3964 49.6245 59.4141 48.9464 60.0825 47.9491C60.7466 46.9551 60.9852 45.7644 60.7531 44.5953C60.306 42.3793 58.2556 40.8373 56.0289 40.9974C55.9075 41.0081 55.7656 41.021 55.6216 41.0404C55.5754 41.0533 55.5292 41.064 55.483 41.0726L55.4831 41.0726Z" fill="black"/>
<path d="M55.113 41.0941C55.0173 41.0941 54.9206 41.0888 54.825 41.0769C50.9971 40.588 48.2719 33.8273 46.6608 28.2437C46.0881 26.3157 45.5658 24.1795 45.1187 21.9151C44.1204 16.8481 43.6765 11.9638 43.8667 8.164C43.9592 6.33712 44.2407 0.77788 47.8784 0.0623215C54.3789 -1.15418 58.0648 15.8016 58.7419 19.2242C59.1803 21.438 59.5113 23.6034 59.7241 25.6604C60.3367 31.5934 60.3409 39.0301 56.8742 40.7655C56.6196 40.8934 56.3434 40.9708 56.0597 40.9966C55.8759 41.0127 55.6922 41.0277 55.5062 41.061C55.3762 41.0825 55.2451 41.0944 55.1129 41.0944L55.113 41.0941ZM55.8609 38.7385H55.8835H55.8609ZM48.8629 5.02779C48.2342 7.09111 47.9247 12.7245 49.5668 21.0367C49.9848 23.1623 50.4716 25.1578 51.009 26.9686C52.493 32.1106 54.0577 34.9412 54.9851 36.073C55.4031 34.6405 55.7642 31.4154 55.2151 26.1262C55.0184 24.209 54.7089 22.1822 54.2973 20.1027C52.6521 11.7762 50.2277 6.6889 48.8628 5.02752L48.8629 5.02779Z" fill="black"/>
<path d="M55.3496 41.1297C55.0068 41.1297 54.6951 41.0791 54.4028 40.9814C53.4163 40.6557 52.7791 39.7025 52.8543 38.6676C52.9274 37.6317 53.6968 36.7805 54.7199 36.5989C55.0336 36.5441 55.3464 36.5119 55.6623 36.484C56.7552 36.3948 57.8041 37.1202 58.0652 38.2131C58.3264 39.3049 57.7493 40.4247 56.7069 40.8427L55.8622 38.7407L56.665 40.8599C56.4436 40.9513 56.2405 41.0233 56.0008 41.0727C55.7719 41.1103 55.5559 41.1297 55.3496 41.1297V41.1297ZM55.356 37.6812L55.4356 37.852L55.8224 36.6807C55.6698 36.6291 55.4313 36.5764 55.183 36.6173L55.356 37.6812Z" fill="black"/>
</g>
<defs>
<filter id="filter0_d_4453_76725" x="21.3333" y="0" width="109.039" height="152" filterUnits="userSpaceOnUse" color-interpolation-filters="sRGB">
<feFlood flood-opacity="0" result="BackgroundImageFix"/>
<feColorMatrix in="SourceAlpha" type="matrix" values="0 0 0 0 0 0 0 0 0 0 0 0 0 0 0 0 0 0 127 0" result="hardAlpha"/>
<feOffset dx="2" dy="2"/>
<feComposite in2="hardAlpha" operator="out"/>
<feColorMatrix type="matrix" values="0 0 0 0 0 0 0 0 0 0.639216 0 0 0 0 1 0 0 0 0.5 0"/>
<feBlend mode="normal" in2="BackgroundImageFix" result="effect1_dropShadow_4453_76725"/>
<feBlend mode="normal" in="SourceGraphic" in2="effect1_dropShadow_4453_76725" result="shape"/>
</filter>
</defs>
</svg>
