<svg width="150" height="153" viewBox="0 0 150 153" fill="none" xmlns="http://www.w3.org/2000/svg">
<g filter="url(#filter0_d_4054_79171)">
<path d="M135.834 30.509C135.834 30.5048 135.831 30.502 135.831 30.4978C135.83 30.24 135.779 29.9836 135.678 29.7412C135.475 29.2495 135.083 28.8572 134.591 28.6541C134.346 28.5518 134.086 28.5 133.824 28.5H114.189C113.927 28.5 113.666 28.5532 113.421 28.6541C113.175 28.7564 112.952 28.9035 112.766 29.0898L29.2451 112.611C29.2353 112.619 29.2339 112.634 29.224 112.643C29.1792 112.69 29.1568 112.755 29.1162 112.807C29.0461 112.895 28.9859 112.987 28.9327 113.083C28.8976 113.146 28.8416 113.195 28.8136 113.263C28.8066 113.278 28.8038 113.293 28.7968 113.31C28.794 113.316 28.7898 113.319 28.787 113.324L16.8192 144.676L14.4223 147.072C13.6378 147.856 13.6378 149.127 14.4223 149.912C14.8146 150.304 15.3287 150.5 15.8428 150.5C16.3569 150.5 16.8711 150.304 17.2633 149.912L19.6588 147.516L51.015 135.545C51.0234 135.542 51.029 135.534 51.0374 135.531C51.1579 135.483 51.2559 135.393 51.3666 135.322C51.4815 135.248 51.609 135.192 51.7042 135.098C51.7084 135.094 51.7154 135.092 51.7196 135.088L135.24 51.5632C135.375 51.4287 135.455 51.2662 135.543 51.1079C135.582 51.0392 135.641 50.9874 135.672 50.9131C135.774 50.6652 135.829 50.4032 135.827 50.1398C135.827 50.1398 135.829 50.137 135.829 50.1356L135.834 30.509ZM49.4623 112.033H35.5067L115.018 32.5174H128.973L49.4623 112.033ZM32.0492 116.051H48.2939V132.287L22.0231 142.317L32.0492 116.051ZM52.3102 114.865L131.814 35.3572V49.3136L52.3102 128.822V114.865Z" fill="black"/>
<path d="M135.563 29.7893L135.563 29.789C135.372 29.3279 135.005 28.9601 134.544 28.7696L134.543 28.7695C134.313 28.6736 134.069 28.625 133.824 28.625H114.189C113.944 28.625 113.699 28.6748 113.469 28.7697C113.237 28.8659 113.028 29.004 112.854 29.1782L29.3423 112.691C29.341 112.693 29.3395 112.696 29.3378 112.699C29.3327 112.707 29.3249 112.719 29.3134 112.731C29.3034 112.741 29.2934 112.756 29.2773 112.785C29.2756 112.788 29.2738 112.791 29.2718 112.794C29.2581 112.819 29.2387 112.853 29.2146 112.884L29.2141 112.885C29.1485 112.968 29.0921 113.053 29.0422 113.144L29.0419 113.144C29.0218 113.18 28.9963 113.213 28.9777 113.237C28.9749 113.241 28.9722 113.244 28.9697 113.247C28.9483 113.275 28.9362 113.293 28.929 113.311L28.9274 113.314L28.9274 113.314C28.9275 113.314 28.9271 113.315 28.9245 113.323C28.9235 113.326 28.9218 113.332 28.9196 113.338C28.9176 113.344 28.9151 113.351 28.9122 113.358L28.9088 113.366L28.9086 113.366C28.9051 113.373 28.9013 113.379 28.8979 113.384L16.936 144.721L16.9265 144.746L16.9076 144.765L14.5107 147.16C13.775 147.896 13.775 149.088 14.5107 149.823C14.8786 150.191 15.3605 150.375 15.8428 150.375C16.3251 150.375 16.8071 150.191 17.1749 149.823L19.5704 147.428L19.5893 147.409L19.6142 147.399L50.9577 135.433C50.9591 135.432 50.9606 135.431 50.9622 135.43C50.9691 135.425 50.9794 135.419 50.9928 135.414M135.563 29.7893L51.3666 135.322L51.2988 135.217C51.261 135.241 51.2212 135.27 51.1853 135.296C51.167 135.309 51.1496 135.322 51.1341 135.333C51.0838 135.368 51.0389 135.396 50.9928 135.414M135.563 29.7893C135.658 30.0163 135.705 30.2566 135.706 30.4984C135.706 30.5085 135.707 30.5175 135.709 30.5251L135.704 50.1075M135.563 29.7893L135.704 50.1075M50.9928 135.414C50.9944 135.413 50.9961 135.413 50.9979 135.412L51.0374 135.531L50.9914 135.414C50.9919 135.414 50.9923 135.414 50.9928 135.414ZM135.704 50.1075L135.702 50.1106L135.702 50.1405C135.703 50.3859 135.653 50.6315 135.556 50.8652L135.704 50.1075ZM51.6165 135.009C51.6163 135.009 51.616 135.009 51.6158 135.009L51.7042 135.098L51.6165 135.009ZM51.6421 134.989L51.6313 135C51.6398 134.991 51.6478 134.986 51.6517 134.984L51.656 134.981L51.6518 134.983C51.6498 134.984 51.6468 134.986 51.6435 134.988C51.643 134.988 51.6426 134.989 51.6421 134.989ZM28.8882 113.397C28.8882 113.397 28.8883 113.397 28.8884 113.397L28.8879 113.397L28.8882 113.397ZM49.4623 112.158H49.5141L49.5507 112.121L129.062 32.6058L129.275 32.3924H128.973H115.018H114.966L114.929 32.429L35.4183 111.944L35.205 112.158H35.5067H49.4623ZM32.0492 115.926H31.9631L31.9324 116.006L21.9063 142.272L21.8067 142.533L22.0677 142.434L48.3385 132.404L48.4189 132.374V132.287V116.051V115.926H48.2939H32.0492ZM52.2218 114.777L52.1852 114.814V114.865V128.822V129.123L52.3986 128.91L131.903 49.4019L131.939 49.3653V49.3136V35.3572V35.0555L131.726 35.2689L52.2218 114.777Z" stroke="white" stroke-width="0.25"/>
</g>
<defs>
<filter id="filter0_d_4054_79171" x="13.834" y="28.5" width="124" height="124" filterUnits="userSpaceOnUse" color-interpolation-filters="sRGB">
<feFlood flood-opacity="0" result="BackgroundImageFix"/>
<feColorMatrix in="SourceAlpha" type="matrix" values="0 0 0 0 0 0 0 0 0 0 0 0 0 0 0 0 0 0 127 0" result="hardAlpha"/>
<feOffset dx="2" dy="2"/>
<feComposite in2="hardAlpha" operator="out"/>
<feColorMatrix type="matrix" values="0 0 0 0 0.8 0 0 0 0 1 0 0 0 0 0 0 0 0 1 0"/>
<feBlend mode="normal" in2="BackgroundImageFix" result="effect1_dropShadow_4054_79171"/>
<feBlend mode="normal" in="SourceGraphic" in2="effect1_dropShadow_4054_79171" result="shape"/>
</filter>
</defs>
</svg>
