<svg width="151" height="154" viewBox="0 0 151 154" fill="none" xmlns="http://www.w3.org/2000/svg">
<g filter="url(#filter0_d_4453_76729)">
<path d="M64.7449 119.889C63.624 119.745 62.5162 119.576 61.4192 119.371C61.1059 119.31 60.8045 119.432 60.5996 119.672C60.2018 120.179 60.4793 120.925 61.1178 121.046C62.2506 121.251 63.3954 121.432 64.5402 121.576C64.9143 121.624 65.2633 121.432 65.4193 121.093C65.6611 120.575 65.324 119.961 64.7451 119.889L64.7449 119.889Z" fill="black"/>
<path d="M66.1416 86.6097C65.0326 86.4405 63.9367 86.2487 62.8397 85.995C62.5383 85.9224 62.225 86.0308 62.0082 86.2607C61.5865 86.755 61.8271 87.5138 62.4656 87.6579C63.5984 87.9105 64.7313 88.1154 65.888 88.2964C66.4789 88.381 66.9601 87.8628 66.8517 87.2839C66.7803 86.9349 66.5039 86.6693 66.1418 86.6097L66.1416 86.6097Z" fill="black"/>
<path d="M60.8782 69.9825C62.011 70.1874 63.1558 70.3684 64.3006 70.5245C64.6497 70.5721 64.9749 70.4042 65.1559 70.1028C65.4573 69.5727 65.1321 68.9104 64.5294 68.8258C63.4204 68.6817 62.3006 68.5006 61.2036 68.2957C60.5413 68.1754 60.0112 68.8258 60.2638 69.4524C60.3602 69.7419 60.589 69.9348 60.8784 69.9825H60.8782Z" fill="black"/>
<path d="M69.4442 71.0406C70.5889 71.1132 71.7336 71.1728 72.8904 71.2097C73.5896 71.2216 74.0113 70.4628 73.6254 69.8839C73.4693 69.6552 73.2156 69.5098 72.938 69.5098C71.8052 69.4741 70.6843 69.4253 69.5647 69.3538C69.0584 69.3181 68.6487 69.7147 68.6487 70.221C68.6606 70.6427 69.0108 71.0048 69.4444 71.0406L69.4442 71.0406Z" fill="black"/>
<path d="M73.1676 120.528C72.0348 120.505 70.9138 120.456 69.7942 120.372C69.1319 120.337 68.6733 121.035 68.9866 121.626C69.1308 121.891 69.3845 122.047 69.6859 122.071C70.8306 122.144 71.9873 122.191 73.1321 122.227C73.8063 122.239 74.228 121.516 73.8909 120.938C73.7348 120.684 73.4692 120.528 73.1678 120.528L73.1676 120.528Z" fill="black"/>
<path d="M56.2857 67.1504C55.2136 66.8252 54.1892 66.4881 53.1411 66.0545C52.5264 65.802 51.876 66.307 51.9725 66.9705C52.0202 67.2719 52.2131 67.5244 52.4907 67.6448C53.5747 68.0902 54.6718 68.4643 55.8046 68.8014C56.094 68.886 56.3954 68.8133 56.6122 68.6084C57.1172 68.151 56.9362 67.3434 56.2858 67.1504L56.2857 67.1504Z" fill="black"/>
<path d="M47.3355 82.9118L40.9734 80.2852V82.0076H25.1887C24.7193 82.0076 24.3334 82.3936 24.3334 82.8629C24.3334 83.3323 24.7193 83.7182 25.1887 83.7182H40.9734V85.4657L47.3355 82.9118Z" fill="black"/>
<path d="M126.375 82.0076H110.578V80.2852L104.217 82.9118L110.579 85.4538V83.7063H126.364C126.834 83.7063 127.219 83.3203 127.219 82.851C127.23 82.3936 126.845 82.0076 126.375 82.0076H126.375Z" fill="black"/>
<path d="M74.5276 87.2466C73.4067 87.2347 72.2739 87.1989 71.1543 87.1263C70.467 87.0905 70.0215 87.8255 70.3717 88.4151C70.5158 88.6558 70.7696 88.813 71.059 88.8368C72.2157 88.9095 73.3604 88.9452 74.5171 88.9571C75.1318 88.9571 75.5416 88.3544 75.3129 87.7886C75.1794 87.4634 74.8781 87.2585 74.5279 87.2466L74.5276 87.2466Z" fill="black"/>
<path d="M56.5022 118.237C55.4301 117.936 54.3818 117.587 53.3454 117.177C52.851 116.984 52.309 117.274 52.2006 117.792C52.116 118.202 52.3328 118.611 52.7188 118.768C53.8028 119.201 54.9118 119.563 56.0327 119.888C56.3221 119.973 56.6235 119.9 56.8403 119.695C57.3453 119.237 57.1535 118.43 56.502 118.237H56.5022Z" fill="black"/>
<path d="M89.9885 119.274C88.8795 119.479 87.7717 119.66 86.6628 119.816C86.0243 119.913 85.711 120.648 86.0969 121.166C86.2899 121.419 86.5913 121.552 86.9046 121.503C88.0493 121.347 89.1822 121.166 90.3151 120.949C90.9655 120.829 91.2311 120.057 90.7975 119.552C90.5914 119.322 90.2901 119.214 89.9887 119.274L89.9885 119.274Z" fill="black"/>
<path d="M98.9052 117.129C98.6527 116.924 98.3263 116.863 98.0261 116.997C97.0016 117.43 95.9534 117.792 94.8934 118.106C94.4955 118.226 94.243 118.612 94.2906 119.022C94.3514 119.552 94.8695 119.889 95.3865 119.745C96.5075 119.408 97.6153 119.022 98.6885 118.576C99.2674 118.309 99.3758 117.539 98.9053 117.129L98.9052 117.129Z" fill="black"/>
<path d="M91.9523 85.3304C91.7236 85.1374 91.4342 85.0779 91.1447 85.1743C90.0965 85.4995 88.9875 85.8009 87.9153 86.0177C87.2649 86.1618 87.0231 86.9576 87.4698 87.44C87.6747 87.6568 87.9761 87.7533 88.2656 87.6925C89.3865 87.4638 90.5551 87.1506 91.6511 86.8134C92.3015 86.5955 92.4706 85.7759 91.9525 85.3304H91.9523Z" fill="black"/>
<path d="M95.1452 68.8008C96.2661 68.4756 97.3739 68.1015 98.459 67.656C99.0856 67.3904 99.1702 66.547 98.6151 66.1623C98.3745 66.0062 98.0731 65.9693 97.8075 66.0777C96.783 66.4994 95.7229 66.8484 94.6628 67.1617C94.1447 67.3177 93.8921 67.9086 94.1566 68.391C94.3507 68.74 94.7593 68.9211 95.1453 68.8008L95.1452 68.8008Z" fill="black"/>
<path d="M78.0589 71.2095C79.2037 71.1738 80.3604 71.1249 81.5052 71.0534C82.2044 71.0058 82.5415 70.1982 82.1079 69.6562C81.9269 69.4394 81.6743 69.331 81.3968 69.3548C80.2759 69.4275 79.143 69.487 78.0234 69.5108C77.3492 69.5347 76.9633 70.2815 77.3361 70.8367C77.4934 71.0773 77.7697 71.2095 78.0592 71.2095L78.0589 71.2095Z" fill="black"/>
<path d="M103.461 97.3932C98.4365 81.6932 98.6295 81.2358 104.16 67.1616C104.389 66.5707 104.643 65.9561 104.883 65.3057C106.45 61.3057 106.233 58.6301 106.016 56.0036C105.799 53.4246 105.595 50.8945 107.559 47.0027L107.606 46.9062L107.642 46.8098C109.449 41.3277 106.968 39.1824 102.967 37.858C101.714 37.4482 100.279 37.135 98.7856 36.7978C97.6528 36.5453 96.4723 36.2916 95.3037 35.9664C94.0268 35.6054 92.8463 35.316 91.773 35.0623C86.7975 33.8449 84.5555 33.2909 84.676 27.6161V27.4838L84.6522 27.3754C84.5676 26.8573 84.3865 26.3998 84.1459 25.9662C83.6635 25.0383 82.7117 24.2676 81.4228 23.7006C80.1816 23.1586 78.5794 22.7726 76.808 22.6404L76.8319 12.0496C77.7836 11.7839 78.627 11.2789 79.3143 10.6034C80.3388 9.579 80.9653 8.18173 80.9653 6.62723C80.9653 5.07273 80.3388 3.6635 79.3143 2.65102C78.2899 1.62658 76.8926 1 75.3381 1C73.7836 1 72.3744 1.62658 71.3619 2.65102C70.3375 3.67546 69.7109 5.07273 69.7109 6.62723C69.7109 8.18173 70.3375 9.59095 71.3619 10.6034C72.1088 11.3503 73.0605 11.8804 74.1207 12.121L74.0969 22.6393C72.3256 22.7715 70.7236 23.1456 69.4821 23.6995C67.5905 24.5309 66.422 25.8079 66.422 27.3387V27.3745L66.3862 27.4852V27.6175C66.5066 33.2922 64.2659 33.8463 59.2892 35.0637C58.2171 35.3293 57.0355 35.6176 55.7585 35.9678C54.59 36.293 53.4214 36.5586 52.2766 36.7992C50.7829 37.1244 49.3486 37.4496 48.0955 37.8594C44.0836 39.1733 41.6129 41.3294 43.42 46.8112L43.4558 46.9076L43.5034 47.0041C45.4796 50.8959 45.2747 53.426 45.058 56.005C44.8412 58.6197 44.6244 61.294 46.1789 65.2952L46.4922 66.0909C52.4923 81.5371 53.4321 83.9602 47.6488 97.2627L47.6131 97.3592L47.6012 97.3949C43.6606 109.926 44.0705 118.77 47.8906 124.698C51.7467 130.699 58.9639 133.603 68.6152 134.241C69.4824 134.302 70.4711 134.349 71.5908 134.373C72.3019 134.397 73.0488 134.409 73.8565 134.421L73.8207 149.638C73.8207 150.385 74.4354 151 75.1823 151C75.9291 151 76.5438 150.385 76.5438 149.638L76.5795 134.409C77.2907 134.397 77.9649 134.385 78.5915 134.373C79.7124 134.338 80.6999 134.301 81.5671 134.241C91.2062 133.603 98.6405 130.71 102.713 124.734C106.774 118.804 107.412 109.948 103.461 97.3932ZM73.2652 8.67476C72.7351 8.14467 72.4218 7.42161 72.4218 6.62588C72.4218 5.83015 72.747 5.0952 73.2652 4.577C73.7953 4.04691 74.5183 3.73364 75.3141 3.73364C76.1098 3.73364 76.8448 4.05883 77.363 4.577C77.893 5.10709 78.2063 5.83015 78.2063 6.62588C78.2063 7.42161 77.8811 8.15656 77.363 8.67476C76.8329 9.20485 76.1098 9.51812 75.3141 9.51812C74.5183 9.51812 73.7953 9.19293 73.2652 8.67476ZM70.6505 26.2544C71.6023 25.8089 72.7947 25.5432 74.0729 25.411V26.1698C74.0729 26.9167 74.6876 27.5313 75.4345 27.5313C76.1813 27.5313 76.796 26.9167 76.796 26.1698V25.3872C78.1337 25.5075 79.3988 25.7851 80.398 26.2544C81.0008 26.532 81.482 26.881 81.7477 27.2669V27.3277C81.7477 27.6648 81.2057 28.0865 80.3135 28.4724C79.0842 29.0144 77.3617 29.3396 75.4331 29.3396C73.5057 29.3396 71.782 29.0025 70.5527 28.4724C69.8177 28.1472 69.3115 27.8101 69.1673 27.5087C69.3972 27.0132 69.9274 26.5915 70.6505 26.2544ZM103.377 112.201C103.377 112.466 103.33 112.683 103.257 112.924C103.04 113.562 102.619 114.069 102.136 114.526C101.642 114.995 101.871 115.827 102.534 115.984C102.751 116.032 102.98 115.996 103.161 115.888C102.763 118.767 101.835 121.19 100.473 123.201C96.9189 128.407 90.1957 130.937 81.3879 131.527C80.4599 131.588 79.5082 131.635 78.5207 131.659C77.4605 131.695 76.3277 131.707 75.0864 131.707C73.8571 131.707 72.7123 131.683 71.652 131.659C70.6514 131.635 69.7116 131.586 68.7848 131.527C59.9889 130.936 53.5063 128.418 50.1687 123.237C48.8679 121.213 48.0364 118.778 47.6981 115.875C47.8065 115.972 47.9149 116.068 48.0352 116.165C48.2759 116.37 48.6011 116.417 48.9025 116.297C49.5052 116.056 49.6255 115.261 49.1312 114.851C48.5523 114.368 48.0222 113.803 47.722 113.103C47.6493 112.934 47.6017 112.754 47.5659 112.573C47.5659 112.549 47.554 112.526 47.554 112.501C47.6148 108.501 48.4581 103.778 50.1925 98.2349C52.8549 92.0896 54.1806 88.1265 54.3249 84.2823C55.229 85.0411 56.3737 85.6439 57.4576 86.1013C58.0722 86.3538 58.7226 85.8607 58.6381 85.1972C58.5904 84.8958 58.4094 84.6433 58.1199 84.523C57.1801 84.1251 56.1794 83.6069 55.3968 82.9446C55.0716 82.679 54.638 82.6921 54.3247 82.9208C54.1556 78.306 52.3128 73.5473 49.0357 65.1003L48.9631 64.9192C49.3847 64.6059 49.4455 63.9794 49.0476 63.6053C48.6986 63.2801 48.3972 62.9311 48.1554 62.5094C48.1435 62.4975 48.1435 62.4737 48.1316 62.4617C47.4812 59.9912 47.6372 58.0876 47.7945 56.2079C48.0351 53.268 48.2638 50.3877 45.9993 45.8695C44.9511 42.5676 46.4818 41.2548 48.9511 40.4473C50.1316 40.0613 51.4813 39.76 52.8786 39.4598C54.071 39.1941 55.3003 38.9297 56.4937 38.5926C57.7588 38.2435 58.9035 37.9541 59.9399 37.7003C65.386 36.3626 68.3022 35.6515 68.9764 30.7234C69.1325 30.808 69.3016 30.8926 69.4827 30.9641C71.0373 31.6514 73.1458 32.0731 75.4591 32.0731C77.7724 32.0731 79.8808 31.6514 81.4354 30.9641C81.6642 30.8557 81.8929 30.7473 82.0978 30.6389C82.7481 35.6394 85.6641 36.3627 91.1462 37.699C92.1825 37.9515 93.3272 38.2291 94.5924 38.5912C95.7848 38.9284 97.0141 39.194 98.2075 39.4584C99.6048 39.7717 100.954 40.0612 102.135 40.446C104.606 41.2536 106.147 42.5663 105.087 45.8682C102.821 50.3863 103.063 53.2538 103.304 56.2066C103.46 58.0374 103.605 59.9172 103.002 62.3031C102.762 62.8212 102.376 63.2548 101.966 63.6408C101.737 63.8457 101.653 64.159 101.713 64.4603C101.774 64.689 101.906 64.882 102.087 64.9904C101.931 65.3883 101.774 65.773 101.63 66.159C98.8592 73.2191 97.3524 77.0395 97.0999 80.8834C97.0761 80.9679 97.0642 81.0525 97.0642 81.149C97.0642 81.3539 97.0165 81.5099 96.9439 81.7029C96.6782 82.3057 96.1005 82.8119 95.5823 83.1729C95.3298 83.3539 95.1964 83.6553 95.2333 83.9686C95.306 84.619 96.0409 84.9442 96.571 84.5714C96.7759 84.4272 96.9808 84.27 97.1738 84.102C97.5347 87.5363 98.7759 91.597 100.884 98.2119C102.559 103.562 103.367 108.153 103.415 112.056C103.378 112.104 103.377 112.153 103.377 112.201Z" fill="black" stroke="black" stroke-width="0.5"/>
<path d="M81.6268 120.333C80.5059 120.418 79.373 120.465 78.2535 120.502C77.5911 120.526 77.2052 121.249 77.5542 121.803C77.7234 122.055 77.9997 122.213 78.3011 122.201C79.4458 122.165 80.6025 122.104 81.7473 122.032C82.4466 121.984 82.7956 121.153 82.3382 120.622C82.1452 120.418 81.8927 120.321 81.627 120.333L81.6268 120.333Z" fill="black"/>
<path d="M82.9412 86.8258C81.8203 86.958 80.7124 87.0545 79.5797 87.1272C78.9055 87.1748 78.5434 87.9467 78.9532 88.4887C79.1342 88.7174 79.3987 88.8497 79.6882 88.8258C80.8329 88.7532 82.0015 88.6567 83.1344 88.5245C83.4357 88.4887 83.6883 88.2958 83.8217 88.0182C84.098 87.4166 83.6037 86.7531 82.9414 86.8258L82.9412 86.8258Z" fill="black"/>
<path d="M86.6615 70.5384C87.8063 70.3824 88.951 70.2132 90.084 69.9964C90.5176 69.9119 90.819 69.514 90.7713 69.0685C90.7105 68.5741 90.2531 68.237 89.7707 68.3216C88.6617 68.5265 87.5539 68.6957 86.4449 68.8517C85.9994 68.9124 85.6742 69.3091 85.71 69.7677C85.7338 70.2502 86.1805 70.5992 86.6617 70.5384H86.6615Z" fill="black"/>
</g>
<defs>
<filter id="filter0_d_4453_76729" x="24.3334" y="0.75" width="104.886" height="152.5" filterUnits="userSpaceOnUse" color-interpolation-filters="sRGB">
<feFlood flood-opacity="0" result="BackgroundImageFix"/>
<feColorMatrix in="SourceAlpha" type="matrix" values="0 0 0 0 0 0 0 0 0 0 0 0 0 0 0 0 0 0 127 0" result="hardAlpha"/>
<feOffset dx="2" dy="2"/>
<feComposite in2="hardAlpha" operator="out"/>
<feColorMatrix type="matrix" values="0 0 0 0 0 0 0 0 0 0.639216 0 0 0 0 1 0 0 0 0.5 0"/>
<feBlend mode="normal" in2="BackgroundImageFix" result="effect1_dropShadow_4453_76729"/>
<feBlend mode="normal" in="SourceGraphic" in2="effect1_dropShadow_4453_76729" result="shape"/>
</filter>
</defs>
</svg>
