<svg width="16" height="17" viewBox="0 0 16 17" fill="none" xmlns="http://www.w3.org/2000/svg">
<path fill-rule="evenodd" clip-rule="evenodd" d="M8 16.5C12.4183 16.5 16 12.9183 16 8.5C16 4.08172 12.4183 0.5 8 0.5C3.58172 0.5 0 4.08172 0 8.5C0 12.9183 3.58172 16.5 8 16.5ZM9 4.5C9 3.94772 8.55229 3.5 8 3.5C7.44772 3.5 7 3.94772 7 4.5V8.5C7 8.76522 7.10536 9.01957 7.29289 9.20711L10.1213 12.0355C10.5118 12.4261 11.145 12.4261 11.5355 12.0355C11.9261 11.645 11.9261 11.0118 11.5355 10.6213L9 8.08579V4.5Z" fill="#FF9A00"/>
</svg>
