<svg width="13" height="13" viewBox="0 0 13 13" fill="none" xmlns="http://www.w3.org/2000/svg">
<path fill-rule="evenodd" clip-rule="evenodd" d="M6.5 12.4385C9.8137 12.4385 12.5 9.75218 12.5 6.43848C12.5 3.12477 9.8137 0.438477 6.5 0.438477C3.18629 0.438477 0.5 3.12477 0.5 6.43848C0.5 9.75218 3.18629 12.4385 6.5 12.4385ZM7.24999 3.43848C7.24999 3.02426 6.91421 2.68848 6.5 2.68848C6.08578 2.68848 5.75 3.02426 5.75 3.43848V6.43848C5.75 6.63739 5.82901 6.82815 5.96967 6.96881L8.09098 9.09013C8.38388 9.38302 8.85875 9.38302 9.15164 9.09013C9.44454 8.79723 9.44454 8.32236 9.15164 8.02947L7.24999 6.12782V3.43848Z" fill="black" fill-opacity="0.3"/>
</svg>
