<svg width="80" height="71" viewBox="0 0 80 71" fill="none" xmlns="http://www.w3.org/2000/svg">
<path d="M79.9071 33.4008L68.6571 5.90077C68.5192 5.56316 68.2408 5.30256 67.8948 5.18704L52.8948 0.187039C52.6141 0.0932894 52.3094 0.102218 52.0349 0.212151C44.3121 3.31873 35.6877 3.31873 27.9648 0.212151C27.6897 0.103892 27.3856 0.0949636 27.1049 0.187039L12.1049 5.18704C11.7589 5.30256 11.4805 5.56316 11.3426 5.90077L0.0926116 33.4008C-0.0519171 33.7552 -0.0262497 34.1564 0.162366 34.489C0.350981 34.8221 0.681896 35.0504 1.06025 35.1084L16.2503 37.446V68.8731C16.2503 69.2046 16.382 69.5227 16.6163 69.7571C16.8507 69.9914 17.1688 70.1231 17.5003 70.1231H25.0003C25.6906 70.1231 26.2503 69.5634 26.2503 68.8731C26.2503 68.1828 25.6906 67.6231 25.0003 67.6231H18.7503V21.3731C18.7503 20.6828 18.1906 20.1231 17.5003 20.1231C16.81 20.1231 16.2503 20.6828 16.2503 21.3731V34.9167L3.00754 32.8792L13.44 7.3735L26.3663 3.06993C26.936 7.64136 29.7574 11.6241 33.8813 13.6777C38.0052 15.7312 42.8836 15.5834 46.8752 13.2837C47.1648 13.1191 47.3763 12.8456 47.4639 12.5242C47.5509 12.2033 47.5063 11.8601 47.34 11.5716C47.1731 11.2837 46.8986 11.0733 46.5766 10.9885C46.2552 10.9031 45.9125 10.95 45.6251 11.1185C42.4316 12.9622 38.537 13.1224 35.2027 11.5471C31.8684 9.97179 29.5191 6.86121 28.9153 3.22335C36.1111 5.64907 43.9039 5.64907 51.0996 3.22335C50.8066 5.00292 50.0856 6.68435 48.9997 8.1235C48.5857 8.67596 48.6973 9.45944 49.2497 9.8735C49.8022 10.2876 50.5857 10.176 50.9997 9.6235C52.4417 7.7095 53.3519 5.44778 53.637 3.06821L66.56 7.3735L76.9925 32.8735L63.7497 34.9171V21.3735C63.7497 20.6832 63.19 20.1235 62.4997 20.1235C61.8095 20.1235 61.2497 20.6832 61.2497 21.3735V67.6236H29.9997C29.3094 67.6236 28.7497 68.1833 28.7497 68.8736C28.7497 69.5638 29.3094 70.1236 29.9997 70.1236H62.4997C62.8312 70.1236 63.1493 69.9919 63.3837 69.7575C63.618 69.5231 63.7497 69.205 63.7497 68.8736V37.4464L78.9398 35.1088C79.3181 35.0508 79.649 34.8225 79.8376 34.4894C80.0263 34.1568 80.0519 33.7556 79.9074 33.4012L79.9071 33.4008Z" fill="black" fill-opacity="0.2"/>
<path d="M36.25 62.6238H43.75C44.4403 62.6238 45 62.0641 45 61.3738C45 60.6835 44.4403 60.1238 43.75 60.1238H36.25C35.5597 60.1238 35 60.6835 35 61.3738C35 62.0641 35.5597 62.6238 36.25 62.6238Z" fill="black" fill-opacity="0.2"/>
<path d="M23.75 61.3738C23.75 61.7053 23.8817 62.0233 24.1161 62.2577C24.3504 62.4921 24.6685 62.6238 25 62.6238H28.75C29.4403 62.6238 30 62.0641 30 61.3738C30 60.6835 29.4403 60.1238 28.75 60.1238H26.25V57.6238C26.25 56.9335 25.6903 56.3738 25 56.3738C24.3097 56.3738 23.75 56.9335 23.75 57.6238V61.3738Z" fill="black" fill-opacity="0.2"/>
<path d="M23.75 38.1235C23.75 38.8138 24.3097 39.3735 25 39.3735C25.6903 39.3735 26.25 38.8138 26.25 38.1235V31.6235C26.25 30.9333 25.6903 30.3735 25 30.3735C24.3097 30.3735 23.75 30.9333 23.75 31.6235V38.1235Z" fill="black" fill-opacity="0.2"/>
<path d="M23.75 51.1238C23.75 51.8141 24.3097 52.3738 25 52.3738C25.6903 52.3738 26.25 51.8141 26.25 51.1238V44.6238C26.25 43.9335 25.6903 43.3738 25 43.3738C24.3097 43.3738 23.75 43.9335 23.75 44.6238V51.1238Z" fill="black" fill-opacity="0.2"/>
<path d="M25 26.3737C25.3315 26.3737 25.6496 26.242 25.8839 26.0076C26.1183 25.7732 26.25 25.4551 26.25 25.1237V22.6237H28.75C29.4403 22.6237 30 22.0639 30 21.3737C30 20.6834 29.4403 20.1237 28.75 20.1237H25C24.3097 20.1237 23.75 20.6834 23.75 21.3737V25.1237C23.75 25.4551 23.8817 25.7732 24.1161 26.0076C24.3504 26.242 24.6685 26.3737 25 26.3737Z" fill="black" fill-opacity="0.2"/>
<path d="M36.25 22.6237H43.75C44.4403 22.6237 45 22.0639 45 21.3737C45 20.6834 44.4403 20.1237 43.75 20.1237H36.25C35.5597 20.1237 35 20.6834 35 21.3737C35 22.0639 35.5597 22.6237 36.25 22.6237Z" fill="black" fill-opacity="0.2"/>
<path d="M56.25 21.3737C56.25 21.0422 56.1183 20.7241 55.8839 20.4897C55.6496 20.2554 55.3315 20.1237 55 20.1237H51.25C50.5597 20.1237 50 20.6834 50 21.3737C50 22.0639 50.5597 22.6237 51.25 22.6237H53.75V25.1237C53.75 25.8139 54.3097 26.3737 55 26.3737C55.6903 26.3737 56.25 25.8139 56.25 25.1237V21.3737Z" fill="black" fill-opacity="0.2"/>
<path d="M56.25 31.6235C56.25 30.9333 55.6903 30.3735 55 30.3735C54.3097 30.3735 53.75 30.9333 53.75 31.6235V38.1235C53.75 38.8138 54.3097 39.3735 55 39.3735C55.6903 39.3735 56.25 38.8138 56.25 38.1235V31.6235Z" fill="black" fill-opacity="0.2"/>
<path d="M55 43.3738C54.3097 43.3738 53.75 43.9335 53.75 44.6238V51.1238C53.75 51.8141 54.3097 52.3738 55 52.3738C55.6903 52.3738 56.25 51.8141 56.25 51.1238V44.6238C56.25 44.2923 56.1183 43.9742 55.8839 43.7399C55.6496 43.5055 55.3315 43.3738 55 43.3738Z" fill="black" fill-opacity="0.2"/>
<path d="M51.25 62.6238H55C55.3315 62.6238 55.6496 62.4921 55.8839 62.2577C56.1183 62.0233 56.25 61.7053 56.25 61.3738V57.6238C56.25 56.9335 55.6903 56.3738 55 56.3738C54.3097 56.3738 53.75 56.9335 53.75 57.6238V60.1238H51.25C50.5597 60.1238 50 60.6835 50 61.3738C50 62.0641 50.5597 62.6238 51.25 62.6238Z" fill="black" fill-opacity="0.2"/>
</svg>
