<svg width="83" height="82" viewBox="0 0 83 82" fill="none" xmlns="http://www.w3.org/2000/svg">
<g filter="url(#filter0_d_2809_26198)">
<path d="M75.2651 35.2181C74.3023 34.2566 73.2647 33.4452 72.1774 32.7337L73.1776 31.0234C73.4273 30.5742 73.2776 29.9993 72.8278 29.7377C72.3781 29.4883 71.8025 29.6378 71.5527 30.087L70.5525 31.7973C69.6523 31.3352 68.7147 30.9608 67.7648 30.6611L68.2772 28.726C68.4146 28.2265 68.1146 27.7148 67.6145 27.5898C67.1144 27.4525 66.602 27.7522 66.4645 28.2516L65.9522 30.174C64.9649 29.9619 63.9647 29.8369 62.9644 29.7866V27.7889C62.9644 27.2644 62.5392 26.8526 62.0268 26.8526C61.5015 26.8526 61.0892 27.2644 61.0892 27.7889V29.7866C60.0767 29.8363 59.0764 29.9613 58.0885 30.174L57.5762 28.2516C57.4387 27.7522 56.9263 27.4525 56.4262 27.5898C55.9261 27.7148 55.6261 28.2265 55.7635 28.726L56.2759 30.6611C55.326 30.9608 54.3883 31.3352 53.4882 31.7973L52.488 30.087C52.2382 29.6378 51.6626 29.4876 51.2128 29.7377C50.7631 30 50.6127 30.5742 50.8754 31.0234L51.8627 32.7337C51.0251 33.2705 50.2378 33.895 49.4873 34.5691C49.3498 33.5077 49.0246 32.559 48.4619 32.0099C47.8495 31.3983 46.9242 31.1109 46.0368 30.9737C46.6866 30.2493 47.2868 29.4882 47.7998 28.6891L49.5246 29.6751C49.6743 29.7627 49.8247 29.8001 49.9873 29.8001C50.3126 29.8001 50.6249 29.6377 50.7998 29.3258C51.0624 28.8888 50.912 28.3146 50.4623 28.0523L48.7374 27.0663C49.2001 26.1551 49.575 25.231 49.8874 24.2695L51.8122 24.794C51.9 24.8063 51.9748 24.8192 52.0497 24.8192C52.475 24.8192 52.8499 24.5446 52.9622 24.12C53.0996 23.6205 52.7995 23.1088 52.2994 22.9838L50.3746 22.4592C50.5746 21.4732 50.6998 20.4744 50.7495 19.4754H52.7622C53.2746 19.4754 53.6999 19.0508 53.6999 18.5391C53.6999 18.0145 53.2746 17.6027 52.7622 17.6027L50.7501 17.602C50.7004 16.6031 50.5753 15.6043 50.3752 14.6182L52.3001 14.0937C52.8002 13.9564 53.1003 13.4447 52.9628 12.9453C52.8254 12.4458 52.313 12.1591 51.8129 12.2834L49.888 12.808C49.5757 11.8465 49.2001 10.9101 48.7381 10.0111L50.4629 9.02514C50.9127 8.76286 51.0631 8.18866 50.8004 7.73947C50.5378 7.29029 49.9628 7.14014 49.5253 7.40242L47.8005 8.38843C47.1003 7.30255 46.275 6.26632 45.3252 5.31704C44.9625 4.95487 44.3624 4.95487 43.9997 5.31704C43.6371 5.67922 43.6371 6.27855 43.9997 6.64072C50.563 13.1953 50.563 23.8825 43.9997 30.4371L43.4996 30.9365C42.4994 31.0487 40.5616 31.3612 39.562 32.3601C38.5243 33.3964 38.0617 35.6687 38.0746 37.4667C38.0746 37.8662 38.112 38.3154 38.1746 38.7775C37.6371 38.6776 37.0873 38.6279 36.4993 38.7027C34.7615 38.9025 33.1237 39.8389 32.3488 41.0246C30.8226 43.121 4.82033 69.3018 4.82033 69.3018C4.45768 69.6639 4.45768 70.2633 4.82033 70.6254C5.00811 70.8001 5.24558 70.9 5.48305 70.9C5.73278 70.9 5.9709 70.8001 6.15803 70.6254L7.5706 69.2019L9.15804 70.7872C9.34582 70.9747 9.58329 71.0617 9.82076 71.0617C10.0582 71.0617 10.2957 70.9741 10.4835 70.7872C10.8461 70.425 10.8461 69.8257 10.4835 69.4635L8.89604 67.8782L11.6966 65.0813L13.2841 66.6667C13.4718 66.8542 13.7093 66.9412 13.9468 66.9412C14.1843 66.9412 14.4217 66.8535 14.6095 66.6667C14.9722 66.3045 14.9722 65.7052 14.6095 65.343L13.0221 63.7576L15.8227 60.9608L17.4101 62.5461C17.5979 62.7336 17.8353 62.8206 18.0728 62.8206C18.3103 62.8206 18.5607 62.733 18.7355 62.5461C19.0982 62.1839 19.0982 61.5846 18.7355 61.2224L17.1481 59.6371L19.9487 56.8402L21.5361 58.4256C21.7239 58.6131 21.9614 58.7001 22.1988 58.7001C22.4363 58.7001 22.6867 58.6125 22.8616 58.4256C23.2365 58.0634 23.2365 57.4641 22.8616 57.1019L21.2741 55.5165L25.162 51.6338C25.1498 52.7074 25.4743 53.6315 26.1371 54.3308C26.7998 54.9553 27.6871 55.2795 28.7376 55.2795H28.8125L26.9875 57.102L25.4001 55.5166C25.0374 55.1422 24.4373 55.1422 24.0746 55.5166C23.712 55.8788 23.712 56.4653 24.0746 56.8403L25.6621 58.4257L22.8595 61.2245L21.2721 59.6392C20.9094 59.2648 20.3093 59.2648 19.9466 59.6392C19.584 60.0013 19.584 60.5878 19.9466 60.9629L21.5341 62.5482L18.7335 65.3451L17.146 63.7597C16.7834 63.3853 16.1833 63.3853 15.8206 63.7597C15.4579 64.1219 15.4579 64.7212 15.8206 65.0834L17.408 66.6687L14.6075 69.4656L13.02 67.8803C12.6574 67.5181 12.0572 67.5181 11.6946 67.8803C11.3197 68.2424 11.3197 68.8418 11.6946 69.2039L13.282 70.7893L9.79422 74.2602C9.43156 74.6347 9.43156 75.2218 9.79422 75.5839C9.982 75.7715 10.2195 75.8585 10.4569 75.8585C10.6944 75.8585 10.9448 75.7708 11.1197 75.5839L15.2702 71.4517C15.2702 71.4517 37.3224 49.6285 39.4105 48.1173C40.6359 47.3059 41.5483 45.6826 41.7607 43.9472C41.8233 43.3601 41.7859 42.7988 41.673 42.2619C42.1105 42.3244 42.548 42.3618 43.0107 42.3618C45.0234 42.3618 47.1613 41.7999 48.086 40.8886C48.7984 40.1642 49.2985 38.7162 49.4863 37.1553L50.0987 36.5437C56.6744 29.9768 67.3635 29.9768 73.9383 36.5437C74.301 36.9059 74.8882 36.9059 75.2637 36.5437C75.6277 36.1667 75.6277 35.5803 75.265 35.2181L75.2651 35.2181ZM39.8981 43.7331C39.7606 44.8944 39.1231 46.055 38.3603 46.5545C38.348 46.5668 38.3351 46.5796 38.3229 46.5796C36.1476 48.165 34.0975 49.9508 32.2346 51.8731C31.4221 52.7218 29.9844 53.3714 28.8216 53.4088C28.2092 53.4088 27.7465 53.2716 27.4587 53.0093C27.1586 52.6845 27.0089 52.223 27.0335 51.6108C27.0586 50.4495 27.7084 49.0266 28.5835 48.2024C30.4961 46.3548 32.2713 44.3074 33.884 42.0847C34.3841 41.3229 35.5468 40.6991 36.7221 40.5612C36.8718 40.5361 37.0344 40.5361 37.2099 40.5361C37.5726 40.5361 37.9849 40.5986 38.3727 40.7481L36.3478 42.7704C35.9728 43.1326 35.9728 43.719 36.3478 44.0941C36.5226 44.2687 36.773 44.3686 37.0105 44.3686C37.2479 44.3686 37.4854 44.2687 37.6732 44.0941L39.686 42.0718C39.9234 42.6589 39.9486 43.2582 39.8983 43.7331L39.8981 43.7331ZM46.7615 39.5629C45.9865 40.3369 43.0361 40.7616 41.4106 40.362L43.986 37.79C44.3487 37.4156 44.3487 36.8285 43.986 36.4541C43.6234 36.0919 43.0232 36.0919 42.6606 36.4541L40.1103 39.001C40.0103 38.6137 39.9477 38.102 39.9477 37.4653C39.9354 35.7175 40.4355 34.1445 40.8853 33.6948C41.2602 33.3074 42.4605 32.8705 44.0356 32.7706C44.2608 32.7584 44.4608 32.7455 44.6609 32.7455C45.9612 32.7455 46.8362 33.0329 47.1362 33.3326C48.1364 34.3321 47.7241 38.6016 46.7613 39.5631L46.7615 39.5629Z" fill="black"/>
<path d="M62.0263 35.6284C58.6759 35.6284 55.5378 36.927 53.1876 39.2741L14.021 78.4018C13.6584 78.764 13.6584 79.3633 14.021 79.7255C14.2088 79.913 14.4463 80.0001 14.6837 80.0001C14.9212 80.0001 15.1587 79.9124 15.3465 79.7255L54.513 40.611C56.5134 38.6133 59.1882 37.515 62.0262 37.515C64.8642 37.5272 67.539 38.6389 69.5393 40.6361C69.902 40.9982 70.5021 40.9982 70.8648 40.6361C71.2274 40.2739 71.2274 39.6745 70.8648 39.3124C68.514 36.9408 65.3758 35.6423 62.0254 35.6294L62.0263 35.6284Z" fill="black"/>
<path d="M80.2293 30.2606C73.7162 23.7562 65.3152 21.1217 57.4387 23.0319C59.3636 15.1787 56.7263 6.7894 50.2005 0.271632C49.8378 -0.0905439 49.2377 -0.0905439 48.875 0.271632C48.5124 0.633807 48.5124 1.23314 48.875 1.59531C55.3384 8.05006 57.7008 16.4646 55.1758 24.0933C55.0635 24.4304 55.1506 24.7925 55.401 25.0548C55.6507 25.3171 56.0263 25.3919 56.3638 25.2797C64.0022 22.758 72.4279 25.1173 78.8917 31.5721C79.0795 31.7597 79.3169 31.8467 79.5544 31.8467C79.7919 31.8467 80.0294 31.759 80.2171 31.5721C80.5921 31.2093 80.5921 30.6229 80.2294 30.2607L80.2293 30.2606Z" fill="black"/>
<path d="M41.2628 9.71084C40.9001 9.34867 40.3 9.34867 39.9374 9.71084C39.5747 10.073 39.5747 10.6723 39.9374 11.0345C44.0879 15.1796 44.0879 21.9089 39.9496 26.041L0.771504 65.1688C0.408847 65.531 0.408847 66.1303 0.771504 66.4925C0.959284 66.68 1.19675 66.767 1.43423 66.767C1.6717 66.767 1.90917 66.6794 2.09695 66.4925L41.2635 27.3779C46.1381 22.5085 46.1381 14.5813 41.2628 9.71213L41.2628 9.71084Z" fill="black"/>
</g>
<defs>
<filter id="filter0_d_2809_26198" x="0.499512" y="0" width="82.0005" height="82" filterUnits="userSpaceOnUse" color-interpolation-filters="sRGB">
<feFlood flood-opacity="0" result="BackgroundImageFix"/>
<feColorMatrix in="SourceAlpha" type="matrix" values="0 0 0 0 0 0 0 0 0 0 0 0 0 0 0 0 0 0 127 0" result="hardAlpha"/>
<feOffset dx="2" dy="2"/>
<feComposite in2="hardAlpha" operator="out"/>
<feColorMatrix type="matrix" values="0 0 0 0 0.8 0 0 0 0 1 0 0 0 0 0 0 0 0 1 0"/>
<feBlend mode="normal" in2="BackgroundImageFix" result="effect1_dropShadow_2809_26198"/>
<feBlend mode="normal" in="SourceGraphic" in2="effect1_dropShadow_2809_26198" result="shape"/>
</filter>
</defs>
</svg>
